G04 ================== begin FILE IDENTIFICATION RECORD ==================*
G04 Layout Name:  D:/ORCAD/B07/allegro/B07_0526.brd*
G04 Film Name:    BOTTOM*
G04 File Format:  Gerber RS274X*
G04 File Origin:  Cadence Allegro 17.2-S073*
G04 Origin Date:  Fri Jun 23 11:19:27 2023*
G04 *
G04 Layer:  BOARD GEOMETRY/DESIGN_OUTLINE*
G04 Layer:  ETCH/BOTTOM*
G04 Layer:  PIN/BOTTOM*
G04 Layer:  VIA CLASS/BOTTOM*
G04 *
G04 Offset:    (0.0000 0.0000)*
G04 Mirror:    No*
G04 Mode:      Positive*
G04 Rotation:  0*
G04 FullContactRelief:  No*
G04 UndefLineWidth:     0.2000*
G04 ================== end FILE IDENTIFICATION RECORD ====================*
%FSLAX35Y35*MOMM*%
%IR0*IPPOS*OFA0.00000B0.00000*MIA0B0*SFA1.00000B1.00000*%
%ADD15C,.6*%
%ADD13C,.8*%
%ADD10C,.635*%
%ADD12C,1.27*%
%ADD11C,1.524*%
%ADD14C,1.905*%
%ADD16R,1.905X1.905*%
%ADD17C,1.5199*%
%ADD18R,1.5199X1.5199*%
%ADD19C,.3*%
%ADD20C,.5*%
%ADD21C,.2*%
%ADD23C,2.2704*%
%ADD22R,5.0804X5.0804*%
G75*
%LPD*%
G75*
G36*
G01X410000Y6990000D02*
X7590000D01*
G02X7990000Y6590000I0J-400000D01*
G01Y410000D01*
G02X7590000Y10000I-400000J0D01*
G01X410000D01*
G02X10000Y410000I0J400000D01*
G01Y6590000D01*
G02X410000Y6990000I400000J0D01*
G37*
%LPC*%
G75*
G36*
G01X3256000Y2549460D02*
G02X3175780Y2667000I46001J117540D01*
G02X3428220I126220J0D01*
G02X3348000Y2549460I-126221J0D01*
G03Y2530540I3703J-9460D01*
G02X3428220Y2413000I-46001J-117540D01*
G02X3175780I-126220J0D01*
G02X3256000Y2530540I126221J0D01*
G03Y2549460I-3703J9460D01*
G37*
G36*
G01X1732000D02*
G02X1651780Y2667000I46001J117540D01*
G02X1904220I126220J0D01*
G02X1824000Y2549460I-126221J0D01*
G03Y2530540I3703J-9460D01*
G02X1904220Y2413000I-46001J-117540D01*
G02X1651780I-126220J0D01*
G02X1732000Y2530540I126221J0D01*
G03Y2549460I-3703J9460D01*
G37*
G36*
G01X779500D02*
G02X699280Y2667000I46001J117540D01*
G02X951720I126220J0D01*
G02X871500Y2549460I-126221J0D01*
G03Y2530540I3703J-9460D01*
G02X951720Y2413000I-46001J-117540D01*
G02X699280I-126220J0D01*
G02X779500Y2530540I126221J0D01*
G03Y2549460I-3703J9460D01*
G37*
G36*
G01X3842350Y998160D02*
G03X3858540Y1002150I6706J7632D01*
G02X3905250Y1034270I46710J-17904D01*
G01X4095750D01*
G02X4145770Y984250I0J-50020D01*
G01Y793750D01*
G02X4095750Y743730I-50020J0D01*
G01X3905250D01*
G02X3858540Y775850I0J50024D01*
G03X3842350Y779840I-9484J-3642D01*
G02X3746500Y743730I-95850J109157D01*
G02X3627800Y805250I0J145273D01*
G03X3611200I-8300J-5857D01*
G02X3492500Y743730I-118700J83753D01*
G02Y1034270I0J145270D01*
G02X3611200Y972750I0J-145273D01*
G03X3627800I8300J5857D01*
G02X3746500Y1034270I118700J-83753D01*
G02X3842350Y998160I0J-145267D01*
G37*
G36*
G01X5207480Y3568000D02*
G02X5229450Y3621050I75034J0D01*
G01X5245750Y3637350D01*
X5246070Y3638800D01*
G02X5334000Y3709520I87930J-19304D01*
G02X5424020Y3619500I0J-90020D01*
G02X5361070Y3533650I-90015J0D01*
G01X5357520Y3532530D01*
Y3022260D01*
G02X5372520Y2972500I-75021J-49756D01*
G02X5192480I-90020J0D01*
G02X5207480Y3022260I90021J4D01*
G01Y3568000D01*
G37*
G36*
G01X2064430Y4306480D02*
X1954760D01*
G02X1905000Y4291480I-49756J75021D01*
G02Y4471520I0J90020D01*
G02X1954760Y4456520I4J-90021D01*
G01X2095500D01*
G02X2148550Y4434550I0J-75034D01*
G01X2748350Y3834750D01*
X2749800Y3834430D01*
G02X2820520Y3746500I-19304J-87930D01*
G02X2730500Y3656480I-90020J0D01*
G02X2642570Y3727200I0J90024D01*
G01X2642250Y3728650D01*
X2064430Y4306480D01*
G37*
G36*
G01X7539640Y5395980D02*
G02X7493000Y5380980I-46640J65010D01*
G02Y5541020I0J80020D01*
G02X7539640Y5526020I0J-80010D01*
G01X7636860D01*
G02X7683500Y5541020I46640J-65010D01*
G02Y5380980I0J-80020D01*
G02X7636860Y5395980I0J80010D01*
G01X7539640D01*
G37*
G36*
G01X4682240Y5980690D02*
Y6191600D01*
G02X4667240Y6238240I65010J46640D01*
G02X4827280I80020J0D01*
G02X4812280Y6191600I-80010J0D01*
G01Y5953760D01*
G02X4793240Y5907780I-65023J-7D01*
G01X3811520Y4926070D01*
Y4237640D01*
G02X3826520Y4191000I-65010J-46640D01*
G02X3811990Y4145020I-80017J0D01*
G03X3820300Y4129020I8314J-5840D01*
G01X4334860D01*
G02X4381500Y4144020I46640J-65010D01*
G02Y3983980I0J-80020D01*
G02X4334860Y3998980I0J80010D01*
G01X3793140D01*
G02X3762460Y3985590I-46640J65021D01*
G03X3755310Y3971280I2028J-9955D01*
G02X3763020Y3937000I-72312J-34271D01*
G02X3602980I-80020J0D01*
G02X3611080Y3972080I80013J0D01*
G01Y4493800D01*
G03X3595860Y4502610I-10158J2D01*
G02X3556000Y4491980I-39853J69392D01*
G02X3477310Y4557470I0J80020D01*
G01X3477020Y4559020D01*
X3002020Y5034020D01*
G02X2982980Y5080000I45983J45973D01*
G01Y6078710D01*
G02X2967980Y6125350I65010J46640D01*
G02X3128020I80020J0D01*
G02X3113020Y6078710I-80010J0D01*
G01Y5106930D01*
X3568980Y4650980D01*
X3570530Y4650690D01*
G02X3595860Y4641390I-14520J-78693D01*
G03X3611080Y4650200I5062J8808D01*
G01Y5044920D01*
G02X3602980Y5080000I71913J35080D01*
G02X3683000Y5160020I80020J0D01*
G02X3762850Y5085160I0J-80016D01*
G03X3780180Y5078630I10140J651D01*
G01X4682240Y5980690D01*
G37*
G36*
G01X6079140Y2855980D02*
G02X6032500Y2840980I-46640J65010D01*
G02Y3001020I0J80020D01*
G02X6079140Y2986020I0J-80010D01*
G01X6858000D01*
G02X6903980Y2966980I7J-65023D01*
G01X7245360Y2625590D01*
X7247660Y2625740D01*
G02X7256000Y2626020I8396J-125738D01*
G02X7382020Y2500000I0J-126020D01*
G02X7299020Y2381550I-126020J0D01*
G03Y2362450I3466J-9550D01*
G02Y2125550I-43020J-118450D01*
G03Y2106450I3466J-9550D01*
G02Y1869550I-43020J-118450D01*
G03Y1850450I3466J-9550D01*
G02Y1613550I-43020J-118450D01*
G03Y1594450I3466J-9550D01*
G02X7382020Y1476000I-43020J-118450D01*
G02X7256000Y1349980I-126020J0D01*
G02X7137550Y1432980I0J126020D01*
G03X7118450I-9550J-3466D01*
G02X7000000Y1349980I-118450J43020D01*
G02X6873980Y1476000I0J126020D01*
G02X6956980Y1594450I126020J0D01*
G03Y1613550I-3466J9550D01*
G02Y1850450I43020J118450D01*
G03Y1869550I-3466J9550D01*
G02Y2106450I43020J118450D01*
G03Y2125550I-3466J9550D01*
G02X6873980Y2244000I43020J118450D01*
G02X6940120Y2354890I126029J0D01*
G03X6935290Y2373980I-4832J8934D01*
G01X6924000D01*
G02X6879340Y2401480I5J50023D01*
G01X6698570D01*
X6033520Y1736430D01*
Y1436260D01*
G02X6048520Y1386500I-75021J-49756D01*
G02X5868480I-90020J0D01*
G02X5883480Y1436260I90021J4D01*
G01Y1767500D01*
G02X5905450Y1820550I75034J0D01*
G01X6614450Y2529550D01*
G02X6667500Y2551520I53050J-53064D01*
G01X6873980D01*
Y2576000D01*
G02X6924000Y2626020I50025J-5D01*
G01X7036510D01*
G03X7043690Y2643360I-5J10159D01*
G01X6831070Y2855980D01*
X6079140D01*
G37*
G36*
G01X2147480Y3506240D02*
G02X2132480Y3556000I75021J49756D01*
G02X2312520I90020J0D01*
G02X2297520Y3506240I-90021J-4D01*
G01Y2753640D01*
G03X2315530Y2747190I10161J2D01*
G02X2413000Y2793220I97470J-80183D01*
G02X2539220Y2667000I0J-126220D01*
G02X2459000Y2549460I-126221J0D01*
G03Y2530540I3703J-9460D01*
G02X2539220Y2413000I-46001J-117540D01*
G02X2413000Y2286780I-126220J0D01*
G02X2315530Y2332810I0J126213D01*
G03X2297520Y2326360I-7849J-6452D01*
G01Y2081760D01*
G02X2312520Y2032000I-75021J-49756D01*
G02X2132480I-90020J0D01*
G02X2147480Y2081760I90021J4D01*
G01Y3506240D01*
G37*
G36*
G01X3295270Y4095040D02*
G02X3290380Y4122600I75133J27545D01*
G02X3450420I80020J0D01*
G02X3435420Y4075960I-80010J0D01*
G01Y3973330D01*
G02X3430880Y3949450I-65022J-10D01*
G01X3430520Y3948550D01*
Y3769920D01*
X4648480Y2551970D01*
X4650030Y2551680D01*
G02X4715520Y2472990I-14530J-78690D01*
G02X4652740Y2394850I-80019J0D01*
G03X4645590Y2380940I2192J-9919D01*
G02X4652020Y2349500I-73592J-31428D01*
G02X4491980I-80020J0D01*
G02X4503010Y2390040I80016J0D01*
G01X4207050Y2686000D01*
G03X4189750Y2677930I-7180J-7187D01*
G02X4190220Y2667000I-125752J-10883D01*
G02X4110000Y2549460I-126221J0D01*
G03Y2530540I3703J-9460D01*
G02X4190220Y2413000I-46001J-117540D01*
G02X3937780I-126220J0D01*
G02X4018000Y2530540I126221J0D01*
G03Y2549460I-3703J9460D01*
G02X3937780Y2667000I46001J117540D01*
G02X4064000Y2793220I126220J0D01*
G02X4074930Y2792750I47J-126222D01*
G03X4083000Y2810050I883J10120D01*
G01X3973570Y2919480D01*
X3492500D01*
G02X3446520Y2938520I-7J65023D01*
G01X3254020Y3131020D01*
G02X3234980Y3177000I45983J45973D01*
G01Y3955860D01*
G02X3219980Y4002500I65010J46640D01*
G02X3287340Y4081510I80017J0D01*
G03X3295270Y4095040I-1607J10031D01*
G37*
G36*
G01X7095140Y5780020D02*
X7827360D01*
G02X7874000Y5795020I46640J-65010D01*
G02Y5634980I0J-80020D01*
G02X7827360Y5649980I0J80010D01*
G01X7095140D01*
G02X7061860Y5636100I-46650J65015D01*
G01X7057630Y5635390D01*
Y5626020D01*
X7076000D01*
G02X7126020Y5576000I-5J-50025D01*
G01Y5564710D01*
G03X7145110Y5559880I10156J2D01*
G02X7256000Y5626020I110890J-59889D01*
G02X7382020Y5500000I0J-126020D01*
G02X7299020Y5381550I-126020J0D01*
G03Y5362450I3466J-9550D01*
G02Y5125550I-43020J-118450D01*
G03Y5106450I3466J-9550D01*
G02Y4869550I-43020J-118450D01*
G03Y4850450I3466J-9550D01*
G02Y4613550I-43020J-118450D01*
G03Y4594450I3466J-9550D01*
G02X7382020Y4476000I-43020J-118450D01*
G02X7256000Y4349980I-126020J0D01*
G02X7137550Y4432980I0J126020D01*
G03X7118450I-9550J-3466D01*
G02X7000000Y4349980I-118450J43020D01*
G02X6873980Y4476000I0J126020D01*
G02X6956980Y4594450I126020J0D01*
G03Y4613550I-3466J9550D01*
G02X6873980Y4732000I43020J118450D01*
G02X6874670Y4745180I126021J11D01*
G03X6857380Y4753430I-10104J1068D01*
G01X6732520Y4628570D01*
Y4618670D01*
X6733420Y4617370D01*
G02X6747520Y4572000I-65922J-45363D01*
G02X6587480I-80020J0D01*
G02X6602480Y4618640I80010J0D01*
G01Y4655500D01*
G02X6621520Y4701480I65023J7D01*
G01X6877670Y4957620D01*
X6877050Y4960350D01*
G02X6874210Y4980370I122949J27653D01*
G03X6856890Y4986930I-10138J-623D01*
G01X6542020Y4672070D01*
Y4555140D01*
G02X6557020Y4508500I-65010J-46640D01*
G02X6482550Y4428670I-80023J0D01*
G03X6473310Y4416450I703J-10135D01*
G02X6475020Y4400000I-78310J-16454D01*
G02X6314980I-80020J0D01*
G02X6329980Y4446640I80010J0D01*
G01Y4871000D01*
G02X6349020Y4916980I65023J7D01*
G01X6685020Y5252980D01*
G02X6731000Y5272020I45973J-45983D01*
G01X6747830D01*
X6749130Y5272920D01*
G02X6794500Y5287020I45363J-65922D01*
G02X6857200Y5256720I0J-80023D01*
G03X6875220Y5261610I7960J6315D01*
G02X6940120Y5354890I124785J-17602D01*
G03X6935290Y5373980I-4832J8934D01*
G01X6924000D01*
G02X6873980Y5424000I5J50025D01*
G01Y5576000D01*
G02X6924000Y5626020I50025J-5D01*
G01X7004690D01*
G03X7009630Y5645060I5J10160D01*
G02X6968480Y5715000I38861J69940D01*
G02X7048500Y5795020I80020J0D01*
G02X7095140Y5780020I0J-80010D01*
G37*
G54D23*
X889000Y3947000D03*
Y4435000D03*
G54D22*
X400000Y6600000D03*
X7600000D03*
Y400000D03*
X400000D03*
%LPD*%
G75*
G54D10*
X400000Y400000D03*
Y6600000D03*
X7600000Y400000D03*
Y6600000D03*
G54D20*
G01X825500Y2281700D02*
Y2413000D01*
G01X694200D02*
X825500D01*
G01D02*
X956800D01*
G01X1905000Y4381500D02*
X2095500D01*
X2730500Y3746500D01*
G01X2222500Y3556000D02*
Y2032000D01*
G01X3746500Y738650D02*
Y889000D01*
G01D02*
Y1039350D01*
G01X4064000Y2281700D02*
Y2413000D01*
G01X3932700D02*
X4064000D01*
G01D02*
X4195300D01*
G01X5282500Y2972500D02*
Y3568000D01*
X5334000Y3619500D01*
G01X7000000Y2500000D02*
X6985000D01*
Y2476500D01*
X6667500D01*
X5958500Y1767500D01*
Y1386500D01*
G01X7256000Y1732000D02*
X7387100D01*
G01X6868900D02*
X7000000D01*
G01X7256000Y1988000D02*
X7387100D01*
G54D11*
X825500Y2667000D03*
Y2413000D03*
X1778000D03*
Y2667000D03*
X2413000Y2413000D03*
Y2667000D03*
X3302000Y2413000D03*
Y2667000D03*
X4064000D03*
Y2413000D03*
G54D21*
G01X400000Y0D02*
X7600000D01*
G03X8000000Y400000I0J400000D01*
G01Y6600000D01*
G03X7600000Y7000000I-400000J0D01*
G01X400000D01*
G03X0Y6600000I0J-400000D01*
G01Y400000D01*
G03X400000Y0I400000J0D01*
G54D12*
X889000Y3947000D03*
Y4435000D03*
G54D13*
Y5270500D03*
Y5969000D03*
X988760Y762000D03*
X1778000Y3175000D03*
Y4000500D03*
X1905000Y4381500D03*
X1778000Y5270500D03*
X2393490Y889000D03*
X2222500Y2032000D03*
X2603500Y3492500D03*
X2222500Y3556000D03*
X2730500Y3746500D03*
X2413000Y4762500D03*
X2603500Y5842000D03*
X2921000Y606360D03*
X2859100Y4125900D03*
X3873500Y1841500D03*
X4572000Y3619500D03*
X4127500Y3937000D03*
X4572000Y5270500D03*
X5387180Y1050310D03*
X5282500Y2972500D03*
X5334000Y3619500D03*
X4810760Y4874260D03*
X5958500Y1386500D03*
X5456500Y2540000D03*
X5461000Y5207000D03*
X5651500Y4889500D03*
X5461000Y5842000D03*
X6096000Y2447860D03*
X6558980Y3713480D03*
G54D14*
X3492500Y889000D03*
X3746500D03*
G54D15*
X3300000Y4002500D03*
X3370400Y4122600D03*
X3048000Y6125350D03*
X3683000Y3937000D03*
X3746500Y4064000D03*
X3556000Y4572000D03*
X3746500Y4191000D03*
X3683000Y5080000D03*
X4635500Y2472990D03*
X4572000Y2349500D03*
X4381500Y4064000D03*
X4747260Y6238240D03*
X6032500Y2921000D03*
X6395000Y4400000D03*
X6477000Y4508500D03*
X7256000Y2523000D03*
X6667500Y4572000D03*
X6794500Y5207000D03*
X6858000Y5080000D03*
X7048500Y5715000D03*
X7874000D03*
X7683500Y5461000D03*
X7493000D03*
G54D16*
X4000500Y889000D03*
G54D17*
X7256000Y1476000D03*
X7000000D03*
X7256000Y1732000D03*
X7000000D03*
X7256000Y1988000D03*
X7000000D03*
X7256000Y2244000D03*
X7000000D03*
X7256000Y2500000D03*
Y4476000D03*
X7000000D03*
X7256000Y4732000D03*
X7000000D03*
X7256000Y4988000D03*
X7000000D03*
X7256000Y5244000D03*
X7000000D03*
X7256000Y5500000D03*
G54D18*
X7000000Y2500000D03*
Y5500000D03*
G54D19*
G01X4572000Y2349500D02*
Y2413000D01*
X4000500Y2984500D01*
X3492500D01*
X3300000Y3177000D01*
Y4002500D01*
G01X3370400Y4122600D02*
Y3973330D01*
X3365500Y3968430D01*
Y3742990D01*
X4635500Y2472990D01*
G01X3048000Y6125350D02*
Y5080000D01*
X3556000Y4572000D01*
G01X3683000Y5080000D02*
X3676100D01*
Y3937000D01*
X3683000D01*
G01X4381500Y4064000D02*
X3746500D01*
G01Y4191000D02*
Y4953000D01*
X4747260Y5953760D01*
Y6238240D01*
G01X6032500Y2921000D02*
X6858000D01*
X7256000Y2523000D01*
G01X6794500Y5207000D02*
X6731000D01*
X6395000Y4871000D01*
Y4400000D01*
G01X6477000Y4508500D02*
Y4699000D01*
X6858000Y5080000D01*
G01X6667500Y4572000D02*
Y4655500D01*
X7000000Y4988000D01*
G01X7874000Y5715000D02*
X7048500D01*
G01X7683500Y5461000D02*
X7493000D01*
M02*
