G04 ================== begin FILE IDENTIFICATION RECORD ==================*
G04 Layout Name:  D:/ORCAD/B07/allegro/B07_0526.brd*
G04 Film Name:    Dril_DRAW*
G04 File Format:  Gerber RS274X*
G04 File Origin:  Cadence Allegro 17.2-S073*
G04 Origin Date:  Fri Jun 23 11:19:27 2023*
G04 *
G04 Layer:  MANUFACTURING/NCLEGEND-1-2*
G04 Layer:  BOARD GEOMETRY/DESIGN_OUTLINE*
G04 *
G04 Offset:    (0.0000 0.0000)*
G04 Mirror:    No*
G04 Mode:      Positive*
G04 Rotation:  0*
G04 FullContactRelief:  No*
G04 UndefLineWidth:     0.0000*
G04 ================== end FILE IDENTIFICATION RECORD ====================*
%FSLAX35Y35*MOMM*%
%IR0*IPPOS*OFA0.00000B0.00000*MIA0B0*SFA1.00000B1.00000*%
%AMMACRO16*
1,1,0.0,.15,0.0*
20,1,0.0,.15,0.0,-.15,0.0,0.0*
1,1,0.0,-.15,0.0*
1,1,0.0,0.0,.15*
20,1,0.0,0.0,.15,0.0,-.15,0.0*
1,1,0.0,0.0,-.15*
%
%ADD16MACRO16*%
%AMMACRO15*
1,1,0.0,.2,.2*
20,1,0.0,.2,.2,.2,-.2,0.0*
1,1,0.0,.2,-.2*
20,1,0.0,.2,-.2,-.2,-.2,0.0*
1,1,0.0,-.2,-.2*
20,1,0.0,-.2,-.2,-.2,.2,0.0*
1,1,0.0,-.2,.2*
20,1,0.0,-.2,.2,.2,.2,0.0*
1,1,0.0,.2,.2*
%
%ADD15MACRO15*%
%AMMACRO11*
1,1,0.0,.6858,0.0*
20,1,0.0,.6858,0.0,0.0,-.6858,0.0*
1,1,0.0,0.0,-.6858*
20,1,0.0,0.0,-.6858,-.6858,0.0,0.0*
1,1,0.0,-.6858,0.0*
20,1,0.0,-.6858,0.0,0.0,.6858,0.0*
1,1,0.0,0.0,.6858*
20,1,0.0,0.0,.6858,.6858,0.0,0.0*
1,1,0.0,.6858,0.0*
%
%ADD11MACRO11*%
%AMMACRO10*
1,1,0.0,0.0,1.5*
20,1,0.0,0.0,1.5,1.299038,-.75,0.0*
1,1,0.0,1.299038,-.75*
20,1,0.0,1.299038,-.75,-1.299038,-.75,0.0*
1,1,0.0,-1.299038,-.75*
20,1,0.0,-1.299038,-.75,0.0,1.5,0.0*
1,1,0.0,0.0,1.5*
%
%ADD10MACRO10*%
%AMMACRO14*
1,1,0.0,.381,0.0*
20,1,0.0,.381,0.0,.1905,.329956,0.0*
1,1,0.0,.1905,.329956*
20,1,0.0,.1905,.329956,-.1905,.329956,0.0*
1,1,0.0,-.1905,.329956*
20,1,0.0,-.1905,.329956,-.381,0.0,0.0*
1,1,0.0,-.381,0.0*
20,1,0.0,-.381,0.0,-.1905,-.329956,0.0*
1,1,0.0,-.1905,-.329956*
20,1,0.0,-.1905,-.329956,.1905,-.329956,0.0*
1,1,0.0,.1905,-.329956*
20,1,0.0,.1905,-.329956,.381,0.0,0.0*
1,1,0.0,.381,0.0*
%
%ADD14MACRO14*%
%AMMACRO13*
1,1,0.0,0.0,.4572*
20,1,0.0,0.0,.4572,-.395947,.2286,0.0*
1,1,0.0,-.395947,.2286*
20,1,0.0,-.395947,.2286,-.395947,-.2286,0.0*
1,1,0.0,-.395947,-.2286*
20,1,0.0,-.395947,-.2286,0.0,-.4572,0.0*
1,1,0.0,0.0,-.4572*
20,1,0.0,0.0,-.4572,.395947,-.2286,0.0*
1,1,0.0,.395947,-.2286*
20,1,0.0,.395947,-.2286,.395947,.2286,0.0*
1,1,0.0,.395947,.2286*
20,1,0.0,.395947,.2286,0.0,.4572,0.0*
1,1,0.0,0.0,.4572*
%
%ADD13MACRO13*%
%AMMACRO12*
1,1,0.0,.207107,-.5*
20,1,0.0,.207107,-.5,-.207107,-.5,0.0*
1,1,0.0,-.207107,-.5*
20,1,0.0,-.207107,-.5,-.5,-.207107,0.0*
1,1,0.0,-.5,-.207107*
20,1,0.0,-.5,-.207107,-.5,.207107,0.0*
1,1,0.0,-.5,.207107*
20,1,0.0,-.5,.207107,-.207107,.5,0.0*
1,1,0.0,-.207107,.5*
20,1,0.0,-.207107,.5,.207107,.5,0.0*
1,1,0.0,.207107,.5*
20,1,0.0,.207107,.5,.5,.207107,0.0*
1,1,0.0,.5,.207107*
20,1,0.0,.5,.207107,.5,-.207107,0.0*
1,1,0.0,.5,-.207107*
20,1,0.0,.5,-.207107,.207107,-.5,0.0*
1,1,0.0,.207107,-.5*
%
%ADD12MACRO12*%
%LPD*%
G75*
G54D10*
X-1271270Y-6619000D03*
G54D11*
Y-5984000D03*
X3492500Y889000D03*
X4000500D03*
X3746500D03*
G54D12*
X-1271270Y-5349000D03*
X7256000Y1476000D03*
X7000000D03*
X7256000Y1732000D03*
X7000000D03*
X7256000Y1988000D03*
X7000000D03*
X7256000Y2244000D03*
X7000000D03*
X7256000Y2500000D03*
X7000000D03*
X7256000Y4476000D03*
X7000000D03*
X7256000Y4732000D03*
X7000000D03*
X7256000Y4988000D03*
X7000000D03*
X7256000Y5244000D03*
X7000000D03*
X7256000Y5500000D03*
X7000000D03*
G54D13*
X-1271270Y-4714000D03*
X825500Y2667000D03*
Y2413000D03*
X1778000D03*
Y2667000D03*
X2413000Y2413000D03*
Y2667000D03*
X3302000Y2413000D03*
Y2667000D03*
X4064000D03*
Y2413000D03*
G54D14*
X-1271270Y-4079000D03*
X889000Y3947000D03*
Y4435000D03*
G54D15*
X-1271270Y-3444000D03*
X889000Y5270500D03*
Y5969000D03*
X988760Y762000D03*
X1778000Y3175000D03*
Y4000500D03*
X1905000Y4381500D03*
X1778000Y5270500D03*
X2393490Y889000D03*
X2222500Y2032000D03*
X2603500Y3492500D03*
X2222500Y3556000D03*
X2730500Y3746500D03*
X2413000Y4762500D03*
X2603500Y5842000D03*
X2921000Y606360D03*
X2859100Y4125900D03*
X3873500Y1841500D03*
X4572000Y3619500D03*
X4127500Y3937000D03*
X4572000Y5270500D03*
X5387180Y1050310D03*
X5282500Y2972500D03*
X5334000Y3619500D03*
X4810760Y4874260D03*
X5958500Y1386500D03*
X5456500Y2540000D03*
X5461000Y5207000D03*
X5651500Y4889500D03*
X5461000Y5842000D03*
X6096000Y2447860D03*
X6558980Y3713480D03*
G54D16*
X-1271270Y-2809000D03*
X3300000Y4002500D03*
X3370400Y4122600D03*
X3048000Y6125350D03*
X3683000Y3937000D03*
X3746500Y4064000D03*
X3556000Y4572000D03*
X3746500Y4191000D03*
X3683000Y5080000D03*
X4635500Y2472990D03*
X4572000Y2349500D03*
X4381500Y4064000D03*
X4747260Y6238240D03*
X6032500Y2921000D03*
X6395000Y4400000D03*
X6477000Y4508500D03*
X7256000Y2523000D03*
X6667500Y4572000D03*
X6794500Y5207000D03*
X6858000Y5080000D03*
X7048500Y5715000D03*
X7874000D03*
X7683500Y5461000D03*
X7493000D03*
M02*
