G04 ================== begin FILE IDENTIFICATION RECORD ==================*
G04 Layout Name:  D:/ORCAD/B07/allegro/B07_0526.brd*
G04 Film Name:    SilkScreen_TOP*
G04 File Format:  Gerber RS274X*
G04 File Origin:  Cadence Allegro 17.2-S073*
G04 Origin Date:  Fri Jun 23 11:19:27 2023*
G04 *
G04 Layer:  REF DES/SILKSCREEN_TOP*
G04 Layer:  PACKAGE GEOMETRY/PLACE_BOUND_TOP*
G04 Layer:  BOARD GEOMETRY/DIMENSION*
G04 Layer:  BOARD GEOMETRY/SILKSCREEN_TOP*
G04 Layer:  BOARD GEOMETRY/DESIGN_OUTLINE*
G04 *
G04 Offset:    (0.0000 0.0000)*
G04 Mirror:    No*
G04 Mode:      Positive*
G04 Rotation:  0*
G04 FullContactRelief:  No*
G04 UndefLineWidth:     0.2000*
G04 ================== end FILE IDENTIFICATION RECORD ====================*
%FSLAX35Y35*MOMM*%
%IR0*IPPOS*OFA0.00000B0.00000*MIA0B0*SFA1.00000B1.00000*%
%ADD10C,.2*%
%ADD11C,.2032*%
%ADD12C,.25*%
%ADD13C,.1524*%
G75*
%LPD*%
G75*
G36*
G01X915670Y679450D02*
Y986790D01*
X736600D01*
Y679450D01*
X915670D01*
G37*
G36*
G01Y1568450D02*
Y1875790D01*
X736600D01*
Y1568450D01*
X915670D01*
G37*
G36*
G01X798830Y5670550D02*
Y5363210D01*
X977900D01*
Y5670550D01*
X798830D01*
G37*
G36*
G01X979170Y6013450D02*
Y6320790D01*
X800100D01*
Y6013450D01*
X979170D01*
G37*
G36*
G01X2368500Y639000D02*
Y1189000D01*
X1618500D01*
Y639000D01*
X2368500D01*
G37*
G36*
G01X1868170Y1568450D02*
Y1875790D01*
X1689100D01*
Y1568450D01*
X1868170D01*
G37*
G36*
G01X1687830Y3702050D02*
Y3394710D01*
X1866900D01*
Y3702050D01*
X1687830D01*
G37*
G36*
G01Y4464050D02*
Y4156710D01*
X1866900D01*
Y4464050D01*
X1687830D01*
G37*
G36*
G01X1868170Y5378450D02*
Y5685790D01*
X1689100D01*
Y5378450D01*
X1868170D01*
G37*
G36*
G01Y6013450D02*
Y6320790D01*
X1689100D01*
Y6013450D01*
X1868170D01*
G37*
G36*
G01X2503170Y1568450D02*
Y1875790D01*
X2324100D01*
Y1568450D01*
X2503170D01*
G37*
G36*
G01Y3409950D02*
Y3717290D01*
X2324100D01*
Y3409950D01*
X2503170D01*
G37*
G36*
G01Y4870450D02*
Y5177790D01*
X2324100D01*
Y4870450D01*
X2503170D01*
G37*
G36*
G01X3011170Y679450D02*
Y986790D01*
X2832100D01*
Y679450D01*
X3011170D01*
G37*
G36*
G01X4290060Y1178560D02*
X3202940D01*
Y586740D01*
X4290060D01*
Y1178560D01*
G37*
G36*
G01X3392170Y1568450D02*
Y1875790D01*
X3213100D01*
Y1568450D01*
X3392170D01*
G37*
G36*
G01X3827000Y4511000D02*
Y4286000D01*
X4058000D01*
Y3623000D01*
X3827000D01*
Y3392000D01*
X3173000D01*
X3170000Y3620000D01*
X2940000D01*
Y4280000D01*
X3170000D01*
Y4510000D01*
X3827000Y4511000D01*
G37*
G36*
G01X3973830Y1924050D02*
Y1616710D01*
X4152900D01*
Y1924050D01*
X3973830D01*
G37*
G36*
G01X4852670Y3536950D02*
Y3844290D01*
X4673600D01*
Y3536950D01*
X4852670D01*
G37*
G36*
G01X4481830Y5099050D02*
Y4791710D01*
X4660900D01*
Y5099050D01*
X4481830D01*
G37*
G36*
G01X4662170Y5378450D02*
Y5685790D01*
X4483100D01*
Y5378450D01*
X4662170D01*
G37*
G36*
G01Y6013450D02*
Y6320790D01*
X4483100D01*
Y6013450D01*
X4662170D01*
G37*
G36*
G01X4735830Y1098550D02*
Y791210D01*
X4914900D01*
Y1098550D01*
X4735830D01*
G37*
G36*
G01X5043170Y1631950D02*
Y1939290D01*
X4864100D01*
Y1631950D01*
X5043170D01*
G37*
G36*
G01X5424170Y3663950D02*
Y3971290D01*
X5245100D01*
Y3663950D01*
X5424170D01*
G37*
G36*
G01X5378500Y1139000D02*
Y589000D01*
X6128500D01*
Y1139000D01*
X5378500D01*
G37*
G36*
G01X5551170Y4806950D02*
Y5114290D01*
X5372100D01*
Y4806950D01*
X5551170D01*
G37*
G36*
G01X5370830Y5670550D02*
Y5363210D01*
X5549900D01*
Y5670550D01*
X5370830D01*
G37*
G36*
G01X5551170Y6013450D02*
Y6320790D01*
X5372100D01*
Y6013450D01*
X5551170D01*
G37*
G36*
G01X6186170Y2520950D02*
Y2828290D01*
X6007100D01*
Y2520950D01*
X6186170D01*
G37*
G36*
G01X6132830Y5099050D02*
Y4791710D01*
X6311900D01*
Y5099050D01*
X6132830D01*
G37*
G36*
G01X6313170Y5378450D02*
Y5685790D01*
X6134100D01*
Y5378450D01*
X6313170D01*
G37*
G36*
G01X6132830Y6369050D02*
Y6061710D01*
X6311900D01*
Y6369050D01*
X6132830D01*
G37*
G36*
G01X546100Y2286000D02*
Y2794000D01*
X1104900D01*
Y2286000D01*
X546100D01*
G37*
G36*
G01X1121500Y3623500D02*
X656500D01*
Y4758500D01*
X1121500D01*
Y3623500D01*
G37*
G36*
G01X2057400Y2794000D02*
Y2286000D01*
X1498600D01*
Y2794000D01*
X2057400D01*
G37*
G36*
G01X2692400D02*
Y2286000D01*
X2133600D01*
Y2794000D01*
X2692400D01*
G37*
G36*
G01X3429000Y6286500D02*
Y5397500D01*
X2794000D01*
Y6286500D01*
X3429000D01*
G37*
G36*
G01X3581400Y2794000D02*
Y2286000D01*
X3022600D01*
Y2794000D01*
X3581400D01*
G37*
G36*
G01X3784600Y2286000D02*
Y2794000D01*
X4343400D01*
Y2286000D01*
X3784600D01*
G37*
G36*
G01X4675500Y2295000D02*
Y2785000D01*
X5357500D01*
Y2295000D01*
X4675500D01*
G37*
G36*
G01X6098540Y3594100D02*
Y3972560D01*
X6471920D01*
Y3594100D01*
X6098540D01*
G37*
G36*
G01X6690000Y976000D02*
Y3008000D01*
X7564000D01*
Y976000D01*
X6690000D01*
G37*
G36*
G01Y3976000D02*
Y6008000D01*
X7564000D01*
Y3976000D01*
X6690000D01*
G37*
G54D10*
G01X2218500Y789000D02*
Y639000D01*
X1818500D01*
X1718500Y739000D01*
Y789000D01*
G01X2218500D02*
Y639000D01*
X1818500D01*
X1718500Y739000D01*
Y789000D01*
G01Y989000D02*
Y1089000D01*
X1818500Y1189000D01*
X2218500D01*
Y989000D01*
G01D02*
Y1189000D01*
X1818500D01*
X1718500Y1089000D01*
Y989000D01*
G01X6028500Y789000D02*
Y689000D01*
X5928500Y589000D01*
X5528500D01*
Y789000D01*
G01D02*
Y589000D01*
X5928500D01*
X6028500Y689000D01*
Y789000D01*
G01X5528500Y989000D02*
Y1139000D01*
X5928500D01*
X6028500Y1039000D01*
Y989000D01*
G01X5528500D02*
Y1139000D01*
X5928500D01*
X6028500Y1039000D01*
Y989000D01*
G01X1609120Y0D02*
X-1450000D01*
G01X-1200000Y3841250D02*
Y0D01*
G01X-1262500Y400000D02*
X-1200000Y0D01*
X-1137500Y400000D01*
X-1262500D01*
G01X-1527070Y3936500D02*
X-1523850Y3964010D01*
X-1519020Y3987300D01*
X-1512590Y4008470D01*
X-1504550Y4031750D01*
X-1491680Y4063500D01*
X-1556020D01*
G01X-1394310D02*
X-1407180Y4059270D01*
X-1416830Y4048680D01*
X-1423270Y4035990D01*
X-1428090Y4019050D01*
X-1429700Y4000000D01*
X-1428090Y3980950D01*
X-1423270Y3964010D01*
X-1416830Y3951310D01*
X-1407180Y3940730D01*
X-1394310Y3936500D01*
X-1381440Y3940730D01*
X-1371790Y3951310D01*
X-1365350Y3964010D01*
X-1360530Y3980950D01*
X-1358920Y4000000D01*
X-1360530Y4019050D01*
X-1365350Y4035990D01*
X-1371790Y4048680D01*
X-1381440Y4059270D01*
X-1394310Y4063500D01*
G01X-1264770Y3932270D02*
X-1267990Y3934380D01*
Y3938620D01*
X-1264770Y3940730D01*
X-1261550Y3938620D01*
Y3934380D01*
X-1264770Y3932270D01*
G01X-1135230Y4063500D02*
X-1148100Y4059270D01*
X-1157750Y4048680D01*
X-1164190Y4035990D01*
X-1169010Y4019050D01*
X-1170620Y4000000D01*
X-1169010Y3980950D01*
X-1164190Y3964010D01*
X-1157750Y3951310D01*
X-1148100Y3940730D01*
X-1135230Y3936500D01*
X-1122360Y3940730D01*
X-1112710Y3951310D01*
X-1106270Y3964010D01*
X-1101450Y3980950D01*
X-1099840Y4000000D01*
X-1101450Y4019050D01*
X-1106270Y4035990D01*
X-1112710Y4048680D01*
X-1122360Y4059270D01*
X-1135230Y4063500D01*
G01X-1053950Y3936500D02*
Y4021160D01*
G01Y3997880D02*
X-1049130Y4008470D01*
X-1041080Y4016930D01*
X-1029820Y4021160D01*
X-1018560Y4016930D01*
X-1010520Y4008470D01*
X-1005690Y3997880D01*
Y3936500D01*
G01Y3997880D02*
X-1000860Y4008470D01*
X-992820Y4016930D01*
X-981560Y4021160D01*
X-970300Y4016930D01*
X-962250Y4008470D01*
X-957430Y3995770D01*
Y3936500D01*
G01X-924410D02*
Y4021160D01*
G01Y3997880D02*
X-919590Y4008470D01*
X-911540Y4016930D01*
X-900280Y4021160D01*
X-889020Y4016930D01*
X-880980Y4008470D01*
X-876150Y3997880D01*
Y3936500D01*
G01Y3997880D02*
X-871320Y4008470D01*
X-863280Y4016930D01*
X-852020Y4021160D01*
X-840760Y4016930D01*
X-832710Y4008470D01*
X-827890Y3995770D01*
Y3936500D01*
G01X-1200000Y4158750D02*
Y7000000D01*
G01X-1137500Y6600000D02*
X-1200000Y7000000D01*
X-1262500Y6600000D01*
X-1137500D01*
G01X1351610Y7000000D02*
X-1450000D01*
G01X400000Y0D02*
X7600000D01*
G03X8000000Y400000I0J400000D01*
G01Y6600000D01*
G03X7600000Y7000000I-400000J0D01*
G01X400000D01*
G03X0Y6600000I0J-400000D01*
G01Y400000D01*
G03X400000Y0I400000J0D01*
G01X0Y4506780D02*
Y8050000D01*
G01X3482640Y7800000D02*
X0D01*
G01X400000Y7862500D02*
X0Y7800000D01*
X400000Y7737500D01*
Y7862500D01*
G01X1079500Y2540000D02*
G03I-254000J0D01*
G01D02*
G03I-254000J0D01*
G01X546100Y2705100D02*
X647700D01*
G01X589280Y2745740D02*
Y2644140D01*
G01X598340Y2857500D02*
Y2984500D01*
X630510D01*
X643380Y2978150D01*
X653030Y2969680D01*
X661080Y2956990D01*
X667510Y2942160D01*
X669120Y2921000D01*
X667510Y2899830D01*
X661080Y2885010D01*
X653030Y2872310D01*
X643380Y2863850D01*
X630510Y2857500D01*
X598340D01*
G01X727880Y2876550D02*
X737530Y2865960D01*
X748790Y2859620D01*
X763270Y2857500D01*
X777750Y2861730D01*
X789010Y2870200D01*
X797050Y2885010D01*
X798660Y2901950D01*
X795440Y2918880D01*
X787400Y2929470D01*
X776140Y2937930D01*
X764880Y2940050D01*
X753620Y2937930D01*
X739140Y2929470D01*
X743970Y2984500D01*
X787400D01*
G01X1121500Y3856000D02*
Y4526000D01*
G03X889000Y4758500I-232500J0D01*
G03X656500Y4526000I0J-232500D01*
G01Y3856000D01*
G03X889000Y3623500I232500J0D01*
G03X1121500Y3856000I0J232500D01*
G01D02*
Y4526000D01*
G03X889000Y4758500I-232500J0D01*
G03X656500Y4526000I0J-232500D01*
G01Y3856000D01*
G03X889000Y3623500I232500J0D01*
G03X1121500Y3856000I0J232500D01*
G01X746760Y4826000D02*
Y4883150D01*
X714590Y4953000D01*
G01X778930D02*
X746760Y4883150D01*
G01X876300Y4826000D02*
Y4953000D01*
X857000Y4927600D01*
G01Y4826000D02*
X895600D01*
G01X1036150Y1005420D02*
X1026500Y1011770D01*
X1015240Y1016000D01*
X1002370D01*
X987890Y1009650D01*
X976630Y999070D01*
X968590Y986370D01*
X962150Y965200D01*
X960540Y946150D01*
X963760Y927100D01*
X968590Y914400D01*
X978240Y901700D01*
X989500Y893230D01*
X1000760Y889000D01*
X1012020D01*
X1023280Y893230D01*
X1032930Y899580D01*
X1040980Y908050D01*
G01X1130300Y889000D02*
Y1016000D01*
X1111000Y990600D01*
G01Y889000D02*
X1149600D01*
G01X1259840D02*
Y1016000D01*
X1240540Y990600D01*
G01Y889000D02*
X1279140D01*
G01X968590Y1714500D02*
Y1841500D01*
X1008800D01*
X1021670Y1835150D01*
X1029720Y1826680D01*
X1032930Y1809750D01*
X1029720Y1792820D01*
X1020060Y1782230D01*
X1008800Y1775880D01*
X968590D01*
G01X1008800D02*
X1032930Y1714500D01*
G01X1130300D02*
Y1841500D01*
X1111000Y1816100D01*
G01Y1714500D02*
X1149600D01*
G01X1229270Y1767410D02*
X1240540Y1782230D01*
X1250190Y1790700D01*
X1263060Y1794930D01*
X1274320Y1790700D01*
X1282360Y1782230D01*
X1288800Y1769530D01*
X1290410Y1754720D01*
X1288800Y1742010D01*
X1282360Y1729310D01*
X1272710Y1718730D01*
X1261450Y1714500D01*
X1248580Y1718730D01*
X1237320Y1731430D01*
X1230880Y1750480D01*
X1229270Y1771650D01*
X1232490Y1799160D01*
X1237320Y1813990D01*
X1245360Y1828800D01*
X1256620Y1839380D01*
X1267880Y1841500D01*
X1279140Y1837270D01*
X1287190Y1826680D01*
G01X2032000Y2540000D02*
G03I-254000J0D01*
G01D02*
G03I-254000J0D01*
G01X1487340Y2857500D02*
Y2984500D01*
X1519510D01*
X1532380Y2978150D01*
X1542030Y2969680D01*
X1550080Y2956990D01*
X1556510Y2942160D01*
X1558120Y2921000D01*
X1556510Y2899830D01*
X1550080Y2885010D01*
X1542030Y2872310D01*
X1532380Y2863850D01*
X1519510Y2857500D01*
X1487340D01*
G01X1652270D02*
Y2984500D01*
X1632970Y2959100D01*
G01Y2857500D02*
X1671570D01*
G01X1032090Y5397500D02*
Y5524500D01*
X1072300D01*
X1085170Y5518150D01*
X1093220Y5509680D01*
X1096430Y5492750D01*
X1093220Y5475820D01*
X1083560Y5465230D01*
X1072300Y5458880D01*
X1032090D01*
G01X1072300D02*
X1096430Y5397500D01*
G01X1193800D02*
Y5524500D01*
X1174500Y5499100D01*
G01Y5397500D02*
X1213100D01*
G01X1287950Y5422900D02*
X1297600Y5408080D01*
X1310470Y5399620D01*
X1324950Y5397500D01*
X1337820Y5399620D01*
X1350690Y5410200D01*
X1358730Y5422900D01*
X1360340Y5435600D01*
X1357120Y5450410D01*
X1345860Y5461000D01*
X1334600Y5465230D01*
X1320120D01*
G01X1334600D02*
X1344250Y5471580D01*
X1352300Y5482160D01*
X1355510Y5494870D01*
X1352300Y5507570D01*
X1344250Y5518150D01*
X1329770Y5524500D01*
X1315300Y5522380D01*
X1300820Y5513920D01*
G01X1032090Y6286500D02*
Y6413500D01*
X1072300D01*
X1085170Y6407150D01*
X1093220Y6398680D01*
X1096430Y6381750D01*
X1093220Y6364820D01*
X1083560Y6354230D01*
X1072300Y6347880D01*
X1032090D01*
G01X1072300D02*
X1096430Y6286500D01*
G01X1190580D02*
X1193800Y6314010D01*
X1198630Y6337300D01*
X1205060Y6358470D01*
X1213100Y6381750D01*
X1225970Y6413500D01*
X1161630D01*
G01X1988650Y1386420D02*
X1979000Y1392770D01*
X1967740Y1397000D01*
X1954870D01*
X1940390Y1390650D01*
X1929130Y1380070D01*
X1921090Y1367370D01*
X1914650Y1346200D01*
X1913040Y1327150D01*
X1916260Y1308100D01*
X1921090Y1295400D01*
X1930740Y1282700D01*
X1942000Y1274230D01*
X1953260Y1270000D01*
X1964520D01*
X1975780Y1274230D01*
X1985430Y1280580D01*
X1993480Y1289050D01*
G01X2082800Y1270000D02*
Y1397000D01*
X2063500Y1371600D01*
G01Y1270000D02*
X2102100D01*
G01X2176950Y1289050D02*
X2186600Y1278460D01*
X2197860Y1272120D01*
X2212340Y1270000D01*
X2226820Y1274230D01*
X2238080Y1282700D01*
X2246120Y1297510D01*
X2247730Y1314450D01*
X2244510Y1331380D01*
X2236470Y1341970D01*
X2225210Y1350430D01*
X2213950Y1352550D01*
X2202690Y1350430D01*
X2188210Y1341970D01*
X2193040Y1397000D01*
X2236470D01*
G01X1921090Y1714500D02*
Y1841500D01*
X1961300D01*
X1974170Y1835150D01*
X1982220Y1826680D01*
X1985430Y1809750D01*
X1982220Y1792820D01*
X1972560Y1782230D01*
X1961300Y1775880D01*
X1921090D01*
G01X1961300D02*
X1985430Y1714500D01*
G01X2052230Y1820330D02*
X2061890Y1833030D01*
X2073150Y1839380D01*
X2086020Y1841500D01*
X2102100Y1837270D01*
X2113370Y1826680D01*
X2116580Y1813990D01*
X2114970Y1801280D01*
X2108540Y1790700D01*
X2076370Y1769530D01*
X2061890Y1754720D01*
X2052230Y1733550D01*
X2049020Y1714500D01*
X2116580D01*
G01X2057400Y2374900D02*
X1955800D01*
G01X2014220Y2334260D02*
Y2435860D01*
G01X2667000Y2540000D02*
G03I-254000J0D01*
G01D02*
G03I-254000J0D01*
G01X1734650Y3862920D02*
X1725000Y3869270D01*
X1713740Y3873500D01*
X1700870D01*
X1686390Y3867150D01*
X1675130Y3856570D01*
X1667090Y3843870D01*
X1660650Y3822700D01*
X1659040Y3803650D01*
X1662260Y3784600D01*
X1667090Y3771900D01*
X1676740Y3759200D01*
X1688000Y3750730D01*
X1699260Y3746500D01*
X1710520D01*
X1721780Y3750730D01*
X1731430Y3757080D01*
X1739480Y3765550D01*
G01X1793410Y3771900D02*
X1803060Y3757080D01*
X1815930Y3748620D01*
X1830410Y3746500D01*
X1843280Y3748620D01*
X1856150Y3759200D01*
X1864190Y3771900D01*
X1865800Y3784600D01*
X1862580Y3799410D01*
X1851320Y3810000D01*
X1840060Y3814230D01*
X1825580D01*
G01X1840060D02*
X1849710Y3820580D01*
X1857760Y3831160D01*
X1860970Y3843870D01*
X1857760Y3856570D01*
X1849710Y3867150D01*
X1835230Y3873500D01*
X1820760Y3871380D01*
X1806280Y3862920D01*
G01X1734650Y4688420D02*
X1725000Y4694770D01*
X1713740Y4699000D01*
X1700870D01*
X1686390Y4692650D01*
X1675130Y4682070D01*
X1667090Y4669370D01*
X1660650Y4648200D01*
X1659040Y4629150D01*
X1662260Y4610100D01*
X1667090Y4597400D01*
X1676740Y4584700D01*
X1688000Y4576230D01*
X1699260Y4572000D01*
X1710520D01*
X1721780Y4576230D01*
X1731430Y4582580D01*
X1739480Y4591050D01*
G01X1828800Y4572000D02*
Y4699000D01*
X1809500Y4673600D01*
G01Y4572000D02*
X1848100D01*
G01X1988650Y5577420D02*
X1979000Y5583770D01*
X1967740Y5588000D01*
X1954870D01*
X1940390Y5581650D01*
X1929130Y5571070D01*
X1921090Y5558370D01*
X1914650Y5537200D01*
X1913040Y5518150D01*
X1916260Y5499100D01*
X1921090Y5486400D01*
X1930740Y5473700D01*
X1942000Y5465230D01*
X1953260Y5461000D01*
X1964520D01*
X1975780Y5465230D01*
X1985430Y5471580D01*
X1993480Y5480050D01*
G01X2052230Y5513910D02*
X2063500Y5528730D01*
X2073150Y5537200D01*
X2086020Y5541430D01*
X2097280Y5537200D01*
X2105320Y5528730D01*
X2111760Y5516030D01*
X2113370Y5501220D01*
X2111760Y5488510D01*
X2105320Y5475810D01*
X2095670Y5465230D01*
X2084410Y5461000D01*
X2071540Y5465230D01*
X2060280Y5477930D01*
X2053840Y5496980D01*
X2052230Y5518150D01*
X2055450Y5545660D01*
X2060280Y5560490D01*
X2068320Y5575300D01*
X2079580Y5585880D01*
X2090840Y5588000D01*
X2102100Y5583770D01*
X2110150Y5573180D01*
G01X1857590Y6350000D02*
Y6477000D01*
X1897800D01*
X1910670Y6470650D01*
X1918720Y6462180D01*
X1921930Y6445250D01*
X1918720Y6428320D01*
X1909060Y6417730D01*
X1897800Y6411380D01*
X1857590D01*
G01X1897800D02*
X1921930Y6350000D01*
G01X2019300D02*
X2030560Y6352120D01*
X2043430Y6358460D01*
X2051470Y6369050D01*
X2054690Y6383870D01*
X2051470Y6398680D01*
X2041820Y6411380D01*
X2027340Y6417730D01*
X2011260D01*
X2001600Y6421970D01*
X1993560Y6432550D01*
X1990340Y6447370D01*
X1995170Y6462180D01*
X2006430Y6472770D01*
X2019300Y6477000D01*
X2032170Y6472770D01*
X2043430Y6462180D01*
X2048260Y6447370D01*
X2045040Y6432550D01*
X2037000Y6421970D01*
X2027340Y6417730D01*
X2011260D01*
X1996780Y6411380D01*
X1987130Y6398680D01*
X1983910Y6383870D01*
X1987130Y6369050D01*
X1995170Y6358460D01*
X2008040Y6352120D01*
X2019300Y6350000D01*
G01X2814150Y1195920D02*
X2804500Y1202270D01*
X2793240Y1206500D01*
X2780370D01*
X2765890Y1200150D01*
X2754630Y1189570D01*
X2746590Y1176870D01*
X2740150Y1155700D01*
X2738540Y1136650D01*
X2741760Y1117600D01*
X2746590Y1104900D01*
X2756240Y1092200D01*
X2767500Y1083730D01*
X2778760Y1079500D01*
X2790020D01*
X2801280Y1083730D01*
X2810930Y1090080D01*
X2818980Y1098550D01*
G01X2908300Y1079500D02*
Y1206500D01*
X2889000Y1181100D01*
G01Y1079500D02*
X2927600D01*
G01X3002450Y1104900D02*
X3012100Y1090080D01*
X3024970Y1081620D01*
X3039450Y1079500D01*
X3052320Y1081620D01*
X3065190Y1092200D01*
X3073230Y1104900D01*
X3074840Y1117600D01*
X3071620Y1132410D01*
X3060360Y1143000D01*
X3049100Y1147230D01*
X3034620D01*
G01X3049100D02*
X3058750Y1153580D01*
X3066800Y1164160D01*
X3070010Y1176870D01*
X3066800Y1189570D01*
X3058750Y1200150D01*
X3044270Y1206500D01*
X3029800Y1204380D01*
X3015320Y1195920D01*
G01X2556090Y1714500D02*
Y1841500D01*
X2596300D01*
X2609170Y1835150D01*
X2617220Y1826680D01*
X2620430Y1809750D01*
X2617220Y1792820D01*
X2607560Y1782230D01*
X2596300Y1775880D01*
X2556090D01*
G01X2596300D02*
X2620430Y1714500D01*
G01X2682410Y1739900D02*
X2692060Y1725080D01*
X2704930Y1716620D01*
X2719410Y1714500D01*
X2732280Y1716620D01*
X2745150Y1727200D01*
X2753190Y1739900D01*
X2754800Y1752600D01*
X2751580Y1767410D01*
X2740320Y1778000D01*
X2729060Y1782230D01*
X2714580D01*
G01X2729060D02*
X2738710Y1788580D01*
X2746760Y1799160D01*
X2749970Y1811870D01*
X2746760Y1824570D01*
X2738710Y1835150D01*
X2724230Y1841500D01*
X2709760Y1839380D01*
X2695280Y1830920D01*
G01X2692400Y2374900D02*
X2590800D01*
G01X2649220Y2334260D02*
Y2435860D01*
G01X2503340Y2857500D02*
Y2984500D01*
X2535510D01*
X2548380Y2978150D01*
X2558030Y2969680D01*
X2566080Y2956990D01*
X2572510Y2942160D01*
X2574120Y2921000D01*
X2572510Y2899830D01*
X2566080Y2885010D01*
X2558030Y2872310D01*
X2548380Y2863850D01*
X2535510Y2857500D01*
X2503340D01*
G01X2637700Y2963330D02*
X2647360Y2976030D01*
X2658620Y2982380D01*
X2671490Y2984500D01*
X2687570Y2980270D01*
X2698840Y2969680D01*
X2702050Y2956990D01*
X2700440Y2944280D01*
X2694010Y2933700D01*
X2661840Y2912530D01*
X2647360Y2897720D01*
X2637700Y2876550D01*
X2634490Y2857500D01*
X2702050D01*
G01X2369650Y3862920D02*
X2360000Y3869270D01*
X2348740Y3873500D01*
X2335870D01*
X2321390Y3867150D01*
X2310130Y3856570D01*
X2302090Y3843870D01*
X2295650Y3822700D01*
X2294040Y3803650D01*
X2297260Y3784600D01*
X2302090Y3771900D01*
X2311740Y3759200D01*
X2323000Y3750730D01*
X2334260Y3746500D01*
X2345520D01*
X2356780Y3750730D01*
X2366430Y3757080D01*
X2374480Y3765550D01*
G01X2436450Y3761310D02*
X2447710Y3750730D01*
X2460580Y3746500D01*
X2473450Y3750730D01*
X2484710Y3763430D01*
X2492760Y3782480D01*
X2495970Y3801530D01*
Y3824820D01*
X2492760Y3843870D01*
X2484710Y3860800D01*
X2475060Y3869270D01*
X2463800Y3873500D01*
X2450930Y3869270D01*
X2441280Y3860800D01*
X2434840Y3848100D01*
X2431630Y3831160D01*
X2434840Y3816350D01*
X2442890Y3801530D01*
X2452540Y3793060D01*
X2463800Y3790950D01*
X2476670Y3795180D01*
X2486320Y3805770D01*
X2495970Y3824820D01*
G01X2743370Y4635500D02*
Y4544480D01*
X2749800Y4525430D01*
X2762670Y4512730D01*
X2778760Y4508500D01*
X2794850Y4512730D01*
X2807720Y4525430D01*
X2814150Y4544480D01*
Y4635500D01*
G01X2908300Y4508500D02*
Y4635500D01*
X2889000Y4610100D01*
G01Y4508500D02*
X2927600D01*
G01X2496650Y5323420D02*
X2487000Y5329770D01*
X2475740Y5334000D01*
X2462870D01*
X2448390Y5327650D01*
X2437130Y5317070D01*
X2429090Y5304370D01*
X2422650Y5283200D01*
X2421040Y5264150D01*
X2424260Y5245100D01*
X2429090Y5232400D01*
X2438740Y5219700D01*
X2450000Y5211230D01*
X2461260Y5207000D01*
X2472520D01*
X2483780Y5211230D01*
X2493430Y5217580D01*
X2501480Y5226050D01*
G01X2590800Y5207000D02*
Y5334000D01*
X2571500Y5308600D01*
G01Y5207000D02*
X2610100D01*
G01X2720340Y5334000D02*
X2707470Y5329770D01*
X2697820Y5319180D01*
X2691380Y5306490D01*
X2686560Y5289550D01*
X2684950Y5270500D01*
X2686560Y5251450D01*
X2691380Y5234510D01*
X2697820Y5221810D01*
X2707470Y5211230D01*
X2720340Y5207000D01*
X2733210Y5211230D01*
X2742860Y5221810D01*
X2749300Y5234510D01*
X2754120Y5251450D01*
X2755730Y5270500D01*
X2754120Y5289550D01*
X2749300Y5306490D01*
X2742860Y5319180D01*
X2733210Y5329770D01*
X2720340Y5334000D01*
G01X2937090Y1778000D02*
Y1905000D01*
X2977300D01*
X2990170Y1898650D01*
X2998220Y1890180D01*
X3001430Y1873250D01*
X2998220Y1856320D01*
X2988560Y1845730D01*
X2977300Y1839380D01*
X2937090D01*
G01X2977300D02*
X3001430Y1778000D01*
G01X3118100D02*
Y1905000D01*
X3058580Y1813980D01*
X3139020D01*
G01X3556000Y2540000D02*
G03I-254000J0D01*
G01D02*
G03I-254000J0D01*
G01X3011340Y2857500D02*
Y2984500D01*
X3043510D01*
X3056380Y2978150D01*
X3066030Y2969680D01*
X3074080Y2956990D01*
X3080510Y2942160D01*
X3082120Y2921000D01*
X3080510Y2899830D01*
X3074080Y2885010D01*
X3066030Y2872310D01*
X3056380Y2863850D01*
X3043510Y2857500D01*
X3011340D01*
G01X3140880Y2882900D02*
X3150530Y2868080D01*
X3163400Y2859620D01*
X3177880Y2857500D01*
X3190750Y2859620D01*
X3203620Y2870200D01*
X3211660Y2882900D01*
X3213270Y2895600D01*
X3210050Y2910410D01*
X3198790Y2921000D01*
X3187530Y2925230D01*
X3173050D01*
G01X3187530D02*
X3197180Y2931580D01*
X3205230Y2942160D01*
X3208440Y2954870D01*
X3205230Y2967570D01*
X3197180Y2978150D01*
X3182700Y2984500D01*
X3168230Y2982380D01*
X3153750Y2973920D01*
G01X3149000Y4301000D02*
Y3599000D01*
G01D02*
X3851000D01*
Y4301000D01*
G01Y3599000D02*
X3403000D01*
X3149000D01*
G01X3851000Y4301000D02*
X3149000D01*
G01X3315000Y4176000D02*
G03I-50999J-1D01*
G01X3295480Y5232400D02*
Y5323420D01*
X3289050Y5342470D01*
X3276180Y5355170D01*
X3260090Y5359400D01*
X3244000Y5355170D01*
X3231130Y5342470D01*
X3224700Y5323420D01*
Y5232400D01*
G01X3111250Y5359400D02*
Y5232400D01*
X3170770Y5323420D01*
X3090330D01*
G01X3219450Y5461000D02*
G03I-25400J0D01*
G01D02*
G03I-25400J0D01*
G01X3238500Y5397500D02*
Y6286500D01*
G01Y5397500D02*
Y6286500D01*
G01X4076870Y1397000D02*
Y1305980D01*
X4083300Y1286930D01*
X4096170Y1274230D01*
X4112260Y1270000D01*
X4128350Y1274230D01*
X4141220Y1286930D01*
X4147650Y1305980D01*
Y1397000D01*
G01X4206410Y1289050D02*
X4216060Y1278460D01*
X4227320Y1272120D01*
X4241800Y1270000D01*
X4256280Y1274230D01*
X4267540Y1282700D01*
X4275580Y1297510D01*
X4277190Y1314450D01*
X4273970Y1331380D01*
X4265930Y1341970D01*
X4254670Y1350430D01*
X4243410Y1352550D01*
X4232150Y1350430D01*
X4217670Y1341970D01*
X4222500Y1397000D01*
X4265930D01*
G01X3766650Y1767420D02*
X3757000Y1773770D01*
X3745740Y1778000D01*
X3732870D01*
X3718390Y1771650D01*
X3707130Y1761070D01*
X3699090Y1748370D01*
X3692650Y1727200D01*
X3691040Y1708150D01*
X3694260Y1689100D01*
X3699090Y1676400D01*
X3708740Y1663700D01*
X3720000Y1655230D01*
X3731260Y1651000D01*
X3742520D01*
X3753780Y1655230D01*
X3763430Y1661580D01*
X3771480Y1670050D01*
G01X3880100Y1651000D02*
Y1778000D01*
X3820580Y1686980D01*
X3901020D01*
G01X3773340Y2159000D02*
Y2286000D01*
X3805510D01*
X3818380Y2279650D01*
X3828030Y2271180D01*
X3836080Y2258490D01*
X3842510Y2243660D01*
X3844120Y2222500D01*
X3842510Y2201330D01*
X3836080Y2186510D01*
X3828030Y2173810D01*
X3818380Y2165350D01*
X3805510Y2159000D01*
X3773340D01*
G01X3957570D02*
Y2286000D01*
X3898050Y2194980D01*
X3978490D01*
G01X3581400Y2374900D02*
X3479800D01*
G01X3538220Y2334260D02*
Y2435860D01*
G01X4318000Y2540000D02*
G03I-254000J0D01*
G01D02*
G03I-254000J0D01*
G01X3784600Y2705100D02*
X3886200D01*
G01X3827780Y2745740D02*
Y2644140D01*
G01X3626150Y7736500D02*
X3637410Y7738620D01*
X3650280Y7744960D01*
X3658320Y7755550D01*
X3661540Y7770370D01*
X3658320Y7785180D01*
X3648670Y7797880D01*
X3634190Y7804230D01*
X3618110D01*
X3608450Y7808470D01*
X3600410Y7819050D01*
X3597190Y7833870D01*
X3602020Y7848680D01*
X3613280Y7859270D01*
X3626150Y7863500D01*
X3639020Y7859270D01*
X3650280Y7848680D01*
X3655110Y7833870D01*
X3651890Y7819050D01*
X3643850Y7808470D01*
X3634190Y7804230D01*
X3618110D01*
X3603630Y7797880D01*
X3593980Y7785180D01*
X3590760Y7770370D01*
X3593980Y7755550D01*
X3602020Y7744960D01*
X3614890Y7738620D01*
X3626150Y7736500D01*
G01X3755690Y7863500D02*
X3742820Y7859270D01*
X3733170Y7848680D01*
X3726730Y7835990D01*
X3721910Y7819050D01*
X3720300Y7800000D01*
X3721910Y7780950D01*
X3726730Y7764010D01*
X3733170Y7751310D01*
X3742820Y7740730D01*
X3755690Y7736500D01*
X3768560Y7740730D01*
X3778210Y7751310D01*
X3784650Y7764010D01*
X3789470Y7780950D01*
X3791080Y7800000D01*
X3789470Y7819050D01*
X3784650Y7835990D01*
X3778210Y7848680D01*
X3768560Y7859270D01*
X3755690Y7863500D01*
G01X3885230Y7732270D02*
X3882010Y7734380D01*
Y7738620D01*
X3885230Y7740730D01*
X3888450Y7738620D01*
Y7734380D01*
X3885230Y7732270D01*
G01X4014770Y7863500D02*
X4001900Y7859270D01*
X3992250Y7848680D01*
X3985810Y7835990D01*
X3980990Y7819050D01*
X3979380Y7800000D01*
X3980990Y7780950D01*
X3985810Y7764010D01*
X3992250Y7751310D01*
X4001900Y7740730D01*
X4014770Y7736500D01*
X4027640Y7740730D01*
X4037290Y7751310D01*
X4043730Y7764010D01*
X4048550Y7780950D01*
X4050160Y7800000D01*
X4048550Y7819050D01*
X4043730Y7835990D01*
X4037290Y7848680D01*
X4027640Y7859270D01*
X4014770Y7863500D01*
G01X4588090Y1206500D02*
Y1333500D01*
X4628300D01*
X4641170Y1327150D01*
X4649220Y1318680D01*
X4652430Y1301750D01*
X4649220Y1284820D01*
X4639560Y1274230D01*
X4628300Y1267880D01*
X4588090D01*
G01X4628300D02*
X4652430Y1206500D01*
G01X4749800D02*
Y1333500D01*
X4730500Y1308100D01*
G01Y1206500D02*
X4769100D01*
G01X4843950Y1225550D02*
X4853600Y1214960D01*
X4864860Y1208620D01*
X4879340Y1206500D01*
X4893820Y1210730D01*
X4905080Y1219200D01*
X4913120Y1234010D01*
X4914730Y1250950D01*
X4911510Y1267880D01*
X4903470Y1278470D01*
X4892210Y1286930D01*
X4880950Y1289050D01*
X4869690Y1286930D01*
X4855210Y1278470D01*
X4860040Y1333500D01*
X4903470D01*
G01X4655650Y1894420D02*
X4646000Y1900770D01*
X4634740Y1905000D01*
X4621870D01*
X4607390Y1898650D01*
X4596130Y1888070D01*
X4588090Y1875370D01*
X4581650Y1854200D01*
X4580040Y1835150D01*
X4583260Y1816100D01*
X4588090Y1803400D01*
X4597740Y1790700D01*
X4609000Y1782230D01*
X4620260Y1778000D01*
X4631520D01*
X4642780Y1782230D01*
X4652430Y1788580D01*
X4660480Y1797050D01*
G01X4719230Y1883830D02*
X4728890Y1896530D01*
X4740150Y1902880D01*
X4753020Y1905000D01*
X4769100Y1900770D01*
X4780370Y1890180D01*
X4783580Y1877490D01*
X4781970Y1864780D01*
X4775540Y1854200D01*
X4743370Y1833030D01*
X4728890Y1818220D01*
X4719230Y1797050D01*
X4716020Y1778000D01*
X4783580D01*
G01X4711870Y2921000D02*
Y2829980D01*
X4718300Y2810930D01*
X4731170Y2798230D01*
X4747260Y2794000D01*
X4763350Y2798230D01*
X4776220Y2810930D01*
X4782650Y2829980D01*
Y2921000D01*
G01X4841410Y2819400D02*
X4851060Y2804580D01*
X4863930Y2796120D01*
X4878410Y2794000D01*
X4891280Y2796120D01*
X4904150Y2806700D01*
X4912190Y2819400D01*
X4913800Y2832100D01*
X4910580Y2846910D01*
X4899320Y2857500D01*
X4888060Y2861730D01*
X4873580D01*
G01X4888060D02*
X4897710Y2868080D01*
X4905760Y2878660D01*
X4908970Y2891370D01*
X4905760Y2904070D01*
X4897710Y2914650D01*
X4883230Y2921000D01*
X4868760Y2918880D01*
X4854280Y2910420D01*
G01X4715090Y5080000D02*
Y5207000D01*
X4755300D01*
X4768170Y5200650D01*
X4776220Y5192180D01*
X4779430Y5175250D01*
X4776220Y5158320D01*
X4766560Y5147730D01*
X4755300Y5141380D01*
X4715090D01*
G01X4755300D02*
X4779430Y5080000D01*
G01X4876800D02*
Y5207000D01*
X4857500Y5181600D01*
G01Y5080000D02*
X4896100D01*
G01X5025640D02*
Y5207000D01*
X4966120Y5115980D01*
X5046560D01*
G01X4719150Y5767920D02*
X4709500Y5774270D01*
X4698240Y5778500D01*
X4685370D01*
X4670890Y5772150D01*
X4659630Y5761570D01*
X4651590Y5748870D01*
X4645150Y5727700D01*
X4643540Y5708650D01*
X4646760Y5689600D01*
X4651590Y5676900D01*
X4661240Y5664200D01*
X4672500Y5655730D01*
X4683760Y5651500D01*
X4695020D01*
X4706280Y5655730D01*
X4715930Y5662080D01*
X4723980Y5670550D01*
G01X4810080Y5651500D02*
X4813300Y5679010D01*
X4818130Y5702300D01*
X4824560Y5723470D01*
X4832600Y5746750D01*
X4845470Y5778500D01*
X4781130D01*
G01X4096050Y7736500D02*
Y7821160D01*
G01Y7797880D02*
X4100870Y7808470D01*
X4108920Y7816930D01*
X4120180Y7821160D01*
X4131440Y7816930D01*
X4139480Y7808470D01*
X4144310Y7797880D01*
Y7736500D01*
G01Y7797880D02*
X4149140Y7808470D01*
X4157180Y7816930D01*
X4168440Y7821160D01*
X4179700Y7816930D01*
X4187750Y7808470D01*
X4192570Y7795770D01*
Y7736500D01*
G01X4225590D02*
Y7821160D01*
G01Y7797880D02*
X4230410Y7808470D01*
X4238460Y7816930D01*
X4249720Y7821160D01*
X4260980Y7816930D01*
X4269020Y7808470D01*
X4273850Y7797880D01*
Y7736500D01*
G01Y7797880D02*
X4278680Y7808470D01*
X4286720Y7816930D01*
X4297980Y7821160D01*
X4309240Y7816930D01*
X4317290Y7808470D01*
X4322110Y7795770D01*
Y7736500D01*
G01X4417360Y7800000D02*
X8000000D01*
G01X4836500Y2295000D02*
X5196500D01*
Y2785000D01*
X4836500D01*
Y2295000D01*
G01D02*
X5196500D01*
Y2785000D01*
X4836500D01*
Y2295000D01*
G01X4909650Y3989920D02*
X4900000Y3996270D01*
X4888740Y4000500D01*
X4875870D01*
X4861390Y3994150D01*
X4850130Y3983570D01*
X4842090Y3970870D01*
X4835650Y3949700D01*
X4834040Y3930650D01*
X4837260Y3911600D01*
X4842090Y3898900D01*
X4851740Y3886200D01*
X4863000Y3877730D01*
X4874260Y3873500D01*
X4885520D01*
X4896780Y3877730D01*
X4906430Y3884080D01*
X4914480Y3892550D01*
G01X5003800Y3873500D02*
X5015060Y3875620D01*
X5027930Y3881960D01*
X5035970Y3892550D01*
X5039190Y3907370D01*
X5035970Y3922180D01*
X5026320Y3934880D01*
X5011840Y3941230D01*
X4995760D01*
X4986100Y3945470D01*
X4978060Y3956050D01*
X4974840Y3970870D01*
X4979670Y3985680D01*
X4990930Y3996270D01*
X5003800Y4000500D01*
X5016670Y3996270D01*
X5027930Y3985680D01*
X5032760Y3970870D01*
X5029540Y3956050D01*
X5021500Y3945470D01*
X5011840Y3941230D01*
X4995760D01*
X4981280Y3934880D01*
X4971630Y3922180D01*
X4968410Y3907370D01*
X4971630Y3892550D01*
X4979670Y3881960D01*
X4992540Y3875620D01*
X5003800Y3873500D01*
G01X4905590Y6159500D02*
Y6286500D01*
X4945800D01*
X4958670Y6280150D01*
X4966720Y6271680D01*
X4969930Y6254750D01*
X4966720Y6237820D01*
X4957060Y6227230D01*
X4945800Y6220880D01*
X4905590D01*
G01X4945800D02*
X4969930Y6159500D01*
G01X5036730Y6212410D02*
X5048000Y6227230D01*
X5057650Y6235700D01*
X5070520Y6239930D01*
X5081780Y6235700D01*
X5089820Y6227230D01*
X5096260Y6214530D01*
X5097870Y6199720D01*
X5096260Y6187010D01*
X5089820Y6174310D01*
X5080170Y6163730D01*
X5068910Y6159500D01*
X5056040Y6163730D01*
X5044780Y6176430D01*
X5038340Y6195480D01*
X5036730Y6216650D01*
X5039950Y6244160D01*
X5044780Y6258990D01*
X5052820Y6273800D01*
X5064080Y6284380D01*
X5075340Y6286500D01*
X5086600Y6282270D01*
X5094650Y6271680D01*
G01X5544650Y1322920D02*
X5535000Y1329270D01*
X5523740Y1333500D01*
X5510870D01*
X5496390Y1327150D01*
X5485130Y1316570D01*
X5477090Y1303870D01*
X5470650Y1282700D01*
X5469040Y1263650D01*
X5472260Y1244600D01*
X5477090Y1231900D01*
X5486740Y1219200D01*
X5498000Y1210730D01*
X5509260Y1206500D01*
X5520520D01*
X5531780Y1210730D01*
X5541430Y1217080D01*
X5549480Y1225550D01*
G01X5638800Y1206500D02*
Y1333500D01*
X5619500Y1308100D01*
G01Y1206500D02*
X5658100D01*
G01X5787640D02*
Y1333500D01*
X5728120Y1242480D01*
X5808560D01*
G01X5477090Y3937000D02*
Y4064000D01*
X5517300D01*
X5530170Y4057650D01*
X5538220Y4049180D01*
X5541430Y4032250D01*
X5538220Y4015320D01*
X5528560Y4004730D01*
X5517300Y3998380D01*
X5477090D01*
G01X5517300D02*
X5541430Y3937000D01*
G01X5638800D02*
Y4064000D01*
X5619500Y4038600D01*
G01Y3937000D02*
X5658100D01*
G01X5671650Y5196420D02*
X5662000Y5202770D01*
X5650740Y5207000D01*
X5637870D01*
X5623390Y5200650D01*
X5612130Y5190070D01*
X5604090Y5177370D01*
X5597650Y5156200D01*
X5596040Y5137150D01*
X5599260Y5118100D01*
X5604090Y5105400D01*
X5613740Y5092700D01*
X5625000Y5084230D01*
X5636260Y5080000D01*
X5647520D01*
X5658780Y5084230D01*
X5668430Y5090580D01*
X5676480Y5099050D01*
G01X5730410D02*
X5740060Y5088460D01*
X5751320Y5082120D01*
X5765800Y5080000D01*
X5780280Y5084230D01*
X5791540Y5092700D01*
X5799580Y5107510D01*
X5801190Y5124450D01*
X5797970Y5141380D01*
X5789930Y5151970D01*
X5778670Y5160430D01*
X5767410Y5162550D01*
X5756150Y5160430D01*
X5741670Y5151970D01*
X5746500Y5207000D01*
X5789930D01*
G01X5604090Y5651500D02*
Y5778500D01*
X5644300D01*
X5657170Y5772150D01*
X5665220Y5763680D01*
X5668430Y5746750D01*
X5665220Y5729820D01*
X5655560Y5719230D01*
X5644300Y5712880D01*
X5604090D01*
G01X5644300D02*
X5668430Y5651500D01*
G01X5765800D02*
Y5778500D01*
X5746500Y5753100D01*
G01Y5651500D02*
X5785100D01*
G01X5864770Y5757330D02*
X5874430Y5770030D01*
X5885690Y5776380D01*
X5898560Y5778500D01*
X5914640Y5774270D01*
X5925910Y5763680D01*
X5929120Y5750990D01*
X5927510Y5738280D01*
X5921080Y5727700D01*
X5888910Y5706530D01*
X5874430Y5691720D01*
X5864770Y5670550D01*
X5861560Y5651500D01*
X5929120D01*
G01X5604090Y6159500D02*
Y6286500D01*
X5644300D01*
X5657170Y6280150D01*
X5665220Y6271680D01*
X5668430Y6254750D01*
X5665220Y6237820D01*
X5655560Y6227230D01*
X5644300Y6220880D01*
X5604090D01*
G01X5644300D02*
X5668430Y6159500D01*
G01X5730410Y6178550D02*
X5740060Y6167960D01*
X5751320Y6161620D01*
X5765800Y6159500D01*
X5780280Y6163730D01*
X5791540Y6172200D01*
X5799580Y6187010D01*
X5801190Y6203950D01*
X5797970Y6220880D01*
X5789930Y6231470D01*
X5778670Y6239930D01*
X5767410Y6242050D01*
X5756150Y6239930D01*
X5741670Y6231470D01*
X5746500Y6286500D01*
X5789930D01*
G01X6306650Y2656420D02*
X6297000Y2662770D01*
X6285740Y2667000D01*
X6272870D01*
X6258390Y2660650D01*
X6247130Y2650070D01*
X6239090Y2637370D01*
X6232650Y2616200D01*
X6231040Y2597150D01*
X6234260Y2578100D01*
X6239090Y2565400D01*
X6248740Y2552700D01*
X6260000Y2544230D01*
X6271260Y2540000D01*
X6282520D01*
X6293780Y2544230D01*
X6303430Y2550580D01*
X6311480Y2559050D01*
G01X6400800Y2540000D02*
Y2667000D01*
X6381500Y2641600D01*
G01Y2540000D02*
X6420100D01*
G01X6499770Y2645830D02*
X6509430Y2658530D01*
X6520690Y2664880D01*
X6533560Y2667000D01*
X6549640Y2662770D01*
X6560910Y2652180D01*
X6564120Y2639490D01*
X6562510Y2626780D01*
X6556080Y2616200D01*
X6523910Y2595030D01*
X6509430Y2580220D01*
X6499770Y2559050D01*
X6496560Y2540000D01*
X6564120D01*
G01X6273970Y4157980D02*
Y4066960D01*
X6280400Y4047910D01*
X6293270Y4035210D01*
X6309360Y4030980D01*
X6325450Y4035210D01*
X6338320Y4047910D01*
X6344750Y4066960D01*
Y4157980D01*
G01X6408330Y4136810D02*
X6417990Y4149510D01*
X6429250Y4155860D01*
X6442120Y4157980D01*
X6458200Y4153750D01*
X6469470Y4143160D01*
X6472680Y4130470D01*
X6471070Y4117760D01*
X6464640Y4107180D01*
X6432470Y4086010D01*
X6417990Y4071200D01*
X6408330Y4050030D01*
X6405120Y4030980D01*
X6472680D01*
G01X6357620Y3931920D02*
X6413500D01*
Y3881120D01*
X6357620D01*
G01Y3759200D02*
X6413500D01*
Y3667760D01*
X6357620D01*
G01X6215380Y3738880D02*
X6159500D01*
Y3688080D01*
X6215380D01*
G01Y3931920D02*
X6159500D01*
Y3881120D01*
X6215380D01*
G01X6112090Y5143500D02*
Y5270500D01*
X6152300D01*
X6165170Y5264150D01*
X6173220Y5255680D01*
X6176430Y5238750D01*
X6173220Y5221820D01*
X6163560Y5211230D01*
X6152300Y5204880D01*
X6112090D01*
G01X6152300D02*
X6176430Y5143500D01*
G01X6246450Y5158310D02*
X6257710Y5147730D01*
X6270580Y5143500D01*
X6283450Y5147730D01*
X6294710Y5160430D01*
X6302760Y5179480D01*
X6305970Y5198530D01*
Y5221820D01*
X6302760Y5240870D01*
X6294710Y5257800D01*
X6285060Y5266270D01*
X6273800Y5270500D01*
X6260930Y5266270D01*
X6251280Y5257800D01*
X6244840Y5245100D01*
X6241630Y5228160D01*
X6244840Y5213350D01*
X6252890Y5198530D01*
X6262540Y5190060D01*
X6273800Y5187950D01*
X6286670Y5192180D01*
X6296320Y5202770D01*
X6305970Y5221820D01*
G01X6175590Y5715000D02*
Y5842000D01*
X6215800D01*
X6228670Y5835650D01*
X6236720Y5827180D01*
X6239930Y5810250D01*
X6236720Y5793320D01*
X6227060Y5782730D01*
X6215800Y5776380D01*
X6175590D01*
G01X6215800D02*
X6239930Y5715000D01*
G01X6337300D02*
Y5842000D01*
X6318000Y5816600D01*
G01Y5715000D02*
X6356600D01*
G01X6466840Y5842000D02*
X6453970Y5837770D01*
X6444320Y5827180D01*
X6437880Y5814490D01*
X6433060Y5797550D01*
X6431450Y5778500D01*
X6433060Y5759450D01*
X6437880Y5742510D01*
X6444320Y5729810D01*
X6453970Y5719230D01*
X6466840Y5715000D01*
X6479710Y5719230D01*
X6489360Y5729810D01*
X6495800Y5742510D01*
X6500620Y5759450D01*
X6502230Y5778500D01*
X6500620Y5797550D01*
X6495800Y5814490D01*
X6489360Y5827180D01*
X6479710Y5837770D01*
X6466840Y5842000D01*
G01X6366090Y6096000D02*
Y6223000D01*
X6406300D01*
X6419170Y6216650D01*
X6427220Y6208180D01*
X6430430Y6191250D01*
X6427220Y6174320D01*
X6417560Y6163730D01*
X6406300Y6157380D01*
X6366090D01*
G01X6406300D02*
X6430430Y6096000D01*
G01X6527800D02*
Y6223000D01*
X6508500Y6197600D01*
G01Y6096000D02*
X6547100D01*
G01X6657340D02*
Y6223000D01*
X6638040Y6197600D01*
G01Y6096000D02*
X6676640D01*
G01X7149040Y0D02*
X10050000D01*
G01X6977370D02*
X9400000D01*
G01X6690000Y976000D02*
X7564000D01*
Y3008000D01*
X6690000D01*
Y976000D01*
G01D02*
X7564000D01*
Y3008000D01*
X6690000D01*
Y976000D01*
G01X6937590Y3073400D02*
X6945630Y3060700D01*
X6955280Y3052230D01*
X6966540Y3048000D01*
X6979410Y3052230D01*
X6989060Y3060700D01*
X6998720Y3073400D01*
X7001930Y3090330D01*
Y3175000D01*
G01X7099300Y3048000D02*
Y3175000D01*
X7080000Y3149600D01*
G01Y3048000D02*
X7118600D01*
G01X6690000Y3976000D02*
X7564000D01*
Y6008000D01*
X6690000D01*
Y3976000D01*
G01D02*
X7564000D01*
Y6008000D01*
X6690000D01*
Y3976000D01*
G01X6800000Y7600000D02*
X7600000D01*
G01X7200000Y7537500D02*
X7600000Y7600000D01*
X7200000Y7662500D01*
Y7537500D01*
G01X7250000Y2500000D02*
X9400000D01*
G01X7250000Y5500000D02*
X10050000D01*
G01X7382090Y6057900D02*
X7390130Y6045200D01*
X7399780Y6036730D01*
X7411040Y6032500D01*
X7423910Y6036730D01*
X7433560Y6045200D01*
X7443220Y6057900D01*
X7446430Y6074830D01*
Y6159500D01*
G01X7513230Y6138330D02*
X7522890Y6151030D01*
X7534150Y6157380D01*
X7547020Y6159500D01*
X7563100Y6155270D01*
X7574370Y6144680D01*
X7577580Y6131990D01*
X7575970Y6119280D01*
X7569540Y6108700D01*
X7537370Y6087530D01*
X7522890Y6072720D01*
X7513230Y6051550D01*
X7510020Y6032500D01*
X7577580D01*
G01X7850000Y6600000D02*
X8750000D01*
G01X7685550Y7000000D02*
X8750000D01*
G01X7600000Y6850000D02*
Y7850000D01*
G01Y7737500D02*
X8000000Y7800000D01*
X7600000Y7862500D01*
Y7737500D01*
G01X8000000Y3832340D02*
Y8050000D01*
G01X8500000Y6641250D02*
Y6600000D01*
G01X8562500Y6200000D02*
X8500000Y6600000D01*
X8437500Y6200000D01*
X8562500D01*
G01X8260220Y6736500D02*
Y6863500D01*
X8200700Y6772480D01*
X8281140D01*
G01X8370460Y6732270D02*
X8367240Y6734380D01*
Y6738620D01*
X8370460Y6740730D01*
X8373680Y6738620D01*
Y6734380D01*
X8370460Y6732270D01*
G01X8500000Y6863500D02*
X8487130Y6859270D01*
X8477480Y6848680D01*
X8471040Y6835990D01*
X8466220Y6819050D01*
X8464610Y6800000D01*
X8466220Y6780950D01*
X8471040Y6764010D01*
X8477480Y6751310D01*
X8487130Y6740730D01*
X8500000Y6736500D01*
X8512870Y6740730D01*
X8522520Y6751310D01*
X8528960Y6764010D01*
X8533780Y6780950D01*
X8535390Y6800000D01*
X8533780Y6819050D01*
X8528960Y6835990D01*
X8522520Y6848680D01*
X8512870Y6859270D01*
X8500000Y6863500D01*
G01Y6958750D02*
Y7000000D01*
G01X8437500Y7400000D02*
X8500000Y7000000D01*
X8562500Y7400000D01*
X8437500D01*
G01X8000000Y6677270D02*
Y7850000D01*
G01X8447410Y7600000D02*
X8000000D01*
G01X8400000Y7662500D02*
X8000000Y7600000D01*
X8400000Y7537500D01*
Y7662500D01*
G01X9087500Y400000D02*
X9150000Y0D01*
X9212500Y400000D01*
X9087500D01*
G01X8795580Y2042330D02*
X8805240Y2055030D01*
X8816500Y2061380D01*
X8829370Y2063500D01*
X8845450Y2059270D01*
X8856720Y2048680D01*
X8859930Y2035990D01*
X8858320Y2023280D01*
X8851890Y2012700D01*
X8819720Y1991530D01*
X8805240Y1976720D01*
X8795580Y1955550D01*
X8792370Y1936500D01*
X8859930D01*
G01X8920300Y1955550D02*
X8929950Y1944960D01*
X8941210Y1938620D01*
X8955690Y1936500D01*
X8970170Y1940730D01*
X8981430Y1949200D01*
X8989470Y1964010D01*
X8991080Y1980950D01*
X8987860Y1997880D01*
X8979820Y2008470D01*
X8968560Y2016930D01*
X8957300Y2019050D01*
X8946040Y2016930D01*
X8931560Y2008470D01*
X8936390Y2063500D01*
X8979820D01*
G01X9085230Y1932270D02*
X9082010Y1934380D01*
Y1938620D01*
X9085230Y1940730D01*
X9088450Y1938620D01*
Y1934380D01*
X9085230Y1932270D01*
G01X9214770Y2063500D02*
X9201900Y2059270D01*
X9192250Y2048680D01*
X9185810Y2035990D01*
X9180990Y2019050D01*
X9179380Y2000000D01*
X9180990Y1980950D01*
X9185810Y1964010D01*
X9192250Y1951310D01*
X9201900Y1940730D01*
X9214770Y1936500D01*
X9227640Y1940730D01*
X9237290Y1951310D01*
X9243730Y1964010D01*
X9248550Y1980950D01*
X9250160Y2000000D01*
X9248550Y2019050D01*
X9243730Y2035990D01*
X9237290Y2048680D01*
X9227640Y2059270D01*
X9214770Y2063500D01*
G01X9212500Y2100000D02*
X9150000Y2500000D01*
X9087500Y2100000D01*
X9212500D01*
G01X8581280Y6736500D02*
Y6821160D01*
G01Y6797880D02*
X8586100Y6808470D01*
X8594150Y6816930D01*
X8605410Y6821160D01*
X8616670Y6816930D01*
X8624710Y6808470D01*
X8629540Y6797880D01*
Y6736500D01*
G01Y6797880D02*
X8634370Y6808470D01*
X8642410Y6816930D01*
X8653670Y6821160D01*
X8664930Y6816930D01*
X8672980Y6808470D01*
X8677800Y6795770D01*
Y6736500D01*
G01X8710820D02*
Y6821160D01*
G01Y6797880D02*
X8715640Y6808470D01*
X8723690Y6816930D01*
X8734950Y6821160D01*
X8746210Y6816930D01*
X8754250Y6808470D01*
X8759080Y6797880D01*
Y6736500D01*
G01Y6797880D02*
X8763910Y6808470D01*
X8771950Y6816930D01*
X8783210Y6821160D01*
X8794470Y6816930D01*
X8802520Y6808470D01*
X8807340Y6795770D01*
Y6736500D01*
G01X8610220Y7536500D02*
Y7663500D01*
X8550700Y7572480D01*
X8631140D01*
G01X8720460Y7532270D02*
X8717240Y7534380D01*
Y7538620D01*
X8720460Y7540730D01*
X8723680Y7538620D01*
Y7534380D01*
X8720460Y7532270D01*
G01X8850000Y7663500D02*
X8837130Y7659270D01*
X8827480Y7648680D01*
X8821040Y7635990D01*
X8816220Y7619050D01*
X8814610Y7600000D01*
X8816220Y7580950D01*
X8821040Y7564010D01*
X8827480Y7551310D01*
X8837130Y7540730D01*
X8850000Y7536500D01*
X8862870Y7540730D01*
X8872520Y7551310D01*
X8878960Y7564010D01*
X8883780Y7580950D01*
X8885390Y7600000D01*
X8883780Y7619050D01*
X8878960Y7635990D01*
X8872520Y7648680D01*
X8862870Y7659270D01*
X8850000Y7663500D01*
G01X8931280Y7536500D02*
Y7621160D01*
G01Y7597880D02*
X8936100Y7608470D01*
X8944150Y7616930D01*
X8955410Y7621160D01*
X8966670Y7616930D01*
X8974710Y7608470D01*
X8979540Y7597880D01*
Y7536500D01*
G01Y7597880D02*
X8984370Y7608470D01*
X8992410Y7616930D01*
X9003670Y7621160D01*
X9014930Y7616930D01*
X9022980Y7608470D01*
X9027800Y7595770D01*
Y7536500D01*
G01X9060820D02*
Y7621160D01*
G01Y7597880D02*
X9065640Y7608470D01*
X9073690Y7616930D01*
X9084950Y7621160D01*
X9096210Y7616930D01*
X9104250Y7608470D01*
X9109080Y7597880D01*
Y7536500D01*
G01Y7597880D02*
X9113910Y7608470D01*
X9121950Y7616930D01*
X9133210Y7621160D01*
X9144470Y7616930D01*
X9152520Y7608470D01*
X9157340Y7595770D01*
Y7536500D01*
G01X9737500Y400000D02*
X9800000Y0D01*
X9862500Y400000D01*
X9737500D01*
G01X9150000Y1841250D02*
Y0D01*
G01X9296050Y1936500D02*
Y2021160D01*
G01Y1997880D02*
X9300870Y2008470D01*
X9308920Y2016930D01*
X9320180Y2021160D01*
X9331440Y2016930D01*
X9339480Y2008470D01*
X9344310Y1997880D01*
Y1936500D01*
G01Y1997880D02*
X9349140Y2008470D01*
X9357180Y2016930D01*
X9368440Y2021160D01*
X9379700Y2016930D01*
X9387750Y2008470D01*
X9392570Y1995770D01*
Y1936500D01*
G01X9425590D02*
Y2021160D01*
G01Y1997880D02*
X9430410Y2008470D01*
X9438460Y2016930D01*
X9449720Y2021160D01*
X9460980Y2016930D01*
X9469020Y2008470D01*
X9473850Y1997880D01*
Y1936500D01*
G01Y1997880D02*
X9478680Y2008470D01*
X9486720Y2016930D01*
X9497980Y2021160D01*
X9509240Y2016930D01*
X9517290Y2008470D01*
X9522110Y1995770D01*
Y1936500D01*
G01X9150000Y2158750D02*
Y2500000D01*
G01X9440760Y3155550D02*
X9450410Y3144960D01*
X9461670Y3138620D01*
X9476150Y3136500D01*
X9490630Y3140730D01*
X9501890Y3149200D01*
X9509930Y3164010D01*
X9511540Y3180950D01*
X9508320Y3197880D01*
X9500280Y3208470D01*
X9489020Y3216930D01*
X9477760Y3219050D01*
X9466500Y3216930D01*
X9452020Y3208470D01*
X9456850Y3263500D01*
X9500280D01*
G01X9570300Y3155550D02*
X9579950Y3144960D01*
X9591210Y3138620D01*
X9605690Y3136500D01*
X9620170Y3140730D01*
X9631430Y3149200D01*
X9639470Y3164010D01*
X9641080Y3180950D01*
X9637860Y3197880D01*
X9629820Y3208470D01*
X9618560Y3216930D01*
X9607300Y3219050D01*
X9596040Y3216930D01*
X9581560Y3208470D01*
X9586390Y3263500D01*
X9629820D01*
G01X9735230Y3132270D02*
X9732010Y3134380D01*
Y3138620D01*
X9735230Y3140730D01*
X9738450Y3138620D01*
Y3134380D01*
X9735230Y3132270D01*
G01X9864770Y3263500D02*
X9851900Y3259270D01*
X9842250Y3248680D01*
X9835810Y3235990D01*
X9830990Y3219050D01*
X9829380Y3200000D01*
X9830990Y3180950D01*
X9835810Y3164010D01*
X9842250Y3151310D01*
X9851900Y3140730D01*
X9864770Y3136500D01*
X9877640Y3140730D01*
X9887290Y3151310D01*
X9893730Y3164010D01*
X9898550Y3180950D01*
X9900160Y3200000D01*
X9898550Y3219050D01*
X9893730Y3235990D01*
X9887290Y3248680D01*
X9877640Y3259270D01*
X9864770Y3263500D01*
G01X9862500Y5100000D02*
X9800000Y5500000D01*
X9737500Y5100000D01*
X9862500D01*
G01X9800000Y3041250D02*
Y0D01*
G01X9946050Y3136500D02*
Y3221160D01*
G01Y3197880D02*
X9950870Y3208470D01*
X9958920Y3216930D01*
X9970180Y3221160D01*
X9981440Y3216930D01*
X9989480Y3208470D01*
X9994310Y3197880D01*
Y3136500D01*
G01Y3197880D02*
X9999140Y3208470D01*
X10007180Y3216930D01*
X10018440Y3221160D01*
X10029700Y3216930D01*
X10037750Y3208470D01*
X10042570Y3195770D01*
Y3136500D01*
G01X10075590D02*
Y3221160D01*
G01Y3197880D02*
X10080410Y3208470D01*
X10088460Y3216930D01*
X10099720Y3221160D01*
X10110980Y3216930D01*
X10119020Y3208470D01*
X10123850Y3197880D01*
Y3136500D01*
G01Y3197880D02*
X10128680Y3208470D01*
X10136720Y3216930D01*
X10147980Y3221160D01*
X10159240Y3216930D01*
X10167290Y3208470D01*
X10172110Y3195770D01*
Y3136500D01*
G01X9800000Y3358750D02*
Y5500000D01*
G54D11*
G01X3213100Y1168400D02*
Y596900D01*
G01D02*
X4279900D01*
G01X3213100Y1168400D02*
Y596900D01*
G01D02*
X4279900D01*
G01Y736600D02*
X3213100D01*
G01X4279900D02*
X3213100D01*
G01X4279900Y1168400D02*
X3213100D01*
G01X4279900D02*
X3213100D01*
G01X4279900Y596900D02*
Y1168400D01*
G01Y596900D02*
Y1168400D01*
G54D12*
G01X2736680Y6783330D02*
X2721440Y6793330D01*
X2703660Y6800000D01*
X2683340D01*
X2660480Y6790000D01*
X2642700Y6773330D01*
X2630000Y6753330D01*
X2619840Y6720000D01*
X2617300Y6690000D01*
X2622380Y6660000D01*
X2630000Y6640000D01*
X2645240Y6620000D01*
X2663020Y6606670D01*
X2680800Y6600000D01*
X2698580D01*
X2716360Y6606670D01*
X2731600Y6616660D01*
X2744300Y6629990D01*
G01X2884000Y6600000D02*
X2863680Y6603330D01*
X2845900Y6616660D01*
X2830660Y6636660D01*
X2820500Y6660000D01*
X2815420Y6686670D01*
Y6713330D01*
X2820500Y6740000D01*
X2830660Y6763340D01*
X2845900Y6783330D01*
X2863680Y6796670D01*
X2884000Y6800000D01*
X2904320Y6796670D01*
X2922100Y6783330D01*
X2937340Y6763340D01*
X2947500Y6740000D01*
X2952580Y6713330D01*
Y6686670D01*
X2947500Y6660000D01*
X2937340Y6636660D01*
X2922100Y6616660D01*
X2904320Y6603330D01*
X2884000Y6600000D01*
G01X3028780D02*
Y6800000D01*
X3145620Y6600000D01*
Y6800000D01*
G01X3290400D02*
Y6600000D01*
G01X3231980Y6800000D02*
X3348820D01*
G01X3442800Y6600000D02*
Y6800000D01*
X3506300D01*
X3526620Y6790000D01*
X3539320Y6776670D01*
X3544400Y6750000D01*
X3539320Y6723330D01*
X3524080Y6706670D01*
X3506300Y6696660D01*
X3442800D01*
G01X3506300D02*
X3544400Y6600000D01*
G01X3696800D02*
X3676480Y6603330D01*
X3658700Y6616660D01*
X3643460Y6636660D01*
X3633300Y6660000D01*
X3628220Y6686670D01*
Y6713330D01*
X3633300Y6740000D01*
X3643460Y6763340D01*
X3658700Y6783330D01*
X3676480Y6796670D01*
X3696800Y6800000D01*
X3717120Y6796670D01*
X3734900Y6783330D01*
X3750140Y6763340D01*
X3760300Y6740000D01*
X3765380Y6713330D01*
Y6686670D01*
X3760300Y6660000D01*
X3750140Y6636660D01*
X3734900Y6616660D01*
X3717120Y6603330D01*
X3696800Y6600000D01*
G01X3849200Y6800000D02*
Y6600000D01*
X3950800D01*
G01X4326720Y6706670D02*
X4336880Y6716670D01*
X4344500Y6733330D01*
X4349580Y6756670D01*
X4344500Y6776670D01*
X4334340Y6790000D01*
X4316560Y6800000D01*
X4247980D01*
Y6600000D01*
X4331800D01*
X4349580Y6613330D01*
X4359740Y6633330D01*
X4364820Y6656670D01*
X4359740Y6680000D01*
X4344500Y6700000D01*
X4326720Y6706670D01*
X4247980D01*
G01X4509600Y6600000D02*
X4489280Y6603330D01*
X4471500Y6616660D01*
X4456260Y6636660D01*
X4446100Y6660000D01*
X4441020Y6686670D01*
Y6713330D01*
X4446100Y6740000D01*
X4456260Y6763340D01*
X4471500Y6783330D01*
X4489280Y6796670D01*
X4509600Y6800000D01*
X4529920Y6796670D01*
X4547700Y6783330D01*
X4562940Y6763340D01*
X4573100Y6740000D01*
X4578180Y6713330D01*
Y6686670D01*
X4573100Y6660000D01*
X4562940Y6636660D01*
X4547700Y6616660D01*
X4529920Y6603330D01*
X4509600Y6600000D01*
G01X4649300D02*
X4712800Y6800000D01*
X4776300Y6600000D01*
G01X4753440Y6670000D02*
X4672160D01*
G01X4865200Y6600000D02*
Y6800000D01*
X4928700D01*
X4949020Y6790000D01*
X4961720Y6776670D01*
X4966800Y6750000D01*
X4961720Y6723330D01*
X4946480Y6706670D01*
X4928700Y6696660D01*
X4865200D01*
G01X4928700D02*
X4966800Y6600000D01*
G01X5063320D02*
Y6800000D01*
X5114120D01*
X5134440Y6790000D01*
X5149680Y6776670D01*
X5162380Y6756670D01*
X5172540Y6733330D01*
X5175080Y6700000D01*
X5172540Y6666660D01*
X5162380Y6643330D01*
X5149680Y6623330D01*
X5134440Y6610000D01*
X5114120Y6600000D01*
X5063320D01*
G54D13*
G01X908050Y687070D02*
X744220D01*
G01D02*
Y979170D01*
G01X908050Y687070D02*
X744220D01*
G01D02*
Y979170D01*
G01D02*
X908050D01*
G01X744220D02*
X908050D01*
G01Y1576070D02*
X744220D01*
G01D02*
Y1868170D01*
G01D02*
X908050D01*
G01Y1576070D02*
X744220D01*
G01D02*
Y1868170D01*
G01D02*
X908050D01*
G01X806450Y5662930D02*
X970280D01*
G01Y5370830D02*
X806450D01*
G01D02*
Y5662930D01*
G01D02*
X970280D01*
G01Y5370830D02*
X806450D01*
G01D02*
Y5662930D01*
G01X971550Y6021070D02*
X807720D01*
G01D02*
Y6313170D01*
G01D02*
X971550D01*
G01Y6021070D02*
X807720D01*
G01D02*
Y6313170D01*
G01D02*
X971550D01*
G01X908050Y979170D02*
Y687070D01*
G01Y979170D02*
Y687070D01*
G01Y1868170D02*
Y1576070D01*
G01Y1868170D02*
Y1576070D01*
G01X970280Y5662930D02*
Y5370830D01*
G01Y5662930D02*
Y5370830D01*
G01X971550Y6313170D02*
Y6021070D01*
G01Y6313170D02*
Y6021070D01*
G01X1860550Y1576070D02*
X1696720D01*
G01D02*
Y1868170D01*
G01D02*
X1860550D01*
G01D02*
Y1576070D01*
G01D02*
X1696720D01*
G01D02*
Y1868170D01*
G01D02*
X1860550D01*
G01D02*
Y1576070D01*
G01X1859280Y3694430D02*
Y3402330D01*
G01D02*
X1695450D01*
G01D02*
Y3694430D01*
G01X1859280D02*
Y3402330D01*
G01D02*
X1695450D01*
G01D02*
Y3694430D01*
G01D02*
X1859280D01*
G01X1695450D02*
X1859280D01*
G01X1695450Y4456430D02*
X1859280D01*
G01D02*
Y4164330D01*
G01D02*
X1695450D01*
G01D02*
Y4456430D01*
G01D02*
X1859280D01*
G01D02*
Y4164330D01*
G01D02*
X1695450D01*
G01D02*
Y4456430D01*
G01X1860550Y5386070D02*
X1696720D01*
G01D02*
Y5678170D01*
G01D02*
X1860550D01*
G01D02*
Y5386070D01*
G01D02*
X1696720D01*
G01D02*
Y5678170D01*
G01D02*
X1860550D01*
G01D02*
Y5386070D01*
G01Y6021070D02*
X1696720D01*
G01D02*
Y6313170D01*
G01D02*
X1860550D01*
G01D02*
Y6021070D01*
G01D02*
X1696720D01*
G01D02*
Y6313170D01*
G01D02*
X1860550D01*
G01D02*
Y6021070D01*
G01X2495550Y1576070D02*
X2331720D01*
G01D02*
Y1868170D01*
G01D02*
X2495550D01*
G01D02*
Y1576070D01*
G01D02*
X2331720D01*
G01D02*
Y1868170D01*
G01D02*
X2495550D01*
G01D02*
Y1576070D01*
G01Y3417570D02*
X2331720D01*
G01D02*
Y3709670D01*
G01X2495550D02*
Y3417570D01*
G01D02*
X2331720D01*
G01D02*
Y3709670D01*
G01X2495550D02*
Y3417570D01*
G01X2331720Y3709670D02*
X2495550D01*
G01X2331720D02*
X2495550D01*
G01Y4878070D02*
X2331720D01*
G01D02*
Y5170170D01*
G01D02*
X2495550D01*
G01D02*
Y4878070D01*
G01D02*
X2331720D01*
G01D02*
Y5170170D01*
G01D02*
X2495550D01*
G01D02*
Y4878070D01*
G01X3003550Y687070D02*
X2839720D01*
G01D02*
Y979170D01*
G01X3003550D02*
Y687070D01*
G01D02*
X2839720D01*
G01D02*
Y979170D01*
G01X3003550D02*
Y687070D01*
G01X2839720Y979170D02*
X3003550D01*
G01X2839720D02*
X3003550D01*
G01X3384550Y1576070D02*
X3220720D01*
G01D02*
Y1868170D01*
G01D02*
X3384550D01*
G01D02*
Y1576070D01*
G01D02*
X3220720D01*
G01D02*
Y1868170D01*
G01D02*
X3384550D01*
G01D02*
Y1576070D01*
G01X3981450Y1916430D02*
X4145280D01*
G01Y1624330D02*
X3981450D01*
G01D02*
Y1916430D01*
G01D02*
X4145280D01*
G01Y1624330D02*
X3981450D01*
G01D02*
Y1916430D01*
G01X4145280D02*
Y1624330D01*
G01Y1916430D02*
Y1624330D01*
G01X4845050Y3544570D02*
X4681220D01*
G01D02*
Y3836670D01*
G01D02*
X4845050D01*
G01Y3544570D02*
X4681220D01*
G01D02*
Y3836670D01*
G01D02*
X4845050D01*
G01X4489450Y5091430D02*
X4653280D01*
G01D02*
Y4799330D01*
G01D02*
X4489450D01*
G01D02*
Y5091430D01*
G01D02*
X4653280D01*
G01D02*
Y4799330D01*
G01D02*
X4489450D01*
G01D02*
Y5091430D01*
G01X4654550Y5386070D02*
X4490720D01*
G01D02*
Y5678170D01*
G01D02*
X4654550D01*
G01D02*
Y5386070D01*
G01D02*
X4490720D01*
G01D02*
Y5678170D01*
G01D02*
X4654550D01*
G01D02*
Y5386070D01*
G01Y6021070D02*
X4490720D01*
G01D02*
Y6313170D01*
G01D02*
X4654550D01*
G01D02*
Y6021070D01*
G01D02*
X4490720D01*
G01D02*
Y6313170D01*
G01D02*
X4654550D01*
G01D02*
Y6021070D01*
G01X4907280Y1090930D02*
Y798830D01*
G01D02*
X4743450D01*
G01D02*
Y1090930D01*
G01X4907280D02*
Y798830D01*
G01D02*
X4743450D01*
G01D02*
Y1090930D01*
G01D02*
X4907280D01*
G01X4743450D02*
X4907280D01*
G01X5035550Y1639570D02*
X4871720D01*
G01D02*
Y1931670D01*
G01D02*
X5035550D01*
G01D02*
Y1639570D01*
G01D02*
X4871720D01*
G01D02*
Y1931670D01*
G01D02*
X5035550D01*
G01D02*
Y1639570D01*
G01X4845050Y3836670D02*
Y3544570D01*
G01Y3836670D02*
Y3544570D01*
G01X5416550Y3671570D02*
X5252720D01*
G01D02*
Y3963670D01*
G01D02*
X5416550D01*
G01Y3671570D02*
X5252720D01*
G01D02*
Y3963670D01*
G01D02*
X5416550D01*
G01D02*
Y3671570D01*
G01Y3963670D02*
Y3671570D01*
G01X5543550Y4814570D02*
X5379720D01*
G01D02*
Y5106670D01*
G01D02*
X5543550D01*
G01D02*
Y4814570D01*
G01D02*
X5379720D01*
G01D02*
Y5106670D01*
G01D02*
X5543550D01*
G01D02*
Y4814570D01*
G01X5378450Y5662930D02*
X5542280D01*
G01D02*
Y5370830D01*
G01D02*
X5378450D01*
G01D02*
Y5662930D01*
G01D02*
X5542280D01*
G01D02*
Y5370830D01*
G01D02*
X5378450D01*
G01D02*
Y5662930D01*
G01X5543550Y6021070D02*
X5379720D01*
G01D02*
Y6313170D01*
G01D02*
X5543550D01*
G01D02*
Y6021070D01*
G01D02*
X5379720D01*
G01D02*
Y6313170D01*
G01D02*
X5543550D01*
G01D02*
Y6021070D01*
G01X6178550Y2528570D02*
X6014720D01*
G01D02*
Y2820670D01*
G01X6178550D02*
Y2528570D01*
G01D02*
X6014720D01*
G01D02*
Y2820670D01*
G01X6178550D02*
Y2528570D01*
G01X6014720Y2820670D02*
X6178550D01*
G01X6014720D02*
X6178550D01*
G01X6140450Y5091430D02*
X6304280D01*
G01D02*
Y4799330D01*
G01D02*
X6140450D01*
G01D02*
Y5091430D01*
G01D02*
X6304280D01*
G01D02*
Y4799330D01*
G01D02*
X6140450D01*
G01D02*
Y5091430D01*
G01X6305550Y5386070D02*
X6141720D01*
G01D02*
Y5678170D01*
G01D02*
X6305550D01*
G01D02*
Y5386070D01*
G01D02*
X6141720D01*
G01D02*
Y5678170D01*
G01D02*
X6305550D01*
G01D02*
Y5386070D01*
G01X6140450Y6361430D02*
X6304280D01*
G01D02*
Y6069330D01*
G01D02*
X6140450D01*
G01D02*
Y6361430D01*
G01D02*
X6304280D01*
G01D02*
Y6069330D01*
G01D02*
X6140450D01*
G01D02*
Y6361430D01*
M02*
