G04 ================== begin FILE IDENTIFICATION RECORD ==================*
G04 Layout Name:  D:/ORCAD/B07/allegro/B07_0522.brd*
G04 Film Name:    Soldemask_TOP*
G04 File Format:  Gerber RS274X*
G04 File Origin:  Cadence Allegro 17.2-S073*
G04 Origin Date:  Mon May 22 16:24:19 2023*
G04 *
G04 Layer:  VIA CLASS/SOLDERMASK_TOP*
G04 Layer:  PIN/SOLDERMASK_TOP*
G04 Layer:  BOARD GEOMETRY/DESIGN_OUTLINE*
G04 *
G04 Offset:    (0.0000 0.0000)*
G04 Mirror:    No*
G04 Mode:      Positive*
G04 Rotation:  0*
G04 FullContactRelief:  No*
G04 UndefLineWidth:     0.0000*
G04 ================== end FILE IDENTIFICATION RECORD ====================*
%FSLAX35Y35*MOMM*%
%IR0*IPPOS*OFA0.00000B0.00000*MIA0B0*SFA1.00000B1.00000*%
%ADD25R,1.8999X1.8999*%
%ADD15R,2.5999X1.5999*%
%ADD19C,.6*%
%ADD12C,.8*%
%ADD16R,1.397X.762*%
%ADD18R,.4572X1.778*%
%ADD21R,1.1801X.5799*%
%ADD17R,1.778X.4572*%
%ADD13C,1.905*%
%ADD10C,3.683*%
%ADD23R,1.6256X1.3208*%
%ADD20R,1.905X1.905*%
%ADD14C,1.778*%
%ADD22R,1.6256X2.3368*%
%ADD11R,.9652X.8128*%
%ADD24C,1.8999*%
%LPD*%
G75*
G54D10*
X400000Y400000D03*
Y6600000D03*
X7600000Y400000D03*
Y6600000D03*
G54D11*
X850000Y800000D03*
Y942240D03*
Y1500000D03*
Y1642240D03*
Y6050000D03*
Y5600000D03*
Y5457760D03*
Y6192240D03*
X1650000Y1500000D03*
Y1642240D03*
Y3350000D03*
Y3207760D03*
Y4000000D03*
Y3857760D03*
Y5450000D03*
Y5592240D03*
Y6050000D03*
Y6192240D03*
X2850000Y800000D03*
Y942240D03*
X2450000Y1450000D03*
Y1592240D03*
Y3250000D03*
Y3392240D03*
Y4800000D03*
Y4942240D03*
X3450000Y1450000D03*
Y1592240D03*
X4445000Y1587500D03*
Y1445260D03*
X4200000Y4750000D03*
Y4607760D03*
Y5200000D03*
Y5342240D03*
X4191000Y6032500D03*
Y6174740D03*
X5397500Y1460500D03*
X4900000Y1150000D03*
Y1007760D03*
X5397500Y1602740D03*
X5200000Y3400000D03*
Y3542240D03*
X5050000Y4600000D03*
Y4742240D03*
Y5350000D03*
Y5207760D03*
X5080000Y6032500D03*
Y6174740D03*
X5750000Y3550000D03*
Y3692240D03*
X6050000Y4750000D03*
Y4607760D03*
Y5200000D03*
Y5342240D03*
Y6250000D03*
Y6107760D03*
X6250000Y2350000D03*
Y2492240D03*
G54D20*
X4150000Y1000000D03*
G54D21*
X5184000Y2100000D03*
Y2200000D03*
Y2300000D03*
Y2400000D03*
Y2500000D03*
X5716000Y2200000D03*
Y2100000D03*
Y2500000D03*
Y2400000D03*
Y2300000D03*
G54D12*
X850000Y619360D03*
X661740Y6050000D03*
Y5457760D03*
X1461740Y3207760D03*
Y5450000D03*
X1830000Y730000D03*
X2222500Y1841500D03*
Y3246000D03*
X1838260Y3857760D03*
X1968500Y4000000D03*
X2850000Y619360D03*
X2603500Y3302000D03*
X2857500Y3937000D03*
X2794000Y3556000D03*
X2638260Y4800000D03*
X2498850Y5800000D03*
X4011740Y4607760D03*
X4445000Y1714500D03*
X4191000Y3873500D03*
X4200000Y5019360D03*
X5388260Y3400000D03*
X4861740Y4600000D03*
X5050000Y5027120D03*
X5080000Y5851860D03*
X5820000Y1219990D03*
X5915000Y2300000D03*
X6061740Y2350000D03*
X5716000Y2729500D03*
Y3428000D03*
X6180000Y1376500D03*
X6647480Y3503480D03*
G54D22*
X6451600D03*
G54D13*
X850000Y2150000D03*
Y2404000D03*
X1650000Y2146000D03*
Y2400000D03*
X2450000Y2146000D03*
Y2400000D03*
X3450000Y2146000D03*
Y2400000D03*
X3896000Y1000000D03*
X3642000D03*
X4400000Y2150000D03*
Y2404000D03*
G54D14*
X850000Y3506000D03*
Y3994000D03*
G54D23*
X6248400Y3503480D03*
Y3696520D03*
X6451600D03*
G54D24*
X7256000Y1476000D03*
X7000000D03*
X7256000Y1732000D03*
X7000000D03*
X7256000Y1988000D03*
X7000000D03*
X7256000Y2244000D03*
X7000000D03*
X7256000Y2500000D03*
Y4476000D03*
X7000000D03*
X7256000Y4732000D03*
X7000000D03*
X7256000Y4988000D03*
X7000000D03*
X7256000Y5244000D03*
X7000000D03*
X7256000Y5500000D03*
G54D15*
X1470000Y950000D03*
X1830000D03*
X5820000Y1000000D03*
X6180000D03*
G54D16*
X2702350Y5546000D03*
Y5419000D03*
Y5673000D03*
Y5927000D03*
Y5800000D03*
Y6054000D03*
Y6181000D03*
X3197650Y5419000D03*
Y5546000D03*
Y5673000D03*
Y5800000D03*
Y5927000D03*
Y6054000D03*
Y6181000D03*
G54D25*
X7000000Y2500000D03*
Y5500000D03*
G54D17*
X3050000Y3470000D03*
Y3550000D03*
Y3630000D03*
Y3710000D03*
Y3790000D03*
Y3870000D03*
Y3950000D03*
Y4030000D03*
X3950000Y3470000D03*
Y4030000D03*
Y3950000D03*
Y3870000D03*
Y3790000D03*
Y3710000D03*
Y3630000D03*
Y3550000D03*
G54D18*
X3460000Y3300000D03*
X3380000D03*
X3300000D03*
X3220000D03*
Y4200000D03*
X3300000D03*
X3380000D03*
X3460000D03*
X3780000Y3300000D03*
X3700000D03*
X3620000D03*
X3540000D03*
Y4200000D03*
X3620000D03*
X3700000D03*
X3780000D03*
G54D19*
X3365500Y3873500D03*
X3311000Y3746500D03*
X2921000Y6096000D03*
X3619500Y3873500D03*
X3746500Y4000500D03*
X3556000Y3810000D03*
Y4381500D03*
X3626400Y4946100D03*
X4431290Y3760210D03*
X4445000Y6096000D03*
X5039000Y2200000D03*
X4957500Y2100000D03*
X6032500Y3950000D03*
X6350000Y2857500D03*
X6286500Y4064000D03*
X6468000Y4200000D03*
X6604000Y4381500D03*
X6350000Y5334000D03*
X6540500Y5080000D03*
X6413500Y5524500D03*
X7112000Y4381500D03*
M02*
