G04 ================== begin FILE IDENTIFICATION RECORD ==================*
G04 Layout Name:  D:/ORCAD/B07/allegro/B07_0616.brd*
G04 Film Name:    TOP*
G04 File Format:  Gerber RS274X*
G04 File Origin:  Cadence Allegro 17.2-S073*
G04 Origin Date:  Fri Jun 16 10:32:43 2023*
G04 *
G04 Layer:  BOARD GEOMETRY/DESIGN_OUTLINE*
G04 Layer:  ETCH/TOP*
G04 Layer:  PIN/TOP*
G04 Layer:  VIA CLASS/TOP*
G04 *
G04 Offset:    (0.0000 0.0000)*
G04 Mirror:    No*
G04 Mode:      Positive*
G04 Rotation:  0*
G04 FullContactRelief:  No*
G04 UndefLineWidth:     0.0000*
G04 ================== end FILE IDENTIFICATION RECORD ====================*
%FSLAX35Y35*MOMM*%
%IR0*IPPOS*OFA0.00000B0.00000*MIA0B0*SFA1.00000B1.00000*%
%ADD15R,2.5999X1.5999*%
%ADD20R,.3302X1.524*%
%ADD18C,.6*%
%ADD16R,1.524X.3302*%
%ADD12C,.8*%
%ADD17R,1.27X.635*%
%ADD10C,.635*%
%ADD24R,1.1176X.8128*%
%ADD22R,1.1801X.5799*%
%ADD14C,1.27*%
%ADD11C,1.524*%
%ADD19C,1.905*%
%ADD21R,1.905X1.905*%
%ADD25C,1.5199*%
%ADD23R,1.1176X1.8288*%
%ADD26R,1.5199X1.5199*%
%ADD13R,.9652X.8128*%
%ADD27C,.3*%
%ADD28C,.5*%
G75*
%LPD*%
G75*
G54D10*
X400000Y400000D03*
Y6600000D03*
X7600000Y400000D03*
Y6600000D03*
G54D11*
X1000000Y2654000D03*
Y2400000D03*
X1700000Y2396000D03*
Y2650000D03*
X2500000Y2396000D03*
Y2650000D03*
X3200000Y2396000D03*
Y2650000D03*
X4000000Y2654000D03*
Y2400000D03*
G54D20*
X3420000Y3300000D03*
X3340000D03*
X3260000D03*
X3180000D03*
X3100000D03*
X3020000D03*
Y4200000D03*
X3100000D03*
X3180000D03*
X3260000D03*
X3340000D03*
X3420000D03*
X3580000Y3300000D03*
X3500000D03*
Y4200000D03*
X3580000D03*
G54D21*
X3700000Y1150000D03*
G54D12*
X950000Y5336500D03*
X635000Y6032500D03*
X952500Y635000D03*
X1460500Y3075880D03*
X2095500Y2857500D03*
X2159000Y3302000D03*
X2016260Y3857760D03*
X2095500Y3646880D03*
X1650000Y5271500D03*
X2095500Y5596570D03*
X2500000Y722000D03*
X2329000Y1100000D03*
X2667000Y3993620D03*
X2583990Y3810000D03*
X2413000Y3746500D03*
X2603500Y3556000D03*
X2300000Y4586000D03*
X4064000Y3429000D03*
X4000500Y3683000D03*
X3950000Y5093000D03*
X4226500Y1750000D03*
X4634000Y2857500D03*
X4721260Y4657760D03*
X4240000Y4650000D03*
X5270500Y1397000D03*
X5384500Y2400000D03*
X5150000Y2800500D03*
Y3245000D03*
X4950000Y5146500D03*
X4889500Y5842000D03*
X5588000Y2413000D03*
X6350000Y1270000D03*
X6389020Y3453480D03*
G54D13*
X1000000Y950000D03*
Y1092240D03*
Y1700000D03*
Y1842240D03*
X950000Y5700000D03*
Y5557760D03*
Y6100000D03*
Y6242240D03*
X1700000Y1700000D03*
Y1842240D03*
Y3450000D03*
Y3307760D03*
Y4000000D03*
Y3857760D03*
X1650000Y5550000D03*
Y5692240D03*
Y6100000D03*
Y6242240D03*
X2500000Y1000000D03*
Y1142240D03*
Y1750000D03*
Y1892240D03*
X2300000Y3450000D03*
Y3307760D03*
Y4850000D03*
Y4992240D03*
X3200000Y1750000D03*
Y1892240D03*
X4000000Y1750000D03*
Y1892240D03*
X3950000Y4650000D03*
Y4792240D03*
Y5400000D03*
Y5542240D03*
X3937000Y6096000D03*
Y6238240D03*
X4700000Y1300000D03*
Y1157760D03*
X4318000Y3365500D03*
Y3507740D03*
X4800000Y1750000D03*
Y1892240D03*
X5150000Y3450000D03*
Y3592240D03*
X4950000Y4657760D03*
Y4800000D03*
Y5550000D03*
Y5407760D03*
X4889500Y6096000D03*
Y6238240D03*
X5842000Y2413000D03*
Y2555240D03*
X5800000Y4657760D03*
Y4800000D03*
Y5400000D03*
Y5542240D03*
Y6250000D03*
Y6107760D03*
G54D22*
X4634000Y2200000D03*
Y2300000D03*
Y2400000D03*
Y2500000D03*
Y2600000D03*
X5166000Y2200000D03*
Y2600000D03*
Y2500000D03*
Y2400000D03*
Y2300000D03*
G54D23*
X6051600Y3453480D03*
G54D14*
X1016000Y3512000D03*
Y4000000D03*
G54D24*
X5848400Y3453480D03*
Y3646520D03*
X6051600D03*
G54D15*
X2080000Y1100000D03*
X1720000D03*
X5620000Y1150000D03*
X5980000D03*
G54D25*
X7256000Y1476000D03*
X7000000D03*
X7256000Y1732000D03*
X7000000D03*
X7256000Y1988000D03*
X7000000D03*
X7256000Y2244000D03*
X7000000D03*
X7256000Y2500000D03*
Y4476000D03*
X7000000D03*
X7256000Y4732000D03*
X7000000D03*
X7256000Y4988000D03*
X7000000D03*
X7256000Y5244000D03*
X7000000D03*
X7256000Y5500000D03*
G54D16*
X2850000Y3470000D03*
Y3550000D03*
Y3630000D03*
Y3710000D03*
Y3790000D03*
Y3870000D03*
Y3950000D03*
Y4030000D03*
X3750000D03*
Y3950000D03*
Y3870000D03*
Y3790000D03*
Y3710000D03*
Y3630000D03*
Y3550000D03*
Y3470000D03*
G54D26*
X7000000Y2500000D03*
Y5500000D03*
G54D17*
X2355850Y5588000D03*
Y5461000D03*
Y5715000D03*
Y5969000D03*
Y5842000D03*
X2851150Y5461000D03*
Y5588000D03*
Y5715000D03*
Y5842000D03*
Y5969000D03*
X2355850Y6096000D03*
Y6223000D03*
X2851150Y6096000D03*
Y6223000D03*
G54D27*
G01X1000000Y1842240D02*
X992380D01*
X935470Y1899150D01*
Y1906770D01*
X825500Y2016740D01*
Y2479500D01*
X1000000Y2654000D01*
G01X950000Y5700000D02*
X1570980D01*
X1578740Y5692240D01*
X1650000D01*
G01X950000Y6242240D02*
X1507760D01*
X1585470Y6164530D01*
Y6156910D01*
X1642380Y6100000D01*
X1650000D01*
G01X1700000Y1842240D02*
Y2396000D01*
G01X3020000Y3300000D02*
X2980490D01*
X2728490Y3048000D01*
X1905000D01*
X1700000Y2843000D01*
Y2650000D01*
G01X1650000Y5692240D02*
X2079090D01*
X2269350Y5882500D01*
Y5914250D01*
X2324100Y5969000D01*
X2355850D01*
G01X1650000Y6100000D02*
X2265350D01*
X2269350Y6096000D01*
X2355850D01*
G01X1650000Y6242240D02*
X2250110D01*
X2269350Y6223000D01*
X2355850D01*
G01X2500000Y2396000D02*
Y1892240D01*
G01X3100000Y3300000D02*
X3111500Y3288500D01*
Y3175000D01*
X2921000Y2984500D01*
X2603500D01*
X2500000Y2881000D01*
Y2650000D01*
G01X5800000Y6107760D02*
X5728740D01*
X5716980Y6096000D01*
X5524500D01*
X5143500Y6477000D01*
X2794000D01*
X2667000Y6350000D01*
Y6096000D01*
X2540000Y5969000D01*
X2355850D01*
G01Y6223000D02*
X2442350D01*
X2540000Y6125350D01*
G01X3200000Y1892240D02*
Y2396000D01*
G01Y2650000D02*
Y3180800D01*
X3180000Y3200800D01*
Y3300000D01*
G01Y4200000D02*
Y4005500D01*
G01X3100000Y4200000D02*
Y3885000D01*
G01X2850000Y4030000D02*
Y4501000D01*
X2921000Y4572000D01*
X4204290D01*
X4206690Y4569600D01*
X4273310D01*
X4275710Y4572000D01*
X6931380D01*
X6951780Y4592400D01*
X7139600D01*
X7256000Y4476000D01*
G01X3260000Y4200000D02*
Y3903500D01*
X3290000Y3873500D01*
X3556000D01*
G01X6477000Y4445000D02*
X6259070D01*
X6252170Y4451900D01*
X6193830D01*
X6186930Y4445000D01*
X3556000D01*
X3420000Y4309000D01*
Y4200000D01*
G01X3365500Y4381500D02*
X3340000Y4356000D01*
Y4200000D01*
G01X3020000D02*
Y4417000D01*
X3111500Y4508500D01*
X6440930D01*
X6447830Y4515400D01*
X6506170D01*
X6513070Y4508500D01*
X6851100D01*
X6883600Y4476000D01*
X7000000D01*
G01X2851150Y5715000D02*
X3027240D01*
X3885470Y4856770D01*
Y4849150D01*
X3942380Y4792240D01*
X3950000D01*
G01X2851150Y5461000D02*
Y5403850D01*
X3429000Y4826000D01*
G01X2851150Y5969000D02*
X3523240D01*
X3885470Y5606770D01*
Y5599150D01*
X3942380Y5542240D01*
X3950000D01*
G01X2851150Y5588000D02*
Y5461000D01*
G01Y6096000D02*
X3937000D01*
G01X2851150Y6223000D02*
X3850500D01*
X3865740Y6238240D01*
X3937000D01*
G01X4700000Y1300000D02*
X4692380D01*
X4635470Y1356910D01*
Y1364530D01*
X4412500Y1587500D01*
X3873500D01*
X3746500Y1714500D01*
Y2540000D01*
X3860500Y2654000D01*
X4000000D01*
G01X4634000Y2400000D02*
X4603990D01*
X4558720Y2445270D01*
X4441200D01*
X4254500Y2258570D01*
Y1968500D01*
X4178240Y1892240D01*
X4000000D01*
G01X6032500Y2667000D02*
X5715000Y2984500D01*
X3619500D01*
X3500000Y3104000D01*
Y3300000D01*
G01X3580000D02*
X3875500D01*
X4064000Y3111500D01*
X5091440D01*
X5093740Y3109200D01*
X5206260D01*
X5208560Y3111500D01*
X5778500D01*
X6646000Y2244000D01*
X7000000D01*
G01X3750000Y3470000D02*
X3849200D01*
X4144200Y3175000D01*
X5106290D01*
X5116690Y3164600D01*
X5183310D01*
X5193710Y3175000D01*
X6858000D01*
X7429500Y2603500D01*
Y2417500D01*
X7256000Y2244000D01*
G01X3750000Y3950000D02*
X4889500D01*
G01X3750000Y4030000D02*
X5495000D01*
G01X3750000Y3630000D02*
X3650800D01*
X3619500Y3661300D01*
Y3683000D01*
X3556000Y3746500D01*
G01Y4000500D02*
X3653720Y3902780D01*
X3657530D01*
X3690310Y3870000D01*
X3750000D01*
G01X3580000Y4200000D02*
X5833000D01*
G01X6223000Y4381500D02*
X3621810D01*
X3500000Y4259690D01*
Y4200000D01*
G01X3950000Y4792240D02*
X4870980D01*
X4878740Y4800000D01*
X4950000D01*
G01X3950000Y5542240D02*
X4870980D01*
X4878740Y5550000D01*
X4950000D01*
G01X3937000Y6096000D02*
X4218430D01*
X4225330Y6089100D01*
X4283670D01*
X4290570Y6096000D01*
X4747260D01*
X4824970Y6173710D01*
Y6181330D01*
X4881880Y6238240D01*
X4889500D01*
G01X3937000D02*
X4175760D01*
X4254500Y6159500D01*
G01X4445000Y2349500D02*
X4554490D01*
X4603990Y2300000D01*
X4634000D01*
G01X4445000Y2222500D02*
X4529490D01*
X4551990Y2200000D01*
X4634000D01*
G01X4800000Y1892240D02*
Y2354530D01*
X4709280Y2445250D01*
Y2454730D01*
X4664010Y2500000D01*
X4634000D01*
G01X7000000Y1476000D02*
X6634500Y1841500D01*
X5654510D01*
X5196010Y2300000D01*
X5166000D01*
G01X7256000Y1476000D02*
X7050000Y1270000D01*
X6540500D01*
X6032500Y1778000D01*
X5524500D01*
X5166000Y2136500D01*
Y2200000D01*
G01Y2500000D02*
X5070000D01*
X4953000Y2383000D01*
Y1895380D01*
X4807620Y1750000D01*
X4800000D01*
G01X5150000Y3592240D02*
X5715240D01*
X5769520Y3646520D01*
X5848400D01*
G01X4889500Y3746500D02*
X4995740D01*
X5085470Y3656770D01*
Y3649150D01*
X5142380Y3592240D01*
X5150000D01*
G01X4950000Y4800000D02*
X5657760D01*
X5735470Y4722290D01*
Y4714670D01*
X5792380Y4657760D01*
X5800000D01*
G01X4950000Y5550000D02*
X5720980D01*
X5728740Y5542240D01*
X5800000D01*
G01Y4800000D02*
X6815600D01*
X6883600Y4732000D01*
X7000000D01*
G01X7256000D02*
X7116400Y4871600D01*
X6812400D01*
X6284000Y5400000D01*
X5800000D01*
G01X7256000Y4988000D02*
X7493000Y5225000D01*
Y5842000D01*
X7085000Y6250000D01*
X5800000D01*
G01X7000000Y1988000D02*
X7139600Y2127600D01*
X7398100D01*
X7683500Y2413000D01*
Y2857500D01*
X6894480Y3646520D01*
X6051600D01*
G01X6413500Y5524500D02*
X6567930D01*
X6574830Y5517600D01*
X6633170D01*
X6640070Y5524500D01*
X6859100D01*
X6883600Y5500000D01*
X7000000D01*
G01X7256000D02*
X6914000Y5842000D01*
X6858000D01*
X6604000Y5588000D01*
G01X7000000Y5244000D02*
X6973500Y5270500D01*
X6858000D01*
X6731000Y5143500D01*
G54D18*
X2540000Y6125350D03*
X3180000Y4005500D03*
X3100000Y3885000D03*
X3365500Y4381500D03*
X3429000Y4826000D03*
X3556000Y3746500D03*
Y4000500D03*
Y3873500D03*
X4445000Y2349500D03*
Y2222500D03*
X4254500Y6159500D03*
X4889500Y3950000D03*
Y3746500D03*
X5495000Y4030000D03*
X5833000Y4200000D03*
X6032500Y2667000D03*
X6223000Y4381500D03*
X6477000Y4445000D03*
X6413500Y5524500D03*
X6604000Y5588000D03*
X6731000Y5143500D03*
G54D28*
G01X950000Y6100000D02*
X702500D01*
X635000Y6032500D01*
G01X1000000Y950000D02*
Y682500D01*
X952500Y635000D01*
G01X1000000Y1700000D02*
Y1092240D01*
G01Y1700000D02*
X1700000D01*
G01Y3307760D02*
X1692380D01*
X1460500Y3075880D01*
G01X1016000Y4000000D02*
X1700000D01*
G01X1016000Y3512000D02*
X1556740D01*
X1618740Y3450000D01*
X1700000D01*
G01X950000Y5557760D02*
Y5336500D01*
G01X2080000Y1100000D02*
X2329000D01*
G01X1700000Y1700000D02*
Y1233000D01*
X1720000Y1213000D01*
Y1100000D01*
G01X2095500Y2857500D02*
Y2073240D01*
X2418740Y1750000D01*
G01D02*
X2368740Y1700000D01*
X1700000D01*
G01X2159000Y3302000D02*
X2294240D01*
X2300000Y3307760D01*
G01X2850000Y3470000D02*
X2857500Y3462500D01*
Y3365500D01*
X2691260Y3199260D01*
X2032000D01*
X1781260Y3450000D01*
X1700000D01*
G01Y3857760D02*
X2016260D01*
G01X2300000Y3450000D02*
X2292380D01*
X2095500Y3646880D01*
G01X1700000Y4000000D02*
X2159500D01*
X2413000Y3746500D01*
G01X2850000Y3790000D02*
X2740800D01*
X2032000Y4498800D01*
Y4889500D01*
X2134740Y4992240D01*
X2300000D01*
G01X1650000Y5550000D02*
Y5271500D01*
G01X2355850Y5842000D02*
X2324100D01*
X2269010Y5786910D01*
Y5770080D01*
X2095500Y5596570D01*
G01X2500000Y1000000D02*
Y722000D01*
G01Y1750000D02*
Y1142240D01*
G01Y1750000D02*
X3200000D01*
G01X2500000D02*
X2418740D01*
G01X2850000Y3630000D02*
X2845400Y3634600D01*
X2652750D01*
X2640950Y3646400D01*
X2566050D01*
X2476500Y3556850D01*
Y3403000D01*
X2381260Y3307760D01*
X2300000D01*
G01X2850000Y3870000D02*
X2790620D01*
X2667000Y3993620D01*
G01X2850000Y3710000D02*
X2683990D01*
X2583990Y3810000D01*
G01X2603500Y3556000D02*
X2734800D01*
X2740800Y3550000D01*
X2850000D01*
G01X2300000Y4850000D02*
Y4586000D01*
G01X2851150Y5842000D02*
X2819400D01*
X2764310Y5786910D01*
Y5770080D01*
X2667000Y5672770D01*
Y5277980D01*
X2381260Y4992240D01*
X2300000D01*
G01X3200000Y1750000D02*
Y1303660D01*
X3192000Y1295660D01*
Y1150000D01*
G01X2850000Y3630000D02*
X3302000D01*
G01D02*
X3382000Y3550000D01*
X3750000D01*
G01X3302000Y3630000D02*
X3142000Y3790000D01*
X2850000D01*
G01X3700000Y1150000D02*
X4610980D01*
X4618740Y1157760D01*
X4700000D01*
G01X4000000Y1750000D02*
X4226500D01*
G01X4318000Y3365500D02*
X4127500D01*
X4064000Y3429000D01*
G01X3750000Y3790000D02*
X3893500D01*
X4000500Y3683000D01*
G01X3750000Y3550000D02*
X4194480D01*
X4236740Y3507740D01*
X4318000D01*
G01X3950000Y4650000D02*
X4240000D01*
G01X3950000Y5400000D02*
Y5093000D01*
G01X5980000Y1150000D02*
X5905500Y1075500D01*
Y1002500D01*
X5855500Y952500D01*
X5334000D01*
X5128740Y1157760D01*
X4700000D01*
G01X4634000Y2600000D02*
Y2857500D01*
G01X4318000Y3507740D02*
X5011000D01*
X5068740Y3450000D01*
X5150000D01*
G01X4950000Y4657760D02*
X4721260D01*
G01X5620000Y1150000D02*
X5457000D01*
X5270500Y1336500D01*
Y1397000D01*
G01X5166000Y2400000D02*
X5384500D01*
G01X5166000Y2600000D02*
X5715980D01*
X5760740Y2555240D01*
X5842000D01*
G01X5150000Y2800500D02*
Y2678000D01*
X5166000Y2662000D01*
Y2600000D01*
G01X5150000Y3450000D02*
X5756040D01*
X5759520Y3453480D01*
X5848400D01*
G01X5150000Y3450000D02*
Y3245000D01*
G01X4950000Y5407760D02*
Y5146500D01*
G01X4889500Y6096000D02*
Y5842000D01*
G01X5980000Y1150000D02*
X6230000D01*
X6350000Y1270000D01*
G01X5842000Y2413000D02*
X5588000D01*
G01X6051600Y3453480D02*
X6389020D01*
G54D19*
X3446000Y1150000D03*
X3192000D03*
M02*
