G04 ================== begin FILE IDENTIFICATION RECORD ==================*
G04 Layout Name:  D:/ORCAD/B07/allegro/B07_0526.brd*
G04 Film Name:    TOP*
G04 File Format:  Gerber RS274X*
G04 File Origin:  Cadence Allegro 17.2-S073*
G04 Origin Date:  Fri Jun 23 11:19:27 2023*
G04 *
G04 Layer:  BOARD GEOMETRY/DESIGN_OUTLINE*
G04 Layer:  ETCH/TOP*
G04 Layer:  PIN/TOP*
G04 Layer:  VIA CLASS/TOP*
G04 *
G04 Offset:    (0.0000 0.0000)*
G04 Mirror:    No*
G04 Mode:      Positive*
G04 Rotation:  0*
G04 FullContactRelief:  No*
G04 UndefLineWidth:     0.0000*
G04 ================== end FILE IDENTIFICATION RECORD ====================*
%FSLAX35Y35*MOMM*%
%IR0*IPPOS*OFA0.00000B0.00000*MIA0B0*SFA1.00000B1.00000*%
%ADD15R,2.5999X1.5999*%
%ADD20C,.6*%
%ADD18R,.3302X1.524*%
%ADD19R,1.524X.3302*%
%ADD14C,.8*%
%ADD16R,1.27X.635*%
%ADD10C,.635*%
%ADD24R,1.1176X.8128*%
%ADD22R,1.1801X.5799*%
%ADD13C,1.27*%
%ADD12C,1.524*%
%ADD17C,1.905*%
%ADD21R,1.905X1.905*%
%ADD25C,1.5199*%
%ADD23R,1.1176X1.8288*%
%ADD26R,1.5199X1.5199*%
%ADD11R,.9652X.8128*%
%ADD27C,.3*%
%ADD28C,.5*%
G75*
%LPD*%
G75*
G54D10*
X400000Y400000D03*
Y6600000D03*
X7600000Y400000D03*
Y6600000D03*
G54D11*
X825500Y762000D03*
Y904240D03*
Y1651000D03*
Y1793240D03*
X889000Y5588000D03*
Y5445760D03*
Y6096000D03*
Y6238240D03*
X1778000Y1651000D03*
Y1793240D03*
Y3619500D03*
Y3477260D03*
Y4381500D03*
Y4239260D03*
Y5461000D03*
Y5603240D03*
Y6096000D03*
Y6238240D03*
X2413000Y1651000D03*
Y1793240D03*
Y3492500D03*
Y3634740D03*
Y4953000D03*
Y5095240D03*
X2921000Y762000D03*
Y904240D03*
X3302000Y1651000D03*
Y1793240D03*
X4064000Y1841500D03*
Y1699260D03*
X4572000Y5016500D03*
Y4874260D03*
Y5461000D03*
Y5603240D03*
Y6096000D03*
Y6238240D03*
X4826000Y873760D03*
Y1016000D03*
X4953000Y1714500D03*
Y1856740D03*
X4762500Y3619500D03*
Y3761740D03*
X5334000Y3746500D03*
Y3888740D03*
X5461000Y4889500D03*
Y5031740D03*
Y5588000D03*
Y5445760D03*
Y6096000D03*
Y6238240D03*
X6096000Y2603500D03*
Y2745740D03*
X6223000Y5016500D03*
Y4874260D03*
Y5461000D03*
Y5603240D03*
Y6286500D03*
Y6144260D03*
G54D20*
X3300000Y4002500D03*
X3370400Y4122600D03*
X3048000Y6125350D03*
X3683000Y3937000D03*
X3746500Y4064000D03*
X3556000Y4572000D03*
X3746500Y4191000D03*
X3683000Y5080000D03*
X4635500Y2472990D03*
X4572000Y2349500D03*
X4381500Y4064000D03*
X4747260Y6238240D03*
X6032500Y2921000D03*
X6395000Y4400000D03*
X6477000Y4508500D03*
X7256000Y2523000D03*
X6667500Y4572000D03*
X6794500Y5207000D03*
X6858000Y5080000D03*
X7048500Y5715000D03*
X7874000D03*
X7683500Y5461000D03*
X7493000D03*
G54D21*
X4000500Y889000D03*
G54D12*
X825500Y2667000D03*
Y2413000D03*
X1778000D03*
Y2667000D03*
X2413000Y2413000D03*
Y2667000D03*
X3302000Y2413000D03*
Y2667000D03*
X4064000D03*
Y2413000D03*
G54D13*
X889000Y3947000D03*
Y4435000D03*
G54D22*
X4750500Y2340000D03*
Y2440000D03*
Y2540000D03*
Y2640000D03*
Y2740000D03*
X5282500D03*
Y2640000D03*
Y2540000D03*
Y2440000D03*
Y2340000D03*
G54D23*
X6388100Y3713480D03*
G54D14*
X889000Y5270500D03*
Y5969000D03*
X988760Y762000D03*
X1778000Y3175000D03*
Y4000500D03*
X1905000Y4381500D03*
X1778000Y5270500D03*
X2393490Y889000D03*
X2222500Y2032000D03*
X2603500Y3492500D03*
X2222500Y3556000D03*
X2730500Y3746500D03*
X2413000Y4762500D03*
X2603500Y5842000D03*
X2921000Y606360D03*
X2859100Y4125900D03*
X3873500Y1841500D03*
X4572000Y3619500D03*
X4127500Y3937000D03*
X4572000Y5270500D03*
X5387180Y1050310D03*
X5282500Y2972500D03*
X5334000Y3619500D03*
X4810760Y4874260D03*
X5958500Y1386500D03*
X5456500Y2540000D03*
X5461000Y5207000D03*
X5651500Y4889500D03*
X5461000Y5842000D03*
X6096000Y2447860D03*
X6558980Y3713480D03*
G54D24*
X6184900D03*
Y3906520D03*
X6388100D03*
G54D15*
X2148500Y889000D03*
X1788500D03*
X5598500D03*
X5958500D03*
G54D25*
X7256000Y1476000D03*
X7000000D03*
X7256000Y1732000D03*
X7000000D03*
X7256000Y1988000D03*
X7000000D03*
X7256000Y2244000D03*
X7000000D03*
X7256000Y2500000D03*
Y4476000D03*
X7000000D03*
X7256000Y4732000D03*
X7000000D03*
X7256000Y4988000D03*
X7000000D03*
X7256000Y5244000D03*
X7000000D03*
X7256000Y5500000D03*
G54D16*
X2863850Y5588000D03*
Y5461000D03*
Y5715000D03*
Y5969000D03*
Y5842000D03*
Y6096000D03*
Y6223000D03*
X3359150Y5461000D03*
Y5588000D03*
Y5715000D03*
Y5842000D03*
Y5969000D03*
Y6096000D03*
Y6223000D03*
G54D26*
X7000000Y2500000D03*
Y5500000D03*
G54D17*
X3492500Y889000D03*
X3746500D03*
G54D27*
G01X825500Y1793240D02*
X833120D01*
X890030Y1850150D01*
Y1857770D01*
X1143000Y2110740D01*
Y2476500D01*
X952500Y2667000D01*
X825500D01*
G01X889000Y5588000D02*
X1778000D01*
Y5603240D01*
G01Y6096000D02*
X1079500D01*
X1059180Y6075680D01*
X896620Y6238240D01*
X889000D01*
G01X1778000Y2413000D02*
Y1793240D01*
G01X3220000Y3500000D02*
X3180490D01*
X2855490Y3175000D01*
X2095500D01*
X1778000Y2857500D01*
Y2667000D01*
G01X2863850Y5969000D02*
X2222500D01*
X1856740Y5603240D01*
X1778000D01*
G01Y6096000D02*
X2863850D01*
G01X1778000Y6238240D02*
X2857500D01*
Y6223000D01*
X2863850D01*
G01X2413000Y2413000D02*
Y1793240D01*
G01X3300000Y3500000D02*
Y3400800D01*
X3302000Y3398800D01*
Y3365500D01*
X2921000Y2984500D01*
Y2794000D01*
X2794000Y2667000D01*
X2413000D01*
G01X3302000Y2413000D02*
Y1793240D01*
G01X3380000Y3500000D02*
Y3400800D01*
X3365500Y3386300D01*
Y3175000D01*
X3302000Y3111500D01*
Y2667000D01*
G01X3300000Y4400000D02*
Y4002500D01*
G01X3370400Y4122600D02*
Y4291200D01*
X3380000Y4300800D01*
Y4400000D01*
G01X3220000D02*
Y4553500D01*
X3302000Y4635500D01*
Y4642400D01*
X6840500D01*
Y4635500D01*
X7000000Y4476000D01*
G01X7256000D02*
X7139600Y4592400D01*
X6974980D01*
X6868380Y4699000D01*
X3175000D01*
X3050000Y4574000D01*
Y4230000D01*
G01X3359150Y5715000D02*
X3873500D01*
X4507470Y5081030D01*
Y5073410D01*
X4564380Y5016500D01*
X4572000D01*
G01X3359150Y5969000D02*
X4206240D01*
X4507470Y5667770D01*
Y5660150D01*
X4564380Y5603240D01*
X4572000D01*
G01X6223000Y6144260D02*
X6215380D01*
X6158470Y6201170D01*
Y6208790D01*
X6017260Y6350000D01*
X3205000D01*
X3175000Y6320000D01*
Y6032500D01*
X3111500Y5969000D01*
X2863850D01*
G01X3683000Y5080000D02*
Y5223650D01*
X3445650Y5461000D01*
G01D02*
X3359150D01*
G01X3445650D02*
X3462500D01*
X3492500Y5491000D01*
Y5558000D01*
X3462500Y5588000D01*
X3359150D01*
G01X4572000Y6096000D02*
X3359150D01*
G01X2863850Y6223000D02*
X2950350D01*
X3048000Y6125350D01*
G01X3359150Y6223000D02*
X4485500D01*
X4500740Y6238240D01*
X4572000D01*
G01X4064000Y2667000D02*
X3556000Y2159000D01*
Y1587500D01*
X4127500Y1016000D01*
X4826000D01*
G01X4750500Y2540000D02*
X4668060D01*
X4664670Y2543390D01*
X4606330D01*
X4602940Y2540000D01*
X4602000D01*
X4501600Y2439600D01*
Y2320330D01*
X4510410Y2311520D01*
Y2145670D01*
X4128530Y1763790D01*
Y1756170D01*
X4071620Y1699260D01*
X4064000D01*
G01X3700000Y3500000D02*
Y3440310D01*
X3732780Y3407530D01*
X3747230D01*
X3916260Y3238500D01*
X5334000D01*
X5651500Y2921000D01*
X6032500D01*
G01X3683000Y3937000D02*
X3790000Y3830000D01*
X3950000D01*
G01X3746500Y4191000D02*
X3873500Y4064000D01*
X3884900Y4075400D01*
X3890310Y4070000D01*
X3950000D01*
G01X7000000Y2244000D02*
X5878500Y3365500D01*
X4254500D01*
X4120000Y3500000D01*
X3780000D01*
G01X7256000Y2244000D02*
X7116400Y2383600D01*
Y2599100D01*
X6286500Y3429000D01*
X4381500D01*
X4140500Y3670000D01*
X3950000D01*
G01X3460000Y4400000D02*
Y4108300D01*
X3504300Y4064000D01*
X3746500D01*
G01X7874000Y5715000D02*
Y4318000D01*
X7706000Y4150000D01*
X3950000D01*
G01X7683500Y5461000D02*
Y4445000D01*
X7468500Y4230000D01*
X3950000D01*
G01X3780000Y4400000D02*
X6395000D01*
G01X6477000Y4508500D02*
X3748810D01*
X3700000Y4459690D01*
Y4400000D01*
G01X6667500Y4572000D02*
X6513070D01*
X6506170Y4578900D01*
X6447830D01*
X6440930Y4572000D01*
X3683000D01*
X3620000Y4509000D01*
Y4400000D01*
G01X3556000Y4572000D02*
Y4416000D01*
X3540000Y4400000D01*
G01X4750500Y2440000D02*
X4668490D01*
X4635500Y2472990D01*
G01X4572000Y2349500D02*
X4658990D01*
X4668490Y2340000D01*
X4750500D01*
G01X4381500Y4064000D02*
X5222380D01*
X5334000Y3952380D01*
Y3888740D01*
G01X4572000Y5016500D02*
X5374500D01*
X5389740Y5031740D01*
X5461000D01*
G01X4572000Y5603240D02*
X5374500D01*
X5389740Y5588000D01*
X5461000D01*
G01X4572000Y6096000D02*
X5318760D01*
X5396470Y6173710D01*
Y6181330D01*
X5453380Y6238240D01*
X5461000D01*
G01X4572000D02*
X4747260D01*
G01X4953000Y1856740D02*
Y2458030D01*
X4825780Y2585250D01*
Y2594730D01*
X4780510Y2640000D01*
X4750500D01*
G01X5282500D02*
X5187740D01*
X5083870Y2536130D01*
Y1774110D01*
X5024260Y1714500D01*
X4953000D01*
G01X5282500Y2440000D02*
X5497500D01*
X6461500Y1476000D01*
X7000000D01*
G01X7256000D02*
X6923000Y1143000D01*
X6604000D01*
X5407000Y2340000D01*
X5282500D01*
G01X6184900Y3906520D02*
X5423040D01*
X5405260Y3888740D01*
X5334000D01*
G01X5461000Y5031740D02*
X6065520D01*
X6158470Y4938790D01*
Y4931170D01*
X6215380Y4874260D01*
X6223000D01*
G01X5461000Y5588000D02*
X6136500D01*
X6151740Y5603240D01*
X6223000D01*
G01X7000000Y1988000D02*
X7139600Y2127600D01*
X7304220D01*
X7620000Y2443380D01*
Y2857500D01*
X6570980Y3906520D01*
X6388100D01*
G01X6223000Y5016500D02*
X6715500D01*
X7000000Y4732000D01*
G01X7256000D02*
X7116400Y4871600D01*
X6939400D01*
X6350000Y5461000D01*
X6223000D01*
G01Y6286500D02*
X6794500D01*
X7556500Y5524500D01*
Y5497070D01*
X7563400Y5490170D01*
Y5431830D01*
X7556500Y5424930D01*
Y5288500D01*
X7256000Y4988000D01*
G01Y2500000D02*
Y2523000D01*
G01X6794500Y5207000D02*
X6963000D01*
X7000000Y5244000D01*
G01X6858000Y5080000D02*
Y5104400D01*
X7116400D01*
X7256000Y5244000D01*
G01X7048500Y5715000D02*
X7104570Y5658930D01*
Y5604570D01*
X7000000Y5500000D01*
G01X7493000Y5461000D02*
X7411400D01*
X7372400Y5500000D01*
X7256000D01*
G54D18*
X3380000Y3500000D03*
X3300000D03*
X3220000D03*
Y4400000D03*
X3300000D03*
X3380000D03*
X3780000Y3500000D03*
X3700000D03*
X3620000D03*
X3540000D03*
X3460000D03*
Y4400000D03*
X3540000D03*
X3620000D03*
X3700000D03*
X3780000D03*
G54D28*
G01X825500Y762000D02*
X988760D01*
G01X825500Y1651000D02*
Y904240D01*
G01Y1651000D02*
X1778000D01*
G01X889000Y3947000D02*
X1216500Y3619500D01*
X1778000D01*
G01X889000Y4435000D02*
X1643240D01*
X1696740Y4381500D01*
X1778000D01*
G01X889000Y5445760D02*
Y5270500D01*
G01Y6096000D02*
Y5969000D01*
G01X2148500Y889000D02*
X2393490D01*
G01X1778000Y1651000D02*
Y1012500D01*
X1788500Y1002000D01*
Y889000D01*
G01X2349500Y1651000D02*
X1778000D01*
G01Y3477260D02*
Y3175000D01*
G01X3050000Y3670000D02*
X2921000D01*
Y3619500D01*
X2621260Y3319760D01*
X2159000D01*
X1859260Y3619500D01*
X1778000D01*
G01Y4239260D02*
Y4000500D01*
G01X2413000Y5095240D02*
X2405380D01*
X2095500Y4785360D01*
Y3870980D01*
X2331740Y3634740D01*
G01X1778000Y4381500D02*
X1905000D01*
G01X1778000Y5461000D02*
Y5270500D01*
G01X2413000Y1651000D02*
X3302000D01*
G01X2413000D02*
X2349500D01*
G01D02*
X2222500Y1778000D01*
Y2032000D01*
G01X2413000Y3492500D02*
X2603500D01*
G01X2413000Y3634740D02*
X2331740D01*
G01D02*
X2301240D01*
X2222500Y3556000D01*
G01X2921000Y3990000D02*
X2849520D01*
X2696420Y3836900D01*
X2693050D01*
X2640100Y3783950D01*
Y3780580D01*
X2494260Y3634740D01*
X2413000D01*
G01X2730500Y3746500D02*
X2937300D01*
X2940800Y3750000D01*
X3050000D01*
G01X2413000Y4953000D02*
Y4762500D01*
G01X3359150Y5842000D02*
X3238500D01*
X3175000Y5778500D01*
Y5285740D01*
X2984500Y5095240D01*
X2413000D01*
G01X2863850Y5842000D02*
X2603500D01*
G01X2921000Y762000D02*
Y606360D01*
G01X3492500Y889000D02*
X3017500D01*
X3002260Y904240D01*
X2921000D01*
G01X3492500Y889000D02*
Y1541760D01*
X3383260Y1651000D01*
X3302000D01*
G01X3050000Y4070000D02*
X3151030D01*
X3175000Y4046030D01*
Y3975310D01*
X3109690Y3910000D01*
X3050000D01*
G01X2859100Y4125900D02*
X2915000Y4070000D01*
X3050000D01*
G01Y3830000D02*
X3159200D01*
X3179200Y3810000D01*
X3302000D01*
X3362000Y3750000D01*
X3950000D01*
G01X3050000Y3990000D02*
X2921000D01*
G01D02*
Y3850000D01*
X2941000Y3830000D01*
X3050000D01*
G01X4000500Y889000D02*
X4729500D01*
X4744740Y873760D01*
X4826000D01*
G01X4064000Y1841500D02*
X4071620D01*
X4436200Y2206080D01*
Y2544700D01*
X4631500Y2740000D01*
X4750500D01*
G01X4064000Y1841500D02*
X3873500D01*
G01X3950000Y3990000D02*
X4074500D01*
X4127500Y3937000D01*
G01X3950000Y3750000D02*
X4669500D01*
X4681240Y3761740D01*
X4762500D01*
G01Y3619500D02*
X4572000D01*
G01Y5461000D02*
Y5270500D01*
G01Y4874260D02*
X4810760D01*
G01X5958500Y889000D02*
X5908500D01*
X5781500Y762000D01*
X5461000D01*
X5349240Y873760D01*
X4826000D01*
G01X5282500Y2540000D02*
X5456500D01*
G01X5282500Y2740000D02*
X6009000D01*
X6014740Y2745740D01*
X6096000D01*
G01X5282500Y2740000D02*
Y2972500D01*
G01X4762500Y3761740D02*
X5237500D01*
X5252740Y3746500D01*
X5334000D01*
G01D02*
X6063000D01*
X6096020Y3713480D01*
X6184900D01*
G01X5334000Y3619500D02*
Y3746500D01*
G01X5598500Y889000D02*
X5548490D01*
X5387180Y1050310D01*
G01X5958500Y889000D02*
Y1386500D01*
G01X5461000Y5445760D02*
Y5207000D01*
G01Y4889500D02*
X5651500D01*
G01X5461000Y6096000D02*
Y5842000D01*
G01X6096000Y2603500D02*
Y2447860D01*
G01X6388100Y3713480D02*
X6558980D01*
G54D19*
X3050000Y3670000D03*
Y3750000D03*
Y3830000D03*
Y3910000D03*
Y3990000D03*
Y4070000D03*
Y4150000D03*
Y4230000D03*
X3950000Y4070000D03*
Y3990000D03*
Y3910000D03*
Y3830000D03*
Y3750000D03*
Y3670000D03*
Y4230000D03*
Y4150000D03*
M02*
