G04 ================== begin FILE IDENTIFICATION RECORD ==================*
G04 Layout Name:  D:/ORCAD/B07_1201/allegro/B07_1201.brd*
G04 Film Name:    SilkScreen_TOP*
G04 File Format:  Gerber RS274X*
G04 File Origin:  Cadence Allegro 17.2-S073*
G04 Origin Date:  Fri Dec 01 11:16:41 2023*
G04 *
G04 Layer:  REF DES/SILKSCREEN_TOP*
G04 Layer:  PACKAGE GEOMETRY/SILKSCREEN_TOP*
G04 Layer:  BOARD GEOMETRY/SILKSCREEN_TOP*
G04 Layer:  BOARD GEOMETRY/DESIGN_OUTLINE*
G04 *
G04 Offset:    (0.0000 0.0000)*
G04 Mirror:    No*
G04 Mode:      Positive*
G04 Rotation:  0*
G04 FullContactRelief:  No*
G04 UndefLineWidth:     0.2000*
G04 ================== end FILE IDENTIFICATION RECORD ====================*
%FSLAX25Y25*MOMM*%
%IR0*IPPOS*OFA0.00000B0.00000*MIA0B0*SFA1.00000B1.00000*%
%ADD10C,.2032*%
%ADD11C,.2*%
G75*
%LPD*%
G75*
G54D10*
G01X1117870Y2038150D02*
X1175530Y1951530D01*
G01Y2328470D02*
X1117870Y2241850D01*
G01X1552470Y1951530D02*
X1610130Y2038150D01*
G01X1175530Y1951530D02*
X1177560Y1949500D01*
G01D02*
X1554500D01*
G01X1610130Y2241850D02*
X1552470Y2328470D01*
G01D02*
X1465850Y2386130D01*
G01D02*
X1364000Y2406450D01*
G01D02*
X1262150Y2386130D01*
G01D02*
X1175530Y2328470D01*
G01X5649470Y1208530D02*
X5707130Y1295150D01*
G01X5214870D02*
X5272530Y1208530D01*
G01D02*
X5274560Y1206500D01*
G01D02*
X5651500D01*
G01X5707130Y1498850D02*
X5649470Y1585470D01*
G01D02*
X5562850Y1643130D01*
G01D02*
X5461000Y1663450D01*
G01D02*
X5359150Y1643130D01*
G01D02*
X5272530Y1585470D01*
G01D02*
X5214870Y1498850D01*
G01X5707130Y2641850D02*
X5649470Y2728470D01*
G01D02*
X5562850Y2786130D01*
G01D02*
X5461000Y2806450D01*
G01D02*
X5359150Y2786130D01*
G01D02*
X5272530Y2728470D01*
G01D02*
X5214870Y2641850D01*
G01X5649470Y2351530D02*
X5707130Y2438150D01*
G01X5214870D02*
X5272530Y2351530D01*
G01D02*
X5274560Y2349500D01*
G01D02*
X5651500D01*
G01X5707130Y4419850D02*
X5649470Y4506470D01*
G01X5272530D02*
X5214870Y4419850D01*
G01X5649470Y4129530D02*
X5707130Y4216150D01*
G01X5214870D02*
X5272530Y4129530D01*
G01D02*
X5274560Y4127500D01*
G01D02*
X5651500D01*
G01X5649470Y4506470D02*
X5562850Y4564130D01*
G01D02*
X5461000Y4584450D01*
G01D02*
X5359150Y4564130D01*
G01D02*
X5272530Y4506470D01*
G01X6860030Y1458470D02*
X6802370Y1371850D01*
G01X7236970Y1081530D02*
X7294630Y1168150D01*
G01X6802370D02*
X6860030Y1081530D01*
G01D02*
X6862060Y1079500D01*
G01D02*
X7239000D01*
G01X7294630Y1371850D02*
X7236970Y1458470D01*
G01D02*
X7150350Y1516130D01*
G01D02*
X7048500Y1536450D01*
G01D02*
X6946650Y1516130D01*
G01D02*
X6860030Y1458470D01*
G01X8755130Y1371850D02*
X8697470Y1458470D01*
G01X8320530D02*
X8262870Y1371850D01*
G01X8697470Y1081530D02*
X8755130Y1168150D01*
G01X8262870D02*
X8320530Y1081530D01*
G01D02*
X8322560Y1079500D01*
G01D02*
X8699500D01*
G01X8697470Y1458470D02*
X8610850Y1516130D01*
G01D02*
X8509000Y1536450D01*
G01D02*
X8407150Y1516130D01*
G01D02*
X8320530Y1458470D01*
G01X10152130Y1308350D02*
X10094470Y1394970D01*
G01D02*
X10007850Y1452630D01*
G01X9804150D02*
X9717530Y1394970D01*
G01D02*
X9659870Y1308350D01*
G01X10094470Y1018030D02*
X10152130Y1104650D01*
G01X9659870D02*
X9717530Y1018030D01*
G01D02*
X9719560Y1016000D01*
G01D02*
X10096500D01*
G01X10007850Y1452630D02*
X9906000Y1472950D01*
G01D02*
X9804150Y1452630D01*
G01X11114530Y1458470D02*
X11056870Y1371850D01*
G01Y1168150D02*
X11114530Y1081530D01*
G01X11549130Y1371850D02*
X11491470Y1458470D01*
G01Y1081530D02*
X11549130Y1168150D01*
G01X11114530Y1081530D02*
X11116560Y1079500D01*
G01D02*
X11493500D01*
G01X11491470Y1458470D02*
X11404850Y1516130D01*
G01D02*
X11303000Y1536450D01*
G01D02*
X11201150Y1516130D01*
G01D02*
X11114530Y1458470D01*
G54D11*
G01X12000000Y0D02*
Y5000000D01*
X0D01*
Y0D01*
X12000000D01*
G01X635000Y2921000D02*
X381000D01*
Y3429000D01*
X635000D01*
Y2921000D01*
G01X388200Y3778500D02*
X398150Y3762500D01*
X410080Y3751830D01*
X424010Y3746500D01*
X439930Y3751830D01*
X451870Y3762500D01*
X463810Y3778500D01*
X467780Y3799840D01*
Y3906520D01*
G01X588010Y3746500D02*
Y3906520D01*
X564130Y3874520D01*
G01Y3746500D02*
X611880D01*
G01X632400Y1487000D02*
X1343600D01*
Y1233000D01*
X632400D01*
Y1487000D01*
G01X625690Y1587500D02*
Y1747520D01*
X675430D01*
X691350Y1739520D01*
X701300Y1728850D01*
X705270Y1707510D01*
X701300Y1686180D01*
X689360Y1672850D01*
X675430Y1664840D01*
X625690D01*
G01X675430D02*
X705270Y1587500D01*
G01X825500D02*
Y1747520D01*
X801620Y1715520D01*
G01Y1587500D02*
X849370D01*
G01X985520D02*
Y1747520D01*
X961640Y1715520D01*
G01Y1587500D02*
X1009390D01*
G01X1075690Y2540000D02*
X1059770Y2542670D01*
X1045850Y2553330D01*
X1033910Y2569340D01*
X1025950Y2588010D01*
X1021970Y2609340D01*
Y2630680D01*
X1025950Y2652010D01*
X1033910Y2670680D01*
X1045850Y2686680D01*
X1059770Y2697350D01*
X1075690Y2700020D01*
X1091610Y2697350D01*
X1105530Y2686680D01*
X1117470Y2670680D01*
X1125430Y2652010D01*
X1129410Y2630680D01*
Y2609340D01*
X1125430Y2588010D01*
X1117470Y2569340D01*
X1105530Y2553330D01*
X1091610Y2542670D01*
X1075690Y2540000D01*
G01X1091610Y2582670D02*
X1115480Y2540000D01*
G01X1259590D02*
Y2700020D01*
X1185970Y2585340D01*
X1285450D01*
G01X1333500Y4381500D02*
X850900D01*
Y4635500D01*
X1333500D01*
Y4381500D01*
G01X958260Y4681220D02*
Y4841240D01*
X998050D01*
X1013970Y4833240D01*
X1025910Y4822570D01*
X1035860Y4806570D01*
X1043810Y4787900D01*
X1045800Y4761230D01*
X1043810Y4734560D01*
X1035860Y4715890D01*
X1025910Y4699890D01*
X1013970Y4689220D01*
X998050Y4681220D01*
X958260D01*
G01X1124250Y4814570D02*
X1136180Y4830570D01*
X1150110Y4838570D01*
X1166030Y4841240D01*
X1185930Y4835910D01*
X1199850Y4822570D01*
X1203830Y4806570D01*
X1201840Y4790560D01*
X1193880Y4777230D01*
X1154090Y4750560D01*
X1136180Y4731890D01*
X1124250Y4705220D01*
X1120270Y4681220D01*
X1203830D01*
G01X1857420Y508000D02*
Y668020D01*
X1897210D01*
X1913130Y660020D01*
X1925070Y649350D01*
X1935020Y633350D01*
X1942970Y614680D01*
X1944960Y588010D01*
X1942970Y561340D01*
X1935020Y542670D01*
X1925070Y526670D01*
X1913130Y516000D01*
X1897210Y508000D01*
X1857420D01*
G01X2061210D02*
Y668020D01*
X2037330Y636020D01*
G01Y508000D02*
X2085080D01*
G01X1848700Y1206500D02*
Y1366520D01*
X1898440D01*
X1914360Y1358520D01*
X1924310Y1347850D01*
X1928280Y1326510D01*
X1924310Y1305180D01*
X1912370Y1291850D01*
X1898440Y1283840D01*
X1848700D01*
G01X1898440D02*
X1928280Y1206500D01*
G01X2010710Y1273170D02*
X2024630Y1291850D01*
X2036570Y1302510D01*
X2052490Y1307840D01*
X2066420Y1302510D01*
X2076360Y1291850D01*
X2084330Y1275840D01*
X2086310Y1257170D01*
X2084330Y1241170D01*
X2076360Y1225170D01*
X2064430Y1211830D01*
X2050500Y1206500D01*
X2034580Y1211830D01*
X2020660Y1227830D01*
X2012690Y1251840D01*
X2010710Y1278510D01*
X2014680Y1313180D01*
X2020660Y1331850D01*
X2030600Y1350520D01*
X2044530Y1363850D01*
X2058460Y1366520D01*
X2072390Y1361190D01*
X2082340Y1347850D01*
G01X1848700Y1841500D02*
Y2001520D01*
X1898440D01*
X1914360Y1993520D01*
X1924310Y1982850D01*
X1928280Y1961510D01*
X1924310Y1940180D01*
X1912370Y1926850D01*
X1898440Y1918840D01*
X1848700D01*
G01X1898440D02*
X1928280Y1841500D01*
G01X2004740Y1865500D02*
X2016670Y1852170D01*
X2030600Y1844170D01*
X2048510Y1841500D01*
X2066420Y1846830D01*
X2080340Y1857500D01*
X2090290Y1876170D01*
X2092280Y1897500D01*
X2088300Y1918840D01*
X2078350Y1932180D01*
X2064430Y1942840D01*
X2050500Y1945510D01*
X2036570Y1942840D01*
X2018670Y1932180D01*
X2024630Y2001520D01*
X2078350D01*
G01X1848700Y2540000D02*
Y2700020D01*
X1898440D01*
X1914360Y2692020D01*
X1924310Y2681350D01*
X1928280Y2660010D01*
X1924310Y2638680D01*
X1912370Y2625350D01*
X1898440Y2617340D01*
X1848700D01*
G01X1898440D02*
X1928280Y2540000D01*
G01X2072390D02*
Y2700020D01*
X1998770Y2585340D01*
X2098250D01*
G01X1848700Y3238500D02*
Y3398520D01*
X1898440D01*
X1914360Y3390520D01*
X1924310Y3379850D01*
X1928280Y3358510D01*
X1924310Y3337180D01*
X1912370Y3323850D01*
X1898440Y3315840D01*
X1848700D01*
G01X1898440D02*
X1928280Y3238500D01*
G01X2004740Y3270500D02*
X2016670Y3251830D01*
X2032590Y3241170D01*
X2050500Y3238500D01*
X2066420Y3241170D01*
X2082340Y3254500D01*
X2092280Y3270500D01*
X2094270Y3286510D01*
X2090290Y3305170D01*
X2076360Y3318510D01*
X2062440Y3323850D01*
X2044530D01*
G01X2062440D02*
X2074380Y3331840D01*
X2084330Y3345180D01*
X2088300Y3361180D01*
X2084330Y3377180D01*
X2074380Y3390520D01*
X2056470Y3398520D01*
X2038560Y3395850D01*
X2020660Y3385180D01*
G01X1244600Y4381500D02*
Y4635500D01*
G01X1257300Y4381500D02*
Y4635500D01*
G01X1848700Y4254500D02*
Y4414520D01*
X1898440D01*
X1914360Y4406520D01*
X1924310Y4395850D01*
X1928280Y4374510D01*
X1924310Y4353180D01*
X1912370Y4339850D01*
X1898440Y4331840D01*
X1848700D01*
G01X1898440D02*
X1928280Y4254500D01*
G01X2048510D02*
Y4414520D01*
X2024630Y4382520D01*
G01Y4254500D02*
X2072380D01*
G01X1848700Y3746500D02*
Y3906520D01*
X1898440D01*
X1914360Y3898520D01*
X1924310Y3887850D01*
X1928280Y3866510D01*
X1924310Y3845180D01*
X1912370Y3831850D01*
X1898440Y3823840D01*
X1848700D01*
G01X1898440D02*
X1928280Y3746500D01*
G01X2010710Y3879850D02*
X2022640Y3895850D01*
X2036570Y3903850D01*
X2052490Y3906520D01*
X2072390Y3901190D01*
X2086310Y3887850D01*
X2090290Y3871850D01*
X2088300Y3855840D01*
X2080340Y3842510D01*
X2040550Y3815840D01*
X2022640Y3797170D01*
X2010710Y3770500D01*
X2006730Y3746500D01*
X2090290D01*
G01X2540000Y698500D02*
X3022600D01*
Y444500D01*
X2540000D01*
Y698500D01*
G01X2628900D02*
Y444500D01*
G01X2616200Y698500D02*
Y444500D01*
G01X2432400Y1347000D02*
X3143600D01*
Y1093000D01*
X2432400D01*
Y1347000D01*
G01X2462400Y1987000D02*
X3173600D01*
Y1733000D01*
X2462400D01*
Y1987000D01*
G01X2438400Y2667000D02*
X3149600D01*
Y2413000D01*
X2438400D01*
Y2667000D01*
G01X2462400Y3367000D02*
X3173600D01*
Y3113000D01*
X2462400D01*
Y3367000D01*
G01Y4437000D02*
X3173600D01*
Y4183000D01*
X2462400D01*
Y4437000D01*
G01Y3927000D02*
X3173600D01*
Y3673000D01*
X2462400D01*
Y3927000D01*
G01X4027760Y3067680D02*
X4015820Y3075690D01*
X4001900Y3081020D01*
X3985980D01*
X3968070Y3073020D01*
X3954150Y3059680D01*
X3944200Y3043680D01*
X3936240Y3017010D01*
X3934250Y2993010D01*
X3938230Y2969010D01*
X3944200Y2953000D01*
X3956140Y2937000D01*
X3970060Y2926330D01*
X3983990Y2921000D01*
X3997920D01*
X4011840Y2926330D01*
X4023780Y2934330D01*
X4033730Y2945000D01*
G01X4106210Y3054350D02*
X4118140Y3070350D01*
X4132070Y3078350D01*
X4147990Y3081020D01*
X4167890Y3075690D01*
X4181810Y3062350D01*
X4185790Y3046350D01*
X4183800Y3030340D01*
X4175840Y3017010D01*
X4136050Y2990340D01*
X4118140Y2971670D01*
X4106210Y2945000D01*
X4102230Y2921000D01*
X4185790D01*
G01X4445000Y2540000D02*
G03I-254000J0D01*
G01X4027760Y4591680D02*
X4015820Y4599690D01*
X4001900Y4605020D01*
X3985980D01*
X3968070Y4597020D01*
X3954150Y4583680D01*
X3944200Y4567680D01*
X3936240Y4541010D01*
X3934250Y4517010D01*
X3938230Y4493010D01*
X3944200Y4477000D01*
X3956140Y4461000D01*
X3970060Y4450330D01*
X3983990Y4445000D01*
X3997920D01*
X4011840Y4450330D01*
X4023780Y4458330D01*
X4033730Y4469000D01*
G01X4144010Y4445000D02*
Y4605020D01*
X4120130Y4573020D01*
G01Y4445000D02*
X4167880D01*
G01X4445000Y4064000D02*
G03I-254000J0D01*
G01X5158740Y980440D02*
X5142820Y983110D01*
X5128900Y993770D01*
X5116960Y1009780D01*
X5109000Y1028450D01*
X5105020Y1049780D01*
Y1071120D01*
X5109000Y1092450D01*
X5116960Y1111120D01*
X5128900Y1127120D01*
X5142820Y1137790D01*
X5158740Y1140460D01*
X5174660Y1137790D01*
X5188580Y1127120D01*
X5200520Y1111120D01*
X5208480Y1092450D01*
X5212460Y1071120D01*
Y1049780D01*
X5208480Y1028450D01*
X5200520Y1009780D01*
X5188580Y993770D01*
X5174660Y983110D01*
X5158740Y980440D01*
G01X5174660Y1023110D02*
X5198530Y980440D01*
G01X5318760D02*
Y1140460D01*
X5294880Y1108460D01*
G01Y980440D02*
X5342630D01*
G01X5203190Y2921000D02*
X5187270Y2923670D01*
X5173350Y2934330D01*
X5161410Y2950340D01*
X5153450Y2969010D01*
X5149470Y2990340D01*
Y3011680D01*
X5153450Y3033010D01*
X5161410Y3051680D01*
X5173350Y3067680D01*
X5187270Y3078350D01*
X5203190Y3081020D01*
X5219110Y3078350D01*
X5233030Y3067680D01*
X5244970Y3051680D01*
X5252930Y3033010D01*
X5256910Y3011680D01*
Y2990340D01*
X5252930Y2969010D01*
X5244970Y2950340D01*
X5233030Y2934330D01*
X5219110Y2923670D01*
X5203190Y2921000D01*
G01X5219110Y2963670D02*
X5242980Y2921000D01*
G01X5319440Y2953000D02*
X5331370Y2934330D01*
X5347290Y2923670D01*
X5365200Y2921000D01*
X5381120Y2923670D01*
X5397040Y2937000D01*
X5406980Y2953000D01*
X5408970Y2969010D01*
X5404990Y2987670D01*
X5391060Y3001010D01*
X5377140Y3006350D01*
X5359230D01*
G01X5377140D02*
X5389080Y3014340D01*
X5399030Y3027680D01*
X5403000Y3043680D01*
X5399030Y3059680D01*
X5389080Y3073020D01*
X5371170Y3081020D01*
X5353260Y3078350D01*
X5335360Y3067680D01*
G01X5203190Y4699000D02*
X5187270Y4701670D01*
X5173350Y4712330D01*
X5161410Y4728340D01*
X5153450Y4747010D01*
X5149470Y4768340D01*
Y4789680D01*
X5153450Y4811010D01*
X5161410Y4829680D01*
X5173350Y4845680D01*
X5187270Y4856350D01*
X5203190Y4859020D01*
X5219110Y4856350D01*
X5233030Y4845680D01*
X5244970Y4829680D01*
X5252930Y4811010D01*
X5256910Y4789680D01*
Y4768340D01*
X5252930Y4747010D01*
X5244970Y4728340D01*
X5233030Y4712330D01*
X5219110Y4701670D01*
X5203190Y4699000D01*
G01X5219110Y4741670D02*
X5242980Y4699000D01*
G01X5325410Y4832350D02*
X5337340Y4848350D01*
X5351270Y4856350D01*
X5367190Y4859020D01*
X5387090Y4853690D01*
X5401010Y4840350D01*
X5404990Y4824350D01*
X5403000Y4808340D01*
X5395040Y4795010D01*
X5355250Y4768340D01*
X5337340Y4749670D01*
X5325410Y4723000D01*
X5321430Y4699000D01*
X5404990D01*
G01X6353220Y889000D02*
Y1049020D01*
X6393010D01*
X6408930Y1041020D01*
X6420870Y1030350D01*
X6430820Y1014350D01*
X6438770Y995680D01*
X6440760Y969010D01*
X6438770Y942340D01*
X6430820Y923670D01*
X6420870Y907670D01*
X6408930Y897000D01*
X6393010Y889000D01*
X6353220D01*
G01X6513240Y921000D02*
X6525170Y902330D01*
X6541090Y891670D01*
X6559000Y889000D01*
X6574920Y891670D01*
X6590840Y905000D01*
X6600780Y921000D01*
X6602770Y937010D01*
X6598790Y955670D01*
X6584860Y969010D01*
X6570940Y974350D01*
X6553030D01*
G01X6570940D02*
X6582880Y982340D01*
X6592830Y995680D01*
X6596800Y1011680D01*
X6592830Y1027680D01*
X6582880Y1041020D01*
X6564970Y1049020D01*
X6547060Y1046350D01*
X6529160Y1035680D01*
G01X6536690Y1587500D02*
X6520770Y1590170D01*
X6506850Y1600830D01*
X6494910Y1616840D01*
X6486950Y1635510D01*
X6482970Y1656840D01*
Y1678180D01*
X6486950Y1699510D01*
X6494910Y1718180D01*
X6506850Y1734180D01*
X6520770Y1744850D01*
X6536690Y1747520D01*
X6552610Y1744850D01*
X6566530Y1734180D01*
X6578470Y1718180D01*
X6586430Y1699510D01*
X6590410Y1678180D01*
Y1656840D01*
X6586430Y1635510D01*
X6578470Y1616840D01*
X6566530Y1600830D01*
X6552610Y1590170D01*
X6536690Y1587500D01*
G01X6552610Y1630170D02*
X6576480Y1587500D01*
G01X6652940Y1611500D02*
X6664870Y1598170D01*
X6678800Y1590170D01*
X6696710Y1587500D01*
X6714620Y1592830D01*
X6728540Y1603500D01*
X6738490Y1622170D01*
X6740480Y1643500D01*
X6736500Y1664840D01*
X6726550Y1678180D01*
X6712630Y1688840D01*
X6698700Y1691510D01*
X6684770Y1688840D01*
X6666870Y1678180D01*
X6672830Y1747520D01*
X6726550D01*
G01X6484200Y4699000D02*
Y4859020D01*
X6533940D01*
X6549860Y4851020D01*
X6559810Y4840350D01*
X6563780Y4819010D01*
X6559810Y4797680D01*
X6547870Y4784350D01*
X6533940Y4776340D01*
X6484200D01*
G01X6533940D02*
X6563780Y4699000D01*
G01X6680030D02*
X6684010Y4733670D01*
X6689980Y4763000D01*
X6697940Y4789680D01*
X6707890Y4819010D01*
X6723800Y4859020D01*
X6644220D01*
G01X7048500Y508000D02*
G03I-254000J0D01*
G01X7340600Y1841500D02*
X6629400D01*
Y2095500D01*
X7340600D01*
Y1841500D01*
G01X6531190Y2222500D02*
Y2382520D01*
X6580930D01*
X6596850Y2374520D01*
X6606800Y2363850D01*
X6610770Y2342510D01*
X6606800Y2321180D01*
X6594860Y2307850D01*
X6580930Y2299840D01*
X6531190D01*
G01X6580930D02*
X6610770Y2222500D01*
G01X6731000D02*
Y2382520D01*
X6707120Y2350520D01*
G01Y2222500D02*
X6754870D01*
G01X6853220Y2355850D02*
X6865150Y2371850D01*
X6879080Y2379850D01*
X6895000Y2382520D01*
X6914900Y2377190D01*
X6928820Y2363850D01*
X6932800Y2347850D01*
X6930810Y2331840D01*
X6922850Y2318510D01*
X6883060Y2291840D01*
X6865150Y2273170D01*
X6853220Y2246500D01*
X6849240Y2222500D01*
X6932800D01*
G01X7404100Y4381500D02*
X6692900D01*
Y4635500D01*
X7404100D01*
Y4381500D01*
G01X8509000Y508000D02*
G03I-254000J0D01*
G01X7750220Y825500D02*
Y985520D01*
X7790010D01*
X7805930Y977520D01*
X7817870Y966850D01*
X7827820Y950850D01*
X7835770Y932180D01*
X7837760Y905510D01*
X7835770Y878840D01*
X7827820Y860170D01*
X7817870Y844170D01*
X7805930Y833500D01*
X7790010Y825500D01*
X7750220D01*
G01X7977890D02*
Y985520D01*
X7904270Y870840D01*
X8003750D01*
G01X7991690Y2159000D02*
Y2319020D01*
X8041430D01*
X8057350Y2311020D01*
X8067300Y2300350D01*
X8071270Y2279010D01*
X8067300Y2257680D01*
X8055360Y2244350D01*
X8041430Y2236340D01*
X7991690D01*
G01X8041430D02*
X8071270Y2159000D01*
G01X8191500D02*
Y2319020D01*
X8167620Y2287020D01*
G01Y2159000D02*
X8215370D01*
G01X8307750Y2191000D02*
X8319680Y2172330D01*
X8335600Y2161670D01*
X8353510Y2159000D01*
X8369430Y2161670D01*
X8385350Y2175000D01*
X8395290Y2191000D01*
X8397280Y2207010D01*
X8393300Y2225670D01*
X8379370Y2239010D01*
X8365450Y2244350D01*
X8347540D01*
G01X8365450D02*
X8377390Y2252340D01*
X8387340Y2265680D01*
X8391310Y2281680D01*
X8387340Y2297680D01*
X8377390Y2311020D01*
X8359480Y2319020D01*
X8341570Y2316350D01*
X8323670Y2305680D01*
G01X8251190Y1587500D02*
X8235270Y1590170D01*
X8221350Y1600830D01*
X8209410Y1616840D01*
X8201450Y1635510D01*
X8197470Y1656840D01*
Y1678180D01*
X8201450Y1699510D01*
X8209410Y1718180D01*
X8221350Y1734180D01*
X8235270Y1744850D01*
X8251190Y1747520D01*
X8267110Y1744850D01*
X8281030Y1734180D01*
X8292970Y1718180D01*
X8300930Y1699510D01*
X8304910Y1678180D01*
Y1656840D01*
X8300930Y1635510D01*
X8292970Y1616840D01*
X8281030Y1600830D01*
X8267110Y1590170D01*
X8251190Y1587500D01*
G01X8267110Y1630170D02*
X8290980Y1587500D01*
G01X8373410Y1654170D02*
X8387330Y1672850D01*
X8399270Y1683510D01*
X8415190Y1688840D01*
X8429120Y1683510D01*
X8439060Y1672850D01*
X8447030Y1656840D01*
X8449010Y1638170D01*
X8447030Y1622170D01*
X8439060Y1606170D01*
X8427130Y1592830D01*
X8413200Y1587500D01*
X8397280Y1592830D01*
X8383360Y1608830D01*
X8375390Y1632840D01*
X8373410Y1659510D01*
X8377380Y1694180D01*
X8383360Y1712850D01*
X8393300Y1731520D01*
X8407230Y1744850D01*
X8421160Y1747520D01*
X8435090Y1742190D01*
X8445040Y1728850D01*
G01X8928100Y1841500D02*
X8216900D01*
Y2095500D01*
X8928100D01*
Y1841500D01*
G01X8191500Y2959100D02*
X10096500D01*
Y3517900D01*
X8191500D01*
Y3365500D01*
X8255000Y3302000D01*
Y3175000D01*
X8191500Y3111500D01*
Y2959100D01*
G01X8801100Y4381500D02*
X8089900D01*
Y4635500D01*
X8801100D01*
Y4381500D01*
G01X8194720Y4033520D02*
Y3918840D01*
X8202670Y3894830D01*
X8218590Y3878830D01*
X8238490Y3873500D01*
X8258390Y3878830D01*
X8274310Y3894830D01*
X8282260Y3918840D01*
Y4033520D01*
G01X8398510Y3873500D02*
Y4033520D01*
X8374630Y4001520D01*
G01Y3873500D02*
X8422380D01*
G01X8135200Y4762500D02*
Y4922520D01*
X8184940D01*
X8200860Y4914520D01*
X8210810Y4903850D01*
X8214780Y4882510D01*
X8210810Y4861180D01*
X8198870Y4847850D01*
X8184940Y4839840D01*
X8135200D01*
G01X8184940D02*
X8214780Y4762500D01*
G01X8335010D02*
X8348940Y4765170D01*
X8364850Y4773170D01*
X8374800Y4786500D01*
X8378780Y4805170D01*
X8374800Y4823840D01*
X8362860Y4839840D01*
X8344960Y4847850D01*
X8325060D01*
X8313120Y4853180D01*
X8303170Y4866510D01*
X8299190Y4885180D01*
X8305170Y4903850D01*
X8319090Y4917190D01*
X8335010Y4922520D01*
X8350930Y4917190D01*
X8364850Y4903850D01*
X8370830Y4885180D01*
X8366840Y4866510D01*
X8356900Y4853180D01*
X8344960Y4847850D01*
X8325060D01*
X8307160Y4839840D01*
X8295220Y4823840D01*
X8291240Y4805170D01*
X8295220Y4786500D01*
X8305170Y4773170D01*
X8321080Y4765170D01*
X8335010Y4762500D01*
G01X9906000Y508000D02*
G03I-254000J0D01*
G01X9147220Y825500D02*
Y985520D01*
X9187010D01*
X9202930Y977520D01*
X9214870Y966850D01*
X9224820Y950850D01*
X9232770Y932180D01*
X9234760Y905510D01*
X9232770Y878840D01*
X9224820Y860170D01*
X9214870Y844170D01*
X9202930Y833500D01*
X9187010Y825500D01*
X9147220D01*
G01X9307240Y849500D02*
X9319170Y836170D01*
X9333100Y828170D01*
X9351010Y825500D01*
X9368920Y830830D01*
X9382840Y841500D01*
X9392790Y860170D01*
X9394780Y881500D01*
X9390800Y902840D01*
X9380850Y916180D01*
X9366930Y926840D01*
X9353000Y929510D01*
X9339070Y926840D01*
X9321170Y916180D01*
X9327130Y985520D01*
X9380850D01*
G01X9325190Y2159000D02*
Y2319020D01*
X9374930D01*
X9390850Y2311020D01*
X9400800Y2300350D01*
X9404770Y2279010D01*
X9400800Y2257680D01*
X9388860Y2244350D01*
X9374930Y2236340D01*
X9325190D01*
G01X9374930D02*
X9404770Y2159000D01*
G01X9525000D02*
Y2319020D01*
X9501120Y2287020D01*
G01Y2159000D02*
X9548870D01*
G01X9708900D02*
Y2319020D01*
X9635280Y2204340D01*
X9734760D01*
G01X10198100Y4381500D02*
X9486900D01*
Y4635500D01*
X10198100D01*
Y4381500D01*
G01X9214700Y4699000D02*
Y4859020D01*
X9264440D01*
X9280360Y4851020D01*
X9290310Y4840350D01*
X9294280Y4819010D01*
X9290310Y4797680D01*
X9278370Y4784350D01*
X9264440Y4776340D01*
X9214700D01*
G01X9264440D02*
X9294280Y4699000D01*
G01X9380680Y4717670D02*
X9394610Y4704330D01*
X9410530Y4699000D01*
X9426450Y4704330D01*
X9440380Y4720330D01*
X9450330Y4744340D01*
X9454300Y4768340D01*
Y4797680D01*
X9450330Y4821680D01*
X9440380Y4843020D01*
X9428440Y4853690D01*
X9414510Y4859020D01*
X9398590Y4853690D01*
X9386660Y4843020D01*
X9378690Y4827020D01*
X9374720Y4805680D01*
X9378690Y4787010D01*
X9388640Y4768340D01*
X9400580Y4757670D01*
X9414510Y4755000D01*
X9430430Y4760340D01*
X9442360Y4773670D01*
X9454300Y4797680D01*
G01X9648190Y1524000D02*
X9632270Y1526670D01*
X9618350Y1537330D01*
X9606410Y1553340D01*
X9598450Y1572010D01*
X9594470Y1593340D01*
Y1614680D01*
X9598450Y1636010D01*
X9606410Y1654680D01*
X9618350Y1670680D01*
X9632270Y1681350D01*
X9648190Y1684020D01*
X9664110Y1681350D01*
X9678030Y1670680D01*
X9689970Y1654680D01*
X9697930Y1636010D01*
X9701910Y1614680D01*
Y1593340D01*
X9697930Y1572010D01*
X9689970Y1553340D01*
X9678030Y1537330D01*
X9664110Y1526670D01*
X9648190Y1524000D01*
G01X9664110Y1566670D02*
X9687980Y1524000D01*
G01X9804230D02*
X9808210Y1558670D01*
X9814180Y1588000D01*
X9822140Y1614680D01*
X9832090Y1644010D01*
X9848000Y1684020D01*
X9768420D01*
G01X10261600Y1841500D02*
X9550400D01*
Y2095500D01*
X10261600D01*
Y1841500D01*
G01X11303000Y508000D02*
G03I-254000J0D01*
G01X10607720Y825500D02*
Y985520D01*
X10647510D01*
X10663430Y977520D01*
X10675370Y966850D01*
X10685320Y950850D01*
X10693270Y932180D01*
X10695260Y905510D01*
X10693270Y878840D01*
X10685320Y860170D01*
X10675370Y844170D01*
X10663430Y833500D01*
X10647510Y825500D01*
X10607720D01*
G01X10773710Y892170D02*
X10787630Y910850D01*
X10799570Y921510D01*
X10815490Y926840D01*
X10829420Y921510D01*
X10839360Y910850D01*
X10847330Y894840D01*
X10849310Y876170D01*
X10847330Y860170D01*
X10839360Y844170D01*
X10827430Y830830D01*
X10813500Y825500D01*
X10797580Y830830D01*
X10783660Y846830D01*
X10775690Y870840D01*
X10773710Y897510D01*
X10777680Y932180D01*
X10783660Y950850D01*
X10793600Y969520D01*
X10807530Y982850D01*
X10821460Y985520D01*
X10835390Y980190D01*
X10845340Y966850D01*
G01X10981690Y1587500D02*
X10965770Y1590170D01*
X10951850Y1600830D01*
X10939910Y1616840D01*
X10931950Y1635510D01*
X10927970Y1656840D01*
Y1678180D01*
X10931950Y1699510D01*
X10939910Y1718180D01*
X10951850Y1734180D01*
X10965770Y1744850D01*
X10981690Y1747520D01*
X10997610Y1744850D01*
X11011530Y1734180D01*
X11023470Y1718180D01*
X11031430Y1699510D01*
X11035410Y1678180D01*
Y1656840D01*
X11031430Y1635510D01*
X11023470Y1616840D01*
X11011530Y1600830D01*
X10997610Y1590170D01*
X10981690Y1587500D01*
G01X10997610Y1630170D02*
X11021480Y1587500D01*
G01X11141710D02*
X11155640Y1590170D01*
X11171550Y1598170D01*
X11181500Y1611500D01*
X11185480Y1630170D01*
X11181500Y1648840D01*
X11169560Y1664840D01*
X11151660Y1672850D01*
X11131760D01*
X11119820Y1678180D01*
X11109870Y1691510D01*
X11105890Y1710180D01*
X11111870Y1728850D01*
X11125790Y1742190D01*
X11141710Y1747520D01*
X11157630Y1742190D01*
X11171550Y1728850D01*
X11177530Y1710180D01*
X11173540Y1691510D01*
X11163600Y1678180D01*
X11151660Y1672850D01*
X11131760D01*
X11113860Y1664840D01*
X11101920Y1648840D01*
X11097940Y1630170D01*
X11101920Y1611500D01*
X11111870Y1598170D01*
X11127780Y1590170D01*
X11141710Y1587500D01*
G01X11658600Y1841500D02*
X10947400D01*
Y2095500D01*
X11658600D01*
Y1841500D01*
G01X10785690Y2222500D02*
Y2382520D01*
X10835430D01*
X10851350Y2374520D01*
X10861300Y2363850D01*
X10865270Y2342510D01*
X10861300Y2321180D01*
X10849360Y2307850D01*
X10835430Y2299840D01*
X10785690D01*
G01X10835430D02*
X10865270Y2222500D01*
G01X10985500D02*
Y2382520D01*
X10961620Y2350520D01*
G01Y2222500D02*
X11009370D01*
G01X11101750Y2246500D02*
X11113680Y2233170D01*
X11127610Y2225170D01*
X11145520Y2222500D01*
X11163430Y2227830D01*
X11177350Y2238500D01*
X11187300Y2257170D01*
X11189290Y2278500D01*
X11185310Y2299840D01*
X11175360Y2313180D01*
X11161440Y2323840D01*
X11147510Y2326510D01*
X11133580Y2323840D01*
X11115680Y2313180D01*
X11121640Y2382520D01*
X11175360D01*
G01X11658600Y4381500D02*
X10947400D01*
Y4635500D01*
X11658600D01*
Y4381500D01*
G01X10722190Y4762500D02*
Y4922520D01*
X10771930D01*
X10787850Y4914520D01*
X10797800Y4903850D01*
X10801770Y4882510D01*
X10797800Y4861180D01*
X10785860Y4847850D01*
X10771930Y4839840D01*
X10722190D01*
G01X10771930D02*
X10801770Y4762500D01*
G01X10922000D02*
Y4922520D01*
X10898120Y4890520D01*
G01Y4762500D02*
X10945870D01*
G01X11082020Y4922520D02*
X11066100Y4917190D01*
X11054170Y4903850D01*
X11046200Y4887850D01*
X11040240Y4866510D01*
X11038250Y4842510D01*
X11040240Y4818500D01*
X11046200Y4797170D01*
X11054170Y4781170D01*
X11066100Y4767830D01*
X11082020Y4762500D01*
X11097940Y4767830D01*
X11109870Y4781170D01*
X11117840Y4797170D01*
X11123800Y4818500D01*
X11125790Y4842510D01*
X11123800Y4866510D01*
X11117840Y4887850D01*
X11109870Y4903850D01*
X11097940Y4917190D01*
X11082020Y4922520D01*
M02*
