G04 ================== begin FILE IDENTIFICATION RECORD ==================*
G04 Layout Name:  D:/ORCAD/B07_1201/allegro/B07_1201.brd*
G04 Film Name:    SolderMask_TOP*
G04 File Format:  Gerber RS274X*
G04 File Origin:  Cadence Allegro 17.2-S073*
G04 Origin Date:  Fri Dec 01 11:16:41 2023*
G04 *
G04 Layer:  VIA CLASS/SOLDERMASK_TOP*
G04 Layer:  PIN/SOLDERMASK_TOP*
G04 Layer:  PACKAGE GEOMETRY/SOLDERMASK_TOP*
G04 Layer:  BOARD GEOMETRY/SOLDERMASK_TOP*
G04 Layer:  BOARD GEOMETRY/DESIGN_OUTLINE*
G04 *
G04 Offset:    (0.0000 0.0000)*
G04 Mirror:    No*
G04 Mode:      Positive*
G04 Rotation:  0*
G04 FullContactRelief:  No*
G04 UndefLineWidth:     0.2000*
G04 ================== end FILE IDENTIFICATION RECORD ====================*
%FSLAX25Y25*MOMM*%
%IR0*IPPOS*OFA0.00000B0.00000*MIA0B0*SFA1.00000B1.00000*%
%ADD10C,2.032*%
%ADD12C,1.905*%
%ADD13C,1.397*%
%ADD14R,1.905X1.905*%
%ADD11R,1.397X1.397*%
%ADD15C,.2*%
G75*
%LPD*%
G75*
G54D10*
X480000Y1360000D03*
X1496000D03*
X2280000Y1220000D03*
X2310000Y1860000D03*
X2286000Y2540000D03*
X2310000Y3240000D03*
Y4310000D03*
Y3800000D03*
X3296000Y1220000D03*
X3326000Y1860000D03*
X3302000Y2540000D03*
X3326000Y3240000D03*
Y4310000D03*
Y3800000D03*
X6477000Y1968500D03*
X6540500Y4508500D03*
X7493000Y1968500D03*
X8064500D03*
X7556500Y4508500D03*
X7937500D03*
X9080500Y1968500D03*
X9398000D03*
X8953500Y4508500D03*
X9334500D03*
X10350500D03*
X10414000Y1968500D03*
X10795000D03*
Y4508500D03*
X11811000Y1968500D03*
Y4508500D03*
G54D11*
X1110000Y2140000D03*
X5207000Y1397000D03*
Y2540000D03*
Y4318000D03*
X6794500Y1270000D03*
X8255000D03*
X9652000Y1206500D03*
X11049000Y1270000D03*
G54D12*
X508000Y3302000D03*
Y3048000D03*
X596900Y4508500D03*
X3276600Y571500D03*
X4191000Y2667000D03*
Y2413000D03*
Y3937000D03*
Y4191000D03*
X6794500Y635000D03*
Y381000D03*
X8255000Y635000D03*
Y381000D03*
X8636000Y2857500D03*
Y3619500D03*
X8382000D03*
X9398000Y2857500D03*
X9144000D03*
X8890000D03*
X9398000Y3619500D03*
X9144000D03*
X8890000D03*
X9652000Y635000D03*
Y381000D03*
X9906000Y2857500D03*
X9652000D03*
X9906000Y3619500D03*
X9652000D03*
X11049000Y635000D03*
Y381000D03*
G54D13*
X1364000Y2140000D03*
X1618000D03*
X5461000Y1397000D03*
X5715000D03*
X5461000Y2540000D03*
X5715000D03*
X5461000Y4318000D03*
X5715000D03*
X7048500Y1270000D03*
X7302500D03*
X8509000D03*
X8763000D03*
X9906000Y1206500D03*
X10160000D03*
X11303000Y1270000D03*
X11557000D03*
G54D14*
X1587500Y4508500D03*
X2286000Y571500D03*
X8382000Y2857500D03*
G54D15*
G01X12000000Y0D02*
Y5000000D01*
X0D01*
Y0D01*
X12000000D01*
M02*
