G04 ================== begin FILE IDENTIFICATION RECORD ==================*
G04 Layout Name:  D:/ORCAD/B07_1201/allegro/B07_1201.brd*
G04 Film Name:    TOP*
G04 File Format:  Gerber RS274X*
G04 File Origin:  Cadence Allegro 17.2-S073*
G04 Origin Date:  Fri Dec 01 11:16:41 2023*
G04 *
G04 Layer:  BOARD GEOMETRY/DESIGN_OUTLINE*
G04 Layer:  ETCH/TOP*
G04 Layer:  PIN/TOP*
G04 Layer:  VIA CLASS/TOP*
G04 *
G04 Offset:    (0.0000 0.0000)*
G04 Mirror:    No*
G04 Mode:      Positive*
G04 Rotation:  0*
G04 FullContactRelief:  No*
G04 UndefLineWidth:     0.2000*
G04 ================== end FILE IDENTIFICATION RECORD ====================*
%FSLAX25Y25*MOMM*%
%IR0*IPPOS*OFA0.00000B0.00000*MIA0B0*SFA1.00000B1.00000*%
%ADD12C,1.524*%
%ADD10C,1.651*%
%ADD14R,1.524X1.524*%
%ADD13C,1.397*%
%ADD11R,1.397X1.397*%
%ADD15C,.5*%
%ADD16C,1.*%
%ADD17C,.2*%
G75*
%LPD*%
G75*
G54D10*
X480000Y1360000D03*
X1496000D03*
X2280000Y1220000D03*
X2310000Y1860000D03*
X2286000Y2540000D03*
X2310000Y3240000D03*
Y4310000D03*
Y3800000D03*
X3296000Y1220000D03*
X3326000Y1860000D03*
X3302000Y2540000D03*
X3326000Y3240000D03*
Y4310000D03*
Y3800000D03*
X6477000Y1968500D03*
X6540500Y4508500D03*
X7493000Y1968500D03*
X8064500D03*
X7556500Y4508500D03*
X7937500D03*
X9080500Y1968500D03*
X9398000D03*
X8953500Y4508500D03*
X9334500D03*
X10350500D03*
X10414000Y1968500D03*
X10795000D03*
Y4508500D03*
X11811000Y1968500D03*
Y4508500D03*
G54D11*
X1110000Y2140000D03*
X5207000Y1397000D03*
Y2540000D03*
Y4318000D03*
X6794500Y1270000D03*
X8255000D03*
X9652000Y1206500D03*
X11049000Y1270000D03*
G54D12*
X508000Y3302000D03*
Y3048000D03*
X596900Y4508500D03*
X3276600Y571500D03*
X4191000Y2667000D03*
Y2413000D03*
Y3937000D03*
Y4191000D03*
X6794500Y635000D03*
Y381000D03*
X8255000Y635000D03*
Y381000D03*
X8636000Y2857500D03*
Y3619500D03*
X8382000D03*
X9398000Y2857500D03*
X9144000D03*
X8890000D03*
X9398000Y3619500D03*
X9144000D03*
X8890000D03*
X9652000Y635000D03*
Y381000D03*
X9906000Y2857500D03*
X9652000D03*
X9906000Y3619500D03*
X9652000D03*
X11049000Y635000D03*
Y381000D03*
G54D13*
X1364000Y2140000D03*
X1618000D03*
X5461000Y1397000D03*
X5715000D03*
X5461000Y2540000D03*
X5715000D03*
X5461000Y4318000D03*
X5715000D03*
X7048500Y1270000D03*
X7302500D03*
X8509000D03*
X8763000D03*
X9906000Y1206500D03*
X10160000D03*
X11303000Y1270000D03*
X11557000D03*
G54D14*
X1587500Y4508500D03*
X2286000Y571500D03*
X8382000Y2857500D03*
G54D15*
G01X2286000Y571500D02*
X2647500D01*
X3296000Y1220000D01*
G01D02*
X5538000D01*
X5715000Y1397000D01*
G01X3326000Y1860000D02*
X3498000Y2032000D01*
X5588000D01*
X6540500Y2984500D01*
X6604000D01*
X7239000Y3619500D01*
X8382000D01*
G01X3302000Y2540000D02*
X4064000D01*
X4191000Y2413000D01*
G01X3326000Y3240000D02*
X3618000D01*
X4191000Y2667000D01*
G01X3326000Y4310000D02*
X4072000D01*
X4191000Y4191000D01*
G01X3326000Y3800000D02*
X4054000D01*
X4191000Y3937000D01*
G01Y2413000D02*
X5334000D01*
X5461000Y2540000D01*
G01X4191000Y4191000D02*
X5080000D01*
X5207000Y4318000D01*
G01X4191000Y3937000D02*
X4318000D01*
X5715000Y2540000D01*
G01X5461000Y1397000D02*
X5715000Y1651000D01*
X5905500D01*
X6667500Y889000D01*
X7239000D01*
X7747000Y1397000D01*
Y1905000D01*
X8255000Y2413000D01*
X9969500D01*
X10287000Y2730500D01*
Y2984500D01*
X9765900Y3505600D01*
X8495900D01*
X8382000Y3619500D01*
G01X6477000Y1968500D02*
X6604000D01*
X7302500Y1270000D01*
G01X7493000Y1968500D02*
X8382000Y2857500D01*
G01X8064500Y1968500D02*
X8763000Y1270000D01*
G01X9398000Y1968500D02*
X10160000Y1206500D01*
G01X11811000Y1968500D02*
X9906000Y3873500D01*
X9398000D01*
X9144000Y3619500D01*
G01X10795000Y1968500D02*
X10880040Y1883460D01*
X10943540D01*
X11557000Y1270000D01*
G54D16*
G01X1110000Y2140000D02*
X1345000Y1905000D01*
X1460500D01*
X1841500Y1524000D01*
X3619500D01*
X4000500Y1905000D01*
X5651500D01*
X6794500Y3048000D01*
X9207500D01*
X9398000Y2857500D01*
G01X508000Y3302000D02*
X825500Y3619500D01*
X4127500D01*
X5207000Y2540000D01*
G01X5461000Y4318000D02*
X4889500Y4889500D01*
X977900D01*
X596900Y4508500D01*
G01X1364000Y2140000D02*
X1637000Y2413000D01*
X1968500D01*
X2222500Y2159000D01*
X5588000D01*
X7493000Y4064000D01*
X8509000D01*
X8953500Y4508500D01*
G01X3276600Y571500D02*
X6604000D01*
X6794500Y381000D01*
G01D02*
X8255000D01*
G01X8953500Y4508500D02*
X8699500Y4762500D01*
X7810500D01*
X7556500Y4508500D01*
G01X8255000Y381000D02*
X9652000D01*
G01X8636000Y2857500D02*
X8890000D01*
G01X10350500Y4508500D02*
X10096500Y4762500D01*
X9207500D01*
X8953500Y4508500D01*
G01X11049000Y381000D02*
X9652000D01*
G01Y2857500D02*
X9906000D01*
G01X11811000Y4508500D02*
X11557000Y4762500D01*
X10604500D01*
X10350500Y4508500D01*
G54D17*
G01X12000000Y0D02*
Y5000000D01*
X0D01*
Y0D01*
X12000000D01*
M02*
