G04 ================== begin FILE IDENTIFICATION RECORD ==================*
G04 Layout Name:  D:/ORCAD/B07_1020/allegro/B07_1020.brd*
G04 Film Name:    BOTTOM*
G04 File Format:  Gerber RS274X*
G04 File Origin:  Cadence Allegro 17.2-S073*
G04 Origin Date:  Mon Oct 23 15:25:08 2023*
G04 *
G04 Layer:  BOARD GEOMETRY/DESIGN_OUTLINE*
G04 Layer:  ETCH/BOTTOM*
G04 Layer:  PIN/BOTTOM*
G04 Layer:  VIA CLASS/BOTTOM*
G04 *
G04 Offset:    (0.0000 0.0000)*
G04 Mirror:    No*
G04 Mode:      Positive*
G04 Rotation:  0*
G04 FullContactRelief:  No*
G04 UndefLineWidth:     0.2000*
G04 ================== end FILE IDENTIFICATION RECORD ====================*
%FSLAX25Y25*MOMM*%
%IR0*IPPOS*OFA0.00000B0.00000*MIA0B0*SFA1.00000B1.00000*%
%ADD10C,1.524*%
%ADD13C,1.651*%
%ADD12C,1.905*%
%ADD14R,1.524X1.524*%
%ADD16C,1.397*%
%ADD11R,1.905X1.905*%
%ADD15R,1.397X1.397*%
%ADD17C,.5*%
%ADD18C,1.*%
%ADD19C,.2*%
G75*
%LPD*%
G75*
G54D10*
X400000Y1154000D03*
Y900000D03*
X444500Y3873500D03*
Y4127500D03*
X1778000Y889000D03*
Y1143000D03*
X3111500Y1016000D03*
Y1270000D03*
X3365500Y3810000D03*
X3111500D03*
X2857500Y4572000D03*
X3111500D03*
X3365500D03*
X4127500Y3810000D03*
X3873500D03*
X3619500D03*
Y4572000D03*
X3873500D03*
X4127500D03*
X4858000Y1050000D03*
X4604000D03*
X4858000Y1812000D03*
X4604000D03*
X4350000D03*
X4635500Y3810000D03*
X4381500D03*
Y4572000D03*
X4635500D03*
X5620000Y1050000D03*
X5366000D03*
X5112000D03*
X5620000Y1812000D03*
X5366000D03*
X5112000D03*
X5348500Y3582400D03*
X5874000Y1050000D03*
Y1812000D03*
X6535000Y3582400D03*
X8100000Y1712000D03*
X7821500Y3582400D03*
X8862000Y950000D03*
X8608000D03*
X8354000D03*
X8862000Y1712000D03*
X8608000D03*
X8354000D03*
X9017000Y3581400D03*
X9842500Y889000D03*
Y1143000D03*
X10160000Y3581400D03*
X11550000Y646000D03*
Y900000D03*
X11557000Y1651000D03*
Y1905000D03*
X11240500Y3582400D03*
G54D11*
X950000Y900000D03*
G54D12*
Y1154000D03*
Y1408000D03*
G54D13*
X1143000Y3556000D03*
Y4572000D03*
X1714500Y3556000D03*
Y4572000D03*
X2500000Y1150000D03*
Y1404000D03*
X2222500Y4318000D03*
Y4572000D03*
X3800000Y784000D03*
Y1800000D03*
X6400000Y896000D03*
Y1150000D03*
X5898500Y3557000D03*
Y4573000D03*
X6800000Y800000D03*
X7250000D03*
X6800000Y1816000D03*
X7250000D03*
X7135000Y3557000D03*
Y4573000D03*
X7650000Y946000D03*
Y1200000D03*
X8371500Y3557000D03*
Y4573000D03*
X9350000Y1446000D03*
Y1700000D03*
X9531000Y3557000D03*
Y4573000D03*
X10414000Y762000D03*
Y1778000D03*
X10654000Y3557000D03*
Y4573000D03*
X11740500Y3557000D03*
Y4573000D03*
G54D14*
X2857500Y3810000D03*
X4350000Y1050000D03*
X5348500Y4573000D03*
X6535000D03*
X8100000Y950000D03*
X7821500Y4573000D03*
X9017000Y4572000D03*
X10160000D03*
X11240500Y4573000D03*
G54D15*
X10850000Y1150000D03*
Y2100000D03*
G54D16*
Y896000D03*
Y642000D03*
Y1846000D03*
Y1592000D03*
G54D17*
G01X950000Y900000D02*
X1535000D01*
X1778000Y1143000D01*
G01X2857500Y3810000D02*
Y4318000D01*
X3111500Y4572000D01*
G01X5366000Y1050000D02*
X4984600Y1431400D01*
Y2063900D01*
X3746500Y3302000D01*
Y3873500D01*
X3619500Y4000500D01*
Y4572000D01*
G01X4381500D02*
X4471020Y4482480D01*
Y4459880D01*
X5348500Y3582400D01*
G01X8608000Y1712000D02*
Y1204000D01*
X8354000Y950000D01*
G01X8371500Y3557000D02*
Y1856100D01*
X8354000Y1838600D01*
Y1712000D01*
G01X11240500Y4573000D02*
X10414000Y3746500D01*
Y3656350D01*
X8608000Y1850350D01*
Y1712000D01*
G01X9842500Y889000D02*
X10414000Y1460500D01*
Y1778000D01*
G01X10850000Y1150000D02*
X11108500Y1408500D01*
Y1841500D01*
X10850000Y2100000D01*
G01X10414000Y762000D02*
X10546950Y894950D01*
Y1796950D01*
X10850000Y2100000D01*
G01Y896000D02*
X10668000Y1078000D01*
Y1410000D01*
X10850000Y1592000D01*
G01X11557000Y1651000D02*
Y1033600D01*
X11550000Y1026600D01*
Y900000D01*
G54D18*
G01X1143000Y3556000D02*
X779350Y3192350D01*
Y1324650D01*
X950000Y1154000D01*
G01X1714500Y3556000D02*
Y2172500D01*
X950000Y1408000D01*
G54D19*
G01X12000000Y0D02*
Y5000000D01*
X0D01*
Y0D01*
X12000000D01*
M02*
