G04 ================== begin FILE IDENTIFICATION RECORD ==================*
G04 Layout Name:  D:/ORCAD/B07_1020/allegro/B07_1020.brd*
G04 Film Name:    Drill_DRAW*
G04 File Format:  Gerber RS274X*
G04 File Origin:  Cadence Allegro 17.2-S073*
G04 Origin Date:  Mon Oct 23 15:25:08 2023*
G04 *
G04 Layer:  MANUFACTURING/NCLEGEND-1-2*
G04 Layer:  BOARD GEOMETRY/DIMENSION*
G04 Layer:  BOARD GEOMETRY/DESIGN_OUTLINE*
G04 *
G04 Offset:    (0.0000 0.0000)*
G04 Mirror:    No*
G04 Mode:      Positive*
G04 Rotation:  0*
G04 FullContactRelief:  No*
G04 UndefLineWidth:     0.2000*
G04 ================== end FILE IDENTIFICATION RECORD ====================*
%FSLAX25Y25*MOMM*%
%IR0*IPPOS*OFA0.00000B0.00000*MIA0B0*SFA1.00000B1.00000*%
%AMMACRO11*
1,1,.2,.6858,0.0*
20,1,.2,.6858,0.0,.675381,-.119088,0.0*
1,1,.2,.675381,-.119088*
20,1,.2,.675381,-.119088,.644441,-.234557,0.0*
1,1,.2,.644441,-.234557*
20,1,.2,.644441,-.234557,.59392,-.3429,0.0*
1,1,.2,.59392,-.3429*
20,1,.2,.59392,-.3429,.525353,-.440824,0.0*
1,1,.2,.525353,-.440824*
20,1,.2,.525353,-.440824,.440824,-.525353,0.0*
1,1,.2,.440824,-.525353*
20,1,.2,.440824,-.525353,.3429,-.59392,0.0*
1,1,.2,.3429,-.59392*
20,1,.2,.3429,-.59392,.234557,-.644441,0.0*
1,1,.2,.234557,-.644441*
20,1,.2,.234557,-.644441,.119088,-.675381,0.0*
1,1,.2,.119088,-.675381*
20,1,.2,.119088,-.675381,0.0,-.6858,0.0*
1,1,.2,0.0,-.6858*
20,1,.2,0.0,-.6858,-.119088,-.675381,0.0*
1,1,.2,-.119088,-.675381*
20,1,.2,-.119088,-.675381,-.234557,-.644441,0.0*
1,1,.2,-.234557,-.644441*
20,1,.2,-.234557,-.644441,-.3429,-.59392,0.0*
1,1,.2,-.3429,-.59392*
20,1,.2,-.3429,-.59392,-.440824,-.525353,0.0*
1,1,.2,-.440824,-.525353*
20,1,.2,-.440824,-.525353,-.525353,-.440824,0.0*
1,1,.2,-.525353,-.440824*
20,1,.2,-.525353,-.440824,-.59392,-.3429,0.0*
1,1,.2,-.59392,-.3429*
20,1,.2,-.59392,-.3429,-.644441,-.234557,0.0*
1,1,.2,-.644441,-.234557*
20,1,.2,-.644441,-.234557,-.675381,-.119088,0.0*
1,1,.2,-.675381,-.119088*
20,1,.2,-.675381,-.119088,-.6858,0.0,0.0*
1,1,.2,-.6858,0.0*
20,1,.2,-.6858,0.0,-.675381,.119088,0.0*
1,1,.2,-.675381,.119088*
20,1,.2,-.675381,.119088,-.644441,.234557,0.0*
1,1,.2,-.644441,.234557*
20,1,.2,-.644441,.234557,-.59392,.3429,0.0*
1,1,.2,-.59392,.3429*
20,1,.2,-.59392,.3429,-.525353,.440824,0.0*
1,1,.2,-.525353,.440824*
20,1,.2,-.525353,.440824,-.440824,.525353,0.0*
1,1,.2,-.440824,.525353*
20,1,.2,-.440824,.525353,-.3429,.59392,0.0*
1,1,.2,-.3429,.59392*
20,1,.2,-.3429,.59392,-.234557,.644441,0.0*
1,1,.2,-.234557,.644441*
20,1,.2,-.234557,.644441,-.119088,.675381,0.0*
1,1,.2,-.119088,.675381*
20,1,.2,-.119088,.675381,0.0,.6858,0.0*
1,1,.2,0.0,.6858*
20,1,.2,0.0,.6858,.119088,.675381,0.0*
1,1,.2,.119088,.675381*
20,1,.2,.119088,.675381,.234557,.644441,0.0*
1,1,.2,.234557,.644441*
20,1,.2,.234557,.644441,.3429,.59392,0.0*
1,1,.2,.3429,.59392*
20,1,.2,.3429,.59392,.440824,.525353,0.0*
1,1,.2,.440824,.525353*
20,1,.2,.440824,.525353,.525353,.440824,0.0*
1,1,.2,.525353,.440824*
20,1,.2,.525353,.440824,.59392,.3429,0.0*
1,1,.2,.59392,.3429*
20,1,.2,.59392,.3429,.644441,.234557,0.0*
1,1,.2,.644441,.234557*
20,1,.2,.644441,.234557,.675381,.119088,0.0*
1,1,.2,.675381,.119088*
20,1,.2,.675381,.119088,.6858,0.0,0.0*
1,1,.2,.6858,0.0*
%
%ADD11MACRO11*%
%AMMACRO10*
1,1,.2,.4572,0.0*
20,1,.2,.4572,0.0,.450254,-.079392,0.0*
1,1,.2,.450254,-.079392*
20,1,.2,.450254,-.079392,.429627,-.156372,0.0*
1,1,.2,.429627,-.156372*
20,1,.2,.429627,-.156372,.395947,-.2286,0.0*
1,1,.2,.395947,-.2286*
20,1,.2,.395947,-.2286,.350236,-.293882,0.0*
1,1,.2,.350236,-.293882*
20,1,.2,.350236,-.293882,.293882,-.350236,0.0*
1,1,.2,.293882,-.350236*
20,1,.2,.293882,-.350236,.2286,-.395947,0.0*
1,1,.2,.2286,-.395947*
20,1,.2,.2286,-.395947,.156372,-.429627,0.0*
1,1,.2,.156372,-.429627*
20,1,.2,.156372,-.429627,.079392,-.450254,0.0*
1,1,.2,.079392,-.450254*
20,1,.2,.079392,-.450254,0.0,-.4572,0.0*
1,1,.2,0.0,-.4572*
20,1,.2,0.0,-.4572,-.079392,-.450254,0.0*
1,1,.2,-.079392,-.450254*
20,1,.2,-.079392,-.450254,-.156372,-.429627,0.0*
1,1,.2,-.156372,-.429627*
20,1,.2,-.156372,-.429627,-.2286,-.395947,0.0*
1,1,.2,-.2286,-.395947*
20,1,.2,-.2286,-.395947,-.293882,-.350236,0.0*
1,1,.2,-.293882,-.350236*
20,1,.2,-.293882,-.350236,-.350236,-.293882,0.0*
1,1,.2,-.350236,-.293882*
20,1,.2,-.350236,-.293882,-.395947,-.2286,0.0*
1,1,.2,-.395947,-.2286*
20,1,.2,-.395947,-.2286,-.429627,-.156372,0.0*
1,1,.2,-.429627,-.156372*
20,1,.2,-.429627,-.156372,-.450254,-.079392,0.0*
1,1,.2,-.450254,-.079392*
20,1,.2,-.450254,-.079392,-.4572,0.0,0.0*
1,1,.2,-.4572,0.0*
20,1,.2,-.4572,0.0,-.450254,.079392,0.0*
1,1,.2,-.450254,.079392*
20,1,.2,-.450254,.079392,-.429627,.156372,0.0*
1,1,.2,-.429627,.156372*
20,1,.2,-.429627,.156372,-.395947,.2286,0.0*
1,1,.2,-.395947,.2286*
20,1,.2,-.395947,.2286,-.350236,.293882,0.0*
1,1,.2,-.350236,.293882*
20,1,.2,-.350236,.293882,-.293882,.350236,0.0*
1,1,.2,-.293882,.350236*
20,1,.2,-.293882,.350236,-.2286,.395947,0.0*
1,1,.2,-.2286,.395947*
20,1,.2,-.2286,.395947,-.156372,.429627,0.0*
1,1,.2,-.156372,.429627*
20,1,.2,-.156372,.429627,-.079392,.450254,0.0*
1,1,.2,-.079392,.450254*
20,1,.2,-.079392,.450254,0.0,.4572,0.0*
1,1,.2,0.0,.4572*
20,1,.2,0.0,.4572,.079392,.450254,0.0*
1,1,.2,.079392,.450254*
20,1,.2,.079392,.450254,.156372,.429627,0.0*
1,1,.2,.156372,.429627*
20,1,.2,.156372,.429627,.2286,.395947,0.0*
1,1,.2,.2286,.395947*
20,1,.2,.2286,.395947,.293882,.350236,0.0*
1,1,.2,.293882,.350236*
20,1,.2,.293882,.350236,.350236,.293882,0.0*
1,1,.2,.350236,.293882*
20,1,.2,.350236,.293882,.395947,.2286,0.0*
1,1,.2,.395947,.2286*
20,1,.2,.395947,.2286,.429627,.156372,0.0*
1,1,.2,.429627,.156372*
20,1,.2,.429627,.156372,.450254,.079392,0.0*
1,1,.2,.450254,.079392*
20,1,.2,.450254,.079392,.4572,0.0,0.0*
1,1,.2,.4572,0.0*
%
%ADD10MACRO10*%
%AMMACRO12*
1,1,.2,.5334,0.0*
20,1,.2,.5334,0.0,.525296,-.092624,0.0*
1,1,.2,.525296,-.092624*
20,1,.2,.525296,-.092624,.501232,-.182434,0.0*
1,1,.2,.501232,-.182434*
20,1,.2,.501232,-.182434,.461938,-.2667,0.0*
1,1,.2,.461938,-.2667*
20,1,.2,.461938,-.2667,.408608,-.342863,0.0*
1,1,.2,.408608,-.342863*
20,1,.2,.408608,-.342863,.342863,-.408608,0.0*
1,1,.2,.342863,-.408608*
20,1,.2,.342863,-.408608,.2667,-.461938,0.0*
1,1,.2,.2667,-.461938*
20,1,.2,.2667,-.461938,.182434,-.501232,0.0*
1,1,.2,.182434,-.501232*
20,1,.2,.182434,-.501232,.092624,-.525296,0.0*
1,1,.2,.092624,-.525296*
20,1,.2,.092624,-.525296,0.0,-.5334,0.0*
1,1,.2,0.0,-.5334*
20,1,.2,0.0,-.5334,-.092624,-.525296,0.0*
1,1,.2,-.092624,-.525296*
20,1,.2,-.092624,-.525296,-.182434,-.501232,0.0*
1,1,.2,-.182434,-.501232*
20,1,.2,-.182434,-.501232,-.2667,-.461938,0.0*
1,1,.2,-.2667,-.461938*
20,1,.2,-.2667,-.461938,-.342863,-.408608,0.0*
1,1,.2,-.342863,-.408608*
20,1,.2,-.342863,-.408608,-.408608,-.342863,0.0*
1,1,.2,-.408608,-.342863*
20,1,.2,-.408608,-.342863,-.461938,-.2667,0.0*
1,1,.2,-.461938,-.2667*
20,1,.2,-.461938,-.2667,-.501232,-.182434,0.0*
1,1,.2,-.501232,-.182434*
20,1,.2,-.501232,-.182434,-.525296,-.092624,0.0*
1,1,.2,-.525296,-.092624*
20,1,.2,-.525296,-.092624,-.5334,0.0,0.0*
1,1,.2,-.5334,0.0*
20,1,.2,-.5334,0.0,-.525296,.092624,0.0*
1,1,.2,-.525296,.092624*
20,1,.2,-.525296,.092624,-.501232,.182434,0.0*
1,1,.2,-.501232,.182434*
20,1,.2,-.501232,.182434,-.461938,.2667,0.0*
1,1,.2,-.461938,.2667*
20,1,.2,-.461938,.2667,-.408608,.342863,0.0*
1,1,.2,-.408608,.342863*
20,1,.2,-.408608,.342863,-.342863,.408608,0.0*
1,1,.2,-.342863,.408608*
20,1,.2,-.342863,.408608,-.2667,.461938,0.0*
1,1,.2,-.2667,.461938*
20,1,.2,-.2667,.461938,-.182434,.501232,0.0*
1,1,.2,-.182434,.501232*
20,1,.2,-.182434,.501232,-.092624,.525296,0.0*
1,1,.2,-.092624,.525296*
20,1,.2,-.092624,.525296,0.0,.5334,0.0*
1,1,.2,0.0,.5334*
20,1,.2,0.0,.5334,.092624,.525296,0.0*
1,1,.2,.092624,.525296*
20,1,.2,.092624,.525296,.182434,.501232,0.0*
1,1,.2,.182434,.501232*
20,1,.2,.182434,.501232,.2667,.461938,0.0*
1,1,.2,.2667,.461938*
20,1,.2,.2667,.461938,.342863,.408608,0.0*
1,1,.2,.342863,.408608*
20,1,.2,.342863,.408608,.408608,.342863,0.0*
1,1,.2,.408608,.342863*
20,1,.2,.408608,.342863,.461938,.2667,0.0*
1,1,.2,.461938,.2667*
20,1,.2,.461938,.2667,.501232,.182434,0.0*
1,1,.2,.501232,.182434*
20,1,.2,.501232,.182434,.525296,.092624,0.0*
1,1,.2,.525296,.092624*
20,1,.2,.525296,.092624,.5334,0.0,0.0*
1,1,.2,.5334,0.0*
%
%ADD12MACRO12*%
%AMMACRO13*
1,1,.2,.3937,0.0*
20,1,.2,.3937,0.0,.387719,-.068365,0.0*
1,1,.2,.387719,-.068365*
20,1,.2,.387719,-.068365,.369957,-.134653,0.0*
1,1,.2,.369957,-.134653*
20,1,.2,.369957,-.134653,.340954,-.19685,0.0*
1,1,.2,.340954,-.19685*
20,1,.2,.340954,-.19685,.301592,-.253065,0.0*
1,1,.2,.301592,-.253065*
20,1,.2,.301592,-.253065,.253065,-.301592,0.0*
1,1,.2,.253065,-.301592*
20,1,.2,.253065,-.301592,.19685,-.340954,0.0*
1,1,.2,.19685,-.340954*
20,1,.2,.19685,-.340954,.134653,-.369957,0.0*
1,1,.2,.134653,-.369957*
20,1,.2,.134653,-.369957,.068365,-.387719,0.0*
1,1,.2,.068365,-.387719*
20,1,.2,.068365,-.387719,0.0,-.3937,0.0*
1,1,.2,0.0,-.3937*
20,1,.2,0.0,-.3937,-.068365,-.387719,0.0*
1,1,.2,-.068365,-.387719*
20,1,.2,-.068365,-.387719,-.134653,-.369957,0.0*
1,1,.2,-.134653,-.369957*
20,1,.2,-.134653,-.369957,-.19685,-.340954,0.0*
1,1,.2,-.19685,-.340954*
20,1,.2,-.19685,-.340954,-.253065,-.301592,0.0*
1,1,.2,-.253065,-.301592*
20,1,.2,-.253065,-.301592,-.301592,-.253065,0.0*
1,1,.2,-.301592,-.253065*
20,1,.2,-.301592,-.253065,-.340954,-.19685,0.0*
1,1,.2,-.340954,-.19685*
20,1,.2,-.340954,-.19685,-.369957,-.134653,0.0*
1,1,.2,-.369957,-.134653*
20,1,.2,-.369957,-.134653,-.387719,-.068365,0.0*
1,1,.2,-.387719,-.068365*
20,1,.2,-.387719,-.068365,-.3937,0.0,0.0*
1,1,.2,-.3937,0.0*
20,1,.2,-.3937,0.0,-.387719,.068365,0.0*
1,1,.2,-.387719,.068365*
20,1,.2,-.387719,.068365,-.369957,.134653,0.0*
1,1,.2,-.369957,.134653*
20,1,.2,-.369957,.134653,-.340954,.19685,0.0*
1,1,.2,-.340954,.19685*
20,1,.2,-.340954,.19685,-.301592,.253065,0.0*
1,1,.2,-.301592,.253065*
20,1,.2,-.301592,.253065,-.253065,.301592,0.0*
1,1,.2,-.253065,.301592*
20,1,.2,-.253065,.301592,-.19685,.340954,0.0*
1,1,.2,-.19685,.340954*
20,1,.2,-.19685,.340954,-.134653,.369957,0.0*
1,1,.2,-.134653,.369957*
20,1,.2,-.134653,.369957,-.068365,.387719,0.0*
1,1,.2,-.068365,.387719*
20,1,.2,-.068365,.387719,0.0,.3937,0.0*
1,1,.2,0.0,.3937*
20,1,.2,0.0,.3937,.068365,.387719,0.0*
1,1,.2,.068365,.387719*
20,1,.2,.068365,.387719,.134653,.369957,0.0*
1,1,.2,.134653,.369957*
20,1,.2,.134653,.369957,.19685,.340954,0.0*
1,1,.2,.19685,.340954*
20,1,.2,.19685,.340954,.253065,.301592,0.0*
1,1,.2,.253065,.301592*
20,1,.2,.253065,.301592,.301592,.253065,0.0*
1,1,.2,.301592,.253065*
20,1,.2,.301592,.253065,.340954,.19685,0.0*
1,1,.2,.340954,.19685*
20,1,.2,.340954,.19685,.369957,.134653,0.0*
1,1,.2,.369957,.134653*
20,1,.2,.369957,.134653,.387719,.068365,0.0*
1,1,.2,.387719,.068365*
20,1,.2,.387719,.068365,.3937,0.0,0.0*
1,1,.2,.3937,0.0*
%
%ADD13MACRO13*%
%ADD14C,.2*%
G75*
%LPD*%
G75*
G54D10*
X400000Y1154000D03*
Y900000D03*
X444500Y3873500D03*
Y4127500D03*
X697230Y-3698000D03*
X1778000Y889000D03*
Y1143000D03*
X3111500Y1016000D03*
Y1270000D03*
X3365500Y3810000D03*
X3111500D03*
X2857500D03*
Y4572000D03*
X3111500D03*
X3365500D03*
X4127500Y3810000D03*
X3873500D03*
X3619500D03*
Y4572000D03*
X3873500D03*
X4127500D03*
X4858000Y1050000D03*
X4604000D03*
X4350000D03*
X4858000Y1812000D03*
X4604000D03*
X4350000D03*
X4635500Y3810000D03*
X4381500D03*
Y4572000D03*
X4635500D03*
X5620000Y1050000D03*
X5366000D03*
X5112000D03*
X5620000Y1812000D03*
X5366000D03*
X5112000D03*
X5348500Y3582400D03*
Y4573000D03*
X5874000Y1050000D03*
Y1812000D03*
X6535000Y3582400D03*
Y4573000D03*
X8100000Y950000D03*
Y1712000D03*
X7821500Y3582400D03*
Y4573000D03*
X8862000Y950000D03*
X8608000D03*
X8354000D03*
X8862000Y1712000D03*
X8608000D03*
X8354000D03*
X9017000Y3581400D03*
Y4572000D03*
X9842500Y889000D03*
Y1143000D03*
X10160000Y3581400D03*
Y4572000D03*
X11550000Y646000D03*
Y900000D03*
X11557000Y1651000D03*
Y1905000D03*
X11240500Y3582400D03*
Y4573000D03*
G54D11*
X697230Y-4968000D03*
X950000Y900000D03*
Y1154000D03*
Y1408000D03*
G54D12*
X697230Y-4333000D03*
X1143000Y3556000D03*
Y4572000D03*
X1714500Y3556000D03*
Y4572000D03*
X2500000Y1150000D03*
Y1404000D03*
X2222500Y4318000D03*
Y4572000D03*
X3800000Y784000D03*
Y1800000D03*
X6400000Y896000D03*
Y1150000D03*
X5898500Y3557000D03*
Y4573000D03*
X6800000Y800000D03*
X7250000D03*
X6800000Y1816000D03*
X7250000D03*
X7135000Y3557000D03*
Y4573000D03*
X7650000Y946000D03*
Y1200000D03*
X8371500Y3557000D03*
Y4573000D03*
X9350000Y1446000D03*
Y1700000D03*
X9531000Y3557000D03*
Y4573000D03*
X10414000Y762000D03*
Y1778000D03*
X10654000Y3557000D03*
Y4573000D03*
X11740500Y3557000D03*
Y4573000D03*
G54D13*
X697230Y-3063000D03*
X10850000Y1150000D03*
Y896000D03*
Y642000D03*
Y1846000D03*
Y1592000D03*
Y2100000D03*
G54D14*
G01X4474820Y0D02*
X-1150000D01*
G01X4763430Y5000000D02*
X-1150000D01*
G01X-444500Y-5285500D02*
Y-825500D01*
X12153900D01*
Y-5285500D01*
X-444500D01*
G01Y-4650500D02*
X12153900D01*
G01X-444500Y-4015500D02*
X12153900D01*
G01X-444500Y-2745500D02*
X12153900D01*
G01X-444500Y-3380500D02*
X12153900D01*
G01X-444500Y-2110500D02*
X12153900D01*
G01X-444500Y-1475500D02*
X12153900D01*
G01X-900000Y2700000D02*
Y0D01*
G01X-962500Y400000D02*
X-900000Y0D01*
X-837500Y400000D01*
X-962500D01*
G01X-1023780Y2804010D02*
X-1011850Y2790680D01*
X-997920Y2782680D01*
X-980010Y2780010D01*
X-962100Y2785340D01*
X-948180Y2796010D01*
X-938230Y2814680D01*
X-936240Y2836010D01*
X-940220Y2857350D01*
X-950170Y2870690D01*
X-964090Y2881350D01*
X-978020Y2884020D01*
X-991950Y2881350D01*
X-1009850Y2870690D01*
X-1003890Y2940030D01*
X-950170D01*
G01X-819990D02*
X-835910Y2934700D01*
X-847840Y2921360D01*
X-855810Y2905360D01*
X-861770Y2884020D01*
X-863760Y2860020D01*
X-861770Y2836010D01*
X-855810Y2814680D01*
X-847840Y2798680D01*
X-835910Y2785340D01*
X-819990Y2780010D01*
X-804070Y2785340D01*
X-792140Y2798680D01*
X-784170Y2814680D01*
X-778210Y2836010D01*
X-776220Y2860020D01*
X-778210Y2884020D01*
X-784170Y2905360D01*
X-792140Y2921360D01*
X-804070Y2934700D01*
X-819990Y2940030D01*
G01X-900000Y2700000D02*
Y5000000D01*
G01X-837500Y4600000D02*
X-900000Y5000000D01*
X-962500Y4600000D01*
X-837500D01*
G01X-164980Y-2586750D02*
Y-2269250D01*
X-15360D01*
G01X-70490Y-2422700D02*
X-164980D01*
G01X177550Y-2269250D02*
X272030D01*
G01X224790D02*
Y-2586750D01*
G01X177550D02*
X272030D01*
G01X563370Y-2428000D02*
X642120D01*
Y-2523250D01*
X618490Y-2555010D01*
X590930Y-2576170D01*
X551560Y-2586750D01*
X512190Y-2576170D01*
X484630Y-2555010D01*
X461010Y-2523250D01*
X445260Y-2486210D01*
X437380Y-2443880D01*
Y-2406830D01*
X445260Y-2375090D01*
X461010Y-2338040D01*
X484630Y-2306290D01*
X508250Y-2285130D01*
X539750Y-2269250D01*
X567310D01*
X598800Y-2279830D01*
X622430Y-2301000D01*
G01X768100Y-2269250D02*
Y-2496790D01*
X783840Y-2544430D01*
X815340Y-2576170D01*
X854710Y-2586750D01*
X894080Y-2576170D01*
X925580Y-2544430D01*
X941320Y-2496790D01*
Y-2269250D01*
G01X1090930Y-2586750D02*
Y-2269250D01*
X1189350D01*
X1220850Y-2285130D01*
X1240540Y-2306290D01*
X1248410Y-2348630D01*
X1240540Y-2390960D01*
X1216910Y-2417410D01*
X1189350Y-2433300D01*
X1090930D01*
G01X1189350D02*
X1248410Y-2586750D01*
G01X1563370D02*
X1405890D01*
Y-2269250D01*
X1563370D01*
G01X1500380Y-2422700D02*
X1405890D01*
G01X12000000Y0D02*
Y5000000D01*
X0D01*
Y0D01*
X12000000D01*
G01X0Y2545410D02*
Y6150000D01*
G01X5700000Y5900000D02*
X0D01*
G01X400000Y5962500D02*
X0Y5900000D01*
X400000Y5837500D01*
Y5962500D01*
G01X1838960Y-2110500D02*
Y-5285500D01*
G01X1504310Y-1951750D02*
X1602740Y-1634250D01*
X1701170Y-1951750D01*
G01X1665730Y-1840630D02*
X1539740D01*
G01X1838960Y-1634250D02*
Y-1951750D01*
X1996440D01*
G01X2153920Y-1634250D02*
Y-1951750D01*
X2311400D01*
G01X2775970Y-1634250D02*
Y-1861790D01*
X2791710Y-1909430D01*
X2823210Y-1941170D01*
X2862580Y-1951750D01*
X2901950Y-1941170D01*
X2933450Y-1909430D01*
X2949190Y-1861790D01*
Y-1634250D01*
G01X3086990Y-1951750D02*
Y-1634250D01*
X3268090Y-1951750D01*
Y-1634250D01*
G01X3445260D02*
X3539740D01*
G01X3492500D02*
Y-1951750D01*
G01X3445260D02*
X3539740D01*
G01X3807460Y-1634250D02*
Y-1951750D01*
G01X3716910Y-1634250D02*
X3898010D01*
G01X4039740Y-1909430D02*
X4071240Y-1935880D01*
X4106670Y-1951750D01*
X4138170D01*
X4169660Y-1935880D01*
X4193290Y-1909430D01*
X4205100Y-1872370D01*
X4197230Y-1835340D01*
X4177540Y-1803590D01*
X4142100Y-1782410D01*
X4094860Y-1771830D01*
X4067300Y-1750670D01*
X4055490Y-1713630D01*
X4063370Y-1676580D01*
X4083050Y-1650130D01*
X4110610Y-1634250D01*
X4138170D01*
X4165730Y-1644830D01*
X4189350Y-1671290D01*
G01X4653910Y-1951750D02*
X4752340Y-1634250D01*
X4850770Y-1951750D01*
G01X4815330Y-1840630D02*
X4689340D01*
G01X4988560Y-1951750D02*
Y-1634250D01*
X5086980D01*
X5118480Y-1650130D01*
X5138170Y-1671290D01*
X5146040Y-1713630D01*
X5138170Y-1755960D01*
X5114540Y-1782410D01*
X5086980Y-1798300D01*
X4988560D01*
G01X5086980D02*
X5146040Y-1951750D01*
G01X5461000D02*
X5303520D01*
Y-1634250D01*
X5461000D01*
G01X5398010Y-1787700D02*
X5303520D01*
G01X5964940Y-1634250D02*
X6059420D01*
G01X6012180D02*
Y-1951750D01*
G01X5964940D02*
X6059420D01*
G01X6236590D02*
Y-1634250D01*
X6417690Y-1951750D01*
Y-1634250D01*
G01X6854690Y-1951750D02*
Y-1634250D01*
X6957060Y-1898830D01*
X7059430Y-1634250D01*
Y-1951750D01*
G01X7224780Y-1634250D02*
X7319260D01*
G01X7272020D02*
Y-1951750D01*
G01X7224780D02*
X7319260D01*
G01X7508240Y-1634250D02*
Y-1951750D01*
X7665720D01*
G01X7823200Y-1634250D02*
Y-1951750D01*
X7980680D01*
G01X8169660Y-1634250D02*
X8264140D01*
G01X8216900D02*
Y-1951750D01*
G01X8169660D02*
X8264140D01*
G01X8429490D02*
Y-1634250D01*
X8531860Y-1898830D01*
X8634230Y-1634250D01*
Y-1951750D01*
G01X8925560D02*
X8768080D01*
Y-1634250D01*
X8925560D01*
G01X8862570Y-1787700D02*
X8768080D01*
G01X9161780Y-1634250D02*
Y-1951750D01*
G01X9071230Y-1634250D02*
X9252330D01*
G01X9555480Y-1951750D02*
X9398000D01*
Y-1634250D01*
X9555480D01*
G01X9492490Y-1787700D02*
X9398000D01*
G01X9712960Y-1951750D02*
Y-1634250D01*
X9811380D01*
X9842880Y-1650130D01*
X9862570Y-1671290D01*
X9870440Y-1713630D01*
X9862570Y-1755960D01*
X9838940Y-1782410D01*
X9811380Y-1798300D01*
X9712960D01*
G01X9811380D02*
X9870440Y-1951750D01*
G01X10023980Y-1909430D02*
X10055480Y-1935880D01*
X10090910Y-1951750D01*
X10122410D01*
X10153900Y-1935880D01*
X10177530Y-1909430D01*
X10189340Y-1872370D01*
X10181470Y-1835340D01*
X10161780Y-1803590D01*
X10126340Y-1782410D01*
X10079100Y-1771830D01*
X10051540Y-1750670D01*
X10039730Y-1713630D01*
X10047610Y-1676580D01*
X10067290Y-1650130D01*
X10094850Y-1634250D01*
X10122410D01*
X10149970Y-1644830D01*
X10173590Y-1671290D01*
G01X1831090Y-1301750D02*
Y-984250D01*
X1909820D01*
X1941320Y-1000130D01*
X1964940Y-1021290D01*
X1984630Y-1053040D01*
X2000380Y-1090090D01*
X2004310Y-1143000D01*
X2000380Y-1195920D01*
X1984630Y-1232960D01*
X1964940Y-1264720D01*
X1941320Y-1285880D01*
X1909820Y-1301750D01*
X1831090D01*
G01X2153920D02*
Y-984250D01*
X2252340D01*
X2283840Y-1000130D01*
X2303530Y-1021290D01*
X2311400Y-1063630D01*
X2303530Y-1105960D01*
X2279900Y-1132410D01*
X2252340Y-1148300D01*
X2153920D01*
G01X2252340D02*
X2311400Y-1301750D01*
G01X2500380Y-984250D02*
X2594860D01*
G01X2547620D02*
Y-1301750D01*
G01X2500380D02*
X2594860D01*
G01X2783840Y-984250D02*
Y-1301750D01*
X2941320D01*
G01X3098800Y-984250D02*
Y-1301750D01*
X3256280D01*
G01X3894070Y-1010710D02*
X3870450Y-994830D01*
X3842900Y-984250D01*
X3811400D01*
X3775960Y-1000130D01*
X3748410Y-1026580D01*
X3728720Y-1058340D01*
X3712970Y-1111250D01*
X3709030Y-1158880D01*
X3716910Y-1206500D01*
X3728720Y-1238250D01*
X3752340Y-1270010D01*
X3779900Y-1291170D01*
X3807460Y-1301750D01*
X3835020D01*
X3862580Y-1291170D01*
X3886200Y-1275300D01*
X3905890Y-1254140D01*
G01X4039740Y-1301750D02*
Y-984250D01*
G01X4205100D02*
Y-1301750D01*
G01Y-1143000D02*
X4039740D01*
G01X4338950Y-1301750D02*
X4437380Y-984250D01*
X4535810Y-1301750D01*
G01X4500370Y-1190630D02*
X4374380D01*
G01X4673600Y-1301750D02*
Y-984250D01*
X4772020D01*
X4803520Y-1000130D01*
X4823210Y-1021290D01*
X4831080Y-1063630D01*
X4823210Y-1105960D01*
X4799580Y-1132410D01*
X4772020Y-1148300D01*
X4673600D01*
G01X4772020D02*
X4831080Y-1301750D01*
G01X5067300Y-984250D02*
Y-1301750D01*
G01X4976750Y-984250D02*
X5157850D01*
G01X5382260Y-1312330D02*
X5374380Y-1307040D01*
Y-1296460D01*
X5382260Y-1291170D01*
X5390140Y-1296460D01*
Y-1307040D01*
X5382260Y-1312330D01*
G01Y-1169470D02*
X5374380Y-1164170D01*
Y-1153590D01*
X5382260Y-1148300D01*
X5390140Y-1153590D01*
Y-1164170D01*
X5382260Y-1169470D01*
G01X6012180Y-984250D02*
Y-1301750D01*
G01X5921630Y-984250D02*
X6102730D01*
G01X6327140Y-1301750D02*
X6295640Y-1296460D01*
X6268090Y-1275300D01*
X6244460Y-1243540D01*
X6228710Y-1206500D01*
X6220840Y-1164170D01*
Y-1121830D01*
X6228710Y-1079500D01*
X6244460Y-1042460D01*
X6268090Y-1010710D01*
X6295640Y-989540D01*
X6327140Y-984250D01*
X6358630Y-989540D01*
X6386190Y-1010710D01*
X6409820Y-1042460D01*
X6425570Y-1079500D01*
X6433440Y-1121830D01*
Y-1164170D01*
X6425570Y-1206500D01*
X6409820Y-1243540D01*
X6386190Y-1275300D01*
X6358630Y-1296460D01*
X6327140Y-1301750D01*
G01X6563360D02*
Y-984250D01*
X6657850D01*
X6689340Y-1000130D01*
X6712970Y-1037170D01*
X6720840Y-1079500D01*
X6712970Y-1121830D01*
X6693280Y-1153590D01*
X6657850Y-1169470D01*
X6563360D01*
G01X7272020Y-984250D02*
Y-1301750D01*
G01X7216900Y-1090090D02*
X7327140D01*
G01X7586980Y-1301750D02*
X7563360Y-1296460D01*
X7539740Y-1275300D01*
X7523980Y-1238250D01*
X7516110Y-1195920D01*
X7523980Y-1153590D01*
X7539740Y-1116540D01*
X7563360Y-1095380D01*
X7586980Y-1090090D01*
X7610600Y-1095380D01*
X7634220Y-1116540D01*
X7649970Y-1153590D01*
X7653910Y-1195920D01*
X7649970Y-1238250D01*
X7634220Y-1275300D01*
X7610600Y-1296460D01*
X7586980Y-1301750D01*
G01X8248390Y-1132410D02*
X8264140Y-1116540D01*
X8275950Y-1090090D01*
X8283830Y-1053040D01*
X8275950Y-1021290D01*
X8260210Y-1000130D01*
X8232650Y-984250D01*
X8126350D01*
Y-1301750D01*
X8256270D01*
X8283830Y-1280590D01*
X8299580Y-1248830D01*
X8307450Y-1211790D01*
X8299580Y-1174760D01*
X8275950Y-1143000D01*
X8248390Y-1132410D01*
X8126350D01*
G01X8531860Y-1301750D02*
X8500360Y-1296460D01*
X8472810Y-1275300D01*
X8449180Y-1243540D01*
X8433430Y-1206500D01*
X8425560Y-1164170D01*
Y-1121830D01*
X8433430Y-1079500D01*
X8449180Y-1042460D01*
X8472810Y-1010710D01*
X8500360Y-989540D01*
X8531860Y-984250D01*
X8563350Y-989540D01*
X8590910Y-1010710D01*
X8614540Y-1042460D01*
X8630290Y-1079500D01*
X8638160Y-1121830D01*
Y-1164170D01*
X8630290Y-1206500D01*
X8614540Y-1243540D01*
X8590910Y-1275300D01*
X8563350Y-1296460D01*
X8531860Y-1301750D01*
G01X8846820Y-984250D02*
Y-1301750D01*
G01X8756270Y-984250D02*
X8937370D01*
G01X9161780D02*
Y-1301750D01*
G01X9071230Y-984250D02*
X9252330D01*
G01X9476740Y-1301750D02*
X9445240Y-1296460D01*
X9417690Y-1275300D01*
X9394060Y-1243540D01*
X9378310Y-1206500D01*
X9370440Y-1164170D01*
Y-1121830D01*
X9378310Y-1079500D01*
X9394060Y-1042460D01*
X9417690Y-1010710D01*
X9445240Y-989540D01*
X9476740Y-984250D01*
X9508230Y-989540D01*
X9535790Y-1010710D01*
X9559420Y-1042460D01*
X9575170Y-1079500D01*
X9583040Y-1121830D01*
Y-1164170D01*
X9575170Y-1206500D01*
X9559420Y-1243540D01*
X9535790Y-1275300D01*
X9508230Y-1296460D01*
X9476740Y-1301750D01*
G01X9689330D02*
Y-984250D01*
X9791700Y-1248830D01*
X9894070Y-984250D01*
Y-1301750D01*
G01X2433440Y-2586750D02*
Y-2269250D01*
X2583060D01*
G01X2527930Y-2422700D02*
X2433440D01*
G01X2775970Y-2269250D02*
X2870450D01*
G01X2823210D02*
Y-2586750D01*
G01X2775970D02*
X2870450D01*
G01X3047620D02*
Y-2269250D01*
X3228720Y-2586750D01*
Y-2269250D01*
G01X3405890D02*
X3500370D01*
G01X3453130D02*
Y-2586750D01*
G01X3405890D02*
X3500370D01*
G01X3685410Y-2544430D02*
X3716910Y-2570880D01*
X3752340Y-2586750D01*
X3783840D01*
X3815330Y-2570880D01*
X3838960Y-2544430D01*
X3850770Y-2507370D01*
X3842900Y-2470340D01*
X3823210Y-2438590D01*
X3787770Y-2417410D01*
X3740530Y-2406830D01*
X3712970Y-2385670D01*
X3701160Y-2348630D01*
X3709040Y-2311580D01*
X3728720Y-2285130D01*
X3756280Y-2269250D01*
X3783840D01*
X3811400Y-2279830D01*
X3835020Y-2306290D01*
G01X4000370Y-2586750D02*
Y-2269250D01*
G01X4165730D02*
Y-2586750D01*
G01Y-2428000D02*
X4000370D01*
G01X4476750Y-2586750D02*
X4319270D01*
Y-2269250D01*
X4476750D01*
G01X4413760Y-2422700D02*
X4319270D01*
G01X4626360Y-2586750D02*
Y-2269250D01*
X4705090D01*
X4736590Y-2285130D01*
X4760210Y-2306290D01*
X4779900Y-2338040D01*
X4795650Y-2375090D01*
X4799580Y-2428000D01*
X4795650Y-2480920D01*
X4779900Y-2517960D01*
X4760210Y-2549720D01*
X4736590Y-2570880D01*
X4705090Y-2586750D01*
X4626360D01*
G01X4909820Y-2692580D02*
X5146040D01*
G01X5260210Y-2544430D02*
X5291710Y-2570880D01*
X5327140Y-2586750D01*
X5358640D01*
X5390130Y-2570880D01*
X5413760Y-2544430D01*
X5425570Y-2507370D01*
X5417700Y-2470340D01*
X5398010Y-2438590D01*
X5362570Y-2417410D01*
X5315330Y-2406830D01*
X5287770Y-2385670D01*
X5275960Y-2348630D01*
X5283840Y-2311580D01*
X5303520Y-2285130D01*
X5331080Y-2269250D01*
X5358640D01*
X5386200Y-2279830D01*
X5409820Y-2306290D01*
G01X5610610Y-2269250D02*
X5705090D01*
G01X5657850D02*
Y-2586750D01*
G01X5610610D02*
X5705090D01*
G01X5898000Y-2269250D02*
X6047620D01*
X5898000Y-2586750D01*
X6047620D01*
G01X6366510D02*
X6209030D01*
Y-2269250D01*
X6366510D01*
G01X6303520Y-2422700D02*
X6209030D01*
G01X3610610Y-5126750D02*
Y-4809250D01*
X3563370Y-4872750D01*
G01Y-5126750D02*
X3657850D01*
G01X3925570Y-5137330D02*
X3917690Y-5132040D01*
Y-5121460D01*
X3925570Y-5116170D01*
X3933450Y-5121460D01*
Y-5132040D01*
X3925570Y-5137330D01*
G01X4153920Y-5063250D02*
X4177530Y-5100300D01*
X4209030Y-5121460D01*
X4244470Y-5126750D01*
X4275970Y-5121460D01*
X4307460Y-5095010D01*
X4327140Y-5063250D01*
X4331080Y-5031500D01*
X4323210Y-4994470D01*
X4295650Y-4968000D01*
X4268090Y-4957410D01*
X4232650D01*
G01X4268090D02*
X4291710Y-4941540D01*
X4311400Y-4915090D01*
X4319270Y-4883340D01*
X4311400Y-4851580D01*
X4291710Y-4825130D01*
X4256280Y-4809250D01*
X4220850Y-4814540D01*
X4185410Y-4835710D01*
G01X4547610Y-5126750D02*
X4555490Y-5057960D01*
X4567300Y-4999760D01*
X4583050Y-4946830D01*
X4602730Y-4888630D01*
X4634230Y-4809250D01*
X4476750D01*
G01X4870450Y-5126750D02*
Y-4809250D01*
X4823210Y-4872750D01*
G01Y-5126750D02*
X4917690D01*
G01X5110600Y-4994470D02*
X5138170Y-4957410D01*
X5161790Y-4936250D01*
X5193290Y-4925670D01*
X5220850Y-4936250D01*
X5240530Y-4957410D01*
X5256280Y-4989170D01*
X5260220Y-5026210D01*
X5256280Y-5057960D01*
X5240530Y-5089720D01*
X5216900Y-5116170D01*
X5189350Y-5126750D01*
X5157850Y-5116170D01*
X5130290Y-5084430D01*
X5114540Y-5036790D01*
X5110600Y-4983880D01*
X5118480Y-4915090D01*
X5130290Y-4878040D01*
X5149970Y-4841000D01*
X5177530Y-4814540D01*
X5205090Y-4809250D01*
X5232650Y-4819830D01*
X5252340Y-4846290D01*
G01X3610610Y-4491750D02*
Y-4174250D01*
X3563370Y-4237750D01*
G01Y-4491750D02*
X3657850D01*
G01X3925570Y-4502330D02*
X3917690Y-4497040D01*
Y-4486460D01*
X3925570Y-4481170D01*
X3933450Y-4486460D01*
Y-4497040D01*
X3925570Y-4502330D01*
G01X4240530Y-4174250D02*
X4209030Y-4184830D01*
X4185410Y-4211290D01*
X4169660Y-4243040D01*
X4157850Y-4285380D01*
X4153920Y-4333000D01*
X4157850Y-4380630D01*
X4169660Y-4422960D01*
X4185410Y-4454720D01*
X4209030Y-4481170D01*
X4240530Y-4491750D01*
X4272020Y-4481170D01*
X4295650Y-4454720D01*
X4311400Y-4422960D01*
X4323210Y-4380630D01*
X4327140Y-4333000D01*
X4323210Y-4285380D01*
X4311400Y-4243040D01*
X4295650Y-4211290D01*
X4272020Y-4184830D01*
X4240530Y-4174250D01*
G01X4480680Y-4359470D02*
X4508250Y-4322410D01*
X4531870Y-4301250D01*
X4563370Y-4290670D01*
X4590930Y-4301250D01*
X4610610Y-4322410D01*
X4626360Y-4354170D01*
X4630300Y-4391210D01*
X4626360Y-4422960D01*
X4610610Y-4454720D01*
X4586980Y-4481170D01*
X4559430Y-4491750D01*
X4527930Y-4481170D01*
X4500370Y-4449430D01*
X4484620Y-4401790D01*
X4480680Y-4348880D01*
X4488560Y-4280090D01*
X4500370Y-4243040D01*
X4520050Y-4206000D01*
X4547610Y-4179540D01*
X4575170Y-4174250D01*
X4602730Y-4184830D01*
X4622420Y-4211290D01*
G01X4795640Y-4359470D02*
X4823210Y-4322410D01*
X4846830Y-4301250D01*
X4878330Y-4290670D01*
X4905890Y-4301250D01*
X4925570Y-4322410D01*
X4941320Y-4354170D01*
X4945260Y-4391210D01*
X4941320Y-4422960D01*
X4925570Y-4454720D01*
X4901940Y-4481170D01*
X4874390Y-4491750D01*
X4842890Y-4481170D01*
X4815330Y-4449430D01*
X4799580Y-4401790D01*
X4795640Y-4348880D01*
X4803520Y-4280090D01*
X4815330Y-4243040D01*
X4835010Y-4206000D01*
X4862570Y-4179540D01*
X4890130Y-4174250D01*
X4917690Y-4184830D01*
X4937380Y-4211290D01*
G01X5185410Y-4491750D02*
X5212970Y-4486460D01*
X5244460Y-4470590D01*
X5264150Y-4444140D01*
X5272020Y-4407080D01*
X5264150Y-4370050D01*
X5240530Y-4338300D01*
X5205090Y-4322410D01*
X5165730D01*
X5142100Y-4311830D01*
X5122410Y-4285380D01*
X5114540Y-4248340D01*
X5126360Y-4211290D01*
X5153910Y-4184830D01*
X5185410Y-4174250D01*
X5216900Y-4184830D01*
X5244460Y-4211290D01*
X5256280Y-4248340D01*
X5248400Y-4285380D01*
X5228720Y-4311830D01*
X5205090Y-4322410D01*
X5165730D01*
X5130290Y-4338300D01*
X5106670Y-4370050D01*
X5098800Y-4407080D01*
X5106670Y-4444140D01*
X5126360Y-4470590D01*
X5157850Y-4486460D01*
X5185410Y-4491750D01*
G01X3610610Y-3539250D02*
X3579110Y-3549830D01*
X3555490Y-3576290D01*
X3539740Y-3608040D01*
X3527930Y-3650380D01*
X3524000Y-3698000D01*
X3527930Y-3745630D01*
X3539740Y-3787960D01*
X3555490Y-3819720D01*
X3579110Y-3846170D01*
X3610610Y-3856750D01*
X3642100Y-3846170D01*
X3665730Y-3819720D01*
X3681480Y-3787960D01*
X3693290Y-3745630D01*
X3697220Y-3698000D01*
X3693290Y-3650380D01*
X3681480Y-3608040D01*
X3665730Y-3576290D01*
X3642100Y-3549830D01*
X3610610Y-3539250D01*
G01X3925570Y-3867330D02*
X3917690Y-3862040D01*
Y-3851460D01*
X3925570Y-3846170D01*
X3933450Y-3851460D01*
Y-3862040D01*
X3925570Y-3867330D01*
G01X4173600Y-3819720D02*
X4201160Y-3846170D01*
X4232650Y-3856750D01*
X4264150Y-3846170D01*
X4291710Y-3814430D01*
X4311400Y-3766790D01*
X4319270Y-3719170D01*
Y-3660960D01*
X4311400Y-3613340D01*
X4291710Y-3571000D01*
X4268090Y-3549830D01*
X4240530Y-3539250D01*
X4209030Y-3549830D01*
X4185410Y-3571000D01*
X4169660Y-3602750D01*
X4161790Y-3645090D01*
X4169660Y-3682120D01*
X4189350Y-3719170D01*
X4212970Y-3740340D01*
X4240530Y-3745630D01*
X4272020Y-3735050D01*
X4295650Y-3708590D01*
X4319270Y-3660960D01*
G01X4555490Y-3856750D02*
Y-3539250D01*
X4508250Y-3602750D01*
G01Y-3856750D02*
X4602730D01*
G01X4917690D02*
Y-3539250D01*
X4772020Y-3766790D01*
X4968880D01*
G01X5232650Y-3856750D02*
Y-3539250D01*
X5086980Y-3766790D01*
X5283840D01*
G01X3610610Y-2904250D02*
X3579110Y-2914830D01*
X3555490Y-2941290D01*
X3539740Y-2973040D01*
X3527930Y-3015380D01*
X3524000Y-3063000D01*
X3527930Y-3110630D01*
X3539740Y-3152960D01*
X3555490Y-3184720D01*
X3579110Y-3211170D01*
X3610610Y-3221750D01*
X3642100Y-3211170D01*
X3665730Y-3184720D01*
X3681480Y-3152960D01*
X3693290Y-3110630D01*
X3697220Y-3063000D01*
X3693290Y-3015380D01*
X3681480Y-2973040D01*
X3665730Y-2941290D01*
X3642100Y-2914830D01*
X3610610Y-2904250D01*
G01X3925570Y-3232330D02*
X3917690Y-3227040D01*
Y-3216460D01*
X3925570Y-3211170D01*
X3933450Y-3216460D01*
Y-3227040D01*
X3925570Y-3232330D01*
G01X4232650Y-3221750D02*
X4240530Y-3152960D01*
X4252340Y-3094760D01*
X4268090Y-3041830D01*
X4287770Y-2983630D01*
X4319270Y-2904250D01*
X4161790D01*
G01X4555490Y-3221750D02*
X4583050Y-3216460D01*
X4614540Y-3200590D01*
X4634230Y-3174140D01*
X4642100Y-3137080D01*
X4634230Y-3100050D01*
X4610610Y-3068300D01*
X4575170Y-3052410D01*
X4535810D01*
X4512180Y-3041830D01*
X4492490Y-3015380D01*
X4484620Y-2978340D01*
X4496440Y-2941290D01*
X4523990Y-2914830D01*
X4555490Y-2904250D01*
X4586980Y-2914830D01*
X4614540Y-2941290D01*
X4626360Y-2978340D01*
X4618480Y-3015380D01*
X4598800Y-3041830D01*
X4575170Y-3052410D01*
X4535810D01*
X4500370Y-3068300D01*
X4476750Y-3100050D01*
X4468880Y-3137080D01*
X4476750Y-3174140D01*
X4496440Y-3200590D01*
X4527930Y-3216460D01*
X4555490Y-3221750D01*
G01X4862570D02*
X4870450Y-3152960D01*
X4882260Y-3094760D01*
X4898010Y-3041830D01*
X4917690Y-2983630D01*
X4949190Y-2904250D01*
X4791710D01*
G01X5232650Y-3221750D02*
Y-2904250D01*
X5086980Y-3131790D01*
X5283840D01*
G01X5539980Y5980010D02*
Y6140030D01*
X5516100Y6108030D01*
G01Y5980010D02*
X5563850D01*
G01X5662200Y6113360D02*
X5674130Y6129360D01*
X5688060Y6137360D01*
X5703980Y6140030D01*
X5723880Y6134700D01*
X5737800Y6121360D01*
X5741780Y6105360D01*
X5739790Y6089350D01*
X5731830Y6076020D01*
X5692040Y6049350D01*
X5674130Y6030680D01*
X5662200Y6004010D01*
X5658220Y5980010D01*
X5741780D01*
G01X5860020Y6140030D02*
X5844100Y6134700D01*
X5832170Y6121360D01*
X5824200Y6105360D01*
X5818240Y6084020D01*
X5816250Y6060020D01*
X5818240Y6036010D01*
X5824200Y6014680D01*
X5832170Y5998680D01*
X5844100Y5985340D01*
X5860020Y5980010D01*
X5875940Y5985340D01*
X5887870Y5998680D01*
X5895840Y6014680D01*
X5901800Y6036010D01*
X5903790Y6060020D01*
X5901800Y6084020D01*
X5895840Y6105360D01*
X5887870Y6121360D01*
X5875940Y6134700D01*
X5860020Y6140030D01*
G01X5700000Y5900000D02*
X12000000D01*
G01X6957060Y-2110500D02*
Y-5285500D01*
G01X7705090Y-5126750D02*
Y-4809250D01*
X7799580D01*
X7831070Y-4825130D01*
X7854700Y-4862170D01*
X7862570Y-4904500D01*
X7854700Y-4946830D01*
X7835010Y-4978590D01*
X7799580Y-4994470D01*
X7705090D01*
G01X8020050Y-4809250D02*
Y-5126750D01*
X8177530D01*
G01X8315320D02*
X8413750Y-4809250D01*
X8512180Y-5126750D01*
G01X8476740Y-5015630D02*
X8350750D01*
G01X8728710Y-4809250D02*
Y-5126750D01*
G01X8638160Y-4809250D02*
X8819260D01*
G01X9122410Y-5126750D02*
X8964930D01*
Y-4809250D01*
X9122410D01*
G01X9059420Y-4962700D02*
X8964930D01*
G01X9272020Y-5126750D02*
Y-4809250D01*
X9350750D01*
X9382250Y-4825130D01*
X9405870Y-4846290D01*
X9425560Y-4878040D01*
X9441310Y-4915090D01*
X9445240Y-4968000D01*
X9441310Y-5020920D01*
X9425560Y-5057960D01*
X9405870Y-5089720D01*
X9382250Y-5110880D01*
X9350750Y-5126750D01*
X9272020D01*
G01X7705090Y-4491750D02*
Y-4174250D01*
X7799580D01*
X7831070Y-4190130D01*
X7854700Y-4227170D01*
X7862570Y-4269500D01*
X7854700Y-4311830D01*
X7835010Y-4343590D01*
X7799580Y-4359470D01*
X7705090D01*
G01X8020050Y-4174250D02*
Y-4491750D01*
X8177530D01*
G01X8315320D02*
X8413750Y-4174250D01*
X8512180Y-4491750D01*
G01X8476740Y-4380630D02*
X8350750D01*
G01X8728710Y-4174250D02*
Y-4491750D01*
G01X8638160Y-4174250D02*
X8819260D01*
G01X9122410Y-4491750D02*
X8964930D01*
Y-4174250D01*
X9122410D01*
G01X9059420Y-4327700D02*
X8964930D01*
G01X9272020Y-4491750D02*
Y-4174250D01*
X9350750D01*
X9382250Y-4190130D01*
X9405870Y-4211290D01*
X9425560Y-4243040D01*
X9441310Y-4280090D01*
X9445240Y-4333000D01*
X9441310Y-4385920D01*
X9425560Y-4422960D01*
X9405870Y-4454720D01*
X9382250Y-4475880D01*
X9350750Y-4491750D01*
X9272020D01*
G01X7705090Y-3856750D02*
Y-3539250D01*
X7799580D01*
X7831070Y-3555130D01*
X7854700Y-3592170D01*
X7862570Y-3634500D01*
X7854700Y-3676830D01*
X7835010Y-3708590D01*
X7799580Y-3724470D01*
X7705090D01*
G01X8020050Y-3539250D02*
Y-3856750D01*
X8177530D01*
G01X8315320D02*
X8413750Y-3539250D01*
X8512180Y-3856750D01*
G01X8476740Y-3745630D02*
X8350750D01*
G01X8728710Y-3539250D02*
Y-3856750D01*
G01X8638160Y-3539250D02*
X8819260D01*
G01X9122410Y-3856750D02*
X8964930D01*
Y-3539250D01*
X9122410D01*
G01X9059420Y-3692700D02*
X8964930D01*
G01X9272020Y-3856750D02*
Y-3539250D01*
X9350750D01*
X9382250Y-3555130D01*
X9405870Y-3576290D01*
X9425560Y-3608040D01*
X9441310Y-3645090D01*
X9445240Y-3698000D01*
X9441310Y-3750920D01*
X9425560Y-3787960D01*
X9405870Y-3819720D01*
X9382250Y-3840880D01*
X9350750Y-3856750D01*
X9272020D01*
G01X7705090Y-2586750D02*
Y-2269250D01*
X7799580D01*
X7831070Y-2285130D01*
X7854700Y-2322170D01*
X7862570Y-2364500D01*
X7854700Y-2406830D01*
X7835010Y-2438590D01*
X7799580Y-2454470D01*
X7705090D01*
G01X8020050Y-2269250D02*
Y-2586750D01*
X8177530D01*
G01X8315320D02*
X8413750Y-2269250D01*
X8512180Y-2586750D01*
G01X8476740Y-2475630D02*
X8350750D01*
G01X8728710Y-2269250D02*
Y-2586750D01*
G01X8638160Y-2269250D02*
X8819260D01*
G01X9122410Y-2586750D02*
X8964930D01*
Y-2269250D01*
X9122410D01*
G01X9059420Y-2422700D02*
X8964930D01*
G01X9272020Y-2586750D02*
Y-2269250D01*
X9350750D01*
X9382250Y-2285130D01*
X9405870Y-2306290D01*
X9425560Y-2338040D01*
X9441310Y-2375090D01*
X9445240Y-2428000D01*
X9441310Y-2480920D01*
X9425560Y-2517960D01*
X9405870Y-2549720D01*
X9382250Y-2570880D01*
X9350750Y-2586750D01*
X9272020D01*
G01X7705090Y-3221750D02*
Y-2904250D01*
X7799580D01*
X7831070Y-2920130D01*
X7854700Y-2957170D01*
X7862570Y-2999500D01*
X7854700Y-3041830D01*
X7835010Y-3073590D01*
X7799580Y-3089470D01*
X7705090D01*
G01X8020050Y-2904250D02*
Y-3221750D01*
X8177530D01*
G01X8315320D02*
X8413750Y-2904250D01*
X8512180Y-3221750D01*
G01X8476740Y-3110630D02*
X8350750D01*
G01X8728710Y-2904250D02*
Y-3221750D01*
G01X8638160Y-2904250D02*
X8819260D01*
G01X9122410Y-3221750D02*
X8964930D01*
Y-2904250D01*
X9122410D01*
G01X9059420Y-3057700D02*
X8964930D01*
G01X9272020Y-3221750D02*
Y-2904250D01*
X9350750D01*
X9382250Y-2920130D01*
X9405870Y-2941290D01*
X9425560Y-2973040D01*
X9441310Y-3010090D01*
X9445240Y-3063000D01*
X9441310Y-3115920D01*
X9425560Y-3152960D01*
X9405870Y-3184720D01*
X9382250Y-3205880D01*
X9350750Y-3221750D01*
X9272020D01*
G01X10185400Y-2110500D02*
Y-5285500D01*
G01X10925560Y-4428250D02*
X10949170Y-4465300D01*
X10980670Y-4486460D01*
X11016110Y-4491750D01*
X11047610Y-4486460D01*
X11079100Y-4460010D01*
X11098780Y-4428250D01*
X11102720Y-4396500D01*
X11094850Y-4359470D01*
X11067290Y-4333000D01*
X11039730Y-4322410D01*
X11004290D01*
G01X11039730D02*
X11063350Y-4306540D01*
X11083040Y-4280090D01*
X11090910Y-4248340D01*
X11083040Y-4216580D01*
X11063350Y-4190130D01*
X11027920Y-4174250D01*
X10992490Y-4179540D01*
X10957050Y-4200710D01*
G01X11374370Y-4491750D02*
Y-4174250D01*
X11228700Y-4401790D01*
X11425560D01*
G01X10937360Y-3724470D02*
X10964930Y-3687410D01*
X10988550Y-3666250D01*
X11020050Y-3655670D01*
X11047610Y-3666250D01*
X11067290Y-3687410D01*
X11083040Y-3719170D01*
X11086980Y-3756210D01*
X11083040Y-3787960D01*
X11067290Y-3819720D01*
X11043660Y-3846170D01*
X11016110Y-3856750D01*
X10984610Y-3846170D01*
X10957050Y-3814430D01*
X10941300Y-3766790D01*
X10937360Y-3713880D01*
X10945240Y-3645090D01*
X10957050Y-3608040D01*
X10976730Y-3571000D01*
X11004290Y-3544540D01*
X11031850Y-3539250D01*
X11059410Y-3549830D01*
X11079100Y-3576290D01*
G01X11374370Y-3856750D02*
Y-3539250D01*
X11228700Y-3766790D01*
X11425560D01*
G01X10854690Y-2586750D02*
X10823190Y-2581460D01*
X10795640Y-2560300D01*
X10772010Y-2528540D01*
X10756260Y-2491500D01*
X10748390Y-2449170D01*
Y-2406830D01*
X10756260Y-2364500D01*
X10772010Y-2327460D01*
X10795640Y-2295710D01*
X10823190Y-2274540D01*
X10854690Y-2269250D01*
X10886180Y-2274540D01*
X10913740Y-2295710D01*
X10937370Y-2327460D01*
X10953120Y-2364500D01*
X10960990Y-2406830D01*
Y-2449170D01*
X10953120Y-2491500D01*
X10937370Y-2528540D01*
X10913740Y-2560300D01*
X10886180Y-2581460D01*
X10854690Y-2586750D01*
G01X10886180Y-2502080D02*
X10933430Y-2586750D01*
G01X11169650Y-2269250D02*
Y-2586750D01*
G01X11079100Y-2269250D02*
X11260200D01*
G01X11484610Y-2586750D02*
Y-2443880D01*
X11405870Y-2269250D01*
G01X11563350D02*
X11484610Y-2443880D01*
G01X11083040Y-5063250D02*
X11106650Y-5100300D01*
X11138150Y-5121460D01*
X11173590Y-5126750D01*
X11205090Y-5121460D01*
X11236580Y-5095010D01*
X11256260Y-5063250D01*
X11260200Y-5031500D01*
X11252330Y-4994470D01*
X11224770Y-4968000D01*
X11197210Y-4957410D01*
X11161770D01*
G01X11197210D02*
X11220830Y-4941540D01*
X11240520Y-4915090D01*
X11248390Y-4883340D01*
X11240520Y-4851580D01*
X11220830Y-4825130D01*
X11185400Y-4809250D01*
X11149970Y-4814540D01*
X11114530Y-4835710D01*
G01X11094840Y-3089470D02*
X11122410Y-3052410D01*
X11146030Y-3031250D01*
X11177530Y-3020670D01*
X11205090Y-3031250D01*
X11224770Y-3052410D01*
X11240520Y-3084170D01*
X11244460Y-3121210D01*
X11240520Y-3152960D01*
X11224770Y-3184720D01*
X11201140Y-3211170D01*
X11173590Y-3221750D01*
X11142090Y-3211170D01*
X11114530Y-3179430D01*
X11098780Y-3131790D01*
X11094840Y-3078880D01*
X11102720Y-3010090D01*
X11114530Y-2973040D01*
X11134210Y-2936000D01*
X11161770Y-2909540D01*
X11189330Y-2904250D01*
X11216890Y-2914830D01*
X11236580Y-2941290D01*
G01X11600000Y5837500D02*
X12000000Y5900000D01*
X11600000Y5962500D01*
Y5837500D01*
G01X12000000Y2466700D02*
Y6150000D01*
M02*
