G04 ================== begin FILE IDENTIFICATION RECORD ==================*
G04 Layout Name:  D:/ORCAD/B07_1020/allegro/B07_1020_1.brd*
G04 Film Name:    Silkscreen_TOP*
G04 File Format:  Gerber RS274X*
G04 File Origin:  Cadence Allegro 17.2-S073*
G04 Origin Date:  Mon Oct 23 15:15:41 2023*
G04 *
G04 Layer:  REF DES/SILKSCREEN_TOP*
G04 Layer:  PACKAGE GEOMETRY/SILKSCREEN_TOP*
G04 Layer:  BOARD GEOMETRY/SILKSCREEN_TOP*
G04 Layer:  BOARD GEOMETRY/DESIGN_OUTLINE*
G04 *
G04 Offset:    (0.0000 0.0000)*
G04 Mirror:    No*
G04 Mode:      Positive*
G04 Rotation:  0*
G04 FullContactRelief:  No*
G04 UndefLineWidth:     0.2000*
G04 ================== end FILE IDENTIFICATION RECORD ====================*
%FSLAX25Y25*MOMM*%
%IR0*IPPOS*OFA0.00000B0.00000*MIA0B0*SFA1.00000B1.00000*%
%ADD10C,.2032*%
%ADD11C,.2*%
G75*
%LPD*%
G75*
G54D10*
G01X657900Y620600D02*
X1229400D01*
G01X657900Y1687400D02*
Y620600D01*
G01D02*
X1229400D01*
G01X657900Y1687400D02*
Y620600D01*
G01X797600D02*
Y1687400D01*
G01Y620600D02*
Y1687400D01*
G01X1229400D02*
X657900D01*
G01X1229400D02*
X657900D01*
G01X1229400Y620600D02*
Y1687400D01*
G01Y620600D02*
Y1687400D01*
G01X10951850Y649870D02*
X11038470Y707530D01*
G01D02*
X11096130Y794150D01*
G01Y997850D02*
X11038470Y1084470D01*
G01D02*
X10951850Y1142130D01*
G01Y649870D02*
X11038470Y707530D01*
G01D02*
X11096130Y794150D01*
G01Y997850D02*
X11038470Y1084470D01*
G01D02*
X10951850Y1142130D01*
G01X10661530Y707530D02*
X10748150Y649870D01*
G01X10661530Y707530D02*
X10748150Y649870D01*
G01Y1142130D02*
X10661530Y1084470D01*
G01D02*
X10659500Y1082440D01*
G01D02*
Y705500D01*
G01X10748150Y1142130D02*
X10661530Y1084470D01*
G01D02*
X10659500Y1082440D01*
G01D02*
Y705500D01*
G01X10951850Y1599870D02*
X11038470Y1657530D01*
G01D02*
X11096130Y1744150D01*
G01X10951850Y1599870D02*
X11038470Y1657530D01*
G01D02*
X11096130Y1744150D01*
G01X10661530Y1657530D02*
X10748150Y1599870D01*
G01X10661530Y1657530D02*
X10748150Y1599870D01*
G01X10659500Y2032440D02*
Y1655500D01*
G01Y2032440D02*
Y1655500D01*
G01X11096130Y1947850D02*
X11038470Y2034470D01*
G01D02*
X10951850Y2092130D01*
G01X11096130Y1947850D02*
X11038470Y2034470D01*
G01D02*
X10951850Y2092130D01*
G01X10748150D02*
X10661530Y2034470D01*
G01D02*
X10659500Y2032440D01*
G01X10748150Y2092130D02*
X10661530Y2034470D01*
G01D02*
X10659500Y2032440D01*
G01X11096130Y794150D02*
X11116450Y896000D01*
G01D02*
X11096130Y997850D01*
G01Y794150D02*
X11116450Y896000D01*
G01D02*
X11096130Y997850D01*
G01Y1744150D02*
X11116450Y1846000D01*
G01D02*
X11096130Y1947850D01*
G01Y1744150D02*
X11116450Y1846000D01*
G01D02*
X11096130Y1947850D01*
G54D11*
G01X12000000Y0D02*
Y5000000D01*
X0D01*
Y0D01*
X12000000D01*
G01X527000Y773000D02*
X273000D01*
Y1281000D01*
X527000D01*
Y773000D01*
G01X261200Y1619500D02*
X271150Y1603500D01*
X283080Y1592830D01*
X297010Y1587500D01*
X312930Y1592830D01*
X324870Y1603500D01*
X336810Y1619500D01*
X340780Y1640840D01*
Y1747520D01*
G01X423210Y1720850D02*
X435140Y1736850D01*
X449070Y1744850D01*
X464990Y1747520D01*
X484890Y1742190D01*
X498810Y1728850D01*
X502790Y1712850D01*
X500800Y1696840D01*
X492840Y1683510D01*
X453050Y1656840D01*
X435140Y1638170D01*
X423210Y1611500D01*
X419230Y1587500D01*
X502790D01*
G01X317500Y4254500D02*
X571500D01*
Y3746500D01*
X317500D01*
Y4254500D01*
G01X210200Y4543830D02*
X226110Y4530500D01*
X244020Y4522500D01*
X259940D01*
X275860Y4530500D01*
X287800Y4543830D01*
X293760Y4562510D01*
X289780Y4581170D01*
X279830Y4597170D01*
X261930Y4607850D01*
X238050Y4613180D01*
X224130Y4623840D01*
X218150Y4642510D01*
X222140Y4661180D01*
X232080Y4674520D01*
X246010Y4682520D01*
X259940D01*
X273870Y4677190D01*
X285810Y4663850D01*
G01X352310Y4682520D02*
X380160Y4522500D01*
X412000Y4682520D01*
X443830Y4522500D01*
X471690Y4682520D01*
G01X572020Y4522500D02*
Y4682520D01*
X548140Y4650520D01*
G01Y4522500D02*
X595890D01*
G01X968420Y2065020D02*
Y1950340D01*
X976370Y1926330D01*
X992290Y1910330D01*
X1012190Y1905000D01*
X1032090Y1910330D01*
X1048010Y1926330D01*
X1055960Y1950340D01*
Y2065020D01*
G01X1196090Y1905000D02*
Y2065020D01*
X1122470Y1950340D01*
X1221950D01*
G01X1270000Y4419600D02*
Y3708400D01*
X1016000D01*
Y4419600D01*
X1270000D01*
G01Y3708400D02*
X1016000D01*
Y4419600D01*
X1270000D01*
G01X943190Y4762500D02*
Y4922520D01*
X992930D01*
X1008850Y4914520D01*
X1018800Y4903850D01*
X1022770Y4882510D01*
X1018800Y4861180D01*
X1006860Y4847850D01*
X992930Y4839840D01*
X943190D01*
G01X992930D02*
X1022770Y4762500D01*
G01X1143000D02*
Y4922520D01*
X1119120Y4890520D01*
G01Y4762500D02*
X1166870D01*
G01X1303020D02*
Y4922520D01*
X1279140Y4890520D01*
G01Y4762500D02*
X1326890D01*
G01X2032000Y1016000D02*
G03I-254000J0D01*
G01D02*
G03I-254000J0D01*
G01X1741760Y1734180D02*
X1729820Y1742190D01*
X1715900Y1747520D01*
X1699980D01*
X1682070Y1739520D01*
X1668150Y1726180D01*
X1658200Y1710180D01*
X1650240Y1683510D01*
X1648250Y1659510D01*
X1652230Y1635510D01*
X1658200Y1619500D01*
X1670140Y1603500D01*
X1684060Y1592830D01*
X1697990Y1587500D01*
X1711920D01*
X1725840Y1592830D01*
X1737780Y1600830D01*
X1747730Y1611500D01*
G01X1858010Y1587500D02*
X1871940Y1590170D01*
X1887850Y1598170D01*
X1897800Y1611500D01*
X1901780Y1630170D01*
X1897800Y1648840D01*
X1885860Y1664840D01*
X1867960Y1672850D01*
X1848060D01*
X1836120Y1678180D01*
X1826170Y1691510D01*
X1822190Y1710180D01*
X1828170Y1728850D01*
X1842090Y1742190D01*
X1858010Y1747520D01*
X1873930Y1742190D01*
X1887850Y1728850D01*
X1893830Y1710180D01*
X1889840Y1691510D01*
X1879900Y1678180D01*
X1867960Y1672850D01*
X1848060D01*
X1830160Y1664840D01*
X1818220Y1648840D01*
X1814240Y1630170D01*
X1818220Y1611500D01*
X1828170Y1598170D01*
X1844080Y1590170D01*
X1858010Y1587500D01*
G01X1612900Y1231900D02*
X1511300D01*
G01X1562100Y1181100D02*
Y1282700D01*
G01X1270000Y3708400D02*
Y4419600D01*
G01X1587500Y3708400D02*
Y4419600D01*
X1841500D01*
Y3708400D01*
X1587500D01*
G01Y4419600D02*
X1841500D01*
Y3708400D01*
X1587500D01*
G01Y4419600D02*
Y3708400D01*
G01X1594700Y4762500D02*
Y4922520D01*
X1644440D01*
X1660360Y4914520D01*
X1670310Y4903850D01*
X1674280Y4882510D01*
X1670310Y4861180D01*
X1658370Y4847850D01*
X1644440Y4839840D01*
X1594700D01*
G01X1644440D02*
X1674280Y4762500D01*
G01X1750740Y4794500D02*
X1762670Y4775830D01*
X1778590Y4765170D01*
X1796500Y4762500D01*
X1812420Y4765170D01*
X1828340Y4778500D01*
X1838280Y4794500D01*
X1840270Y4810510D01*
X1836290Y4829170D01*
X1822360Y4842510D01*
X1808440Y4847850D01*
X1790530D01*
G01X1808440D02*
X1820380Y4855840D01*
X1830330Y4869180D01*
X1834300Y4885180D01*
X1830330Y4901180D01*
X1820380Y4914520D01*
X1802470Y4922520D01*
X1784560Y4919850D01*
X1766660Y4909180D01*
G01X2373000Y1023000D02*
Y1531000D01*
X2627000D01*
Y1023000D01*
X2373000D01*
G01Y1531000D02*
Y1023000D01*
X2627000D01*
Y1531000D01*
X2373000D01*
G01X2440260Y1988180D02*
X2428320Y1996190D01*
X2414400Y2001520D01*
X2398480D01*
X2380570Y1993520D01*
X2366650Y1980180D01*
X2356700Y1964180D01*
X2348740Y1937510D01*
X2346750Y1913510D01*
X2350730Y1889510D01*
X2356700Y1873500D01*
X2368640Y1857500D01*
X2382560Y1846830D01*
X2396490Y1841500D01*
X2410420D01*
X2424340Y1846830D01*
X2436280Y1854830D01*
X2446230Y1865500D01*
G01X2552530Y1841500D02*
X2556510Y1876170D01*
X2562480Y1905500D01*
X2570440Y1932180D01*
X2580390Y1961510D01*
X2596300Y2001520D01*
X2516720D01*
G01X2349500Y4699000D02*
Y4191000D01*
X2095500D01*
Y4699000D01*
X2349500D01*
G01Y4191000D02*
Y4699000D01*
X2095500D01*
Y4191000D01*
X2349500D01*
G01X2628900Y3911600D02*
Y4064000D01*
X2698750Y4127500D01*
Y4254500D01*
X2628900Y4318000D01*
Y4470400D01*
X4851400D01*
Y3911600D01*
X2628900D01*
G01X2635250Y3873500D02*
X4857750D01*
Y4508500D01*
X2635250D01*
G01Y3873500D02*
Y4064000D01*
X2698750Y4127500D01*
Y4254500D01*
X2635250Y4318000D01*
Y4508500D01*
G01X2186260Y4909180D02*
X2174320Y4917190D01*
X2160400Y4922520D01*
X2144480D01*
X2126570Y4914520D01*
X2112650Y4901180D01*
X2102700Y4885180D01*
X2094740Y4858510D01*
X2092750Y4834510D01*
X2096730Y4810510D01*
X2102700Y4794500D01*
X2114640Y4778500D01*
X2128560Y4767830D01*
X2142490Y4762500D01*
X2156420D01*
X2170340Y4767830D01*
X2182280Y4775830D01*
X2192230Y4786500D01*
G01X2264710Y4829170D02*
X2278630Y4847850D01*
X2290570Y4858510D01*
X2306490Y4863840D01*
X2320420Y4858510D01*
X2330360Y4847850D01*
X2338330Y4831840D01*
X2340310Y4813170D01*
X2338330Y4797170D01*
X2330360Y4781170D01*
X2318430Y4767830D01*
X2304500Y4762500D01*
X2288580Y4767830D01*
X2274660Y4783830D01*
X2266690Y4807840D01*
X2264710Y4834510D01*
X2268680Y4869180D01*
X2274660Y4887850D01*
X2284600Y4906520D01*
X2298530Y4919850D01*
X2312460Y4922520D01*
X2326390Y4917190D01*
X2336340Y4903850D01*
G01X3365500Y1143000D02*
G03I-254000J0D01*
G01D02*
G03I-254000J0D01*
G01X2987720Y1778000D02*
Y1938020D01*
X3027510D01*
X3043430Y1930020D01*
X3055370Y1919350D01*
X3065320Y1903350D01*
X3073270Y1884680D01*
X3075260Y1858010D01*
X3073270Y1831340D01*
X3065320Y1812670D01*
X3055370Y1796670D01*
X3043430Y1786000D01*
X3027510Y1778000D01*
X2987720D01*
G01X3187530D02*
X3191510Y1812670D01*
X3197480Y1842000D01*
X3205440Y1868680D01*
X3215390Y1898010D01*
X3231300Y1938020D01*
X3151720D01*
G01X2946400Y1358900D02*
X2844800D01*
G01X2895600Y1308100D02*
Y1409700D01*
G01X2733220Y4932520D02*
Y4817840D01*
X2741170Y4793830D01*
X2757090Y4777830D01*
X2776990Y4772500D01*
X2796890Y4777830D01*
X2812810Y4793830D01*
X2820760Y4817840D01*
Y4932520D01*
G01X2893240Y4804500D02*
X2905170Y4785830D01*
X2921090Y4775170D01*
X2939000Y4772500D01*
X2954920Y4775170D01*
X2970840Y4788500D01*
X2980780Y4804500D01*
X2982770Y4820510D01*
X2978790Y4839170D01*
X2964860Y4852510D01*
X2950940Y4857850D01*
X2933030D01*
G01X2950940D02*
X2962880Y4865840D01*
X2972830Y4879180D01*
X2976800Y4895180D01*
X2972830Y4911180D01*
X2962880Y4924520D01*
X2944970Y4932520D01*
X2927060Y4929850D01*
X2909160Y4919180D01*
G01X3927000Y1647600D02*
Y936400D01*
X3673000D01*
Y1647600D01*
X3927000D01*
G01Y936400D02*
X3673000D01*
Y1647600D01*
X3927000D01*
G01Y936400D02*
Y1647600D01*
G01X4159500Y1113500D02*
X6064500D01*
Y1748500D01*
X4159500D01*
G01Y1113500D02*
Y1304000D01*
X4223000Y1367500D01*
Y1494500D01*
X4159500Y1558000D01*
Y1748500D01*
G01Y1151600D02*
X6064500D01*
Y1710400D01*
X4159500D01*
Y1558000D01*
X4223000Y1494500D01*
Y1367500D01*
X4159500Y1304000D01*
Y1151600D01*
G01X3610190Y2159000D02*
Y2319020D01*
X3659930D01*
X3675850Y2311020D01*
X3685800Y2300350D01*
X3689770Y2279010D01*
X3685800Y2257680D01*
X3673860Y2244350D01*
X3659930Y2236340D01*
X3610190D01*
G01X3659930D02*
X3689770Y2159000D01*
G01X3810000D02*
Y2319020D01*
X3786120Y2287020D01*
G01Y2159000D02*
X3833870D01*
G01X3932220Y2292350D02*
X3944150Y2308350D01*
X3958080Y2316350D01*
X3974000Y2319020D01*
X3993900Y2313690D01*
X4007820Y2300350D01*
X4011800Y2284350D01*
X4009810Y2268340D01*
X4001850Y2255010D01*
X3962060Y2228340D01*
X3944150Y2209670D01*
X3932220Y2183000D01*
X3928240Y2159000D01*
X4011800D01*
G01X4257720Y2319020D02*
Y2204340D01*
X4265670Y2180330D01*
X4281590Y2164330D01*
X4301490Y2159000D01*
X4321390Y2164330D01*
X4337310Y2180330D01*
X4345260Y2204340D01*
Y2319020D01*
G01X4461510Y2159000D02*
Y2319020D01*
X4437630Y2287020D01*
G01Y2159000D02*
X4485380D01*
G01X5475500Y4319000D02*
Y3836400D01*
X5221500D01*
Y4319000D01*
X5475500D01*
G01X5705690Y4762500D02*
Y4922520D01*
X5755430D01*
X5771350Y4914520D01*
X5781300Y4903850D01*
X5785270Y4882510D01*
X5781300Y4861180D01*
X5769360Y4847850D01*
X5755430Y4839840D01*
X5705690D01*
G01X5755430D02*
X5785270Y4762500D01*
G01X5905500D02*
Y4922520D01*
X5881620Y4890520D01*
G01Y4762500D02*
X5929370D01*
G01X6065520Y4922520D02*
X6049600Y4917190D01*
X6037670Y4903850D01*
X6029700Y4887850D01*
X6023740Y4866510D01*
X6021750Y4842510D01*
X6023740Y4818500D01*
X6029700Y4797170D01*
X6037670Y4781170D01*
X6049600Y4767830D01*
X6065520Y4762500D01*
X6081440Y4767830D01*
X6093370Y4781170D01*
X6101340Y4797170D01*
X6107300Y4818500D01*
X6109290Y4842510D01*
X6107300Y4866510D01*
X6101340Y4887850D01*
X6093370Y4903850D01*
X6081440Y4917190D01*
X6065520Y4922520D01*
G01X5222920Y4762500D02*
Y4922520D01*
X5262710D01*
X5278630Y4914520D01*
X5290570Y4903850D01*
X5300520Y4887850D01*
X5308470Y4869180D01*
X5310460Y4842510D01*
X5308470Y4815840D01*
X5300520Y4797170D01*
X5290570Y4781170D01*
X5278630Y4770500D01*
X5262710Y4762500D01*
X5222920D01*
G01X5388910Y4829170D02*
X5402830Y4847850D01*
X5414770Y4858510D01*
X5430690Y4863840D01*
X5444620Y4858510D01*
X5454560Y4847850D01*
X5462530Y4831840D01*
X5464510Y4813170D01*
X5462530Y4797170D01*
X5454560Y4781170D01*
X5442630Y4767830D01*
X5428700Y4762500D01*
X5412780Y4767830D01*
X5398860Y4783830D01*
X5390890Y4807840D01*
X5388910Y4834510D01*
X5392880Y4869180D01*
X5398860Y4887850D01*
X5408800Y4906520D01*
X5422730Y4919850D01*
X5436660Y4922520D01*
X5450590Y4917190D01*
X5460540Y4903850D01*
G01X5475500Y4230100D02*
X5221500D01*
G01X5475500Y4242800D02*
X5221500D01*
G01X5475500Y4230100D02*
X5221500D01*
G01X5475500Y4242800D02*
X5221500D01*
G01X6527000Y1277000D02*
Y769000D01*
X6273000D01*
Y1277000D01*
X6527000D01*
G01Y769000D02*
Y1277000D01*
X6273000D01*
Y769000D01*
X6527000D01*
G01X6377260Y1670680D02*
X6365320Y1678690D01*
X6351400Y1684020D01*
X6335480D01*
X6317570Y1676020D01*
X6303650Y1662680D01*
X6293700Y1646680D01*
X6285740Y1620010D01*
X6283750Y1596010D01*
X6287730Y1572010D01*
X6293700Y1556000D01*
X6305640Y1540000D01*
X6319560Y1529330D01*
X6333490Y1524000D01*
X6347420D01*
X6361340Y1529330D01*
X6373280Y1537330D01*
X6383230Y1548000D01*
G01X6493510Y1524000D02*
Y1684020D01*
X6469630Y1652020D01*
G01Y1524000D02*
X6517380D01*
G01X6025500Y4420600D02*
Y3709400D01*
X5771500D01*
Y4420600D01*
X6025500D01*
G01Y3709400D02*
X5771500D01*
Y4420600D01*
X6025500D01*
G01Y3709400D02*
Y4420600D01*
G01X6662000Y4319000D02*
Y3836400D01*
X6408000D01*
Y4319000D01*
X6662000D01*
G01X6429420Y4699000D02*
Y4859020D01*
X6469210D01*
X6485130Y4851020D01*
X6497070Y4840350D01*
X6507020Y4824350D01*
X6514970Y4805680D01*
X6516960Y4779010D01*
X6514970Y4752340D01*
X6507020Y4733670D01*
X6497070Y4717670D01*
X6485130Y4707000D01*
X6469210Y4699000D01*
X6429420D01*
G01X6589440Y4723000D02*
X6601370Y4709670D01*
X6615300Y4701670D01*
X6633210Y4699000D01*
X6651120Y4704330D01*
X6665040Y4715000D01*
X6674990Y4733670D01*
X6676980Y4755000D01*
X6673000Y4776340D01*
X6663050Y4789680D01*
X6649130Y4800340D01*
X6635200Y4803010D01*
X6621270Y4800340D01*
X6603370Y4789680D01*
X6609330Y4859020D01*
X6663050D01*
G01X6662000Y4230100D02*
X6408000D01*
G01X6662000Y4242800D02*
X6408000D01*
G01X6662000Y4230100D02*
X6408000D01*
G01X6662000Y4242800D02*
X6408000D01*
G01X6673000Y952400D02*
Y1663600D01*
X6927000D01*
Y952400D01*
X6673000D01*
G01Y1663600D02*
X6927000D01*
Y952400D01*
X6673000D01*
G01Y1663600D02*
Y952400D01*
G01X7123000D02*
Y1663600D01*
X7377000D01*
Y952400D01*
X7123000D01*
G01Y1663600D02*
X7377000D01*
Y952400D01*
X7123000D01*
G01Y1663600D02*
Y952400D01*
G01X6674700Y2222500D02*
Y2382520D01*
X6724440D01*
X6740360Y2374520D01*
X6750310Y2363850D01*
X6754280Y2342510D01*
X6750310Y2321180D01*
X6738370Y2307850D01*
X6724440Y2299840D01*
X6674700D01*
G01X6724440D02*
X6754280Y2222500D01*
G01X6836710Y2355850D02*
X6848640Y2371850D01*
X6862570Y2379850D01*
X6878490Y2382520D01*
X6898390Y2377190D01*
X6912310Y2363850D01*
X6916290Y2347850D01*
X6914300Y2331840D01*
X6906340Y2318510D01*
X6866550Y2291840D01*
X6848640Y2273170D01*
X6836710Y2246500D01*
X6832730Y2222500D01*
X6916290D01*
G01X7119200D02*
Y2382520D01*
X7168940D01*
X7184860Y2374520D01*
X7194810Y2363850D01*
X7198780Y2342510D01*
X7194810Y2321180D01*
X7182870Y2307850D01*
X7168940Y2299840D01*
X7119200D01*
G01X7168940D02*
X7198780Y2222500D01*
G01X7319010D02*
Y2382520D01*
X7295130Y2350520D01*
G01Y2222500D02*
X7342880D01*
G01X7262000Y4420600D02*
Y3709400D01*
X7008000D01*
Y4420600D01*
X7262000D01*
G01Y3709400D02*
X7008000D01*
Y4420600D01*
X7262000D01*
G01X6992200Y4699000D02*
Y4859020D01*
X7041940D01*
X7057860Y4851020D01*
X7067810Y4840350D01*
X7071780Y4819010D01*
X7067810Y4797680D01*
X7055870Y4784350D01*
X7041940Y4776340D01*
X6992200D01*
G01X7041940D02*
X7071780Y4699000D01*
G01X7158180Y4717670D02*
X7172110Y4704330D01*
X7188030Y4699000D01*
X7203950Y4704330D01*
X7217880Y4720330D01*
X7227830Y4744340D01*
X7231800Y4768340D01*
Y4797680D01*
X7227830Y4821680D01*
X7217880Y4843020D01*
X7205940Y4853690D01*
X7192010Y4859020D01*
X7176090Y4853690D01*
X7164160Y4843020D01*
X7156190Y4827020D01*
X7152220Y4805680D01*
X7156190Y4787010D01*
X7166140Y4768340D01*
X7178080Y4757670D01*
X7192010Y4755000D01*
X7207930Y4760340D01*
X7219860Y4773670D01*
X7231800Y4797680D01*
G01X7777000Y1327000D02*
Y819000D01*
X7523000D01*
Y1327000D01*
X7777000D01*
G01Y819000D02*
Y1327000D01*
X7523000D01*
Y819000D01*
X7777000D01*
G01X7973000Y1051600D02*
Y1204000D01*
X8036500Y1267500D01*
Y1394500D01*
X7973000Y1458000D01*
Y1610400D01*
X8989000D01*
Y1051600D01*
X7973000D01*
G01Y1013500D02*
X8989000D01*
Y1648500D01*
X7973000D01*
G01Y1013500D02*
Y1204000D01*
X8036500Y1267500D01*
Y1394500D01*
X7973000Y1458000D01*
Y1648500D01*
G01X7583760Y1734180D02*
X7571820Y1742190D01*
X7557900Y1747520D01*
X7541980D01*
X7524070Y1739520D01*
X7510150Y1726180D01*
X7500200Y1710180D01*
X7492240Y1683510D01*
X7490250Y1659510D01*
X7494230Y1635510D01*
X7500200Y1619500D01*
X7512140Y1603500D01*
X7526060Y1592830D01*
X7539990Y1587500D01*
X7553920D01*
X7567840Y1592830D01*
X7579780Y1600830D01*
X7589730Y1611500D01*
G01X7723890Y1587500D02*
Y1747520D01*
X7650270Y1632840D01*
X7749750D01*
G01X8004220Y2255520D02*
Y2140840D01*
X8012170Y2116830D01*
X8028090Y2100830D01*
X8047990Y2095500D01*
X8067890Y2100830D01*
X8083810Y2116830D01*
X8091760Y2140840D01*
Y2255520D01*
G01X8170210Y2228850D02*
X8182140Y2244850D01*
X8196070Y2252850D01*
X8211990Y2255520D01*
X8231890Y2250190D01*
X8245810Y2236850D01*
X8249790Y2220850D01*
X8247800Y2204840D01*
X8239840Y2191510D01*
X8200050Y2164840D01*
X8182140Y2146170D01*
X8170210Y2119500D01*
X8166230Y2095500D01*
X8249790D01*
G01X7262000Y3709400D02*
Y4420600D01*
G01X7948500Y4319000D02*
Y3836400D01*
X7694500D01*
Y4319000D01*
X7948500D01*
G01X7699420Y4699000D02*
Y4859020D01*
X7739210D01*
X7755130Y4851020D01*
X7767070Y4840350D01*
X7777020Y4824350D01*
X7784970Y4805680D01*
X7786960Y4779010D01*
X7784970Y4752340D01*
X7777020Y4733670D01*
X7767070Y4717670D01*
X7755130Y4707000D01*
X7739210Y4699000D01*
X7699420D01*
G01X7927090D02*
Y4859020D01*
X7853470Y4744340D01*
X7952950D01*
G01X7948500Y4230100D02*
X7694500D01*
G01X7948500Y4242800D02*
X7694500D01*
G01X7948500Y4230100D02*
X7694500D01*
G01X7948500Y4242800D02*
X7694500D01*
G01X8498500Y4420600D02*
Y3709400D01*
X8244500D01*
Y4420600D01*
X8498500D01*
G01Y3709400D02*
X8244500D01*
Y4420600D01*
X8498500D01*
G01Y3709400D02*
Y4420600D01*
G01X8262200Y4699000D02*
Y4859020D01*
X8311940D01*
X8327860Y4851020D01*
X8337810Y4840350D01*
X8341780Y4819010D01*
X8337810Y4797680D01*
X8325870Y4784350D01*
X8311940Y4776340D01*
X8262200D01*
G01X8311940D02*
X8341780Y4699000D01*
G01X8458030D02*
X8462010Y4733670D01*
X8467980Y4763000D01*
X8475940Y4789680D01*
X8485890Y4819010D01*
X8501800Y4859020D01*
X8422220D01*
G01X9477000Y1827000D02*
Y1319000D01*
X9223000D01*
Y1827000D01*
X9477000D01*
G01Y1319000D02*
Y1827000D01*
X9223000D01*
Y1319000D01*
X9477000D01*
G01X9298260Y2178680D02*
X9286320Y2186690D01*
X9272400Y2192020D01*
X9256480D01*
X9238570Y2184020D01*
X9224650Y2170680D01*
X9214700Y2154680D01*
X9206740Y2128010D01*
X9204750Y2104010D01*
X9208730Y2080010D01*
X9214700Y2064000D01*
X9226640Y2048000D01*
X9240560Y2037330D01*
X9254490Y2032000D01*
X9268420D01*
X9282340Y2037330D01*
X9294280Y2045330D01*
X9304230Y2056000D01*
G01X9370740D02*
X9382670Y2042670D01*
X9396600Y2034670D01*
X9414510Y2032000D01*
X9432420Y2037330D01*
X9446340Y2048000D01*
X9456290Y2066670D01*
X9458280Y2088000D01*
X9454300Y2109340D01*
X9444350Y2122680D01*
X9430430Y2133340D01*
X9416500Y2136010D01*
X9402570Y2133340D01*
X9384670Y2122680D01*
X9390630Y2192020D01*
X9444350D01*
G01X9658000Y4420600D02*
Y3709400D01*
X9404000D01*
Y4420600D01*
X9658000D01*
G01Y3709400D02*
X9404000D01*
Y4420600D01*
X9658000D01*
G01X9144000Y4318000D02*
Y3835400D01*
X8890000D01*
Y4318000D01*
X9144000D01*
G01X9405200Y4762500D02*
Y4922520D01*
X9454940D01*
X9470860Y4914520D01*
X9480810Y4903850D01*
X9484780Y4882510D01*
X9480810Y4861180D01*
X9468870Y4847850D01*
X9454940Y4839840D01*
X9405200D01*
G01X9454940D02*
X9484780Y4762500D01*
G01X9628890D02*
Y4922520D01*
X9555270Y4807840D01*
X9654750D01*
G01X8941920Y4761500D02*
Y4921520D01*
X8981710D01*
X8997630Y4913520D01*
X9009570Y4902850D01*
X9019520Y4886850D01*
X9027470Y4868180D01*
X9029460Y4841510D01*
X9027470Y4814840D01*
X9019520Y4796170D01*
X9009570Y4780170D01*
X8997630Y4769500D01*
X8981710Y4761500D01*
X8941920D01*
G01X9145710D02*
Y4921520D01*
X9121830Y4889520D01*
G01Y4761500D02*
X9169580D01*
G01X9144000Y4229100D02*
X8890000D01*
G01X9144000Y4241800D02*
X8890000D01*
G01X9144000Y4229100D02*
X8890000D01*
G01X9144000Y4241800D02*
X8890000D01*
G01X10287000Y914400D02*
Y1625600D01*
X10541000D01*
Y914400D01*
X10287000D01*
G01Y1625600D02*
X10541000D01*
Y914400D01*
X10287000D01*
G01Y1625600D02*
Y914400D01*
G01X10096500Y1016000D02*
G03I-254000J0D01*
G01D02*
G03I-254000J0D01*
G01X9806260Y1670680D02*
X9794320Y1678690D01*
X9780400Y1684020D01*
X9764480D01*
X9746570Y1676020D01*
X9732650Y1662680D01*
X9722700Y1646680D01*
X9714740Y1620010D01*
X9712750Y1596010D01*
X9716730Y1572010D01*
X9722700Y1556000D01*
X9734640Y1540000D01*
X9748560Y1529330D01*
X9762490Y1524000D01*
X9776420D01*
X9790340Y1529330D01*
X9802280Y1537330D01*
X9812230Y1548000D01*
G01X9884710Y1657350D02*
X9896640Y1673350D01*
X9910570Y1681350D01*
X9926490Y1684020D01*
X9946390Y1678690D01*
X9960310Y1665350D01*
X9964290Y1649350D01*
X9962300Y1633340D01*
X9954340Y1620010D01*
X9914550Y1593340D01*
X9896640Y1574670D01*
X9884710Y1548000D01*
X9880730Y1524000D01*
X9964290D01*
G01X9677400Y1231900D02*
X9575800D01*
G01X9626600Y1181100D02*
Y1282700D01*
G01X10294200Y2159000D02*
Y2319020D01*
X10343940D01*
X10359860Y2311020D01*
X10369810Y2300350D01*
X10373780Y2279010D01*
X10369810Y2257680D01*
X10357870Y2244350D01*
X10343940Y2236340D01*
X10294200D01*
G01X10343940D02*
X10373780Y2159000D01*
G01X10494010D02*
X10507940Y2161670D01*
X10523850Y2169670D01*
X10533800Y2183000D01*
X10537780Y2201670D01*
X10533800Y2220340D01*
X10521860Y2236340D01*
X10503960Y2244350D01*
X10484060D01*
X10472120Y2249680D01*
X10462170Y2263010D01*
X10458190Y2281680D01*
X10464170Y2300350D01*
X10478090Y2313690D01*
X10494010Y2319020D01*
X10509930Y2313690D01*
X10523850Y2300350D01*
X10529830Y2281680D01*
X10525840Y2263010D01*
X10515900Y2249680D01*
X10503960Y2244350D01*
X10484060D01*
X10466160Y2236340D01*
X10454220Y2220340D01*
X10450240Y2201670D01*
X10454220Y2183000D01*
X10464170Y2169670D01*
X10480080Y2161670D01*
X10494010Y2159000D01*
G01X9658000Y3709400D02*
Y4420600D01*
G01X10287000Y4318000D02*
Y3835400D01*
X10033000D01*
Y4318000D01*
X10287000D01*
G01X10041420Y4761500D02*
Y4921520D01*
X10081210D01*
X10097130Y4913520D01*
X10109070Y4902850D01*
X10119020Y4886850D01*
X10126970Y4868180D01*
X10128960Y4841510D01*
X10126970Y4814840D01*
X10119020Y4796170D01*
X10109070Y4780170D01*
X10097130Y4769500D01*
X10081210Y4761500D01*
X10041420D01*
G01X10207410Y4894850D02*
X10219340Y4910850D01*
X10233270Y4918850D01*
X10249190Y4921520D01*
X10269090Y4916190D01*
X10283010Y4902850D01*
X10286990Y4886850D01*
X10285000Y4870840D01*
X10277040Y4857510D01*
X10237250Y4830840D01*
X10219340Y4812170D01*
X10207410Y4785500D01*
X10203430Y4761500D01*
X10286990D01*
G01X10287000Y4229100D02*
X10033000D01*
G01X10287000Y4241800D02*
X10033000D01*
G01X10287000Y4229100D02*
X10033000D01*
G01X10287000Y4241800D02*
X10033000D01*
G01X10854690Y190500D02*
X10838770Y193170D01*
X10824850Y203830D01*
X10812910Y219840D01*
X10804950Y238510D01*
X10800970Y259840D01*
Y281180D01*
X10804950Y302510D01*
X10812910Y321180D01*
X10824850Y337180D01*
X10838770Y347850D01*
X10854690Y350520D01*
X10870610Y347850D01*
X10884530Y337180D01*
X10896470Y321180D01*
X10904430Y302510D01*
X10908410Y281180D01*
Y259840D01*
X10904430Y238510D01*
X10896470Y219840D01*
X10884530Y203830D01*
X10870610Y193170D01*
X10854690Y190500D01*
G01X10870610Y233170D02*
X10894480Y190500D01*
G01X10976910Y323850D02*
X10988840Y339850D01*
X11002770Y347850D01*
X11018690Y350520D01*
X11038590Y345190D01*
X11052510Y331850D01*
X11056490Y315850D01*
X11054500Y299840D01*
X11046540Y286510D01*
X11006750Y259840D01*
X10988840Y241170D01*
X10976910Y214500D01*
X10972930Y190500D01*
X11056490D01*
G01X10791190Y2413000D02*
X10775270Y2415670D01*
X10761350Y2426330D01*
X10749410Y2442340D01*
X10741450Y2461010D01*
X10737470Y2482340D01*
Y2503680D01*
X10741450Y2525010D01*
X10749410Y2543680D01*
X10761350Y2559680D01*
X10775270Y2570350D01*
X10791190Y2573020D01*
X10807110Y2570350D01*
X10821030Y2559680D01*
X10832970Y2543680D01*
X10840930Y2525010D01*
X10844910Y2503680D01*
Y2482340D01*
X10840930Y2461010D01*
X10832970Y2442340D01*
X10821030Y2426330D01*
X10807110Y2415670D01*
X10791190Y2413000D01*
G01X10807110Y2455670D02*
X10830980Y2413000D01*
G01X10951210D02*
Y2573020D01*
X10927330Y2541020D01*
G01Y2413000D02*
X10975080D01*
G01X10781000Y4420600D02*
Y3709400D01*
X10527000D01*
Y4420600D01*
X10781000D01*
G01Y3709400D02*
X10527000D01*
Y4420600D01*
X10781000D01*
G01Y3709400D02*
Y4420600D01*
G01X10548200Y4762500D02*
Y4922520D01*
X10597940D01*
X10613860Y4914520D01*
X10623810Y4903850D01*
X10627780Y4882510D01*
X10623810Y4861180D01*
X10611870Y4847850D01*
X10597940Y4839840D01*
X10548200D01*
G01X10597940D02*
X10627780Y4762500D01*
G01X10704240Y4786500D02*
X10716170Y4773170D01*
X10730100Y4765170D01*
X10748010Y4762500D01*
X10765920Y4767830D01*
X10779840Y4778500D01*
X10789790Y4797170D01*
X10791780Y4818500D01*
X10787800Y4839840D01*
X10777850Y4853180D01*
X10763930Y4863840D01*
X10750000Y4866510D01*
X10736070Y4863840D01*
X10718170Y4853180D01*
X10724130Y4922520D01*
X10777850D01*
G01X11437200Y286000D02*
X11447150Y270000D01*
X11459080Y259330D01*
X11473010Y254000D01*
X11488930Y259330D01*
X11500870Y270000D01*
X11512810Y286000D01*
X11516780Y307340D01*
Y414020D01*
G01X11637010Y254000D02*
Y414020D01*
X11613130Y382020D01*
G01Y254000D02*
X11660880D01*
G01X11423000Y1027000D02*
X11677000D01*
Y519000D01*
X11423000D01*
Y1027000D01*
G01X11811000Y1778000D02*
G03I-254000J0D01*
G01D02*
G03I-254000J0D01*
G01X11520760Y2432680D02*
X11508820Y2440690D01*
X11494900Y2446020D01*
X11478980D01*
X11461070Y2438020D01*
X11447150Y2424680D01*
X11437200Y2408680D01*
X11429240Y2382010D01*
X11427250Y2358010D01*
X11431230Y2334010D01*
X11437200Y2318000D01*
X11449140Y2302000D01*
X11463060Y2291330D01*
X11476990Y2286000D01*
X11490920D01*
X11504840Y2291330D01*
X11516780Y2299330D01*
X11526730Y2310000D01*
G01X11593240Y2318000D02*
X11605170Y2299330D01*
X11621090Y2288670D01*
X11639000Y2286000D01*
X11654920Y2288670D01*
X11670840Y2302000D01*
X11680780Y2318000D01*
X11682770Y2334010D01*
X11678790Y2352670D01*
X11664860Y2366010D01*
X11650940Y2371350D01*
X11633030D01*
G01X11650940D02*
X11662880Y2379340D01*
X11672830Y2392680D01*
X11676800Y2408680D01*
X11672830Y2424680D01*
X11662880Y2438020D01*
X11644970Y2446020D01*
X11627060Y2443350D01*
X11609160Y2432680D01*
G01X11391900Y1993900D02*
X11290300D01*
G01X11341100Y1943100D02*
Y2044700D01*
G01X11867500Y4420600D02*
Y3709400D01*
X11613500D01*
Y4420600D01*
X11867500D01*
G01Y3709400D02*
X11613500D01*
Y4420600D01*
X11867500D01*
G01X11367500Y4319000D02*
Y3836400D01*
X11113500D01*
Y4319000D01*
X11367500D01*
G01X11627700Y4762500D02*
Y4922520D01*
X11677440D01*
X11693360Y4914520D01*
X11703310Y4903850D01*
X11707280Y4882510D01*
X11703310Y4861180D01*
X11691370Y4847850D01*
X11677440Y4839840D01*
X11627700D01*
G01X11677440D02*
X11707280Y4762500D01*
G01X11789710Y4829170D02*
X11803630Y4847850D01*
X11815570Y4858510D01*
X11831490Y4863840D01*
X11845420Y4858510D01*
X11855360Y4847850D01*
X11863330Y4831840D01*
X11865310Y4813170D01*
X11863330Y4797170D01*
X11855360Y4781170D01*
X11843430Y4767830D01*
X11829500Y4762500D01*
X11813580Y4767830D01*
X11799660Y4783830D01*
X11791690Y4807840D01*
X11789710Y4834510D01*
X11793680Y4869180D01*
X11799660Y4887850D01*
X11809600Y4906520D01*
X11823530Y4919850D01*
X11837460Y4922520D01*
X11851390Y4917190D01*
X11861340Y4903850D01*
G01X11128420Y4762500D02*
Y4922520D01*
X11168210D01*
X11184130Y4914520D01*
X11196070Y4903850D01*
X11206020Y4887850D01*
X11213970Y4869180D01*
X11215960Y4842510D01*
X11213970Y4815840D01*
X11206020Y4797170D01*
X11196070Y4781170D01*
X11184130Y4770500D01*
X11168210Y4762500D01*
X11128420D01*
G01X11288440Y4794500D02*
X11300370Y4775830D01*
X11316290Y4765170D01*
X11334200Y4762500D01*
X11350120Y4765170D01*
X11366040Y4778500D01*
X11375980Y4794500D01*
X11377970Y4810510D01*
X11373990Y4829170D01*
X11360060Y4842510D01*
X11346140Y4847850D01*
X11328230D01*
G01X11346140D02*
X11358080Y4855840D01*
X11368030Y4869180D01*
X11372000Y4885180D01*
X11368030Y4901180D01*
X11358080Y4914520D01*
X11340170Y4922520D01*
X11322260Y4919850D01*
X11304360Y4909180D01*
G01X11367500Y4230100D02*
X11113500D01*
G01X11367500Y4242800D02*
X11113500D01*
G01X11367500Y4230100D02*
X11113500D01*
G01X11367500Y4242800D02*
X11113500D01*
G01X11867500Y3709400D02*
Y4420600D01*
M02*
