G04 ================== begin FILE IDENTIFICATION RECORD ==================*
G04 Layout Name:  D:/ORCAD/B07_1020/allegro/B07_1020.brd*
G04 Film Name:    TOP*
G04 File Format:  Gerber RS274X*
G04 File Origin:  Cadence Allegro 17.2-S073*
G04 Origin Date:  Mon Oct 23 15:25:08 2023*
G04 *
G04 Layer:  BOARD GEOMETRY/DESIGN_OUTLINE*
G04 Layer:  ETCH/TOP*
G04 Layer:  PIN/TOP*
G04 Layer:  VIA CLASS/TOP*
G04 *
G04 Offset:    (0.0000 0.0000)*
G04 Mirror:    No*
G04 Mode:      Positive*
G04 Rotation:  0*
G04 FullContactRelief:  No*
G04 UndefLineWidth:     0.2000*
G04 ================== end FILE IDENTIFICATION RECORD ====================*
%FSLAX25Y25*MOMM*%
%IR0*IPPOS*OFA0.00000B0.00000*MIA0B0*SFA1.00000B1.00000*%
%ADD10C,1.524*%
%ADD13C,1.651*%
%ADD12C,1.905*%
%ADD14R,1.524X1.524*%
%ADD16C,1.397*%
%ADD11R,1.905X1.905*%
%ADD15R,1.397X1.397*%
%ADD17C,.5*%
%ADD18C,1.*%
%ADD19C,.2*%
G75*
%LPD*%
G75*
G54D10*
X400000Y1154000D03*
Y900000D03*
X444500Y3873500D03*
Y4127500D03*
X1778000Y889000D03*
Y1143000D03*
X3111500Y1016000D03*
Y1270000D03*
X3365500Y3810000D03*
X3111500D03*
X2857500Y4572000D03*
X3111500D03*
X3365500D03*
X4127500Y3810000D03*
X3873500D03*
X3619500D03*
Y4572000D03*
X3873500D03*
X4127500D03*
X4858000Y1050000D03*
X4604000D03*
X4858000Y1812000D03*
X4604000D03*
X4350000D03*
X4635500Y3810000D03*
X4381500D03*
Y4572000D03*
X4635500D03*
X5620000Y1050000D03*
X5366000D03*
X5112000D03*
X5620000Y1812000D03*
X5366000D03*
X5112000D03*
X5348500Y3582400D03*
X5874000Y1050000D03*
Y1812000D03*
X6535000Y3582400D03*
X8100000Y1712000D03*
X7821500Y3582400D03*
X8862000Y950000D03*
X8608000D03*
X8354000D03*
X8862000Y1712000D03*
X8608000D03*
X8354000D03*
X9017000Y3581400D03*
X9842500Y889000D03*
Y1143000D03*
X10160000Y3581400D03*
X11550000Y646000D03*
Y900000D03*
X11557000Y1651000D03*
Y1905000D03*
X11240500Y3582400D03*
G54D11*
X950000Y900000D03*
G54D12*
Y1154000D03*
Y1408000D03*
G54D13*
X1143000Y3556000D03*
Y4572000D03*
X1714500Y3556000D03*
Y4572000D03*
X2500000Y1150000D03*
Y1404000D03*
X2222500Y4318000D03*
Y4572000D03*
X3800000Y784000D03*
Y1800000D03*
X6400000Y896000D03*
Y1150000D03*
X5898500Y3557000D03*
Y4573000D03*
X6800000Y800000D03*
X7250000D03*
X6800000Y1816000D03*
X7250000D03*
X7135000Y3557000D03*
Y4573000D03*
X7650000Y946000D03*
Y1200000D03*
X8371500Y3557000D03*
Y4573000D03*
X9350000Y1446000D03*
Y1700000D03*
X9531000Y3557000D03*
Y4573000D03*
X10414000Y762000D03*
Y1778000D03*
X10654000Y3557000D03*
Y4573000D03*
X11740500Y3557000D03*
Y4573000D03*
G54D14*
X2857500Y3810000D03*
X4350000Y1050000D03*
X5348500Y4573000D03*
X6535000D03*
X8100000Y950000D03*
X7821500Y4573000D03*
X9017000Y4572000D03*
X10160000D03*
X11240500Y4573000D03*
G54D15*
X10850000Y1150000D03*
Y2100000D03*
G54D16*
Y896000D03*
Y642000D03*
Y1846000D03*
Y1592000D03*
G54D17*
G01X400000Y900000D02*
X950000D01*
G01X444500Y3873500D02*
X1016000D01*
X1714500Y4572000D01*
G01X444500Y4127500D02*
X698500D01*
X1143000Y4572000D01*
G01X2222500D02*
X2032000Y4762500D01*
X1333500D01*
X1143000Y4572000D01*
G01X3619500D02*
X3302000Y4889500D01*
X2540000D01*
X2222500Y4572000D01*
G01X3111500Y1270000D02*
X3314000D01*
X3800000Y784000D01*
G01X9017000Y3581400D02*
X8280400Y4318000D01*
X3873500D01*
X3365500Y3810000D01*
G01X10160000Y3581400D02*
X9301350Y4440050D01*
X3741550D01*
X3111500Y3810000D01*
G01X7821500Y3582400D02*
X7162900Y4241000D01*
X4050500D01*
X3619500Y3810000D01*
G01X6400000Y1150000D02*
X6078000Y828000D01*
X5080000D01*
X4858000Y1050000D01*
G01X4350000D02*
X4604000D01*
G01D02*
X4760500Y1206500D01*
X4955500D01*
X5112000Y1050000D01*
G01X6535000Y3582400D02*
X5989900Y4127500D01*
X4699000D01*
X4381500Y3810000D01*
G01X7250000Y1816000D02*
X7097500Y1968500D01*
X6223000D01*
X5939900Y1685400D01*
X5747400D01*
X5112000Y1050000D01*
G01X6800000Y1816000D02*
X6386000D01*
X5620000Y1050000D01*
G01X5348500Y4573000D02*
X5898500D01*
G01X8862000Y950000D02*
X8466400Y1345600D01*
X6595600D01*
X6400000Y1150000D01*
G01X6800000Y800000D02*
X6496000D01*
X6400000Y896000D01*
G01X7135000Y3557000D02*
X6943500Y3365500D01*
X6090000D01*
X5898500Y3557000D01*
G01X6800000Y800000D02*
X7250000D01*
G01X7135000Y3557000D02*
X7326500Y3365500D01*
X8180000D01*
X8371500Y3557000D01*
G01X6535000Y4573000D02*
X7135000D01*
G01X7650000Y1200000D02*
X8104000D01*
X8354000Y950000D01*
G01X7821500Y4573000D02*
X8371500D01*
G01X9842500Y1143000D02*
X9461500Y762000D01*
X8796000D01*
X8608000Y950000D01*
G01X8371500Y3557000D02*
X8563000Y3365500D01*
X9339500D01*
X9531000Y3557000D01*
G01X8862000Y1712000D02*
X9205040D01*
X9217040Y1700000D01*
X9350000D01*
G01X10654000Y3557000D02*
X10412500Y3315500D01*
X9772500D01*
X9531000Y3557000D01*
G01X9017000Y4572000D02*
X9397040D01*
X9398040Y4573000D01*
X9531000D01*
G01X10160000Y4572000D02*
X10520040D01*
X10521040Y4573000D01*
X10654000D01*
G01X10850000Y1592000D02*
X11244000D01*
X11557000Y1905000D01*
G01X11240500Y3582400D02*
X10812360D01*
X10786960Y3557000D01*
X10654000D01*
G01X11740500D02*
X11392500D01*
X11367100Y3582400D01*
X11240500D01*
G01Y4573000D02*
X11740500D01*
G54D18*
G01X400000Y1154000D02*
X950000D01*
G01D02*
X1513000D01*
X1778000Y889000D01*
G01X950000Y1408000D02*
X2338040D01*
X2342040Y1404000D01*
X2500000D01*
G01X1143000Y3556000D02*
X1460500D01*
X2222500Y4318000D01*
G01X4635500Y3810000D02*
X4064000Y3238500D01*
X1460500D01*
X1143000Y3556000D01*
G01X1778000Y889000D02*
X2239000D01*
X2500000Y1150000D01*
G01X1714500Y3556000D02*
X1826200Y3667700D01*
X1953200D01*
X2857500Y4572000D01*
G01X3111500Y1016000D02*
X2634000D01*
X2500000Y1150000D01*
G01Y1404000D02*
X2651600Y1555600D01*
X3555610D01*
X3800000Y1800000D01*
G01X7650000Y946000D02*
X7085000Y381000D01*
X3746500D01*
X3111500Y1016000D01*
G01X3365500Y4572000D02*
X3175000Y4762500D01*
X3048000D01*
X2857500Y4572000D01*
G01X3800000Y1800000D02*
X4186400D01*
X4198400Y1812000D01*
X4350000D01*
G01X8100000Y1712000D02*
X7743100Y2068900D01*
X4606900D01*
X4350000Y1812000D01*
G01X9350000Y1446000D02*
X6270000D01*
X5874000Y1050000D01*
G01X7650000Y946000D02*
X7944400D01*
X7948400Y950000D01*
X8100000D01*
G01X11550000Y646000D02*
X11221500Y317500D01*
X8732500D01*
X8100000Y950000D01*
G01X10850000Y1846000D02*
X10727500Y1968500D01*
X8356500D01*
X8100000Y1712000D01*
G01X9350000Y1446000D02*
X10046000D01*
X10850000Y642000D01*
G01D02*
X11394400D01*
X11398400Y646000D01*
X11550000D01*
G54D19*
G01X12000000Y0D02*
Y5000000D01*
X0D01*
Y0D01*
X12000000D01*
M02*
