G04 ================== begin FILE IDENTIFICATION RECORD ==================*
G04 Layout Name:  D:/ORCAD/B07_OSC/allegro/B07_OSC_1.brd*
G04 Film Name:    BOTTOM*
G04 File Format:  Gerber RS274X*
G04 File Origin:  Cadence Allegro 17.2-S073*
G04 Origin Date:  Mon Jul 10 15:04:58 2023*
G04 *
G04 Layer:  BOARD GEOMETRY/DESIGN_OUTLINE*
G04 Layer:  ETCH/BOTTOM*
G04 Layer:  PIN/BOTTOM*
G04 Layer:  VIA CLASS/BOTTOM*
G04 *
G04 Offset:    (0.0000 0.0000)*
G04 Mirror:    No*
G04 Mode:      Positive*
G04 Rotation:  0*
G04 FullContactRelief:  No*
G04 UndefLineWidth:     0.0000*
G04 ================== end FILE IDENTIFICATION RECORD ====================*
%FSLAX35Y35*MOMM*%
%IR0*IPPOS*OFA0.00000B0.00000*MIA0B0*SFA1.00000B1.00000*%
%ADD10C,.635*%
%ADD13C,.6096*%
%ADD12C,1.524*%
%ADD11C,1.651*%
%ADD14R,1.524X1.524*%
%ADD15C,.3*%
%ADD16C,.5*%
%ADD17C,.0127*%
%ADD18C,2.5244*%
%ADD19C,2.6514*%
G75*
%LPD*%
G75*
G36*
G01X754020Y6477000D02*
X9245980D01*
Y6245980D01*
X9508000D01*
Y3636360D01*
G02X9498000Y3626200I-10161J0D01*
G03X9373780Y3500000I1996J-126200D01*
G03X9454000Y3382460I126221J0D01*
G02Y3363540I-3703J-9460D01*
G03X9373780Y3246000I46001J-117540D01*
G03X9498000Y3119800I126216J0D01*
G02X9508000Y3109640I-161J-10160D01*
G01Y754020D01*
X9245980D01*
Y477000D01*
X3789780D01*
G02X3779620Y487160I-2J10158D01*
G03X3774830Y495780I-10160J-5D01*
G02X3769920Y499100I42606J68302D01*
G01X3547340D01*
G02X3542430Y495780I-47516J64982D01*
G03X3537640Y487160I5370J-8625D01*
G02X3527480Y477000I-10158J-2D01*
G01X754020D01*
Y754020D01*
X508000D01*
Y2865950D01*
X512570Y2866410D01*
G03X626220Y2992000I-12567J125590D01*
G03X546000Y3109540I-126221J0D01*
G02Y3128460I3703J9460D01*
G03Y3363540I-46001J117540D01*
G02Y3382460I3703J9460D01*
G03X626220Y3500000I-46001J117540D01*
G03X512570Y3625590I-126217J0D01*
G01X508000Y3626050D01*
Y6245980D01*
X754020D01*
Y6477000D01*
G37*
%LPC*%
G75*
G36*
G01X1139500Y5767960D02*
G03Y5786040I-4637J9040D01*
G02X1067430Y5904000I60500J117960D01*
G02X1332570I132570J0D01*
G02X1260500Y5786040I-132570J0D01*
G03Y5767960I4637J-9040D01*
G02X1332570Y5650000I-60500J-117960D01*
G02X1067430I-132570J0D01*
G02X1139500Y5767960I132570J0D01*
G37*
G36*
G01X2089500D02*
G03Y5786040I-4637J9040D01*
G02X2017430Y5904000I60500J117960D01*
G02X2282570I132570J0D01*
G02X2210500Y5786040I-132570J0D01*
G03Y5767960I4637J-9040D01*
G02X2282570Y5650000I-60500J-117960D01*
G02X2017430I-132570J0D01*
G02X2089500Y5767960I132570J0D01*
G37*
G36*
G01X3089500D02*
G03Y5786040I-4637J9040D01*
G02X3017430Y5904000I60500J117960D01*
G02X3282570I132570J0D01*
G02X3210500Y5786040I-132570J0D01*
G03Y5767960I4637J-9040D01*
G02X3282570Y5650000I-60500J-117960D01*
G02X3017430I-132570J0D01*
G02X3089500Y5767960I132570J0D01*
G37*
G36*
G01X4039500D02*
G03Y5786040I-4637J9040D01*
G02X3967430Y5904000I60500J117960D01*
G02X4232570I132570J0D01*
G02X4160500Y5786040I-132570J0D01*
G03Y5767960I4637J-9040D01*
G02X4232570Y5650000I-60500J-117960D01*
G02X3967430I-132570J0D01*
G02X4039500Y5767960I132570J0D01*
G37*
G36*
G01X3473780Y4476200D02*
G02X3523800Y4526220I50020J0D01*
G01X3676200D01*
G02X3726220Y4476200I0J-50020D01*
G01Y4323800D01*
G02X3676200Y4273780I-50020J0D01*
G01X3669030D01*
G03X3663890Y4254860I1J-10158D01*
G02X3726220Y4146000I-63898J-108860D01*
G02X3646000Y4028460I-126221J0D01*
G03Y4009540I3703J-9460D01*
G02Y3774460I-46001J-117540D01*
G03Y3755540I3703J-9460D01*
G02X3726220Y3638000I-46001J-117540D01*
G02X3473780I-126220J0D01*
G02X3554000Y3755540I126221J0D01*
G03Y3774460I-3703J9460D01*
G02Y4009540I46001J117540D01*
G03Y4028460I-3703J9460D01*
G02X3473780Y4146000I46001J117540D01*
G02X3536110Y4254860I126228J0D01*
G03X3530970Y4273780I-5141J8762D01*
G01X3523800D01*
G02X3473780Y4323800I0J50020D01*
G01Y4476200D01*
G37*
G36*
G01X4973780D02*
G02X5023800Y4526220I50020J0D01*
G01X5176200D01*
G02X5226220Y4476200I0J-50020D01*
G01Y4323800D01*
G02X5176200Y4273780I-50020J0D01*
G01X5169030D01*
G03X5163890Y4254860I1J-10158D01*
G02X5226220Y4146000I-63898J-108860D01*
G02X5146000Y4028460I-126221J0D01*
G03Y4009540I3703J-9460D01*
G02Y3774460I-46001J-117540D01*
G03Y3755540I3703J-9460D01*
G02X5226220Y3638000I-46001J-117540D01*
G02X4973780I-126220J0D01*
G02X5054000Y3755540I126221J0D01*
G03Y3774460I-3703J9460D01*
G02Y4009540I46001J117540D01*
G03Y4028460I-3703J9460D01*
G02X4973780Y4146000I46001J117540D01*
G02X5036110Y4254860I126228J0D01*
G03X5030970Y4273780I-5141J8762D01*
G01X5023800D01*
G02X4973780Y4323800I0J50020D01*
G01Y4476200D01*
G37*
G36*
G01X5816000Y4282460D02*
G02X5735780Y4400000I46001J117540D01*
G02X5988220I126220J0D01*
G02X5908000Y4282460I-126221J0D01*
G03Y4263540I3703J-9460D01*
G02Y4028460I-46001J-117540D01*
G03Y4009540I3703J-9460D01*
G02Y3774460I-46001J-117540D01*
G03Y3755540I3703J-9460D01*
G02X5988220Y3638000I-46001J-117540D01*
G02X5735780I-126220J0D01*
G02X5816000Y3755540I126221J0D01*
G03Y3774460I-3703J9460D01*
G02Y4009540I46001J117540D01*
G03Y4028460I-3703J9460D01*
G02Y4263540I46001J117540D01*
G03Y4282460I-3703J9460D01*
G37*
G36*
G01X7316000D02*
G02X7235780Y4400000I46001J117540D01*
G02X7488220I126220J0D01*
G02X7408000Y4282460I-126221J0D01*
G03Y4263540I3703J-9460D01*
G02Y4028460I-46001J-117540D01*
G03Y4009540I3703J-9460D01*
G02Y3774460I-46001J-117540D01*
G03Y3755540I3703J-9460D01*
G02X7488220Y3638000I-46001J-117540D01*
G02X7235780I-126220J0D01*
G02X7316000Y3755540I126221J0D01*
G03Y3774460I-3703J9460D01*
G02Y4009540I46001J117540D01*
G03Y4028460I-3703J9460D01*
G02Y4263540I46001J117540D01*
G03Y4282460I-3703J9460D01*
G37*
G36*
G01X7973780Y4476200D02*
G02X8023800Y4526220I50020J0D01*
G01X8176200D01*
G02X8226220Y4476200I0J-50020D01*
G01Y4323800D01*
G02X8176200Y4273780I-50020J0D01*
G01X8169030D01*
G03X8163890Y4254860I1J-10158D01*
G02X8226220Y4146000I-63898J-108860D01*
G02X8146000Y4028460I-126221J0D01*
G03Y4009540I3703J-9460D01*
G02Y3774460I-46001J-117540D01*
G03Y3755540I3703J-9460D01*
G02X8226220Y3638000I-46001J-117540D01*
G02X7973780I-126220J0D01*
G02X8054000Y3755540I126221J0D01*
G03Y3774460I-3703J9460D01*
G02Y4009540I46001J117540D01*
G03Y4028460I-3703J9460D01*
G02X7973780Y4146000I46001J117540D01*
G02X8036110Y4254860I126228J0D01*
G03X8030970Y4273780I-5141J8762D01*
G01X8023800D01*
G02X7973780Y4323800I0J50020D01*
G01Y4476200D01*
G37*
G36*
G01X8816000Y4282460D02*
G02X8735780Y4400000I46001J117540D01*
G02X8988220I126220J0D01*
G02X8908000Y4282460I-126221J0D01*
G03Y4263540I3703J-9460D01*
G02Y4028460I-46001J-117540D01*
G03Y4009540I3703J-9460D01*
G02Y3774460I-46001J-117540D01*
G03Y3755540I3703J-9460D01*
G02X8988220Y3638000I-46001J-117540D01*
G02X8735780I-126220J0D01*
G02X8816000Y3755540I126221J0D01*
G03Y3774460I-3703J9460D01*
G02Y4009540I46001J117540D01*
G03Y4028460I-3703J9460D01*
G02Y4263540I46001J117540D01*
G03Y4282460I-3703J9460D01*
G37*
G36*
G01X2018030Y1730280D02*
X2019600Y1730560D01*
X2142940Y1853900D01*
X2143220Y1855470D01*
G02X2222500Y1922000I79280J-13972D01*
G02X2303000Y1841500I0J-80500D01*
G02X2236470Y1762220I-80502J0D01*
G01X2234900Y1761940D01*
X2111560Y1638600D01*
X2111280Y1637030D01*
G02X2032000Y1570500I-79280J13972D01*
G02X1951500Y1651000I0J80500D01*
G02X2018030Y1730280I80502J0D01*
G37*
G36*
G01X2587460Y2093980D02*
G02X2540000Y2078500I-47460J65014D01*
G02Y2239500I0J80500D01*
G02X2587460Y2224020I0J-80494D01*
G01X3191040D01*
G02X3238500Y2239500I47460J-65014D01*
G02Y2078500I0J-80500D01*
G02X3191040Y2093980I0J80494D01*
G01X2587460D01*
G37*
G36*
G01X3371360Y2086840D02*
Y2302040D01*
G02X3355880Y2349500I65014J47460D01*
G02X3516880I80500J0D01*
G02X3501400Y2302040I-80494J0D01*
G01Y2086840D01*
G02X3516880Y2039380I-65014J-47460D01*
G02X3355880I-80500J0D01*
G02X3371360Y2086840I80494J0D01*
G37*
G36*
G01X5744190Y2972980D02*
G02X5715000Y2967500I-29193J75019D01*
G02Y3128500I0J80500D01*
G02X5744190Y3123020I-3J-80499D01*
G01X6320810D01*
G02X6350000Y3128500I29193J-75019D01*
G02Y2967500I0J-80500D01*
G02X6320810Y2972980I3J80499D01*
G01X5744190D01*
G37*
G36*
G01X4792730Y3317710D02*
Y3667290D01*
G02X4777250Y3714750I65014J47460D01*
G02X4938250I80500J0D01*
G02X4922770Y3667290I-80494J0D01*
G01Y3317710D01*
G02X4931050Y3303520I-65025J-47453D01*
G01X6239040D01*
G02X6286500Y3319000I47460J-65014D01*
G02Y3158000I0J-80500D01*
G02X6239040Y3173480I0J80494D01*
G01X4953180D01*
X4933100Y3153390D01*
G02X4922830Y3145040I-45940J46013D01*
G03X4920490Y3130180I5581J-8493D01*
G02X4938250Y3079750I-62738J-50437D01*
G02X4871720Y3000470I-80502J0D01*
G01X4870150Y3000190D01*
X4819820Y2949860D01*
G03X4827000Y2932520I7183J-7182D01*
G01X5431810D01*
G02X5461000Y2938000I29193J-75019D01*
G02Y2777000I0J-80500D01*
G02X5431810Y2782480I3J80499D01*
G01X4791690D01*
G02X4762500Y2777000I-29193J75019D01*
G02X4697140Y2810500I0J80510D01*
G03X4681710Y2811760I-8250J-5927D01*
G01X4363980Y2494020D01*
G02X4318000Y2474980I-45973J45983D01*
G01X2658340D01*
G02X2610880Y2459500I-47460J65014D01*
G02X2530380Y2540000I0J80500D01*
G01Y2540800D01*
G03X2513040Y2548090I-10158J105D01*
G01X2048060Y2083100D01*
X2047780Y2081530D01*
G02X1968500Y2015000I-79280J13972D01*
G02X1888000Y2095500I0J80500D01*
G02X1954530Y2174780I80502J0D01*
G01X1956100Y2175060D01*
X2184730Y2403680D01*
X2180720Y2407690D01*
X2180210Y2408000D01*
G02X2175040Y2411480I42333J68471D01*
G01X2015960D01*
G02X1968500Y2396000I-47460J65014D01*
G02Y2557000I0J80500D01*
G02X2015960Y2541520I0J-80494D01*
G01X2175040D01*
G02X2222500Y2557000I47460J-65014D01*
G02X2287860Y2523500I0J-80510D01*
G03X2303290Y2522240I8250J5927D01*
G01X2817560Y3036520D01*
G03X2810380Y3053860I-7183J7182D01*
G01X2637810D01*
X2331980Y2748020D01*
G02X2286000Y2728980I-45973J45983D01*
G01X2142960D01*
G02X2095500Y2713500I-47460J65014D01*
G02Y2874500I0J80500D01*
G02X2142960Y2859020I0J-80494D01*
G01X2259070D01*
X2556180Y3156140D01*
G03X2549000Y3173480I-7183J7182D01*
G01X2079460D01*
G02X2032000Y3158000I-47460J65014D01*
G02X1951500Y3238500I0J80500D01*
G02X1982000Y3301590I80502J0D01*
G03X1982220Y3309370I-3151J3982D01*
G02X1978950Y3312450I49781J56127D01*
G01X1915450Y3375950D01*
G02X1893480Y3429000I53064J53050D01*
G01Y3526810D01*
G02X1888000Y3556000I75019J29193D01*
G02X2049000I80500J0D01*
G02X2043520Y3526810I-80499J3D01*
G01Y3460070D01*
X2063070Y3440520D01*
X3590310D01*
G02X3619500Y3446000I29193J-75019D01*
G02X3700000Y3365500I0J-80500D01*
G02X3685550Y3319490I-80498J7D01*
G03X3693890Y3303520I8337J-5809D01*
G01X4784450D01*
G02X4792730Y3317710I73305J-33263D01*
G37*
G36*
G01X7554980Y3810000D02*
Y3826010D01*
X7554060Y3827320D01*
G02X7539500Y3873500I65941J46176D01*
G02X7700500I80500J0D01*
G02X7691160Y3835860I-80501J-3D01*
G01X7689410Y3832550D01*
X8076900Y3445060D01*
X8078470Y3444780D01*
G02X8145000Y3365500I-13972J-79280D01*
G02X8064500Y3285000I-80500J0D01*
G02X7985220Y3351530I0J80502D01*
G01X7984940Y3353100D01*
X7574020Y3764020D01*
G02X7554980Y3810000I45983J45973D01*
G37*
G36*
G01X9064520Y3982980D02*
G02X9110500Y4002020I45973J-45983D01*
G01X9350540D01*
G02X9398000Y4017500I47460J-65014D01*
G02Y3856500I0J-80500D01*
G02X9350540Y3871980I0J80494D01*
G01X9281890D01*
G03X9273550Y3856010I-3J-10161D01*
G02X9288000Y3810000I-66048J-46017D01*
G02X9272520Y3762540I-80494J0D01*
G01Y3285960D01*
G02X9288000Y3238500I-65014J-47460D01*
G02X9207500Y3158000I-80500J0D01*
G02X9161490Y3172450I7J80498D01*
G03X9145520Y3164110I-5809J-8337D01*
G01Y3111500D01*
G02X9126480Y3065520I-65023J-7D01*
G01X8967730Y2906770D01*
G02X8921750Y2887730I-45973J45983D01*
G01X8651710D01*
G02X8604250Y2872250I-47460J65014D01*
G02Y3033250I0J80500D01*
G02X8651710Y3017770I0J-80494D01*
G01X8894820D01*
X9015480Y3138430D01*
Y3907000D01*
G02X9034520Y3952980I65023J7D01*
G01X9064520Y3982980D01*
G37*
G36*
G01X8253480Y3138430D02*
Y4080040D01*
G02X8238000Y4127500I65014J47460D01*
G02X8399000I80500J0D01*
G02X8383520Y4080040I-80494J0D01*
G01Y3111500D01*
G02X8364480Y3065520I-65023J-7D01*
G01X8271060Y2972100D01*
X8270780Y2970530D01*
G02X8191500Y2904000I-79280J13972D01*
G02X8111000Y2984500I0J80500D01*
G02X8177530Y3063780I80502J0D01*
G01X8179100Y3064060D01*
X8253480Y3138430D01*
G37*
G36*
G01X5580080Y4725370D02*
G02X5571000Y4762500I71418J37140D01*
G02X5651500Y4843000I80500J0D01*
G02X5680690Y4837520I-3J-80499D01*
G01X6638310D01*
G02X6667500Y4843000I29193J-75019D01*
G02Y4682000I0J-80500D01*
G02X6638310Y4687480I3J80499D01*
G01X6111140D01*
G03X6103960Y4670140I4J-10158D01*
G01X6128400Y4645690D01*
G02X6176500Y4572000I-32397J-73690D01*
G02X6096000Y4491500I-80500J0D01*
G02X6022680Y4538760I0J80505D01*
G01X6022300Y4539610D01*
X6001430Y4560480D01*
X4601190D01*
G02X4572000Y4555000I-29193J75019D01*
G02Y4716000I0J80500D01*
G02X4601190Y4710520I-3J-80499D01*
G01X5571060D01*
G03X5580080Y4725370I5J10161D01*
G37*
G36*
G01X2047710Y4729230D02*
G02X2000250Y4713750I-47460J65014D01*
G02Y4874750I0J80500D01*
G02X2047710Y4859270I0J-80494D01*
G01X3730790D01*
G02X3778250Y4874750I47460J-65014D01*
G02X3858750Y4794250I0J-80500D01*
G02X3856750Y4776430I-80499J12D01*
G03X3866660Y4764020I9908J-2249D01*
G01X3873500D01*
G02X3919480Y4744980I7J-65023D01*
G01X3949400Y4715060D01*
X3950970Y4714780D01*
G02X4017500Y4635500I-13972J-79280D01*
G02X3937000Y4555000I-80500J0D01*
G02X3857720Y4621530I0J80502D01*
G01X3857440Y4623100D01*
X3846570Y4633980D01*
X2503430D01*
X1843020Y3973570D01*
Y3222460D01*
G02X1858500Y3175000I-65014J-47460D01*
G02X1697500I-80500J0D01*
G02X1712980Y3222460I80494J0D01*
G01Y4000500D01*
G02X1732020Y4046480I65023J7D01*
G01X2397430Y4711890D01*
G03X2390250Y4729230I-7183J7182D01*
G01X2047710D01*
G37*
G36*
G01X4335520Y4998980D02*
G02X4381500Y5018020I45973J-45983D01*
G01X6937540D01*
G02X6985000Y5033500I47460J-65014D01*
G02Y4872500I0J-80500D01*
G02X6937540Y4887980I0J80494D01*
G01X4408430D01*
X4192520Y4672070D01*
Y4047960D01*
G02X4208000Y4000500I-65014J-47460D01*
G02X4047000I-80500J0D01*
G02X4062480Y4047960I80494J0D01*
G01Y4699000D01*
G02X4081520Y4744980I65023J7D01*
G01X4335520Y4998980D01*
G37*
G36*
G01X7820950Y5069550D02*
G02X7874000Y5091520I53050J-53064D01*
G01X9241810D01*
G02X9271000Y5097000I29193J-75019D01*
G02Y4936000I0J-80500D01*
G02X9241810Y4941480I3J80499D01*
G01X7905070D01*
X7822020Y4858430D01*
Y4318000D01*
G02X7800050Y4264950I-75034J0D01*
G01X7757200Y4222110D01*
X7756820Y4221260D01*
G02X7683500Y4174000I-73320J33245D01*
G02X7603000Y4254500I0J80500D01*
G02X7651100Y4328190I80497J0D01*
G01X7671980Y4349070D01*
Y4889500D01*
G02X7693950Y4942550I75034J0D01*
G01X7820950Y5069550D01*
G37*
G36*
G01X1110610Y4709200D02*
X1661450Y5260050D01*
G02X1714500Y5282020I53050J-53064D01*
G01X3937000D01*
G02X3990050Y5260050I0J-75034D01*
G01X4159890Y5090200D01*
X4160740Y5089820D01*
G02X4208000Y5016500I-33245J-73320D01*
G02X4127500Y4936000I-80500J0D01*
G02X4054180Y4983260I0J80505D01*
G01X4053800Y4984110D01*
X3905930Y5131980D01*
X1745570D01*
X1216700Y4603110D01*
X1216320Y4602260D01*
G02X1143000Y4555000I-73320J33245D01*
G02X1062500Y4635500I0J80500D01*
G02X1109760Y4708820I80505J0D01*
G01X1110610Y4709200D01*
G37*
G36*
G01X3744980Y5635460D02*
Y6048540D01*
G02X3729500Y6096000I65014J47460D01*
G02X3890500I80500J0D01*
G02X3875020Y6048540I-80494J0D01*
G01Y5635460D01*
G02X3890500Y5588000I-65014J-47460D01*
G02X3729500I-80500J0D01*
G02X3744980Y5635460I80494J0D01*
G37*
G36*
G01X4431030Y5603780D02*
X4432600Y5604060D01*
X4936940Y6108400D01*
X4937220Y6109970D01*
G02X5016500Y6176500I79280J-13972D01*
G02X5097000Y6096000I0J-80500D01*
G02X5030470Y6016720I-80502J0D01*
G01X5028900Y6016440D01*
X4524560Y5512100D01*
X4524280Y5510530D01*
G02X4445000Y5444000I-79280J13972D01*
G02X4364500Y5524500I0J80500D01*
G02X4431030Y5603780I80502J0D01*
G37*
G36*
G01X2665480Y1349540D02*
G02X2650000Y1397000I65014J47460D01*
G02X2811000I80500J0D01*
G02X2795520Y1349540I-80494J0D01*
G01Y788930D01*
X2820930Y763520D01*
X3183550D01*
G03X3188280Y782670I2J10159D01*
G02X3117430Y900000I61726J117330D01*
G02X3382570I132570J0D01*
G02X3311720Y782670I-132576J0D01*
G03X3316450Y763520I4728J-8991D01*
G01X3433040D01*
G02X3463130Y770900I30090J-57652D01*
G01X3521870D01*
G02X3551960Y763520I0J-65032D01*
G01X3750540D01*
G02X3780630Y770900I30090J-57652D01*
G01X3825020D01*
G03X3833920Y785970I5J10160D01*
G02X3817430Y850000I116068J64030D01*
G02X4082570I132570J0D01*
G02X4062030Y779110I-132572J-9D01*
G03X4070610Y763520I8584J-5432D01*
G01X4334040D01*
G02X4381500Y779000I47460J-65014D01*
G02Y618000I0J-80500D01*
G02X4334040Y633480I0J80494D01*
G01X3890620D01*
X3890260Y628790D01*
G02X3810000Y554500I-80260J6210D01*
G02X3762540Y569980I0J80494D01*
G01X3539960D01*
G02X3492500Y554500I-47460J65014D01*
G02X3412240Y628790I0J80500D01*
G01X3411880Y633480D01*
X2794000D01*
G02X2748020Y652520I-7J65023D01*
G01X2684520Y716020D01*
G02X2665480Y762000I45983J45973D01*
G01Y1349540D01*
G37*
G36*
G01X4316000Y4282460D02*
G02X4235780Y4400000I46001J117540D01*
G02X4488220I126220J0D01*
G02X4408000Y4282460I-126221J0D01*
G03Y4263540I3703J-9460D01*
G02Y4028460I-46001J-117540D01*
G03Y4009540I3703J-9460D01*
G02X4474070Y3950060I-46005J-117537D01*
G03X4493060Y3952750I9023J4674D01*
G02X4558030Y4016280I78944J-15747D01*
G01X4559600Y4016560D01*
X4716520Y4173480D01*
G02X4762500Y4192520I45973J-45983D01*
G01X4778510D01*
X4779820Y4193440D01*
G02X4826000Y4208000I46176J-65941D01*
G02Y4047000I0J-80500D01*
G02X4788360Y4056340I-3J80501D01*
G01X4785050Y4058090D01*
X4651560Y3924600D01*
X4651280Y3923030D01*
G02X4572000Y3856500I-79280J13972D01*
G02X4506440Y3890290I0J80495D01*
G03X4488020Y3884960I-8274J-5898D01*
G02X4408000Y3774460I-126023J7037D01*
G03Y3755540I3703J-9460D01*
G02X4488220Y3638000I-46001J-117540D01*
G02X4235780I-126220J0D01*
G02X4316000Y3755540I126221J0D01*
G03Y3774460I-3703J9460D01*
G02Y4009540I46001J117540D01*
G03Y4028460I-3703J9460D01*
G02Y4263540I46001J117540D01*
G03Y4282460I-3703J9460D01*
G37*
G36*
G01X6473780Y4476200D02*
G02X6523800Y4526220I50020J0D01*
G01X6676200D01*
G02X6726220Y4476200I0J-50020D01*
G01Y4323800D01*
G02X6676200Y4273780I-50020J0D01*
G01X6669030D01*
G03X6663890Y4254860I1J-10158D01*
G02X6719410Y4186910I-63889J-108859D01*
G03X6736360Y4183170I9613J3289D01*
G02X6794500Y4208000I58146J-55667D01*
G02X6873780Y4141470I0J-80502D01*
G01X6874060Y4139900D01*
X7157980Y3855980D01*
G02X7177020Y3810000I-45983J-45973D01*
G01Y3222460D01*
G02X7192500Y3175000I-65014J-47460D01*
G02X7031500I-80500J0D01*
G02X7046980Y3222460I80494J0D01*
G01Y3783070D01*
X6782100Y4047940D01*
X6780530Y4048220D01*
G02X6726900Y4083790I13971J79279D01*
G03X6709550Y4083310I-8529J-5521D01*
G02X6646000Y4028460I-109552J62688D01*
G03Y4009540I3703J-9460D01*
G02Y3774460I-46001J-117540D01*
G03Y3755540I3703J-9460D01*
G02X6726220Y3638000I-46001J-117540D01*
G02X6473780I-126220J0D01*
G02X6554000Y3755540I126221J0D01*
G03Y3774460I-3703J9460D01*
G02Y4009540I46001J117540D01*
G03Y4028460I-3703J9460D01*
G02X6473780Y4146000I46001J117540D01*
G02X6536110Y4254860I126228J0D01*
G03X6530970Y4273780I-5141J8762D01*
G01X6523800D01*
G02X6473780Y4323800I0J50020D01*
G01Y4476200D01*
G37*
G54D18*
X8446000Y5746000D03*
X8700000Y5492000D03*
Y6000000D03*
X6846000Y5696000D03*
X7100000Y5442000D03*
Y5950000D03*
X5296000Y5696000D03*
X5550000Y5442000D03*
Y5950000D03*
G54D19*
X6700000Y1866000D03*
Y850000D03*
X6000000Y1866000D03*
Y850000D03*
X5300000Y1816000D03*
Y800000D03*
X4650000Y1866000D03*
Y850000D03*
X3950000Y1866000D03*
X3250000Y1916000D03*
X1750000D03*
Y900000D03*
X1050000Y3316000D03*
Y2300000D03*
X8850000Y1866000D03*
Y850000D03*
X7350000Y1866000D03*
Y850000D03*
X2450000Y1916000D03*
Y900000D03*
X8100000Y1866000D03*
Y850000D03*
X1050000Y1916000D03*
Y900000D03*
%LPD*%
G75*
G54D10*
X500000Y500000D03*
Y6500000D03*
X9500000Y500000D03*
Y6500000D03*
G54D11*
X1050000Y900000D03*
Y1916000D03*
Y2300000D03*
Y3316000D03*
X1200000Y5650000D03*
Y5904000D03*
X1750000Y900000D03*
Y1916000D03*
X2450000Y900000D03*
Y1916000D03*
X2150000Y5650000D03*
Y5904000D03*
X3250000Y900000D03*
Y1916000D03*
X3150000Y5650000D03*
Y5904000D03*
X3950000Y850000D03*
Y1866000D03*
X4100000Y5650000D03*
Y5904000D03*
X4650000Y850000D03*
Y1866000D03*
X5300000Y800000D03*
Y1816000D03*
X6000000Y850000D03*
Y1866000D03*
X6700000Y850000D03*
X7350000D03*
X6700000Y1866000D03*
X7350000D03*
X8100000Y850000D03*
Y1866000D03*
X8850000Y850000D03*
Y1866000D03*
G54D12*
X500000Y2992000D03*
Y3246000D03*
Y3500000D03*
X3600000Y3638000D03*
Y3892000D03*
Y4146000D03*
X4362000Y3638000D03*
Y3892000D03*
Y4146000D03*
Y4400000D03*
X5100000Y3638000D03*
Y3892000D03*
Y4146000D03*
X5550000Y5442000D03*
X5296000Y5696000D03*
X5550000Y5950000D03*
X5862000Y3638000D03*
Y3892000D03*
Y4146000D03*
Y4400000D03*
X6600000Y3638000D03*
Y3892000D03*
Y4146000D03*
X7100000Y5442000D03*
X6846000Y5696000D03*
X7100000Y5950000D03*
X8100000Y3638000D03*
Y3892000D03*
Y4146000D03*
X7362000Y3638000D03*
Y3892000D03*
Y4146000D03*
Y4400000D03*
X8862000Y3638000D03*
Y3892000D03*
Y4146000D03*
Y4400000D03*
X8700000Y5492000D03*
X8446000Y5746000D03*
X8700000Y6000000D03*
X9500000Y3246000D03*
Y3500000D03*
G54D13*
X1143000Y4635500D03*
X1778000Y3175000D03*
X2032000Y1651000D03*
X2222500Y1841500D03*
X1968500Y2095500D03*
X2610880Y2540000D03*
X1968500Y2476500D03*
X2222500D03*
X2540000Y2159000D03*
X2095500Y2794000D03*
X2032000Y3238500D03*
X1968500Y3556000D03*
X2000250Y4794250D03*
X2730500Y1397000D03*
X3436380Y2349500D03*
Y2039380D03*
X3238500Y2159000D03*
X3365500Y3048000D03*
X3810000Y635000D03*
X3492500D03*
X3619500Y3365500D03*
X4127500Y4000500D03*
X3937000Y4635500D03*
X3778250Y4794250D03*
X4127500Y5016500D03*
X3810000Y5588000D03*
Y6096000D03*
X4381500Y698500D03*
X4501120Y3118880D03*
X4857750Y3079750D03*
Y3270250D03*
X4762500Y2857500D03*
X4572000Y3937000D03*
X4826000Y4127500D03*
X4857750Y3714750D03*
X4572000Y4635500D03*
X4445000Y5524500D03*
X5715000Y3048000D03*
X5461000Y2857500D03*
X5651500Y4762500D03*
X5016500Y6096000D03*
X6350000Y3048000D03*
X6286500Y3238500D03*
X6096000Y4572000D03*
X7112000Y3175000D03*
X6794500Y4127500D03*
X6667500Y4762500D03*
X6985000Y4953000D03*
X7620000Y3873500D03*
X7683500Y4254500D03*
X8604250Y2952750D03*
X8064500Y3365500D03*
X8191500Y2984500D03*
X8318500Y4127500D03*
X9207500Y3238500D03*
Y3810000D03*
X9398000Y3937000D03*
X9271000Y5016500D03*
G54D14*
X3600000Y4400000D03*
X5100000D03*
X6600000D03*
X8100000D03*
G54D15*
G01X3937000Y4635500D02*
X3873500Y4699000D01*
X2476500D01*
X1778000Y4000500D01*
Y3175000D01*
G01X2032000Y1651000D02*
X2222500Y1841500D01*
G01X3365500Y3048000D02*
X2921000D01*
X1968500Y2095500D01*
G01X4857750Y3079750D02*
X4318000Y2540000D01*
X2610880D01*
G01X1968500Y2476500D02*
X2222500D01*
G01X2540000Y2159000D02*
X3238500D01*
G01X4501120Y3118880D02*
X2610880D01*
X2286000Y2794000D01*
X2095500D01*
G01X2032000Y3238500D02*
X4789250D01*
X4828380Y3199370D01*
X4887120D01*
X4926250Y3238500D01*
X6286500D01*
G01X2000250Y4794250D02*
X3778250D01*
G01X4381500Y698500D02*
X3846750D01*
X3839370Y705880D01*
X3780630D01*
X3773250Y698500D01*
X3529250D01*
X3521870Y705880D01*
X3463130D01*
X3455750Y698500D01*
X2794000D01*
X2730500Y762000D01*
Y1397000D01*
G01X3436380Y2349500D02*
Y2039380D01*
G01X3492500Y635000D02*
X3810000D01*
G01X4127500Y4000500D02*
Y4699000D01*
X4381500Y4953000D01*
X6985000D01*
G01X3810000Y6096000D02*
Y5588000D01*
G01X4857750Y3270250D02*
Y3714750D01*
G01X4572000Y3937000D02*
X4762500Y4127500D01*
X4826000D01*
G01X5016500Y6096000D02*
X4445000Y5524500D01*
G01X7112000Y3175000D02*
Y3810000D01*
X6794500Y4127500D01*
G01X8064500Y3365500D02*
X7620000Y3810000D01*
Y3873500D01*
G01X9398000Y3937000D02*
X9110500D01*
X9080500Y3907000D01*
Y3111500D01*
X8921750Y2952750D01*
X8604250D01*
G01X8191500Y2984500D02*
X8318500Y3111500D01*
Y4127500D01*
G01X9207500Y3238500D02*
Y3810000D01*
G54D16*
G01X4127500Y5016500D02*
X3937000Y5207000D01*
X1714500D01*
X1143000Y4635500D01*
G01X3619500Y3365500D02*
X2032000D01*
X1968500Y3429000D01*
Y3556000D01*
G01X5461000Y2857500D02*
X4762500D01*
G01X4572000Y4635500D02*
X6032500D01*
X6096000Y4572000D01*
G01X6350000Y3048000D02*
X5715000D01*
G01X6667500Y4762500D02*
X5651500D01*
G01X7683500Y4254500D02*
X7747000Y4318000D01*
Y4889500D01*
X7874000Y5016500D01*
X9271000D01*
G54D17*
G01X1050000Y2162350D02*
Y2300000D01*
G01D02*
Y2437650D01*
G01X912350Y2300000D02*
X1050000D01*
G01D02*
X1187650D01*
G01X500000Y3246000D02*
X631300D01*
G01X3950000Y1728350D02*
Y1866000D01*
G01D02*
Y2003650D01*
G01X3812350Y1866000D02*
X3950000D01*
G01D02*
X4087650D01*
G01X4650000Y1728350D02*
Y1866000D01*
G01D02*
Y2003650D01*
G01X4512350Y1866000D02*
X4650000D01*
G01D02*
X4787650D01*
G01X5300000Y1678350D02*
Y1816000D01*
G01D02*
Y1953650D01*
G01X5162350Y1816000D02*
X5300000D01*
G01D02*
X5437650D01*
G01X6000000Y1728350D02*
Y1866000D01*
G01D02*
Y2003650D01*
G01X5862350Y1866000D02*
X6000000D01*
G01D02*
X6137650D01*
G01X6700000Y1728350D02*
Y1866000D01*
G01D02*
Y2003650D01*
G01X6562350Y1866000D02*
X6700000D01*
G01D02*
X6837650D01*
G01X7968700Y3892000D02*
X8100000D01*
G01D02*
X8231300D01*
G01X9500000Y3114700D02*
Y3246000D01*
G01X9368700D02*
X9500000D01*
M02*
