G04 ================== begin FILE IDENTIFICATION RECORD ==================*
G04 Layout Name:  D:/ORCAD/B07_OSC/allegro/B07_OSC.brd*
G04 Film Name:    Silkscreen_TOP*
G04 File Format:  Gerber RS274X*
G04 File Origin:  Cadence Allegro 17.2-S073*
G04 Origin Date:  Fri Jul 07 11:31:13 2023*
G04 *
G04 Layer:  REF DES/SILKSCREEN_TOP*
G04 Layer:  PACKAGE GEOMETRY/SILKSCREEN_TOP*
G04 Layer:  BOARD GEOMETRY/DIMENSION*
G04 Layer:  BOARD GEOMETRY/SOLDERMASK_TOP*
G04 Layer:  BOARD GEOMETRY/DESIGN_OUTLINE*
G04 *
G04 Offset:    (0.0000 0.0000)*
G04 Mirror:    No*
G04 Mode:      Positive*
G04 Rotation:  0*
G04 FullContactRelief:  No*
G04 UndefLineWidth:     0.0000*
G04 ================== end FILE IDENTIFICATION RECORD ====================*
%FSLAX35Y35*MOMM*%
%IR0*IPPOS*OFA0.00000B0.00000*MIA0B0*SFA1.00000B1.00000*%
%ADD10C,.25*%
G75*
%LPD*%
G75*
G54D10*
G01X-2256680Y3548400D02*
X-2251600Y3591730D01*
X-2243980Y3628400D01*
X-2233820Y3661730D01*
X-2221120Y3698400D01*
X-2200800Y3748400D01*
X-2302400D01*
G01X-2048400D02*
X-2068720Y3741730D01*
X-2083960Y3725070D01*
X-2094120Y3705070D01*
X-2101740Y3678400D01*
X-2104280Y3648400D01*
X-2101740Y3618400D01*
X-2094120Y3591730D01*
X-2083960Y3571730D01*
X-2068720Y3555070D01*
X-2048400Y3548400D01*
X-2028080Y3555070D01*
X-2012840Y3571730D01*
X-2002680Y3591730D01*
X-1995060Y3618400D01*
X-1992520Y3648400D01*
X-1995060Y3678400D01*
X-2002680Y3705070D01*
X-2012840Y3725070D01*
X-2028080Y3741730D01*
X-2048400Y3748400D01*
G01X-605880Y178390D02*
X-590640Y161730D01*
X-572860Y151730D01*
X-550000Y148400D01*
X-527140Y155070D01*
X-509360Y168400D01*
X-496660Y191730D01*
X-494120Y218400D01*
X-499200Y245060D01*
X-511900Y261730D01*
X-529680Y275060D01*
X-547460Y278400D01*
X-565240Y275060D01*
X-588100Y261730D01*
X-580480Y348400D01*
X-511900D01*
G01X-707480Y1638400D02*
X-692240Y1615060D01*
X-671920Y1601730D01*
X-649060Y1598400D01*
X-628740Y1601730D01*
X-608420Y1618400D01*
X-595720Y1638400D01*
X-593180Y1658400D01*
X-598260Y1681730D01*
X-616040Y1698400D01*
X-633820Y1705070D01*
X-656680D01*
G01X-633820D02*
X-618580Y1715070D01*
X-605880Y1731730D01*
X-600800Y1751730D01*
X-605880Y1771730D01*
X-618580Y1788400D01*
X-641440Y1798400D01*
X-664300Y1795070D01*
X-687160Y1781730D01*
G01X-448400Y1798400D02*
X-468720Y1791730D01*
X-483960Y1775070D01*
X-494120Y1755070D01*
X-501740Y1728400D01*
X-504280Y1698400D01*
X-501740Y1668400D01*
X-494120Y1641730D01*
X-483960Y1621730D01*
X-468720Y1605070D01*
X-448400Y1598400D01*
X-428080Y1605070D01*
X-412840Y1621730D01*
X-402680Y1641730D01*
X-395060Y1668400D01*
X-392520Y1698400D01*
X-395060Y1728400D01*
X-402680Y1755070D01*
X-412840Y1775070D01*
X-428080Y1791730D01*
X-448400Y1798400D01*
G01X-707480Y4988400D02*
X-692240Y4965060D01*
X-671920Y4951730D01*
X-649060Y4948400D01*
X-628740Y4951730D01*
X-608420Y4968400D01*
X-595720Y4988400D01*
X-593180Y5008400D01*
X-598260Y5031730D01*
X-616040Y5048400D01*
X-633820Y5055070D01*
X-656680D01*
G01X-633820D02*
X-618580Y5065070D01*
X-605880Y5081730D01*
X-600800Y5101730D01*
X-605880Y5121730D01*
X-618580Y5138400D01*
X-641440Y5148400D01*
X-664300Y5145070D01*
X-687160Y5131730D01*
G01X-448400Y5148400D02*
X-468720Y5141730D01*
X-483960Y5125070D01*
X-494120Y5105070D01*
X-501740Y5078400D01*
X-504280Y5048400D01*
X-501740Y5018400D01*
X-494120Y4991730D01*
X-483960Y4971730D01*
X-468720Y4955070D01*
X-448400Y4948400D01*
X-428080Y4955070D01*
X-412840Y4971730D01*
X-402680Y4991730D01*
X-395060Y5018400D01*
X-392520Y5048400D01*
X-395060Y5078400D01*
X-402680Y5105070D01*
X-412840Y5125070D01*
X-428080Y5141730D01*
X-448400Y5148400D01*
G01X-605880Y6678390D02*
X-590640Y6661730D01*
X-572860Y6651730D01*
X-550000Y6648400D01*
X-527140Y6655070D01*
X-509360Y6668400D01*
X-496660Y6691730D01*
X-494120Y6718400D01*
X-499200Y6745060D01*
X-511900Y6761730D01*
X-529680Y6775060D01*
X-547460Y6778400D01*
X-565240Y6775060D01*
X-588100Y6761730D01*
X-580480Y6848400D01*
X-511900D01*
G01X244120Y7028390D02*
X259360Y7011730D01*
X277140Y7001730D01*
X300000Y6998400D01*
X322860Y7005070D01*
X340640Y7018400D01*
X353340Y7041730D01*
X355880Y7068400D01*
X350800Y7095060D01*
X338100Y7111730D01*
X320320Y7125060D01*
X302540Y7128400D01*
X284760Y7125060D01*
X261900Y7111730D01*
X269520Y7198400D01*
X338100D01*
G01X4955220Y7121730D02*
X4973000Y7105070D01*
X4993320Y7098400D01*
X5013640Y7105070D01*
X5031420Y7125060D01*
X5044120Y7155070D01*
X5049200Y7185070D01*
Y7221730D01*
X5044120Y7251730D01*
X5031420Y7278400D01*
X5016180Y7291730D01*
X4998400Y7298400D01*
X4978080Y7291730D01*
X4962840Y7278400D01*
X4952680Y7258400D01*
X4947600Y7231730D01*
X4952680Y7208400D01*
X4965380Y7185070D01*
X4980620Y7171730D01*
X4998400Y7168400D01*
X5018720Y7175060D01*
X5033960Y7191730D01*
X5049200Y7221730D01*
G01X5201600Y7298400D02*
X5181280Y7291730D01*
X5166040Y7275070D01*
X5155880Y7255070D01*
X5148260Y7228400D01*
X5145720Y7198400D01*
X5148260Y7168400D01*
X5155880Y7141730D01*
X5166040Y7121730D01*
X5181280Y7105070D01*
X5201600Y7098400D01*
X5221920Y7105070D01*
X5237160Y7121730D01*
X5247320Y7141730D01*
X5254940Y7168400D01*
X5257480Y7198400D01*
X5254940Y7228400D01*
X5247320Y7255070D01*
X5237160Y7275070D01*
X5221920Y7291730D01*
X5201600Y7298400D01*
G01X10292520Y2038400D02*
X10307760Y2015060D01*
X10328080Y2001730D01*
X10350940Y1998400D01*
X10371260Y2001730D01*
X10391580Y2018400D01*
X10404280Y2038400D01*
X10406820Y2058400D01*
X10401740Y2081730D01*
X10383960Y2098400D01*
X10366180Y2105070D01*
X10343320D01*
G01X10366180D02*
X10381420Y2115070D01*
X10394120Y2131730D01*
X10399200Y2151730D01*
X10394120Y2171730D01*
X10381420Y2188400D01*
X10358560Y2198400D01*
X10335700Y2195070D01*
X10312840Y2181730D01*
G01X10551600Y2198400D02*
X10531280Y2191730D01*
X10516040Y2175070D01*
X10505880Y2155070D01*
X10498260Y2128400D01*
X10495720Y2098400D01*
X10498260Y2068400D01*
X10505880Y2041730D01*
X10516040Y2021730D01*
X10531280Y2005070D01*
X10551600Y1998400D01*
X10571920Y2005070D01*
X10587160Y2021730D01*
X10597320Y2041730D01*
X10604940Y2068400D01*
X10607480Y2098400D01*
X10604940Y2128400D01*
X10597320Y2155070D01*
X10587160Y2175070D01*
X10571920Y2191730D01*
X10551600Y2198400D01*
G01X9744120Y7028390D02*
X9759360Y7011730D01*
X9777140Y7001730D01*
X9800000Y6998400D01*
X9822860Y7005070D01*
X9840640Y7018400D01*
X9853340Y7041730D01*
X9855880Y7068400D01*
X9850800Y7095060D01*
X9838100Y7111730D01*
X9820320Y7125060D01*
X9802540Y7128400D01*
X9784760Y7125060D01*
X9761900Y7111730D01*
X9769520Y7198400D01*
X9838100D01*
G01X10394120Y178390D02*
X10409360Y161730D01*
X10427140Y151730D01*
X10450000Y148400D01*
X10472860Y155070D01*
X10490640Y168400D01*
X10503340Y191730D01*
X10505880Y218400D01*
X10500800Y245060D01*
X10488100Y261730D01*
X10470320Y275060D01*
X10452540Y278400D01*
X10434760Y275060D01*
X10411900Y261730D01*
X10419520Y348400D01*
X10488100D01*
M02*
