G04 ================== begin FILE IDENTIFICATION RECORD ==================*
G04 Layout Name:  D:/ORCAD/B07_OSC/allegro/B07_OSC_1.brd*
G04 Film Name:    TOP*
G04 File Format:  Gerber RS274X*
G04 File Origin:  Cadence Allegro 17.2-S073*
G04 Origin Date:  Mon Jul 10 15:04:58 2023*
G04 *
G04 Layer:  BOARD GEOMETRY/DESIGN_OUTLINE*
G04 Layer:  ETCH/TOP*
G04 Layer:  PIN/TOP*
G04 Layer:  VIA CLASS/TOP*
G04 *
G04 Offset:    (0.0000 0.0000)*
G04 Mirror:    No*
G04 Mode:      Positive*
G04 Rotation:  0*
G04 FullContactRelief:  No*
G04 UndefLineWidth:     0.0000*
G04 ================== end FILE IDENTIFICATION RECORD ====================*
%FSLAX35Y35*MOMM*%
%IR0*IPPOS*OFA0.00000B0.00000*MIA0B0*SFA1.00000B1.00000*%
%ADD10C,.635*%
%ADD13C,.6096*%
%ADD12C,1.524*%
%ADD11C,1.651*%
%ADD14R,1.524X1.524*%
%ADD15C,.3*%
%ADD16C,.5*%
G75*
%LPD*%
G75*
G54D10*
X500000Y500000D03*
Y6500000D03*
X9500000Y500000D03*
Y6500000D03*
G54D11*
X1050000Y900000D03*
Y1916000D03*
Y2300000D03*
Y3316000D03*
X1200000Y5650000D03*
Y5904000D03*
X1750000Y900000D03*
Y1916000D03*
X2450000Y900000D03*
Y1916000D03*
X2150000Y5650000D03*
Y5904000D03*
X3250000Y900000D03*
Y1916000D03*
X3150000Y5650000D03*
Y5904000D03*
X3950000Y850000D03*
Y1866000D03*
X4100000Y5650000D03*
Y5904000D03*
X4650000Y850000D03*
Y1866000D03*
X5300000Y800000D03*
Y1816000D03*
X6000000Y850000D03*
Y1866000D03*
X6700000Y850000D03*
X7350000D03*
X6700000Y1866000D03*
X7350000D03*
X8100000Y850000D03*
Y1866000D03*
X8850000Y850000D03*
Y1866000D03*
G54D12*
X500000Y2992000D03*
Y3246000D03*
Y3500000D03*
X3600000Y3638000D03*
Y3892000D03*
Y4146000D03*
X4362000Y3638000D03*
Y3892000D03*
Y4146000D03*
Y4400000D03*
X5100000Y3638000D03*
Y3892000D03*
Y4146000D03*
X5550000Y5442000D03*
X5296000Y5696000D03*
X5550000Y5950000D03*
X5862000Y3638000D03*
Y3892000D03*
Y4146000D03*
Y4400000D03*
X6600000Y3638000D03*
Y3892000D03*
Y4146000D03*
X7100000Y5442000D03*
X6846000Y5696000D03*
X7100000Y5950000D03*
X8100000Y3638000D03*
Y3892000D03*
Y4146000D03*
X7362000Y3638000D03*
Y3892000D03*
Y4146000D03*
Y4400000D03*
X8862000Y3638000D03*
Y3892000D03*
Y4146000D03*
Y4400000D03*
X8700000Y5492000D03*
X8446000Y5746000D03*
X8700000Y6000000D03*
X9500000Y3246000D03*
Y3500000D03*
G54D13*
X1143000Y4635500D03*
X1778000Y3175000D03*
X2032000Y1651000D03*
X2222500Y1841500D03*
X1968500Y2095500D03*
X2610880Y2540000D03*
X1968500Y2476500D03*
X2222500D03*
X2540000Y2159000D03*
X2095500Y2794000D03*
X2032000Y3238500D03*
X1968500Y3556000D03*
X2000250Y4794250D03*
X2730500Y1397000D03*
X3436380Y2349500D03*
Y2039380D03*
X3238500Y2159000D03*
X3365500Y3048000D03*
X3810000Y635000D03*
X3492500D03*
X3619500Y3365500D03*
X4127500Y4000500D03*
X3937000Y4635500D03*
X3778250Y4794250D03*
X4127500Y5016500D03*
X3810000Y5588000D03*
Y6096000D03*
X4381500Y698500D03*
X4501120Y3118880D03*
X4857750Y3079750D03*
Y3270250D03*
X4762500Y2857500D03*
X4572000Y3937000D03*
X4826000Y4127500D03*
X4857750Y3714750D03*
X4572000Y4635500D03*
X4445000Y5524500D03*
X5715000Y3048000D03*
X5461000Y2857500D03*
X5651500Y4762500D03*
X5016500Y6096000D03*
X6350000Y3048000D03*
X6286500Y3238500D03*
X6096000Y4572000D03*
X7112000Y3175000D03*
X6794500Y4127500D03*
X6667500Y4762500D03*
X6985000Y4953000D03*
X7620000Y3873500D03*
X7683500Y4254500D03*
X8604250Y2952750D03*
X8064500Y3365500D03*
X8191500Y2984500D03*
X8318500Y4127500D03*
X9207500Y3238500D03*
Y3810000D03*
X9398000Y3937000D03*
X9271000Y5016500D03*
G54D14*
X3600000Y4400000D03*
X5100000D03*
X6600000D03*
X8100000D03*
G54D15*
G01X1968500Y2476500D02*
X1841500D01*
X1397000Y2032000D01*
Y1016000D01*
X1281000Y900000D01*
X1050000D01*
G01X1778000Y3175000D02*
Y2644000D01*
X1050000Y1916000D01*
G01Y3316000D02*
X1954500D01*
X2032000Y3238500D01*
G01X8446000Y5746000D02*
X8287500D01*
X7620000Y6413500D01*
X1016000D01*
X825500Y6223000D01*
Y5080000D01*
X1111250Y4794250D01*
X2000250D01*
G01X1200000Y5650000D02*
X1077040D01*
X890500Y5836540D01*
Y6097500D01*
X1016000Y6223000D01*
X4769000D01*
X5296000Y5696000D01*
G01X1968500Y2095500D02*
Y1687750D01*
X1961120Y1680370D01*
Y1621630D01*
X1968500Y1614250D01*
Y1118500D01*
X1750000Y900000D01*
G01X2095500Y2794000D02*
Y2476500D01*
X1750000Y2131000D01*
Y1916000D01*
G01X1200000Y5904000D02*
X1896000D01*
X2150000Y5650000D01*
G01X6700000Y850000D02*
X6358000Y508000D01*
X2286000D01*
X2032000Y762000D01*
Y1651000D01*
G01X2150000Y5650000D02*
Y2839750D01*
X2166380Y2823370D01*
Y2764630D01*
X2150900Y2749150D01*
Y2453550D01*
X2150000Y2452650D01*
Y771000D01*
X2349500Y571500D01*
X3455750D01*
X3463130Y564120D01*
X3521870D01*
X3529250Y571500D01*
X3671500D01*
X3739120Y639120D01*
Y664370D01*
X3780630Y705880D01*
X3805880D01*
X3950000Y850000D01*
G01X2450000Y900000D02*
X3048000Y1498000D01*
Y4826000D01*
X3810000Y5588000D01*
G01X2222500Y1841500D02*
X2297000Y1916000D01*
X2450000D01*
G01X2610880Y2540000D02*
Y2076880D01*
X2450000Y1916000D01*
G01X2222500Y2476500D02*
X2540000Y2159000D01*
G01X2150000Y5904000D02*
X2896000D01*
X3150000Y5650000D01*
G01X3492500Y635000D02*
Y705880D01*
X3499880Y713260D01*
Y773080D01*
X3372960Y900000D01*
X3250000D01*
G01X3150000Y5650000D02*
X2730500Y5230500D01*
Y1397000D01*
G01X3238500Y2159000D02*
Y2050460D01*
X3250000Y2038960D01*
Y1916000D01*
G01X3436380Y2039380D02*
X3373380D01*
X3250000Y1916000D01*
G01X5300000Y800000D02*
X5016500Y1083500D01*
Y1905000D01*
X4889500Y2032000D01*
X3619500D01*
X3238500Y2413000D01*
Y4788500D01*
X4100000Y5650000D01*
G01X3436380Y2349500D02*
Y3077370D01*
X3429000Y3084750D01*
Y3975000D01*
X3600000Y4146000D01*
G01X4445000Y5524500D02*
X4254500D01*
X3365500Y4635500D01*
Y3048000D01*
G01X3150000Y5904000D02*
X3846000D01*
X4100000Y5650000D01*
G01X3810000Y635000D02*
X4344750D01*
X4352130Y627620D01*
X4410870D01*
X4418250Y635000D01*
X6159500D01*
X6223000Y698500D01*
Y3201750D01*
X6215620Y3209130D01*
Y3267870D01*
X6223000Y3275250D01*
Y4565000D01*
X7100000Y5442000D01*
G01X3937000Y4635500D02*
Y4317000D01*
X4362000Y3892000D01*
G01X4127500Y4000500D02*
Y3967000D01*
X4202500Y3892000D01*
X4362000D01*
G01X3778250Y4794250D02*
Y4070250D01*
X3600000Y3892000D01*
G01X4100000Y5904000D02*
X3908000Y6096000D01*
X3810000D01*
G01X4100000Y5904000D02*
X4186950Y5817050D01*
X4252700D01*
X4699000Y5370750D01*
Y3556000D01*
X5270500Y2984500D01*
Y2222500D01*
X5588000Y1905000D01*
Y952500D01*
X5690500Y850000D01*
X6000000D01*
G01X4381500Y698500D02*
X4621460D01*
X4650000Y727040D01*
Y850000D01*
G01X4501120Y3118880D02*
Y3866120D01*
X4572000Y3937000D01*
G01X4857750Y3079750D02*
Y3270250D01*
G01X4826000Y4127500D02*
X4964900D01*
X4983400Y4146000D01*
X5100000D01*
G01Y3892000D02*
X4908000D01*
X4857750Y3841750D01*
Y3714750D01*
G01X5550000Y5442000D02*
Y4204000D01*
X5862000Y3892000D01*
G01X5296000Y5696000D02*
X5550000Y5442000D01*
G01D02*
X6592000D01*
X6846000Y5696000D01*
G01X5550000Y5950000D02*
X5748500D01*
X5778500Y5980000D01*
Y6203540D01*
X5748500Y6233540D01*
X5154040D01*
X5016500Y6096000D01*
G01X6286500Y3238500D02*
Y3578500D01*
X6600000Y3892000D01*
G01X8191500Y2984500D02*
X7620000D01*
X7048500Y2413000D01*
Y952500D01*
X7151000Y850000D01*
X7350000D01*
G01X7112000Y3175000D02*
X7175500Y3111500D01*
X8699500D01*
X8850000Y2961000D01*
Y1866000D01*
G01X6794500Y4127500D02*
X6776000Y4146000D01*
X6600000D01*
G01X8100000D02*
X7293000Y4953000D01*
X6985000D01*
G01X6846000Y5696000D02*
X7100000Y5950000D01*
G01X8850000Y850000D02*
X8635000Y635000D01*
X7874000D01*
X7620000Y889000D01*
Y1778000D01*
X7532000Y1866000D01*
X7350000D01*
G01X7620000Y3873500D02*
X7497100D01*
X7478600Y3892000D01*
X7362000D01*
G01X8850000Y1866000D02*
X8621500D01*
X8533500Y1778000D01*
Y880000D01*
X8503500Y850000D01*
X8100000D01*
G01X8604250Y2952750D02*
X8100000Y2448500D01*
Y1866000D01*
G01X8064500Y3365500D02*
X9017000D01*
X9151500Y3500000D01*
X9500000D01*
G01X8318500Y4127500D02*
X8235100D01*
X8216600Y4146000D01*
X8100000D01*
G01X9207500Y3238500D02*
Y1079500D01*
X8978000Y850000D01*
X8850000D01*
G01X9207500Y3810000D02*
X9125500Y3892000D01*
X8862000D01*
G01X9398000Y3937000D02*
X9461500Y3873500D01*
Y3655100D01*
X9500000Y3616600D01*
Y3500000D01*
G54D16*
G01X1968500Y3556000D02*
X875500D01*
X825500Y3506000D01*
Y3063000D01*
X754500Y2992000D01*
X500000D01*
G01Y3500000D02*
X635000Y3635000D01*
Y4127500D01*
X1143000Y4635500D01*
G01X3619500Y3365500D02*
Y3491900D01*
X3600000Y3511400D01*
Y3638000D01*
G01D02*
X3937000Y3301000D01*
Y2984500D01*
X4064000Y2857500D01*
X4762500D01*
G01X4127500Y5016500D02*
Y4380500D01*
X4362000Y4146000D01*
G01D02*
X4572000Y4356000D01*
Y4635500D01*
G01X5461000Y2857500D02*
Y2984500D01*
X5100000Y3345500D01*
Y3638000D01*
G01X5715000Y3048000D02*
X5657800Y3105200D01*
X5632800D01*
X5100000Y3638000D01*
G01X5651500Y4762500D02*
Y4356500D01*
X5862000Y4146000D01*
G01X6600000Y3638000D02*
Y3298000D01*
X6350000Y3048000D01*
G01X6096000Y4572000D02*
Y4380000D01*
X5862000Y4146000D01*
G01X6600000Y3638000D02*
X6936000Y3302000D01*
X7764000D01*
X8100000Y3638000D01*
G01X6667500Y4762500D02*
X7048500D01*
X7175500Y4635500D01*
Y4332500D01*
X7362000Y4146000D01*
G01X7683500Y4254500D02*
X7470500D01*
X7362000Y4146000D01*
G01X8700000Y5492000D02*
Y4238000D01*
X8100000Y3638000D01*
G01X8862000Y4146000D02*
X9080500Y4364500D01*
Y5619500D01*
X8700000Y6000000D01*
G01X9271000Y5016500D02*
Y4381500D01*
X9035500Y4146000D01*
X8862000D01*
M02*
