G04 ================== begin FILE IDENTIFICATION RECORD ==================*
G04 Layout Name:  D:/ORCAD/2023_20607_HW/MV2/allegro/MV3.brd*
G04 Film Name:    BOTTOM*
G04 File Format:  Gerber RS274X*
G04 File Origin:  Cadence Allegro 17.2-S073*
G04 Origin Date:  Fri Mar 10 10:42:29 2023*
G04 *
G04 Layer:  BOARD GEOMETRY/DESIGN_OUTLINE*
G04 Layer:  ETCH/BOTTOM*
G04 Layer:  PIN/BOTTOM*
G04 Layer:  VIA CLASS/BOTTOM*
G04 *
G04 Offset:    (0.0000 0.0000)*
G04 Mirror:    No*
G04 Mode:      Positive*
G04 Rotation:  0*
G04 FullContactRelief:  No*
G04 UndefLineWidth:     0.0000*
G04 ================== end FILE IDENTIFICATION RECORD ====================*
%FSLAX35Y35*MOMM*%
%IR0*IPPOS*OFA0.00000B0.00000*MIA0B0*SFA1.00000B1.00000*%
%ADD11C,.6096*%
%ADD13O,1.524X1.016*%
%ADD12R,1.524X1.016*%
%ADD10C,1.524*%
%ADD14C,1.651*%
%ADD15C,.5*%
%ADD16C,2.6514*%
G75*
%LPD*%
G75*
G36*
G01X508000Y6477000D02*
X7508000D01*
Y477000D01*
X508000D01*
Y6477000D01*
G37*
%LPC*%
G75*
G36*
G01X970000Y898460D02*
G02X889780Y1016000I46001J117540D01*
G02X1142220I126220J0D01*
G02X1062000Y898460I-126221J0D01*
G03Y879540I3703J-9460D01*
G02X1142220Y762000I-46001J-117540D01*
G02X889780I-126220J0D01*
G02X970000Y879540I126221J0D01*
G03Y898460I-3703J9460D01*
G37*
G36*
G01X6558000D02*
G02X6477780Y1016000I46001J117540D01*
G02X6730220I126220J0D01*
G02X6650000Y898460I-126221J0D01*
G03Y879540I3703J-9460D01*
G02X6730220Y762000I-46001J-117540D01*
G02X6477780I-126220J0D01*
G02X6558000Y879540I126221J0D01*
G03Y898460I-3703J9460D01*
G37*
G36*
G01X1702980Y3708490D02*
G02X1651780Y3810000I75028J101510D01*
G02X1778000Y3936220I126220J0D01*
G02X1895540Y3856000I0J-126221D01*
G03X1914460I9460J3703D01*
G02X2032000Y3936220I117540J-46001D01*
G02X2133510Y3885020I0J-126228D01*
G01X4699000D01*
G02X4752050Y3863050I0J-75034D01*
G01X5873070Y2742020D01*
X6511250D01*
G02X6578600Y2767820I67350J-75007D01*
G01X6629400D01*
G02X6730220Y2667000I0J-100820D01*
G02X6707710Y2603500I-100821J0D01*
G02X6730220Y2540000I-78311J-63500D01*
G02X6719500Y2494750I-100822J-9D01*
G02X6730220Y2463800I-39302J-30944D01*
G01Y2362200D01*
G02X6680200Y2312180I-50020J0D01*
G01X6527800D01*
G02X6477780Y2362200I0J50020D01*
G01Y2463800D01*
G02X6488500Y2494750I50022J6D01*
G02X6477780Y2540000I90102J45241D01*
G02X6485210Y2577990I100821J3D01*
G03X6475800Y2591980I-9409J3831D01*
G01X5842000D01*
G02X5788950Y2613950I0J75034D01*
G01X4667930Y3734980D01*
X2133510D01*
G02X2032000Y3683780I-101510J75028D01*
G02X1914460Y3764000I0J126221D01*
G03X1895540I-9460J-3703D01*
G02X1853020Y3708490I-117542J45996D01*
G01Y3175400D01*
G02X1831050Y3122350I-75034J0D01*
G01X1195650Y2486950D01*
G02X1142600Y2464980I-53050J53064D01*
G01X1142220D01*
Y2362200D01*
G02X1092200Y2312180I-50020J0D01*
G01X939800D01*
G02X889780Y2362200I0J50020D01*
G01Y2463800D01*
G02X900500Y2494750I50022J6D01*
G02X889780Y2540000I90102J45241D01*
G02X912290Y2603500I100821J0D01*
G02X889780Y2667000I78311J63500D01*
G02X990600Y2767820I100820J0D01*
G01X1041400D01*
G02X1142180Y2669900I0J-100822D01*
G03X1159520Y2663010I10156J294D01*
G01X1702980Y3206470D01*
Y3708490D01*
G37*
G36*
G01X5832540Y3764000D02*
G02X5715000Y3683780I-117540J46001D01*
G02Y3936220I0J126220D01*
G02X5832540Y3856000I0J-126221D01*
G03X5851460I9460J3703D01*
G02X5969000Y3936220I117540J-46001D01*
G02Y3683780I0J-126220D01*
G02X5851460Y3764000I0J126221D01*
G03X5832540I-9460J-3703D01*
G37*
G36*
G01X7320000Y5724460D02*
G02X7239780Y5842000I46001J117540D01*
G02X7492220I126220J0D01*
G02X7412000Y5724460I-126221J0D01*
G03Y5705540I3703J-9460D01*
G02X7492220Y5588000I-46001J-117540D01*
G02X7239780I-126220J0D01*
G02X7320000Y5705540I126221J0D01*
G03Y5724460I-3703J9460D01*
G37*
G54D16*
X5080000Y4826000D03*
Y5842000D03*
X2667000Y4826000D03*
Y5842000D03*
X6731000Y4826000D03*
Y5842000D03*
X1143000Y4826000D03*
Y5842000D03*
%LPD*%
G75*
G54D10*
X1016000Y1016000D03*
Y762000D03*
X1778000Y3810000D03*
X2032000D03*
X5715000D03*
X5969000D03*
X6604000Y1016000D03*
Y762000D03*
X7366000Y5588000D03*
Y5842000D03*
G54D11*
X1016000Y762000D03*
X1778000Y3810000D03*
G54D12*
X1016000Y2413000D03*
X6604000D03*
G54D13*
X1016000Y2540000D03*
Y2667000D03*
X6604000Y2540000D03*
Y2667000D03*
G54D14*
X1143000Y4826000D03*
Y5842000D03*
X2667000Y4826000D03*
Y5842000D03*
X5080000Y4826000D03*
Y5842000D03*
X6731000Y4826000D03*
Y5842000D03*
G54D15*
G01X1016000Y630700D02*
Y762000D01*
G01X884700D02*
X1016000D01*
G01D02*
X1147300D01*
G01X1778000Y3810000D02*
Y3175400D01*
X1142600Y2540000D01*
X1016000D01*
G01X2032000Y3810000D02*
X4699000D01*
X5842000Y2667000D01*
X6604000D01*
G01X6472700Y762000D02*
X6604000D01*
G01Y630700D02*
Y762000D01*
G01D02*
X6735300D01*
G01X7234700Y5588000D02*
X7366000D01*
G01Y5456700D02*
Y5588000D01*
M02*
