G04 ================== begin FILE IDENTIFICATION RECORD ==================*
G04 Layout Name:  D:/ORCAD/B07_1013/allegro/B07_1013.brd*
G04 Film Name:    BOTTOM*
G04 File Format:  Gerber RS274X*
G04 File Origin:  Cadence Allegro 17.2-S073*
G04 Origin Date:  Mon Oct 16 15:57:47 2023*
G04 *
G04 Layer:  BOARD GEOMETRY/DESIGN_OUTLINE*
G04 Layer:  ETCH/BOTTOM*
G04 Layer:  PIN/BOTTOM*
G04 Layer:  VIA CLASS/BOTTOM*
G04 *
G04 Offset:    (0.0000 0.0000)*
G04 Mirror:    No*
G04 Mode:      Positive*
G04 Rotation:  0*
G04 FullContactRelief:  No*
G04 UndefLineWidth:     0.2000*
G04 ================== end FILE IDENTIFICATION RECORD ====================*
%FSLAX25Y25*MOMM*%
%IR0*IPPOS*OFA0.00000B0.00000*MIA0B0*SFA1.00000B1.00000*%
%ADD10C,.635*%
%ADD14O,1.016X1.524*%
%ADD11C,1.524*%
%ADD12C,1.651*%
%ADD13R,1.524X1.524*%
%ADD15C,.5*%
%ADD16C,1.*%
%ADD17C,.2*%
G75*
%LPD*%
G75*
G54D10*
X250000Y250000D03*
Y4750000D03*
X11750000Y250000D03*
Y4750000D03*
G54D11*
X350000Y2650000D03*
X2603500Y2159000D03*
X2349500D03*
X2603500Y2921000D03*
X2349500D03*
X2095500D03*
X3429000Y406400D03*
X2857500Y2159000D03*
Y2921000D03*
X4350000Y1390600D03*
X8763000Y2921000D03*
X9150000Y1390600D03*
X9525000Y2159000D03*
X9271000D03*
X9017000D03*
X9525000Y2921000D03*
X9271000D03*
X9017000D03*
X11049000Y1079500D03*
X10795000D03*
X10668000Y4191000D03*
Y3937000D03*
X11684000Y1524000D03*
Y3302000D03*
Y3556000D03*
Y3810000D03*
G54D12*
X1150000Y400000D03*
Y1416000D03*
X1200000Y4304000D03*
Y4050000D03*
X2150000Y400000D03*
Y1416000D03*
X2100000Y4304000D03*
Y4050000D03*
X3048000Y4064000D03*
Y4318000D03*
X3950000Y4304000D03*
Y4050000D03*
X4900000Y3600000D03*
Y4616000D03*
X5650000Y3600000D03*
Y4616000D03*
X6286500Y3619500D03*
Y4635500D03*
X7150000Y400000D03*
Y1416000D03*
Y3600000D03*
Y4616000D03*
X8100000Y400000D03*
Y1416000D03*
X7950000Y3600000D03*
Y4616000D03*
X8650000Y4204000D03*
Y3950000D03*
X10050000Y1104000D03*
Y850000D03*
X9750000Y4204000D03*
Y3950000D03*
G54D13*
X2095500Y2159000D03*
X3429000Y1397000D03*
X4350000Y400000D03*
X8763000Y2159000D03*
X9150000Y400000D03*
G54D14*
X6159500Y635000D03*
X6032500D03*
X5905500D03*
X6159500Y1333500D03*
X6032500D03*
X5905500D03*
G54D15*
G01X350000Y2650000D02*
X381000D01*
Y1169000D01*
X1150000Y400000D01*
G01X1200000Y4304000D02*
Y4311500D01*
X825500Y3937000D01*
Y3429000D01*
X2095500Y2159000D01*
G01X1200000Y4050000D02*
Y3816500D01*
X2095500Y2921000D01*
G01X2150000Y400000D02*
X2203500D01*
G01X2150000Y1416000D02*
Y1959500D01*
X2349500Y2159000D01*
G01X2603500D02*
X2222100Y2540400D01*
Y3927900D01*
X2100000Y4050000D01*
G01X2603500Y2921000D02*
Y3800500D01*
X2100000Y4304000D01*
G01X3429000Y1397000D02*
Y2095500D01*
X2603500Y2921000D01*
G01X4350000Y400000D02*
Y412500D01*
G01X6159500Y1333500D02*
Y1193800D01*
X5905500Y939800D01*
Y635000D01*
G01X7950000Y3600000D02*
X6667500Y2317500D01*
Y1333500D01*
X6159500Y825500D01*
Y635000D01*
G01X7150000Y3600000D02*
X6286500Y2736500D01*
Y1143000D01*
X6032500Y889000D01*
Y635000D01*
G01X6286500Y4635500D02*
X5905500Y4254500D01*
Y1333500D01*
G01X6286500Y3619500D02*
X6953500D01*
X7950000Y4616000D01*
G01X7150000Y400000D02*
X7156500D01*
G01X7950000Y4616000D02*
X8382000Y4184000D01*
Y1206500D01*
X8100000Y924500D01*
Y400000D01*
G01X9271000Y2921000D02*
X10033000Y3683000D01*
Y4191000D01*
X9608000Y4616000D01*
X7950000D01*
G01X9271000Y2159000D02*
Y1511600D01*
X9150000Y1390600D01*
G01X11684000Y3556000D02*
X11938000Y3302000D01*
Y3175000D01*
X11049000Y2286000D01*
Y1079500D01*
G54D16*
G01X10795000D02*
X9906000Y190500D01*
X5524500D01*
X4889500Y825500D01*
X3429000D01*
X2857500Y1397000D01*
Y2159000D01*
G01X9525000D02*
X8914600Y2769400D01*
X8700190D01*
X8509000Y2960590D01*
Y3809000D01*
X8650000Y3950000D01*
G01X9017000Y2921000D02*
Y3217000D01*
X9750000Y3950000D01*
G01X10795000Y1079500D02*
Y2413000D01*
X11684000Y3302000D01*
G54D17*
G01X12000000Y0D02*
Y5000000D01*
X0D01*
Y0D01*
X12000000D01*
M02*
