G04 ================== begin FILE IDENTIFICATION RECORD ==================*
G04 Layout Name:  D:/ORCAD/B07_1031/allegro/B07_1106_1.brd*
G04 Film Name:    ALL*
G04 File Format:  Gerber RS274X*
G04 File Origin:  Cadence Allegro 17.2-S073*
G04 Origin Date:  Mon Nov 06 16:06:07 2023*
G04 *
G04 Layer:  REF DES/SILKSCREEN_TOP*
G04 Layer:  PIN/BOTTOM*
G04 Layer:  PIN/TOP*
G04 Layer:  PACKAGE GEOMETRY/SILKSCREEN_TOP*
G04 Layer:  MANUFACTURING/NCLEGEND-1-2*
G04 Layer:  ETCH/BOTTOM*
G04 Layer:  ETCH/TOP*
G04 Layer:  BOARD GEOMETRY/DIMENSION*
G04 Layer:  BOARD GEOMETRY/SILKSCREEN_TOP*
G04 Layer:  BOARD GEOMETRY/DESIGN_OUTLINE*
G04 *
G04 Offset:    (0.0000 0.0000)*
G04 Mirror:    No*
G04 Mode:      Positive*
G04 Rotation:  0*
G04 FullContactRelief:  No*
G04 UndefLineWidth:     0.2000*
G04 ================== end FILE IDENTIFICATION RECORD ====================*
%FSLAX35Y35*MOMM*%
%IR0*IPPOS*OFA0.00000B0.00000*MIA0B0*SFA1.00000B1.00000*%
%AMMACRO11*
1,1,.2,.4572,0.0*
20,1,.2,.4572,0.0,.450254,-.079392,0.0*
1,1,.2,.450254,-.079392*
20,1,.2,.450254,-.079392,.429627,-.156372,0.0*
1,1,.2,.429627,-.156372*
20,1,.2,.429627,-.156372,.395947,-.2286,0.0*
1,1,.2,.395947,-.2286*
20,1,.2,.395947,-.2286,.350236,-.293882,0.0*
1,1,.2,.350236,-.293882*
20,1,.2,.350236,-.293882,.293882,-.350236,0.0*
1,1,.2,.293882,-.350236*
20,1,.2,.293882,-.350236,.2286,-.395947,0.0*
1,1,.2,.2286,-.395947*
20,1,.2,.2286,-.395947,.156372,-.429627,0.0*
1,1,.2,.156372,-.429627*
20,1,.2,.156372,-.429627,.079392,-.450254,0.0*
1,1,.2,.079392,-.450254*
20,1,.2,.079392,-.450254,0.0,-.4572,0.0*
1,1,.2,0.0,-.4572*
20,1,.2,0.0,-.4572,-.079392,-.450254,0.0*
1,1,.2,-.079392,-.450254*
20,1,.2,-.079392,-.450254,-.156372,-.429627,0.0*
1,1,.2,-.156372,-.429627*
20,1,.2,-.156372,-.429627,-.2286,-.395947,0.0*
1,1,.2,-.2286,-.395947*
20,1,.2,-.2286,-.395947,-.293882,-.350236,0.0*
1,1,.2,-.293882,-.350236*
20,1,.2,-.293882,-.350236,-.350236,-.293882,0.0*
1,1,.2,-.350236,-.293882*
20,1,.2,-.350236,-.293882,-.395947,-.2286,0.0*
1,1,.2,-.395947,-.2286*
20,1,.2,-.395947,-.2286,-.429627,-.156372,0.0*
1,1,.2,-.429627,-.156372*
20,1,.2,-.429627,-.156372,-.450254,-.079392,0.0*
1,1,.2,-.450254,-.079392*
20,1,.2,-.450254,-.079392,-.4572,0.0,0.0*
1,1,.2,-.4572,0.0*
20,1,.2,-.4572,0.0,-.450254,.079392,0.0*
1,1,.2,-.450254,.079392*
20,1,.2,-.450254,.079392,-.429627,.156372,0.0*
1,1,.2,-.429627,.156372*
20,1,.2,-.429627,.156372,-.395947,.2286,0.0*
1,1,.2,-.395947,.2286*
20,1,.2,-.395947,.2286,-.350236,.293882,0.0*
1,1,.2,-.350236,.293882*
20,1,.2,-.350236,.293882,-.293882,.350236,0.0*
1,1,.2,-.293882,.350236*
20,1,.2,-.293882,.350236,-.2286,.395947,0.0*
1,1,.2,-.2286,.395947*
20,1,.2,-.2286,.395947,-.156372,.429627,0.0*
1,1,.2,-.156372,.429627*
20,1,.2,-.156372,.429627,-.079392,.450254,0.0*
1,1,.2,-.079392,.450254*
20,1,.2,-.079392,.450254,0.0,.4572,0.0*
1,1,.2,0.0,.4572*
20,1,.2,0.0,.4572,.079392,.450254,0.0*
1,1,.2,.079392,.450254*
20,1,.2,.079392,.450254,.156372,.429627,0.0*
1,1,.2,.156372,.429627*
20,1,.2,.156372,.429627,.2286,.395947,0.0*
1,1,.2,.2286,.395947*
20,1,.2,.2286,.395947,.293882,.350236,0.0*
1,1,.2,.293882,.350236*
20,1,.2,.293882,.350236,.350236,.293882,0.0*
1,1,.2,.350236,.293882*
20,1,.2,.350236,.293882,.395947,.2286,0.0*
1,1,.2,.395947,.2286*
20,1,.2,.395947,.2286,.429627,.156372,0.0*
1,1,.2,.429627,.156372*
20,1,.2,.429627,.156372,.450254,.079392,0.0*
1,1,.2,.450254,.079392*
20,1,.2,.450254,.079392,.4572,0.0,0.0*
1,1,.2,.4572,0.0*
%
%ADD11MACRO11*%
%AMMACRO10*
1,1,.2,.5334,0.0*
20,1,.2,.5334,0.0,.525296,-.092624,0.0*
1,1,.2,.525296,-.092624*
20,1,.2,.525296,-.092624,.501232,-.182434,0.0*
1,1,.2,.501232,-.182434*
20,1,.2,.501232,-.182434,.461938,-.2667,0.0*
1,1,.2,.461938,-.2667*
20,1,.2,.461938,-.2667,.408608,-.342863,0.0*
1,1,.2,.408608,-.342863*
20,1,.2,.408608,-.342863,.342863,-.408608,0.0*
1,1,.2,.342863,-.408608*
20,1,.2,.342863,-.408608,.2667,-.461938,0.0*
1,1,.2,.2667,-.461938*
20,1,.2,.2667,-.461938,.182434,-.501232,0.0*
1,1,.2,.182434,-.501232*
20,1,.2,.182434,-.501232,.092624,-.525296,0.0*
1,1,.2,.092624,-.525296*
20,1,.2,.092624,-.525296,0.0,-.5334,0.0*
1,1,.2,0.0,-.5334*
20,1,.2,0.0,-.5334,-.092624,-.525296,0.0*
1,1,.2,-.092624,-.525296*
20,1,.2,-.092624,-.525296,-.182434,-.501232,0.0*
1,1,.2,-.182434,-.501232*
20,1,.2,-.182434,-.501232,-.2667,-.461938,0.0*
1,1,.2,-.2667,-.461938*
20,1,.2,-.2667,-.461938,-.342863,-.408608,0.0*
1,1,.2,-.342863,-.408608*
20,1,.2,-.342863,-.408608,-.408608,-.342863,0.0*
1,1,.2,-.408608,-.342863*
20,1,.2,-.408608,-.342863,-.461938,-.2667,0.0*
1,1,.2,-.461938,-.2667*
20,1,.2,-.461938,-.2667,-.501232,-.182434,0.0*
1,1,.2,-.501232,-.182434*
20,1,.2,-.501232,-.182434,-.525296,-.092624,0.0*
1,1,.2,-.525296,-.092624*
20,1,.2,-.525296,-.092624,-.5334,0.0,0.0*
1,1,.2,-.5334,0.0*
20,1,.2,-.5334,0.0,-.525296,.092624,0.0*
1,1,.2,-.525296,.092624*
20,1,.2,-.525296,.092624,-.501232,.182434,0.0*
1,1,.2,-.501232,.182434*
20,1,.2,-.501232,.182434,-.461938,.2667,0.0*
1,1,.2,-.461938,.2667*
20,1,.2,-.461938,.2667,-.408608,.342863,0.0*
1,1,.2,-.408608,.342863*
20,1,.2,-.408608,.342863,-.342863,.408608,0.0*
1,1,.2,-.342863,.408608*
20,1,.2,-.342863,.408608,-.2667,.461938,0.0*
1,1,.2,-.2667,.461938*
20,1,.2,-.2667,.461938,-.182434,.501232,0.0*
1,1,.2,-.182434,.501232*
20,1,.2,-.182434,.501232,-.092624,.525296,0.0*
1,1,.2,-.092624,.525296*
20,1,.2,-.092624,.525296,0.0,.5334,0.0*
1,1,.2,0.0,.5334*
20,1,.2,0.0,.5334,.092624,.525296,0.0*
1,1,.2,.092624,.525296*
20,1,.2,.092624,.525296,.182434,.501232,0.0*
1,1,.2,.182434,.501232*
20,1,.2,.182434,.501232,.2667,.461938,0.0*
1,1,.2,.2667,.461938*
20,1,.2,.2667,.461938,.342863,.408608,0.0*
1,1,.2,.342863,.408608*
20,1,.2,.342863,.408608,.408608,.342863,0.0*
1,1,.2,.408608,.342863*
20,1,.2,.408608,.342863,.461938,.2667,0.0*
1,1,.2,.461938,.2667*
20,1,.2,.461938,.2667,.501232,.182434,0.0*
1,1,.2,.501232,.182434*
20,1,.2,.501232,.182434,.525296,.092624,0.0*
1,1,.2,.525296,.092624*
20,1,.2,.525296,.092624,.5334,0.0,0.0*
1,1,.2,.5334,0.0*
%
%ADD10MACRO10*%
%AMMACRO12*
1,1,.2,.3937,0.0*
20,1,.2,.3937,0.0,.387719,-.068365,0.0*
1,1,.2,.387719,-.068365*
20,1,.2,.387719,-.068365,.369957,-.134653,0.0*
1,1,.2,.369957,-.134653*
20,1,.2,.369957,-.134653,.340954,-.19685,0.0*
1,1,.2,.340954,-.19685*
20,1,.2,.340954,-.19685,.301592,-.253065,0.0*
1,1,.2,.301592,-.253065*
20,1,.2,.301592,-.253065,.253065,-.301592,0.0*
1,1,.2,.253065,-.301592*
20,1,.2,.253065,-.301592,.19685,-.340954,0.0*
1,1,.2,.19685,-.340954*
20,1,.2,.19685,-.340954,.134653,-.369957,0.0*
1,1,.2,.134653,-.369957*
20,1,.2,.134653,-.369957,.068365,-.387719,0.0*
1,1,.2,.068365,-.387719*
20,1,.2,.068365,-.387719,0.0,-.3937,0.0*
1,1,.2,0.0,-.3937*
20,1,.2,0.0,-.3937,-.068365,-.387719,0.0*
1,1,.2,-.068365,-.387719*
20,1,.2,-.068365,-.387719,-.134653,-.369957,0.0*
1,1,.2,-.134653,-.369957*
20,1,.2,-.134653,-.369957,-.19685,-.340954,0.0*
1,1,.2,-.19685,-.340954*
20,1,.2,-.19685,-.340954,-.253065,-.301592,0.0*
1,1,.2,-.253065,-.301592*
20,1,.2,-.253065,-.301592,-.301592,-.253065,0.0*
1,1,.2,-.301592,-.253065*
20,1,.2,-.301592,-.253065,-.340954,-.19685,0.0*
1,1,.2,-.340954,-.19685*
20,1,.2,-.340954,-.19685,-.369957,-.134653,0.0*
1,1,.2,-.369957,-.134653*
20,1,.2,-.369957,-.134653,-.387719,-.068365,0.0*
1,1,.2,-.387719,-.068365*
20,1,.2,-.387719,-.068365,-.3937,0.0,0.0*
1,1,.2,-.3937,0.0*
20,1,.2,-.3937,0.0,-.387719,.068365,0.0*
1,1,.2,-.387719,.068365*
20,1,.2,-.387719,.068365,-.369957,.134653,0.0*
1,1,.2,-.369957,.134653*
20,1,.2,-.369957,.134653,-.340954,.19685,0.0*
1,1,.2,-.340954,.19685*
20,1,.2,-.340954,.19685,-.301592,.253065,0.0*
1,1,.2,-.301592,.253065*
20,1,.2,-.301592,.253065,-.253065,.301592,0.0*
1,1,.2,-.253065,.301592*
20,1,.2,-.253065,.301592,-.19685,.340954,0.0*
1,1,.2,-.19685,.340954*
20,1,.2,-.19685,.340954,-.134653,.369957,0.0*
1,1,.2,-.134653,.369957*
20,1,.2,-.134653,.369957,-.068365,.387719,0.0*
1,1,.2,-.068365,.387719*
20,1,.2,-.068365,.387719,0.0,.3937,0.0*
1,1,.2,0.0,.3937*
20,1,.2,0.0,.3937,.068365,.387719,0.0*
1,1,.2,.068365,.387719*
20,1,.2,.068365,.387719,.134653,.369957,0.0*
1,1,.2,.134653,.369957*
20,1,.2,.134653,.369957,.19685,.340954,0.0*
1,1,.2,.19685,.340954*
20,1,.2,.19685,.340954,.253065,.301592,0.0*
1,1,.2,.253065,.301592*
20,1,.2,.253065,.301592,.301592,.253065,0.0*
1,1,.2,.301592,.253065*
20,1,.2,.301592,.253065,.340954,.19685,0.0*
1,1,.2,.340954,.19685*
20,1,.2,.340954,.19685,.369957,.134653,0.0*
1,1,.2,.369957,.134653*
20,1,.2,.369957,.134653,.387719,.068365,0.0*
1,1,.2,.387719,.068365*
20,1,.2,.387719,.068365,.3937,0.0,0.0*
1,1,.2,.3937,0.0*
%
%ADD12MACRO12*%
%ADD16O,1.524X1.016*%
%ADD15R,1.524X1.016*%
%ADD13C,1.524*%
%ADD17C,1.651*%
%ADD14R,1.524X1.524*%
%ADD18C,.5*%
%ADD19C,.2032*%
%ADD20C,1.*%
%ADD21C,.2*%
G75*
%LPD*%
G75*
G54D10*
X-1270Y-4206000D03*
X3460000Y5536000D03*
Y5790000D03*
X3790000Y3080000D03*
Y4096000D03*
X4150000Y5280000D03*
Y6296000D03*
X4700000Y3070000D03*
Y4086000D03*
X4920000Y5280000D03*
Y6296000D03*
X5910000Y3060000D03*
Y4076000D03*
X6930000Y3000000D03*
Y4016000D03*
X6921500Y5207000D03*
Y6223000D03*
X7800000Y3020000D03*
Y4036000D03*
X7440000Y5250000D03*
Y6266000D03*
X9490000Y5280000D03*
Y6296000D03*
G54D20*
G01X550000Y3296000D02*
X262500Y3583500D01*
Y5778500D01*
X490000Y6006000D01*
G01X550000Y3296000D02*
Y1686000D01*
X1070000Y1166000D01*
G01X3670000Y749400D02*
X1486600D01*
X1070000Y1166000D01*
G01D02*
X2055000D01*
X2286000Y1397000D01*
G01X1590000Y4070000D02*
X1070000Y3550000D01*
Y1420000D01*
G01X3670000Y1740000D02*
X3505000Y1905000D01*
X1555000D01*
X1070000Y1420000D01*
G01X1590000Y4070000D02*
X2028500Y4508500D01*
X5778500D01*
X6665250Y5395250D01*
X7500180D01*
X7517430Y5378000D01*
X8100000D01*
G01X2720000Y3069400D02*
Y1577000D01*
X2286000Y1143000D01*
G01D02*
X4213000D01*
X4810000Y1740000D01*
G01X3670000Y749400D02*
X4810000D01*
G01X6932000Y1630000D02*
X6530000Y2032000D01*
X3962000D01*
X3670000Y1740000D01*
G01D02*
X4064000Y2134000D01*
Y2984500D01*
X5490000Y4410500D01*
Y5348000D01*
G01X3790000Y3080000D02*
X4544740D01*
X4554740Y3070000D01*
X4700000D01*
G01X4810000Y749400D02*
X5080000Y1019400D01*
Y2690000D01*
X4700000Y3070000D01*
G01X7800000Y769400D02*
X7510000Y479400D01*
X5080000D01*
X4810000Y749400D01*
G01Y1740000D02*
X5298000D01*
X6170000Y868000D01*
G01X4700000Y3070000D02*
X5651500Y4021500D01*
Y5694500D01*
X5490000Y5856000D01*
G01X9580000Y3266000D02*
X9004000Y2690000D01*
X5080000D01*
X4700000Y3070000D01*
G01X6252000Y5856000D02*
X5764200Y5368200D01*
Y3208300D01*
X5702050Y3146150D01*
Y2973850D01*
X5715000Y2960900D01*
Y1323000D01*
X6170000Y868000D01*
G01Y1376000D02*
X6678000D01*
X6932000Y1122000D01*
G01X6170000Y1376000D02*
X6350000Y1556000D01*
Y3873500D01*
X7961100Y5484600D01*
Y5747100D01*
X8100000Y5886000D01*
G01X8862000D02*
X8334500Y6413500D01*
X6809500D01*
X6252000Y5856000D01*
G01X6932000Y1122000D02*
X7447400D01*
X7800000Y769400D01*
G01X6932000Y1630000D02*
X7175500Y1873500D01*
Y3175000D01*
X6784750Y3565750D01*
Y4076180D01*
X6869820Y4161250D01*
X6883250D01*
X8100000Y5378000D01*
G54D11*
X-1270Y-3571000D03*
X490000Y6006000D03*
Y6260000D03*
X1070000Y1166000D03*
Y1420000D03*
X550000Y3296000D03*
Y3550000D03*
X1590000Y3079400D03*
Y4070000D03*
X1580000Y5369400D03*
Y6360000D03*
X2286000Y1143000D03*
Y1397000D03*
X2720000Y3069400D03*
Y4060000D03*
X3670000Y749400D03*
Y1740000D03*
X4810000Y749400D03*
Y1740000D03*
X5490000Y5348000D03*
Y5602000D03*
Y5856000D03*
Y6110000D03*
X6170000Y868000D03*
Y1122000D03*
Y1376000D03*
Y1630000D03*
X6252000Y5348000D03*
Y5602000D03*
Y5856000D03*
Y6110000D03*
X6932000Y868000D03*
Y1122000D03*
Y1376000D03*
Y1630000D03*
X7800000Y769400D03*
Y1760000D03*
X8100000Y5378000D03*
Y5632000D03*
Y5886000D03*
Y6140000D03*
X8750000Y769400D03*
Y1760000D03*
X8690000Y3266000D03*
Y3520000D03*
X8862000Y5378000D03*
Y5632000D03*
Y5886000D03*
Y6140000D03*
X9580000Y3266000D03*
Y3520000D03*
G54D21*
G01X-1143000Y-4523500D02*
Y-698500D01*
X11455400D01*
Y-4523500D01*
X-1143000D01*
G01Y-3888500D02*
X11455400D01*
G01X-1143000Y-3253500D02*
X11455400D01*
G01X-1143000Y-1983500D02*
X11455400D01*
G01X-1143000Y-2618500D02*
X11455400D01*
G01X-1143000Y-1348500D02*
X11455400D01*
G01X3071290Y0D02*
X-1210000D01*
G01X-1125360Y3568750D02*
X-1117480Y3637540D01*
X-1105670Y3695740D01*
X-1089920Y3748670D01*
X-1070240Y3806870D01*
X-1038740Y3886250D01*
X-1196220D01*
G01X-802520D02*
X-834020Y3875670D01*
X-857640Y3849210D01*
X-873390Y3817460D01*
X-885200Y3775120D01*
X-889130Y3727500D01*
X-885200Y3679870D01*
X-873390Y3637540D01*
X-857640Y3605780D01*
X-834020Y3579330D01*
X-802520Y3568750D01*
X-771030Y3579330D01*
X-747400Y3605780D01*
X-731650Y3637540D01*
X-719840Y3679870D01*
X-715910Y3727500D01*
X-719840Y3775120D01*
X-731650Y3817460D01*
X-747400Y3849210D01*
X-771030Y3875670D01*
X-802520Y3886250D01*
G01X3054950Y7000000D02*
X-1210000D01*
G01X-863480Y-2459750D02*
Y-2142250D01*
X-713860D01*
G01X-768990Y-2295700D02*
X-863480D01*
G01X-520950Y-2142250D02*
X-426470D01*
G01X-473710D02*
Y-2459750D01*
G01X-520950D02*
X-426470D01*
G01X-135130Y-2301000D02*
X-56380D01*
Y-2396250D01*
X-80010Y-2428010D01*
X-107570Y-2449170D01*
X-146940Y-2459750D01*
X-186310Y-2449170D01*
X-213870Y-2428010D01*
X-237490Y-2396250D01*
X-253240Y-2359210D01*
X-261120Y-2316880D01*
Y-2279830D01*
X-253240Y-2248090D01*
X-237490Y-2211040D01*
X-213870Y-2179290D01*
X-190250Y-2158130D01*
X-158750Y-2142250D01*
X-131190D01*
X-99700Y-2152830D01*
X-76070Y-2174000D01*
G01X69600Y-2142250D02*
Y-2369790D01*
X85340Y-2417430D01*
X116840Y-2449170D01*
X156210Y-2459750D01*
X195580Y-2449170D01*
X227080Y-2417430D01*
X242820Y-2369790D01*
Y-2142250D01*
G01X392430Y-2459750D02*
Y-2142250D01*
X490850D01*
X522350Y-2158130D01*
X542040Y-2179290D01*
X549910Y-2221630D01*
X542040Y-2263960D01*
X518410Y-2290410D01*
X490850Y-2306300D01*
X392430D01*
G01X490850D02*
X549910Y-2459750D01*
G01X864870D02*
X707390D01*
Y-2142250D01*
X864870D01*
G01X801880Y-2295700D02*
X707390D01*
G01X-960000Y3410000D02*
Y0D01*
G01X-1022500Y400000D02*
X-960000Y0D01*
X-897500Y400000D01*
X-1022500D01*
G01X-960000Y3410000D02*
Y7000000D01*
G01X-897500Y6600000D02*
X-960000Y7000000D01*
X-1022500Y6600000D01*
X-897500D01*
G01X10000000Y0D02*
Y7000000D01*
X0D01*
Y0D01*
X10000000D01*
G01X0Y3104950D02*
Y7890000D01*
G01X363000Y6387000D02*
X617000D01*
Y5879000D01*
X363000D01*
Y6387000D01*
G01X365340Y6705600D02*
X377190Y6686550D01*
X391410Y6673850D01*
X408010Y6667500D01*
X426970Y6673850D01*
X441200Y6686550D01*
X455420Y6705600D01*
X460160Y6731000D01*
Y6858000D01*
G01X558210Y6826250D02*
X572430Y6845300D01*
X589030Y6854830D01*
X607990Y6858000D01*
X631700Y6851650D01*
X648290Y6835770D01*
X653030Y6816730D01*
X650660Y6797670D01*
X641180Y6781800D01*
X593770Y6750050D01*
X572430Y6727820D01*
X558210Y6696070D01*
X553470Y6667500D01*
X653030D01*
G01X4920000Y7640000D02*
X0D01*
G01X400000Y7702500D02*
X0Y7640000D01*
X400000Y7577500D01*
Y7702500D01*
G01X1140460Y-1983500D02*
Y-4523500D01*
G01X805810Y-1824750D02*
X904240Y-1507250D01*
X1002670Y-1824750D01*
G01X967230Y-1713630D02*
X841240D01*
G01X1140460Y-1507250D02*
Y-1824750D01*
X1297940D01*
G01X1455420Y-1507250D02*
Y-1824750D01*
X1612900D01*
G01X2077470Y-1507250D02*
Y-1734790D01*
X2093210Y-1782430D01*
X2124710Y-1814170D01*
X2164080Y-1824750D01*
X2203450Y-1814170D01*
X2234950Y-1782430D01*
X2250690Y-1734790D01*
Y-1507250D01*
G01X2388490Y-1824750D02*
Y-1507250D01*
X2569590Y-1824750D01*
Y-1507250D01*
G01X2746760D02*
X2841240D01*
G01X2794000D02*
Y-1824750D01*
G01X2746760D02*
X2841240D01*
G01X3108960Y-1507250D02*
Y-1824750D01*
G01X3018410Y-1507250D02*
X3199510D01*
G01X3341240Y-1782430D02*
X3372740Y-1808880D01*
X3408170Y-1824750D01*
X3439670D01*
X3471160Y-1808880D01*
X3494790Y-1782430D01*
X3506600Y-1745370D01*
X3498730Y-1708340D01*
X3479040Y-1676590D01*
X3443600Y-1655410D01*
X3396360Y-1644830D01*
X3368800Y-1623670D01*
X3356990Y-1586630D01*
X3364870Y-1549580D01*
X3384550Y-1523130D01*
X3412110Y-1507250D01*
X3439670D01*
X3467230Y-1517830D01*
X3490850Y-1544290D01*
G01X3955410Y-1824750D02*
X4053840Y-1507250D01*
X4152270Y-1824750D01*
G01X4116830Y-1713630D02*
X3990840D01*
G01X4290060Y-1824750D02*
Y-1507250D01*
X4388480D01*
X4419980Y-1523130D01*
X4439670Y-1544290D01*
X4447540Y-1586630D01*
X4439670Y-1628960D01*
X4416040Y-1655410D01*
X4388480Y-1671300D01*
X4290060D01*
G01X4388480D02*
X4447540Y-1824750D01*
G01X4762500D02*
X4605020D01*
Y-1507250D01*
X4762500D01*
G01X4699510Y-1660700D02*
X4605020D01*
G01X5266440Y-1507250D02*
X5360920D01*
G01X5313680D02*
Y-1824750D01*
G01X5266440D02*
X5360920D01*
G01X5538090D02*
Y-1507250D01*
X5719190Y-1824750D01*
Y-1507250D01*
G01X6156190Y-1824750D02*
Y-1507250D01*
X6258560Y-1771830D01*
X6360930Y-1507250D01*
Y-1824750D01*
G01X6526280Y-1507250D02*
X6620760D01*
G01X6573520D02*
Y-1824750D01*
G01X6526280D02*
X6620760D01*
G01X6809740Y-1507250D02*
Y-1824750D01*
X6967220D01*
G01X7124700Y-1507250D02*
Y-1824750D01*
X7282180D01*
G01X7471160Y-1507250D02*
X7565640D01*
G01X7518400D02*
Y-1824750D01*
G01X7471160D02*
X7565640D01*
G01X7730990D02*
Y-1507250D01*
X7833360Y-1771830D01*
X7935730Y-1507250D01*
Y-1824750D01*
G01X8227060D02*
X8069580D01*
Y-1507250D01*
X8227060D01*
G01X8164070Y-1660700D02*
X8069580D01*
G01X8463280Y-1507250D02*
Y-1824750D01*
G01X8372730Y-1507250D02*
X8553830D01*
G01X8856980Y-1824750D02*
X8699500D01*
Y-1507250D01*
X8856980D01*
G01X8793990Y-1660700D02*
X8699500D01*
G01X9014460Y-1824750D02*
Y-1507250D01*
X9112880D01*
X9144380Y-1523130D01*
X9164070Y-1544290D01*
X9171940Y-1586630D01*
X9164070Y-1628960D01*
X9140440Y-1655410D01*
X9112880Y-1671300D01*
X9014460D01*
G01X9112880D02*
X9171940Y-1824750D01*
G01X9325480Y-1782430D02*
X9356980Y-1808880D01*
X9392410Y-1824750D01*
X9423910D01*
X9455400Y-1808880D01*
X9479030Y-1782430D01*
X9490840Y-1745370D01*
X9482970Y-1708340D01*
X9463280Y-1676590D01*
X9427840Y-1655410D01*
X9380600Y-1644830D01*
X9353040Y-1623670D01*
X9341230Y-1586630D01*
X9349110Y-1549580D01*
X9368790Y-1523130D01*
X9396350Y-1507250D01*
X9423910D01*
X9451470Y-1517830D01*
X9475090Y-1544290D01*
G01X1132590Y-1174750D02*
Y-857250D01*
X1211320D01*
X1242820Y-873130D01*
X1266440Y-894290D01*
X1286130Y-926040D01*
X1301880Y-963090D01*
X1305810Y-1016000D01*
X1301880Y-1068920D01*
X1286130Y-1105960D01*
X1266440Y-1137720D01*
X1242820Y-1158880D01*
X1211320Y-1174750D01*
X1132590D01*
G01X1455420D02*
Y-857250D01*
X1553840D01*
X1585340Y-873130D01*
X1605030Y-894290D01*
X1612900Y-936630D01*
X1605030Y-978960D01*
X1581400Y-1005410D01*
X1553840Y-1021300D01*
X1455420D01*
G01X1553840D02*
X1612900Y-1174750D01*
G01X1801880Y-857250D02*
X1896360D01*
G01X1849120D02*
Y-1174750D01*
G01X1801880D02*
X1896360D01*
G01X2085340Y-857250D02*
Y-1174750D01*
X2242820D01*
G01X2400300Y-857250D02*
Y-1174750D01*
X2557780D01*
G01X3195570Y-883710D02*
X3171950Y-867830D01*
X3144400Y-857250D01*
X3112900D01*
X3077460Y-873130D01*
X3049910Y-899580D01*
X3030220Y-931340D01*
X3014470Y-984250D01*
X3010530Y-1031880D01*
X3018410Y-1079500D01*
X3030220Y-1111250D01*
X3053840Y-1143010D01*
X3081400Y-1164170D01*
X3108960Y-1174750D01*
X3136520D01*
X3164080Y-1164170D01*
X3187700Y-1148300D01*
X3207390Y-1127140D01*
G01X3341240Y-1174750D02*
Y-857250D01*
G01X3506600D02*
Y-1174750D01*
G01Y-1016000D02*
X3341240D01*
G01X3640450Y-1174750D02*
X3738880Y-857250D01*
X3837310Y-1174750D01*
G01X3801870Y-1063630D02*
X3675880D01*
G01X3975100Y-1174750D02*
Y-857250D01*
X4073520D01*
X4105020Y-873130D01*
X4124710Y-894290D01*
X4132580Y-936630D01*
X4124710Y-978960D01*
X4101080Y-1005410D01*
X4073520Y-1021300D01*
X3975100D01*
G01X4073520D02*
X4132580Y-1174750D01*
G01X4368800Y-857250D02*
Y-1174750D01*
G01X4278250Y-857250D02*
X4459350D01*
G01X4683760Y-1185330D02*
X4675880Y-1180040D01*
Y-1169460D01*
X4683760Y-1164170D01*
X4691640Y-1169460D01*
Y-1180040D01*
X4683760Y-1185330D01*
G01Y-1042470D02*
X4675880Y-1037170D01*
Y-1026590D01*
X4683760Y-1021300D01*
X4691640Y-1026590D01*
Y-1037170D01*
X4683760Y-1042470D01*
G01X5313680Y-857250D02*
Y-1174750D01*
G01X5223130Y-857250D02*
X5404230D01*
G01X5628640Y-1174750D02*
X5597140Y-1169460D01*
X5569590Y-1148300D01*
X5545960Y-1116540D01*
X5530210Y-1079500D01*
X5522340Y-1037170D01*
Y-994830D01*
X5530210Y-952500D01*
X5545960Y-915460D01*
X5569590Y-883710D01*
X5597140Y-862540D01*
X5628640Y-857250D01*
X5660130Y-862540D01*
X5687690Y-883710D01*
X5711320Y-915460D01*
X5727070Y-952500D01*
X5734940Y-994830D01*
Y-1037170D01*
X5727070Y-1079500D01*
X5711320Y-1116540D01*
X5687690Y-1148300D01*
X5660130Y-1169460D01*
X5628640Y-1174750D01*
G01X5864860D02*
Y-857250D01*
X5959350D01*
X5990840Y-873130D01*
X6014470Y-910170D01*
X6022340Y-952500D01*
X6014470Y-994830D01*
X5994780Y-1026590D01*
X5959350Y-1042470D01*
X5864860D01*
G01X6573520Y-857250D02*
Y-1174750D01*
G01X6518400Y-963090D02*
X6628640D01*
G01X6888480Y-1174750D02*
X6864860Y-1169460D01*
X6841240Y-1148300D01*
X6825480Y-1111250D01*
X6817610Y-1068920D01*
X6825480Y-1026590D01*
X6841240Y-989540D01*
X6864860Y-968380D01*
X6888480Y-963090D01*
X6912100Y-968380D01*
X6935720Y-989540D01*
X6951470Y-1026590D01*
X6955410Y-1068920D01*
X6951470Y-1111250D01*
X6935720Y-1148300D01*
X6912100Y-1169460D01*
X6888480Y-1174750D01*
G01X7549890Y-1005410D02*
X7565640Y-989540D01*
X7577450Y-963090D01*
X7585330Y-926040D01*
X7577450Y-894290D01*
X7561710Y-873130D01*
X7534150Y-857250D01*
X7427850D01*
Y-1174750D01*
X7557770D01*
X7585330Y-1153590D01*
X7601080Y-1121830D01*
X7608950Y-1084790D01*
X7601080Y-1047760D01*
X7577450Y-1016000D01*
X7549890Y-1005410D01*
X7427850D01*
G01X7833360Y-1174750D02*
X7801860Y-1169460D01*
X7774310Y-1148300D01*
X7750680Y-1116540D01*
X7734930Y-1079500D01*
X7727060Y-1037170D01*
Y-994830D01*
X7734930Y-952500D01*
X7750680Y-915460D01*
X7774310Y-883710D01*
X7801860Y-862540D01*
X7833360Y-857250D01*
X7864850Y-862540D01*
X7892410Y-883710D01*
X7916040Y-915460D01*
X7931790Y-952500D01*
X7939660Y-994830D01*
Y-1037170D01*
X7931790Y-1079500D01*
X7916040Y-1116540D01*
X7892410Y-1148300D01*
X7864850Y-1169460D01*
X7833360Y-1174750D01*
G01X8148320Y-857250D02*
Y-1174750D01*
G01X8057770Y-857250D02*
X8238870D01*
G01X8463280D02*
Y-1174750D01*
G01X8372730Y-857250D02*
X8553830D01*
G01X8778240Y-1174750D02*
X8746740Y-1169460D01*
X8719190Y-1148300D01*
X8695560Y-1116540D01*
X8679810Y-1079500D01*
X8671940Y-1037170D01*
Y-994830D01*
X8679810Y-952500D01*
X8695560Y-915460D01*
X8719190Y-883710D01*
X8746740Y-862540D01*
X8778240Y-857250D01*
X8809730Y-862540D01*
X8837290Y-883710D01*
X8860920Y-915460D01*
X8876670Y-952500D01*
X8884540Y-994830D01*
Y-1037170D01*
X8876670Y-1079500D01*
X8860920Y-1116540D01*
X8837290Y-1148300D01*
X8809730Y-1169460D01*
X8778240Y-1174750D01*
G01X8990830D02*
Y-857250D01*
X9093200Y-1121830D01*
X9195570Y-857250D01*
Y-1174750D01*
G01X1324000Y1293000D02*
G03I-254000J0D01*
G01D02*
G03I-254000J0D01*
G01X1036400Y2206620D02*
X1022180Y2216150D01*
X1005590Y2222500D01*
X986620D01*
X965280Y2212970D01*
X948690Y2197100D01*
X936840Y2178050D01*
X927350Y2146300D01*
X924980Y2117720D01*
X929730Y2089150D01*
X936840Y2070100D01*
X951060Y2051050D01*
X967660Y2038350D01*
X984250Y2032000D01*
X1000840D01*
X1017440Y2038350D01*
X1031660Y2047870D01*
X1043520Y2060570D01*
G01X1122600Y2070100D02*
X1136820Y2047870D01*
X1155780Y2035170D01*
X1177120Y2032000D01*
X1196090Y2035170D01*
X1215050Y2051050D01*
X1226900Y2070100D01*
X1229270Y2089150D01*
X1224530Y2111370D01*
X1207940Y2127250D01*
X1191340Y2133600D01*
X1170010D01*
G01X1191340D02*
X1205570Y2143120D01*
X1217420Y2159000D01*
X1222160Y2178050D01*
X1217420Y2197100D01*
X1205570Y2212970D01*
X1184230Y2222500D01*
X1162900Y2219330D01*
X1141560Y2206620D01*
G01X423000Y3677000D02*
X677000D01*
Y3169000D01*
X423000D01*
Y3677000D01*
G01X428840Y4419600D02*
X440690Y4400550D01*
X454910Y4387850D01*
X471510Y4381500D01*
X490470Y4387850D01*
X504700Y4400550D01*
X518920Y4419600D01*
X523660Y4445000D01*
Y4572000D01*
G01X614600Y4419600D02*
X628820Y4397370D01*
X647780Y4384670D01*
X669120Y4381500D01*
X688090Y4384670D01*
X707050Y4400550D01*
X718900Y4419600D01*
X721270Y4438650D01*
X716530Y4460870D01*
X699940Y4476750D01*
X683340Y4483100D01*
X662010D01*
G01X683340D02*
X697570Y4492620D01*
X709420Y4508500D01*
X714160Y4527550D01*
X709420Y4546600D01*
X697570Y4562470D01*
X676230Y4572000D01*
X654900Y4568830D01*
X633560Y4556120D01*
G01X1734940Y-2459750D02*
Y-2142250D01*
X1884560D01*
G01X1829430Y-2295700D02*
X1734940D01*
G01X2077470Y-2142250D02*
X2171950D01*
G01X2124710D02*
Y-2459750D01*
G01X2077470D02*
X2171950D01*
G01X2349120D02*
Y-2142250D01*
X2530220Y-2459750D01*
Y-2142250D01*
G01X2707390D02*
X2801870D01*
G01X2754630D02*
Y-2459750D01*
G01X2707390D02*
X2801870D01*
G01X2986910Y-2417430D02*
X3018410Y-2443880D01*
X3053840Y-2459750D01*
X3085340D01*
X3116830Y-2443880D01*
X3140460Y-2417430D01*
X3152270Y-2380370D01*
X3144400Y-2343340D01*
X3124710Y-2311590D01*
X3089270Y-2290410D01*
X3042030Y-2279830D01*
X3014470Y-2258670D01*
X3002660Y-2221630D01*
X3010540Y-2184580D01*
X3030220Y-2158130D01*
X3057780Y-2142250D01*
X3085340D01*
X3112900Y-2152830D01*
X3136520Y-2179290D01*
G01X3301870Y-2459750D02*
Y-2142250D01*
G01X3467230D02*
Y-2459750D01*
G01Y-2301000D02*
X3301870D01*
G01X3778250Y-2459750D02*
X3620770D01*
Y-2142250D01*
X3778250D01*
G01X3715260Y-2295700D02*
X3620770D01*
G01X3927860Y-2459750D02*
Y-2142250D01*
X4006590D01*
X4038090Y-2158130D01*
X4061710Y-2179290D01*
X4081400Y-2211040D01*
X4097150Y-2248090D01*
X4101080Y-2301000D01*
X4097150Y-2353920D01*
X4081400Y-2390960D01*
X4061710Y-2422720D01*
X4038090Y-2443880D01*
X4006590Y-2459750D01*
X3927860D01*
G01X4211320Y-2565580D02*
X4447540D01*
G01X4561710Y-2417430D02*
X4593210Y-2443880D01*
X4628640Y-2459750D01*
X4660140D01*
X4691630Y-2443880D01*
X4715260Y-2417430D01*
X4727070Y-2380370D01*
X4719200Y-2343340D01*
X4699510Y-2311590D01*
X4664070Y-2290410D01*
X4616830Y-2279830D01*
X4589270Y-2258670D01*
X4577460Y-2221630D01*
X4585340Y-2184580D01*
X4605020Y-2158130D01*
X4632580Y-2142250D01*
X4660140D01*
X4687700Y-2152830D01*
X4711320Y-2179290D01*
G01X4912110Y-2142250D02*
X5006590D01*
G01X4959350D02*
Y-2459750D01*
G01X4912110D02*
X5006590D01*
G01X5199500Y-2142250D02*
X5349120D01*
X5199500Y-2459750D01*
X5349120D01*
G01X5668010D02*
X5510530D01*
Y-2142250D01*
X5668010D01*
G01X5605020Y-2295700D02*
X5510530D01*
G01X1419400Y1445400D02*
X1317800D01*
G01X1368600Y1394600D02*
Y1496200D01*
G01X1717000Y3816000D02*
Y3333400D01*
X1463000D01*
Y3816000D01*
X1717000D01*
G01Y3727100D02*
X1463000D01*
G01X1717000Y3739800D02*
X1463000D01*
G01X1717000Y3727100D02*
X1463000D01*
G01X1717000Y3739800D02*
X1463000D01*
G01X1479470Y4381500D02*
Y4572000D01*
X1526880D01*
X1545840Y4562470D01*
X1560070Y4549770D01*
X1571920Y4530730D01*
X1581400Y4508500D01*
X1583770Y4476750D01*
X1581400Y4445000D01*
X1571920Y4422770D01*
X1560070Y4403720D01*
X1545840Y4391020D01*
X1526880Y4381500D01*
X1479470D01*
G01X1669970Y4419600D02*
X1684190Y4397370D01*
X1703150Y4384670D01*
X1724490Y4381500D01*
X1743460Y4384670D01*
X1762420Y4400550D01*
X1774270Y4419600D01*
X1776640Y4438650D01*
X1771900Y4460870D01*
X1755310Y4476750D01*
X1738710Y4483100D01*
X1717380D01*
G01X1738710D02*
X1752940Y4492620D01*
X1764790Y4508500D01*
X1769530Y4527550D01*
X1764790Y4546600D01*
X1752940Y4562470D01*
X1731600Y4572000D01*
X1710270Y4568830D01*
X1688930Y4556120D01*
G01X1707000Y6106000D02*
Y5623400D01*
X1453000D01*
Y6106000D01*
X1707000D01*
G01Y6017100D02*
X1453000D01*
G01X1707000Y6029800D02*
X1453000D01*
G01X1707000Y6017100D02*
X1453000D01*
G01X1707000Y6029800D02*
X1453000D01*
G01X1479470Y6604000D02*
Y6794500D01*
X1526880D01*
X1545840Y6784970D01*
X1560070Y6772270D01*
X1571920Y6753230D01*
X1581400Y6731000D01*
X1583770Y6699250D01*
X1581400Y6667500D01*
X1571920Y6645270D01*
X1560070Y6626220D01*
X1545840Y6613520D01*
X1526880Y6604000D01*
X1479470D01*
G01X1722120D02*
Y6794500D01*
X1693670Y6756400D01*
G01Y6604000D02*
X1750560D01*
G01X2540000Y1270000D02*
G03I-254000J0D01*
G01D02*
G03I-254000J0D01*
G01X2635400Y1422400D02*
X2533800D01*
G01X2584600Y1371600D02*
Y1473200D01*
G01X2242900Y2206620D02*
X2228680Y2216150D01*
X2212090Y2222500D01*
X2193120D01*
X2171780Y2212970D01*
X2155190Y2197100D01*
X2143340Y2178050D01*
X2133850Y2146300D01*
X2131480Y2117720D01*
X2136230Y2089150D01*
X2143340Y2070100D01*
X2157560Y2051050D01*
X2174160Y2038350D01*
X2190750Y2032000D01*
X2207340D01*
X2223940Y2038350D01*
X2238160Y2047870D01*
X2250020Y2060570D01*
G01X2409700Y2032000D02*
Y2222500D01*
X2321980Y2085980D01*
X2440520D01*
G01X2847000Y3806000D02*
Y3323400D01*
X2593000D01*
Y3806000D01*
X2847000D01*
G01Y3717100D02*
X2593000D01*
G01X2847000Y3729800D02*
X2593000D01*
G01X2847000Y3717100D02*
X2593000D01*
G01X2847000Y3729800D02*
X2593000D01*
G01X2622470Y4445000D02*
Y4635500D01*
X2669880D01*
X2688840Y4625970D01*
X2703070Y4613270D01*
X2714920Y4594230D01*
X2724400Y4572000D01*
X2726770Y4540250D01*
X2724400Y4508500D01*
X2714920Y4486270D01*
X2703070Y4467220D01*
X2688840Y4454520D01*
X2669880Y4445000D01*
X2622470D01*
G01X2860380D02*
X2865120Y4486270D01*
X2872230Y4521200D01*
X2881710Y4552950D01*
X2893570Y4587870D01*
X2912530Y4635500D01*
X2817710D01*
G01X2484120Y6667500D02*
X2465150Y6670670D01*
X2448560Y6683370D01*
X2434340Y6702420D01*
X2424850Y6724650D01*
X2420110Y6750050D01*
Y6775450D01*
X2424850Y6800850D01*
X2434340Y6823080D01*
X2448560Y6842120D01*
X2465150Y6854830D01*
X2484120Y6858000D01*
X2503080Y6854830D01*
X2519680Y6842120D01*
X2533900Y6823080D01*
X2543390Y6800850D01*
X2548130Y6775450D01*
Y6750050D01*
X2543390Y6724650D01*
X2533900Y6702420D01*
X2519680Y6683370D01*
X2503080Y6670670D01*
X2484120Y6667500D01*
G01X2503080Y6718300D02*
X2531530Y6667500D01*
G01X2674620D02*
Y6858000D01*
X2646170Y6819900D01*
G01Y6667500D02*
X2703060D01*
G01X2912110Y-4364750D02*
Y-4047250D01*
X2864870Y-4110750D01*
G01Y-4364750D02*
X2959350D01*
G01X3227070Y-4375330D02*
X3219190Y-4370040D01*
Y-4359460D01*
X3227070Y-4354170D01*
X3234950Y-4359460D01*
Y-4370040D01*
X3227070Y-4375330D01*
G01X3542030Y-4047250D02*
X3510530Y-4057830D01*
X3486910Y-4084290D01*
X3471160Y-4116040D01*
X3459350Y-4158380D01*
X3455420Y-4206000D01*
X3459350Y-4253630D01*
X3471160Y-4295960D01*
X3486910Y-4327720D01*
X3510530Y-4354170D01*
X3542030Y-4364750D01*
X3573520Y-4354170D01*
X3597150Y-4327720D01*
X3612900Y-4295960D01*
X3624710Y-4253630D01*
X3628640Y-4206000D01*
X3624710Y-4158380D01*
X3612900Y-4116040D01*
X3597150Y-4084290D01*
X3573520Y-4057830D01*
X3542030Y-4047250D01*
G01X3782180Y-4232470D02*
X3809750Y-4195410D01*
X3833370Y-4174250D01*
X3864870Y-4163670D01*
X3892430Y-4174250D01*
X3912110Y-4195410D01*
X3927860Y-4227170D01*
X3931800Y-4264210D01*
X3927860Y-4295960D01*
X3912110Y-4327720D01*
X3888480Y-4354170D01*
X3860930Y-4364750D01*
X3829430Y-4354170D01*
X3801870Y-4322430D01*
X3786120Y-4274790D01*
X3782180Y-4221880D01*
X3790060Y-4153090D01*
X3801870Y-4116040D01*
X3821550Y-4079000D01*
X3849110Y-4052540D01*
X3876670Y-4047250D01*
X3904230Y-4057830D01*
X3923920Y-4084290D01*
G01X4097140Y-4232470D02*
X4124710Y-4195410D01*
X4148330Y-4174250D01*
X4179830Y-4163670D01*
X4207390Y-4174250D01*
X4227070Y-4195410D01*
X4242820Y-4227170D01*
X4246760Y-4264210D01*
X4242820Y-4295960D01*
X4227070Y-4327720D01*
X4203440Y-4354170D01*
X4175890Y-4364750D01*
X4144390Y-4354170D01*
X4116830Y-4322430D01*
X4101080Y-4274790D01*
X4097140Y-4221880D01*
X4105020Y-4153090D01*
X4116830Y-4116040D01*
X4136510Y-4079000D01*
X4164070Y-4052540D01*
X4191630Y-4047250D01*
X4219190Y-4057830D01*
X4238880Y-4084290D01*
G01X4486910Y-4364750D02*
X4514470Y-4359460D01*
X4545960Y-4343590D01*
X4565650Y-4317140D01*
X4573520Y-4280080D01*
X4565650Y-4243050D01*
X4542030Y-4211300D01*
X4506590Y-4195410D01*
X4467230D01*
X4443600Y-4184830D01*
X4423910Y-4158380D01*
X4416040Y-4121340D01*
X4427860Y-4084290D01*
X4455410Y-4057830D01*
X4486910Y-4047250D01*
X4518400Y-4057830D01*
X4545960Y-4084290D01*
X4557780Y-4121340D01*
X4549900Y-4158380D01*
X4530220Y-4184830D01*
X4506590Y-4195410D01*
X4467230D01*
X4431790Y-4211300D01*
X4408170Y-4243050D01*
X4400300Y-4280080D01*
X4408170Y-4317140D01*
X4427860Y-4343590D01*
X4459350Y-4359460D01*
X4486910Y-4364750D01*
G01X2912110Y-3412250D02*
X2880610Y-3422830D01*
X2856990Y-3449290D01*
X2841240Y-3481040D01*
X2829430Y-3523380D01*
X2825500Y-3571000D01*
X2829430Y-3618630D01*
X2841240Y-3660960D01*
X2856990Y-3692720D01*
X2880610Y-3719170D01*
X2912110Y-3729750D01*
X2943600Y-3719170D01*
X2967230Y-3692720D01*
X2982980Y-3660960D01*
X2994790Y-3618630D01*
X2998720Y-3571000D01*
X2994790Y-3523380D01*
X2982980Y-3481040D01*
X2967230Y-3449290D01*
X2943600Y-3422830D01*
X2912110Y-3412250D01*
G01X3227070Y-3740330D02*
X3219190Y-3735040D01*
Y-3724460D01*
X3227070Y-3719170D01*
X3234950Y-3724460D01*
Y-3735040D01*
X3227070Y-3740330D01*
G01X3475100Y-3692720D02*
X3502660Y-3719170D01*
X3534150Y-3729750D01*
X3565650Y-3719170D01*
X3593210Y-3687430D01*
X3612900Y-3639790D01*
X3620770Y-3592170D01*
Y-3533960D01*
X3612900Y-3486340D01*
X3593210Y-3444000D01*
X3569590Y-3422830D01*
X3542030Y-3412250D01*
X3510530Y-3422830D01*
X3486910Y-3444000D01*
X3471160Y-3475750D01*
X3463290Y-3518090D01*
X3471160Y-3555120D01*
X3490850Y-3592170D01*
X3514470Y-3613340D01*
X3542030Y-3618630D01*
X3573520Y-3608050D01*
X3597150Y-3581590D01*
X3620770Y-3533960D01*
G01X3856990Y-3729750D02*
Y-3412250D01*
X3809750Y-3475750D01*
G01Y-3729750D02*
X3904230D01*
G01X4219190D02*
Y-3412250D01*
X4073520Y-3639790D01*
X4270380D01*
G01X4534150Y-3729750D02*
Y-3412250D01*
X4388480Y-3639790D01*
X4585340D01*
G01X2912110Y-2777250D02*
X2880610Y-2787830D01*
X2856990Y-2814290D01*
X2841240Y-2846040D01*
X2829430Y-2888380D01*
X2825500Y-2936000D01*
X2829430Y-2983630D01*
X2841240Y-3025960D01*
X2856990Y-3057720D01*
X2880610Y-3084170D01*
X2912110Y-3094750D01*
X2943600Y-3084170D01*
X2967230Y-3057720D01*
X2982980Y-3025960D01*
X2994790Y-2983630D01*
X2998720Y-2936000D01*
X2994790Y-2888380D01*
X2982980Y-2846040D01*
X2967230Y-2814290D01*
X2943600Y-2787830D01*
X2912110Y-2777250D01*
G01X3227070Y-3105330D02*
X3219190Y-3100040D01*
Y-3089460D01*
X3227070Y-3084170D01*
X3234950Y-3089460D01*
Y-3100040D01*
X3227070Y-3105330D01*
G01X3534150Y-3094750D02*
X3542030Y-3025960D01*
X3553840Y-2967760D01*
X3569590Y-2914830D01*
X3589270Y-2856630D01*
X3620770Y-2777250D01*
X3463290D01*
G01X3856990Y-3094750D02*
X3884550Y-3089460D01*
X3916040Y-3073590D01*
X3935730Y-3047140D01*
X3943600Y-3010080D01*
X3935730Y-2973050D01*
X3912110Y-2941300D01*
X3876670Y-2925410D01*
X3837310D01*
X3813680Y-2914830D01*
X3793990Y-2888380D01*
X3786120Y-2851340D01*
X3797940Y-2814290D01*
X3825490Y-2787830D01*
X3856990Y-2777250D01*
X3888480Y-2787830D01*
X3916040Y-2814290D01*
X3927860Y-2851340D01*
X3919980Y-2888380D01*
X3900300Y-2914830D01*
X3876670Y-2925410D01*
X3837310D01*
X3801870Y-2941300D01*
X3778250Y-2973050D01*
X3770380Y-3010080D01*
X3778250Y-3047140D01*
X3797940Y-3073590D01*
X3829430Y-3089460D01*
X3856990Y-3094750D01*
G01X4164070D02*
X4171950Y-3025960D01*
X4183760Y-2967760D01*
X4199510Y-2914830D01*
X4219190Y-2856630D01*
X4250690Y-2777250D01*
X4093210D01*
G01X4534150Y-3094750D02*
Y-2777250D01*
X4388480Y-3004790D01*
X4585340D01*
G01X3587000Y5917000D02*
Y5409000D01*
X3333000D01*
Y5917000D01*
X3587000D01*
G01Y5409000D02*
Y5917000D01*
X3333000D01*
Y5409000D01*
X3587000D01*
G01X3449400Y6842120D02*
X3435180Y6851650D01*
X3418590Y6858000D01*
X3399620D01*
X3378280Y6848470D01*
X3361690Y6832600D01*
X3349840Y6813550D01*
X3340350Y6781800D01*
X3337980Y6753220D01*
X3342730Y6724650D01*
X3349840Y6705600D01*
X3364060Y6686550D01*
X3380660Y6673850D01*
X3397250Y6667500D01*
X3413840D01*
X3430440Y6673850D01*
X3444660Y6683370D01*
X3456520Y6696070D01*
G01X3542710Y6826250D02*
X3556930Y6845300D01*
X3573530Y6854830D01*
X3592490Y6858000D01*
X3616200Y6851650D01*
X3632790Y6835770D01*
X3637530Y6816730D01*
X3635160Y6797670D01*
X3625680Y6781800D01*
X3578270Y6750050D01*
X3556930Y6727820D01*
X3542710Y6696070D01*
X3537970Y6667500D01*
X3637530D01*
G01X3797000Y1486000D02*
Y1003400D01*
X3543000D01*
Y1486000D01*
X3797000D01*
G01Y1397100D02*
X3543000D01*
G01X3797000Y1409800D02*
X3543000D01*
G01X3797000Y1397100D02*
X3543000D01*
G01X3797000Y1409800D02*
X3543000D01*
G01X3511470Y2032000D02*
Y2222500D01*
X3558880D01*
X3577840Y2212970D01*
X3592070Y2200270D01*
X3603920Y2181230D01*
X3613400Y2159000D01*
X3615770Y2127250D01*
X3613400Y2095500D01*
X3603920Y2073270D01*
X3592070Y2054220D01*
X3577840Y2041520D01*
X3558880Y2032000D01*
X3511470D01*
G01X3701970Y2060570D02*
X3716190Y2044700D01*
X3732780Y2035170D01*
X3754120Y2032000D01*
X3775460Y2038350D01*
X3792050Y2051050D01*
X3803900Y2073270D01*
X3806270Y2098670D01*
X3801530Y2124070D01*
X3789680Y2139950D01*
X3773080Y2152650D01*
X3756490Y2155820D01*
X3739900Y2152650D01*
X3718560Y2139950D01*
X3725670Y2222500D01*
X3789680D01*
G01X3663000Y3232400D02*
Y3943600D01*
X3917000D01*
Y3232400D01*
X3663000D01*
G01Y3943600D02*
X3917000D01*
Y3232400D01*
X3663000D01*
G01Y3943600D02*
Y3232400D01*
G01X3603840Y4445000D02*
Y4635500D01*
X3663100D01*
X3682070Y4625970D01*
X3693920Y4613270D01*
X3698660Y4587870D01*
X3693920Y4562470D01*
X3679700Y4546600D01*
X3663100Y4537070D01*
X3603840D01*
G01X3663100D02*
X3698660Y4445000D01*
G01X3796710Y4524370D02*
X3813300Y4546600D01*
X3827530Y4559300D01*
X3846490Y4565650D01*
X3863090Y4559300D01*
X3874940Y4546600D01*
X3884420Y4527550D01*
X3886790Y4505320D01*
X3884420Y4486270D01*
X3874940Y4467220D01*
X3860710Y4451350D01*
X3844120Y4445000D01*
X3825160Y4451350D01*
X3808560Y4470390D01*
X3799080Y4498980D01*
X3796710Y4530720D01*
X3801450Y4572000D01*
X3808560Y4594230D01*
X3820410Y4616450D01*
X3837010Y4632330D01*
X3853600Y4635500D01*
X3870200Y4629150D01*
X3882050Y4613270D01*
G01X4023000Y5432400D02*
Y6143600D01*
X4277000D01*
Y5432400D01*
X4023000D01*
G01Y6143600D02*
X4277000D01*
Y5432400D01*
X4023000D01*
G01Y6143600D02*
Y5432400D01*
G01X4048340Y6667500D02*
Y6858000D01*
X4107600D01*
X4126570Y6848470D01*
X4138420Y6835770D01*
X4143160Y6810370D01*
X4138420Y6784970D01*
X4124200Y6769100D01*
X4107600Y6759570D01*
X4048340D01*
G01X4107600D02*
X4143160Y6667500D01*
G01X4234100Y6705600D02*
X4248320Y6683370D01*
X4267280Y6670670D01*
X4288620Y6667500D01*
X4307590Y6670670D01*
X4326550Y6686550D01*
X4338400Y6705600D01*
X4340770Y6724650D01*
X4336030Y6746870D01*
X4319440Y6762750D01*
X4302840Y6769100D01*
X4281510D01*
G01X4302840D02*
X4317070Y6778620D01*
X4328920Y6794500D01*
X4333660Y6813550D01*
X4328920Y6832600D01*
X4317070Y6848470D01*
X4295730Y6858000D01*
X4274400Y6854830D01*
X4253060Y6842120D01*
G01X4937000Y1486000D02*
Y1003400D01*
X4683000D01*
Y1486000D01*
X4937000D01*
G01Y1397100D02*
X4683000D01*
G01X4937000Y1409800D02*
X4683000D01*
G01X4937000Y1397100D02*
X4683000D01*
G01X4937000Y1409800D02*
X4683000D01*
G01X4654470Y2095500D02*
Y2286000D01*
X4701880D01*
X4720840Y2276470D01*
X4735070Y2263770D01*
X4746920Y2244730D01*
X4756400Y2222500D01*
X4758770Y2190750D01*
X4756400Y2159000D01*
X4746920Y2136770D01*
X4735070Y2117720D01*
X4720840Y2105020D01*
X4701880Y2095500D01*
X4654470D01*
G01X4852080Y2174870D02*
X4868670Y2197100D01*
X4882900Y2209800D01*
X4901860Y2216150D01*
X4918460Y2209800D01*
X4930310Y2197100D01*
X4939790Y2178050D01*
X4942160Y2155820D01*
X4939790Y2136770D01*
X4930310Y2117720D01*
X4916080Y2101850D01*
X4899490Y2095500D01*
X4880530Y2101850D01*
X4863930Y2120890D01*
X4854450Y2149480D01*
X4852080Y2181220D01*
X4856820Y2222500D01*
X4863930Y2244730D01*
X4875780Y2266950D01*
X4892380Y2282830D01*
X4908970Y2286000D01*
X4925570Y2279650D01*
X4937420Y2263770D01*
G01X4573000Y3222400D02*
Y3933600D01*
X4827000D01*
Y3222400D01*
X4573000D01*
G01Y3933600D02*
X4827000D01*
Y3222400D01*
X4573000D01*
G01Y3933600D02*
Y3222400D01*
G01X4556340Y4445000D02*
Y4635500D01*
X4615600D01*
X4634570Y4625970D01*
X4646420Y4613270D01*
X4651160Y4587870D01*
X4646420Y4562470D01*
X4632200Y4546600D01*
X4615600Y4537070D01*
X4556340D01*
G01X4615600D02*
X4651160Y4445000D01*
G01X4789510D02*
X4794250Y4486270D01*
X4801360Y4521200D01*
X4810840Y4552950D01*
X4822700Y4587870D01*
X4841660Y4635500D01*
X4746840D01*
G01X4793000Y5432400D02*
Y6143600D01*
X5047000D01*
Y5432400D01*
X4793000D01*
G01Y6143600D02*
X5047000D01*
Y5432400D01*
X4793000D01*
G01Y6143600D02*
Y5432400D01*
G01X4810340Y6667500D02*
Y6858000D01*
X4869600D01*
X4888570Y6848470D01*
X4900420Y6835770D01*
X4905160Y6810370D01*
X4900420Y6784970D01*
X4886200Y6769100D01*
X4869600Y6759570D01*
X4810340D01*
G01X4869600D02*
X4905160Y6667500D01*
G01X5076700D02*
Y6858000D01*
X4988980Y6721480D01*
X5107520D01*
G01X4605040Y7798750D02*
Y8116250D01*
X4557800Y8052750D01*
G01Y7798750D02*
X4652280D01*
G01X4920000Y8116250D02*
X4888500Y8105670D01*
X4864880Y8079210D01*
X4849130Y8047460D01*
X4837320Y8005120D01*
X4833390Y7957500D01*
X4837320Y7909870D01*
X4849130Y7867540D01*
X4864880Y7835780D01*
X4888500Y7809330D01*
X4920000Y7798750D01*
X4951490Y7809330D01*
X4975120Y7835780D01*
X4990870Y7867540D01*
X5002680Y7909870D01*
X5006610Y7957500D01*
X5002680Y8005120D01*
X4990870Y8047460D01*
X4975120Y8079210D01*
X4951490Y8105670D01*
X4920000Y8116250D01*
G01X5234960D02*
X5203460Y8105670D01*
X5179840Y8079210D01*
X5164090Y8047460D01*
X5152280Y8005120D01*
X5148350Y7957500D01*
X5152280Y7909870D01*
X5164090Y7867540D01*
X5179840Y7835780D01*
X5203460Y7809330D01*
X5234960Y7798750D01*
X5266450Y7809330D01*
X5290080Y7835780D01*
X5305830Y7867540D01*
X5317640Y7909870D01*
X5321570Y7957500D01*
X5317640Y8005120D01*
X5305830Y8047460D01*
X5290080Y8079210D01*
X5266450Y8105670D01*
X5234960Y8116250D01*
G01X4920000Y7640000D02*
X10000000D01*
G01X5591600Y6237000D02*
X5744000D01*
X5807500Y6173500D01*
X5934500D01*
X5998000Y6237000D01*
X6150400D01*
Y5221000D01*
X5591600D01*
Y6237000D01*
G01X5553500D02*
Y5221000D01*
X6188500D01*
Y6237000D01*
G01X5553500D02*
X5744000D01*
X5807500Y6173500D01*
X5934500D01*
X5998000Y6237000D01*
X6188500D01*
G01X6258560Y-1983500D02*
Y-4523500D01*
G01X6271600Y1757000D02*
X6424000D01*
X6487500Y1693500D01*
X6614500D01*
X6678000Y1757000D01*
X6830400D01*
Y741000D01*
X6271600D01*
Y1757000D01*
G01X6233500D02*
Y741000D01*
X6868500D01*
Y1757000D01*
G01X6233500D02*
X6424000D01*
X6487500Y1693500D01*
X6614500D01*
X6678000Y1757000D01*
X6868500D01*
G01X6393100Y2286000D02*
Y2149480D01*
X6402580Y2120890D01*
X6421540Y2101850D01*
X6445250Y2095500D01*
X6468960Y2101850D01*
X6487920Y2120890D01*
X6497400Y2149480D01*
Y2286000D01*
G01X6583600Y2133600D02*
X6597820Y2111370D01*
X6616780Y2098670D01*
X6638120Y2095500D01*
X6657090Y2098670D01*
X6676050Y2114550D01*
X6687900Y2133600D01*
X6690270Y2152650D01*
X6685530Y2174870D01*
X6668940Y2190750D01*
X6652340Y2197100D01*
X6631010D01*
G01X6652340D02*
X6666570Y2206620D01*
X6678420Y2222500D01*
X6683160Y2241550D01*
X6678420Y2260600D01*
X6666570Y2276470D01*
X6645230Y2286000D01*
X6623900Y2282830D01*
X6602560Y2270120D01*
G01X5783000Y3212400D02*
Y3923600D01*
X6037000D01*
Y3212400D01*
X5783000D01*
G01Y3923600D02*
X6037000D01*
Y3212400D01*
X5783000D01*
G01Y3923600D02*
Y3212400D01*
G01X5762840Y4381500D02*
Y4572000D01*
X5822100D01*
X5841070Y4562470D01*
X5852920Y4549770D01*
X5857660Y4524370D01*
X5852920Y4498970D01*
X5838700Y4483100D01*
X5822100Y4473570D01*
X5762840D01*
G01X5822100D02*
X5857660Y4381500D01*
G01X6000750D02*
X6017340Y4384670D01*
X6036310Y4394200D01*
X6048160Y4410070D01*
X6052900Y4432300D01*
X6048160Y4454520D01*
X6033940Y4473570D01*
X6012600Y4483100D01*
X5988900D01*
X5974670Y4489450D01*
X5962820Y4505320D01*
X5958080Y4527550D01*
X5965190Y4549770D01*
X5981780Y4565650D01*
X6000750Y4572000D01*
X6019710Y4565650D01*
X6036310Y4549770D01*
X6043420Y4527550D01*
X6038680Y4505320D01*
X6026830Y4489450D01*
X6012600Y4483100D01*
X5988900D01*
X5967560Y4473570D01*
X5953340Y4454520D01*
X5948600Y4432300D01*
X5953340Y4410070D01*
X5965190Y4394200D01*
X5984160Y4384670D01*
X6000750Y4381500D01*
G01X5821600Y6794500D02*
Y6657980D01*
X5831080Y6629390D01*
X5850040Y6610350D01*
X5873750Y6604000D01*
X5897460Y6610350D01*
X5916420Y6629390D01*
X5925900Y6657980D01*
Y6794500D01*
G01X6064250Y6604000D02*
Y6794500D01*
X6035800Y6756400D01*
G01Y6604000D02*
X6092690D01*
G01X7006590Y-4364750D02*
Y-4047250D01*
X7101080D01*
X7132570Y-4063130D01*
X7156200Y-4100170D01*
X7164070Y-4142500D01*
X7156200Y-4184830D01*
X7136510Y-4216590D01*
X7101080Y-4232470D01*
X7006590D01*
G01X7321550Y-4047250D02*
Y-4364750D01*
X7479030D01*
G01X7616820D02*
X7715250Y-4047250D01*
X7813680Y-4364750D01*
G01X7778240Y-4253630D02*
X7652250D01*
G01X8030210Y-4047250D02*
Y-4364750D01*
G01X7939660Y-4047250D02*
X8120760D01*
G01X8423910Y-4364750D02*
X8266430D01*
Y-4047250D01*
X8423910D01*
G01X8360920Y-4200700D02*
X8266430D01*
G01X8573520Y-4364750D02*
Y-4047250D01*
X8652250D01*
X8683750Y-4063130D01*
X8707370Y-4084290D01*
X8727060Y-4116040D01*
X8742810Y-4153090D01*
X8746740Y-4206000D01*
X8742810Y-4258920D01*
X8727060Y-4295960D01*
X8707370Y-4327720D01*
X8683750Y-4348880D01*
X8652250Y-4364750D01*
X8573520D01*
G01X7006590Y-3729750D02*
Y-3412250D01*
X7101080D01*
X7132570Y-3428130D01*
X7156200Y-3465170D01*
X7164070Y-3507500D01*
X7156200Y-3549830D01*
X7136510Y-3581590D01*
X7101080Y-3597470D01*
X7006590D01*
G01X7321550Y-3412250D02*
Y-3729750D01*
X7479030D01*
G01X7616820D02*
X7715250Y-3412250D01*
X7813680Y-3729750D01*
G01X7778240Y-3618630D02*
X7652250D01*
G01X8030210Y-3412250D02*
Y-3729750D01*
G01X7939660Y-3412250D02*
X8120760D01*
G01X8423910Y-3729750D02*
X8266430D01*
Y-3412250D01*
X8423910D01*
G01X8360920Y-3565700D02*
X8266430D01*
G01X8573520Y-3729750D02*
Y-3412250D01*
X8652250D01*
X8683750Y-3428130D01*
X8707370Y-3449290D01*
X8727060Y-3481040D01*
X8742810Y-3518090D01*
X8746740Y-3571000D01*
X8742810Y-3623920D01*
X8727060Y-3660960D01*
X8707370Y-3692720D01*
X8683750Y-3713880D01*
X8652250Y-3729750D01*
X8573520D01*
G01X7006590Y-3094750D02*
Y-2777250D01*
X7101080D01*
X7132570Y-2793130D01*
X7156200Y-2830170D01*
X7164070Y-2872500D01*
X7156200Y-2914830D01*
X7136510Y-2946590D01*
X7101080Y-2962470D01*
X7006590D01*
G01X7321550Y-2777250D02*
Y-3094750D01*
X7479030D01*
G01X7616820D02*
X7715250Y-2777250D01*
X7813680Y-3094750D01*
G01X7778240Y-2983630D02*
X7652250D01*
G01X8030210Y-2777250D02*
Y-3094750D01*
G01X7939660Y-2777250D02*
X8120760D01*
G01X8423910Y-3094750D02*
X8266430D01*
Y-2777250D01*
X8423910D01*
G01X8360920Y-2930700D02*
X8266430D01*
G01X8573520Y-3094750D02*
Y-2777250D01*
X8652250D01*
X8683750Y-2793130D01*
X8707370Y-2814290D01*
X8727060Y-2846040D01*
X8742810Y-2883090D01*
X8746740Y-2936000D01*
X8742810Y-2988920D01*
X8727060Y-3025960D01*
X8707370Y-3057720D01*
X8683750Y-3078880D01*
X8652250Y-3094750D01*
X8573520D01*
G01X7006590Y-2459750D02*
Y-2142250D01*
X7101080D01*
X7132570Y-2158130D01*
X7156200Y-2195170D01*
X7164070Y-2237500D01*
X7156200Y-2279830D01*
X7136510Y-2311590D01*
X7101080Y-2327470D01*
X7006590D01*
G01X7321550Y-2142250D02*
Y-2459750D01*
X7479030D01*
G01X7616820D02*
X7715250Y-2142250D01*
X7813680Y-2459750D01*
G01X7778240Y-2348630D02*
X7652250D01*
G01X8030210Y-2142250D02*
Y-2459750D01*
G01X7939660Y-2142250D02*
X8120760D01*
G01X8423910Y-2459750D02*
X8266430D01*
Y-2142250D01*
X8423910D01*
G01X8360920Y-2295700D02*
X8266430D01*
G01X8573520Y-2459750D02*
Y-2142250D01*
X8652250D01*
X8683750Y-2158130D01*
X8707370Y-2179290D01*
X8727060Y-2211040D01*
X8742810Y-2248090D01*
X8746740Y-2301000D01*
X8742810Y-2353920D01*
X8727060Y-2390960D01*
X8707370Y-2422720D01*
X8683750Y-2443880D01*
X8652250Y-2459750D01*
X8573520D01*
G01X6803000Y3152400D02*
Y3863600D01*
X7057000D01*
Y3152400D01*
X6803000D01*
G01Y3863600D02*
X7057000D01*
Y3152400D01*
X6803000D01*
G01Y3863600D02*
Y3152400D01*
G01X6778840Y4381500D02*
Y4572000D01*
X6838100D01*
X6857070Y4562470D01*
X6868920Y4549770D01*
X6873660Y4524370D01*
X6868920Y4498970D01*
X6854700Y4483100D01*
X6838100Y4473570D01*
X6778840D01*
G01X6838100D02*
X6873660Y4381500D01*
G01X6976450Y4403720D02*
X6993040Y4387850D01*
X7012010Y4381500D01*
X7030970Y4387850D01*
X7047570Y4406890D01*
X7059420Y4435480D01*
X7064160Y4464050D01*
Y4498970D01*
X7059420Y4527550D01*
X7047570Y4552950D01*
X7033340Y4565650D01*
X7016750Y4572000D01*
X6997780Y4565650D01*
X6983560Y4552950D01*
X6974080Y4533900D01*
X6969340Y4508500D01*
X6974080Y4486280D01*
X6985930Y4464050D01*
X7000160Y4451350D01*
X7016750Y4448170D01*
X7035710Y4454520D01*
X7049940Y4470400D01*
X7064160Y4498970D01*
G01X6794500Y5359400D02*
Y6070600D01*
X7048500D01*
Y5359400D01*
X6794500D01*
G01Y6070600D02*
X7048500D01*
Y5359400D01*
X6794500D01*
G01Y6070600D02*
Y5359400D01*
G01X6715340Y6604000D02*
Y6794500D01*
X6774600D01*
X6793570Y6784970D01*
X6805420Y6772270D01*
X6810160Y6746870D01*
X6805420Y6721470D01*
X6791200Y6705600D01*
X6774600Y6696070D01*
X6715340D01*
G01X6774600D02*
X6810160Y6604000D01*
G01X6901100Y6632570D02*
X6915320Y6616700D01*
X6931910Y6607170D01*
X6953250Y6604000D01*
X6974590Y6610350D01*
X6991180Y6623050D01*
X7003030Y6645270D01*
X7005400Y6670670D01*
X7000660Y6696070D01*
X6988810Y6711950D01*
X6972210Y6724650D01*
X6955620Y6727820D01*
X6939030Y6724650D01*
X6917690Y6711950D01*
X6924800Y6794500D01*
X6988810D01*
G01X7927000Y1506000D02*
Y1023400D01*
X7673000D01*
Y1506000D01*
X7927000D01*
G01Y1417100D02*
X7673000D01*
G01X7927000Y1429800D02*
X7673000D01*
G01X7927000Y1417100D02*
X7673000D01*
G01X7927000Y1429800D02*
X7673000D01*
G01X7638970Y2095500D02*
Y2286000D01*
X7686380D01*
X7705340Y2276470D01*
X7719570Y2263770D01*
X7731420Y2244730D01*
X7740900Y2222500D01*
X7743270Y2190750D01*
X7740900Y2159000D01*
X7731420Y2136770D01*
X7719570Y2117720D01*
X7705340Y2105020D01*
X7686380Y2095500D01*
X7638970D01*
G01X7910070D02*
Y2286000D01*
X7822350Y2149480D01*
X7940890D01*
G01X7673000Y3172400D02*
Y3883600D01*
X7927000D01*
Y3172400D01*
X7673000D01*
G01Y3883600D02*
X7927000D01*
Y3172400D01*
X7673000D01*
G01Y3883600D02*
Y3172400D01*
G01X7572590Y4381500D02*
Y4572000D01*
X7631850D01*
X7650820Y4562470D01*
X7662670Y4549770D01*
X7667410Y4524370D01*
X7662670Y4498970D01*
X7648450Y4483100D01*
X7631850Y4473570D01*
X7572590D01*
G01X7631850D02*
X7667410Y4381500D01*
G01X7810500D02*
Y4572000D01*
X7782050Y4533900D01*
G01Y4381500D02*
X7838940D01*
G01X8001000Y4572000D02*
X7982030Y4565650D01*
X7967810Y4549770D01*
X7958330Y4530730D01*
X7951220Y4505320D01*
X7948850Y4476750D01*
X7951220Y4448170D01*
X7958330Y4422770D01*
X7967810Y4403720D01*
X7982030Y4387850D01*
X8001000Y4381500D01*
X8019960Y4387850D01*
X8034190Y4403720D01*
X8043670Y4422770D01*
X8050780Y4448170D01*
X8053150Y4476750D01*
X8050780Y4505320D01*
X8043670Y4530730D01*
X8034190Y4549770D01*
X8019960Y4565650D01*
X8001000Y4572000D01*
G01X7313000Y5402400D02*
Y6113600D01*
X7567000D01*
Y5402400D01*
X7313000D01*
G01Y6113600D02*
X7567000D01*
Y5402400D01*
X7313000D01*
G01Y6113600D02*
Y5402400D01*
G01X7286840Y6604000D02*
Y6794500D01*
X7346100D01*
X7365070Y6784970D01*
X7376920Y6772270D01*
X7381660Y6746870D01*
X7376920Y6721470D01*
X7362700Y6705600D01*
X7346100Y6696070D01*
X7286840D01*
G01X7346100D02*
X7381660Y6604000D01*
G01X7524750D02*
Y6794500D01*
X7496300Y6756400D01*
G01Y6604000D02*
X7553190D01*
G01X8877000Y1506000D02*
Y1023400D01*
X8623000D01*
Y1506000D01*
X8877000D01*
G01Y1417100D02*
X8623000D01*
G01X8877000Y1429800D02*
X8623000D01*
G01X8877000Y1417100D02*
X8623000D01*
G01X8877000Y1429800D02*
X8623000D01*
G01X8591470Y2095500D02*
Y2286000D01*
X8638880D01*
X8657840Y2276470D01*
X8672070Y2263770D01*
X8683920Y2244730D01*
X8693400Y2222500D01*
X8695770Y2190750D01*
X8693400Y2159000D01*
X8683920Y2136770D01*
X8672070Y2117720D01*
X8657840Y2105020D01*
X8638880Y2095500D01*
X8591470D01*
G01X8789080Y2254250D02*
X8803300Y2273300D01*
X8819900Y2282830D01*
X8838860Y2286000D01*
X8862570Y2279650D01*
X8879160Y2263770D01*
X8883900Y2244730D01*
X8881530Y2225670D01*
X8872050Y2209800D01*
X8824640Y2178050D01*
X8803300Y2155820D01*
X8789080Y2124070D01*
X8784340Y2095500D01*
X8883900D01*
G01X8944000Y3393000D02*
G03I-254000J0D01*
G01D02*
G03I-254000J0D01*
G01X8656400Y4619620D02*
X8642180Y4629150D01*
X8625590Y4635500D01*
X8606620D01*
X8585280Y4625970D01*
X8568690Y4610100D01*
X8556840Y4591050D01*
X8547350Y4559300D01*
X8544980Y4530720D01*
X8549730Y4502150D01*
X8556840Y4483100D01*
X8571060Y4464050D01*
X8587660Y4451350D01*
X8604250Y4445000D01*
X8620840D01*
X8637440Y4451350D01*
X8651660Y4460870D01*
X8663520Y4473570D01*
G01X8794750Y4445000D02*
Y4635500D01*
X8766300Y4597400D01*
G01Y4445000D02*
X8823190D01*
G01X8201600Y6267000D02*
X8354000D01*
X8417500Y6203500D01*
X8544500D01*
X8608000Y6267000D01*
X8760400D01*
Y5251000D01*
X8201600D01*
Y6267000D01*
G01X8163500D02*
Y5251000D01*
X8798500D01*
Y6267000D01*
G01X8163500D02*
X8354000D01*
X8417500Y6203500D01*
X8544500D01*
X8608000Y6267000D01*
X8798500D01*
G01X8425100Y6794500D02*
Y6657980D01*
X8434580Y6629390D01*
X8453540Y6610350D01*
X8477250Y6604000D01*
X8500960Y6610350D01*
X8519920Y6629390D01*
X8529400Y6657980D01*
Y6794500D01*
G01X8622710Y6762750D02*
X8636930Y6781800D01*
X8653530Y6791330D01*
X8672490Y6794500D01*
X8696200Y6788150D01*
X8712790Y6772270D01*
X8717530Y6753230D01*
X8715160Y6734170D01*
X8705680Y6718300D01*
X8658270Y6686550D01*
X8636930Y6664320D01*
X8622710Y6632570D01*
X8617970Y6604000D01*
X8717530D01*
G01X9486900Y-1983500D02*
Y-4523500D01*
G01X9453000Y3647000D02*
X9707000D01*
Y3139000D01*
X9453000D01*
Y3647000D01*
G01X9029400Y3555400D02*
X8927800D01*
G01X8988600Y3494600D02*
Y3596200D01*
G01X9445840Y4419600D02*
X9457690Y4400550D01*
X9471910Y4387850D01*
X9488510Y4381500D01*
X9507470Y4387850D01*
X9521700Y4400550D01*
X9535920Y4419600D01*
X9540660Y4445000D01*
Y4572000D01*
G01X9683750Y4381500D02*
Y4572000D01*
X9655300Y4533900D01*
G01Y4381500D02*
X9712190D01*
G01X9363000Y5432400D02*
Y6143600D01*
X9617000D01*
Y5432400D01*
X9363000D01*
G01Y6143600D02*
X9617000D01*
Y5432400D01*
X9363000D01*
G01Y6143600D02*
Y5432400D01*
G01X9318840Y6604000D02*
Y6794500D01*
X9378100D01*
X9397070Y6784970D01*
X9408920Y6772270D01*
X9413660Y6746870D01*
X9408920Y6721470D01*
X9394700Y6705600D01*
X9378100Y6696070D01*
X9318840D01*
G01X9378100D02*
X9413660Y6604000D01*
G01X9511710Y6762750D02*
X9525930Y6781800D01*
X9542530Y6791330D01*
X9561490Y6794500D01*
X9585200Y6788150D01*
X9601790Y6772270D01*
X9606530Y6753230D01*
X9604160Y6734170D01*
X9594680Y6718300D01*
X9547270Y6686550D01*
X9525930Y6664320D01*
X9511710Y6632570D01*
X9506970Y6604000D01*
X9606530D01*
G01X10238860Y-4100170D02*
X10262490Y-4068420D01*
X10290050Y-4052540D01*
X10321550Y-4047250D01*
X10360910Y-4057830D01*
X10388480Y-4084290D01*
X10396350Y-4116040D01*
X10392410Y-4147800D01*
X10376660Y-4174250D01*
X10297920Y-4227170D01*
X10262490Y-4264210D01*
X10238860Y-4317140D01*
X10230990Y-4364750D01*
X10396350D01*
G01X10553820Y-4100170D02*
X10577450Y-4068420D01*
X10605010Y-4052540D01*
X10636510Y-4047250D01*
X10675870Y-4057830D01*
X10703440Y-4084290D01*
X10711310Y-4116040D01*
X10707370Y-4147800D01*
X10691620Y-4174250D01*
X10612880Y-4227170D01*
X10577450Y-4264210D01*
X10553820Y-4317140D01*
X10545950Y-4364750D01*
X10711310D01*
G01X10227060Y-3682140D02*
X10250670Y-3708590D01*
X10278230Y-3724460D01*
X10313670Y-3729750D01*
X10349110Y-3719170D01*
X10376660Y-3698010D01*
X10396350Y-3660960D01*
X10400280Y-3618630D01*
X10392410Y-3576300D01*
X10372720Y-3549830D01*
X10345160Y-3528670D01*
X10317610Y-3523380D01*
X10290050Y-3528670D01*
X10254620Y-3549830D01*
X10266430Y-3412250D01*
X10372720D01*
G01X10628630D02*
X10597130Y-3422830D01*
X10573510Y-3449290D01*
X10557760Y-3481040D01*
X10545950Y-3523380D01*
X10542020Y-3571000D01*
X10545950Y-3618630D01*
X10557760Y-3660960D01*
X10573510Y-3692720D01*
X10597130Y-3719170D01*
X10628630Y-3729750D01*
X10660120Y-3719170D01*
X10683750Y-3692720D01*
X10699500Y-3660960D01*
X10711310Y-3618630D01*
X10715240Y-3571000D01*
X10711310Y-3523380D01*
X10699500Y-3481040D01*
X10683750Y-3449290D01*
X10660120Y-3422830D01*
X10628630Y-3412250D01*
G01X10156190Y-2459750D02*
X10124690Y-2454460D01*
X10097140Y-2433300D01*
X10073510Y-2401540D01*
X10057760Y-2364500D01*
X10049890Y-2322170D01*
Y-2279830D01*
X10057760Y-2237500D01*
X10073510Y-2200460D01*
X10097140Y-2168710D01*
X10124690Y-2147540D01*
X10156190Y-2142250D01*
X10187680Y-2147540D01*
X10215240Y-2168710D01*
X10238870Y-2200460D01*
X10254620Y-2237500D01*
X10262490Y-2279830D01*
Y-2322170D01*
X10254620Y-2364500D01*
X10238870Y-2401540D01*
X10215240Y-2433300D01*
X10187680Y-2454460D01*
X10156190Y-2459750D01*
G01X10187680Y-2375080D02*
X10234930Y-2459750D01*
G01X10471150Y-2142250D02*
Y-2459750D01*
G01X10380600Y-2142250D02*
X10561700D01*
G01X10786110Y-2459750D02*
Y-2316880D01*
X10707370Y-2142250D01*
G01X10864850D02*
X10786110Y-2316880D01*
G01X10000000Y2892570D02*
Y7890000D01*
G01X9600000Y7577500D02*
X10000000Y7640000D01*
X9600000Y7702500D01*
Y7577500D01*
G01X10384540Y-3031250D02*
X10408150Y-3068300D01*
X10439650Y-3089460D01*
X10475090Y-3094750D01*
X10506590Y-3089460D01*
X10538080Y-3063010D01*
X10557760Y-3031250D01*
X10561700Y-2999500D01*
X10553830Y-2962470D01*
X10526270Y-2936000D01*
X10498710Y-2925410D01*
X10463270D01*
G01X10498710D02*
X10522330Y-2909540D01*
X10542020Y-2883090D01*
X10549890Y-2851340D01*
X10542020Y-2819580D01*
X10522330Y-2793130D01*
X10486900Y-2777250D01*
X10451470Y-2782540D01*
X10416030Y-2803710D01*
G54D12*
X-1270Y-2936000D03*
X2540000Y5660000D03*
Y5787000D03*
Y5914000D03*
G54D13*
X490000Y6006000D03*
D03*
Y6260000D03*
D03*
X1070000Y1166000D03*
D03*
Y1420000D03*
D03*
X550000Y3296000D03*
D03*
Y3550000D03*
D03*
X1590000Y3079400D03*
D03*
X1580000Y5369400D03*
D03*
X2286000Y1143000D03*
D03*
Y1397000D03*
D03*
X2720000Y3069400D03*
D03*
X3670000Y749400D03*
D03*
X4810000D03*
D03*
X5490000Y5348000D03*
D03*
Y5602000D03*
D03*
Y5856000D03*
D03*
X6170000Y868000D03*
D03*
Y1122000D03*
D03*
Y1376000D03*
D03*
X6252000Y5348000D03*
D03*
Y5602000D03*
D03*
Y5856000D03*
D03*
Y6110000D03*
D03*
X6932000Y868000D03*
D03*
Y1122000D03*
D03*
Y1376000D03*
D03*
Y1630000D03*
D03*
X7800000Y769400D03*
D03*
X8100000Y5378000D03*
D03*
Y5632000D03*
D03*
Y5886000D03*
D03*
X8750000Y769400D03*
D03*
X8690000Y3266000D03*
D03*
Y3520000D03*
D03*
X8862000Y5378000D03*
D03*
Y5632000D03*
D03*
Y5886000D03*
D03*
Y6140000D03*
D03*
X9580000Y3266000D03*
D03*
Y3520000D03*
D03*
G54D14*
X1590000Y4070000D03*
D03*
X1580000Y6360000D03*
D03*
X2720000Y4060000D03*
D03*
X3670000Y1740000D03*
D03*
X4810000D03*
D03*
X5490000Y6110000D03*
D03*
X6170000Y1630000D03*
D03*
X7800000Y1760000D03*
D03*
X8100000Y6140000D03*
D03*
X8750000Y1760000D03*
D03*
G54D15*
X2540000Y5660000D03*
D03*
G54D16*
Y5787000D03*
D03*
Y5914000D03*
D03*
G54D17*
X3460000Y5536000D03*
D03*
Y5790000D03*
D03*
X3790000Y3080000D03*
D03*
Y4096000D03*
D03*
X4150000Y5280000D03*
D03*
Y6296000D03*
D03*
X4700000Y3070000D03*
D03*
Y4086000D03*
D03*
X4920000Y5280000D03*
D03*
Y6296000D03*
D03*
X5910000Y3060000D03*
D03*
Y4076000D03*
D03*
X6930000Y3000000D03*
D03*
Y4016000D03*
D03*
X6921500Y5207000D03*
D03*
Y6223000D03*
D03*
X7800000Y3020000D03*
D03*
Y4036000D03*
D03*
X7440000Y5250000D03*
D03*
Y6266000D03*
D03*
X9490000Y5280000D03*
D03*
Y6296000D03*
D03*
G54D18*
G01X550000Y3550000D02*
X1119400D01*
X1590000Y3079400D01*
G01X490000Y6260000D02*
X689400D01*
X1580000Y5369400D01*
G01X2720000Y4060000D02*
X2570600D01*
X1590000Y3079400D01*
G01X1580000Y6360000D02*
X1840000D01*
X2426100Y5773900D01*
Y5748500D01*
X2514600Y5660000D01*
X2540000D01*
G01Y5914000D02*
X2514600D01*
X2426100Y5825500D01*
Y5459900D01*
X3790000Y4096000D01*
G01X2540000Y5787000D02*
X3336740D01*
X3339740Y5790000D01*
X3460000D01*
G01X7800000Y3020000D02*
X7073500Y3746500D01*
X6731000D01*
X6159500Y4318000D01*
X4635500D01*
X4413500Y4096000D01*
X3790000D01*
G01X3460000Y5536000D02*
X4664000D01*
X4920000Y5280000D01*
G01X6252000Y5602000D02*
X5762000Y5112000D01*
X4318000D01*
X4150000Y5280000D01*
G01Y6296000D02*
X4920000D01*
G01X4700000Y4086000D02*
Y5060000D01*
X4920000Y5280000D01*
G01X4700000Y4086000D02*
X4884000D01*
X5910000Y3060000D01*
G01X4920000Y6296000D02*
Y6172000D01*
X5490000Y5602000D01*
G01X5910000Y4076000D02*
Y3230070D01*
X5789750Y3109820D01*
Y3010180D01*
X5802700Y2997230D01*
Y1489300D01*
X6170000Y1122000D01*
G01X5910000Y3060000D02*
Y1890000D01*
X6170000Y1630000D01*
G01X5910000Y3060000D02*
X6749740D01*
X6809740Y3000000D01*
X6930000D01*
G01X6921500Y6223000D02*
X6836460Y6137960D01*
X6787960D01*
X6252000Y5602000D01*
G01X6932000Y868000D02*
X7263210Y1199210D01*
Y3682790D01*
X6930000Y4016000D01*
G01X6932000Y1376000D02*
X8143400D01*
X8750000Y769400D01*
G01X6921500Y5207000D02*
Y5747500D01*
X7440000Y6266000D01*
G01X7800000Y1760000D02*
X8750000D01*
G01Y769400D02*
X8506200Y1013200D01*
Y3329800D01*
X7800000Y4036000D01*
G01X7440000Y6266000D02*
X7525040Y6180960D01*
X7551040D01*
X8100000Y5632000D01*
G01X7440000Y5250000D02*
X8480000D01*
X8862000Y5632000D01*
G01X8690000Y3266000D02*
X9326000D01*
X9580000Y3520000D01*
G01X8862000Y5632000D02*
X8576100Y5346100D01*
Y3379900D01*
X8690000Y3266000D01*
G01X9490000Y5280000D02*
Y4320000D01*
X8690000Y3520000D01*
G01X9490000Y6296000D02*
X9036000Y5842000D01*
X9017000D01*
X8920900Y5745900D01*
X8213900D01*
X8100000Y5632000D01*
G54D19*
G01X2273550Y5787000D02*
X2293870Y5685150D01*
G01D02*
X2351530Y5598530D01*
G01D02*
X2438150Y5540870D01*
G01D02*
X2540000Y5520550D01*
G01D02*
X2641850Y5540870D01*
G01D02*
X2728470Y5598530D01*
G01X2273550Y5787000D02*
X2293870Y5685150D01*
G01D02*
X2351530Y5598530D01*
G01D02*
X2438150Y5540870D01*
G01D02*
X2540000Y5520550D01*
G01D02*
X2641850Y5540870D01*
G01D02*
X2728470Y5598530D01*
G01Y5975470D02*
X2641850Y6033130D01*
G01D02*
X2540000Y6053450D01*
G01D02*
X2438150Y6033130D01*
G01D02*
X2351530Y5975470D01*
G01D02*
X2293870Y5888850D01*
G01D02*
X2273550Y5787000D01*
G01X2728470Y5975470D02*
X2641850Y6033130D01*
G01D02*
X2540000Y6053450D01*
G01D02*
X2438150Y6033130D01*
G01D02*
X2351530Y5975470D01*
G01D02*
X2293870Y5888850D01*
G01D02*
X2273550Y5787000D01*
G01X2728470Y5598530D02*
Y5975470D01*
G01Y5598530D02*
X2730500Y5600560D01*
G01X2728470Y5598530D02*
Y5975470D01*
G01Y5598530D02*
X2730500Y5600560D01*
M02*
