G04 ================== begin FILE IDENTIFICATION RECORD ==================*
G04 Layout Name:  D:/ORCAD/B07_1031/allegro/B07_1106_1.brd*
G04 Film Name:    Silkscreen_TOP*
G04 File Format:  Gerber RS274X*
G04 File Origin:  Cadence Allegro 17.2-S073*
G04 Origin Date:  Mon Nov 06 16:06:07 2023*
G04 *
G04 Layer:  REF DES/SILKSCREEN_TOP*
G04 Layer:  PACKAGE GEOMETRY/SILKSCREEN_TOP*
G04 Layer:  BOARD GEOMETRY/SILKSCREEN_TOP*
G04 Layer:  BOARD GEOMETRY/DESIGN_OUTLINE*
G04 *
G04 Offset:    (0.0000 0.0000)*
G04 Mirror:    No*
G04 Mode:      Positive*
G04 Rotation:  0*
G04 FullContactRelief:  No*
G04 UndefLineWidth:     0.2000*
G04 ================== end FILE IDENTIFICATION RECORD ====================*
%FSLAX35Y35*MOMM*%
%IR0*IPPOS*OFA0.00000B0.00000*MIA0B0*SFA1.00000B1.00000*%
%ADD10C,.2032*%
%ADD11C,.2*%
G75*
%LPD*%
G75*
G54D10*
G01X2273550Y5787000D02*
X2293870Y5685150D01*
G01D02*
X2351530Y5598530D01*
G01D02*
X2438150Y5540870D01*
G01D02*
X2540000Y5520550D01*
G01D02*
X2641850Y5540870D01*
G01D02*
X2728470Y5598530D01*
G01X2273550Y5787000D02*
X2293870Y5685150D01*
G01D02*
X2351530Y5598530D01*
G01D02*
X2438150Y5540870D01*
G01D02*
X2540000Y5520550D01*
G01D02*
X2641850Y5540870D01*
G01D02*
X2728470Y5598530D01*
G01Y5975470D02*
X2641850Y6033130D01*
G01D02*
X2540000Y6053450D01*
G01D02*
X2438150Y6033130D01*
G01D02*
X2351530Y5975470D01*
G01D02*
X2293870Y5888850D01*
G01D02*
X2273550Y5787000D01*
G01X2728470Y5975470D02*
X2641850Y6033130D01*
G01D02*
X2540000Y6053450D01*
G01D02*
X2438150Y6033130D01*
G01D02*
X2351530Y5975470D01*
G01D02*
X2293870Y5888850D01*
G01D02*
X2273550Y5787000D01*
G01X2728470Y5598530D02*
Y5975470D01*
G01Y5598530D02*
X2730500Y5600560D01*
G01X2728470Y5598530D02*
Y5975470D01*
G01Y5598530D02*
X2730500Y5600560D01*
G54D11*
G01X10000000Y0D02*
Y7000000D01*
X0D01*
Y0D01*
X10000000D01*
G01X363000Y6387000D02*
X617000D01*
Y5879000D01*
X363000D01*
Y6387000D01*
G01X365340Y6705600D02*
X377190Y6686550D01*
X391410Y6673850D01*
X408010Y6667500D01*
X426970Y6673850D01*
X441200Y6686550D01*
X455420Y6705600D01*
X460160Y6731000D01*
Y6858000D01*
G01X558210Y6826250D02*
X572430Y6845300D01*
X589030Y6854830D01*
X607990Y6858000D01*
X631700Y6851650D01*
X648290Y6835770D01*
X653030Y6816730D01*
X650660Y6797670D01*
X641180Y6781800D01*
X593770Y6750050D01*
X572430Y6727820D01*
X558210Y6696070D01*
X553470Y6667500D01*
X653030D01*
G01X1324000Y1293000D02*
G03I-254000J0D01*
G01D02*
G03I-254000J0D01*
G01X1036400Y2206620D02*
X1022180Y2216150D01*
X1005590Y2222500D01*
X986620D01*
X965280Y2212970D01*
X948690Y2197100D01*
X936840Y2178050D01*
X927350Y2146300D01*
X924980Y2117720D01*
X929730Y2089150D01*
X936840Y2070100D01*
X951060Y2051050D01*
X967660Y2038350D01*
X984250Y2032000D01*
X1000840D01*
X1017440Y2038350D01*
X1031660Y2047870D01*
X1043520Y2060570D01*
G01X1122600Y2070100D02*
X1136820Y2047870D01*
X1155780Y2035170D01*
X1177120Y2032000D01*
X1196090Y2035170D01*
X1215050Y2051050D01*
X1226900Y2070100D01*
X1229270Y2089150D01*
X1224530Y2111370D01*
X1207940Y2127250D01*
X1191340Y2133600D01*
X1170010D01*
G01X1191340D02*
X1205570Y2143120D01*
X1217420Y2159000D01*
X1222160Y2178050D01*
X1217420Y2197100D01*
X1205570Y2212970D01*
X1184230Y2222500D01*
X1162900Y2219330D01*
X1141560Y2206620D01*
G01X423000Y3677000D02*
X677000D01*
Y3169000D01*
X423000D01*
Y3677000D01*
G01X428840Y4419600D02*
X440690Y4400550D01*
X454910Y4387850D01*
X471510Y4381500D01*
X490470Y4387850D01*
X504700Y4400550D01*
X518920Y4419600D01*
X523660Y4445000D01*
Y4572000D01*
G01X614600Y4419600D02*
X628820Y4397370D01*
X647780Y4384670D01*
X669120Y4381500D01*
X688090Y4384670D01*
X707050Y4400550D01*
X718900Y4419600D01*
X721270Y4438650D01*
X716530Y4460870D01*
X699940Y4476750D01*
X683340Y4483100D01*
X662010D01*
G01X683340D02*
X697570Y4492620D01*
X709420Y4508500D01*
X714160Y4527550D01*
X709420Y4546600D01*
X697570Y4562470D01*
X676230Y4572000D01*
X654900Y4568830D01*
X633560Y4556120D01*
G01X1419400Y1445400D02*
X1317800D01*
G01X1368600Y1394600D02*
Y1496200D01*
G01X1717000Y3816000D02*
Y3333400D01*
X1463000D01*
Y3816000D01*
X1717000D01*
G01Y3727100D02*
X1463000D01*
G01X1717000Y3739800D02*
X1463000D01*
G01X1717000Y3727100D02*
X1463000D01*
G01X1717000Y3739800D02*
X1463000D01*
G01X1479470Y4381500D02*
Y4572000D01*
X1526880D01*
X1545840Y4562470D01*
X1560070Y4549770D01*
X1571920Y4530730D01*
X1581400Y4508500D01*
X1583770Y4476750D01*
X1581400Y4445000D01*
X1571920Y4422770D01*
X1560070Y4403720D01*
X1545840Y4391020D01*
X1526880Y4381500D01*
X1479470D01*
G01X1669970Y4419600D02*
X1684190Y4397370D01*
X1703150Y4384670D01*
X1724490Y4381500D01*
X1743460Y4384670D01*
X1762420Y4400550D01*
X1774270Y4419600D01*
X1776640Y4438650D01*
X1771900Y4460870D01*
X1755310Y4476750D01*
X1738710Y4483100D01*
X1717380D01*
G01X1738710D02*
X1752940Y4492620D01*
X1764790Y4508500D01*
X1769530Y4527550D01*
X1764790Y4546600D01*
X1752940Y4562470D01*
X1731600Y4572000D01*
X1710270Y4568830D01*
X1688930Y4556120D01*
G01X1707000Y6106000D02*
Y5623400D01*
X1453000D01*
Y6106000D01*
X1707000D01*
G01Y6017100D02*
X1453000D01*
G01X1707000Y6029800D02*
X1453000D01*
G01X1707000Y6017100D02*
X1453000D01*
G01X1707000Y6029800D02*
X1453000D01*
G01X1479470Y6604000D02*
Y6794500D01*
X1526880D01*
X1545840Y6784970D01*
X1560070Y6772270D01*
X1571920Y6753230D01*
X1581400Y6731000D01*
X1583770Y6699250D01*
X1581400Y6667500D01*
X1571920Y6645270D01*
X1560070Y6626220D01*
X1545840Y6613520D01*
X1526880Y6604000D01*
X1479470D01*
G01X1722120D02*
Y6794500D01*
X1693670Y6756400D01*
G01Y6604000D02*
X1750560D01*
G01X2540000Y1270000D02*
G03I-254000J0D01*
G01D02*
G03I-254000J0D01*
G01X2635400Y1422400D02*
X2533800D01*
G01X2584600Y1371600D02*
Y1473200D01*
G01X2242900Y2206620D02*
X2228680Y2216150D01*
X2212090Y2222500D01*
X2193120D01*
X2171780Y2212970D01*
X2155190Y2197100D01*
X2143340Y2178050D01*
X2133850Y2146300D01*
X2131480Y2117720D01*
X2136230Y2089150D01*
X2143340Y2070100D01*
X2157560Y2051050D01*
X2174160Y2038350D01*
X2190750Y2032000D01*
X2207340D01*
X2223940Y2038350D01*
X2238160Y2047870D01*
X2250020Y2060570D01*
G01X2409700Y2032000D02*
Y2222500D01*
X2321980Y2085980D01*
X2440520D01*
G01X2847000Y3806000D02*
Y3323400D01*
X2593000D01*
Y3806000D01*
X2847000D01*
G01Y3717100D02*
X2593000D01*
G01X2847000Y3729800D02*
X2593000D01*
G01X2847000Y3717100D02*
X2593000D01*
G01X2847000Y3729800D02*
X2593000D01*
G01X2622470Y4445000D02*
Y4635500D01*
X2669880D01*
X2688840Y4625970D01*
X2703070Y4613270D01*
X2714920Y4594230D01*
X2724400Y4572000D01*
X2726770Y4540250D01*
X2724400Y4508500D01*
X2714920Y4486270D01*
X2703070Y4467220D01*
X2688840Y4454520D01*
X2669880Y4445000D01*
X2622470D01*
G01X2860380D02*
X2865120Y4486270D01*
X2872230Y4521200D01*
X2881710Y4552950D01*
X2893570Y4587870D01*
X2912530Y4635500D01*
X2817710D01*
G01X2484120Y6667500D02*
X2465150Y6670670D01*
X2448560Y6683370D01*
X2434340Y6702420D01*
X2424850Y6724650D01*
X2420110Y6750050D01*
Y6775450D01*
X2424850Y6800850D01*
X2434340Y6823080D01*
X2448560Y6842120D01*
X2465150Y6854830D01*
X2484120Y6858000D01*
X2503080Y6854830D01*
X2519680Y6842120D01*
X2533900Y6823080D01*
X2543390Y6800850D01*
X2548130Y6775450D01*
Y6750050D01*
X2543390Y6724650D01*
X2533900Y6702420D01*
X2519680Y6683370D01*
X2503080Y6670670D01*
X2484120Y6667500D01*
G01X2503080Y6718300D02*
X2531530Y6667500D01*
G01X2674620D02*
Y6858000D01*
X2646170Y6819900D01*
G01Y6667500D02*
X2703060D01*
G01X3587000Y5917000D02*
Y5409000D01*
X3333000D01*
Y5917000D01*
X3587000D01*
G01Y5409000D02*
Y5917000D01*
X3333000D01*
Y5409000D01*
X3587000D01*
G01X3449400Y6842120D02*
X3435180Y6851650D01*
X3418590Y6858000D01*
X3399620D01*
X3378280Y6848470D01*
X3361690Y6832600D01*
X3349840Y6813550D01*
X3340350Y6781800D01*
X3337980Y6753220D01*
X3342730Y6724650D01*
X3349840Y6705600D01*
X3364060Y6686550D01*
X3380660Y6673850D01*
X3397250Y6667500D01*
X3413840D01*
X3430440Y6673850D01*
X3444660Y6683370D01*
X3456520Y6696070D01*
G01X3542710Y6826250D02*
X3556930Y6845300D01*
X3573530Y6854830D01*
X3592490Y6858000D01*
X3616200Y6851650D01*
X3632790Y6835770D01*
X3637530Y6816730D01*
X3635160Y6797670D01*
X3625680Y6781800D01*
X3578270Y6750050D01*
X3556930Y6727820D01*
X3542710Y6696070D01*
X3537970Y6667500D01*
X3637530D01*
G01X3797000Y1486000D02*
Y1003400D01*
X3543000D01*
Y1486000D01*
X3797000D01*
G01Y1397100D02*
X3543000D01*
G01X3797000Y1409800D02*
X3543000D01*
G01X3797000Y1397100D02*
X3543000D01*
G01X3797000Y1409800D02*
X3543000D01*
G01X3511470Y2032000D02*
Y2222500D01*
X3558880D01*
X3577840Y2212970D01*
X3592070Y2200270D01*
X3603920Y2181230D01*
X3613400Y2159000D01*
X3615770Y2127250D01*
X3613400Y2095500D01*
X3603920Y2073270D01*
X3592070Y2054220D01*
X3577840Y2041520D01*
X3558880Y2032000D01*
X3511470D01*
G01X3701970Y2060570D02*
X3716190Y2044700D01*
X3732780Y2035170D01*
X3754120Y2032000D01*
X3775460Y2038350D01*
X3792050Y2051050D01*
X3803900Y2073270D01*
X3806270Y2098670D01*
X3801530Y2124070D01*
X3789680Y2139950D01*
X3773080Y2152650D01*
X3756490Y2155820D01*
X3739900Y2152650D01*
X3718560Y2139950D01*
X3725670Y2222500D01*
X3789680D01*
G01X3663000Y3232400D02*
Y3943600D01*
X3917000D01*
Y3232400D01*
X3663000D01*
G01Y3943600D02*
X3917000D01*
Y3232400D01*
X3663000D01*
G01Y3943600D02*
Y3232400D01*
G01X3603840Y4445000D02*
Y4635500D01*
X3663100D01*
X3682070Y4625970D01*
X3693920Y4613270D01*
X3698660Y4587870D01*
X3693920Y4562470D01*
X3679700Y4546600D01*
X3663100Y4537070D01*
X3603840D01*
G01X3663100D02*
X3698660Y4445000D01*
G01X3796710Y4524370D02*
X3813300Y4546600D01*
X3827530Y4559300D01*
X3846490Y4565650D01*
X3863090Y4559300D01*
X3874940Y4546600D01*
X3884420Y4527550D01*
X3886790Y4505320D01*
X3884420Y4486270D01*
X3874940Y4467220D01*
X3860710Y4451350D01*
X3844120Y4445000D01*
X3825160Y4451350D01*
X3808560Y4470390D01*
X3799080Y4498980D01*
X3796710Y4530720D01*
X3801450Y4572000D01*
X3808560Y4594230D01*
X3820410Y4616450D01*
X3837010Y4632330D01*
X3853600Y4635500D01*
X3870200Y4629150D01*
X3882050Y4613270D01*
G01X4023000Y5432400D02*
Y6143600D01*
X4277000D01*
Y5432400D01*
X4023000D01*
G01Y6143600D02*
X4277000D01*
Y5432400D01*
X4023000D01*
G01Y6143600D02*
Y5432400D01*
G01X4048340Y6667500D02*
Y6858000D01*
X4107600D01*
X4126570Y6848470D01*
X4138420Y6835770D01*
X4143160Y6810370D01*
X4138420Y6784970D01*
X4124200Y6769100D01*
X4107600Y6759570D01*
X4048340D01*
G01X4107600D02*
X4143160Y6667500D01*
G01X4234100Y6705600D02*
X4248320Y6683370D01*
X4267280Y6670670D01*
X4288620Y6667500D01*
X4307590Y6670670D01*
X4326550Y6686550D01*
X4338400Y6705600D01*
X4340770Y6724650D01*
X4336030Y6746870D01*
X4319440Y6762750D01*
X4302840Y6769100D01*
X4281510D01*
G01X4302840D02*
X4317070Y6778620D01*
X4328920Y6794500D01*
X4333660Y6813550D01*
X4328920Y6832600D01*
X4317070Y6848470D01*
X4295730Y6858000D01*
X4274400Y6854830D01*
X4253060Y6842120D01*
G01X4937000Y1486000D02*
Y1003400D01*
X4683000D01*
Y1486000D01*
X4937000D01*
G01Y1397100D02*
X4683000D01*
G01X4937000Y1409800D02*
X4683000D01*
G01X4937000Y1397100D02*
X4683000D01*
G01X4937000Y1409800D02*
X4683000D01*
G01X4654470Y2095500D02*
Y2286000D01*
X4701880D01*
X4720840Y2276470D01*
X4735070Y2263770D01*
X4746920Y2244730D01*
X4756400Y2222500D01*
X4758770Y2190750D01*
X4756400Y2159000D01*
X4746920Y2136770D01*
X4735070Y2117720D01*
X4720840Y2105020D01*
X4701880Y2095500D01*
X4654470D01*
G01X4852080Y2174870D02*
X4868670Y2197100D01*
X4882900Y2209800D01*
X4901860Y2216150D01*
X4918460Y2209800D01*
X4930310Y2197100D01*
X4939790Y2178050D01*
X4942160Y2155820D01*
X4939790Y2136770D01*
X4930310Y2117720D01*
X4916080Y2101850D01*
X4899490Y2095500D01*
X4880530Y2101850D01*
X4863930Y2120890D01*
X4854450Y2149480D01*
X4852080Y2181220D01*
X4856820Y2222500D01*
X4863930Y2244730D01*
X4875780Y2266950D01*
X4892380Y2282830D01*
X4908970Y2286000D01*
X4925570Y2279650D01*
X4937420Y2263770D01*
G01X4573000Y3222400D02*
Y3933600D01*
X4827000D01*
Y3222400D01*
X4573000D01*
G01Y3933600D02*
X4827000D01*
Y3222400D01*
X4573000D01*
G01Y3933600D02*
Y3222400D01*
G01X4556340Y4445000D02*
Y4635500D01*
X4615600D01*
X4634570Y4625970D01*
X4646420Y4613270D01*
X4651160Y4587870D01*
X4646420Y4562470D01*
X4632200Y4546600D01*
X4615600Y4537070D01*
X4556340D01*
G01X4615600D02*
X4651160Y4445000D01*
G01X4789510D02*
X4794250Y4486270D01*
X4801360Y4521200D01*
X4810840Y4552950D01*
X4822700Y4587870D01*
X4841660Y4635500D01*
X4746840D01*
G01X4793000Y5432400D02*
Y6143600D01*
X5047000D01*
Y5432400D01*
X4793000D01*
G01Y6143600D02*
X5047000D01*
Y5432400D01*
X4793000D01*
G01Y6143600D02*
Y5432400D01*
G01X4810340Y6667500D02*
Y6858000D01*
X4869600D01*
X4888570Y6848470D01*
X4900420Y6835770D01*
X4905160Y6810370D01*
X4900420Y6784970D01*
X4886200Y6769100D01*
X4869600Y6759570D01*
X4810340D01*
G01X4869600D02*
X4905160Y6667500D01*
G01X5076700D02*
Y6858000D01*
X4988980Y6721480D01*
X5107520D01*
G01X5591600Y6237000D02*
X5744000D01*
X5807500Y6173500D01*
X5934500D01*
X5998000Y6237000D01*
X6150400D01*
Y5221000D01*
X5591600D01*
Y6237000D01*
G01X5553500D02*
Y5221000D01*
X6188500D01*
Y6237000D01*
G01X5553500D02*
X5744000D01*
X5807500Y6173500D01*
X5934500D01*
X5998000Y6237000D01*
X6188500D01*
G01X6271600Y1757000D02*
X6424000D01*
X6487500Y1693500D01*
X6614500D01*
X6678000Y1757000D01*
X6830400D01*
Y741000D01*
X6271600D01*
Y1757000D01*
G01X6233500D02*
Y741000D01*
X6868500D01*
Y1757000D01*
G01X6233500D02*
X6424000D01*
X6487500Y1693500D01*
X6614500D01*
X6678000Y1757000D01*
X6868500D01*
G01X6393100Y2286000D02*
Y2149480D01*
X6402580Y2120890D01*
X6421540Y2101850D01*
X6445250Y2095500D01*
X6468960Y2101850D01*
X6487920Y2120890D01*
X6497400Y2149480D01*
Y2286000D01*
G01X6583600Y2133600D02*
X6597820Y2111370D01*
X6616780Y2098670D01*
X6638120Y2095500D01*
X6657090Y2098670D01*
X6676050Y2114550D01*
X6687900Y2133600D01*
X6690270Y2152650D01*
X6685530Y2174870D01*
X6668940Y2190750D01*
X6652340Y2197100D01*
X6631010D01*
G01X6652340D02*
X6666570Y2206620D01*
X6678420Y2222500D01*
X6683160Y2241550D01*
X6678420Y2260600D01*
X6666570Y2276470D01*
X6645230Y2286000D01*
X6623900Y2282830D01*
X6602560Y2270120D01*
G01X5783000Y3212400D02*
Y3923600D01*
X6037000D01*
Y3212400D01*
X5783000D01*
G01Y3923600D02*
X6037000D01*
Y3212400D01*
X5783000D01*
G01Y3923600D02*
Y3212400D01*
G01X5762840Y4381500D02*
Y4572000D01*
X5822100D01*
X5841070Y4562470D01*
X5852920Y4549770D01*
X5857660Y4524370D01*
X5852920Y4498970D01*
X5838700Y4483100D01*
X5822100Y4473570D01*
X5762840D01*
G01X5822100D02*
X5857660Y4381500D01*
G01X6000750D02*
X6017340Y4384670D01*
X6036310Y4394200D01*
X6048160Y4410070D01*
X6052900Y4432300D01*
X6048160Y4454520D01*
X6033940Y4473570D01*
X6012600Y4483100D01*
X5988900D01*
X5974670Y4489450D01*
X5962820Y4505320D01*
X5958080Y4527550D01*
X5965190Y4549770D01*
X5981780Y4565650D01*
X6000750Y4572000D01*
X6019710Y4565650D01*
X6036310Y4549770D01*
X6043420Y4527550D01*
X6038680Y4505320D01*
X6026830Y4489450D01*
X6012600Y4483100D01*
X5988900D01*
X5967560Y4473570D01*
X5953340Y4454520D01*
X5948600Y4432300D01*
X5953340Y4410070D01*
X5965190Y4394200D01*
X5984160Y4384670D01*
X6000750Y4381500D01*
G01X5821600Y6794500D02*
Y6657980D01*
X5831080Y6629390D01*
X5850040Y6610350D01*
X5873750Y6604000D01*
X5897460Y6610350D01*
X5916420Y6629390D01*
X5925900Y6657980D01*
Y6794500D01*
G01X6064250Y6604000D02*
Y6794500D01*
X6035800Y6756400D01*
G01Y6604000D02*
X6092690D01*
G01X6803000Y3152400D02*
Y3863600D01*
X7057000D01*
Y3152400D01*
X6803000D01*
G01Y3863600D02*
X7057000D01*
Y3152400D01*
X6803000D01*
G01Y3863600D02*
Y3152400D01*
G01X6778840Y4381500D02*
Y4572000D01*
X6838100D01*
X6857070Y4562470D01*
X6868920Y4549770D01*
X6873660Y4524370D01*
X6868920Y4498970D01*
X6854700Y4483100D01*
X6838100Y4473570D01*
X6778840D01*
G01X6838100D02*
X6873660Y4381500D01*
G01X6976450Y4403720D02*
X6993040Y4387850D01*
X7012010Y4381500D01*
X7030970Y4387850D01*
X7047570Y4406890D01*
X7059420Y4435480D01*
X7064160Y4464050D01*
Y4498970D01*
X7059420Y4527550D01*
X7047570Y4552950D01*
X7033340Y4565650D01*
X7016750Y4572000D01*
X6997780Y4565650D01*
X6983560Y4552950D01*
X6974080Y4533900D01*
X6969340Y4508500D01*
X6974080Y4486280D01*
X6985930Y4464050D01*
X7000160Y4451350D01*
X7016750Y4448170D01*
X7035710Y4454520D01*
X7049940Y4470400D01*
X7064160Y4498970D01*
G01X6794500Y5359400D02*
Y6070600D01*
X7048500D01*
Y5359400D01*
X6794500D01*
G01Y6070600D02*
X7048500D01*
Y5359400D01*
X6794500D01*
G01Y6070600D02*
Y5359400D01*
G01X6715340Y6604000D02*
Y6794500D01*
X6774600D01*
X6793570Y6784970D01*
X6805420Y6772270D01*
X6810160Y6746870D01*
X6805420Y6721470D01*
X6791200Y6705600D01*
X6774600Y6696070D01*
X6715340D01*
G01X6774600D02*
X6810160Y6604000D01*
G01X6901100Y6632570D02*
X6915320Y6616700D01*
X6931910Y6607170D01*
X6953250Y6604000D01*
X6974590Y6610350D01*
X6991180Y6623050D01*
X7003030Y6645270D01*
X7005400Y6670670D01*
X7000660Y6696070D01*
X6988810Y6711950D01*
X6972210Y6724650D01*
X6955620Y6727820D01*
X6939030Y6724650D01*
X6917690Y6711950D01*
X6924800Y6794500D01*
X6988810D01*
G01X7927000Y1506000D02*
Y1023400D01*
X7673000D01*
Y1506000D01*
X7927000D01*
G01Y1417100D02*
X7673000D01*
G01X7927000Y1429800D02*
X7673000D01*
G01X7927000Y1417100D02*
X7673000D01*
G01X7927000Y1429800D02*
X7673000D01*
G01X7638970Y2095500D02*
Y2286000D01*
X7686380D01*
X7705340Y2276470D01*
X7719570Y2263770D01*
X7731420Y2244730D01*
X7740900Y2222500D01*
X7743270Y2190750D01*
X7740900Y2159000D01*
X7731420Y2136770D01*
X7719570Y2117720D01*
X7705340Y2105020D01*
X7686380Y2095500D01*
X7638970D01*
G01X7910070D02*
Y2286000D01*
X7822350Y2149480D01*
X7940890D01*
G01X7673000Y3172400D02*
Y3883600D01*
X7927000D01*
Y3172400D01*
X7673000D01*
G01Y3883600D02*
X7927000D01*
Y3172400D01*
X7673000D01*
G01Y3883600D02*
Y3172400D01*
G01X7572590Y4381500D02*
Y4572000D01*
X7631850D01*
X7650820Y4562470D01*
X7662670Y4549770D01*
X7667410Y4524370D01*
X7662670Y4498970D01*
X7648450Y4483100D01*
X7631850Y4473570D01*
X7572590D01*
G01X7631850D02*
X7667410Y4381500D01*
G01X7810500D02*
Y4572000D01*
X7782050Y4533900D01*
G01Y4381500D02*
X7838940D01*
G01X8001000Y4572000D02*
X7982030Y4565650D01*
X7967810Y4549770D01*
X7958330Y4530730D01*
X7951220Y4505320D01*
X7948850Y4476750D01*
X7951220Y4448170D01*
X7958330Y4422770D01*
X7967810Y4403720D01*
X7982030Y4387850D01*
X8001000Y4381500D01*
X8019960Y4387850D01*
X8034190Y4403720D01*
X8043670Y4422770D01*
X8050780Y4448170D01*
X8053150Y4476750D01*
X8050780Y4505320D01*
X8043670Y4530730D01*
X8034190Y4549770D01*
X8019960Y4565650D01*
X8001000Y4572000D01*
G01X7313000Y5402400D02*
Y6113600D01*
X7567000D01*
Y5402400D01*
X7313000D01*
G01Y6113600D02*
X7567000D01*
Y5402400D01*
X7313000D01*
G01Y6113600D02*
Y5402400D01*
G01X7286840Y6604000D02*
Y6794500D01*
X7346100D01*
X7365070Y6784970D01*
X7376920Y6772270D01*
X7381660Y6746870D01*
X7376920Y6721470D01*
X7362700Y6705600D01*
X7346100Y6696070D01*
X7286840D01*
G01X7346100D02*
X7381660Y6604000D01*
G01X7524750D02*
Y6794500D01*
X7496300Y6756400D01*
G01Y6604000D02*
X7553190D01*
G01X8877000Y1506000D02*
Y1023400D01*
X8623000D01*
Y1506000D01*
X8877000D01*
G01Y1417100D02*
X8623000D01*
G01X8877000Y1429800D02*
X8623000D01*
G01X8877000Y1417100D02*
X8623000D01*
G01X8877000Y1429800D02*
X8623000D01*
G01X8591470Y2095500D02*
Y2286000D01*
X8638880D01*
X8657840Y2276470D01*
X8672070Y2263770D01*
X8683920Y2244730D01*
X8693400Y2222500D01*
X8695770Y2190750D01*
X8693400Y2159000D01*
X8683920Y2136770D01*
X8672070Y2117720D01*
X8657840Y2105020D01*
X8638880Y2095500D01*
X8591470D01*
G01X8789080Y2254250D02*
X8803300Y2273300D01*
X8819900Y2282830D01*
X8838860Y2286000D01*
X8862570Y2279650D01*
X8879160Y2263770D01*
X8883900Y2244730D01*
X8881530Y2225670D01*
X8872050Y2209800D01*
X8824640Y2178050D01*
X8803300Y2155820D01*
X8789080Y2124070D01*
X8784340Y2095500D01*
X8883900D01*
G01X8944000Y3393000D02*
G03I-254000J0D01*
G01D02*
G03I-254000J0D01*
G01X8656400Y4619620D02*
X8642180Y4629150D01*
X8625590Y4635500D01*
X8606620D01*
X8585280Y4625970D01*
X8568690Y4610100D01*
X8556840Y4591050D01*
X8547350Y4559300D01*
X8544980Y4530720D01*
X8549730Y4502150D01*
X8556840Y4483100D01*
X8571060Y4464050D01*
X8587660Y4451350D01*
X8604250Y4445000D01*
X8620840D01*
X8637440Y4451350D01*
X8651660Y4460870D01*
X8663520Y4473570D01*
G01X8794750Y4445000D02*
Y4635500D01*
X8766300Y4597400D01*
G01Y4445000D02*
X8823190D01*
G01X8201600Y6267000D02*
X8354000D01*
X8417500Y6203500D01*
X8544500D01*
X8608000Y6267000D01*
X8760400D01*
Y5251000D01*
X8201600D01*
Y6267000D01*
G01X8163500D02*
Y5251000D01*
X8798500D01*
Y6267000D01*
G01X8163500D02*
X8354000D01*
X8417500Y6203500D01*
X8544500D01*
X8608000Y6267000D01*
X8798500D01*
G01X8425100Y6794500D02*
Y6657980D01*
X8434580Y6629390D01*
X8453540Y6610350D01*
X8477250Y6604000D01*
X8500960Y6610350D01*
X8519920Y6629390D01*
X8529400Y6657980D01*
Y6794500D01*
G01X8622710Y6762750D02*
X8636930Y6781800D01*
X8653530Y6791330D01*
X8672490Y6794500D01*
X8696200Y6788150D01*
X8712790Y6772270D01*
X8717530Y6753230D01*
X8715160Y6734170D01*
X8705680Y6718300D01*
X8658270Y6686550D01*
X8636930Y6664320D01*
X8622710Y6632570D01*
X8617970Y6604000D01*
X8717530D01*
G01X9453000Y3647000D02*
X9707000D01*
Y3139000D01*
X9453000D01*
Y3647000D01*
G01X9029400Y3555400D02*
X8927800D01*
G01X8988600Y3494600D02*
Y3596200D01*
G01X9445840Y4419600D02*
X9457690Y4400550D01*
X9471910Y4387850D01*
X9488510Y4381500D01*
X9507470Y4387850D01*
X9521700Y4400550D01*
X9535920Y4419600D01*
X9540660Y4445000D01*
Y4572000D01*
G01X9683750Y4381500D02*
Y4572000D01*
X9655300Y4533900D01*
G01Y4381500D02*
X9712190D01*
G01X9363000Y5432400D02*
Y6143600D01*
X9617000D01*
Y5432400D01*
X9363000D01*
G01Y6143600D02*
X9617000D01*
Y5432400D01*
X9363000D01*
G01Y6143600D02*
Y5432400D01*
G01X9318840Y6604000D02*
Y6794500D01*
X9378100D01*
X9397070Y6784970D01*
X9408920Y6772270D01*
X9413660Y6746870D01*
X9408920Y6721470D01*
X9394700Y6705600D01*
X9378100Y6696070D01*
X9318840D01*
G01X9378100D02*
X9413660Y6604000D01*
G01X9511710Y6762750D02*
X9525930Y6781800D01*
X9542530Y6791330D01*
X9561490Y6794500D01*
X9585200Y6788150D01*
X9601790Y6772270D01*
X9606530Y6753230D01*
X9604160Y6734170D01*
X9594680Y6718300D01*
X9547270Y6686550D01*
X9525930Y6664320D01*
X9511710Y6632570D01*
X9506970Y6604000D01*
X9606530D01*
M02*
