G04 ================== begin FILE IDENTIFICATION RECORD ==================*
G04 Layout Name:  D:/ORCAD/B07_1031/allegro/B07_1106_1.brd*
G04 Film Name:    Soldermask_TOP*
G04 File Format:  Gerber RS274X*
G04 File Origin:  Cadence Allegro 17.2-S073*
G04 Origin Date:  Mon Nov 06 16:06:07 2023*
G04 *
G04 Layer:  VIA CLASS/SOLDERMASK_TOP*
G04 Layer:  PIN/SOLDERMASK_TOP*
G04 Layer:  BOARD GEOMETRY/DESIGN_OUTLINE*
G04 *
G04 Offset:    (0.0000 0.0000)*
G04 Mirror:    No*
G04 Mode:      Positive*
G04 Rotation:  0*
G04 FullContactRelief:  No*
G04 UndefLineWidth:     0.2000*
G04 ================== end FILE IDENTIFICATION RECORD ====================*
%FSLAX35Y35*MOMM*%
%IR0*IPPOS*OFA0.00000B0.00000*MIA0B0*SFA1.00000B1.00000*%
%ADD13O,1.524X1.016*%
%ADD12R,1.524X1.016*%
%ADD14C,2.032*%
%ADD10C,1.905*%
%ADD11R,1.905X1.905*%
%ADD15C,.2*%
G75*
%LPD*%
G75*
G54D10*
X490000Y6006000D03*
Y6260000D03*
X1070000Y1166000D03*
Y1420000D03*
X550000Y3296000D03*
Y3550000D03*
X1590000Y3079400D03*
X1580000Y5369400D03*
X2286000Y1143000D03*
Y1397000D03*
X2720000Y3069400D03*
X3670000Y749400D03*
X4810000D03*
X5490000Y5348000D03*
Y5602000D03*
Y5856000D03*
X6170000Y868000D03*
Y1122000D03*
Y1376000D03*
X6252000Y5348000D03*
Y5602000D03*
Y5856000D03*
Y6110000D03*
X6932000Y868000D03*
Y1122000D03*
Y1376000D03*
Y1630000D03*
X7800000Y769400D03*
X8100000Y5378000D03*
Y5632000D03*
Y5886000D03*
X8750000Y769400D03*
X8690000Y3266000D03*
Y3520000D03*
X8862000Y5378000D03*
Y5632000D03*
Y5886000D03*
Y6140000D03*
X9580000Y3266000D03*
Y3520000D03*
G54D11*
X1590000Y4070000D03*
X1580000Y6360000D03*
X2720000Y4060000D03*
X3670000Y1740000D03*
X4810000D03*
X5490000Y6110000D03*
X6170000Y1630000D03*
X7800000Y1760000D03*
X8100000Y6140000D03*
X8750000Y1760000D03*
G54D12*
X2540000Y5660000D03*
G54D13*
Y5787000D03*
Y5914000D03*
G54D14*
X3460000Y5536000D03*
Y5790000D03*
X3790000Y3080000D03*
Y4096000D03*
X4150000Y5280000D03*
Y6296000D03*
X4700000Y3070000D03*
Y4086000D03*
X4920000Y5280000D03*
Y6296000D03*
X5910000Y3060000D03*
Y4076000D03*
X6930000Y3000000D03*
Y4016000D03*
X6921500Y5207000D03*
Y6223000D03*
X7800000Y3020000D03*
Y4036000D03*
X7440000Y5250000D03*
Y6266000D03*
X9490000Y5280000D03*
Y6296000D03*
G54D15*
G01X10000000Y0D02*
Y7000000D01*
X0D01*
Y0D01*
X10000000D01*
M02*
