G04 ================== begin FILE IDENTIFICATION RECORD ==================*
G04 Layout Name:  D:/ORCAD/B07_EX01/allegro/B07_EX01.brd*
G04 Film Name:    ALL*
G04 File Format:  Gerber RS274X*
G04 File Origin:  Cadence Allegro 17.2-S073*
G04 Origin Date:  Fri Dec 08 10:57:12 2023*
G04 *
G04 Layer:  REF DES/SILKSCREEN_TOP*
G04 Layer:  PIN/BOTTOM*
G04 Layer:  PIN/TOP*
G04 Layer:  PACKAGE GEOMETRY/SILKSCREEN_TOP*
G04 Layer:  MANUFACTURING/NCLEGEND-1-2*
G04 Layer:  ETCH/BOTTOM*
G04 Layer:  ETCH/TOP*
G04 Layer:  BOARD GEOMETRY/DIMENSION*
G04 Layer:  BOARD GEOMETRY/SILKSCREEN_TOP*
G04 Layer:  BOARD GEOMETRY/DESIGN_OUTLINE*
G04 *
G04 Offset:    (0.0000 0.0000)*
G04 Mirror:    No*
G04 Mode:      Positive*
G04 Rotation:  0*
G04 FullContactRelief:  No*
G04 UndefLineWidth:     0.2000*
G04 ================== end FILE IDENTIFICATION RECORD ====================*
%FSLAX25Y25*MOMM*%
%IR0*IPPOS*OFA0.00000B0.00000*MIA0B0*SFA1.00000B1.00000*%
%ADD15C,.635*%
%AMMACRO11*
1,1,.2,.6858,0.0*
20,1,.2,.6858,0.0,.675381,-.119088,0.0*
1,1,.2,.675381,-.119088*
20,1,.2,.675381,-.119088,.644441,-.234557,0.0*
1,1,.2,.644441,-.234557*
20,1,.2,.644441,-.234557,.59392,-.3429,0.0*
1,1,.2,.59392,-.3429*
20,1,.2,.59392,-.3429,.525353,-.440824,0.0*
1,1,.2,.525353,-.440824*
20,1,.2,.525353,-.440824,.440824,-.525353,0.0*
1,1,.2,.440824,-.525353*
20,1,.2,.440824,-.525353,.3429,-.59392,0.0*
1,1,.2,.3429,-.59392*
20,1,.2,.3429,-.59392,.234557,-.644441,0.0*
1,1,.2,.234557,-.644441*
20,1,.2,.234557,-.644441,.119088,-.675381,0.0*
1,1,.2,.119088,-.675381*
20,1,.2,.119088,-.675381,0.0,-.6858,0.0*
1,1,.2,0.0,-.6858*
20,1,.2,0.0,-.6858,-.119088,-.675381,0.0*
1,1,.2,-.119088,-.675381*
20,1,.2,-.119088,-.675381,-.234557,-.644441,0.0*
1,1,.2,-.234557,-.644441*
20,1,.2,-.234557,-.644441,-.3429,-.59392,0.0*
1,1,.2,-.3429,-.59392*
20,1,.2,-.3429,-.59392,-.440824,-.525353,0.0*
1,1,.2,-.440824,-.525353*
20,1,.2,-.440824,-.525353,-.525353,-.440824,0.0*
1,1,.2,-.525353,-.440824*
20,1,.2,-.525353,-.440824,-.59392,-.3429,0.0*
1,1,.2,-.59392,-.3429*
20,1,.2,-.59392,-.3429,-.644441,-.234557,0.0*
1,1,.2,-.644441,-.234557*
20,1,.2,-.644441,-.234557,-.675381,-.119088,0.0*
1,1,.2,-.675381,-.119088*
20,1,.2,-.675381,-.119088,-.6858,0.0,0.0*
1,1,.2,-.6858,0.0*
20,1,.2,-.6858,0.0,-.675381,.119088,0.0*
1,1,.2,-.675381,.119088*
20,1,.2,-.675381,.119088,-.644441,.234557,0.0*
1,1,.2,-.644441,.234557*
20,1,.2,-.644441,.234557,-.59392,.3429,0.0*
1,1,.2,-.59392,.3429*
20,1,.2,-.59392,.3429,-.525353,.440824,0.0*
1,1,.2,-.525353,.440824*
20,1,.2,-.525353,.440824,-.440824,.525353,0.0*
1,1,.2,-.440824,.525353*
20,1,.2,-.440824,.525353,-.3429,.59392,0.0*
1,1,.2,-.3429,.59392*
20,1,.2,-.3429,.59392,-.234557,.644441,0.0*
1,1,.2,-.234557,.644441*
20,1,.2,-.234557,.644441,-.119088,.675381,0.0*
1,1,.2,-.119088,.675381*
20,1,.2,-.119088,.675381,0.0,.6858,0.0*
1,1,.2,0.0,.6858*
20,1,.2,0.0,.6858,.119088,.675381,0.0*
1,1,.2,.119088,.675381*
20,1,.2,.119088,.675381,.234557,.644441,0.0*
1,1,.2,.234557,.644441*
20,1,.2,.234557,.644441,.3429,.59392,0.0*
1,1,.2,.3429,.59392*
20,1,.2,.3429,.59392,.440824,.525353,0.0*
1,1,.2,.440824,.525353*
20,1,.2,.440824,.525353,.525353,.440824,0.0*
1,1,.2,.525353,.440824*
20,1,.2,.525353,.440824,.59392,.3429,0.0*
1,1,.2,.59392,.3429*
20,1,.2,.59392,.3429,.644441,.234557,0.0*
1,1,.2,.644441,.234557*
20,1,.2,.644441,.234557,.675381,.119088,0.0*
1,1,.2,.675381,.119088*
20,1,.2,.675381,.119088,.6858,0.0,0.0*
1,1,.2,.6858,0.0*
%
%ADD11MACRO11*%
%AMMACRO13*
1,1,.2,.4572,0.0*
20,1,.2,.4572,0.0,.450254,-.079392,0.0*
1,1,.2,.450254,-.079392*
20,1,.2,.450254,-.079392,.429627,-.156372,0.0*
1,1,.2,.429627,-.156372*
20,1,.2,.429627,-.156372,.395947,-.2286,0.0*
1,1,.2,.395947,-.2286*
20,1,.2,.395947,-.2286,.350236,-.293882,0.0*
1,1,.2,.350236,-.293882*
20,1,.2,.350236,-.293882,.293882,-.350236,0.0*
1,1,.2,.293882,-.350236*
20,1,.2,.293882,-.350236,.2286,-.395947,0.0*
1,1,.2,.2286,-.395947*
20,1,.2,.2286,-.395947,.156372,-.429627,0.0*
1,1,.2,.156372,-.429627*
20,1,.2,.156372,-.429627,.079392,-.450254,0.0*
1,1,.2,.079392,-.450254*
20,1,.2,.079392,-.450254,0.0,-.4572,0.0*
1,1,.2,0.0,-.4572*
20,1,.2,0.0,-.4572,-.079392,-.450254,0.0*
1,1,.2,-.079392,-.450254*
20,1,.2,-.079392,-.450254,-.156372,-.429627,0.0*
1,1,.2,-.156372,-.429627*
20,1,.2,-.156372,-.429627,-.2286,-.395947,0.0*
1,1,.2,-.2286,-.395947*
20,1,.2,-.2286,-.395947,-.293882,-.350236,0.0*
1,1,.2,-.293882,-.350236*
20,1,.2,-.293882,-.350236,-.350236,-.293882,0.0*
1,1,.2,-.350236,-.293882*
20,1,.2,-.350236,-.293882,-.395947,-.2286,0.0*
1,1,.2,-.395947,-.2286*
20,1,.2,-.395947,-.2286,-.429627,-.156372,0.0*
1,1,.2,-.429627,-.156372*
20,1,.2,-.429627,-.156372,-.450254,-.079392,0.0*
1,1,.2,-.450254,-.079392*
20,1,.2,-.450254,-.079392,-.4572,0.0,0.0*
1,1,.2,-.4572,0.0*
20,1,.2,-.4572,0.0,-.450254,.079392,0.0*
1,1,.2,-.450254,.079392*
20,1,.2,-.450254,.079392,-.429627,.156372,0.0*
1,1,.2,-.429627,.156372*
20,1,.2,-.429627,.156372,-.395947,.2286,0.0*
1,1,.2,-.395947,.2286*
20,1,.2,-.395947,.2286,-.350236,.293882,0.0*
1,1,.2,-.350236,.293882*
20,1,.2,-.350236,.293882,-.293882,.350236,0.0*
1,1,.2,-.293882,.350236*
20,1,.2,-.293882,.350236,-.2286,.395947,0.0*
1,1,.2,-.2286,.395947*
20,1,.2,-.2286,.395947,-.156372,.429627,0.0*
1,1,.2,-.156372,.429627*
20,1,.2,-.156372,.429627,-.079392,.450254,0.0*
1,1,.2,-.079392,.450254*
20,1,.2,-.079392,.450254,0.0,.4572,0.0*
1,1,.2,0.0,.4572*
20,1,.2,0.0,.4572,.079392,.450254,0.0*
1,1,.2,.079392,.450254*
20,1,.2,.079392,.450254,.156372,.429627,0.0*
1,1,.2,.156372,.429627*
20,1,.2,.156372,.429627,.2286,.395947,0.0*
1,1,.2,.2286,.395947*
20,1,.2,.2286,.395947,.293882,.350236,0.0*
1,1,.2,.293882,.350236*
20,1,.2,.293882,.350236,.350236,.293882,0.0*
1,1,.2,.350236,.293882*
20,1,.2,.350236,.293882,.395947,.2286,0.0*
1,1,.2,.395947,.2286*
20,1,.2,.395947,.2286,.429627,.156372,0.0*
1,1,.2,.429627,.156372*
20,1,.2,.429627,.156372,.450254,.079392,0.0*
1,1,.2,.450254,.079392*
20,1,.2,.450254,.079392,.4572,0.0,0.0*
1,1,.2,.4572,0.0*
%
%ADD13MACRO13*%
%AMMACRO12*
1,1,.2,.5334,0.0*
20,1,.2,.5334,0.0,.525296,-.092624,0.0*
1,1,.2,.525296,-.092624*
20,1,.2,.525296,-.092624,.501232,-.182434,0.0*
1,1,.2,.501232,-.182434*
20,1,.2,.501232,-.182434,.461938,-.2667,0.0*
1,1,.2,.461938,-.2667*
20,1,.2,.461938,-.2667,.408608,-.342863,0.0*
1,1,.2,.408608,-.342863*
20,1,.2,.408608,-.342863,.342863,-.408608,0.0*
1,1,.2,.342863,-.408608*
20,1,.2,.342863,-.408608,.2667,-.461938,0.0*
1,1,.2,.2667,-.461938*
20,1,.2,.2667,-.461938,.182434,-.501232,0.0*
1,1,.2,.182434,-.501232*
20,1,.2,.182434,-.501232,.092624,-.525296,0.0*
1,1,.2,.092624,-.525296*
20,1,.2,.092624,-.525296,0.0,-.5334,0.0*
1,1,.2,0.0,-.5334*
20,1,.2,0.0,-.5334,-.092624,-.525296,0.0*
1,1,.2,-.092624,-.525296*
20,1,.2,-.092624,-.525296,-.182434,-.501232,0.0*
1,1,.2,-.182434,-.501232*
20,1,.2,-.182434,-.501232,-.2667,-.461938,0.0*
1,1,.2,-.2667,-.461938*
20,1,.2,-.2667,-.461938,-.342863,-.408608,0.0*
1,1,.2,-.342863,-.408608*
20,1,.2,-.342863,-.408608,-.408608,-.342863,0.0*
1,1,.2,-.408608,-.342863*
20,1,.2,-.408608,-.342863,-.461938,-.2667,0.0*
1,1,.2,-.461938,-.2667*
20,1,.2,-.461938,-.2667,-.501232,-.182434,0.0*
1,1,.2,-.501232,-.182434*
20,1,.2,-.501232,-.182434,-.525296,-.092624,0.0*
1,1,.2,-.525296,-.092624*
20,1,.2,-.525296,-.092624,-.5334,0.0,0.0*
1,1,.2,-.5334,0.0*
20,1,.2,-.5334,0.0,-.525296,.092624,0.0*
1,1,.2,-.525296,.092624*
20,1,.2,-.525296,.092624,-.501232,.182434,0.0*
1,1,.2,-.501232,.182434*
20,1,.2,-.501232,.182434,-.461938,.2667,0.0*
1,1,.2,-.461938,.2667*
20,1,.2,-.461938,.2667,-.408608,.342863,0.0*
1,1,.2,-.408608,.342863*
20,1,.2,-.408608,.342863,-.342863,.408608,0.0*
1,1,.2,-.342863,.408608*
20,1,.2,-.342863,.408608,-.2667,.461938,0.0*
1,1,.2,-.2667,.461938*
20,1,.2,-.2667,.461938,-.182434,.501232,0.0*
1,1,.2,-.182434,.501232*
20,1,.2,-.182434,.501232,-.092624,.525296,0.0*
1,1,.2,-.092624,.525296*
20,1,.2,-.092624,.525296,0.0,.5334,0.0*
1,1,.2,0.0,.5334*
20,1,.2,0.0,.5334,.092624,.525296,0.0*
1,1,.2,.092624,.525296*
20,1,.2,.092624,.525296,.182434,.501232,0.0*
1,1,.2,.182434,.501232*
20,1,.2,.182434,.501232,.2667,.461938,0.0*
1,1,.2,.2667,.461938*
20,1,.2,.2667,.461938,.342863,.408608,0.0*
1,1,.2,.342863,.408608*
20,1,.2,.342863,.408608,.408608,.342863,0.0*
1,1,.2,.408608,.342863*
20,1,.2,.408608,.342863,.461938,.2667,0.0*
1,1,.2,.461938,.2667*
20,1,.2,.461938,.2667,.501232,.182434,0.0*
1,1,.2,.501232,.182434*
20,1,.2,.501232,.182434,.525296,.092624,0.0*
1,1,.2,.525296,.092624*
20,1,.2,.525296,.092624,.5334,0.0,0.0*
1,1,.2,.5334,0.0*
%
%ADD12MACRO12*%
%AMMACRO14*
1,1,.2,.3937,0.0*
20,1,.2,.3937,0.0,.387719,-.068365,0.0*
1,1,.2,.387719,-.068365*
20,1,.2,.387719,-.068365,.369957,-.134653,0.0*
1,1,.2,.369957,-.134653*
20,1,.2,.369957,-.134653,.340954,-.19685,0.0*
1,1,.2,.340954,-.19685*
20,1,.2,.340954,-.19685,.301592,-.253065,0.0*
1,1,.2,.301592,-.253065*
20,1,.2,.301592,-.253065,.253065,-.301592,0.0*
1,1,.2,.253065,-.301592*
20,1,.2,.253065,-.301592,.19685,-.340954,0.0*
1,1,.2,.19685,-.340954*
20,1,.2,.19685,-.340954,.134653,-.369957,0.0*
1,1,.2,.134653,-.369957*
20,1,.2,.134653,-.369957,.068365,-.387719,0.0*
1,1,.2,.068365,-.387719*
20,1,.2,.068365,-.387719,0.0,-.3937,0.0*
1,1,.2,0.0,-.3937*
20,1,.2,0.0,-.3937,-.068365,-.387719,0.0*
1,1,.2,-.068365,-.387719*
20,1,.2,-.068365,-.387719,-.134653,-.369957,0.0*
1,1,.2,-.134653,-.369957*
20,1,.2,-.134653,-.369957,-.19685,-.340954,0.0*
1,1,.2,-.19685,-.340954*
20,1,.2,-.19685,-.340954,-.253065,-.301592,0.0*
1,1,.2,-.253065,-.301592*
20,1,.2,-.253065,-.301592,-.301592,-.253065,0.0*
1,1,.2,-.301592,-.253065*
20,1,.2,-.301592,-.253065,-.340954,-.19685,0.0*
1,1,.2,-.340954,-.19685*
20,1,.2,-.340954,-.19685,-.369957,-.134653,0.0*
1,1,.2,-.369957,-.134653*
20,1,.2,-.369957,-.134653,-.387719,-.068365,0.0*
1,1,.2,-.387719,-.068365*
20,1,.2,-.387719,-.068365,-.3937,0.0,0.0*
1,1,.2,-.3937,0.0*
20,1,.2,-.3937,0.0,-.387719,.068365,0.0*
1,1,.2,-.387719,.068365*
20,1,.2,-.387719,.068365,-.369957,.134653,0.0*
1,1,.2,-.369957,.134653*
20,1,.2,-.369957,.134653,-.340954,.19685,0.0*
1,1,.2,-.340954,.19685*
20,1,.2,-.340954,.19685,-.301592,.253065,0.0*
1,1,.2,-.301592,.253065*
20,1,.2,-.301592,.253065,-.253065,.301592,0.0*
1,1,.2,-.253065,.301592*
20,1,.2,-.253065,.301592,-.19685,.340954,0.0*
1,1,.2,-.19685,.340954*
20,1,.2,-.19685,.340954,-.134653,.369957,0.0*
1,1,.2,-.134653,.369957*
20,1,.2,-.134653,.369957,-.068365,.387719,0.0*
1,1,.2,-.068365,.387719*
20,1,.2,-.068365,.387719,0.0,.3937,0.0*
1,1,.2,0.0,.3937*
20,1,.2,0.0,.3937,.068365,.387719,0.0*
1,1,.2,.068365,.387719*
20,1,.2,.068365,.387719,.134653,.369957,0.0*
1,1,.2,.134653,.369957*
20,1,.2,.134653,.369957,.19685,.340954,0.0*
1,1,.2,.19685,.340954*
20,1,.2,.19685,.340954,.253065,.301592,0.0*
1,1,.2,.253065,.301592*
20,1,.2,.253065,.301592,.301592,.253065,0.0*
1,1,.2,.301592,.253065*
20,1,.2,.301592,.253065,.340954,.19685,0.0*
1,1,.2,.340954,.19685*
20,1,.2,.340954,.19685,.369957,.134653,0.0*
1,1,.2,.369957,.134653*
20,1,.2,.369957,.134653,.387719,.068365,0.0*
1,1,.2,.387719,.068365*
20,1,.2,.387719,.068365,.3937,0.0,0.0*
1,1,.2,.3937,0.0*
%
%ADD14MACRO14*%
%ADD20O,1.524X1.016*%
%ADD22O,1.016X1.524*%
%ADD19R,1.524X1.016*%
%ADD21R,1.016X1.524*%
%ADD17C,1.524*%
%ADD16C,1.651*%
%ADD24C,1.905*%
%ADD18R,1.524X1.524*%
%ADD23R,1.905X1.905*%
%AMMACRO10*
1,1,.2,1.5,0.0*
20,1,.2,1.5,0.0,1.477212,-.260472,0.0*
1,1,.2,1.477212,-.260472*
20,1,.2,1.477212,-.260472,1.409539,-.51303,0.0*
1,1,.2,1.409539,-.51303*
20,1,.2,1.409539,-.51303,1.299038,-.75,0.0*
1,1,.2,1.299038,-.75*
20,1,.2,1.299038,-.75,1.149067,-.964181,0.0*
1,1,.2,1.149067,-.964181*
20,1,.2,1.149067,-.964181,.964181,-1.149067,0.0*
1,1,.2,.964181,-1.149067*
20,1,.2,.964181,-1.149067,.75,-1.299038,0.0*
1,1,.2,.75,-1.299038*
20,1,.2,.75,-1.299038,.51303,-1.409539,0.0*
1,1,.2,.51303,-1.409539*
20,1,.2,.51303,-1.409539,.260472,-1.477212,0.0*
1,1,.2,.260472,-1.477212*
20,1,.2,.260472,-1.477212,0.0,-1.5,0.0*
1,1,.2,0.0,-1.5*
20,1,.2,0.0,-1.5,-.260472,-1.477212,0.0*
1,1,.2,-.260472,-1.477212*
20,1,.2,-.260472,-1.477212,-.51303,-1.409539,0.0*
1,1,.2,-.51303,-1.409539*
20,1,.2,-.51303,-1.409539,-.75,-1.299038,0.0*
1,1,.2,-.75,-1.299038*
20,1,.2,-.75,-1.299038,-.964181,-1.149067,0.0*
1,1,.2,-.964181,-1.149067*
20,1,.2,-.964181,-1.149067,-1.149067,-.964181,0.0*
1,1,.2,-1.149067,-.964181*
20,1,.2,-1.149067,-.964181,-1.299038,-.75,0.0*
1,1,.2,-1.299038,-.75*
20,1,.2,-1.299038,-.75,-1.409539,-.51303,0.0*
1,1,.2,-1.409539,-.51303*
20,1,.2,-1.409539,-.51303,-1.477212,-.260472,0.0*
1,1,.2,-1.477212,-.260472*
20,1,.2,-1.477212,-.260472,-1.5,0.0,0.0*
1,1,.2,-1.5,0.0*
20,1,.2,-1.5,0.0,-1.477212,.260472,0.0*
1,1,.2,-1.477212,.260472*
20,1,.2,-1.477212,.260472,-1.409539,.51303,0.0*
1,1,.2,-1.409539,.51303*
20,1,.2,-1.409539,.51303,-1.299038,.75,0.0*
1,1,.2,-1.299038,.75*
20,1,.2,-1.299038,.75,-1.149067,.964181,0.0*
1,1,.2,-1.149067,.964181*
20,1,.2,-1.149067,.964181,-.964181,1.149067,0.0*
1,1,.2,-.964181,1.149067*
20,1,.2,-.964181,1.149067,-.75,1.299038,0.0*
1,1,.2,-.75,1.299038*
20,1,.2,-.75,1.299038,-.51303,1.409539,0.0*
1,1,.2,-.51303,1.409539*
20,1,.2,-.51303,1.409539,-.260472,1.477212,0.0*
1,1,.2,-.260472,1.477212*
20,1,.2,-.260472,1.477212,0.0,1.5,0.0*
1,1,.2,0.0,1.5*
20,1,.2,0.0,1.5,.260472,1.477212,0.0*
1,1,.2,.260472,1.477212*
20,1,.2,.260472,1.477212,.51303,1.409539,0.0*
1,1,.2,.51303,1.409539*
20,1,.2,.51303,1.409539,.75,1.299038,0.0*
1,1,.2,.75,1.299038*
20,1,.2,.75,1.299038,.964181,1.149067,0.0*
1,1,.2,.964181,1.149067*
20,1,.2,.964181,1.149067,1.149067,.964181,0.0*
1,1,.2,1.149067,.964181*
20,1,.2,1.149067,.964181,1.299038,.75,0.0*
1,1,.2,1.299038,.75*
20,1,.2,1.299038,.75,1.409539,.51303,0.0*
1,1,.2,1.409539,.51303*
20,1,.2,1.409539,.51303,1.477212,.260472,0.0*
1,1,.2,1.477212,.260472*
20,1,.2,1.477212,.260472,1.5,0.0,0.0*
1,1,.2,1.5,0.0*
%
%ADD10MACRO10*%
%ADD25C,.5*%
%ADD26C,.2032*%
%ADD27C,1.*%
%ADD28C,.2*%
G75*
%LPD*%
G75*
G54D10*
X-311270Y-5302500D03*
X300000Y300000D03*
Y6700000D03*
X9700000Y300000D03*
Y6700000D03*
G54D20*
X2540000Y1016000D03*
D03*
Y1143000D03*
D03*
Y6096000D03*
D03*
Y6223000D03*
D03*
X6985000Y4381500D03*
D03*
Y4254500D03*
D03*
X7048500Y6223000D03*
D03*
Y6350000D03*
D03*
G54D11*
X-311270Y-4667500D03*
X9144000Y4191000D03*
Y4445000D03*
Y4699000D03*
G54D21*
X6286500Y889000D03*
D03*
X8128000D03*
D03*
G54D12*
X-311270Y-4032500D03*
X825500Y825500D03*
Y1841500D03*
X875000Y3270000D03*
Y4286000D03*
X1587500Y825500D03*
Y1841500D03*
X1663000Y3294000D03*
Y4310000D03*
X1714500Y5207000D03*
Y6223000D03*
X3931000Y5222000D03*
Y6238000D03*
X5207000Y1016000D03*
Y762000D03*
Y1968500D03*
Y2984500D03*
Y3556000D03*
Y4572000D03*
Y5334000D03*
Y5588000D03*
X6089000Y1948000D03*
Y2964000D03*
X6096000Y3619500D03*
X6113000Y5185000D03*
X6096000Y4635500D03*
X6113000Y6201000D03*
X6985000Y1016000D03*
Y762000D03*
X6986000Y1948000D03*
Y2964000D03*
X7048500Y5207000D03*
Y5461000D03*
X7956000Y2009000D03*
Y3025000D03*
Y5161000D03*
Y6177000D03*
G54D22*
X6159500Y889000D03*
D03*
X6032500D03*
D03*
X8001000D03*
D03*
X7874000D03*
D03*
G54D13*
X-311270Y-3397500D03*
X889000Y5232400D03*
Y6223000D03*
X2667000Y2286000D03*
X2413000D03*
X2667000Y3937000D03*
X2413000D03*
X3846000Y857000D03*
Y1847600D03*
X3543000Y2873000D03*
Y3127000D03*
Y3381000D03*
Y3635000D03*
Y3889000D03*
Y4143000D03*
Y4397000D03*
X4305000Y2873000D03*
Y3127000D03*
Y3381000D03*
Y3635000D03*
Y3889000D03*
Y4143000D03*
Y4397000D03*
X8001000Y4254500D03*
Y4508500D03*
X9144000Y2222500D03*
Y2476500D03*
G54D23*
Y4191000D03*
D03*
G54D14*
X-311270Y-2762500D03*
X2540000Y889000D03*
Y1016000D03*
Y1143000D03*
Y5969000D03*
Y6096000D03*
Y6223000D03*
X6286500Y889000D03*
X6159500D03*
X6032500D03*
X6985000Y4381500D03*
Y4254500D03*
Y4508500D03*
X7048500Y6096000D03*
Y6223000D03*
Y6350000D03*
X8001000Y889000D03*
X7874000D03*
X8128000D03*
G54D24*
X9144000Y4445000D03*
D03*
Y4699000D03*
D03*
G54D15*
X300000Y300000D03*
D03*
Y6700000D03*
D03*
X9700000Y300000D03*
D03*
Y6700000D03*
D03*
G54D25*
G01X2540000Y1016000D02*
X1778000D01*
X1714500Y1079500D01*
X1079500D01*
X825500Y825500D01*
G01X2413000Y2286000D02*
X2095500Y2603500D01*
Y3556000D01*
X1365500Y4286000D01*
X875000D01*
G01X889000Y6223000D02*
X1714500D01*
G01X1587500Y825500D02*
X2540000Y1778000D01*
Y2984500D01*
X2413000Y3111500D01*
Y3937000D01*
G01X1663000Y4310000D02*
X1750000Y4397000D01*
X3543000D01*
G01X1663000Y4310000D02*
X1905000Y4552000D01*
Y5514320D01*
X2486680Y6096000D01*
X2540000D01*
G01X1714500Y5207000D02*
X3795740D01*
X3810740Y5222000D01*
X3931000D01*
G01X1714500Y6223000D02*
X2540000D01*
G01X3543000Y4143000D02*
X3048000Y3648000D01*
Y1498600D01*
X2565400Y1016000D01*
X2540000D01*
G01X3846000Y857000D02*
X3588000D01*
X3302000Y1143000D01*
X2540000D01*
G01X2667000Y2286000D02*
X2747540Y2366540D01*
X2782540D01*
X3543000Y3127000D01*
G01X2667000Y3937000D02*
X3381100D01*
X3429100Y3889000D01*
X3543000D01*
G01X3846000Y857000D02*
X4095500D01*
X5207000Y1968500D01*
G01X3543000Y3635000D02*
Y3889000D01*
G01X3931000Y5222000D02*
X4841000D01*
X5207000Y5588000D01*
G01Y762000D02*
X4953000Y1016000D01*
Y2730500D01*
X5207000Y2984500D01*
G01X6159500Y889000D02*
Y914400D01*
X6096920Y976980D01*
X6095090D01*
X5992570Y1079500D01*
X5778500D01*
X5461000Y762000D01*
X5207000D01*
G01Y1016000D02*
X5327250Y1136250D01*
Y2202250D01*
X6089000Y2964000D01*
G01X7874000Y889000D02*
Y914400D01*
X7811420Y976980D01*
X7786020D01*
X7493000Y1270000D01*
X5842000D01*
X5588000Y1016000D01*
X5207000D01*
G01Y2984500D02*
Y3556000D01*
G01X6096000Y3619500D02*
X6008300Y3707200D01*
Y4532700D01*
X5207000Y5334000D01*
G01X7048500Y6223000D02*
X6858000D01*
X6223000Y5588000D01*
X5207000D01*
G01X6286500Y889000D02*
X6858000D01*
X6985000Y762000D01*
G01Y4254500D02*
X6731000D01*
X6096000Y3619500D01*
G01X6113000Y5185000D02*
X6906240D01*
X6928240Y5207000D01*
X7048500D01*
G01X6985000Y762000D02*
X7283000Y1060000D01*
Y2667000D01*
X6986000Y2964000D01*
G01X8001000Y889000D02*
Y865430D01*
X7910670Y775100D01*
X7733900D01*
X7493000Y1016000D01*
X6985000D01*
G01X7048500Y5461000D02*
X7175500Y5334000D01*
Y5143500D01*
X6702860Y4670860D01*
Y4600140D01*
X6921500Y4381500D01*
X6985000D01*
G01X7048500Y5207000D02*
X6794500Y5461000D01*
Y6121400D01*
X7023100Y6350000D01*
X7048500D01*
G01Y5461000D02*
X7656000D01*
X7956000Y5161000D01*
G01X8001000Y889000D02*
Y1651000D01*
X7725000Y1927000D01*
Y2794000D01*
X7956000Y3025000D01*
G01X9144000Y4191000D02*
Y2476500D01*
G54D16*
X825500Y825500D03*
D03*
Y1841500D03*
D03*
X875000Y3270000D03*
D03*
Y4286000D03*
D03*
X1587500Y825500D03*
D03*
Y1841500D03*
D03*
X1663000Y3294000D03*
D03*
Y4310000D03*
D03*
X1714500Y5207000D03*
D03*
Y6223000D03*
D03*
X3931000Y5222000D03*
D03*
Y6238000D03*
D03*
X5207000Y1016000D03*
D03*
Y762000D03*
D03*
Y1968500D03*
D03*
Y2984500D03*
D03*
Y3556000D03*
D03*
Y4572000D03*
D03*
Y5334000D03*
D03*
Y5588000D03*
D03*
X6089000Y1948000D03*
D03*
Y2964000D03*
D03*
X6096000Y3619500D03*
D03*
X6113000Y5185000D03*
D03*
X6096000Y4635500D03*
D03*
X6113000Y6201000D03*
D03*
X6985000Y1016000D03*
D03*
Y762000D03*
D03*
X6986000Y1948000D03*
D03*
Y2964000D03*
D03*
X7048500Y5207000D03*
D03*
Y5461000D03*
D03*
X7956000Y2009000D03*
D03*
Y3025000D03*
D03*
Y5161000D03*
D03*
Y6177000D03*
D03*
G54D26*
G01X2728470Y1204470D02*
X2641850Y1262130D01*
G01D02*
X2540000Y1282450D01*
G01D02*
X2438150Y1262130D01*
G01D02*
X2351530Y1204470D01*
G01D02*
X2293870Y1117850D01*
G01D02*
X2273550Y1016000D01*
G01D02*
X2293870Y914150D01*
G01D02*
X2351530Y827530D01*
G01D02*
X2438150Y769870D01*
G01D02*
X2540000Y749550D01*
G01D02*
X2641850Y769870D01*
G01D02*
X2728470Y827530D01*
G01X2293870Y5994150D02*
X2351530Y5907530D01*
G01D02*
X2438150Y5849870D01*
G01D02*
X2540000Y5829550D01*
G01D02*
X2641850Y5849870D01*
G01D02*
X2728470Y5907530D01*
G01Y6284470D02*
X2641850Y6342130D01*
G01D02*
X2540000Y6362450D01*
G01D02*
X2438150Y6342130D01*
G01D02*
X2351530Y6284470D01*
G01D02*
X2293870Y6197850D01*
G01D02*
X2273550Y6096000D01*
G01D02*
X2293870Y5994150D01*
G01X2728470Y827530D02*
Y1204470D01*
G01Y827530D02*
X2730500Y829560D01*
G01X2728470Y5907530D02*
Y6284470D01*
G01Y5907530D02*
X2730500Y5909560D01*
G01X6057650Y642870D02*
X6159500Y622550D01*
G01D02*
X6261350Y642870D01*
G01X6347970Y1077470D02*
X5971030D01*
G01D02*
X5913370Y990850D01*
G01D02*
X5893050Y889000D01*
G01D02*
X5913370Y787150D01*
G01D02*
X5971030Y700530D01*
G01D02*
X6057650Y642870D01*
G01X6261350D02*
X6347970Y700530D01*
G01D02*
X6405630Y787150D01*
G01D02*
X6425950Y889000D01*
G01D02*
X6405630Y990850D01*
G01D02*
X6347970Y1077470D01*
G01D02*
X6345940Y1079500D01*
G01X6796530Y4569970D02*
Y4193030D01*
G01D02*
X6883150Y4135370D01*
G01D02*
X6985000Y4115050D01*
G01D02*
X7086850Y4135370D01*
G01D02*
X7173470Y4193030D01*
G01D02*
X7231130Y4279650D01*
G01D02*
X7251450Y4381500D01*
G01D02*
X7231130Y4483350D01*
G01D02*
X7173470Y4569970D01*
G01D02*
X7086850Y4627630D01*
G01D02*
X6985000Y4647950D01*
G01D02*
X6883150Y4627630D01*
G01D02*
X6796530Y4569970D01*
G01D02*
X6794500Y4567940D01*
G01X6946650Y5976870D02*
X7048500Y5956550D01*
G01D02*
X7150350Y5976870D01*
G01X7236970Y6034530D02*
Y6411470D01*
G01D02*
X7150350Y6469130D01*
G01D02*
X7048500Y6489450D01*
G01D02*
X6946650Y6469130D01*
G01D02*
X6860030Y6411470D01*
G01D02*
X6802370Y6324850D01*
G01D02*
X6782050Y6223000D01*
G01D02*
X6802370Y6121150D01*
G01D02*
X6860030Y6034530D01*
G01D02*
X6946650Y5976870D01*
G01X7150350D02*
X7236970Y6034530D01*
G01D02*
X7239000Y6036560D01*
G01X7899150Y642870D02*
X8001000Y622550D01*
G01D02*
X8102850Y642870D01*
G01X8189470Y1077470D02*
X7812530D01*
G01D02*
X7754870Y990850D01*
G01D02*
X7734550Y889000D01*
G01D02*
X7754870Y787150D01*
G01D02*
X7812530Y700530D01*
G01D02*
X7899150Y642870D01*
G01X8102850D02*
X8189470Y700530D01*
G01D02*
X8247130Y787150D01*
G01D02*
X8267450Y889000D01*
G01D02*
X8247130Y990850D01*
G01D02*
X8189470Y1077470D01*
G01D02*
X8187440Y1079500D01*
G01X8851900Y3911600D02*
X9423400D01*
G01D02*
Y4978400D01*
G01X8851900D02*
Y3911600D01*
G01X8991600D02*
Y4978400D01*
G01X9423400D02*
X8851900D01*
G54D17*
X889000Y5232400D03*
D03*
X2667000Y2286000D03*
D03*
X2413000D03*
D03*
X2667000Y3937000D03*
D03*
X2413000D03*
D03*
X3846000Y1847600D03*
D03*
X3543000Y2873000D03*
D03*
Y3127000D03*
D03*
Y3381000D03*
D03*
Y3635000D03*
D03*
Y3889000D03*
D03*
Y4143000D03*
D03*
X4305000Y2873000D03*
D03*
Y3127000D03*
D03*
Y3381000D03*
D03*
Y3635000D03*
D03*
Y3889000D03*
D03*
Y4143000D03*
D03*
Y4397000D03*
D03*
X8001000Y4254500D03*
D03*
Y4508500D03*
D03*
X9144000Y2222500D03*
D03*
Y2476500D03*
D03*
G54D27*
G01X875000Y3270000D02*
Y2036260D01*
X825500Y1986760D01*
Y1841500D01*
G01X1587500D02*
X825500D01*
G01X875000Y3270000D02*
X1493740D01*
X1517740Y3294000D01*
X1663000D01*
G01X2540000Y5969000D02*
X1841500D01*
X1104900Y5232400D01*
X889000D01*
G01X3543000Y3381000D02*
X1895260D01*
X1808260Y3294000D01*
X1663000D01*
G01X2540000Y889000D02*
X2481080D01*
X2293210Y1076870D01*
Y1277210D01*
X2921000Y1905000D01*
Y4572000D01*
X2540000Y4953000D01*
Y5969000D01*
G01Y889000D02*
X2565400D01*
X2660540Y793860D01*
Y768460D01*
X2921000Y508000D01*
X5676900D01*
X6032500Y863600D01*
Y889000D01*
G01X9144000Y4445000D02*
X7434080Y6154920D01*
X7429500D01*
X7120920Y6463500D01*
X6844500D01*
X6350000Y5969000D01*
X2540000D01*
G01X3543000Y2873000D02*
Y2150600D01*
X3846000Y1847600D01*
G01X9144000Y2222500D02*
X8445500Y1524000D01*
X6032500D01*
X5214210Y2342290D01*
X5072790D01*
X4578100Y1847600D01*
X3846000D01*
G01X6985000Y4508500D02*
X6506900D01*
X3846000Y1847600D01*
G01X3543000Y3381000D02*
X3681900Y3519900D01*
Y3773900D01*
X4305000Y4397000D01*
G01X3931000Y6238000D02*
X4305000Y5864000D01*
Y4397000D01*
G01X6113000Y6201000D02*
X4113260D01*
X4076260Y6238000D01*
X3931000D01*
G01X5207000Y4572000D02*
X4480000D01*
X4305000Y4397000D01*
G01X5207000Y4572000D02*
X5887240D01*
X5950740Y4635500D01*
X6096000D01*
G01X6089000Y1948000D02*
X6986000D01*
G01X7980000Y4264000D02*
X6089000Y2373000D01*
Y1948000D01*
G01D02*
X5905500Y2131500D01*
Y2476500D01*
X6413500Y2984500D01*
Y4318000D01*
X6096000Y4635500D01*
G01X7956000Y6177000D02*
X7465500Y6667500D01*
X6794500D01*
X6328000Y6201000D01*
X6113000D01*
G01X6986000Y1948000D02*
X7749740D01*
X7810740Y2009000D01*
X7956000D01*
G01X6985000Y4508500D02*
X7831600D01*
X7841100Y4518000D01*
X7980000D01*
G01X6985000Y4508500D02*
X7010400D01*
X7105540Y4603640D01*
Y4629040D01*
X7302500Y4826000D01*
Y5651500D01*
X7048500Y5905500D01*
Y6096000D01*
G01X7956000Y2009000D02*
X8572500Y2625500D01*
Y3683000D01*
X8001000Y4254500D01*
G01Y4508500D02*
X8922540D01*
X8986040Y4445000D01*
X9144000D01*
G01Y4699000D02*
Y4989000D01*
X7956000Y6177000D01*
G01X9144000Y2222500D02*
Y1905000D01*
X8248540Y1009540D01*
X8223140D01*
X8128000Y914400D01*
Y889000D01*
G01X9144000Y2222500D02*
X9301950Y2380450D01*
Y4312230D01*
X9169180Y4445000D01*
X9144000D01*
G54D18*
X889000Y6223000D03*
D03*
X3846000Y857000D03*
D03*
X3543000Y4397000D03*
D03*
G54D28*
G01X-1453000Y-5620000D02*
Y-525000D01*
X11145400D01*
Y-5620000D01*
X-1453000D01*
G01Y-4985000D02*
X11145400D01*
G01X-1453000Y-4350000D02*
X11145400D01*
G01X-1453000Y-3715000D02*
X11145400D01*
G01X-1453000Y-2445000D02*
X11145400D01*
G01X-1453000Y-3080000D02*
X11145400D01*
G01X-1173480Y-2286250D02*
Y-1968750D01*
X-1023860D01*
G01X-1078990Y-2122200D02*
X-1173480D01*
G01X-830950Y-1968750D02*
X-736470D01*
G01X-783710D02*
Y-2286250D01*
G01X-830950D02*
X-736470D01*
G01X-445130Y-2127500D02*
X-366380D01*
Y-2222750D01*
X-390010Y-2254510D01*
X-417570Y-2275670D01*
X-456940Y-2286250D01*
X-496310Y-2275670D01*
X-523870Y-2254510D01*
X-547490Y-2222750D01*
X-563240Y-2185710D01*
X-571120Y-2143380D01*
Y-2106330D01*
X-563240Y-2074590D01*
X-547490Y-2037540D01*
X-523870Y-2005790D01*
X-500250Y-1984630D01*
X-468750Y-1968750D01*
X-441190D01*
X-409700Y-1979330D01*
X-386070Y-2000500D01*
G01X-240400Y-1968750D02*
Y-2196290D01*
X-224660Y-2243930D01*
X-193160Y-2275670D01*
X-153790Y-2286250D01*
X-114420Y-2275670D01*
X-82920Y-2243930D01*
X-67180Y-2196290D01*
Y-1968750D01*
G01X82430Y-2286250D02*
Y-1968750D01*
X180850D01*
X212350Y-1984630D01*
X232040Y-2005790D01*
X239910Y-2048130D01*
X232040Y-2090460D01*
X208410Y-2116910D01*
X180850Y-2132800D01*
X82430D01*
G01X180850D02*
X239910Y-2286250D01*
G01X554870D02*
X397390D01*
Y-1968750D01*
X554870D01*
G01X491880Y-2122200D02*
X397390D01*
G01X-1453000Y-1810000D02*
X11145400D01*
G01X-1453000Y-1175000D02*
X11145400D01*
G01X2431870Y0D02*
X-1412000D01*
G01X-1162000Y3730000D02*
Y0D01*
G01X-1224500Y400000D02*
X-1162000Y0D01*
X-1099500Y400000D01*
X-1224500D01*
G01X-1257250Y3630010D02*
X-1298520Y3634750D01*
X-1333450Y3641860D01*
X-1365200Y3651340D01*
X-1400120Y3663200D01*
X-1447750Y3682160D01*
Y3587340D01*
G01Y3825250D02*
X-1441400Y3806280D01*
X-1425520Y3792060D01*
X-1406480Y3782580D01*
X-1381070Y3775470D01*
X-1352500Y3773100D01*
X-1323920Y3775470D01*
X-1298520Y3782580D01*
X-1279470Y3792060D01*
X-1263600Y3806280D01*
X-1257250Y3825250D01*
X-1263600Y3844210D01*
X-1279470Y3858440D01*
X-1298520Y3867920D01*
X-1323920Y3875030D01*
X-1352500Y3877400D01*
X-1381070Y3875030D01*
X-1406480Y3867920D01*
X-1425520Y3858440D01*
X-1441400Y3844210D01*
X-1447750Y3825250D01*
G01X-1162000Y3730000D02*
Y7000000D01*
G01X-1099500Y6600000D02*
X-1162000Y7000000D01*
X-1224500Y6600000D01*
X-1099500D01*
G01X2056010Y7000000D02*
X-1412000D01*
G01X10000000Y0D02*
Y7000000D01*
X0D01*
Y0D01*
X10000000D01*
G01X508000Y1095590D02*
X317500D01*
Y1154850D01*
X327030Y1173820D01*
X339730Y1185670D01*
X365130Y1190410D01*
X390530Y1185670D01*
X406400Y1171450D01*
X415930Y1154850D01*
Y1095590D01*
G01Y1154850D02*
X508000Y1190410D01*
G01Y1333500D02*
X317500D01*
X355600Y1305050D01*
G01X508000D02*
Y1361940D01*
G01X469900Y1471850D02*
X492130Y1486070D01*
X504830Y1505030D01*
X508000Y1526370D01*
X504830Y1545340D01*
X488950Y1564300D01*
X469900Y1576150D01*
X450850Y1578520D01*
X428630Y1573780D01*
X412750Y1557190D01*
X406400Y1540590D01*
Y1519260D01*
G01Y1540590D02*
X396880Y1554820D01*
X381000Y1566670D01*
X361950Y1571410D01*
X342900Y1566670D01*
X327030Y1554820D01*
X317500Y1533480D01*
X320670Y1512150D01*
X333380Y1490810D01*
G01X571500Y3667340D02*
X381000D01*
Y3726600D01*
X390530Y3745570D01*
X403230Y3757420D01*
X428630Y3762160D01*
X454030Y3757420D01*
X469900Y3743200D01*
X479430Y3726600D01*
Y3667340D01*
G01Y3726600D02*
X571500Y3762160D01*
G01Y3900510D02*
X530230Y3905250D01*
X495300Y3912360D01*
X463550Y3921840D01*
X428630Y3933700D01*
X381000Y3952660D01*
Y3857840D01*
G01X0Y5350460D02*
Y8976000D01*
G01X444500Y5670470D02*
X254000D01*
Y5717880D01*
X263530Y5736840D01*
X276230Y5751070D01*
X295270Y5762920D01*
X317500Y5772400D01*
X349250Y5774770D01*
X381000Y5772400D01*
X403230Y5762920D01*
X422280Y5751070D01*
X434980Y5736840D01*
X444500Y5717880D01*
Y5670470D01*
G01X406400Y5860970D02*
X428630Y5875190D01*
X441330Y5894150D01*
X444500Y5915490D01*
X441330Y5934460D01*
X425450Y5953420D01*
X406400Y5965270D01*
X387350Y5967640D01*
X365130Y5962900D01*
X349250Y5946310D01*
X342900Y5929710D01*
Y5908380D01*
G01Y5929710D02*
X333380Y5943940D01*
X317500Y5955790D01*
X298450Y5960530D01*
X279400Y5955790D01*
X263530Y5943940D01*
X254000Y5922600D01*
X257170Y5901270D01*
X269880Y5879930D01*
G01X5010000Y8726000D02*
X0D01*
G01X400000Y8788500D02*
X0Y8726000D01*
X400000Y8663500D01*
Y8788500D01*
G01X830460Y-1810000D02*
Y-5620000D01*
G01X495810Y-1651250D02*
X594240Y-1333750D01*
X692670Y-1651250D01*
G01X657230Y-1540130D02*
X531240D01*
G01X830460Y-1333750D02*
Y-1651250D01*
X987940D01*
G01X1145420Y-1333750D02*
Y-1651250D01*
X1302900D01*
G01X1767470Y-1333750D02*
Y-1561290D01*
X1783210Y-1608930D01*
X1814710Y-1640670D01*
X1854080Y-1651250D01*
X1893450Y-1640670D01*
X1924950Y-1608930D01*
X1940690Y-1561290D01*
Y-1333750D01*
G01X2078490Y-1651250D02*
Y-1333750D01*
X2259590Y-1651250D01*
Y-1333750D01*
G01X2436760D02*
X2531240D01*
G01X2484000D02*
Y-1651250D01*
G01X2436760D02*
X2531240D01*
G01X2798960Y-1333750D02*
Y-1651250D01*
G01X2708410Y-1333750D02*
X2889510D01*
G01X3031240Y-1608930D02*
X3062740Y-1635380D01*
X3098170Y-1651250D01*
X3129670D01*
X3161160Y-1635380D01*
X3184790Y-1608930D01*
X3196600Y-1571870D01*
X3188730Y-1534840D01*
X3169040Y-1503090D01*
X3133600Y-1481910D01*
X3086360Y-1471330D01*
X3058800Y-1450170D01*
X3046990Y-1413130D01*
X3054870Y-1376080D01*
X3074550Y-1349630D01*
X3102110Y-1333750D01*
X3129670D01*
X3157230Y-1344330D01*
X3180850Y-1370790D01*
G01X3645410Y-1651250D02*
X3743840Y-1333750D01*
X3842270Y-1651250D01*
G01X3806830Y-1540130D02*
X3680840D01*
G01X3980060Y-1651250D02*
Y-1333750D01*
X4078480D01*
X4109980Y-1349630D01*
X4129670Y-1370790D01*
X4137540Y-1413130D01*
X4129670Y-1455460D01*
X4106040Y-1481910D01*
X4078480Y-1497800D01*
X3980060D01*
G01X4078480D02*
X4137540Y-1651250D01*
G01X4452500D02*
X4295020D01*
Y-1333750D01*
X4452500D01*
G01X4389510Y-1487200D02*
X4295020D01*
G01X4956440Y-1333750D02*
X5050920D01*
G01X5003680D02*
Y-1651250D01*
G01X4956440D02*
X5050920D01*
G01X5228090D02*
Y-1333750D01*
X5409190Y-1651250D01*
Y-1333750D01*
G01X5846190Y-1651250D02*
Y-1333750D01*
X5948560Y-1598330D01*
X6050930Y-1333750D01*
Y-1651250D01*
G01X6216280Y-1333750D02*
X6310760D01*
G01X6263520D02*
Y-1651250D01*
G01X6216280D02*
X6310760D01*
G01X6499740Y-1333750D02*
Y-1651250D01*
X6657220D01*
G01X6814700Y-1333750D02*
Y-1651250D01*
X6972180D01*
G01X7161160Y-1333750D02*
X7255640D01*
G01X7208400D02*
Y-1651250D01*
G01X7161160D02*
X7255640D01*
G01X7420990D02*
Y-1333750D01*
X7523360Y-1598330D01*
X7625730Y-1333750D01*
Y-1651250D01*
G01X7917060D02*
X7759580D01*
Y-1333750D01*
X7917060D01*
G01X7854070Y-1487200D02*
X7759580D01*
G01X8153280Y-1333750D02*
Y-1651250D01*
G01X8062730Y-1333750D02*
X8243830D01*
G01X8546980Y-1651250D02*
X8389500D01*
Y-1333750D01*
X8546980D01*
G01X8483990Y-1487200D02*
X8389500D01*
G01X8704460Y-1651250D02*
Y-1333750D01*
X8802880D01*
X8834380Y-1349630D01*
X8854070Y-1370790D01*
X8861940Y-1413130D01*
X8854070Y-1455460D01*
X8830440Y-1481910D01*
X8802880Y-1497800D01*
X8704460D01*
G01X8802880D02*
X8861940Y-1651250D01*
G01X9015480Y-1608930D02*
X9046980Y-1635380D01*
X9082410Y-1651250D01*
X9113910D01*
X9145400Y-1635380D01*
X9169030Y-1608930D01*
X9180840Y-1571870D01*
X9172970Y-1534840D01*
X9153280Y-1503090D01*
X9117840Y-1481910D01*
X9070600Y-1471330D01*
X9043040Y-1450170D01*
X9031230Y-1413130D01*
X9039110Y-1376080D01*
X9058790Y-1349630D01*
X9086350Y-1333750D01*
X9113910D01*
X9141470Y-1344330D01*
X9165090Y-1370790D01*
G01X822590Y-1001250D02*
Y-683750D01*
X901320D01*
X932820Y-699630D01*
X956440Y-720790D01*
X976130Y-752540D01*
X991880Y-789590D01*
X995810Y-842500D01*
X991880Y-895420D01*
X976130Y-932460D01*
X956440Y-964220D01*
X932820Y-985380D01*
X901320Y-1001250D01*
X822590D01*
G01X1145420D02*
Y-683750D01*
X1243840D01*
X1275340Y-699630D01*
X1295030Y-720790D01*
X1302900Y-763130D01*
X1295030Y-805460D01*
X1271400Y-831910D01*
X1243840Y-847800D01*
X1145420D01*
G01X1243840D02*
X1302900Y-1001250D01*
G01X1491880Y-683750D02*
X1586360D01*
G01X1539120D02*
Y-1001250D01*
G01X1491880D02*
X1586360D01*
G01X1775340Y-683750D02*
Y-1001250D01*
X1932820D01*
G01X2090300Y-683750D02*
Y-1001250D01*
X2247780D01*
G01X2885570Y-710210D02*
X2861950Y-694330D01*
X2834400Y-683750D01*
X2802900D01*
X2767460Y-699630D01*
X2739910Y-726080D01*
X2720220Y-757840D01*
X2704470Y-810750D01*
X2700530Y-858380D01*
X2708410Y-906000D01*
X2720220Y-937750D01*
X2743840Y-969510D01*
X2771400Y-990670D01*
X2798960Y-1001250D01*
X2826520D01*
X2854080Y-990670D01*
X2877700Y-974800D01*
X2897390Y-953640D01*
G01X3031240Y-1001250D02*
Y-683750D01*
G01X3196600D02*
Y-1001250D01*
G01Y-842500D02*
X3031240D01*
G01X3330450Y-1001250D02*
X3428880Y-683750D01*
X3527310Y-1001250D01*
G01X3491870Y-890130D02*
X3365880D01*
G01X3665100Y-1001250D02*
Y-683750D01*
X3763520D01*
X3795020Y-699630D01*
X3814710Y-720790D01*
X3822580Y-763130D01*
X3814710Y-805460D01*
X3791080Y-831910D01*
X3763520Y-847800D01*
X3665100D01*
G01X3763520D02*
X3822580Y-1001250D01*
G01X4058800Y-683750D02*
Y-1001250D01*
G01X3968250Y-683750D02*
X4149350D01*
G01X4373760Y-1011830D02*
X4365880Y-1006540D01*
Y-995960D01*
X4373760Y-990670D01*
X4381640Y-995960D01*
Y-1006540D01*
X4373760Y-1011830D01*
G01Y-868970D02*
X4365880Y-863670D01*
Y-853090D01*
X4373760Y-847800D01*
X4381640Y-853090D01*
Y-863670D01*
X4373760Y-868970D01*
G01X5003680Y-683750D02*
Y-1001250D01*
G01X4913130Y-683750D02*
X5094230D01*
G01X5318640Y-1001250D02*
X5287140Y-995960D01*
X5259590Y-974800D01*
X5235960Y-943040D01*
X5220210Y-906000D01*
X5212340Y-863670D01*
Y-821330D01*
X5220210Y-779000D01*
X5235960Y-741960D01*
X5259590Y-710210D01*
X5287140Y-689040D01*
X5318640Y-683750D01*
X5350130Y-689040D01*
X5377690Y-710210D01*
X5401320Y-741960D01*
X5417070Y-779000D01*
X5424940Y-821330D01*
Y-863670D01*
X5417070Y-906000D01*
X5401320Y-943040D01*
X5377690Y-974800D01*
X5350130Y-995960D01*
X5318640Y-1001250D01*
G01X5554860D02*
Y-683750D01*
X5649350D01*
X5680840Y-699630D01*
X5704470Y-736670D01*
X5712340Y-779000D01*
X5704470Y-821330D01*
X5684780Y-853090D01*
X5649350Y-868970D01*
X5554860D01*
G01X6263520Y-683750D02*
Y-1001250D01*
G01X6208400Y-789590D02*
X6318640D01*
G01X6578480Y-1001250D02*
X6554860Y-995960D01*
X6531240Y-974800D01*
X6515480Y-937750D01*
X6507610Y-895420D01*
X6515480Y-853090D01*
X6531240Y-816040D01*
X6554860Y-794880D01*
X6578480Y-789590D01*
X6602100Y-794880D01*
X6625720Y-816040D01*
X6641470Y-853090D01*
X6645410Y-895420D01*
X6641470Y-937750D01*
X6625720Y-974800D01*
X6602100Y-995960D01*
X6578480Y-1001250D01*
G01X7239890Y-831910D02*
X7255640Y-816040D01*
X7267450Y-789590D01*
X7275330Y-752540D01*
X7267450Y-720790D01*
X7251710Y-699630D01*
X7224150Y-683750D01*
X7117850D01*
Y-1001250D01*
X7247770D01*
X7275330Y-980090D01*
X7291080Y-948330D01*
X7298950Y-911290D01*
X7291080Y-874260D01*
X7267450Y-842500D01*
X7239890Y-831910D01*
X7117850D01*
G01X7523360Y-1001250D02*
X7491860Y-995960D01*
X7464310Y-974800D01*
X7440680Y-943040D01*
X7424930Y-906000D01*
X7417060Y-863670D01*
Y-821330D01*
X7424930Y-779000D01*
X7440680Y-741960D01*
X7464310Y-710210D01*
X7491860Y-689040D01*
X7523360Y-683750D01*
X7554850Y-689040D01*
X7582410Y-710210D01*
X7606040Y-741960D01*
X7621790Y-779000D01*
X7629660Y-821330D01*
Y-863670D01*
X7621790Y-906000D01*
X7606040Y-943040D01*
X7582410Y-974800D01*
X7554850Y-995960D01*
X7523360Y-1001250D01*
G01X7838320Y-683750D02*
Y-1001250D01*
G01X7747770Y-683750D02*
X7928870D01*
G01X8153280D02*
Y-1001250D01*
G01X8062730Y-683750D02*
X8243830D01*
G01X8468240Y-1001250D02*
X8436740Y-995960D01*
X8409190Y-974800D01*
X8385560Y-943040D01*
X8369810Y-906000D01*
X8361940Y-863670D01*
Y-821330D01*
X8369810Y-779000D01*
X8385560Y-741960D01*
X8409190Y-710210D01*
X8436740Y-689040D01*
X8468240Y-683750D01*
X8499730Y-689040D01*
X8527290Y-710210D01*
X8550920Y-741960D01*
X8566670Y-779000D01*
X8574540Y-821330D01*
Y-863670D01*
X8566670Y-906000D01*
X8550920Y-943040D01*
X8527290Y-974800D01*
X8499730Y-995960D01*
X8468240Y-1001250D01*
G01X8680830D02*
Y-683750D01*
X8783200Y-948330D01*
X8885570Y-683750D01*
Y-1001250D01*
G01X698500Y977900D02*
Y1689100D01*
X952500D01*
Y977900D01*
X698500D01*
G01X1333500Y1127340D02*
X1143000D01*
Y1186600D01*
X1152530Y1205570D01*
X1165230Y1217420D01*
X1190630Y1222160D01*
X1216030Y1217420D01*
X1231900Y1203200D01*
X1241430Y1186600D01*
Y1127340D01*
G01Y1186600D02*
X1333500Y1222160D01*
G01X1254130Y1320210D02*
X1231900Y1336800D01*
X1219200Y1351030D01*
X1212850Y1369990D01*
X1219200Y1386590D01*
X1231900Y1398440D01*
X1250950Y1407920D01*
X1273180Y1410290D01*
X1292230Y1407920D01*
X1311280Y1398440D01*
X1327150Y1384210D01*
X1333500Y1367620D01*
X1327150Y1348660D01*
X1308110Y1332060D01*
X1279520Y1322580D01*
X1247780Y1320210D01*
X1206500Y1324950D01*
X1184270Y1332060D01*
X1162050Y1343910D01*
X1146170Y1360510D01*
X1143000Y1377100D01*
X1149350Y1393700D01*
X1165230Y1405550D01*
G01X748000Y3422400D02*
Y4133600D01*
X1002000D01*
Y3422400D01*
X748000D01*
G01X1016000Y5969000D02*
Y5486400D01*
X762000D01*
Y5969000D01*
X1016000D01*
G01Y5880100D02*
X762000D01*
G01X1016000Y5892800D02*
X762000D01*
G01X1424940Y-2286250D02*
Y-1968750D01*
X1574560D01*
G01X1519430Y-2122200D02*
X1424940D01*
G01X1767470Y-1968750D02*
X1861950D01*
G01X1814710D02*
Y-2286250D01*
G01X1767470D02*
X1861950D01*
G01X2039120D02*
Y-1968750D01*
X2220220Y-2286250D01*
Y-1968750D01*
G01X2397390D02*
X2491870D01*
G01X2444630D02*
Y-2286250D01*
G01X2397390D02*
X2491870D01*
G01X2676910Y-2243930D02*
X2708410Y-2270380D01*
X2743840Y-2286250D01*
X2775340D01*
X2806830Y-2270380D01*
X2830460Y-2243930D01*
X2842270Y-2206870D01*
X2834400Y-2169840D01*
X2814710Y-2138090D01*
X2779270Y-2116910D01*
X2732030Y-2106330D01*
X2704470Y-2085170D01*
X2692660Y-2048130D01*
X2700540Y-2011080D01*
X2720220Y-1984630D01*
X2747780Y-1968750D01*
X2775340D01*
X2802900Y-1979330D01*
X2826520Y-2005790D01*
G01X2991870Y-2286250D02*
Y-1968750D01*
G01X3157230D02*
Y-2286250D01*
G01Y-2127500D02*
X2991870D01*
G01X3468250Y-2286250D02*
X3310770D01*
Y-1968750D01*
X3468250D01*
G01X3405260Y-2122200D02*
X3310770D01*
G01X3617860Y-2286250D02*
Y-1968750D01*
X3696590D01*
X3728090Y-1984630D01*
X3751710Y-2005790D01*
X3771400Y-2037540D01*
X3787150Y-2074590D01*
X3791080Y-2127500D01*
X3787150Y-2180420D01*
X3771400Y-2217460D01*
X3751710Y-2249220D01*
X3728090Y-2270380D01*
X3696590Y-2286250D01*
X3617860D01*
G01X3901320Y-2392080D02*
X4137540D01*
G01X4251710Y-2243930D02*
X4283210Y-2270380D01*
X4318640Y-2286250D01*
X4350140D01*
X4381630Y-2270380D01*
X4405260Y-2243930D01*
X4417070Y-2206870D01*
X4409200Y-2169840D01*
X4389510Y-2138090D01*
X4354070Y-2116910D01*
X4306830Y-2106330D01*
X4279270Y-2085170D01*
X4267460Y-2048130D01*
X4275340Y-2011080D01*
X4295020Y-1984630D01*
X4322580Y-1968750D01*
X4350140D01*
X4377700Y-1979330D01*
X4401320Y-2005790D01*
G01X4602110Y-1968750D02*
X4696590D01*
G01X4649350D02*
Y-2286250D01*
G01X4602110D02*
X4696590D01*
G01X4889500Y-1968750D02*
X5039120D01*
X4889500Y-2286250D01*
X5039120D01*
G01X5358010D02*
X5200530D01*
Y-1968750D01*
X5358010D01*
G01X5295020Y-2122200D02*
X5200530D01*
G01X1714500Y1689100D02*
Y977900D01*
X1460500D01*
Y1689100D01*
X1714500D01*
G01X2095500Y2138600D02*
X1905000D01*
Y2186010D01*
X1914530Y2204970D01*
X1927230Y2219200D01*
X1946270Y2231050D01*
X1968500Y2240530D01*
X2000250Y2242900D01*
X2032000Y2240530D01*
X2054230Y2231050D01*
X2073280Y2219200D01*
X2085980Y2204970D01*
X2095500Y2186010D01*
Y2138600D01*
G01X1936750Y2336210D02*
X1917700Y2350430D01*
X1908170Y2367030D01*
X1905000Y2385990D01*
X1911350Y2409700D01*
X1927230Y2426290D01*
X1946270Y2431030D01*
X1965330Y2428660D01*
X1981200Y2419180D01*
X2012950Y2371770D01*
X2035180Y2350430D01*
X2066930Y2336210D01*
X2095500Y2331470D01*
Y2431030D01*
G01X1536000Y3446400D02*
Y4157600D01*
X1790000D01*
Y3446400D01*
X1536000D01*
G01X1397000Y3730840D02*
X1206500D01*
Y3790100D01*
X1216030Y3809070D01*
X1228730Y3820920D01*
X1254130Y3825660D01*
X1279530Y3820920D01*
X1295400Y3806700D01*
X1304930Y3790100D01*
Y3730840D01*
G01Y3790100D02*
X1397000Y3825660D01*
G01X1368430Y3916600D02*
X1384300Y3930820D01*
X1393830Y3947410D01*
X1397000Y3968750D01*
X1390650Y3990090D01*
X1377950Y4006680D01*
X1355730Y4018530D01*
X1330330Y4020900D01*
X1304930Y4016160D01*
X1289050Y4004310D01*
X1276350Y3987710D01*
X1273180Y3971120D01*
X1276350Y3954530D01*
X1289050Y3933190D01*
X1206500Y3940300D01*
Y4004310D01*
G01X2095500Y3853100D02*
X1905000D01*
Y3900510D01*
X1914530Y3919470D01*
X1927230Y3933700D01*
X1946270Y3945550D01*
X1968500Y3955030D01*
X2000250Y3957400D01*
X2032000Y3955030D01*
X2054230Y3945550D01*
X2073280Y3933700D01*
X2085980Y3919470D01*
X2095500Y3900510D01*
Y3853100D01*
G01Y4095750D02*
X1905000D01*
X1943100Y4067300D01*
G01X2095500D02*
Y4124190D01*
G01X1397000Y5635840D02*
X1206500D01*
Y5695100D01*
X1216030Y5714070D01*
X1228730Y5725920D01*
X1254130Y5730660D01*
X1279530Y5725920D01*
X1295400Y5711700D01*
X1304930Y5695100D01*
Y5635840D01*
G01Y5695100D02*
X1397000Y5730660D01*
G01Y5873750D02*
X1393830Y5890340D01*
X1384300Y5909310D01*
X1368430Y5921160D01*
X1346200Y5925900D01*
X1323980Y5921160D01*
X1304930Y5906940D01*
X1295400Y5885600D01*
Y5861900D01*
X1289050Y5847670D01*
X1273180Y5835820D01*
X1250950Y5831080D01*
X1228730Y5838190D01*
X1212850Y5854780D01*
X1206500Y5873750D01*
X1212850Y5892710D01*
X1228730Y5909310D01*
X1250950Y5916420D01*
X1273180Y5911680D01*
X1289050Y5899830D01*
X1295400Y5885600D01*
Y5861900D01*
X1304930Y5840560D01*
X1323980Y5826340D01*
X1346200Y5821600D01*
X1368430Y5826340D01*
X1384300Y5838190D01*
X1393830Y5857160D01*
X1397000Y5873750D01*
G01X1841500Y6070600D02*
Y5359400D01*
X1587500D01*
Y6070600D01*
X1841500D01*
G01X2095500Y6040120D02*
X2092330Y6021150D01*
X2079630Y6004560D01*
X2060580Y5990340D01*
X2038350Y5980850D01*
X2012950Y5976110D01*
X1987550D01*
X1962150Y5980850D01*
X1939920Y5990340D01*
X1920880Y6004560D01*
X1908170Y6021150D01*
X1905000Y6040120D01*
X1908170Y6059080D01*
X1920880Y6075680D01*
X1939920Y6089900D01*
X1962150Y6099390D01*
X1987550Y6104130D01*
X2012950D01*
X2038350Y6099390D01*
X2060580Y6089900D01*
X2079630Y6075680D01*
X2092330Y6059080D01*
X2095500Y6040120D01*
G01X2044700Y6059080D02*
X2095500Y6087530D01*
G01Y6230620D02*
X1905000D01*
X1943100Y6202170D01*
G01X2095500D02*
Y6259060D01*
G01X2602110Y-4826250D02*
Y-4508750D01*
X2554870Y-4572250D01*
G01Y-4826250D02*
X2649350D01*
G01X2917070Y-4836830D02*
X2909190Y-4831540D01*
Y-4820960D01*
X2917070Y-4815670D01*
X2924950Y-4820960D01*
Y-4831540D01*
X2917070Y-4836830D01*
G01X3145420Y-4762750D02*
X3169030Y-4799800D01*
X3200530Y-4820960D01*
X3235970Y-4826250D01*
X3267470Y-4820960D01*
X3298960Y-4794510D01*
X3318640Y-4762750D01*
X3322580Y-4731000D01*
X3314710Y-4693970D01*
X3287150Y-4667500D01*
X3259590Y-4656910D01*
X3224150D01*
G01X3259590D02*
X3283210Y-4641040D01*
X3302900Y-4614590D01*
X3310770Y-4582840D01*
X3302900Y-4551080D01*
X3283210Y-4524630D01*
X3247780Y-4508750D01*
X3212350Y-4514040D01*
X3176910Y-4535210D01*
G01X3539110Y-4826250D02*
X3546990Y-4757460D01*
X3558800Y-4699260D01*
X3574550Y-4646330D01*
X3594230Y-4588130D01*
X3625730Y-4508750D01*
X3468250D01*
G01X3861950Y-4826250D02*
Y-4508750D01*
X3814710Y-4572250D01*
G01Y-4826250D02*
X3909190D01*
G01X4102100Y-4693970D02*
X4129670Y-4656910D01*
X4153290Y-4635750D01*
X4184790Y-4625170D01*
X4212350Y-4635750D01*
X4232030Y-4656910D01*
X4247780Y-4688670D01*
X4251720Y-4725710D01*
X4247780Y-4757460D01*
X4232030Y-4789220D01*
X4208400Y-4815670D01*
X4180850Y-4826250D01*
X4149350Y-4815670D01*
X4121790Y-4783930D01*
X4106040Y-4736290D01*
X4102100Y-4683380D01*
X4109980Y-4614590D01*
X4121790Y-4577540D01*
X4141470Y-4540500D01*
X4169030Y-4514040D01*
X4196590Y-4508750D01*
X4224150Y-4519330D01*
X4243840Y-4545790D01*
G01X2602110Y-4191250D02*
Y-3873750D01*
X2554870Y-3937250D01*
G01Y-4191250D02*
X2649350D01*
G01X2917070Y-4201830D02*
X2909190Y-4196540D01*
Y-4185960D01*
X2917070Y-4180670D01*
X2924950Y-4185960D01*
Y-4196540D01*
X2917070Y-4201830D01*
G01X3232030Y-3873750D02*
X3200530Y-3884330D01*
X3176910Y-3910790D01*
X3161160Y-3942540D01*
X3149350Y-3984880D01*
X3145420Y-4032500D01*
X3149350Y-4080130D01*
X3161160Y-4122460D01*
X3176910Y-4154220D01*
X3200530Y-4180670D01*
X3232030Y-4191250D01*
X3263520Y-4180670D01*
X3287150Y-4154220D01*
X3302900Y-4122460D01*
X3314710Y-4080130D01*
X3318640Y-4032500D01*
X3314710Y-3984880D01*
X3302900Y-3942540D01*
X3287150Y-3910790D01*
X3263520Y-3884330D01*
X3232030Y-3873750D01*
G01X3472180Y-4058970D02*
X3499750Y-4021910D01*
X3523370Y-4000750D01*
X3554870Y-3990170D01*
X3582430Y-4000750D01*
X3602110Y-4021910D01*
X3617860Y-4053670D01*
X3621800Y-4090710D01*
X3617860Y-4122460D01*
X3602110Y-4154220D01*
X3578480Y-4180670D01*
X3550930Y-4191250D01*
X3519430Y-4180670D01*
X3491870Y-4148930D01*
X3476120Y-4101290D01*
X3472180Y-4048380D01*
X3480060Y-3979590D01*
X3491870Y-3942540D01*
X3511550Y-3905500D01*
X3539110Y-3879040D01*
X3566670Y-3873750D01*
X3594230Y-3884330D01*
X3613920Y-3910790D01*
G01X3787140Y-4058970D02*
X3814710Y-4021910D01*
X3838330Y-4000750D01*
X3869830Y-3990170D01*
X3897390Y-4000750D01*
X3917070Y-4021910D01*
X3932820Y-4053670D01*
X3936760Y-4090710D01*
X3932820Y-4122460D01*
X3917070Y-4154220D01*
X3893440Y-4180670D01*
X3865890Y-4191250D01*
X3834390Y-4180670D01*
X3806830Y-4148930D01*
X3791080Y-4101290D01*
X3787140Y-4048380D01*
X3795020Y-3979590D01*
X3806830Y-3942540D01*
X3826510Y-3905500D01*
X3854070Y-3879040D01*
X3881630Y-3873750D01*
X3909190Y-3884330D01*
X3928880Y-3910790D01*
G01X4176910Y-4191250D02*
X4204470Y-4185960D01*
X4235960Y-4170090D01*
X4255650Y-4143640D01*
X4263520Y-4106580D01*
X4255650Y-4069550D01*
X4232030Y-4037800D01*
X4196590Y-4021910D01*
X4157230D01*
X4133600Y-4011330D01*
X4113910Y-3984880D01*
X4106040Y-3947840D01*
X4117860Y-3910790D01*
X4145410Y-3884330D01*
X4176910Y-3873750D01*
X4208400Y-3884330D01*
X4235960Y-3910790D01*
X4247780Y-3947840D01*
X4239900Y-3984880D01*
X4220220Y-4011330D01*
X4196590Y-4021910D01*
X4157230D01*
X4121790Y-4037800D01*
X4098170Y-4069550D01*
X4090300Y-4106580D01*
X4098170Y-4143640D01*
X4117860Y-4170090D01*
X4149350Y-4185960D01*
X4176910Y-4191250D01*
G01X2602110Y-3238750D02*
X2570610Y-3249330D01*
X2546990Y-3275790D01*
X2531240Y-3307540D01*
X2519430Y-3349880D01*
X2515500Y-3397500D01*
X2519430Y-3445130D01*
X2531240Y-3487460D01*
X2546990Y-3519220D01*
X2570610Y-3545670D01*
X2602110Y-3556250D01*
X2633600Y-3545670D01*
X2657230Y-3519220D01*
X2672980Y-3487460D01*
X2684790Y-3445130D01*
X2688720Y-3397500D01*
X2684790Y-3349880D01*
X2672980Y-3307540D01*
X2657230Y-3275790D01*
X2633600Y-3249330D01*
X2602110Y-3238750D01*
G01X2917070Y-3566830D02*
X2909190Y-3561540D01*
Y-3550960D01*
X2917070Y-3545670D01*
X2924950Y-3550960D01*
Y-3561540D01*
X2917070Y-3566830D01*
G01X3165100Y-3519220D02*
X3192660Y-3545670D01*
X3224150Y-3556250D01*
X3255650Y-3545670D01*
X3283210Y-3513930D01*
X3302900Y-3466290D01*
X3310770Y-3418670D01*
Y-3360460D01*
X3302900Y-3312840D01*
X3283210Y-3270500D01*
X3259590Y-3249330D01*
X3232030Y-3238750D01*
X3200530Y-3249330D01*
X3176910Y-3270500D01*
X3161160Y-3302250D01*
X3153290Y-3344590D01*
X3161160Y-3381620D01*
X3180850Y-3418670D01*
X3204470Y-3439840D01*
X3232030Y-3445130D01*
X3263520Y-3434550D01*
X3287150Y-3408090D01*
X3310770Y-3360460D01*
G01X3546990Y-3556250D02*
Y-3238750D01*
X3499750Y-3302250D01*
G01Y-3556250D02*
X3594230D01*
G01X3909190D02*
Y-3238750D01*
X3763520Y-3466290D01*
X3960380D01*
G01X4224150Y-3556250D02*
Y-3238750D01*
X4078480Y-3466290D01*
X4275340D01*
G01X2602110Y-2603750D02*
X2570610Y-2614330D01*
X2546990Y-2640790D01*
X2531240Y-2672540D01*
X2519430Y-2714880D01*
X2515500Y-2762500D01*
X2519430Y-2810130D01*
X2531240Y-2852460D01*
X2546990Y-2884220D01*
X2570610Y-2910670D01*
X2602110Y-2921250D01*
X2633600Y-2910670D01*
X2657230Y-2884220D01*
X2672980Y-2852460D01*
X2684790Y-2810130D01*
X2688720Y-2762500D01*
X2684790Y-2714880D01*
X2672980Y-2672540D01*
X2657230Y-2640790D01*
X2633600Y-2614330D01*
X2602110Y-2603750D01*
G01X2917070Y-2931830D02*
X2909190Y-2926540D01*
Y-2915960D01*
X2917070Y-2910670D01*
X2924950Y-2915960D01*
Y-2926540D01*
X2917070Y-2931830D01*
G01X3224150Y-2921250D02*
X3232030Y-2852460D01*
X3243840Y-2794260D01*
X3259590Y-2741330D01*
X3279270Y-2683130D01*
X3310770Y-2603750D01*
X3153290D01*
G01X3546990Y-2921250D02*
X3574550Y-2915960D01*
X3606040Y-2900090D01*
X3625730Y-2873640D01*
X3633600Y-2836580D01*
X3625730Y-2799550D01*
X3602110Y-2767800D01*
X3566670Y-2751910D01*
X3527310D01*
X3503680Y-2741330D01*
X3483990Y-2714880D01*
X3476120Y-2677840D01*
X3487940Y-2640790D01*
X3515490Y-2614330D01*
X3546990Y-2603750D01*
X3578480Y-2614330D01*
X3606040Y-2640790D01*
X3617860Y-2677840D01*
X3609980Y-2714880D01*
X3590300Y-2741330D01*
X3566670Y-2751910D01*
X3527310D01*
X3491870Y-2767800D01*
X3468250Y-2799550D01*
X3460380Y-2836580D01*
X3468250Y-2873640D01*
X3487940Y-2900090D01*
X3519430Y-2915960D01*
X3546990Y-2921250D01*
G01X3854070D02*
X3861950Y-2852460D01*
X3873760Y-2794260D01*
X3889510Y-2741330D01*
X3909190Y-2683130D01*
X3940690Y-2603750D01*
X3783210D01*
G01X4224150Y-2921250D02*
Y-2603750D01*
X4078480Y-2831290D01*
X4275340D01*
G01X2159000Y960120D02*
X2155830Y941150D01*
X2143130Y924560D01*
X2124080Y910340D01*
X2101850Y900850D01*
X2076450Y896110D01*
X2051050D01*
X2025650Y900850D01*
X2003420Y910340D01*
X1984380Y924560D01*
X1971670Y941150D01*
X1968500Y960120D01*
X1971670Y979080D01*
X1984380Y995680D01*
X2003420Y1009900D01*
X2025650Y1019390D01*
X2051050Y1024130D01*
X2076450D01*
X2101850Y1019390D01*
X2124080Y1009900D01*
X2143130Y995680D01*
X2155830Y979080D01*
X2159000Y960120D01*
G01X2108200Y979080D02*
X2159000Y1007530D01*
G01Y1179070D02*
X1968500D01*
X2105020Y1091350D01*
Y1209890D01*
G01X2794000Y2286000D02*
G03I-254000J0D01*
G01Y3937000D02*
G03I-254000J0D01*
G01X2987940Y-5397750D02*
X3011550Y-5434800D01*
X3043050Y-5455960D01*
X3078490Y-5461250D01*
X3109990Y-5455960D01*
X3141480Y-5429510D01*
X3161160Y-5397750D01*
X3165100Y-5366000D01*
X3157230Y-5328970D01*
X3129670Y-5302500D01*
X3102110Y-5291910D01*
X3066670D01*
G01X3102110D02*
X3125730Y-5276040D01*
X3145420Y-5249590D01*
X3153290Y-5217840D01*
X3145420Y-5186080D01*
X3125730Y-5159630D01*
X3090300Y-5143750D01*
X3054870Y-5149040D01*
X3019430Y-5170210D01*
G01X3389510Y-5471830D02*
X3381630Y-5466540D01*
Y-5455960D01*
X3389510Y-5450670D01*
X3397390Y-5455960D01*
Y-5466540D01*
X3389510Y-5471830D01*
G01X3704470Y-5143750D02*
X3672970Y-5154330D01*
X3649350Y-5180790D01*
X3633600Y-5212540D01*
X3621790Y-5254880D01*
X3617860Y-5302500D01*
X3621790Y-5350130D01*
X3633600Y-5392460D01*
X3649350Y-5424220D01*
X3672970Y-5450670D01*
X3704470Y-5461250D01*
X3735960Y-5450670D01*
X3759590Y-5424220D01*
X3775340Y-5392460D01*
X3787150Y-5350130D01*
X3791080Y-5302500D01*
X3787150Y-5254880D01*
X3775340Y-5212540D01*
X3759590Y-5180790D01*
X3735960Y-5154330D01*
X3704470Y-5143750D01*
G01X3556000Y1288970D02*
X3365500D01*
Y1336380D01*
X3375030Y1355340D01*
X3387730Y1369570D01*
X3406770Y1381420D01*
X3429000Y1390900D01*
X3460750Y1393270D01*
X3492500Y1390900D01*
X3514730Y1381420D01*
X3533780Y1369570D01*
X3546480Y1355340D01*
X3556000Y1336380D01*
Y1288970D01*
G01Y1560070D02*
X3365500D01*
X3502020Y1472350D01*
Y1590890D01*
G01X3048000Y3535600D02*
X3184520D01*
X3213110Y3545080D01*
X3232150Y3564040D01*
X3238500Y3587750D01*
X3232150Y3611460D01*
X3213110Y3630420D01*
X3184520Y3639900D01*
X3048000D01*
G01X3238500Y3778250D02*
X3048000D01*
X3086100Y3749800D01*
G01X3238500D02*
Y3806690D01*
G01X3619500Y5635840D02*
X3429000D01*
Y5695100D01*
X3438530Y5714070D01*
X3451230Y5725920D01*
X3476630Y5730660D01*
X3502030Y5725920D01*
X3517900Y5711700D01*
X3527430Y5695100D01*
Y5635840D01*
G01Y5695100D02*
X3619500Y5730660D01*
G01Y5902200D02*
X3429000D01*
X3565520Y5814480D01*
Y5933020D01*
G01X3719000Y1111000D02*
Y1593600D01*
X3973000D01*
Y1111000D01*
X3719000D01*
G01Y1199900D02*
X3973000D01*
G01X3719000Y1187200D02*
X3973000D01*
G01X3644600Y4587500D02*
Y2682500D01*
X4203400D01*
Y4587500D01*
X4051000D01*
X3987500Y4524000D01*
X3860500D01*
X3797000Y4587500D01*
X3644600D01*
G01X3804000Y5374400D02*
Y6085600D01*
X4058000D01*
Y5374400D01*
X3804000D01*
G01X4714880Y845900D02*
X4705350Y831680D01*
X4699000Y815090D01*
Y796120D01*
X4708530Y774780D01*
X4724400Y758190D01*
X4743450Y746340D01*
X4775200Y736850D01*
X4803780Y734480D01*
X4832350Y739230D01*
X4851400Y746340D01*
X4870450Y760560D01*
X4883150Y777160D01*
X4889500Y793750D01*
Y810340D01*
X4883150Y826940D01*
X4873630Y841160D01*
X4860930Y853020D01*
G01X4889500Y1012700D02*
X4699000D01*
X4835520Y924980D01*
Y1043520D01*
G01X4826000Y2175090D02*
X4635500D01*
Y2234350D01*
X4645030Y2253320D01*
X4657730Y2265170D01*
X4683130Y2269910D01*
X4708530Y2265170D01*
X4724400Y2250950D01*
X4733930Y2234350D01*
Y2175090D01*
G01Y2234350D02*
X4826000Y2269910D01*
G01Y2413000D02*
X4635500D01*
X4673600Y2384550D01*
G01X4826000D02*
Y2441440D01*
G01Y2631950D02*
X4635500D01*
X4772020Y2544230D01*
Y2662770D01*
G01X4826000Y3762590D02*
X4635500D01*
Y3821850D01*
X4645030Y3840820D01*
X4657730Y3852670D01*
X4683130Y3857410D01*
X4708530Y3852670D01*
X4724400Y3838450D01*
X4733930Y3821850D01*
Y3762590D01*
G01Y3821850D02*
X4826000Y3857410D01*
G01Y4000500D02*
X4635500D01*
X4673600Y3972050D01*
G01X4826000D02*
Y4028940D01*
G01X4667250Y4145960D02*
X4648200Y4160180D01*
X4638670Y4176780D01*
X4635500Y4195740D01*
X4641850Y4219450D01*
X4657730Y4236040D01*
X4676770Y4240780D01*
X4695830Y4238410D01*
X4711700Y4228930D01*
X4743450Y4181520D01*
X4765680Y4160180D01*
X4797430Y4145960D01*
X4826000Y4141220D01*
Y4240780D01*
G01X4714880Y5417900D02*
X4705350Y5403680D01*
X4699000Y5387090D01*
Y5368120D01*
X4708530Y5346780D01*
X4724400Y5330190D01*
X4743450Y5318340D01*
X4775200Y5308850D01*
X4803780Y5306480D01*
X4832350Y5311230D01*
X4851400Y5318340D01*
X4870450Y5332560D01*
X4883150Y5349160D01*
X4889500Y5365750D01*
Y5382340D01*
X4883150Y5398940D01*
X4873630Y5413160D01*
X4860930Y5425020D01*
G01X4730750Y5511210D02*
X4711700Y5525430D01*
X4702170Y5542030D01*
X4699000Y5560990D01*
X4705350Y5584700D01*
X4721230Y5601290D01*
X4740270Y5606030D01*
X4759330Y5603660D01*
X4775200Y5594180D01*
X4806950Y5546770D01*
X4829180Y5525430D01*
X4860930Y5511210D01*
X4889500Y5506470D01*
Y5606030D01*
G01X4819500Y8821250D02*
Y9011750D01*
X4791050Y8973650D01*
G01Y8821250D02*
X4847940D01*
G01X5010000Y9011750D02*
X4991030Y9005400D01*
X4976810Y8989520D01*
X4967330Y8970480D01*
X4960220Y8945070D01*
X4957850Y8916500D01*
X4960220Y8887920D01*
X4967330Y8862520D01*
X4976810Y8843470D01*
X4991030Y8827600D01*
X5010000Y8821250D01*
X5028960Y8827600D01*
X5043190Y8843470D01*
X5052670Y8862520D01*
X5059780Y8887920D01*
X5062150Y8916500D01*
X5059780Y8945070D01*
X5052670Y8970480D01*
X5043190Y8989520D01*
X5028960Y9005400D01*
X5010000Y9011750D01*
G01X5200500D02*
X5181530Y9005400D01*
X5167310Y8989520D01*
X5157830Y8970480D01*
X5150720Y8945070D01*
X5148350Y8916500D01*
X5150720Y8887920D01*
X5157830Y8862520D01*
X5167310Y8843470D01*
X5181530Y8827600D01*
X5200500Y8821250D01*
X5219460Y8827600D01*
X5233690Y8843470D01*
X5243170Y8862520D01*
X5250280Y8887920D01*
X5252650Y8916500D01*
X5250280Y8945070D01*
X5243170Y8970480D01*
X5233690Y8989520D01*
X5219460Y9005400D01*
X5200500Y9011750D01*
G01X5080000Y635000D02*
Y1143000D01*
X5334000D01*
Y635000D01*
X5080000D01*
G01X5778500Y769620D02*
X5775330Y750650D01*
X5762630Y734060D01*
X5743580Y719840D01*
X5721350Y710350D01*
X5695950Y705610D01*
X5670550D01*
X5645150Y710350D01*
X5622920Y719840D01*
X5603880Y734060D01*
X5591170Y750650D01*
X5588000Y769620D01*
X5591170Y788580D01*
X5603880Y805180D01*
X5622920Y819400D01*
X5645150Y828890D01*
X5670550Y833630D01*
X5695950D01*
X5721350Y828890D01*
X5743580Y819400D01*
X5762630Y805180D01*
X5775330Y788580D01*
X5778500Y769620D01*
G01X5727700Y788580D02*
X5778500Y817030D01*
G01X5699130Y915080D02*
X5676900Y931670D01*
X5664200Y945900D01*
X5657850Y964860D01*
X5664200Y981460D01*
X5676900Y993310D01*
X5695950Y1002790D01*
X5718180Y1005160D01*
X5737230Y1002790D01*
X5756280Y993310D01*
X5772150Y979080D01*
X5778500Y962490D01*
X5772150Y943530D01*
X5753110Y926930D01*
X5724520Y917450D01*
X5692780Y915080D01*
X5651500Y919820D01*
X5629270Y926930D01*
X5607050Y938780D01*
X5591170Y955380D01*
X5588000Y971970D01*
X5594350Y988570D01*
X5610230Y1000420D01*
G01X5334000Y2832100D02*
Y2120900D01*
X5080000D01*
Y2832100D01*
X5334000D01*
G01X5715000Y2175090D02*
X5524500D01*
Y2234350D01*
X5534030Y2253320D01*
X5546730Y2265170D01*
X5572130Y2269910D01*
X5597530Y2265170D01*
X5613400Y2250950D01*
X5622930Y2234350D01*
Y2175090D01*
G01Y2234350D02*
X5715000Y2269910D01*
G01Y2413000D02*
X5524500D01*
X5562600Y2384550D01*
G01X5715000D02*
Y2441440D01*
G01Y2603500D02*
X5524500D01*
X5562600Y2575050D01*
G01X5715000D02*
Y2631940D01*
G01X5334000Y4419600D02*
Y3708400D01*
X5080000D01*
Y4419600D01*
X5334000D01*
G01X5842000Y3984840D02*
X5651500D01*
Y4044100D01*
X5661030Y4063070D01*
X5673730Y4074920D01*
X5699130Y4079660D01*
X5724530Y4074920D01*
X5740400Y4060700D01*
X5749930Y4044100D01*
Y3984840D01*
G01Y4044100D02*
X5842000Y4079660D01*
G01X5803900Y4170600D02*
X5826130Y4184820D01*
X5838830Y4203780D01*
X5842000Y4225120D01*
X5838830Y4244090D01*
X5822950Y4263050D01*
X5803900Y4274900D01*
X5784850Y4277270D01*
X5762630Y4272530D01*
X5746750Y4255940D01*
X5740400Y4239340D01*
Y4218010D01*
G01Y4239340D02*
X5730880Y4253570D01*
X5715000Y4265420D01*
X5695950Y4270160D01*
X5676900Y4265420D01*
X5661030Y4253570D01*
X5651500Y4232230D01*
X5654670Y4210900D01*
X5667380Y4189560D01*
G01X5334000Y5715000D02*
Y5207000D01*
X5080000D01*
Y5715000D01*
X5334000D01*
G01X5842000Y5572340D02*
X5651500D01*
Y5631600D01*
X5661030Y5650570D01*
X5673730Y5662420D01*
X5699130Y5667160D01*
X5724530Y5662420D01*
X5740400Y5648200D01*
X5749930Y5631600D01*
Y5572340D01*
G01Y5631600D02*
X5842000Y5667160D01*
G01X5683250Y5765210D02*
X5664200Y5779430D01*
X5654670Y5796030D01*
X5651500Y5814990D01*
X5657850Y5838700D01*
X5673730Y5855290D01*
X5692770Y5860030D01*
X5711830Y5857660D01*
X5727700Y5848180D01*
X5759450Y5800770D01*
X5781680Y5779430D01*
X5813430Y5765210D01*
X5842000Y5760470D01*
Y5860030D01*
G01X5010000Y8726000D02*
X10000000D01*
G01X6054860Y-5461250D02*
Y-5143750D01*
X6235960Y-5461250D01*
Y-5143750D01*
G01X6460370Y-5461250D02*
X6428870Y-5455960D01*
X6401320Y-5434800D01*
X6377690Y-5403040D01*
X6361940Y-5366000D01*
X6354070Y-5323670D01*
Y-5281330D01*
X6361940Y-5239000D01*
X6377690Y-5201960D01*
X6401320Y-5170210D01*
X6428870Y-5149040D01*
X6460370Y-5143750D01*
X6491860Y-5149040D01*
X6519420Y-5170210D01*
X6543050Y-5201960D01*
X6558800Y-5239000D01*
X6566670Y-5281330D01*
Y-5323670D01*
X6558800Y-5366000D01*
X6543050Y-5403040D01*
X6519420Y-5434800D01*
X6491860Y-5455960D01*
X6460370Y-5461250D01*
G01X6684780D02*
Y-5143750D01*
X6865880Y-5461250D01*
Y-5143750D01*
G01X7039110Y-5355420D02*
X7141470D01*
G01X7326510Y-5461250D02*
Y-5143750D01*
X7421000D01*
X7452490Y-5159630D01*
X7476120Y-5196670D01*
X7483990Y-5239000D01*
X7476120Y-5281330D01*
X7456430Y-5313090D01*
X7421000Y-5328970D01*
X7326510D01*
G01X7641470Y-5143750D02*
Y-5461250D01*
X7798950D01*
G01X7936740D02*
X8035170Y-5143750D01*
X8133600Y-5461250D01*
G01X8098160Y-5350130D02*
X7972170D01*
G01X8350130Y-5143750D02*
Y-5461250D01*
G01X8259580Y-5143750D02*
X8440680D01*
G01X8743830Y-5461250D02*
X8586350D01*
Y-5143750D01*
X8743830D01*
G01X8680840Y-5297200D02*
X8586350D01*
G01X8893440Y-5461250D02*
Y-5143750D01*
X8972170D01*
X9003670Y-5159630D01*
X9027290Y-5180790D01*
X9046980Y-5212540D01*
X9062730Y-5249590D01*
X9066660Y-5302500D01*
X9062730Y-5355420D01*
X9046980Y-5392460D01*
X9027290Y-5424220D01*
X9003670Y-5445380D01*
X8972170Y-5461250D01*
X8893440D01*
G01X5948560Y-1810000D02*
Y-5620000D01*
G01X5962000Y2100400D02*
Y2811600D01*
X6216000D01*
Y2100400D01*
X5962000D01*
G01X6667500Y2238590D02*
X6477000D01*
Y2297850D01*
X6486530Y2316820D01*
X6499230Y2328670D01*
X6524630Y2333410D01*
X6550030Y2328670D01*
X6565900Y2314450D01*
X6575430Y2297850D01*
Y2238590D01*
G01Y2297850D02*
X6667500Y2333410D01*
G01Y2476500D02*
X6477000D01*
X6515100Y2448050D01*
G01X6667500D02*
Y2504940D01*
G01X6477000Y2667000D02*
X6483350Y2648030D01*
X6499230Y2633810D01*
X6518270Y2624330D01*
X6543680Y2617220D01*
X6572250Y2614850D01*
X6600830Y2617220D01*
X6626230Y2624330D01*
X6645280Y2633810D01*
X6661150Y2648030D01*
X6667500Y2667000D01*
X6661150Y2685960D01*
X6645280Y2700190D01*
X6626230Y2709670D01*
X6600830Y2716780D01*
X6572250Y2719150D01*
X6543680Y2716780D01*
X6518270Y2709670D01*
X6499230Y2700190D01*
X6483350Y2685960D01*
X6477000Y2667000D01*
G01X5969000Y3771900D02*
Y4483100D01*
X6223000D01*
Y3771900D01*
X5969000D01*
G01X6604000Y4262120D02*
X6600830Y4243150D01*
X6588130Y4226560D01*
X6569080Y4212340D01*
X6546850Y4202850D01*
X6521450Y4198110D01*
X6496050D01*
X6470650Y4202850D01*
X6448420Y4212340D01*
X6429380Y4226560D01*
X6416670Y4243150D01*
X6413500Y4262120D01*
X6416670Y4281080D01*
X6429380Y4297680D01*
X6448420Y4311900D01*
X6470650Y4321390D01*
X6496050Y4326130D01*
X6521450D01*
X6546850Y4321390D01*
X6569080Y4311900D01*
X6588130Y4297680D01*
X6600830Y4281080D01*
X6604000Y4262120D01*
G01X6553200Y4281080D02*
X6604000Y4309530D01*
G01X6445250Y4407580D02*
X6426200Y4421800D01*
X6416670Y4438400D01*
X6413500Y4457360D01*
X6419850Y4481070D01*
X6435730Y4497660D01*
X6454770Y4502400D01*
X6473830Y4500030D01*
X6489700Y4490550D01*
X6521450Y4443140D01*
X6543680Y4421800D01*
X6575430Y4407580D01*
X6604000Y4402840D01*
Y4502400D01*
G01X5986000Y5337400D02*
Y6048600D01*
X6240000D01*
Y5337400D01*
X5986000D01*
G01X6667500Y6167120D02*
X6664330Y6148150D01*
X6651630Y6131560D01*
X6632580Y6117340D01*
X6610350Y6107850D01*
X6584950Y6103110D01*
X6559550D01*
X6534150Y6107850D01*
X6511920Y6117340D01*
X6492880Y6131560D01*
X6480170Y6148150D01*
X6477000Y6167120D01*
X6480170Y6186080D01*
X6492880Y6202680D01*
X6511920Y6216900D01*
X6534150Y6226390D01*
X6559550Y6231130D01*
X6584950D01*
X6610350Y6226390D01*
X6632580Y6216900D01*
X6651630Y6202680D01*
X6664330Y6186080D01*
X6667500Y6167120D01*
G01X6616700Y6186080D02*
X6667500Y6214530D01*
G01X6629400Y6305470D02*
X6651630Y6319690D01*
X6664330Y6338650D01*
X6667500Y6359990D01*
X6664330Y6378960D01*
X6648450Y6397920D01*
X6629400Y6409770D01*
X6610350Y6412140D01*
X6588130Y6407400D01*
X6572250Y6390810D01*
X6565900Y6374210D01*
Y6352880D01*
G01Y6374210D02*
X6556380Y6388440D01*
X6540500Y6400290D01*
X6521450Y6405030D01*
X6502400Y6400290D01*
X6486530Y6388440D01*
X6477000Y6367100D01*
X6480170Y6345770D01*
X6492880Y6324430D01*
G01X6696590Y-4826250D02*
Y-4508750D01*
X6791080D01*
X6822570Y-4524630D01*
X6846200Y-4561670D01*
X6854070Y-4604000D01*
X6846200Y-4646330D01*
X6826510Y-4678090D01*
X6791080Y-4693970D01*
X6696590D01*
G01X7011550Y-4508750D02*
Y-4826250D01*
X7169030D01*
G01X7306820D02*
X7405250Y-4508750D01*
X7503680Y-4826250D01*
G01X7468240Y-4715130D02*
X7342250D01*
G01X7720210Y-4508750D02*
Y-4826250D01*
G01X7629660Y-4508750D02*
X7810760D01*
G01X8113910Y-4826250D02*
X7956430D01*
Y-4508750D01*
X8113910D01*
G01X8050920Y-4662200D02*
X7956430D01*
G01X8263520Y-4826250D02*
Y-4508750D01*
X8342250D01*
X8373750Y-4524630D01*
X8397370Y-4545790D01*
X8417060Y-4577540D01*
X8432810Y-4614590D01*
X8436740Y-4667500D01*
X8432810Y-4720420D01*
X8417060Y-4757460D01*
X8397370Y-4789220D01*
X8373750Y-4810380D01*
X8342250Y-4826250D01*
X8263520D01*
G01X6696590Y-4191250D02*
Y-3873750D01*
X6791080D01*
X6822570Y-3889630D01*
X6846200Y-3926670D01*
X6854070Y-3969000D01*
X6846200Y-4011330D01*
X6826510Y-4043090D01*
X6791080Y-4058970D01*
X6696590D01*
G01X7011550Y-3873750D02*
Y-4191250D01*
X7169030D01*
G01X7306820D02*
X7405250Y-3873750D01*
X7503680Y-4191250D01*
G01X7468240Y-4080130D02*
X7342250D01*
G01X7720210Y-3873750D02*
Y-4191250D01*
G01X7629660Y-3873750D02*
X7810760D01*
G01X8113910Y-4191250D02*
X7956430D01*
Y-3873750D01*
X8113910D01*
G01X8050920Y-4027200D02*
X7956430D01*
G01X8263520Y-4191250D02*
Y-3873750D01*
X8342250D01*
X8373750Y-3889630D01*
X8397370Y-3910790D01*
X8417060Y-3942540D01*
X8432810Y-3979590D01*
X8436740Y-4032500D01*
X8432810Y-4085420D01*
X8417060Y-4122460D01*
X8397370Y-4154220D01*
X8373750Y-4175380D01*
X8342250Y-4191250D01*
X8263520D01*
G01X6696590Y-3556250D02*
Y-3238750D01*
X6791080D01*
X6822570Y-3254630D01*
X6846200Y-3291670D01*
X6854070Y-3334000D01*
X6846200Y-3376330D01*
X6826510Y-3408090D01*
X6791080Y-3423970D01*
X6696590D01*
G01X7011550Y-3238750D02*
Y-3556250D01*
X7169030D01*
G01X7306820D02*
X7405250Y-3238750D01*
X7503680Y-3556250D01*
G01X7468240Y-3445130D02*
X7342250D01*
G01X7720210Y-3238750D02*
Y-3556250D01*
G01X7629660Y-3238750D02*
X7810760D01*
G01X8113910Y-3556250D02*
X7956430D01*
Y-3238750D01*
X8113910D01*
G01X8050920Y-3392200D02*
X7956430D01*
G01X8263520Y-3556250D02*
Y-3238750D01*
X8342250D01*
X8373750Y-3254630D01*
X8397370Y-3275790D01*
X8417060Y-3307540D01*
X8432810Y-3344590D01*
X8436740Y-3397500D01*
X8432810Y-3450420D01*
X8417060Y-3487460D01*
X8397370Y-3519220D01*
X8373750Y-3540380D01*
X8342250Y-3556250D01*
X8263520D01*
G01X6696590Y-2921250D02*
Y-2603750D01*
X6791080D01*
X6822570Y-2619630D01*
X6846200Y-2656670D01*
X6854070Y-2699000D01*
X6846200Y-2741330D01*
X6826510Y-2773090D01*
X6791080Y-2788970D01*
X6696590D01*
G01X7011550Y-2603750D02*
Y-2921250D01*
X7169030D01*
G01X7306820D02*
X7405250Y-2603750D01*
X7503680Y-2921250D01*
G01X7468240Y-2810130D02*
X7342250D01*
G01X7720210Y-2603750D02*
Y-2921250D01*
G01X7629660Y-2603750D02*
X7810760D01*
G01X8113910Y-2921250D02*
X7956430D01*
Y-2603750D01*
X8113910D01*
G01X8050920Y-2757200D02*
X7956430D01*
G01X8263520Y-2921250D02*
Y-2603750D01*
X8342250D01*
X8373750Y-2619630D01*
X8397370Y-2640790D01*
X8417060Y-2672540D01*
X8432810Y-2709590D01*
X8436740Y-2762500D01*
X8432810Y-2815420D01*
X8417060Y-2852460D01*
X8397370Y-2884220D01*
X8373750Y-2905380D01*
X8342250Y-2921250D01*
X8263520D01*
G01X6696590Y-2286250D02*
Y-1968750D01*
X6791080D01*
X6822570Y-1984630D01*
X6846200Y-2021670D01*
X6854070Y-2064000D01*
X6846200Y-2106330D01*
X6826510Y-2138090D01*
X6791080Y-2153970D01*
X6696590D01*
G01X7011550Y-1968750D02*
Y-2286250D01*
X7169030D01*
G01X7306820D02*
X7405250Y-1968750D01*
X7503680Y-2286250D01*
G01X7468240Y-2175130D02*
X7342250D01*
G01X7720210Y-1968750D02*
Y-2286250D01*
G01X7629660Y-1968750D02*
X7810760D01*
G01X8113910Y-2286250D02*
X7956430D01*
Y-1968750D01*
X8113910D01*
G01X8050920Y-2122200D02*
X7956430D01*
G01X8263520Y-2286250D02*
Y-1968750D01*
X8342250D01*
X8373750Y-1984630D01*
X8397370Y-2005790D01*
X8417060Y-2037540D01*
X8432810Y-2074590D01*
X8436740Y-2127500D01*
X8432810Y-2180420D01*
X8417060Y-2217460D01*
X8397370Y-2249220D01*
X8373750Y-2270380D01*
X8342250Y-2286250D01*
X8263520D01*
G01X6556380Y845900D02*
X6546850Y831680D01*
X6540500Y815090D01*
Y796120D01*
X6550030Y774780D01*
X6565900Y758190D01*
X6584950Y746340D01*
X6616700Y736850D01*
X6645280Y734480D01*
X6673850Y739230D01*
X6692900Y746340D01*
X6711950Y760560D01*
X6724650Y777160D01*
X6731000Y793750D01*
Y810340D01*
X6724650Y826940D01*
X6715130Y841160D01*
X6702430Y853020D01*
G01X6692900Y932100D02*
X6715130Y946320D01*
X6727830Y965280D01*
X6731000Y986620D01*
X6727830Y1005590D01*
X6711950Y1024550D01*
X6692900Y1036400D01*
X6673850Y1038770D01*
X6651630Y1034030D01*
X6635750Y1017440D01*
X6629400Y1000840D01*
Y979510D01*
G01Y1000840D02*
X6619880Y1015070D01*
X6604000Y1026920D01*
X6584950Y1031660D01*
X6565900Y1026920D01*
X6550030Y1015070D01*
X6540500Y993730D01*
X6543670Y972400D01*
X6556380Y951060D01*
G01X6858000Y635000D02*
Y1143000D01*
X7112000D01*
Y635000D01*
X6858000D01*
G01X6859000Y2100400D02*
Y2811600D01*
X7113000D01*
Y2100400D01*
X6859000D01*
G01X6619880Y5290900D02*
X6610350Y5276680D01*
X6604000Y5260090D01*
Y5241120D01*
X6613530Y5219780D01*
X6629400Y5203190D01*
X6648450Y5191340D01*
X6680200Y5181850D01*
X6708780Y5179480D01*
X6737350Y5184230D01*
X6756400Y5191340D01*
X6775450Y5205560D01*
X6788150Y5222160D01*
X6794500Y5238750D01*
Y5255340D01*
X6788150Y5271940D01*
X6778630Y5286160D01*
X6765930Y5298020D01*
G01X6794500Y5429250D02*
X6604000D01*
X6642100Y5400800D01*
G01X6794500D02*
Y5457690D01*
G01X6921500Y5080000D02*
Y5588000D01*
X7175500D01*
Y5080000D01*
X6921500D01*
G01X7493000Y833120D02*
X7489830Y814150D01*
X7477130Y797560D01*
X7458080Y783340D01*
X7435850Y773850D01*
X7410450Y769110D01*
X7385050D01*
X7359650Y773850D01*
X7337420Y783340D01*
X7318380Y797560D01*
X7305670Y814150D01*
X7302500Y833120D01*
X7305670Y852080D01*
X7318380Y868680D01*
X7337420Y882900D01*
X7359650Y892390D01*
X7385050Y897130D01*
X7410450D01*
X7435850Y892390D01*
X7458080Y882900D01*
X7477130Y868680D01*
X7489830Y852080D01*
X7493000Y833120D01*
G01X7442200Y852080D02*
X7493000Y880530D01*
G01X7464430Y971470D02*
X7480300Y985690D01*
X7489830Y1002280D01*
X7493000Y1023620D01*
X7486650Y1044960D01*
X7473950Y1061550D01*
X7451730Y1073400D01*
X7426330Y1075770D01*
X7400930Y1071030D01*
X7385050Y1059180D01*
X7372350Y1042580D01*
X7369180Y1025990D01*
X7372350Y1009400D01*
X7385050Y988060D01*
X7302500Y995170D01*
Y1059180D01*
G01X7620000Y2333840D02*
X7429500D01*
Y2393100D01*
X7439030Y2412070D01*
X7451730Y2423920D01*
X7477130Y2428660D01*
X7502530Y2423920D01*
X7518400Y2409700D01*
X7527930Y2393100D01*
Y2333840D01*
G01Y2393100D02*
X7620000Y2428660D01*
G01X7597780Y2531450D02*
X7613650Y2548040D01*
X7620000Y2567010D01*
X7613650Y2585970D01*
X7594610Y2602570D01*
X7566020Y2614420D01*
X7537450Y2619160D01*
X7502530D01*
X7473950Y2614420D01*
X7448550Y2602570D01*
X7435850Y2588340D01*
X7429500Y2571750D01*
X7435850Y2552780D01*
X7448550Y2538560D01*
X7467600Y2529080D01*
X7493000Y2524340D01*
X7515220Y2529080D01*
X7537450Y2540930D01*
X7550150Y2555160D01*
X7553330Y2571750D01*
X7546980Y2590710D01*
X7531100Y2604940D01*
X7502530Y2619160D01*
G01X7829000Y2161400D02*
Y2872600D01*
X8083000D01*
Y2161400D01*
X7829000D01*
G01X7381880Y4338400D02*
X7372350Y4324180D01*
X7366000Y4307590D01*
Y4288620D01*
X7375530Y4267280D01*
X7391400Y4250690D01*
X7410450Y4238840D01*
X7442200Y4229350D01*
X7470780Y4226980D01*
X7499350Y4231730D01*
X7518400Y4238840D01*
X7537450Y4253060D01*
X7550150Y4269660D01*
X7556500Y4286250D01*
Y4302840D01*
X7550150Y4319440D01*
X7540630Y4333660D01*
X7527930Y4345520D01*
G01Y4424600D02*
X7543800Y4438820D01*
X7553330Y4455410D01*
X7556500Y4476750D01*
X7550150Y4498090D01*
X7537450Y4514680D01*
X7515230Y4526530D01*
X7489830Y4528900D01*
X7464430Y4524160D01*
X7448550Y4512310D01*
X7435850Y4495710D01*
X7432680Y4479120D01*
X7435850Y4462530D01*
X7448550Y4441190D01*
X7366000Y4448300D01*
Y4512310D01*
G01X8255000Y4381500D02*
G03I-254000J0D01*
G01X7683500Y5572340D02*
X7493000D01*
Y5631600D01*
X7502530Y5650570D01*
X7515230Y5662420D01*
X7540630Y5667160D01*
X7566030Y5662420D01*
X7581900Y5648200D01*
X7591430Y5631600D01*
Y5572340D01*
G01Y5631600D02*
X7683500Y5667160D01*
G01Y5810250D02*
X7493000D01*
X7531100Y5781800D01*
G01X7683500D02*
Y5838690D01*
G01X7829000Y5313400D02*
Y6024600D01*
X8083000D01*
Y5313400D01*
X7829000D01*
G01X8788400Y2270340D02*
X8807450Y2282190D01*
X8820150Y2296410D01*
X8826500Y2313010D01*
X8820150Y2331970D01*
X8807450Y2346200D01*
X8788400Y2360420D01*
X8763000Y2365160D01*
X8636000D01*
G01X8826500Y2508250D02*
X8636000D01*
X8674100Y2479800D01*
G01X8826500D02*
Y2536690D01*
G01X8572500Y4400470D02*
X8709020D01*
X8737610Y4409950D01*
X8756650Y4428910D01*
X8763000Y4452620D01*
X8756650Y4476330D01*
X8737610Y4495290D01*
X8709020Y4504770D01*
X8572500D01*
G01X8604250Y4598080D02*
X8585200Y4612300D01*
X8575670Y4628900D01*
X8572500Y4647860D01*
X8578850Y4671570D01*
X8594730Y4688160D01*
X8613770Y4692900D01*
X8632830Y4690530D01*
X8648700Y4681050D01*
X8680450Y4633640D01*
X8702680Y4612300D01*
X8734430Y4598080D01*
X8763000Y4593340D01*
Y4692900D01*
G01X9176900Y-1810000D02*
Y-5620000D01*
G01X9017000Y2603500D02*
X9271000D01*
Y2095500D01*
X9017000D01*
Y2603500D01*
G01X10208390Y-5461250D02*
Y-5143750D01*
X10062720Y-5371290D01*
X10259580D01*
G01X10074540Y-4762750D02*
X10098150Y-4799800D01*
X10129650Y-4820960D01*
X10165090Y-4826250D01*
X10196590Y-4820960D01*
X10228080Y-4794510D01*
X10247760Y-4762750D01*
X10251700Y-4731000D01*
X10243830Y-4693970D01*
X10216270Y-4667500D01*
X10188710Y-4656910D01*
X10153270D01*
G01X10188710D02*
X10212330Y-4641040D01*
X10232020Y-4614590D01*
X10239890Y-4582840D01*
X10232020Y-4551080D01*
X10212330Y-4524630D01*
X10176900Y-4508750D01*
X10141470Y-4514040D01*
X10106030Y-4535210D01*
G01X9917060Y-4127750D02*
X9940670Y-4164800D01*
X9972170Y-4185960D01*
X10007610Y-4191250D01*
X10039110Y-4185960D01*
X10070600Y-4159510D01*
X10090280Y-4127750D01*
X10094220Y-4096000D01*
X10086350Y-4058970D01*
X10058790Y-4032500D01*
X10031230Y-4021910D01*
X9995790D01*
G01X10031230D02*
X10054850Y-4006040D01*
X10074540Y-3979590D01*
X10082410Y-3947840D01*
X10074540Y-3916080D01*
X10054850Y-3889630D01*
X10019420Y-3873750D01*
X9983990Y-3879040D01*
X9948550Y-3900210D01*
G01X10243820Y-4058970D02*
X10271390Y-4021910D01*
X10295010Y-4000750D01*
X10326510Y-3990170D01*
X10354070Y-4000750D01*
X10373750Y-4021910D01*
X10389500Y-4053670D01*
X10393440Y-4090710D01*
X10389500Y-4122460D01*
X10373750Y-4154220D01*
X10350120Y-4180670D01*
X10322570Y-4191250D01*
X10291070Y-4180670D01*
X10263510Y-4148930D01*
X10247760Y-4101290D01*
X10243820Y-4048380D01*
X10251700Y-3979590D01*
X10263510Y-3942540D01*
X10283190Y-3905500D01*
X10310750Y-3879040D01*
X10338310Y-3873750D01*
X10365870Y-3884330D01*
X10385560Y-3910790D01*
G01X9928860Y-3291670D02*
X9952490Y-3259920D01*
X9980050Y-3244040D01*
X10011550Y-3238750D01*
X10050910Y-3249330D01*
X10078480Y-3275790D01*
X10086350Y-3307540D01*
X10082410Y-3339300D01*
X10066660Y-3365750D01*
X9987920Y-3418670D01*
X9952490Y-3455710D01*
X9928860Y-3508640D01*
X9920990Y-3556250D01*
X10086350D01*
G01X10243820Y-3423970D02*
X10271390Y-3386910D01*
X10295010Y-3365750D01*
X10326510Y-3355170D01*
X10354070Y-3365750D01*
X10373750Y-3386910D01*
X10389500Y-3418670D01*
X10393440Y-3455710D01*
X10389500Y-3487460D01*
X10373750Y-3519220D01*
X10350120Y-3545670D01*
X10322570Y-3556250D01*
X10291070Y-3545670D01*
X10263510Y-3513930D01*
X10247760Y-3466290D01*
X10243820Y-3413380D01*
X10251700Y-3344590D01*
X10263510Y-3307540D01*
X10283190Y-3270500D01*
X10310750Y-3244040D01*
X10338310Y-3238750D01*
X10365870Y-3249330D01*
X10385560Y-3275790D01*
G01X10003670Y-2921250D02*
Y-2603750D01*
X9956430Y-2667250D01*
G01Y-2921250D02*
X10050910D01*
G01X10318630D02*
X10346190Y-2915960D01*
X10377680Y-2900090D01*
X10397370Y-2873640D01*
X10405240Y-2836580D01*
X10397370Y-2799550D01*
X10373750Y-2767800D01*
X10338310Y-2751910D01*
X10298950D01*
X10275320Y-2741330D01*
X10255630Y-2714880D01*
X10247760Y-2677840D01*
X10259580Y-2640790D01*
X10287130Y-2614330D01*
X10318630Y-2603750D01*
X10350120Y-2614330D01*
X10377680Y-2640790D01*
X10389500Y-2677840D01*
X10381620Y-2714880D01*
X10361940Y-2741330D01*
X10338310Y-2751910D01*
X10298950D01*
X10263510Y-2767800D01*
X10239890Y-2799550D01*
X10232020Y-2836580D01*
X10239890Y-2873640D01*
X10259580Y-2900090D01*
X10291070Y-2915960D01*
X10318630Y-2921250D01*
G01X9846190Y-2286250D02*
X9814690Y-2280960D01*
X9787140Y-2259800D01*
X9763510Y-2228040D01*
X9747760Y-2191000D01*
X9739890Y-2148670D01*
Y-2106330D01*
X9747760Y-2064000D01*
X9763510Y-2026960D01*
X9787140Y-1995210D01*
X9814690Y-1974040D01*
X9846190Y-1968750D01*
X9877680Y-1974040D01*
X9905240Y-1995210D01*
X9928870Y-2026960D01*
X9944620Y-2064000D01*
X9952490Y-2106330D01*
Y-2148670D01*
X9944620Y-2191000D01*
X9928870Y-2228040D01*
X9905240Y-2259800D01*
X9877680Y-2280960D01*
X9846190Y-2286250D01*
G01X9877680Y-2201580D02*
X9924930Y-2286250D01*
G01X10161150Y-1968750D02*
Y-2286250D01*
G01X10070600Y-1968750D02*
X10251700D01*
G01X10476110Y-2286250D02*
Y-2143380D01*
X10397370Y-1968750D01*
G01X10554850D02*
X10476110Y-2143380D01*
G01X10000000Y5083720D02*
Y8976000D01*
G01X9600000Y8663500D02*
X10000000Y8726000D01*
X9600000Y8788500D01*
Y8663500D01*
G54D19*
X2540000Y889000D03*
D03*
Y5969000D03*
D03*
X6985000Y4508500D03*
D03*
X7048500Y6096000D03*
D03*
M02*
