G04 ================== begin FILE IDENTIFICATION RECORD ==================*
G04 Layout Name:  D:/ORCAD/B07_EX01/allegro/B07_EX01.brd*
G04 Film Name:    Drill_DRAW*
G04 File Format:  Gerber RS274X*
G04 File Origin:  Cadence Allegro 17.2-S073*
G04 Origin Date:  Fri Dec 08 11:13:34 2023*
G04 *
G04 Layer:  MANUFACTURING/NCLEGEND-1-2*
G04 Layer:  BOARD GEOMETRY/DIMENSION*
G04 Layer:  BOARD GEOMETRY/DESIGN_OUTLINE*
G04 *
G04 Offset:    (0.0000 0.0000)*
G04 Mirror:    No*
G04 Mode:      Positive*
G04 Rotation:  0*
G04 FullContactRelief:  No*
G04 UndefLineWidth:     0.2000*
G04 ================== end FILE IDENTIFICATION RECORD ====================*
%FSLAX25Y25*MOMM*%
%IR0*IPPOS*OFA0.00000B0.00000*MIA0B0*SFA1.00000B1.00000*%
%AMMACRO11*
1,1,.2,.6858,0.0*
20,1,.2,.6858,0.0,.675381,-.119088,0.0*
1,1,.2,.675381,-.119088*
20,1,.2,.675381,-.119088,.644441,-.234557,0.0*
1,1,.2,.644441,-.234557*
20,1,.2,.644441,-.234557,.59392,-.3429,0.0*
1,1,.2,.59392,-.3429*
20,1,.2,.59392,-.3429,.525353,-.440824,0.0*
1,1,.2,.525353,-.440824*
20,1,.2,.525353,-.440824,.440824,-.525353,0.0*
1,1,.2,.440824,-.525353*
20,1,.2,.440824,-.525353,.3429,-.59392,0.0*
1,1,.2,.3429,-.59392*
20,1,.2,.3429,-.59392,.234557,-.644441,0.0*
1,1,.2,.234557,-.644441*
20,1,.2,.234557,-.644441,.119088,-.675381,0.0*
1,1,.2,.119088,-.675381*
20,1,.2,.119088,-.675381,0.0,-.6858,0.0*
1,1,.2,0.0,-.6858*
20,1,.2,0.0,-.6858,-.119088,-.675381,0.0*
1,1,.2,-.119088,-.675381*
20,1,.2,-.119088,-.675381,-.234557,-.644441,0.0*
1,1,.2,-.234557,-.644441*
20,1,.2,-.234557,-.644441,-.3429,-.59392,0.0*
1,1,.2,-.3429,-.59392*
20,1,.2,-.3429,-.59392,-.440824,-.525353,0.0*
1,1,.2,-.440824,-.525353*
20,1,.2,-.440824,-.525353,-.525353,-.440824,0.0*
1,1,.2,-.525353,-.440824*
20,1,.2,-.525353,-.440824,-.59392,-.3429,0.0*
1,1,.2,-.59392,-.3429*
20,1,.2,-.59392,-.3429,-.644441,-.234557,0.0*
1,1,.2,-.644441,-.234557*
20,1,.2,-.644441,-.234557,-.675381,-.119088,0.0*
1,1,.2,-.675381,-.119088*
20,1,.2,-.675381,-.119088,-.6858,0.0,0.0*
1,1,.2,-.6858,0.0*
20,1,.2,-.6858,0.0,-.675381,.119088,0.0*
1,1,.2,-.675381,.119088*
20,1,.2,-.675381,.119088,-.644441,.234557,0.0*
1,1,.2,-.644441,.234557*
20,1,.2,-.644441,.234557,-.59392,.3429,0.0*
1,1,.2,-.59392,.3429*
20,1,.2,-.59392,.3429,-.525353,.440824,0.0*
1,1,.2,-.525353,.440824*
20,1,.2,-.525353,.440824,-.440824,.525353,0.0*
1,1,.2,-.440824,.525353*
20,1,.2,-.440824,.525353,-.3429,.59392,0.0*
1,1,.2,-.3429,.59392*
20,1,.2,-.3429,.59392,-.234557,.644441,0.0*
1,1,.2,-.234557,.644441*
20,1,.2,-.234557,.644441,-.119088,.675381,0.0*
1,1,.2,-.119088,.675381*
20,1,.2,-.119088,.675381,0.0,.6858,0.0*
1,1,.2,0.0,.6858*
20,1,.2,0.0,.6858,.119088,.675381,0.0*
1,1,.2,.119088,.675381*
20,1,.2,.119088,.675381,.234557,.644441,0.0*
1,1,.2,.234557,.644441*
20,1,.2,.234557,.644441,.3429,.59392,0.0*
1,1,.2,.3429,.59392*
20,1,.2,.3429,.59392,.440824,.525353,0.0*
1,1,.2,.440824,.525353*
20,1,.2,.440824,.525353,.525353,.440824,0.0*
1,1,.2,.525353,.440824*
20,1,.2,.525353,.440824,.59392,.3429,0.0*
1,1,.2,.59392,.3429*
20,1,.2,.59392,.3429,.644441,.234557,0.0*
1,1,.2,.644441,.234557*
20,1,.2,.644441,.234557,.675381,.119088,0.0*
1,1,.2,.675381,.119088*
20,1,.2,.675381,.119088,.6858,0.0,0.0*
1,1,.2,.6858,0.0*
%
%ADD11MACRO11*%
%AMMACRO13*
1,1,.2,.4572,0.0*
20,1,.2,.4572,0.0,.450254,-.079392,0.0*
1,1,.2,.450254,-.079392*
20,1,.2,.450254,-.079392,.429627,-.156372,0.0*
1,1,.2,.429627,-.156372*
20,1,.2,.429627,-.156372,.395947,-.2286,0.0*
1,1,.2,.395947,-.2286*
20,1,.2,.395947,-.2286,.350236,-.293882,0.0*
1,1,.2,.350236,-.293882*
20,1,.2,.350236,-.293882,.293882,-.350236,0.0*
1,1,.2,.293882,-.350236*
20,1,.2,.293882,-.350236,.2286,-.395947,0.0*
1,1,.2,.2286,-.395947*
20,1,.2,.2286,-.395947,.156372,-.429627,0.0*
1,1,.2,.156372,-.429627*
20,1,.2,.156372,-.429627,.079392,-.450254,0.0*
1,1,.2,.079392,-.450254*
20,1,.2,.079392,-.450254,0.0,-.4572,0.0*
1,1,.2,0.0,-.4572*
20,1,.2,0.0,-.4572,-.079392,-.450254,0.0*
1,1,.2,-.079392,-.450254*
20,1,.2,-.079392,-.450254,-.156372,-.429627,0.0*
1,1,.2,-.156372,-.429627*
20,1,.2,-.156372,-.429627,-.2286,-.395947,0.0*
1,1,.2,-.2286,-.395947*
20,1,.2,-.2286,-.395947,-.293882,-.350236,0.0*
1,1,.2,-.293882,-.350236*
20,1,.2,-.293882,-.350236,-.350236,-.293882,0.0*
1,1,.2,-.350236,-.293882*
20,1,.2,-.350236,-.293882,-.395947,-.2286,0.0*
1,1,.2,-.395947,-.2286*
20,1,.2,-.395947,-.2286,-.429627,-.156372,0.0*
1,1,.2,-.429627,-.156372*
20,1,.2,-.429627,-.156372,-.450254,-.079392,0.0*
1,1,.2,-.450254,-.079392*
20,1,.2,-.450254,-.079392,-.4572,0.0,0.0*
1,1,.2,-.4572,0.0*
20,1,.2,-.4572,0.0,-.450254,.079392,0.0*
1,1,.2,-.450254,.079392*
20,1,.2,-.450254,.079392,-.429627,.156372,0.0*
1,1,.2,-.429627,.156372*
20,1,.2,-.429627,.156372,-.395947,.2286,0.0*
1,1,.2,-.395947,.2286*
20,1,.2,-.395947,.2286,-.350236,.293882,0.0*
1,1,.2,-.350236,.293882*
20,1,.2,-.350236,.293882,-.293882,.350236,0.0*
1,1,.2,-.293882,.350236*
20,1,.2,-.293882,.350236,-.2286,.395947,0.0*
1,1,.2,-.2286,.395947*
20,1,.2,-.2286,.395947,-.156372,.429627,0.0*
1,1,.2,-.156372,.429627*
20,1,.2,-.156372,.429627,-.079392,.450254,0.0*
1,1,.2,-.079392,.450254*
20,1,.2,-.079392,.450254,0.0,.4572,0.0*
1,1,.2,0.0,.4572*
20,1,.2,0.0,.4572,.079392,.450254,0.0*
1,1,.2,.079392,.450254*
20,1,.2,.079392,.450254,.156372,.429627,0.0*
1,1,.2,.156372,.429627*
20,1,.2,.156372,.429627,.2286,.395947,0.0*
1,1,.2,.2286,.395947*
20,1,.2,.2286,.395947,.293882,.350236,0.0*
1,1,.2,.293882,.350236*
20,1,.2,.293882,.350236,.350236,.293882,0.0*
1,1,.2,.350236,.293882*
20,1,.2,.350236,.293882,.395947,.2286,0.0*
1,1,.2,.395947,.2286*
20,1,.2,.395947,.2286,.429627,.156372,0.0*
1,1,.2,.429627,.156372*
20,1,.2,.429627,.156372,.450254,.079392,0.0*
1,1,.2,.450254,.079392*
20,1,.2,.450254,.079392,.4572,0.0,0.0*
1,1,.2,.4572,0.0*
%
%ADD13MACRO13*%
%AMMACRO12*
1,1,.2,.5334,0.0*
20,1,.2,.5334,0.0,.525296,-.092624,0.0*
1,1,.2,.525296,-.092624*
20,1,.2,.525296,-.092624,.501232,-.182434,0.0*
1,1,.2,.501232,-.182434*
20,1,.2,.501232,-.182434,.461938,-.2667,0.0*
1,1,.2,.461938,-.2667*
20,1,.2,.461938,-.2667,.408608,-.342863,0.0*
1,1,.2,.408608,-.342863*
20,1,.2,.408608,-.342863,.342863,-.408608,0.0*
1,1,.2,.342863,-.408608*
20,1,.2,.342863,-.408608,.2667,-.461938,0.0*
1,1,.2,.2667,-.461938*
20,1,.2,.2667,-.461938,.182434,-.501232,0.0*
1,1,.2,.182434,-.501232*
20,1,.2,.182434,-.501232,.092624,-.525296,0.0*
1,1,.2,.092624,-.525296*
20,1,.2,.092624,-.525296,0.0,-.5334,0.0*
1,1,.2,0.0,-.5334*
20,1,.2,0.0,-.5334,-.092624,-.525296,0.0*
1,1,.2,-.092624,-.525296*
20,1,.2,-.092624,-.525296,-.182434,-.501232,0.0*
1,1,.2,-.182434,-.501232*
20,1,.2,-.182434,-.501232,-.2667,-.461938,0.0*
1,1,.2,-.2667,-.461938*
20,1,.2,-.2667,-.461938,-.342863,-.408608,0.0*
1,1,.2,-.342863,-.408608*
20,1,.2,-.342863,-.408608,-.408608,-.342863,0.0*
1,1,.2,-.408608,-.342863*
20,1,.2,-.408608,-.342863,-.461938,-.2667,0.0*
1,1,.2,-.461938,-.2667*
20,1,.2,-.461938,-.2667,-.501232,-.182434,0.0*
1,1,.2,-.501232,-.182434*
20,1,.2,-.501232,-.182434,-.525296,-.092624,0.0*
1,1,.2,-.525296,-.092624*
20,1,.2,-.525296,-.092624,-.5334,0.0,0.0*
1,1,.2,-.5334,0.0*
20,1,.2,-.5334,0.0,-.525296,.092624,0.0*
1,1,.2,-.525296,.092624*
20,1,.2,-.525296,.092624,-.501232,.182434,0.0*
1,1,.2,-.501232,.182434*
20,1,.2,-.501232,.182434,-.461938,.2667,0.0*
1,1,.2,-.461938,.2667*
20,1,.2,-.461938,.2667,-.408608,.342863,0.0*
1,1,.2,-.408608,.342863*
20,1,.2,-.408608,.342863,-.342863,.408608,0.0*
1,1,.2,-.342863,.408608*
20,1,.2,-.342863,.408608,-.2667,.461938,0.0*
1,1,.2,-.2667,.461938*
20,1,.2,-.2667,.461938,-.182434,.501232,0.0*
1,1,.2,-.182434,.501232*
20,1,.2,-.182434,.501232,-.092624,.525296,0.0*
1,1,.2,-.092624,.525296*
20,1,.2,-.092624,.525296,0.0,.5334,0.0*
1,1,.2,0.0,.5334*
20,1,.2,0.0,.5334,.092624,.525296,0.0*
1,1,.2,.092624,.525296*
20,1,.2,.092624,.525296,.182434,.501232,0.0*
1,1,.2,.182434,.501232*
20,1,.2,.182434,.501232,.2667,.461938,0.0*
1,1,.2,.2667,.461938*
20,1,.2,.2667,.461938,.342863,.408608,0.0*
1,1,.2,.342863,.408608*
20,1,.2,.342863,.408608,.408608,.342863,0.0*
1,1,.2,.408608,.342863*
20,1,.2,.408608,.342863,.461938,.2667,0.0*
1,1,.2,.461938,.2667*
20,1,.2,.461938,.2667,.501232,.182434,0.0*
1,1,.2,.501232,.182434*
20,1,.2,.501232,.182434,.525296,.092624,0.0*
1,1,.2,.525296,.092624*
20,1,.2,.525296,.092624,.5334,0.0,0.0*
1,1,.2,.5334,0.0*
%
%ADD12MACRO12*%
%AMMACRO14*
1,1,.2,.3937,0.0*
20,1,.2,.3937,0.0,.387719,-.068365,0.0*
1,1,.2,.387719,-.068365*
20,1,.2,.387719,-.068365,.369957,-.134653,0.0*
1,1,.2,.369957,-.134653*
20,1,.2,.369957,-.134653,.340954,-.19685,0.0*
1,1,.2,.340954,-.19685*
20,1,.2,.340954,-.19685,.301592,-.253065,0.0*
1,1,.2,.301592,-.253065*
20,1,.2,.301592,-.253065,.253065,-.301592,0.0*
1,1,.2,.253065,-.301592*
20,1,.2,.253065,-.301592,.19685,-.340954,0.0*
1,1,.2,.19685,-.340954*
20,1,.2,.19685,-.340954,.134653,-.369957,0.0*
1,1,.2,.134653,-.369957*
20,1,.2,.134653,-.369957,.068365,-.387719,0.0*
1,1,.2,.068365,-.387719*
20,1,.2,.068365,-.387719,0.0,-.3937,0.0*
1,1,.2,0.0,-.3937*
20,1,.2,0.0,-.3937,-.068365,-.387719,0.0*
1,1,.2,-.068365,-.387719*
20,1,.2,-.068365,-.387719,-.134653,-.369957,0.0*
1,1,.2,-.134653,-.369957*
20,1,.2,-.134653,-.369957,-.19685,-.340954,0.0*
1,1,.2,-.19685,-.340954*
20,1,.2,-.19685,-.340954,-.253065,-.301592,0.0*
1,1,.2,-.253065,-.301592*
20,1,.2,-.253065,-.301592,-.301592,-.253065,0.0*
1,1,.2,-.301592,-.253065*
20,1,.2,-.301592,-.253065,-.340954,-.19685,0.0*
1,1,.2,-.340954,-.19685*
20,1,.2,-.340954,-.19685,-.369957,-.134653,0.0*
1,1,.2,-.369957,-.134653*
20,1,.2,-.369957,-.134653,-.387719,-.068365,0.0*
1,1,.2,-.387719,-.068365*
20,1,.2,-.387719,-.068365,-.3937,0.0,0.0*
1,1,.2,-.3937,0.0*
20,1,.2,-.3937,0.0,-.387719,.068365,0.0*
1,1,.2,-.387719,.068365*
20,1,.2,-.387719,.068365,-.369957,.134653,0.0*
1,1,.2,-.369957,.134653*
20,1,.2,-.369957,.134653,-.340954,.19685,0.0*
1,1,.2,-.340954,.19685*
20,1,.2,-.340954,.19685,-.301592,.253065,0.0*
1,1,.2,-.301592,.253065*
20,1,.2,-.301592,.253065,-.253065,.301592,0.0*
1,1,.2,-.253065,.301592*
20,1,.2,-.253065,.301592,-.19685,.340954,0.0*
1,1,.2,-.19685,.340954*
20,1,.2,-.19685,.340954,-.134653,.369957,0.0*
1,1,.2,-.134653,.369957*
20,1,.2,-.134653,.369957,-.068365,.387719,0.0*
1,1,.2,-.068365,.387719*
20,1,.2,-.068365,.387719,0.0,.3937,0.0*
1,1,.2,0.0,.3937*
20,1,.2,0.0,.3937,.068365,.387719,0.0*
1,1,.2,.068365,.387719*
20,1,.2,.068365,.387719,.134653,.369957,0.0*
1,1,.2,.134653,.369957*
20,1,.2,.134653,.369957,.19685,.340954,0.0*
1,1,.2,.19685,.340954*
20,1,.2,.19685,.340954,.253065,.301592,0.0*
1,1,.2,.253065,.301592*
20,1,.2,.253065,.301592,.301592,.253065,0.0*
1,1,.2,.301592,.253065*
20,1,.2,.301592,.253065,.340954,.19685,0.0*
1,1,.2,.340954,.19685*
20,1,.2,.340954,.19685,.369957,.134653,0.0*
1,1,.2,.369957,.134653*
20,1,.2,.369957,.134653,.387719,.068365,0.0*
1,1,.2,.387719,.068365*
20,1,.2,.387719,.068365,.3937,0.0,0.0*
1,1,.2,.3937,0.0*
%
%ADD14MACRO14*%
%AMMACRO10*
1,1,.2,1.5,0.0*
20,1,.2,1.5,0.0,1.477212,-.260472,0.0*
1,1,.2,1.477212,-.260472*
20,1,.2,1.477212,-.260472,1.409539,-.51303,0.0*
1,1,.2,1.409539,-.51303*
20,1,.2,1.409539,-.51303,1.299038,-.75,0.0*
1,1,.2,1.299038,-.75*
20,1,.2,1.299038,-.75,1.149067,-.964181,0.0*
1,1,.2,1.149067,-.964181*
20,1,.2,1.149067,-.964181,.964181,-1.149067,0.0*
1,1,.2,.964181,-1.149067*
20,1,.2,.964181,-1.149067,.75,-1.299038,0.0*
1,1,.2,.75,-1.299038*
20,1,.2,.75,-1.299038,.51303,-1.409539,0.0*
1,1,.2,.51303,-1.409539*
20,1,.2,.51303,-1.409539,.260472,-1.477212,0.0*
1,1,.2,.260472,-1.477212*
20,1,.2,.260472,-1.477212,0.0,-1.5,0.0*
1,1,.2,0.0,-1.5*
20,1,.2,0.0,-1.5,-.260472,-1.477212,0.0*
1,1,.2,-.260472,-1.477212*
20,1,.2,-.260472,-1.477212,-.51303,-1.409539,0.0*
1,1,.2,-.51303,-1.409539*
20,1,.2,-.51303,-1.409539,-.75,-1.299038,0.0*
1,1,.2,-.75,-1.299038*
20,1,.2,-.75,-1.299038,-.964181,-1.149067,0.0*
1,1,.2,-.964181,-1.149067*
20,1,.2,-.964181,-1.149067,-1.149067,-.964181,0.0*
1,1,.2,-1.149067,-.964181*
20,1,.2,-1.149067,-.964181,-1.299038,-.75,0.0*
1,1,.2,-1.299038,-.75*
20,1,.2,-1.299038,-.75,-1.409539,-.51303,0.0*
1,1,.2,-1.409539,-.51303*
20,1,.2,-1.409539,-.51303,-1.477212,-.260472,0.0*
1,1,.2,-1.477212,-.260472*
20,1,.2,-1.477212,-.260472,-1.5,0.0,0.0*
1,1,.2,-1.5,0.0*
20,1,.2,-1.5,0.0,-1.477212,.260472,0.0*
1,1,.2,-1.477212,.260472*
20,1,.2,-1.477212,.260472,-1.409539,.51303,0.0*
1,1,.2,-1.409539,.51303*
20,1,.2,-1.409539,.51303,-1.299038,.75,0.0*
1,1,.2,-1.299038,.75*
20,1,.2,-1.299038,.75,-1.149067,.964181,0.0*
1,1,.2,-1.149067,.964181*
20,1,.2,-1.149067,.964181,-.964181,1.149067,0.0*
1,1,.2,-.964181,1.149067*
20,1,.2,-.964181,1.149067,-.75,1.299038,0.0*
1,1,.2,-.75,1.299038*
20,1,.2,-.75,1.299038,-.51303,1.409539,0.0*
1,1,.2,-.51303,1.409539*
20,1,.2,-.51303,1.409539,-.260472,1.477212,0.0*
1,1,.2,-.260472,1.477212*
20,1,.2,-.260472,1.477212,0.0,1.5,0.0*
1,1,.2,0.0,1.5*
20,1,.2,0.0,1.5,.260472,1.477212,0.0*
1,1,.2,.260472,1.477212*
20,1,.2,.260472,1.477212,.51303,1.409539,0.0*
1,1,.2,.51303,1.409539*
20,1,.2,.51303,1.409539,.75,1.299038,0.0*
1,1,.2,.75,1.299038*
20,1,.2,.75,1.299038,.964181,1.149067,0.0*
1,1,.2,.964181,1.149067*
20,1,.2,.964181,1.149067,1.149067,.964181,0.0*
1,1,.2,1.149067,.964181*
20,1,.2,1.149067,.964181,1.299038,.75,0.0*
1,1,.2,1.299038,.75*
20,1,.2,1.299038,.75,1.409539,.51303,0.0*
1,1,.2,1.409539,.51303*
20,1,.2,1.409539,.51303,1.477212,.260472,0.0*
1,1,.2,1.477212,.260472*
20,1,.2,1.477212,.260472,1.5,0.0,0.0*
1,1,.2,1.5,0.0*
%
%ADD10MACRO10*%
%ADD15C,.2*%
G75*
%LPD*%
G75*
G54D10*
X-311270Y-5302500D03*
X300000Y300000D03*
Y6700000D03*
X9700000Y300000D03*
Y6700000D03*
G54D11*
X-311270Y-4667500D03*
X9144000Y4191000D03*
Y4445000D03*
Y4699000D03*
G54D12*
X-311270Y-4032500D03*
X825500Y825500D03*
Y1841500D03*
X875000Y3270000D03*
Y4286000D03*
X1587500Y825500D03*
Y1841500D03*
X1663000Y3294000D03*
Y4310000D03*
X1714500Y5207000D03*
Y6223000D03*
X3931000Y5222000D03*
Y6238000D03*
X5207000Y1016000D03*
Y762000D03*
Y1968500D03*
Y2984500D03*
Y3556000D03*
Y4572000D03*
Y5334000D03*
Y5588000D03*
X6089000Y1948000D03*
Y2964000D03*
X6096000Y3619500D03*
X6113000Y5185000D03*
X6096000Y4635500D03*
X6113000Y6201000D03*
X6985000Y1016000D03*
Y762000D03*
X6986000Y1948000D03*
Y2964000D03*
X7048500Y5207000D03*
Y5461000D03*
X7956000Y2009000D03*
Y3025000D03*
Y5161000D03*
Y6177000D03*
G54D13*
X-311270Y-3397500D03*
X889000Y5232400D03*
Y6223000D03*
X2667000Y2286000D03*
X2413000D03*
X2667000Y3937000D03*
X2413000D03*
X3846000Y857000D03*
Y1847600D03*
X3543000Y2873000D03*
Y3127000D03*
Y3381000D03*
Y3635000D03*
Y3889000D03*
Y4143000D03*
Y4397000D03*
X4305000Y2873000D03*
Y3127000D03*
Y3381000D03*
Y3635000D03*
Y3889000D03*
Y4143000D03*
Y4397000D03*
X8001000Y4254500D03*
Y4508500D03*
X9144000Y2222500D03*
Y2476500D03*
G54D14*
X-311270Y-2762500D03*
X2540000Y889000D03*
Y1016000D03*
Y1143000D03*
Y5969000D03*
Y6096000D03*
Y6223000D03*
X6286500Y889000D03*
X6159500D03*
X6032500D03*
X6985000Y4381500D03*
Y4254500D03*
Y4508500D03*
X7048500Y6096000D03*
Y6223000D03*
Y6350000D03*
X8001000Y889000D03*
X7874000D03*
X8128000D03*
G54D15*
G01X-1453000Y-5620000D02*
Y-525000D01*
X11145400D01*
Y-5620000D01*
X-1453000D01*
G01Y-4985000D02*
X11145400D01*
G01X-1453000Y-4350000D02*
X11145400D01*
G01X-1453000Y-3715000D02*
X11145400D01*
G01X-1453000Y-2445000D02*
X11145400D01*
G01X-1453000Y-3080000D02*
X11145400D01*
G01X-1173480Y-2286250D02*
Y-1968750D01*
X-1023860D01*
G01X-1078990Y-2122200D02*
X-1173480D01*
G01X-830950Y-1968750D02*
X-736470D01*
G01X-783710D02*
Y-2286250D01*
G01X-830950D02*
X-736470D01*
G01X-445130Y-2127500D02*
X-366380D01*
Y-2222750D01*
X-390010Y-2254510D01*
X-417570Y-2275670D01*
X-456940Y-2286250D01*
X-496310Y-2275670D01*
X-523870Y-2254510D01*
X-547490Y-2222750D01*
X-563240Y-2185710D01*
X-571120Y-2143380D01*
Y-2106330D01*
X-563240Y-2074590D01*
X-547490Y-2037540D01*
X-523870Y-2005790D01*
X-500250Y-1984630D01*
X-468750Y-1968750D01*
X-441190D01*
X-409700Y-1979330D01*
X-386070Y-2000500D01*
G01X-240400Y-1968750D02*
Y-2196290D01*
X-224660Y-2243930D01*
X-193160Y-2275670D01*
X-153790Y-2286250D01*
X-114420Y-2275670D01*
X-82920Y-2243930D01*
X-67180Y-2196290D01*
Y-1968750D01*
G01X82430Y-2286250D02*
Y-1968750D01*
X180850D01*
X212350Y-1984630D01*
X232040Y-2005790D01*
X239910Y-2048130D01*
X232040Y-2090460D01*
X208410Y-2116910D01*
X180850Y-2132800D01*
X82430D01*
G01X180850D02*
X239910Y-2286250D01*
G01X554870D02*
X397390D01*
Y-1968750D01*
X554870D01*
G01X491880Y-2122200D02*
X397390D01*
G01X-1453000Y-1810000D02*
X11145400D01*
G01X-1453000Y-1175000D02*
X11145400D01*
G01X2431870Y0D02*
X-1412000D01*
G01X-1162000Y3730000D02*
Y0D01*
G01X-1224500Y400000D02*
X-1162000Y0D01*
X-1099500Y400000D01*
X-1224500D01*
G01X-1257250Y3630010D02*
X-1298520Y3634750D01*
X-1333450Y3641860D01*
X-1365200Y3651340D01*
X-1400120Y3663200D01*
X-1447750Y3682160D01*
Y3587340D01*
G01Y3825250D02*
X-1441400Y3806280D01*
X-1425520Y3792060D01*
X-1406480Y3782580D01*
X-1381070Y3775470D01*
X-1352500Y3773100D01*
X-1323920Y3775470D01*
X-1298520Y3782580D01*
X-1279470Y3792060D01*
X-1263600Y3806280D01*
X-1257250Y3825250D01*
X-1263600Y3844210D01*
X-1279470Y3858440D01*
X-1298520Y3867920D01*
X-1323920Y3875030D01*
X-1352500Y3877400D01*
X-1381070Y3875030D01*
X-1406480Y3867920D01*
X-1425520Y3858440D01*
X-1441400Y3844210D01*
X-1447750Y3825250D01*
G01X-1162000Y3730000D02*
Y7000000D01*
G01X-1099500Y6600000D02*
X-1162000Y7000000D01*
X-1224500Y6600000D01*
X-1099500D01*
G01X2056010Y7000000D02*
X-1412000D01*
G01X10000000Y0D02*
Y7000000D01*
X0D01*
Y0D01*
X10000000D01*
G01X0Y5350460D02*
Y8976000D01*
G01X5010000Y8726000D02*
X0D01*
G01X400000Y8788500D02*
X0Y8726000D01*
X400000Y8663500D01*
Y8788500D01*
G01X830460Y-1810000D02*
Y-5620000D01*
G01X495810Y-1651250D02*
X594240Y-1333750D01*
X692670Y-1651250D01*
G01X657230Y-1540130D02*
X531240D01*
G01X830460Y-1333750D02*
Y-1651250D01*
X987940D01*
G01X1145420Y-1333750D02*
Y-1651250D01*
X1302900D01*
G01X1767470Y-1333750D02*
Y-1561290D01*
X1783210Y-1608930D01*
X1814710Y-1640670D01*
X1854080Y-1651250D01*
X1893450Y-1640670D01*
X1924950Y-1608930D01*
X1940690Y-1561290D01*
Y-1333750D01*
G01X2078490Y-1651250D02*
Y-1333750D01*
X2259590Y-1651250D01*
Y-1333750D01*
G01X2436760D02*
X2531240D01*
G01X2484000D02*
Y-1651250D01*
G01X2436760D02*
X2531240D01*
G01X2798960Y-1333750D02*
Y-1651250D01*
G01X2708410Y-1333750D02*
X2889510D01*
G01X3031240Y-1608930D02*
X3062740Y-1635380D01*
X3098170Y-1651250D01*
X3129670D01*
X3161160Y-1635380D01*
X3184790Y-1608930D01*
X3196600Y-1571870D01*
X3188730Y-1534840D01*
X3169040Y-1503090D01*
X3133600Y-1481910D01*
X3086360Y-1471330D01*
X3058800Y-1450170D01*
X3046990Y-1413130D01*
X3054870Y-1376080D01*
X3074550Y-1349630D01*
X3102110Y-1333750D01*
X3129670D01*
X3157230Y-1344330D01*
X3180850Y-1370790D01*
G01X3645410Y-1651250D02*
X3743840Y-1333750D01*
X3842270Y-1651250D01*
G01X3806830Y-1540130D02*
X3680840D01*
G01X3980060Y-1651250D02*
Y-1333750D01*
X4078480D01*
X4109980Y-1349630D01*
X4129670Y-1370790D01*
X4137540Y-1413130D01*
X4129670Y-1455460D01*
X4106040Y-1481910D01*
X4078480Y-1497800D01*
X3980060D01*
G01X4078480D02*
X4137540Y-1651250D01*
G01X4452500D02*
X4295020D01*
Y-1333750D01*
X4452500D01*
G01X4389510Y-1487200D02*
X4295020D01*
G01X4956440Y-1333750D02*
X5050920D01*
G01X5003680D02*
Y-1651250D01*
G01X4956440D02*
X5050920D01*
G01X5228090D02*
Y-1333750D01*
X5409190Y-1651250D01*
Y-1333750D01*
G01X5846190Y-1651250D02*
Y-1333750D01*
X5948560Y-1598330D01*
X6050930Y-1333750D01*
Y-1651250D01*
G01X6216280Y-1333750D02*
X6310760D01*
G01X6263520D02*
Y-1651250D01*
G01X6216280D02*
X6310760D01*
G01X6499740Y-1333750D02*
Y-1651250D01*
X6657220D01*
G01X6814700Y-1333750D02*
Y-1651250D01*
X6972180D01*
G01X7161160Y-1333750D02*
X7255640D01*
G01X7208400D02*
Y-1651250D01*
G01X7161160D02*
X7255640D01*
G01X7420990D02*
Y-1333750D01*
X7523360Y-1598330D01*
X7625730Y-1333750D01*
Y-1651250D01*
G01X7917060D02*
X7759580D01*
Y-1333750D01*
X7917060D01*
G01X7854070Y-1487200D02*
X7759580D01*
G01X8153280Y-1333750D02*
Y-1651250D01*
G01X8062730Y-1333750D02*
X8243830D01*
G01X8546980Y-1651250D02*
X8389500D01*
Y-1333750D01*
X8546980D01*
G01X8483990Y-1487200D02*
X8389500D01*
G01X8704460Y-1651250D02*
Y-1333750D01*
X8802880D01*
X8834380Y-1349630D01*
X8854070Y-1370790D01*
X8861940Y-1413130D01*
X8854070Y-1455460D01*
X8830440Y-1481910D01*
X8802880Y-1497800D01*
X8704460D01*
G01X8802880D02*
X8861940Y-1651250D01*
G01X9015480Y-1608930D02*
X9046980Y-1635380D01*
X9082410Y-1651250D01*
X9113910D01*
X9145400Y-1635380D01*
X9169030Y-1608930D01*
X9180840Y-1571870D01*
X9172970Y-1534840D01*
X9153280Y-1503090D01*
X9117840Y-1481910D01*
X9070600Y-1471330D01*
X9043040Y-1450170D01*
X9031230Y-1413130D01*
X9039110Y-1376080D01*
X9058790Y-1349630D01*
X9086350Y-1333750D01*
X9113910D01*
X9141470Y-1344330D01*
X9165090Y-1370790D01*
G01X822590Y-1001250D02*
Y-683750D01*
X901320D01*
X932820Y-699630D01*
X956440Y-720790D01*
X976130Y-752540D01*
X991880Y-789590D01*
X995810Y-842500D01*
X991880Y-895420D01*
X976130Y-932460D01*
X956440Y-964220D01*
X932820Y-985380D01*
X901320Y-1001250D01*
X822590D01*
G01X1145420D02*
Y-683750D01*
X1243840D01*
X1275340Y-699630D01*
X1295030Y-720790D01*
X1302900Y-763130D01*
X1295030Y-805460D01*
X1271400Y-831910D01*
X1243840Y-847800D01*
X1145420D01*
G01X1243840D02*
X1302900Y-1001250D01*
G01X1491880Y-683750D02*
X1586360D01*
G01X1539120D02*
Y-1001250D01*
G01X1491880D02*
X1586360D01*
G01X1775340Y-683750D02*
Y-1001250D01*
X1932820D01*
G01X2090300Y-683750D02*
Y-1001250D01*
X2247780D01*
G01X2885570Y-710210D02*
X2861950Y-694330D01*
X2834400Y-683750D01*
X2802900D01*
X2767460Y-699630D01*
X2739910Y-726080D01*
X2720220Y-757840D01*
X2704470Y-810750D01*
X2700530Y-858380D01*
X2708410Y-906000D01*
X2720220Y-937750D01*
X2743840Y-969510D01*
X2771400Y-990670D01*
X2798960Y-1001250D01*
X2826520D01*
X2854080Y-990670D01*
X2877700Y-974800D01*
X2897390Y-953640D01*
G01X3031240Y-1001250D02*
Y-683750D01*
G01X3196600D02*
Y-1001250D01*
G01Y-842500D02*
X3031240D01*
G01X3330450Y-1001250D02*
X3428880Y-683750D01*
X3527310Y-1001250D01*
G01X3491870Y-890130D02*
X3365880D01*
G01X3665100Y-1001250D02*
Y-683750D01*
X3763520D01*
X3795020Y-699630D01*
X3814710Y-720790D01*
X3822580Y-763130D01*
X3814710Y-805460D01*
X3791080Y-831910D01*
X3763520Y-847800D01*
X3665100D01*
G01X3763520D02*
X3822580Y-1001250D01*
G01X4058800Y-683750D02*
Y-1001250D01*
G01X3968250Y-683750D02*
X4149350D01*
G01X4373760Y-1011830D02*
X4365880Y-1006540D01*
Y-995960D01*
X4373760Y-990670D01*
X4381640Y-995960D01*
Y-1006540D01*
X4373760Y-1011830D01*
G01Y-868970D02*
X4365880Y-863670D01*
Y-853090D01*
X4373760Y-847800D01*
X4381640Y-853090D01*
Y-863670D01*
X4373760Y-868970D01*
G01X5003680Y-683750D02*
Y-1001250D01*
G01X4913130Y-683750D02*
X5094230D01*
G01X5318640Y-1001250D02*
X5287140Y-995960D01*
X5259590Y-974800D01*
X5235960Y-943040D01*
X5220210Y-906000D01*
X5212340Y-863670D01*
Y-821330D01*
X5220210Y-779000D01*
X5235960Y-741960D01*
X5259590Y-710210D01*
X5287140Y-689040D01*
X5318640Y-683750D01*
X5350130Y-689040D01*
X5377690Y-710210D01*
X5401320Y-741960D01*
X5417070Y-779000D01*
X5424940Y-821330D01*
Y-863670D01*
X5417070Y-906000D01*
X5401320Y-943040D01*
X5377690Y-974800D01*
X5350130Y-995960D01*
X5318640Y-1001250D01*
G01X5554860D02*
Y-683750D01*
X5649350D01*
X5680840Y-699630D01*
X5704470Y-736670D01*
X5712340Y-779000D01*
X5704470Y-821330D01*
X5684780Y-853090D01*
X5649350Y-868970D01*
X5554860D01*
G01X6263520Y-683750D02*
Y-1001250D01*
G01X6208400Y-789590D02*
X6318640D01*
G01X6578480Y-1001250D02*
X6554860Y-995960D01*
X6531240Y-974800D01*
X6515480Y-937750D01*
X6507610Y-895420D01*
X6515480Y-853090D01*
X6531240Y-816040D01*
X6554860Y-794880D01*
X6578480Y-789590D01*
X6602100Y-794880D01*
X6625720Y-816040D01*
X6641470Y-853090D01*
X6645410Y-895420D01*
X6641470Y-937750D01*
X6625720Y-974800D01*
X6602100Y-995960D01*
X6578480Y-1001250D01*
G01X7239890Y-831910D02*
X7255640Y-816040D01*
X7267450Y-789590D01*
X7275330Y-752540D01*
X7267450Y-720790D01*
X7251710Y-699630D01*
X7224150Y-683750D01*
X7117850D01*
Y-1001250D01*
X7247770D01*
X7275330Y-980090D01*
X7291080Y-948330D01*
X7298950Y-911290D01*
X7291080Y-874260D01*
X7267450Y-842500D01*
X7239890Y-831910D01*
X7117850D01*
G01X7523360Y-1001250D02*
X7491860Y-995960D01*
X7464310Y-974800D01*
X7440680Y-943040D01*
X7424930Y-906000D01*
X7417060Y-863670D01*
Y-821330D01*
X7424930Y-779000D01*
X7440680Y-741960D01*
X7464310Y-710210D01*
X7491860Y-689040D01*
X7523360Y-683750D01*
X7554850Y-689040D01*
X7582410Y-710210D01*
X7606040Y-741960D01*
X7621790Y-779000D01*
X7629660Y-821330D01*
Y-863670D01*
X7621790Y-906000D01*
X7606040Y-943040D01*
X7582410Y-974800D01*
X7554850Y-995960D01*
X7523360Y-1001250D01*
G01X7838320Y-683750D02*
Y-1001250D01*
G01X7747770Y-683750D02*
X7928870D01*
G01X8153280D02*
Y-1001250D01*
G01X8062730Y-683750D02*
X8243830D01*
G01X8468240Y-1001250D02*
X8436740Y-995960D01*
X8409190Y-974800D01*
X8385560Y-943040D01*
X8369810Y-906000D01*
X8361940Y-863670D01*
Y-821330D01*
X8369810Y-779000D01*
X8385560Y-741960D01*
X8409190Y-710210D01*
X8436740Y-689040D01*
X8468240Y-683750D01*
X8499730Y-689040D01*
X8527290Y-710210D01*
X8550920Y-741960D01*
X8566670Y-779000D01*
X8574540Y-821330D01*
Y-863670D01*
X8566670Y-906000D01*
X8550920Y-943040D01*
X8527290Y-974800D01*
X8499730Y-995960D01*
X8468240Y-1001250D01*
G01X8680830D02*
Y-683750D01*
X8783200Y-948330D01*
X8885570Y-683750D01*
Y-1001250D01*
G01X1424940Y-2286250D02*
Y-1968750D01*
X1574560D01*
G01X1519430Y-2122200D02*
X1424940D01*
G01X1767470Y-1968750D02*
X1861950D01*
G01X1814710D02*
Y-2286250D01*
G01X1767470D02*
X1861950D01*
G01X2039120D02*
Y-1968750D01*
X2220220Y-2286250D01*
Y-1968750D01*
G01X2397390D02*
X2491870D01*
G01X2444630D02*
Y-2286250D01*
G01X2397390D02*
X2491870D01*
G01X2676910Y-2243930D02*
X2708410Y-2270380D01*
X2743840Y-2286250D01*
X2775340D01*
X2806830Y-2270380D01*
X2830460Y-2243930D01*
X2842270Y-2206870D01*
X2834400Y-2169840D01*
X2814710Y-2138090D01*
X2779270Y-2116910D01*
X2732030Y-2106330D01*
X2704470Y-2085170D01*
X2692660Y-2048130D01*
X2700540Y-2011080D01*
X2720220Y-1984630D01*
X2747780Y-1968750D01*
X2775340D01*
X2802900Y-1979330D01*
X2826520Y-2005790D01*
G01X2991870Y-2286250D02*
Y-1968750D01*
G01X3157230D02*
Y-2286250D01*
G01Y-2127500D02*
X2991870D01*
G01X3468250Y-2286250D02*
X3310770D01*
Y-1968750D01*
X3468250D01*
G01X3405260Y-2122200D02*
X3310770D01*
G01X3617860Y-2286250D02*
Y-1968750D01*
X3696590D01*
X3728090Y-1984630D01*
X3751710Y-2005790D01*
X3771400Y-2037540D01*
X3787150Y-2074590D01*
X3791080Y-2127500D01*
X3787150Y-2180420D01*
X3771400Y-2217460D01*
X3751710Y-2249220D01*
X3728090Y-2270380D01*
X3696590Y-2286250D01*
X3617860D01*
G01X3901320Y-2392080D02*
X4137540D01*
G01X4251710Y-2243930D02*
X4283210Y-2270380D01*
X4318640Y-2286250D01*
X4350140D01*
X4381630Y-2270380D01*
X4405260Y-2243930D01*
X4417070Y-2206870D01*
X4409200Y-2169840D01*
X4389510Y-2138090D01*
X4354070Y-2116910D01*
X4306830Y-2106330D01*
X4279270Y-2085170D01*
X4267460Y-2048130D01*
X4275340Y-2011080D01*
X4295020Y-1984630D01*
X4322580Y-1968750D01*
X4350140D01*
X4377700Y-1979330D01*
X4401320Y-2005790D01*
G01X4602110Y-1968750D02*
X4696590D01*
G01X4649350D02*
Y-2286250D01*
G01X4602110D02*
X4696590D01*
G01X4889500Y-1968750D02*
X5039120D01*
X4889500Y-2286250D01*
X5039120D01*
G01X5358010D02*
X5200530D01*
Y-1968750D01*
X5358010D01*
G01X5295020Y-2122200D02*
X5200530D01*
G01X2602110Y-4826250D02*
Y-4508750D01*
X2554870Y-4572250D01*
G01Y-4826250D02*
X2649350D01*
G01X2917070Y-4836830D02*
X2909190Y-4831540D01*
Y-4820960D01*
X2917070Y-4815670D01*
X2924950Y-4820960D01*
Y-4831540D01*
X2917070Y-4836830D01*
G01X3145420Y-4762750D02*
X3169030Y-4799800D01*
X3200530Y-4820960D01*
X3235970Y-4826250D01*
X3267470Y-4820960D01*
X3298960Y-4794510D01*
X3318640Y-4762750D01*
X3322580Y-4731000D01*
X3314710Y-4693970D01*
X3287150Y-4667500D01*
X3259590Y-4656910D01*
X3224150D01*
G01X3259590D02*
X3283210Y-4641040D01*
X3302900Y-4614590D01*
X3310770Y-4582840D01*
X3302900Y-4551080D01*
X3283210Y-4524630D01*
X3247780Y-4508750D01*
X3212350Y-4514040D01*
X3176910Y-4535210D01*
G01X3539110Y-4826250D02*
X3546990Y-4757460D01*
X3558800Y-4699260D01*
X3574550Y-4646330D01*
X3594230Y-4588130D01*
X3625730Y-4508750D01*
X3468250D01*
G01X3861950Y-4826250D02*
Y-4508750D01*
X3814710Y-4572250D01*
G01Y-4826250D02*
X3909190D01*
G01X4102100Y-4693970D02*
X4129670Y-4656910D01*
X4153290Y-4635750D01*
X4184790Y-4625170D01*
X4212350Y-4635750D01*
X4232030Y-4656910D01*
X4247780Y-4688670D01*
X4251720Y-4725710D01*
X4247780Y-4757460D01*
X4232030Y-4789220D01*
X4208400Y-4815670D01*
X4180850Y-4826250D01*
X4149350Y-4815670D01*
X4121790Y-4783930D01*
X4106040Y-4736290D01*
X4102100Y-4683380D01*
X4109980Y-4614590D01*
X4121790Y-4577540D01*
X4141470Y-4540500D01*
X4169030Y-4514040D01*
X4196590Y-4508750D01*
X4224150Y-4519330D01*
X4243840Y-4545790D01*
G01X2602110Y-4191250D02*
Y-3873750D01*
X2554870Y-3937250D01*
G01Y-4191250D02*
X2649350D01*
G01X2917070Y-4201830D02*
X2909190Y-4196540D01*
Y-4185960D01*
X2917070Y-4180670D01*
X2924950Y-4185960D01*
Y-4196540D01*
X2917070Y-4201830D01*
G01X3232030Y-3873750D02*
X3200530Y-3884330D01*
X3176910Y-3910790D01*
X3161160Y-3942540D01*
X3149350Y-3984880D01*
X3145420Y-4032500D01*
X3149350Y-4080130D01*
X3161160Y-4122460D01*
X3176910Y-4154220D01*
X3200530Y-4180670D01*
X3232030Y-4191250D01*
X3263520Y-4180670D01*
X3287150Y-4154220D01*
X3302900Y-4122460D01*
X3314710Y-4080130D01*
X3318640Y-4032500D01*
X3314710Y-3984880D01*
X3302900Y-3942540D01*
X3287150Y-3910790D01*
X3263520Y-3884330D01*
X3232030Y-3873750D01*
G01X3472180Y-4058970D02*
X3499750Y-4021910D01*
X3523370Y-4000750D01*
X3554870Y-3990170D01*
X3582430Y-4000750D01*
X3602110Y-4021910D01*
X3617860Y-4053670D01*
X3621800Y-4090710D01*
X3617860Y-4122460D01*
X3602110Y-4154220D01*
X3578480Y-4180670D01*
X3550930Y-4191250D01*
X3519430Y-4180670D01*
X3491870Y-4148930D01*
X3476120Y-4101290D01*
X3472180Y-4048380D01*
X3480060Y-3979590D01*
X3491870Y-3942540D01*
X3511550Y-3905500D01*
X3539110Y-3879040D01*
X3566670Y-3873750D01*
X3594230Y-3884330D01*
X3613920Y-3910790D01*
G01X3787140Y-4058970D02*
X3814710Y-4021910D01*
X3838330Y-4000750D01*
X3869830Y-3990170D01*
X3897390Y-4000750D01*
X3917070Y-4021910D01*
X3932820Y-4053670D01*
X3936760Y-4090710D01*
X3932820Y-4122460D01*
X3917070Y-4154220D01*
X3893440Y-4180670D01*
X3865890Y-4191250D01*
X3834390Y-4180670D01*
X3806830Y-4148930D01*
X3791080Y-4101290D01*
X3787140Y-4048380D01*
X3795020Y-3979590D01*
X3806830Y-3942540D01*
X3826510Y-3905500D01*
X3854070Y-3879040D01*
X3881630Y-3873750D01*
X3909190Y-3884330D01*
X3928880Y-3910790D01*
G01X4176910Y-4191250D02*
X4204470Y-4185960D01*
X4235960Y-4170090D01*
X4255650Y-4143640D01*
X4263520Y-4106580D01*
X4255650Y-4069550D01*
X4232030Y-4037800D01*
X4196590Y-4021910D01*
X4157230D01*
X4133600Y-4011330D01*
X4113910Y-3984880D01*
X4106040Y-3947840D01*
X4117860Y-3910790D01*
X4145410Y-3884330D01*
X4176910Y-3873750D01*
X4208400Y-3884330D01*
X4235960Y-3910790D01*
X4247780Y-3947840D01*
X4239900Y-3984880D01*
X4220220Y-4011330D01*
X4196590Y-4021910D01*
X4157230D01*
X4121790Y-4037800D01*
X4098170Y-4069550D01*
X4090300Y-4106580D01*
X4098170Y-4143640D01*
X4117860Y-4170090D01*
X4149350Y-4185960D01*
X4176910Y-4191250D01*
G01X2602110Y-3238750D02*
X2570610Y-3249330D01*
X2546990Y-3275790D01*
X2531240Y-3307540D01*
X2519430Y-3349880D01*
X2515500Y-3397500D01*
X2519430Y-3445130D01*
X2531240Y-3487460D01*
X2546990Y-3519220D01*
X2570610Y-3545670D01*
X2602110Y-3556250D01*
X2633600Y-3545670D01*
X2657230Y-3519220D01*
X2672980Y-3487460D01*
X2684790Y-3445130D01*
X2688720Y-3397500D01*
X2684790Y-3349880D01*
X2672980Y-3307540D01*
X2657230Y-3275790D01*
X2633600Y-3249330D01*
X2602110Y-3238750D01*
G01X2917070Y-3566830D02*
X2909190Y-3561540D01*
Y-3550960D01*
X2917070Y-3545670D01*
X2924950Y-3550960D01*
Y-3561540D01*
X2917070Y-3566830D01*
G01X3165100Y-3519220D02*
X3192660Y-3545670D01*
X3224150Y-3556250D01*
X3255650Y-3545670D01*
X3283210Y-3513930D01*
X3302900Y-3466290D01*
X3310770Y-3418670D01*
Y-3360460D01*
X3302900Y-3312840D01*
X3283210Y-3270500D01*
X3259590Y-3249330D01*
X3232030Y-3238750D01*
X3200530Y-3249330D01*
X3176910Y-3270500D01*
X3161160Y-3302250D01*
X3153290Y-3344590D01*
X3161160Y-3381620D01*
X3180850Y-3418670D01*
X3204470Y-3439840D01*
X3232030Y-3445130D01*
X3263520Y-3434550D01*
X3287150Y-3408090D01*
X3310770Y-3360460D01*
G01X3546990Y-3556250D02*
Y-3238750D01*
X3499750Y-3302250D01*
G01Y-3556250D02*
X3594230D01*
G01X3909190D02*
Y-3238750D01*
X3763520Y-3466290D01*
X3960380D01*
G01X4224150Y-3556250D02*
Y-3238750D01*
X4078480Y-3466290D01*
X4275340D01*
G01X2602110Y-2603750D02*
X2570610Y-2614330D01*
X2546990Y-2640790D01*
X2531240Y-2672540D01*
X2519430Y-2714880D01*
X2515500Y-2762500D01*
X2519430Y-2810130D01*
X2531240Y-2852460D01*
X2546990Y-2884220D01*
X2570610Y-2910670D01*
X2602110Y-2921250D01*
X2633600Y-2910670D01*
X2657230Y-2884220D01*
X2672980Y-2852460D01*
X2684790Y-2810130D01*
X2688720Y-2762500D01*
X2684790Y-2714880D01*
X2672980Y-2672540D01*
X2657230Y-2640790D01*
X2633600Y-2614330D01*
X2602110Y-2603750D01*
G01X2917070Y-2931830D02*
X2909190Y-2926540D01*
Y-2915960D01*
X2917070Y-2910670D01*
X2924950Y-2915960D01*
Y-2926540D01*
X2917070Y-2931830D01*
G01X3224150Y-2921250D02*
X3232030Y-2852460D01*
X3243840Y-2794260D01*
X3259590Y-2741330D01*
X3279270Y-2683130D01*
X3310770Y-2603750D01*
X3153290D01*
G01X3546990Y-2921250D02*
X3574550Y-2915960D01*
X3606040Y-2900090D01*
X3625730Y-2873640D01*
X3633600Y-2836580D01*
X3625730Y-2799550D01*
X3602110Y-2767800D01*
X3566670Y-2751910D01*
X3527310D01*
X3503680Y-2741330D01*
X3483990Y-2714880D01*
X3476120Y-2677840D01*
X3487940Y-2640790D01*
X3515490Y-2614330D01*
X3546990Y-2603750D01*
X3578480Y-2614330D01*
X3606040Y-2640790D01*
X3617860Y-2677840D01*
X3609980Y-2714880D01*
X3590300Y-2741330D01*
X3566670Y-2751910D01*
X3527310D01*
X3491870Y-2767800D01*
X3468250Y-2799550D01*
X3460380Y-2836580D01*
X3468250Y-2873640D01*
X3487940Y-2900090D01*
X3519430Y-2915960D01*
X3546990Y-2921250D01*
G01X3854070D02*
X3861950Y-2852460D01*
X3873760Y-2794260D01*
X3889510Y-2741330D01*
X3909190Y-2683130D01*
X3940690Y-2603750D01*
X3783210D01*
G01X4224150Y-2921250D02*
Y-2603750D01*
X4078480Y-2831290D01*
X4275340D01*
G01X2987940Y-5397750D02*
X3011550Y-5434800D01*
X3043050Y-5455960D01*
X3078490Y-5461250D01*
X3109990Y-5455960D01*
X3141480Y-5429510D01*
X3161160Y-5397750D01*
X3165100Y-5366000D01*
X3157230Y-5328970D01*
X3129670Y-5302500D01*
X3102110Y-5291910D01*
X3066670D01*
G01X3102110D02*
X3125730Y-5276040D01*
X3145420Y-5249590D01*
X3153290Y-5217840D01*
X3145420Y-5186080D01*
X3125730Y-5159630D01*
X3090300Y-5143750D01*
X3054870Y-5149040D01*
X3019430Y-5170210D01*
G01X3389510Y-5471830D02*
X3381630Y-5466540D01*
Y-5455960D01*
X3389510Y-5450670D01*
X3397390Y-5455960D01*
Y-5466540D01*
X3389510Y-5471830D01*
G01X3704470Y-5143750D02*
X3672970Y-5154330D01*
X3649350Y-5180790D01*
X3633600Y-5212540D01*
X3621790Y-5254880D01*
X3617860Y-5302500D01*
X3621790Y-5350130D01*
X3633600Y-5392460D01*
X3649350Y-5424220D01*
X3672970Y-5450670D01*
X3704470Y-5461250D01*
X3735960Y-5450670D01*
X3759590Y-5424220D01*
X3775340Y-5392460D01*
X3787150Y-5350130D01*
X3791080Y-5302500D01*
X3787150Y-5254880D01*
X3775340Y-5212540D01*
X3759590Y-5180790D01*
X3735960Y-5154330D01*
X3704470Y-5143750D01*
G01X4819500Y8821250D02*
Y9011750D01*
X4791050Y8973650D01*
G01Y8821250D02*
X4847940D01*
G01X5010000Y9011750D02*
X4991030Y9005400D01*
X4976810Y8989520D01*
X4967330Y8970480D01*
X4960220Y8945070D01*
X4957850Y8916500D01*
X4960220Y8887920D01*
X4967330Y8862520D01*
X4976810Y8843470D01*
X4991030Y8827600D01*
X5010000Y8821250D01*
X5028960Y8827600D01*
X5043190Y8843470D01*
X5052670Y8862520D01*
X5059780Y8887920D01*
X5062150Y8916500D01*
X5059780Y8945070D01*
X5052670Y8970480D01*
X5043190Y8989520D01*
X5028960Y9005400D01*
X5010000Y9011750D01*
G01X5200500D02*
X5181530Y9005400D01*
X5167310Y8989520D01*
X5157830Y8970480D01*
X5150720Y8945070D01*
X5148350Y8916500D01*
X5150720Y8887920D01*
X5157830Y8862520D01*
X5167310Y8843470D01*
X5181530Y8827600D01*
X5200500Y8821250D01*
X5219460Y8827600D01*
X5233690Y8843470D01*
X5243170Y8862520D01*
X5250280Y8887920D01*
X5252650Y8916500D01*
X5250280Y8945070D01*
X5243170Y8970480D01*
X5233690Y8989520D01*
X5219460Y9005400D01*
X5200500Y9011750D01*
G01X5010000Y8726000D02*
X10000000D01*
G01X6054860Y-5461250D02*
Y-5143750D01*
X6235960Y-5461250D01*
Y-5143750D01*
G01X6460370Y-5461250D02*
X6428870Y-5455960D01*
X6401320Y-5434800D01*
X6377690Y-5403040D01*
X6361940Y-5366000D01*
X6354070Y-5323670D01*
Y-5281330D01*
X6361940Y-5239000D01*
X6377690Y-5201960D01*
X6401320Y-5170210D01*
X6428870Y-5149040D01*
X6460370Y-5143750D01*
X6491860Y-5149040D01*
X6519420Y-5170210D01*
X6543050Y-5201960D01*
X6558800Y-5239000D01*
X6566670Y-5281330D01*
Y-5323670D01*
X6558800Y-5366000D01*
X6543050Y-5403040D01*
X6519420Y-5434800D01*
X6491860Y-5455960D01*
X6460370Y-5461250D01*
G01X6684780D02*
Y-5143750D01*
X6865880Y-5461250D01*
Y-5143750D01*
G01X7039110Y-5355420D02*
X7141470D01*
G01X7326510Y-5461250D02*
Y-5143750D01*
X7421000D01*
X7452490Y-5159630D01*
X7476120Y-5196670D01*
X7483990Y-5239000D01*
X7476120Y-5281330D01*
X7456430Y-5313090D01*
X7421000Y-5328970D01*
X7326510D01*
G01X7641470Y-5143750D02*
Y-5461250D01*
X7798950D01*
G01X7936740D02*
X8035170Y-5143750D01*
X8133600Y-5461250D01*
G01X8098160Y-5350130D02*
X7972170D01*
G01X8350130Y-5143750D02*
Y-5461250D01*
G01X8259580Y-5143750D02*
X8440680D01*
G01X8743830Y-5461250D02*
X8586350D01*
Y-5143750D01*
X8743830D01*
G01X8680840Y-5297200D02*
X8586350D01*
G01X8893440Y-5461250D02*
Y-5143750D01*
X8972170D01*
X9003670Y-5159630D01*
X9027290Y-5180790D01*
X9046980Y-5212540D01*
X9062730Y-5249590D01*
X9066660Y-5302500D01*
X9062730Y-5355420D01*
X9046980Y-5392460D01*
X9027290Y-5424220D01*
X9003670Y-5445380D01*
X8972170Y-5461250D01*
X8893440D01*
G01X5948560Y-1810000D02*
Y-5620000D01*
G01X6696590Y-4826250D02*
Y-4508750D01*
X6791080D01*
X6822570Y-4524630D01*
X6846200Y-4561670D01*
X6854070Y-4604000D01*
X6846200Y-4646330D01*
X6826510Y-4678090D01*
X6791080Y-4693970D01*
X6696590D01*
G01X7011550Y-4508750D02*
Y-4826250D01*
X7169030D01*
G01X7306820D02*
X7405250Y-4508750D01*
X7503680Y-4826250D01*
G01X7468240Y-4715130D02*
X7342250D01*
G01X7720210Y-4508750D02*
Y-4826250D01*
G01X7629660Y-4508750D02*
X7810760D01*
G01X8113910Y-4826250D02*
X7956430D01*
Y-4508750D01*
X8113910D01*
G01X8050920Y-4662200D02*
X7956430D01*
G01X8263520Y-4826250D02*
Y-4508750D01*
X8342250D01*
X8373750Y-4524630D01*
X8397370Y-4545790D01*
X8417060Y-4577540D01*
X8432810Y-4614590D01*
X8436740Y-4667500D01*
X8432810Y-4720420D01*
X8417060Y-4757460D01*
X8397370Y-4789220D01*
X8373750Y-4810380D01*
X8342250Y-4826250D01*
X8263520D01*
G01X6696590Y-4191250D02*
Y-3873750D01*
X6791080D01*
X6822570Y-3889630D01*
X6846200Y-3926670D01*
X6854070Y-3969000D01*
X6846200Y-4011330D01*
X6826510Y-4043090D01*
X6791080Y-4058970D01*
X6696590D01*
G01X7011550Y-3873750D02*
Y-4191250D01*
X7169030D01*
G01X7306820D02*
X7405250Y-3873750D01*
X7503680Y-4191250D01*
G01X7468240Y-4080130D02*
X7342250D01*
G01X7720210Y-3873750D02*
Y-4191250D01*
G01X7629660Y-3873750D02*
X7810760D01*
G01X8113910Y-4191250D02*
X7956430D01*
Y-3873750D01*
X8113910D01*
G01X8050920Y-4027200D02*
X7956430D01*
G01X8263520Y-4191250D02*
Y-3873750D01*
X8342250D01*
X8373750Y-3889630D01*
X8397370Y-3910790D01*
X8417060Y-3942540D01*
X8432810Y-3979590D01*
X8436740Y-4032500D01*
X8432810Y-4085420D01*
X8417060Y-4122460D01*
X8397370Y-4154220D01*
X8373750Y-4175380D01*
X8342250Y-4191250D01*
X8263520D01*
G01X6696590Y-3556250D02*
Y-3238750D01*
X6791080D01*
X6822570Y-3254630D01*
X6846200Y-3291670D01*
X6854070Y-3334000D01*
X6846200Y-3376330D01*
X6826510Y-3408090D01*
X6791080Y-3423970D01*
X6696590D01*
G01X7011550Y-3238750D02*
Y-3556250D01*
X7169030D01*
G01X7306820D02*
X7405250Y-3238750D01*
X7503680Y-3556250D01*
G01X7468240Y-3445130D02*
X7342250D01*
G01X7720210Y-3238750D02*
Y-3556250D01*
G01X7629660Y-3238750D02*
X7810760D01*
G01X8113910Y-3556250D02*
X7956430D01*
Y-3238750D01*
X8113910D01*
G01X8050920Y-3392200D02*
X7956430D01*
G01X8263520Y-3556250D02*
Y-3238750D01*
X8342250D01*
X8373750Y-3254630D01*
X8397370Y-3275790D01*
X8417060Y-3307540D01*
X8432810Y-3344590D01*
X8436740Y-3397500D01*
X8432810Y-3450420D01*
X8417060Y-3487460D01*
X8397370Y-3519220D01*
X8373750Y-3540380D01*
X8342250Y-3556250D01*
X8263520D01*
G01X6696590Y-2921250D02*
Y-2603750D01*
X6791080D01*
X6822570Y-2619630D01*
X6846200Y-2656670D01*
X6854070Y-2699000D01*
X6846200Y-2741330D01*
X6826510Y-2773090D01*
X6791080Y-2788970D01*
X6696590D01*
G01X7011550Y-2603750D02*
Y-2921250D01*
X7169030D01*
G01X7306820D02*
X7405250Y-2603750D01*
X7503680Y-2921250D01*
G01X7468240Y-2810130D02*
X7342250D01*
G01X7720210Y-2603750D02*
Y-2921250D01*
G01X7629660Y-2603750D02*
X7810760D01*
G01X8113910Y-2921250D02*
X7956430D01*
Y-2603750D01*
X8113910D01*
G01X8050920Y-2757200D02*
X7956430D01*
G01X8263520Y-2921250D02*
Y-2603750D01*
X8342250D01*
X8373750Y-2619630D01*
X8397370Y-2640790D01*
X8417060Y-2672540D01*
X8432810Y-2709590D01*
X8436740Y-2762500D01*
X8432810Y-2815420D01*
X8417060Y-2852460D01*
X8397370Y-2884220D01*
X8373750Y-2905380D01*
X8342250Y-2921250D01*
X8263520D01*
G01X6696590Y-2286250D02*
Y-1968750D01*
X6791080D01*
X6822570Y-1984630D01*
X6846200Y-2021670D01*
X6854070Y-2064000D01*
X6846200Y-2106330D01*
X6826510Y-2138090D01*
X6791080Y-2153970D01*
X6696590D01*
G01X7011550Y-1968750D02*
Y-2286250D01*
X7169030D01*
G01X7306820D02*
X7405250Y-1968750D01*
X7503680Y-2286250D01*
G01X7468240Y-2175130D02*
X7342250D01*
G01X7720210Y-1968750D02*
Y-2286250D01*
G01X7629660Y-1968750D02*
X7810760D01*
G01X8113910Y-2286250D02*
X7956430D01*
Y-1968750D01*
X8113910D01*
G01X8050920Y-2122200D02*
X7956430D01*
G01X8263520Y-2286250D02*
Y-1968750D01*
X8342250D01*
X8373750Y-1984630D01*
X8397370Y-2005790D01*
X8417060Y-2037540D01*
X8432810Y-2074590D01*
X8436740Y-2127500D01*
X8432810Y-2180420D01*
X8417060Y-2217460D01*
X8397370Y-2249220D01*
X8373750Y-2270380D01*
X8342250Y-2286250D01*
X8263520D01*
G01X9176900Y-1810000D02*
Y-5620000D01*
G01X10208390Y-5461250D02*
Y-5143750D01*
X10062720Y-5371290D01*
X10259580D01*
G01X10074540Y-4762750D02*
X10098150Y-4799800D01*
X10129650Y-4820960D01*
X10165090Y-4826250D01*
X10196590Y-4820960D01*
X10228080Y-4794510D01*
X10247760Y-4762750D01*
X10251700Y-4731000D01*
X10243830Y-4693970D01*
X10216270Y-4667500D01*
X10188710Y-4656910D01*
X10153270D01*
G01X10188710D02*
X10212330Y-4641040D01*
X10232020Y-4614590D01*
X10239890Y-4582840D01*
X10232020Y-4551080D01*
X10212330Y-4524630D01*
X10176900Y-4508750D01*
X10141470Y-4514040D01*
X10106030Y-4535210D01*
G01X9917060Y-4127750D02*
X9940670Y-4164800D01*
X9972170Y-4185960D01*
X10007610Y-4191250D01*
X10039110Y-4185960D01*
X10070600Y-4159510D01*
X10090280Y-4127750D01*
X10094220Y-4096000D01*
X10086350Y-4058970D01*
X10058790Y-4032500D01*
X10031230Y-4021910D01*
X9995790D01*
G01X10031230D02*
X10054850Y-4006040D01*
X10074540Y-3979590D01*
X10082410Y-3947840D01*
X10074540Y-3916080D01*
X10054850Y-3889630D01*
X10019420Y-3873750D01*
X9983990Y-3879040D01*
X9948550Y-3900210D01*
G01X10243820Y-4058970D02*
X10271390Y-4021910D01*
X10295010Y-4000750D01*
X10326510Y-3990170D01*
X10354070Y-4000750D01*
X10373750Y-4021910D01*
X10389500Y-4053670D01*
X10393440Y-4090710D01*
X10389500Y-4122460D01*
X10373750Y-4154220D01*
X10350120Y-4180670D01*
X10322570Y-4191250D01*
X10291070Y-4180670D01*
X10263510Y-4148930D01*
X10247760Y-4101290D01*
X10243820Y-4048380D01*
X10251700Y-3979590D01*
X10263510Y-3942540D01*
X10283190Y-3905500D01*
X10310750Y-3879040D01*
X10338310Y-3873750D01*
X10365870Y-3884330D01*
X10385560Y-3910790D01*
G01X9928860Y-3291670D02*
X9952490Y-3259920D01*
X9980050Y-3244040D01*
X10011550Y-3238750D01*
X10050910Y-3249330D01*
X10078480Y-3275790D01*
X10086350Y-3307540D01*
X10082410Y-3339300D01*
X10066660Y-3365750D01*
X9987920Y-3418670D01*
X9952490Y-3455710D01*
X9928860Y-3508640D01*
X9920990Y-3556250D01*
X10086350D01*
G01X10243820Y-3423970D02*
X10271390Y-3386910D01*
X10295010Y-3365750D01*
X10326510Y-3355170D01*
X10354070Y-3365750D01*
X10373750Y-3386910D01*
X10389500Y-3418670D01*
X10393440Y-3455710D01*
X10389500Y-3487460D01*
X10373750Y-3519220D01*
X10350120Y-3545670D01*
X10322570Y-3556250D01*
X10291070Y-3545670D01*
X10263510Y-3513930D01*
X10247760Y-3466290D01*
X10243820Y-3413380D01*
X10251700Y-3344590D01*
X10263510Y-3307540D01*
X10283190Y-3270500D01*
X10310750Y-3244040D01*
X10338310Y-3238750D01*
X10365870Y-3249330D01*
X10385560Y-3275790D01*
G01X10003670Y-2921250D02*
Y-2603750D01*
X9956430Y-2667250D01*
G01Y-2921250D02*
X10050910D01*
G01X10318630D02*
X10346190Y-2915960D01*
X10377680Y-2900090D01*
X10397370Y-2873640D01*
X10405240Y-2836580D01*
X10397370Y-2799550D01*
X10373750Y-2767800D01*
X10338310Y-2751910D01*
X10298950D01*
X10275320Y-2741330D01*
X10255630Y-2714880D01*
X10247760Y-2677840D01*
X10259580Y-2640790D01*
X10287130Y-2614330D01*
X10318630Y-2603750D01*
X10350120Y-2614330D01*
X10377680Y-2640790D01*
X10389500Y-2677840D01*
X10381620Y-2714880D01*
X10361940Y-2741330D01*
X10338310Y-2751910D01*
X10298950D01*
X10263510Y-2767800D01*
X10239890Y-2799550D01*
X10232020Y-2836580D01*
X10239890Y-2873640D01*
X10259580Y-2900090D01*
X10291070Y-2915960D01*
X10318630Y-2921250D01*
G01X9846190Y-2286250D02*
X9814690Y-2280960D01*
X9787140Y-2259800D01*
X9763510Y-2228040D01*
X9747760Y-2191000D01*
X9739890Y-2148670D01*
Y-2106330D01*
X9747760Y-2064000D01*
X9763510Y-2026960D01*
X9787140Y-1995210D01*
X9814690Y-1974040D01*
X9846190Y-1968750D01*
X9877680Y-1974040D01*
X9905240Y-1995210D01*
X9928870Y-2026960D01*
X9944620Y-2064000D01*
X9952490Y-2106330D01*
Y-2148670D01*
X9944620Y-2191000D01*
X9928870Y-2228040D01*
X9905240Y-2259800D01*
X9877680Y-2280960D01*
X9846190Y-2286250D01*
G01X9877680Y-2201580D02*
X9924930Y-2286250D01*
G01X10161150Y-1968750D02*
Y-2286250D01*
G01X10070600Y-1968750D02*
X10251700D01*
G01X10476110Y-2286250D02*
Y-2143380D01*
X10397370Y-1968750D01*
G01X10554850D02*
X10476110Y-2143380D01*
G01X10000000Y5083720D02*
Y8976000D01*
G01X9600000Y8663500D02*
X10000000Y8726000D01*
X9600000Y8788500D01*
Y8663500D01*
M02*
