G04 ================== begin FILE IDENTIFICATION RECORD ==================*
G04 Layout Name:  D:/ORCAD/B07_EX01/allegro/B07_EX01.brd*
G04 Film Name:    SolderMask_TOP*
G04 File Format:  Gerber RS274X*
G04 File Origin:  Cadence Allegro 17.2-S073*
G04 Origin Date:  Fri Dec 08 10:57:12 2023*
G04 *
G04 Layer:  PIN/SOLDERMASK_TOP*
G04 Layer:  PACKAGE GEOMETRY/SOLDERMASK_TOP*
G04 Layer:  BOARD GEOMETRY/SOLDERMASK_TOP*
G04 Layer:  BOARD GEOMETRY/DESIGN_OUTLINE*
G04 *
G04 Offset:    (0.0000 0.0000)*
G04 Mirror:    No*
G04 Mode:      Positive*
G04 Rotation:  0*
G04 FullContactRelief:  No*
G04 UndefLineWidth:     0.2000*
G04 ================== end FILE IDENTIFICATION RECORD ====================*
%FSLAX25Y25*MOMM*%
%IR0*IPPOS*OFA0.00000B0.00000*MIA0B0*SFA1.00000B1.00000*%
%ADD15O,1.524X1.016*%
%ADD17O,1.016X1.524*%
%ADD14R,1.524X1.016*%
%ADD16R,1.016X1.524*%
%ADD11C,2.032*%
%ADD12C,1.905*%
%ADD10C,3.683*%
%ADD13R,1.905X1.905*%
%ADD18C,.2*%
G75*
%LPD*%
G75*
G54D10*
X300000Y300000D03*
Y6700000D03*
X9700000Y300000D03*
Y6700000D03*
G54D11*
X825500Y825500D03*
Y1841500D03*
X875000Y3270000D03*
Y4286000D03*
X1587500Y825500D03*
Y1841500D03*
X1663000Y3294000D03*
Y4310000D03*
X1714500Y5207000D03*
Y6223000D03*
X3931000Y5222000D03*
Y6238000D03*
X5207000Y1016000D03*
Y762000D03*
Y1968500D03*
Y2984500D03*
Y3556000D03*
Y4572000D03*
Y5334000D03*
Y5588000D03*
X6089000Y1948000D03*
Y2964000D03*
X6096000Y3619500D03*
X6113000Y5185000D03*
X6096000Y4635500D03*
X6113000Y6201000D03*
X6985000Y1016000D03*
Y762000D03*
X6986000Y1948000D03*
Y2964000D03*
X7048500Y5207000D03*
Y5461000D03*
X7956000Y2009000D03*
Y3025000D03*
Y5161000D03*
Y6177000D03*
G54D12*
X889000Y5232400D03*
X2667000Y2286000D03*
X2413000D03*
X2667000Y3937000D03*
X2413000D03*
X3846000Y1847600D03*
X3543000Y2873000D03*
Y3127000D03*
Y3381000D03*
Y3635000D03*
Y3889000D03*
Y4143000D03*
X4305000Y2873000D03*
Y3127000D03*
Y3381000D03*
Y3635000D03*
Y3889000D03*
Y4143000D03*
Y4397000D03*
X8001000Y4254500D03*
Y4508500D03*
X9144000Y2222500D03*
Y2476500D03*
Y4445000D03*
Y4699000D03*
G54D13*
X889000Y6223000D03*
X3846000Y857000D03*
X3543000Y4397000D03*
X9144000Y4191000D03*
G54D14*
X2540000Y889000D03*
Y5969000D03*
X6985000Y4508500D03*
X7048500Y6096000D03*
G54D15*
X2540000Y1016000D03*
Y1143000D03*
Y6096000D03*
Y6223000D03*
X6985000Y4381500D03*
Y4254500D03*
X7048500Y6223000D03*
Y6350000D03*
G54D16*
X6286500Y889000D03*
X8128000D03*
G54D17*
X6159500D03*
X6032500D03*
X8001000D03*
X7874000D03*
G54D18*
G01X10000000Y0D02*
Y7000000D01*
X0D01*
Y0D01*
X10000000D01*
M02*
