G04 ================== begin FILE IDENTIFICATION RECORD ==================*
G04 Layout Name:  D:/ORCAD/B07_0925/allegro/B07_0925.brd*
G04 Film Name:    BOTTOM*
G04 File Format:  Gerber RS274X*
G04 File Origin:  Cadence Allegro 17.2-S073*
G04 Origin Date:  Fri Oct 06 10:54:09 2023*
G04 *
G04 Layer:  BOARD GEOMETRY/DESIGN_OUTLINE*
G04 Layer:  ETCH/BOTTOM*
G04 Layer:  PIN/BOTTOM*
G04 Layer:  VIA CLASS/BOTTOM*
G04 *
G04 Offset:    (0.0000 0.0000)*
G04 Mirror:    No*
G04 Mode:      Positive*
G04 Rotation:  0*
G04 FullContactRelief:  No*
G04 UndefLineWidth:     0.2000*
G04 ================== end FILE IDENTIFICATION RECORD ====================*
%FSLAX35Y35*MOMM*%
%IR0*IPPOS*OFA0.00000B0.00000*MIA0B0*SFA1.00000B1.00000*%
%ADD10C,.635*%
%ADD15O,1.016X1.524*%
%ADD14R,1.016X1.524*%
%ADD11C,1.524*%
%ADD12C,1.651*%
%ADD13R,1.524X1.524*%
%ADD16C,.5*%
%ADD17C,1.*%
%ADD18C,.2*%
G75*
%LPD*%
G75*
G54D10*
X250000Y250000D03*
Y4750000D03*
X11750000Y250000D03*
Y4750000D03*
G54D11*
X825500Y2603500D03*
X2603500Y2222500D03*
Y2984500D03*
X2349500D03*
X3238500Y1625600D03*
X3111500Y2222500D03*
X2857500D03*
X3111500Y2984500D03*
X2857500D03*
X4000500Y596900D03*
X8636000Y533400D03*
X8808000Y2250000D03*
X8554000D03*
X8808000Y3012000D03*
X8554000D03*
X8300000D03*
X9062000Y2250000D03*
Y3012000D03*
X10731500Y952500D03*
Y1206500D03*
Y4127500D03*
Y3873500D03*
X11303000Y1651000D03*
Y2730500D03*
Y2476500D03*
Y2984500D03*
G54D12*
X825500Y4254500D03*
Y4000500D03*
X1270000Y571500D03*
Y1587500D03*
X2413000Y635000D03*
Y1651000D03*
X2222500Y4254500D03*
Y4000500D03*
X3492500Y3429000D03*
Y4445000D03*
X4445000Y3365500D03*
Y4381500D03*
X5524500Y3429000D03*
Y4445000D03*
X6286500Y3429000D03*
Y4445000D03*
X6800000Y500000D03*
Y1516000D03*
X7700000Y500000D03*
Y1516000D03*
X7556500Y3429000D03*
Y4445000D03*
X8636000Y4127500D03*
Y3873500D03*
X9525000Y1206500D03*
Y952500D03*
X9588500Y4127500D03*
Y3873500D03*
G54D13*
X2349500Y2222500D03*
X3238500Y635000D03*
X4000500Y1587500D03*
X8636000Y1524000D03*
X8300000Y2250000D03*
G54D14*
X5270500Y762000D03*
Y1778000D03*
G54D15*
X5397500Y762000D03*
X5524500D03*
X5397500Y1778000D03*
X5524500D03*
G54D16*
G01X5397500D02*
Y1849280D01*
X5278280Y1968500D01*
X2857500D01*
X2603500Y2222500D01*
G01X2222500Y4254500D02*
X2089550Y4121550D01*
Y3752450D01*
X2857500Y2984500D01*
G01X6800000Y500000D02*
X6681000Y381000D01*
X4216400D01*
X4000500Y596900D01*
G01X8554000Y2250000D02*
X8010000Y2794000D01*
X4127500D01*
X3492500Y3429000D01*
G01X5207000Y4127500D02*
X3810000D01*
X3492500Y4445000D01*
G01X4445000Y3365500D02*
X5207000Y4127500D01*
G01X8636000D02*
X7937500Y4826000D01*
X4889500D01*
X4445000Y4381500D01*
G01X5207000Y4127500D02*
X5524500Y4445000D01*
G01D02*
X5715000Y4635500D01*
X7874000D01*
X8636000Y3873500D01*
G01X6286500Y4445000D02*
X6540500D01*
X7556500Y3429000D01*
G01X7700000Y500000D02*
X6800000D01*
G01X8808000Y2250000D02*
Y2394500D01*
X8890000Y2476500D01*
X9157500D01*
X9207500Y2426500D01*
Y2032000D01*
X9017000Y1841500D01*
Y1587500D01*
X8763000Y1333500D01*
X8382000D01*
X8128000Y1079500D01*
Y928000D01*
X7700000Y500000D01*
G01X11303000Y1651000D02*
X9588500Y3365500D01*
X8636000D01*
X7556500Y4445000D01*
G01X8636000Y533400D02*
X9105900D01*
X9525000Y952500D01*
G54D17*
G01X2413000Y1651000D02*
X444500Y3619500D01*
Y3873500D01*
X825500Y4254500D01*
G01X3111500Y2222500D02*
X2603500Y2730500D01*
X2095500D01*
X825500Y4000500D01*
G01X4000500Y1587500D02*
X3746500Y1841500D01*
X2603500D01*
X2413000Y1651000D01*
G01X9062000Y2250000D02*
X8844000Y2032000D01*
X8064500D01*
X7874000Y2222500D01*
X3111500D01*
G01X4000500Y1587500D02*
X5080000D01*
X5140980Y1648480D01*
X5166380D01*
X5270500Y1752600D01*
Y1778000D01*
G01X5524500Y762000D02*
X6046000D01*
X6800000Y1516000D01*
G01X6286500Y3429000D02*
X6477000Y3238500D01*
X8327500D01*
X8554000Y3012000D01*
G01X8636000Y1524000D02*
X8318500Y1841500D01*
X7125500D01*
X6800000Y1516000D01*
G01X9525000Y1206500D02*
X10731500D01*
G01X9062000Y2250000D02*
Y2241000D01*
G01X9588500Y4127500D02*
X10731500D01*
G01X9588500Y3873500D02*
X10731500D01*
G01X11303000Y2730500D02*
X11454600Y2882100D01*
Y3404400D01*
X10731500Y4127500D01*
G54D18*
G01X12000000Y0D02*
Y5000000D01*
X0D01*
Y0D01*
X12000000D01*
M02*
