G04 ================== begin FILE IDENTIFICATION RECORD ==================*
G04 Layout Name:  D:/ORCAD/B07_0925/allegro/B07_0925.brd*
G04 Film Name:    Drill_DRAW*
G04 File Format:  Gerber RS274X*
G04 File Origin:  Cadence Allegro 17.2-S073*
G04 Origin Date:  Fri Oct 06 10:54:09 2023*
G04 *
G04 Layer:  MANUFACTURING/NCLEGEND-1-2*
G04 Layer:  BOARD GEOMETRY/DIMENSION*
G04 Layer:  BOARD GEOMETRY/DESIGN_OUTLINE*
G04 *
G04 Offset:    (0.0000 0.0000)*
G04 Mirror:    No*
G04 Mode:      Positive*
G04 Rotation:  0*
G04 FullContactRelief:  No*
G04 UndefLineWidth:     0.2000*
G04 ================== end FILE IDENTIFICATION RECORD ====================*
%FSLAX35Y35*MOMM*%
%IR0*IPPOS*OFA0.00000B0.00000*MIA0B0*SFA1.00000B1.00000*%
%AMMACRO12*
1,1,.2,.4572,.4572*
20,1,.2,.4572,.4572,.4572,-.4572,0.0*
1,1,.2,.4572,-.4572*
20,1,.2,.4572,-.4572,-.4572,-.4572,0.0*
1,1,.2,-.4572,-.4572*
20,1,.2,-.4572,-.4572,-.4572,.4572,0.0*
1,1,.2,-.4572,.4572*
20,1,.2,-.4572,.4572,.4572,.4572,0.0*
1,1,.2,.4572,.4572*
%
%ADD12MACRO12*%
%AMMACRO13*
1,1,.2,.3937,0.0*
20,1,.2,.3937,0.0,-.3937,0.0,0.0*
1,1,.2,-.3937,0.0*
1,1,.2,0.0,.3937*
20,1,.2,0.0,.3937,0.0,-.3937,0.0*
1,1,.2,0.0,-.3937*
%
%ADD13MACRO13*%
%AMMACRO10*
1,1,.2,0.0,1.5875*
20,1,.2,0.0,1.5875,-1.374815,.79375,0.0*
1,1,.2,-1.374815,.79375*
20,1,.2,-1.374815,.79375,-1.374815,-.79375,0.0*
1,1,.2,-1.374815,-.79375*
20,1,.2,-1.374815,-.79375,0.0,-1.5875,0.0*
1,1,.2,0.0,-1.5875*
20,1,.2,0.0,-1.5875,1.374815,-.79375,0.0*
1,1,.2,1.374815,-.79375*
20,1,.2,1.374815,-.79375,1.374815,.79375,0.0*
1,1,.2,1.374815,.79375*
20,1,.2,1.374815,.79375,0.0,1.5875,0.0*
1,1,.2,0.0,1.5875*
%
%ADD10MACRO10*%
%AMMACRO11*
1,1,.2,.5334,0.0*
20,1,.2,.5334,0.0,.2667,.461938,0.0*
1,1,.2,.2667,.461938*
20,1,.2,.2667,.461938,-.2667,.461938,0.0*
1,1,.2,-.2667,.461938*
20,1,.2,-.2667,.461938,-.5334,0.0,0.0*
1,1,.2,-.5334,0.0*
20,1,.2,-.5334,0.0,-.2667,-.461938,0.0*
1,1,.2,-.2667,-.461938*
20,1,.2,-.2667,-.461938,.2667,-.461938,0.0*
1,1,.2,.2667,-.461938*
20,1,.2,.2667,-.461938,.5334,0.0,0.0*
1,1,.2,.5334,0.0*
%
%ADD11MACRO11*%
%ADD14C,.2*%
G75*
%LPD*%
G75*
G54D10*
X250000Y250000D03*
Y4750000D03*
X824230Y-5031500D03*
X11750000Y250000D03*
Y4750000D03*
G54D11*
X824230Y-4396500D03*
X825500Y4254500D03*
Y4000500D03*
X1270000Y571500D03*
Y1587500D03*
X2413000Y635000D03*
Y1651000D03*
X2222500Y4254500D03*
Y4000500D03*
X3492500Y3429000D03*
Y4445000D03*
X4445000Y3365500D03*
Y4381500D03*
X5524500Y3429000D03*
Y4445000D03*
X6286500Y3429000D03*
Y4445000D03*
X6800000Y500000D03*
Y1516000D03*
X7700000Y500000D03*
Y1516000D03*
X7556500Y3429000D03*
Y4445000D03*
X8636000Y4127500D03*
Y3873500D03*
X9525000Y1206500D03*
Y952500D03*
X9588500Y4127500D03*
Y3873500D03*
G54D12*
X824230Y-3761500D03*
X825500Y2603500D03*
X2603500Y2222500D03*
X2349500D03*
X2603500Y2984500D03*
X2349500D03*
X3238500Y635000D03*
Y1625600D03*
X3111500Y2222500D03*
X2857500D03*
X3111500Y2984500D03*
X2857500D03*
X4000500Y596900D03*
Y1587500D03*
X8636000Y533400D03*
Y1524000D03*
X8808000Y2250000D03*
X8554000D03*
X8300000D03*
X8808000Y3012000D03*
X8554000D03*
X8300000D03*
X9062000Y2250000D03*
Y3012000D03*
X10731500Y952500D03*
Y1206500D03*
Y4127500D03*
Y3873500D03*
X11303000Y1651000D03*
Y2730500D03*
Y2476500D03*
Y2984500D03*
G54D13*
X824230Y-3126500D03*
X5270500Y762000D03*
X5397500D03*
X5524500D03*
X5270500Y1778000D03*
X5397500D03*
X5524500D03*
G54D14*
G01X673780Y0D02*
X-1150000D01*
G01X431290Y5000000D02*
X-1150000D01*
G01X-900000Y2491250D02*
Y0D01*
G01X-962500Y400000D02*
X-900000Y0D01*
X-837500Y400000D01*
X-962500D01*
G01X-1000160Y2605550D02*
X-990510Y2594960D01*
X-979250Y2588620D01*
X-964770Y2586500D01*
X-950290Y2590730D01*
X-939030Y2599200D01*
X-930990Y2614010D01*
X-929380Y2630950D01*
X-932600Y2647880D01*
X-940640Y2658470D01*
X-951900Y2666930D01*
X-963160Y2669050D01*
X-974420Y2666930D01*
X-988900Y2658470D01*
X-984070Y2713500D01*
X-940640D01*
G01X-835230D02*
X-848100Y2709270D01*
X-857750Y2698680D01*
X-864190Y2685990D01*
X-869010Y2669050D01*
X-870620Y2650000D01*
X-869010Y2630950D01*
X-864190Y2614010D01*
X-857750Y2601310D01*
X-848100Y2590730D01*
X-835230Y2586500D01*
X-822360Y2590730D01*
X-812710Y2601310D01*
X-806270Y2614010D01*
X-801450Y2630950D01*
X-799840Y2650000D01*
X-801450Y2669050D01*
X-806270Y2685990D01*
X-812710Y2698680D01*
X-822360Y2709270D01*
X-835230Y2713500D01*
G01X-900000Y2808750D02*
Y5000000D01*
G01X-837500Y4600000D02*
X-900000Y5000000D01*
X-962500Y4600000D01*
X-837500D01*
G01X-317500Y-5349000D02*
Y-889000D01*
X12280900D01*
Y-5349000D01*
X-317500D01*
G01Y-4714000D02*
X12280900D01*
G01X-317500Y-3444000D02*
X12280900D01*
G01X-317500Y-4079000D02*
X12280900D01*
G01X-37980Y-2650250D02*
Y-2332750D01*
X111640D01*
G01X56510Y-2486200D02*
X-37980D01*
G01X304550Y-2332750D02*
X399030D01*
G01X351790D02*
Y-2650250D01*
G01X304550D02*
X399030D01*
G01X690370Y-2491500D02*
X769120D01*
Y-2586750D01*
X745490Y-2618510D01*
X717930Y-2639670D01*
X678560Y-2650250D01*
X639190Y-2639670D01*
X611630Y-2618510D01*
X588010Y-2586750D01*
X572260Y-2549710D01*
X564380Y-2507380D01*
Y-2470330D01*
X572260Y-2438590D01*
X588010Y-2401540D01*
X611630Y-2369790D01*
X635250Y-2348630D01*
X666750Y-2332750D01*
X694310D01*
X725800Y-2343330D01*
X749430Y-2364500D01*
G01X895100Y-2332750D02*
Y-2560290D01*
X910840Y-2607930D01*
X942340Y-2639670D01*
X981710Y-2650250D01*
X1021080Y-2639670D01*
X1052580Y-2607930D01*
X1068320Y-2560290D01*
Y-2332750D01*
G01X1217930Y-2650250D02*
Y-2332750D01*
X1316350D01*
X1347850Y-2348630D01*
X1367540Y-2369790D01*
X1375410Y-2412130D01*
X1367540Y-2454460D01*
X1343910Y-2480910D01*
X1316350Y-2496800D01*
X1217930D01*
G01X1316350D02*
X1375410Y-2650250D01*
G01X1690370D02*
X1532890D01*
Y-2332750D01*
X1690370D01*
G01X1627380Y-2486200D02*
X1532890D01*
G01X-317500Y-2809000D02*
X12280900D01*
G01X-317500Y-2174000D02*
X12280900D01*
G01X-317500Y-1539000D02*
X12280900D01*
G01X12000000Y0D02*
Y5000000D01*
X0D01*
Y0D01*
X12000000D01*
G01X0Y4101920D02*
Y6150000D01*
G01X5226950Y5900000D02*
X0D01*
G01X400000Y5962500D02*
X0Y5900000D01*
X400000Y5837500D01*
Y5962500D01*
G01X1631310Y-2015250D02*
X1729740Y-1697750D01*
X1828170Y-2015250D01*
G01X1792730Y-1904130D02*
X1666740D01*
G01X1965960Y-1697750D02*
Y-2015250D01*
X2123440D01*
G01X2280920Y-1697750D02*
Y-2015250D01*
X2438400D01*
G01X2902970Y-1697750D02*
Y-1925290D01*
X2918710Y-1972930D01*
X2950210Y-2004670D01*
X2989580Y-2015250D01*
X3028950Y-2004670D01*
X3060450Y-1972930D01*
X3076190Y-1925290D01*
Y-1697750D01*
G01X3213990Y-2015250D02*
Y-1697750D01*
X3395090Y-2015250D01*
Y-1697750D01*
G01X3572260D02*
X3666740D01*
G01X3619500D02*
Y-2015250D01*
G01X3572260D02*
X3666740D01*
G01X3934460Y-1697750D02*
Y-2015250D01*
G01X3843910Y-1697750D02*
X4025010D01*
G01X4166740Y-1972930D02*
X4198240Y-1999380D01*
X4233670Y-2015250D01*
X4265170D01*
X4296660Y-1999380D01*
X4320290Y-1972930D01*
X4332100Y-1935870D01*
X4324230Y-1898840D01*
X4304540Y-1867090D01*
X4269100Y-1845910D01*
X4221860Y-1835330D01*
X4194300Y-1814170D01*
X4182490Y-1777130D01*
X4190370Y-1740080D01*
X4210050Y-1713630D01*
X4237610Y-1697750D01*
X4265170D01*
X4292730Y-1708330D01*
X4316350Y-1734790D01*
G01X4780910Y-2015250D02*
X4879340Y-1697750D01*
X4977770Y-2015250D01*
G01X4942330Y-1904130D02*
X4816340D01*
G01X5115560Y-2015250D02*
Y-1697750D01*
X5213980D01*
X5245480Y-1713630D01*
X5265170Y-1734790D01*
X5273040Y-1777130D01*
X5265170Y-1819460D01*
X5241540Y-1845910D01*
X5213980Y-1861800D01*
X5115560D01*
G01X5213980D02*
X5273040Y-2015250D01*
G01X5588000D02*
X5430520D01*
Y-1697750D01*
X5588000D01*
G01X5525010Y-1851200D02*
X5430520D01*
G01X6091940Y-1697750D02*
X6186420D01*
G01X6139180D02*
Y-2015250D01*
G01X6091940D02*
X6186420D01*
G01X6363590D02*
Y-1697750D01*
X6544690Y-2015250D01*
Y-1697750D01*
G01X6981690Y-2015250D02*
Y-1697750D01*
X7084060Y-1962330D01*
X7186430Y-1697750D01*
Y-2015250D01*
G01X7351780Y-1697750D02*
X7446260D01*
G01X7399020D02*
Y-2015250D01*
G01X7351780D02*
X7446260D01*
G01X7635240Y-1697750D02*
Y-2015250D01*
X7792720D01*
G01X7950200Y-1697750D02*
Y-2015250D01*
X8107680D01*
G01X8296660Y-1697750D02*
X8391140D01*
G01X8343900D02*
Y-2015250D01*
G01X8296660D02*
X8391140D01*
G01X8556490D02*
Y-1697750D01*
X8658860Y-1962330D01*
X8761230Y-1697750D01*
Y-2015250D01*
G01X9052560D02*
X8895080D01*
Y-1697750D01*
X9052560D01*
G01X8989570Y-1851200D02*
X8895080D01*
G01X9288780Y-1697750D02*
Y-2015250D01*
G01X9198230Y-1697750D02*
X9379330D01*
G01X9682480Y-2015250D02*
X9525000D01*
Y-1697750D01*
X9682480D01*
G01X9619490Y-1851200D02*
X9525000D01*
G01X9839960Y-2015250D02*
Y-1697750D01*
X9938380D01*
X9969880Y-1713630D01*
X9989570Y-1734790D01*
X9997440Y-1777130D01*
X9989570Y-1819460D01*
X9965940Y-1845910D01*
X9938380Y-1861800D01*
X9839960D01*
G01X9938380D02*
X9997440Y-2015250D01*
G01X10150980Y-1972930D02*
X10182480Y-1999380D01*
X10217910Y-2015250D01*
X10249410D01*
X10280900Y-1999380D01*
X10304530Y-1972930D01*
X10316340Y-1935870D01*
X10308470Y-1898840D01*
X10288780Y-1867090D01*
X10253340Y-1845910D01*
X10206100Y-1835330D01*
X10178540Y-1814170D01*
X10166730Y-1777130D01*
X10174610Y-1740080D01*
X10194290Y-1713630D01*
X10221850Y-1697750D01*
X10249410D01*
X10276970Y-1708330D01*
X10300590Y-1734790D01*
G01X1965960Y-2174000D02*
Y-5349000D01*
G01X2560440Y-2650250D02*
Y-2332750D01*
X2710060D01*
G01X2654930Y-2486200D02*
X2560440D01*
G01X2902970Y-2332750D02*
X2997450D01*
G01X2950210D02*
Y-2650250D01*
G01X2902970D02*
X2997450D01*
G01X3174620D02*
Y-2332750D01*
X3355720Y-2650250D01*
Y-2332750D01*
G01X3532890D02*
X3627370D01*
G01X3580130D02*
Y-2650250D01*
G01X3532890D02*
X3627370D01*
G01X3812410Y-2607930D02*
X3843910Y-2634380D01*
X3879340Y-2650250D01*
X3910840D01*
X3942330Y-2634380D01*
X3965960Y-2607930D01*
X3977770Y-2570870D01*
X3969900Y-2533840D01*
X3950210Y-2502090D01*
X3914770Y-2480910D01*
X3867530Y-2470330D01*
X3839970Y-2449170D01*
X3828160Y-2412130D01*
X3836040Y-2375080D01*
X3855720Y-2348630D01*
X3883280Y-2332750D01*
X3910840D01*
X3938400Y-2343330D01*
X3962020Y-2369790D01*
G01X4127370Y-2650250D02*
Y-2332750D01*
G01X4292730D02*
Y-2650250D01*
G01Y-2491500D02*
X4127370D01*
G01X4603750Y-2650250D02*
X4446270D01*
Y-2332750D01*
X4603750D01*
G01X4540760Y-2486200D02*
X4446270D01*
G01X4753360Y-2650250D02*
Y-2332750D01*
X4832090D01*
X4863590Y-2348630D01*
X4887210Y-2369790D01*
X4906900Y-2401540D01*
X4922650Y-2438590D01*
X4926580Y-2491500D01*
X4922650Y-2544420D01*
X4906900Y-2581460D01*
X4887210Y-2613220D01*
X4863590Y-2634380D01*
X4832090Y-2650250D01*
X4753360D01*
G01X5036820Y-2756080D02*
X5273040D01*
G01X5387210Y-2607930D02*
X5418710Y-2634380D01*
X5454140Y-2650250D01*
X5485640D01*
X5517130Y-2634380D01*
X5540760Y-2607930D01*
X5552570Y-2570870D01*
X5544700Y-2533840D01*
X5525010Y-2502090D01*
X5489570Y-2480910D01*
X5442330Y-2470330D01*
X5414770Y-2449170D01*
X5402960Y-2412130D01*
X5410840Y-2375080D01*
X5430520Y-2348630D01*
X5458080Y-2332750D01*
X5485640D01*
X5513200Y-2343330D01*
X5536820Y-2369790D01*
G01X5737610Y-2332750D02*
X5832090D01*
G01X5784850D02*
Y-2650250D01*
G01X5737610D02*
X5832090D01*
G01X6025000Y-2332750D02*
X6174620D01*
X6025000Y-2650250D01*
X6174620D01*
G01X6493510D02*
X6336030D01*
Y-2332750D01*
X6493510D01*
G01X6430520Y-2486200D02*
X6336030D01*
G01X1958090Y-1365250D02*
Y-1047750D01*
X2036820D01*
X2068320Y-1063630D01*
X2091940Y-1084790D01*
X2111630Y-1116540D01*
X2127380Y-1153590D01*
X2131310Y-1206500D01*
X2127380Y-1259420D01*
X2111630Y-1296460D01*
X2091940Y-1328220D01*
X2068320Y-1349380D01*
X2036820Y-1365250D01*
X1958090D01*
G01X2280920D02*
Y-1047750D01*
X2379340D01*
X2410840Y-1063630D01*
X2430530Y-1084790D01*
X2438400Y-1127130D01*
X2430530Y-1169460D01*
X2406900Y-1195910D01*
X2379340Y-1211800D01*
X2280920D01*
G01X2379340D02*
X2438400Y-1365250D01*
G01X2627380Y-1047750D02*
X2721860D01*
G01X2674620D02*
Y-1365250D01*
G01X2627380D02*
X2721860D01*
G01X2910840Y-1047750D02*
Y-1365250D01*
X3068320D01*
G01X3225800Y-1047750D02*
Y-1365250D01*
X3383280D01*
G01X4021070Y-1074210D02*
X3997450Y-1058330D01*
X3969900Y-1047750D01*
X3938400D01*
X3902960Y-1063630D01*
X3875410Y-1090080D01*
X3855720Y-1121840D01*
X3839970Y-1174750D01*
X3836030Y-1222380D01*
X3843910Y-1270000D01*
X3855720Y-1301750D01*
X3879340Y-1333510D01*
X3906900Y-1354670D01*
X3934460Y-1365250D01*
X3962020D01*
X3989580Y-1354670D01*
X4013200Y-1338800D01*
X4032890Y-1317640D01*
G01X4166740Y-1365250D02*
Y-1047750D01*
G01X4332100D02*
Y-1365250D01*
G01Y-1206500D02*
X4166740D01*
G01X4465950Y-1365250D02*
X4564380Y-1047750D01*
X4662810Y-1365250D01*
G01X4627370Y-1254130D02*
X4501380D01*
G01X4800600Y-1365250D02*
Y-1047750D01*
X4899020D01*
X4930520Y-1063630D01*
X4950210Y-1084790D01*
X4958080Y-1127130D01*
X4950210Y-1169460D01*
X4926580Y-1195910D01*
X4899020Y-1211800D01*
X4800600D01*
G01X4899020D02*
X4958080Y-1365250D01*
G01X5194300Y-1047750D02*
Y-1365250D01*
G01X5103750Y-1047750D02*
X5284850D01*
G01X5509260Y-1375830D02*
X5501380Y-1370540D01*
Y-1359960D01*
X5509260Y-1354670D01*
X5517140Y-1359960D01*
Y-1370540D01*
X5509260Y-1375830D01*
G01Y-1232970D02*
X5501380Y-1227670D01*
Y-1217090D01*
X5509260Y-1211800D01*
X5517140Y-1217090D01*
Y-1227670D01*
X5509260Y-1232970D01*
G01X6139180Y-1047750D02*
Y-1365250D01*
G01X6048630Y-1047750D02*
X6229730D01*
G01X6454140Y-1365250D02*
X6422640Y-1359960D01*
X6395090Y-1338800D01*
X6371460Y-1307040D01*
X6355710Y-1270000D01*
X6347840Y-1227670D01*
Y-1185330D01*
X6355710Y-1143000D01*
X6371460Y-1105960D01*
X6395090Y-1074210D01*
X6422640Y-1053040D01*
X6454140Y-1047750D01*
X6485630Y-1053040D01*
X6513190Y-1074210D01*
X6536820Y-1105960D01*
X6552570Y-1143000D01*
X6560440Y-1185330D01*
Y-1227670D01*
X6552570Y-1270000D01*
X6536820Y-1307040D01*
X6513190Y-1338800D01*
X6485630Y-1359960D01*
X6454140Y-1365250D01*
G01X6690360D02*
Y-1047750D01*
X6784850D01*
X6816340Y-1063630D01*
X6839970Y-1100670D01*
X6847840Y-1143000D01*
X6839970Y-1185330D01*
X6820280Y-1217090D01*
X6784850Y-1232970D01*
X6690360D01*
G01X7399020Y-1047750D02*
Y-1365250D01*
G01X7343900Y-1153590D02*
X7454140D01*
G01X7713980Y-1365250D02*
X7690360Y-1359960D01*
X7666740Y-1338800D01*
X7650980Y-1301750D01*
X7643110Y-1259420D01*
X7650980Y-1217090D01*
X7666740Y-1180040D01*
X7690360Y-1158880D01*
X7713980Y-1153590D01*
X7737600Y-1158880D01*
X7761220Y-1180040D01*
X7776970Y-1217090D01*
X7780910Y-1259420D01*
X7776970Y-1301750D01*
X7761220Y-1338800D01*
X7737600Y-1359960D01*
X7713980Y-1365250D01*
G01X8375390Y-1195910D02*
X8391140Y-1180040D01*
X8402950Y-1153590D01*
X8410830Y-1116540D01*
X8402950Y-1084790D01*
X8387210Y-1063630D01*
X8359650Y-1047750D01*
X8253350D01*
Y-1365250D01*
X8383270D01*
X8410830Y-1344090D01*
X8426580Y-1312330D01*
X8434450Y-1275290D01*
X8426580Y-1238260D01*
X8402950Y-1206500D01*
X8375390Y-1195910D01*
X8253350D01*
G01X8658860Y-1365250D02*
X8627360Y-1359960D01*
X8599810Y-1338800D01*
X8576180Y-1307040D01*
X8560430Y-1270000D01*
X8552560Y-1227670D01*
Y-1185330D01*
X8560430Y-1143000D01*
X8576180Y-1105960D01*
X8599810Y-1074210D01*
X8627360Y-1053040D01*
X8658860Y-1047750D01*
X8690350Y-1053040D01*
X8717910Y-1074210D01*
X8741540Y-1105960D01*
X8757290Y-1143000D01*
X8765160Y-1185330D01*
Y-1227670D01*
X8757290Y-1270000D01*
X8741540Y-1307040D01*
X8717910Y-1338800D01*
X8690350Y-1359960D01*
X8658860Y-1365250D01*
G01X8973820Y-1047750D02*
Y-1365250D01*
G01X8883270Y-1047750D02*
X9064370D01*
G01X9288780D02*
Y-1365250D01*
G01X9198230Y-1047750D02*
X9379330D01*
G01X9603740Y-1365250D02*
X9572240Y-1359960D01*
X9544690Y-1338800D01*
X9521060Y-1307040D01*
X9505310Y-1270000D01*
X9497440Y-1227670D01*
Y-1185330D01*
X9505310Y-1143000D01*
X9521060Y-1105960D01*
X9544690Y-1074210D01*
X9572240Y-1053040D01*
X9603740Y-1047750D01*
X9635230Y-1053040D01*
X9662790Y-1074210D01*
X9686420Y-1105960D01*
X9702170Y-1143000D01*
X9710040Y-1185330D01*
Y-1227670D01*
X9702170Y-1270000D01*
X9686420Y-1307040D01*
X9662790Y-1338800D01*
X9635230Y-1359960D01*
X9603740Y-1365250D01*
G01X9816330D02*
Y-1047750D01*
X9918700Y-1312330D01*
X10021070Y-1047750D01*
Y-1365250D01*
G01X3808480Y-5126750D02*
X3832090Y-5163800D01*
X3863590Y-5184960D01*
X3899030Y-5190250D01*
X3930530Y-5184960D01*
X3962020Y-5158510D01*
X3981700Y-5126750D01*
X3985640Y-5095000D01*
X3977770Y-5057970D01*
X3950210Y-5031500D01*
X3922650Y-5020910D01*
X3887210D01*
G01X3922650D02*
X3946270Y-5005040D01*
X3965960Y-4978590D01*
X3973830Y-4946840D01*
X3965960Y-4915080D01*
X3946270Y-4888630D01*
X3910840Y-4872750D01*
X3875410Y-4878040D01*
X3839970Y-4899210D01*
G01X4210050Y-5200830D02*
X4202170Y-5195540D01*
Y-5184960D01*
X4210050Y-5179670D01*
X4217930Y-5184960D01*
Y-5195540D01*
X4210050Y-5200830D01*
G01X4525010Y-5190250D02*
Y-4872750D01*
X4477770Y-4936250D01*
G01Y-5190250D02*
X4572250D01*
G01X4832090D02*
X4839970Y-5121460D01*
X4851780Y-5063260D01*
X4867530Y-5010330D01*
X4887210Y-4952130D01*
X4918710Y-4872750D01*
X4761230D01*
G01X5068320Y-5142640D02*
X5091930Y-5169090D01*
X5119490Y-5184960D01*
X5154930Y-5190250D01*
X5190370Y-5179670D01*
X5217920Y-5158510D01*
X5237610Y-5121460D01*
X5241540Y-5079130D01*
X5233670Y-5036800D01*
X5213980Y-5010330D01*
X5186420Y-4989170D01*
X5158870Y-4983880D01*
X5131310Y-4989170D01*
X5095880Y-5010330D01*
X5107690Y-4872750D01*
X5213980D01*
G01X3737610Y-4555250D02*
Y-4237750D01*
X3690370Y-4301250D01*
G01Y-4555250D02*
X3784850D01*
G01X4052570Y-4565830D02*
X4044690Y-4560540D01*
Y-4549960D01*
X4052570Y-4544670D01*
X4060450Y-4549960D01*
Y-4560540D01*
X4052570Y-4565830D01*
G01X4367530Y-4237750D02*
X4336030Y-4248330D01*
X4312410Y-4274790D01*
X4296660Y-4306540D01*
X4284850Y-4348880D01*
X4280920Y-4396500D01*
X4284850Y-4444130D01*
X4296660Y-4486460D01*
X4312410Y-4518220D01*
X4336030Y-4544670D01*
X4367530Y-4555250D01*
X4399020Y-4544670D01*
X4422650Y-4518220D01*
X4438400Y-4486460D01*
X4450210Y-4444130D01*
X4454140Y-4396500D01*
X4450210Y-4348880D01*
X4438400Y-4306540D01*
X4422650Y-4274790D01*
X4399020Y-4248330D01*
X4367530Y-4237750D01*
G01X4607680Y-4422970D02*
X4635250Y-4385910D01*
X4658870Y-4364750D01*
X4690370Y-4354170D01*
X4717930Y-4364750D01*
X4737610Y-4385910D01*
X4753360Y-4417670D01*
X4757300Y-4454710D01*
X4753360Y-4486460D01*
X4737610Y-4518220D01*
X4713980Y-4544670D01*
X4686430Y-4555250D01*
X4654930Y-4544670D01*
X4627370Y-4512930D01*
X4611620Y-4465290D01*
X4607680Y-4412380D01*
X4615560Y-4343590D01*
X4627370Y-4306540D01*
X4647050Y-4269500D01*
X4674610Y-4243040D01*
X4702170Y-4237750D01*
X4729730Y-4248330D01*
X4749420Y-4274790D01*
G01X4922640Y-4422970D02*
X4950210Y-4385910D01*
X4973830Y-4364750D01*
X5005330Y-4354170D01*
X5032890Y-4364750D01*
X5052570Y-4385910D01*
X5068320Y-4417670D01*
X5072260Y-4454710D01*
X5068320Y-4486460D01*
X5052570Y-4518220D01*
X5028940Y-4544670D01*
X5001390Y-4555250D01*
X4969890Y-4544670D01*
X4942330Y-4512930D01*
X4926580Y-4465290D01*
X4922640Y-4412380D01*
X4930520Y-4343590D01*
X4942330Y-4306540D01*
X4962010Y-4269500D01*
X4989570Y-4243040D01*
X5017130Y-4237750D01*
X5044690Y-4248330D01*
X5064380Y-4274790D01*
G01X5312410Y-4555250D02*
X5339970Y-4549960D01*
X5371460Y-4534090D01*
X5391150Y-4507640D01*
X5399020Y-4470580D01*
X5391150Y-4433550D01*
X5367530Y-4401800D01*
X5332090Y-4385910D01*
X5292730D01*
X5269100Y-4375330D01*
X5249410Y-4348880D01*
X5241540Y-4311840D01*
X5253360Y-4274790D01*
X5280910Y-4248330D01*
X5312410Y-4237750D01*
X5343900Y-4248330D01*
X5371460Y-4274790D01*
X5383280Y-4311840D01*
X5375400Y-4348880D01*
X5355720Y-4375330D01*
X5332090Y-4385910D01*
X5292730D01*
X5257290Y-4401800D01*
X5233670Y-4433550D01*
X5225800Y-4470580D01*
X5233670Y-4507640D01*
X5253360Y-4534090D01*
X5284850Y-4549960D01*
X5312410Y-4555250D01*
G01X3737610Y-3602750D02*
X3706110Y-3613330D01*
X3682490Y-3639790D01*
X3666740Y-3671540D01*
X3654930Y-3713880D01*
X3651000Y-3761500D01*
X3654930Y-3809130D01*
X3666740Y-3851460D01*
X3682490Y-3883220D01*
X3706110Y-3909670D01*
X3737610Y-3920250D01*
X3769100Y-3909670D01*
X3792730Y-3883220D01*
X3808480Y-3851460D01*
X3820290Y-3809130D01*
X3824220Y-3761500D01*
X3820290Y-3713880D01*
X3808480Y-3671540D01*
X3792730Y-3639790D01*
X3769100Y-3613330D01*
X3737610Y-3602750D01*
G01X4052570Y-3930830D02*
X4044690Y-3925540D01*
Y-3914960D01*
X4052570Y-3909670D01*
X4060450Y-3914960D01*
Y-3925540D01*
X4052570Y-3930830D01*
G01X4300600Y-3883220D02*
X4328160Y-3909670D01*
X4359650Y-3920250D01*
X4391150Y-3909670D01*
X4418710Y-3877930D01*
X4438400Y-3830290D01*
X4446270Y-3782670D01*
Y-3724460D01*
X4438400Y-3676840D01*
X4418710Y-3634500D01*
X4395090Y-3613330D01*
X4367530Y-3602750D01*
X4336030Y-3613330D01*
X4312410Y-3634500D01*
X4296660Y-3666250D01*
X4288790Y-3708590D01*
X4296660Y-3745620D01*
X4316350Y-3782670D01*
X4339970Y-3803840D01*
X4367530Y-3809130D01*
X4399020Y-3798550D01*
X4422650Y-3772090D01*
X4446270Y-3724460D01*
G01X4682490Y-3920250D02*
Y-3602750D01*
X4635250Y-3666250D01*
G01Y-3920250D02*
X4729730D01*
G01X5044690D02*
Y-3602750D01*
X4899020Y-3830290D01*
X5095880D01*
G01X5359650Y-3920250D02*
Y-3602750D01*
X5213980Y-3830290D01*
X5410840D01*
G01X3737610Y-2967750D02*
X3706110Y-2978330D01*
X3682490Y-3004790D01*
X3666740Y-3036540D01*
X3654930Y-3078880D01*
X3651000Y-3126500D01*
X3654930Y-3174130D01*
X3666740Y-3216460D01*
X3682490Y-3248220D01*
X3706110Y-3274670D01*
X3737610Y-3285250D01*
X3769100Y-3274670D01*
X3792730Y-3248220D01*
X3808480Y-3216460D01*
X3820290Y-3174130D01*
X3824220Y-3126500D01*
X3820290Y-3078880D01*
X3808480Y-3036540D01*
X3792730Y-3004790D01*
X3769100Y-2978330D01*
X3737610Y-2967750D01*
G01X4052570Y-3295830D02*
X4044690Y-3290540D01*
Y-3279960D01*
X4052570Y-3274670D01*
X4060450Y-3279960D01*
Y-3290540D01*
X4052570Y-3295830D01*
G01X4359650Y-3285250D02*
X4367530Y-3216460D01*
X4379340Y-3158260D01*
X4395090Y-3105330D01*
X4414770Y-3047130D01*
X4446270Y-2967750D01*
X4288790D01*
G01X4682490Y-3285250D02*
X4710050Y-3279960D01*
X4741540Y-3264090D01*
X4761230Y-3237640D01*
X4769100Y-3200580D01*
X4761230Y-3163550D01*
X4737610Y-3131800D01*
X4702170Y-3115910D01*
X4662810D01*
X4639180Y-3105330D01*
X4619490Y-3078880D01*
X4611620Y-3041840D01*
X4623440Y-3004790D01*
X4650990Y-2978330D01*
X4682490Y-2967750D01*
X4713980Y-2978330D01*
X4741540Y-3004790D01*
X4753360Y-3041840D01*
X4745480Y-3078880D01*
X4725800Y-3105330D01*
X4702170Y-3115910D01*
X4662810D01*
X4627370Y-3131800D01*
X4603750Y-3163550D01*
X4595880Y-3200580D01*
X4603750Y-3237640D01*
X4623440Y-3264090D01*
X4654930Y-3279960D01*
X4682490Y-3285250D01*
G01X4989570D02*
X4997450Y-3216460D01*
X5009260Y-3158260D01*
X5025010Y-3105330D01*
X5044690Y-3047130D01*
X5076190Y-2967750D01*
X4918710D01*
G01X5359650Y-3285250D02*
Y-2967750D01*
X5213980Y-3195290D01*
X5410840D01*
G01X5370460Y5836500D02*
Y5963500D01*
X5351160Y5938100D01*
G01Y5836500D02*
X5389760D01*
G01X5469430Y5942330D02*
X5479090Y5955030D01*
X5490350Y5961380D01*
X5503220Y5963500D01*
X5519300Y5959270D01*
X5530570Y5948680D01*
X5533780Y5935990D01*
X5532170Y5923280D01*
X5525740Y5912700D01*
X5493570Y5891530D01*
X5479090Y5876720D01*
X5469430Y5855550D01*
X5466220Y5836500D01*
X5533780D01*
G01X5629540Y5963500D02*
X5616670Y5959270D01*
X5607020Y5948680D01*
X5600580Y5935990D01*
X5595760Y5919050D01*
X5594150Y5900000D01*
X5595760Y5880950D01*
X5600580Y5864010D01*
X5607020Y5851310D01*
X5616670Y5840730D01*
X5629540Y5836500D01*
X5642410Y5840730D01*
X5652060Y5851310D01*
X5658500Y5864010D01*
X5663320Y5880950D01*
X5664930Y5900000D01*
X5663320Y5919050D01*
X5658500Y5935990D01*
X5652060Y5948680D01*
X5642410Y5959270D01*
X5629540Y5963500D01*
G01X5773050Y5900000D02*
X12000000D01*
G01X7190360Y-5190250D02*
Y-4872750D01*
X7371460Y-5190250D01*
Y-4872750D01*
G01X7595870Y-5190250D02*
X7564370Y-5184960D01*
X7536820Y-5163800D01*
X7513190Y-5132040D01*
X7497440Y-5095000D01*
X7489570Y-5052670D01*
Y-5010330D01*
X7497440Y-4968000D01*
X7513190Y-4930960D01*
X7536820Y-4899210D01*
X7564370Y-4878040D01*
X7595870Y-4872750D01*
X7627360Y-4878040D01*
X7654920Y-4899210D01*
X7678550Y-4930960D01*
X7694300Y-4968000D01*
X7702170Y-5010330D01*
Y-5052670D01*
X7694300Y-5095000D01*
X7678550Y-5132040D01*
X7654920Y-5163800D01*
X7627360Y-5184960D01*
X7595870Y-5190250D01*
G01X7820280D02*
Y-4872750D01*
X8001380Y-5190250D01*
Y-4872750D01*
G01X8174610Y-5084420D02*
X8276970D01*
G01X8462010Y-5190250D02*
Y-4872750D01*
X8556500D01*
X8587990Y-4888630D01*
X8611620Y-4925670D01*
X8619490Y-4968000D01*
X8611620Y-5010330D01*
X8591930Y-5042090D01*
X8556500Y-5057970D01*
X8462010D01*
G01X8776970Y-4872750D02*
Y-5190250D01*
X8934450D01*
G01X9072240D02*
X9170670Y-4872750D01*
X9269100Y-5190250D01*
G01X9233660Y-5079130D02*
X9107670D01*
G01X9485630Y-4872750D02*
Y-5190250D01*
G01X9395080Y-4872750D02*
X9576180D01*
G01X9879330Y-5190250D02*
X9721850D01*
Y-4872750D01*
X9879330D01*
G01X9816340Y-5026200D02*
X9721850D01*
G01X10028940Y-5190250D02*
Y-4872750D01*
X10107670D01*
X10139170Y-4888630D01*
X10162790Y-4909790D01*
X10182480Y-4941540D01*
X10198230Y-4978590D01*
X10202160Y-5031500D01*
X10198230Y-5084420D01*
X10182480Y-5121460D01*
X10162790Y-5153220D01*
X10139170Y-5174380D01*
X10107670Y-5190250D01*
X10028940D01*
G01X7084060Y-2174000D02*
Y-5349000D01*
G01X7832090Y-4555250D02*
Y-4237750D01*
X7926580D01*
X7958070Y-4253630D01*
X7981700Y-4290670D01*
X7989570Y-4333000D01*
X7981700Y-4375330D01*
X7962010Y-4407090D01*
X7926580Y-4422970D01*
X7832090D01*
G01X8147050Y-4237750D02*
Y-4555250D01*
X8304530D01*
G01X8442320D02*
X8540750Y-4237750D01*
X8639180Y-4555250D01*
G01X8603740Y-4444130D02*
X8477750D01*
G01X8855710Y-4237750D02*
Y-4555250D01*
G01X8765160Y-4237750D02*
X8946260D01*
G01X9249410Y-4555250D02*
X9091930D01*
Y-4237750D01*
X9249410D01*
G01X9186420Y-4391200D02*
X9091930D01*
G01X9399020Y-4555250D02*
Y-4237750D01*
X9477750D01*
X9509250Y-4253630D01*
X9532870Y-4274790D01*
X9552560Y-4306540D01*
X9568310Y-4343590D01*
X9572240Y-4396500D01*
X9568310Y-4449420D01*
X9552560Y-4486460D01*
X9532870Y-4518220D01*
X9509250Y-4539380D01*
X9477750Y-4555250D01*
X9399020D01*
G01X7832090Y-3920250D02*
Y-3602750D01*
X7926580D01*
X7958070Y-3618630D01*
X7981700Y-3655670D01*
X7989570Y-3698000D01*
X7981700Y-3740330D01*
X7962010Y-3772090D01*
X7926580Y-3787970D01*
X7832090D01*
G01X8147050Y-3602750D02*
Y-3920250D01*
X8304530D01*
G01X8442320D02*
X8540750Y-3602750D01*
X8639180Y-3920250D01*
G01X8603740Y-3809130D02*
X8477750D01*
G01X8855710Y-3602750D02*
Y-3920250D01*
G01X8765160Y-3602750D02*
X8946260D01*
G01X9249410Y-3920250D02*
X9091930D01*
Y-3602750D01*
X9249410D01*
G01X9186420Y-3756200D02*
X9091930D01*
G01X9399020Y-3920250D02*
Y-3602750D01*
X9477750D01*
X9509250Y-3618630D01*
X9532870Y-3639790D01*
X9552560Y-3671540D01*
X9568310Y-3708590D01*
X9572240Y-3761500D01*
X9568310Y-3814420D01*
X9552560Y-3851460D01*
X9532870Y-3883220D01*
X9509250Y-3904380D01*
X9477750Y-3920250D01*
X9399020D01*
G01X7832090Y-2650250D02*
Y-2332750D01*
X7926580D01*
X7958070Y-2348630D01*
X7981700Y-2385670D01*
X7989570Y-2428000D01*
X7981700Y-2470330D01*
X7962010Y-2502090D01*
X7926580Y-2517970D01*
X7832090D01*
G01X8147050Y-2332750D02*
Y-2650250D01*
X8304530D01*
G01X8442320D02*
X8540750Y-2332750D01*
X8639180Y-2650250D01*
G01X8603740Y-2539130D02*
X8477750D01*
G01X8855710Y-2332750D02*
Y-2650250D01*
G01X8765160Y-2332750D02*
X8946260D01*
G01X9249410Y-2650250D02*
X9091930D01*
Y-2332750D01*
X9249410D01*
G01X9186420Y-2486200D02*
X9091930D01*
G01X9399020Y-2650250D02*
Y-2332750D01*
X9477750D01*
X9509250Y-2348630D01*
X9532870Y-2369790D01*
X9552560Y-2401540D01*
X9568310Y-2438590D01*
X9572240Y-2491500D01*
X9568310Y-2544420D01*
X9552560Y-2581460D01*
X9532870Y-2613220D01*
X9509250Y-2634380D01*
X9477750Y-2650250D01*
X9399020D01*
G01X7832090Y-3285250D02*
Y-2967750D01*
X7926580D01*
X7958070Y-2983630D01*
X7981700Y-3020670D01*
X7989570Y-3063000D01*
X7981700Y-3105330D01*
X7962010Y-3137090D01*
X7926580Y-3152970D01*
X7832090D01*
G01X8147050Y-2967750D02*
Y-3285250D01*
X8304530D01*
G01X8442320D02*
X8540750Y-2967750D01*
X8639180Y-3285250D01*
G01X8603740Y-3174130D02*
X8477750D01*
G01X8855710Y-2967750D02*
Y-3285250D01*
G01X8765160Y-2967750D02*
X8946260D01*
G01X9249410Y-3285250D02*
X9091930D01*
Y-2967750D01*
X9249410D01*
G01X9186420Y-3121200D02*
X9091930D01*
G01X9399020Y-3285250D02*
Y-2967750D01*
X9477750D01*
X9509250Y-2983630D01*
X9532870Y-3004790D01*
X9552560Y-3036540D01*
X9568310Y-3073590D01*
X9572240Y-3126500D01*
X9568310Y-3179420D01*
X9552560Y-3216460D01*
X9532870Y-3248220D01*
X9509250Y-3269380D01*
X9477750Y-3285250D01*
X9399020D01*
G01X10312400Y-2174000D02*
Y-5349000D01*
G01X11064360Y-4290670D02*
X11087990Y-4258920D01*
X11115550Y-4243040D01*
X11147050Y-4237750D01*
X11186410Y-4248330D01*
X11213980Y-4274790D01*
X11221850Y-4306540D01*
X11217910Y-4338300D01*
X11202160Y-4364750D01*
X11123420Y-4417670D01*
X11087990Y-4454710D01*
X11064360Y-4507640D01*
X11056490Y-4555250D01*
X11221850D01*
G01X11454130D02*
X11481690Y-4549960D01*
X11513180Y-4534090D01*
X11532870Y-4507640D01*
X11540740Y-4470580D01*
X11532870Y-4433550D01*
X11509250Y-4401800D01*
X11473810Y-4385910D01*
X11434450D01*
X11410820Y-4375330D01*
X11391130Y-4348880D01*
X11383260Y-4311840D01*
X11395080Y-4274790D01*
X11422630Y-4248330D01*
X11454130Y-4237750D01*
X11485620Y-4248330D01*
X11513180Y-4274790D01*
X11525000Y-4311840D01*
X11517120Y-4348880D01*
X11497440Y-4375330D01*
X11473810Y-4385910D01*
X11434450D01*
X11399010Y-4401800D01*
X11375390Y-4433550D01*
X11367520Y-4470580D01*
X11375390Y-4507640D01*
X11395080Y-4534090D01*
X11426570Y-4549960D01*
X11454130Y-4555250D01*
G01X11052560Y-3856750D02*
X11076170Y-3893800D01*
X11107670Y-3914960D01*
X11143110Y-3920250D01*
X11174610Y-3914960D01*
X11206100Y-3888510D01*
X11225780Y-3856750D01*
X11229720Y-3825000D01*
X11221850Y-3787970D01*
X11194290Y-3761500D01*
X11166730Y-3750910D01*
X11131290D01*
G01X11166730D02*
X11190350Y-3735040D01*
X11210040Y-3708590D01*
X11217910Y-3676840D01*
X11210040Y-3645080D01*
X11190350Y-3618630D01*
X11154920Y-3602750D01*
X11119490Y-3608040D01*
X11084050Y-3629210D01*
G01X11454130Y-3920250D02*
Y-3602750D01*
X11406890Y-3666250D01*
G01Y-3920250D02*
X11501370D01*
G01X10981690Y-2650250D02*
X10950190Y-2644960D01*
X10922640Y-2623800D01*
X10899010Y-2592040D01*
X10883260Y-2555000D01*
X10875390Y-2512670D01*
Y-2470330D01*
X10883260Y-2428000D01*
X10899010Y-2390960D01*
X10922640Y-2359210D01*
X10950190Y-2338040D01*
X10981690Y-2332750D01*
X11013180Y-2338040D01*
X11040740Y-2359210D01*
X11064370Y-2390960D01*
X11080120Y-2428000D01*
X11087990Y-2470330D01*
Y-2512670D01*
X11080120Y-2555000D01*
X11064370Y-2592040D01*
X11040740Y-2623800D01*
X11013180Y-2644960D01*
X10981690Y-2650250D01*
G01X11013180Y-2565580D02*
X11060430Y-2650250D01*
G01X11296650Y-2332750D02*
Y-2650250D01*
G01X11206100Y-2332750D02*
X11387200D01*
G01X11611610Y-2650250D02*
Y-2507380D01*
X11532870Y-2332750D01*
G01X11690350D02*
X11611610Y-2507380D01*
G01X11343890Y-5190250D02*
Y-4872750D01*
X11198220Y-5100290D01*
X11395080D01*
G01X11221840Y-3152970D02*
X11249410Y-3115910D01*
X11273030Y-3094750D01*
X11304530Y-3084170D01*
X11332090Y-3094750D01*
X11351770Y-3115910D01*
X11367520Y-3147670D01*
X11371460Y-3184710D01*
X11367520Y-3216460D01*
X11351770Y-3248220D01*
X11328140Y-3274670D01*
X11300590Y-3285250D01*
X11269090Y-3274670D01*
X11241530Y-3242930D01*
X11225780Y-3195290D01*
X11221840Y-3142380D01*
X11229720Y-3073590D01*
X11241530Y-3036540D01*
X11261210Y-2999500D01*
X11288770Y-2973040D01*
X11316330Y-2967750D01*
X11343890Y-2978330D01*
X11363580Y-3004790D01*
G01X11600000Y5837500D02*
X12000000Y5900000D01*
X11600000Y5962500D01*
Y5837500D01*
G01X12000000Y3313810D02*
Y6150000D01*
M02*
