G04 ================== begin FILE IDENTIFICATION RECORD ==================*
G04 Layout Name:  D:/ORCAD/B07_0925/allegro/B07_0925.brd*
G04 Film Name:    Drill_DRAW*
G04 File Format:  Gerber RS274X*
G04 File Origin:  Cadence Allegro 17.2-S073*
G04 Origin Date:  Fri Oct 06 10:50:16 2023*
G04 *
G04 Layer:  MANUFACTURING/NCLEGEND-1-2*
G04 Layer:  BOARD GEOMETRY/DIMENSION*
G04 Layer:  BOARD GEOMETRY/DESIGN_OUTLINE*
G04 *
G04 Offset:    (0.0000 0.0000)*
G04 Mirror:    No*
G04 Mode:      Positive*
G04 Rotation:  0*
G04 FullContactRelief:  No*
G04 UndefLineWidth:     0.2000*
G04 ================== end FILE IDENTIFICATION RECORD ====================*
%FSLAX35Y35*MOMM*%
%IR0*IPPOS*OFA0.00000B0.00000*MIA0B0*SFA1.00000B1.00000*%
%ADD10C,.2*%
G75*
%LPD*%
G75*
G54D10*
G01X673780Y0D02*
X-1150000D01*
G01X431290Y5000000D02*
X-1150000D01*
G01X-900000Y2491250D02*
Y0D01*
G01X-962500Y400000D02*
X-900000Y0D01*
X-837500Y400000D01*
X-962500D01*
G01X-1000160Y2605550D02*
X-990510Y2594960D01*
X-979250Y2588620D01*
X-964770Y2586500D01*
X-950290Y2590730D01*
X-939030Y2599200D01*
X-930990Y2614010D01*
X-929380Y2630950D01*
X-932600Y2647880D01*
X-940640Y2658470D01*
X-951900Y2666930D01*
X-963160Y2669050D01*
X-974420Y2666930D01*
X-988900Y2658470D01*
X-984070Y2713500D01*
X-940640D01*
G01X-835230D02*
X-848100Y2709270D01*
X-857750Y2698680D01*
X-864190Y2685990D01*
X-869010Y2669050D01*
X-870620Y2650000D01*
X-869010Y2630950D01*
X-864190Y2614010D01*
X-857750Y2601310D01*
X-848100Y2590730D01*
X-835230Y2586500D01*
X-822360Y2590730D01*
X-812710Y2601310D01*
X-806270Y2614010D01*
X-801450Y2630950D01*
X-799840Y2650000D01*
X-801450Y2669050D01*
X-806270Y2685990D01*
X-812710Y2698680D01*
X-822360Y2709270D01*
X-835230Y2713500D01*
G01X-900000Y2808750D02*
Y5000000D01*
G01X-837500Y4600000D02*
X-900000Y5000000D01*
X-962500Y4600000D01*
X-837500D01*
G01X-317500Y-5158500D02*
Y-698500D01*
X12280900D01*
Y-5158500D01*
X-317500D01*
G01Y-4523500D02*
X12280900D01*
G01X-317500Y-3888500D02*
X12280900D01*
G01X-317500Y-3253500D02*
X12280900D01*
G01X-37980Y-2459750D02*
Y-2142250D01*
X111640D01*
G01X56510Y-2295700D02*
X-37980D01*
G01X304550Y-2142250D02*
X399030D01*
G01X351790D02*
Y-2459750D01*
G01X304550D02*
X399030D01*
G01X690370Y-2301000D02*
X769120D01*
Y-2396250D01*
X745490Y-2428010D01*
X717930Y-2449170D01*
X678560Y-2459750D01*
X639190Y-2449170D01*
X611630Y-2428010D01*
X588010Y-2396250D01*
X572260Y-2359210D01*
X564380Y-2316880D01*
Y-2279830D01*
X572260Y-2248090D01*
X588010Y-2211040D01*
X611630Y-2179290D01*
X635250Y-2158130D01*
X666750Y-2142250D01*
X694310D01*
X725800Y-2152830D01*
X749430Y-2174000D01*
G01X895100Y-2142250D02*
Y-2369790D01*
X910840Y-2417430D01*
X942340Y-2449170D01*
X981710Y-2459750D01*
X1021080Y-2449170D01*
X1052580Y-2417430D01*
X1068320Y-2369790D01*
Y-2142250D01*
G01X1217930Y-2459750D02*
Y-2142250D01*
X1316350D01*
X1347850Y-2158130D01*
X1367540Y-2179290D01*
X1375410Y-2221630D01*
X1367540Y-2263960D01*
X1343910Y-2290410D01*
X1316350Y-2306300D01*
X1217930D01*
G01X1316350D02*
X1375410Y-2459750D01*
G01X1690370D02*
X1532890D01*
Y-2142250D01*
X1690370D01*
G01X1627380Y-2295700D02*
X1532890D01*
G01X-317500Y-1983500D02*
X12280900D01*
G01X-317500Y-2618500D02*
X12280900D01*
G01X-317500Y-1348500D02*
X12280900D01*
G01X12000000Y0D02*
Y5000000D01*
X0D01*
Y0D01*
X12000000D01*
G01X0Y4101920D02*
Y6150000D01*
G01X5226950Y5900000D02*
X0D01*
G01X400000Y5962500D02*
X0Y5900000D01*
X400000Y5837500D01*
Y5962500D01*
G01X1631310Y-1824750D02*
X1729740Y-1507250D01*
X1828170Y-1824750D01*
G01X1792730Y-1713630D02*
X1666740D01*
G01X1965960Y-1507250D02*
Y-1824750D01*
X2123440D01*
G01X2280920Y-1507250D02*
Y-1824750D01*
X2438400D01*
G01X2902970Y-1507250D02*
Y-1734790D01*
X2918710Y-1782430D01*
X2950210Y-1814170D01*
X2989580Y-1824750D01*
X3028950Y-1814170D01*
X3060450Y-1782430D01*
X3076190Y-1734790D01*
Y-1507250D01*
G01X3213990Y-1824750D02*
Y-1507250D01*
X3395090Y-1824750D01*
Y-1507250D01*
G01X3572260D02*
X3666740D01*
G01X3619500D02*
Y-1824750D01*
G01X3572260D02*
X3666740D01*
G01X3934460Y-1507250D02*
Y-1824750D01*
G01X3843910Y-1507250D02*
X4025010D01*
G01X4166740Y-1782430D02*
X4198240Y-1808880D01*
X4233670Y-1824750D01*
X4265170D01*
X4296660Y-1808880D01*
X4320290Y-1782430D01*
X4332100Y-1745370D01*
X4324230Y-1708340D01*
X4304540Y-1676590D01*
X4269100Y-1655410D01*
X4221860Y-1644830D01*
X4194300Y-1623670D01*
X4182490Y-1586630D01*
X4190370Y-1549580D01*
X4210050Y-1523130D01*
X4237610Y-1507250D01*
X4265170D01*
X4292730Y-1517830D01*
X4316350Y-1544290D01*
G01X4780910Y-1824750D02*
X4879340Y-1507250D01*
X4977770Y-1824750D01*
G01X4942330Y-1713630D02*
X4816340D01*
G01X5115560Y-1824750D02*
Y-1507250D01*
X5213980D01*
X5245480Y-1523130D01*
X5265170Y-1544290D01*
X5273040Y-1586630D01*
X5265170Y-1628960D01*
X5241540Y-1655410D01*
X5213980Y-1671300D01*
X5115560D01*
G01X5213980D02*
X5273040Y-1824750D01*
G01X5588000D02*
X5430520D01*
Y-1507250D01*
X5588000D01*
G01X5525010Y-1660700D02*
X5430520D01*
G01X6091940Y-1507250D02*
X6186420D01*
G01X6139180D02*
Y-1824750D01*
G01X6091940D02*
X6186420D01*
G01X6363590D02*
Y-1507250D01*
X6544690Y-1824750D01*
Y-1507250D01*
G01X6981690Y-1824750D02*
Y-1507250D01*
X7084060Y-1771830D01*
X7186430Y-1507250D01*
Y-1824750D01*
G01X7351780Y-1507250D02*
X7446260D01*
G01X7399020D02*
Y-1824750D01*
G01X7351780D02*
X7446260D01*
G01X7635240Y-1507250D02*
Y-1824750D01*
X7792720D01*
G01X7950200Y-1507250D02*
Y-1824750D01*
X8107680D01*
G01X8296660Y-1507250D02*
X8391140D01*
G01X8343900D02*
Y-1824750D01*
G01X8296660D02*
X8391140D01*
G01X8556490D02*
Y-1507250D01*
X8658860Y-1771830D01*
X8761230Y-1507250D01*
Y-1824750D01*
G01X9052560D02*
X8895080D01*
Y-1507250D01*
X9052560D01*
G01X8989570Y-1660700D02*
X8895080D01*
G01X9288780Y-1507250D02*
Y-1824750D01*
G01X9198230Y-1507250D02*
X9379330D01*
G01X9682480Y-1824750D02*
X9525000D01*
Y-1507250D01*
X9682480D01*
G01X9619490Y-1660700D02*
X9525000D01*
G01X9839960Y-1824750D02*
Y-1507250D01*
X9938380D01*
X9969880Y-1523130D01*
X9989570Y-1544290D01*
X9997440Y-1586630D01*
X9989570Y-1628960D01*
X9965940Y-1655410D01*
X9938380Y-1671300D01*
X9839960D01*
G01X9938380D02*
X9997440Y-1824750D01*
G01X10150980Y-1782430D02*
X10182480Y-1808880D01*
X10217910Y-1824750D01*
X10249410D01*
X10280900Y-1808880D01*
X10304530Y-1782430D01*
X10316340Y-1745370D01*
X10308470Y-1708340D01*
X10288780Y-1676590D01*
X10253340Y-1655410D01*
X10206100Y-1644830D01*
X10178540Y-1623670D01*
X10166730Y-1586630D01*
X10174610Y-1549580D01*
X10194290Y-1523130D01*
X10221850Y-1507250D01*
X10249410D01*
X10276970Y-1517830D01*
X10300590Y-1544290D01*
G01X1965960Y-1983500D02*
Y-5158500D01*
G01X2560440Y-2459750D02*
Y-2142250D01*
X2710060D01*
G01X2654930Y-2295700D02*
X2560440D01*
G01X2902970Y-2142250D02*
X2997450D01*
G01X2950210D02*
Y-2459750D01*
G01X2902970D02*
X2997450D01*
G01X3174620D02*
Y-2142250D01*
X3355720Y-2459750D01*
Y-2142250D01*
G01X3532890D02*
X3627370D01*
G01X3580130D02*
Y-2459750D01*
G01X3532890D02*
X3627370D01*
G01X3812410Y-2417430D02*
X3843910Y-2443880D01*
X3879340Y-2459750D01*
X3910840D01*
X3942330Y-2443880D01*
X3965960Y-2417430D01*
X3977770Y-2380370D01*
X3969900Y-2343340D01*
X3950210Y-2311590D01*
X3914770Y-2290410D01*
X3867530Y-2279830D01*
X3839970Y-2258670D01*
X3828160Y-2221630D01*
X3836040Y-2184580D01*
X3855720Y-2158130D01*
X3883280Y-2142250D01*
X3910840D01*
X3938400Y-2152830D01*
X3962020Y-2179290D01*
G01X4127370Y-2459750D02*
Y-2142250D01*
G01X4292730D02*
Y-2459750D01*
G01Y-2301000D02*
X4127370D01*
G01X4603750Y-2459750D02*
X4446270D01*
Y-2142250D01*
X4603750D01*
G01X4540760Y-2295700D02*
X4446270D01*
G01X4753360Y-2459750D02*
Y-2142250D01*
X4832090D01*
X4863590Y-2158130D01*
X4887210Y-2179290D01*
X4906900Y-2211040D01*
X4922650Y-2248090D01*
X4926580Y-2301000D01*
X4922650Y-2353920D01*
X4906900Y-2390960D01*
X4887210Y-2422720D01*
X4863590Y-2443880D01*
X4832090Y-2459750D01*
X4753360D01*
G01X5036820Y-2565580D02*
X5273040D01*
G01X5387210Y-2417430D02*
X5418710Y-2443880D01*
X5454140Y-2459750D01*
X5485640D01*
X5517130Y-2443880D01*
X5540760Y-2417430D01*
X5552570Y-2380370D01*
X5544700Y-2343340D01*
X5525010Y-2311590D01*
X5489570Y-2290410D01*
X5442330Y-2279830D01*
X5414770Y-2258670D01*
X5402960Y-2221630D01*
X5410840Y-2184580D01*
X5430520Y-2158130D01*
X5458080Y-2142250D01*
X5485640D01*
X5513200Y-2152830D01*
X5536820Y-2179290D01*
G01X5737610Y-2142250D02*
X5832090D01*
G01X5784850D02*
Y-2459750D01*
G01X5737610D02*
X5832090D01*
G01X6025000Y-2142250D02*
X6174620D01*
X6025000Y-2459750D01*
X6174620D01*
G01X6493510D02*
X6336030D01*
Y-2142250D01*
X6493510D01*
G01X6430520Y-2295700D02*
X6336030D01*
G01X1958090Y-1174750D02*
Y-857250D01*
X2036820D01*
X2068320Y-873130D01*
X2091940Y-894290D01*
X2111630Y-926040D01*
X2127380Y-963090D01*
X2131310Y-1016000D01*
X2127380Y-1068920D01*
X2111630Y-1105960D01*
X2091940Y-1137720D01*
X2068320Y-1158880D01*
X2036820Y-1174750D01*
X1958090D01*
G01X2280920D02*
Y-857250D01*
X2379340D01*
X2410840Y-873130D01*
X2430530Y-894290D01*
X2438400Y-936630D01*
X2430530Y-978960D01*
X2406900Y-1005410D01*
X2379340Y-1021300D01*
X2280920D01*
G01X2379340D02*
X2438400Y-1174750D01*
G01X2627380Y-857250D02*
X2721860D01*
G01X2674620D02*
Y-1174750D01*
G01X2627380D02*
X2721860D01*
G01X2910840Y-857250D02*
Y-1174750D01*
X3068320D01*
G01X3225800Y-857250D02*
Y-1174750D01*
X3383280D01*
G01X4021070Y-883710D02*
X3997450Y-867830D01*
X3969900Y-857250D01*
X3938400D01*
X3902960Y-873130D01*
X3875410Y-899580D01*
X3855720Y-931340D01*
X3839970Y-984250D01*
X3836030Y-1031880D01*
X3843910Y-1079500D01*
X3855720Y-1111250D01*
X3879340Y-1143010D01*
X3906900Y-1164170D01*
X3934460Y-1174750D01*
X3962020D01*
X3989580Y-1164170D01*
X4013200Y-1148300D01*
X4032890Y-1127140D01*
G01X4166740Y-1174750D02*
Y-857250D01*
G01X4332100D02*
Y-1174750D01*
G01Y-1016000D02*
X4166740D01*
G01X4465950Y-1174750D02*
X4564380Y-857250D01*
X4662810Y-1174750D01*
G01X4627370Y-1063630D02*
X4501380D01*
G01X4800600Y-1174750D02*
Y-857250D01*
X4899020D01*
X4930520Y-873130D01*
X4950210Y-894290D01*
X4958080Y-936630D01*
X4950210Y-978960D01*
X4926580Y-1005410D01*
X4899020Y-1021300D01*
X4800600D01*
G01X4899020D02*
X4958080Y-1174750D01*
G01X5194300Y-857250D02*
Y-1174750D01*
G01X5103750Y-857250D02*
X5284850D01*
G01X5509260Y-1185330D02*
X5501380Y-1180040D01*
Y-1169460D01*
X5509260Y-1164170D01*
X5517140Y-1169460D01*
Y-1180040D01*
X5509260Y-1185330D01*
G01Y-1042470D02*
X5501380Y-1037170D01*
Y-1026590D01*
X5509260Y-1021300D01*
X5517140Y-1026590D01*
Y-1037170D01*
X5509260Y-1042470D01*
G01X6139180Y-857250D02*
Y-1174750D01*
G01X6048630Y-857250D02*
X6229730D01*
G01X6454140Y-1174750D02*
X6422640Y-1169460D01*
X6395090Y-1148300D01*
X6371460Y-1116540D01*
X6355710Y-1079500D01*
X6347840Y-1037170D01*
Y-994830D01*
X6355710Y-952500D01*
X6371460Y-915460D01*
X6395090Y-883710D01*
X6422640Y-862540D01*
X6454140Y-857250D01*
X6485630Y-862540D01*
X6513190Y-883710D01*
X6536820Y-915460D01*
X6552570Y-952500D01*
X6560440Y-994830D01*
Y-1037170D01*
X6552570Y-1079500D01*
X6536820Y-1116540D01*
X6513190Y-1148300D01*
X6485630Y-1169460D01*
X6454140Y-1174750D01*
G01X6690360D02*
Y-857250D01*
X6784850D01*
X6816340Y-873130D01*
X6839970Y-910170D01*
X6847840Y-952500D01*
X6839970Y-994830D01*
X6820280Y-1026590D01*
X6784850Y-1042470D01*
X6690360D01*
G01X7399020Y-857250D02*
Y-1174750D01*
G01X7343900Y-963090D02*
X7454140D01*
G01X7713980Y-1174750D02*
X7690360Y-1169460D01*
X7666740Y-1148300D01*
X7650980Y-1111250D01*
X7643110Y-1068920D01*
X7650980Y-1026590D01*
X7666740Y-989540D01*
X7690360Y-968380D01*
X7713980Y-963090D01*
X7737600Y-968380D01*
X7761220Y-989540D01*
X7776970Y-1026590D01*
X7780910Y-1068920D01*
X7776970Y-1111250D01*
X7761220Y-1148300D01*
X7737600Y-1169460D01*
X7713980Y-1174750D01*
G01X8375390Y-1005410D02*
X8391140Y-989540D01*
X8402950Y-963090D01*
X8410830Y-926040D01*
X8402950Y-894290D01*
X8387210Y-873130D01*
X8359650Y-857250D01*
X8253350D01*
Y-1174750D01*
X8383270D01*
X8410830Y-1153590D01*
X8426580Y-1121830D01*
X8434450Y-1084790D01*
X8426580Y-1047760D01*
X8402950Y-1016000D01*
X8375390Y-1005410D01*
X8253350D01*
G01X8658860Y-1174750D02*
X8627360Y-1169460D01*
X8599810Y-1148300D01*
X8576180Y-1116540D01*
X8560430Y-1079500D01*
X8552560Y-1037170D01*
Y-994830D01*
X8560430Y-952500D01*
X8576180Y-915460D01*
X8599810Y-883710D01*
X8627360Y-862540D01*
X8658860Y-857250D01*
X8690350Y-862540D01*
X8717910Y-883710D01*
X8741540Y-915460D01*
X8757290Y-952500D01*
X8765160Y-994830D01*
Y-1037170D01*
X8757290Y-1079500D01*
X8741540Y-1116540D01*
X8717910Y-1148300D01*
X8690350Y-1169460D01*
X8658860Y-1174750D01*
G01X8973820Y-857250D02*
Y-1174750D01*
G01X8883270Y-857250D02*
X9064370D01*
G01X9288780D02*
Y-1174750D01*
G01X9198230Y-857250D02*
X9379330D01*
G01X9603740Y-1174750D02*
X9572240Y-1169460D01*
X9544690Y-1148300D01*
X9521060Y-1116540D01*
X9505310Y-1079500D01*
X9497440Y-1037170D01*
Y-994830D01*
X9505310Y-952500D01*
X9521060Y-915460D01*
X9544690Y-883710D01*
X9572240Y-862540D01*
X9603740Y-857250D01*
X9635230Y-862540D01*
X9662790Y-883710D01*
X9686420Y-915460D01*
X9702170Y-952500D01*
X9710040Y-994830D01*
Y-1037170D01*
X9702170Y-1079500D01*
X9686420Y-1116540D01*
X9662790Y-1148300D01*
X9635230Y-1169460D01*
X9603740Y-1174750D01*
G01X9816330D02*
Y-857250D01*
X9918700Y-1121830D01*
X10021070Y-857250D01*
Y-1174750D01*
G01X3808480Y-4936250D02*
X3832090Y-4973300D01*
X3863590Y-4994460D01*
X3899030Y-4999750D01*
X3930530Y-4994460D01*
X3962020Y-4968010D01*
X3981700Y-4936250D01*
X3985640Y-4904500D01*
X3977770Y-4867470D01*
X3950210Y-4841000D01*
X3922650Y-4830410D01*
X3887210D01*
G01X3922650D02*
X3946270Y-4814540D01*
X3965960Y-4788090D01*
X3973830Y-4756340D01*
X3965960Y-4724580D01*
X3946270Y-4698130D01*
X3910840Y-4682250D01*
X3875410Y-4687540D01*
X3839970Y-4708710D01*
G01X4210050Y-5010330D02*
X4202170Y-5005040D01*
Y-4994460D01*
X4210050Y-4989170D01*
X4217930Y-4994460D01*
Y-5005040D01*
X4210050Y-5010330D01*
G01X4525010Y-4999750D02*
Y-4682250D01*
X4477770Y-4745750D01*
G01Y-4999750D02*
X4572250D01*
G01X4832090D02*
X4839970Y-4930960D01*
X4851780Y-4872760D01*
X4867530Y-4819830D01*
X4887210Y-4761630D01*
X4918710Y-4682250D01*
X4761230D01*
G01X5068320Y-4952140D02*
X5091930Y-4978590D01*
X5119490Y-4994460D01*
X5154930Y-4999750D01*
X5190370Y-4989170D01*
X5217920Y-4968010D01*
X5237610Y-4930960D01*
X5241540Y-4888630D01*
X5233670Y-4846300D01*
X5213980Y-4819830D01*
X5186420Y-4798670D01*
X5158870Y-4793380D01*
X5131310Y-4798670D01*
X5095880Y-4819830D01*
X5107690Y-4682250D01*
X5213980D01*
G01X3737610Y-4364750D02*
Y-4047250D01*
X3690370Y-4110750D01*
G01Y-4364750D02*
X3784850D01*
G01X4052570Y-4375330D02*
X4044690Y-4370040D01*
Y-4359460D01*
X4052570Y-4354170D01*
X4060450Y-4359460D01*
Y-4370040D01*
X4052570Y-4375330D01*
G01X4367530Y-4047250D02*
X4336030Y-4057830D01*
X4312410Y-4084290D01*
X4296660Y-4116040D01*
X4284850Y-4158380D01*
X4280920Y-4206000D01*
X4284850Y-4253630D01*
X4296660Y-4295960D01*
X4312410Y-4327720D01*
X4336030Y-4354170D01*
X4367530Y-4364750D01*
X4399020Y-4354170D01*
X4422650Y-4327720D01*
X4438400Y-4295960D01*
X4450210Y-4253630D01*
X4454140Y-4206000D01*
X4450210Y-4158380D01*
X4438400Y-4116040D01*
X4422650Y-4084290D01*
X4399020Y-4057830D01*
X4367530Y-4047250D01*
G01X4607680Y-4232470D02*
X4635250Y-4195410D01*
X4658870Y-4174250D01*
X4690370Y-4163670D01*
X4717930Y-4174250D01*
X4737610Y-4195410D01*
X4753360Y-4227170D01*
X4757300Y-4264210D01*
X4753360Y-4295960D01*
X4737610Y-4327720D01*
X4713980Y-4354170D01*
X4686430Y-4364750D01*
X4654930Y-4354170D01*
X4627370Y-4322430D01*
X4611620Y-4274790D01*
X4607680Y-4221880D01*
X4615560Y-4153090D01*
X4627370Y-4116040D01*
X4647050Y-4079000D01*
X4674610Y-4052540D01*
X4702170Y-4047250D01*
X4729730Y-4057830D01*
X4749420Y-4084290D01*
G01X4922640Y-4232470D02*
X4950210Y-4195410D01*
X4973830Y-4174250D01*
X5005330Y-4163670D01*
X5032890Y-4174250D01*
X5052570Y-4195410D01*
X5068320Y-4227170D01*
X5072260Y-4264210D01*
X5068320Y-4295960D01*
X5052570Y-4327720D01*
X5028940Y-4354170D01*
X5001390Y-4364750D01*
X4969890Y-4354170D01*
X4942330Y-4322430D01*
X4926580Y-4274790D01*
X4922640Y-4221880D01*
X4930520Y-4153090D01*
X4942330Y-4116040D01*
X4962010Y-4079000D01*
X4989570Y-4052540D01*
X5017130Y-4047250D01*
X5044690Y-4057830D01*
X5064380Y-4084290D01*
G01X5312410Y-4364750D02*
X5339970Y-4359460D01*
X5371460Y-4343590D01*
X5391150Y-4317140D01*
X5399020Y-4280080D01*
X5391150Y-4243050D01*
X5367530Y-4211300D01*
X5332090Y-4195410D01*
X5292730D01*
X5269100Y-4184830D01*
X5249410Y-4158380D01*
X5241540Y-4121340D01*
X5253360Y-4084290D01*
X5280910Y-4057830D01*
X5312410Y-4047250D01*
X5343900Y-4057830D01*
X5371460Y-4084290D01*
X5383280Y-4121340D01*
X5375400Y-4158380D01*
X5355720Y-4184830D01*
X5332090Y-4195410D01*
X5292730D01*
X5257290Y-4211300D01*
X5233670Y-4243050D01*
X5225800Y-4280080D01*
X5233670Y-4317140D01*
X5253360Y-4343590D01*
X5284850Y-4359460D01*
X5312410Y-4364750D01*
G01X3737610Y-3412250D02*
X3706110Y-3422830D01*
X3682490Y-3449290D01*
X3666740Y-3481040D01*
X3654930Y-3523380D01*
X3651000Y-3571000D01*
X3654930Y-3618630D01*
X3666740Y-3660960D01*
X3682490Y-3692720D01*
X3706110Y-3719170D01*
X3737610Y-3729750D01*
X3769100Y-3719170D01*
X3792730Y-3692720D01*
X3808480Y-3660960D01*
X3820290Y-3618630D01*
X3824220Y-3571000D01*
X3820290Y-3523380D01*
X3808480Y-3481040D01*
X3792730Y-3449290D01*
X3769100Y-3422830D01*
X3737610Y-3412250D01*
G01X4052570Y-3740330D02*
X4044690Y-3735040D01*
Y-3724460D01*
X4052570Y-3719170D01*
X4060450Y-3724460D01*
Y-3735040D01*
X4052570Y-3740330D01*
G01X4300600Y-3692720D02*
X4328160Y-3719170D01*
X4359650Y-3729750D01*
X4391150Y-3719170D01*
X4418710Y-3687430D01*
X4438400Y-3639790D01*
X4446270Y-3592170D01*
Y-3533960D01*
X4438400Y-3486340D01*
X4418710Y-3444000D01*
X4395090Y-3422830D01*
X4367530Y-3412250D01*
X4336030Y-3422830D01*
X4312410Y-3444000D01*
X4296660Y-3475750D01*
X4288790Y-3518090D01*
X4296660Y-3555120D01*
X4316350Y-3592170D01*
X4339970Y-3613340D01*
X4367530Y-3618630D01*
X4399020Y-3608050D01*
X4422650Y-3581590D01*
X4446270Y-3533960D01*
G01X4682490Y-3729750D02*
Y-3412250D01*
X4635250Y-3475750D01*
G01Y-3729750D02*
X4729730D01*
G01X5044690D02*
Y-3412250D01*
X4899020Y-3639790D01*
X5095880D01*
G01X5359650Y-3729750D02*
Y-3412250D01*
X5213980Y-3639790D01*
X5410840D01*
G01X3737610Y-2777250D02*
X3706110Y-2787830D01*
X3682490Y-2814290D01*
X3666740Y-2846040D01*
X3654930Y-2888380D01*
X3651000Y-2936000D01*
X3654930Y-2983630D01*
X3666740Y-3025960D01*
X3682490Y-3057720D01*
X3706110Y-3084170D01*
X3737610Y-3094750D01*
X3769100Y-3084170D01*
X3792730Y-3057720D01*
X3808480Y-3025960D01*
X3820290Y-2983630D01*
X3824220Y-2936000D01*
X3820290Y-2888380D01*
X3808480Y-2846040D01*
X3792730Y-2814290D01*
X3769100Y-2787830D01*
X3737610Y-2777250D01*
G01X4052570Y-3105330D02*
X4044690Y-3100040D01*
Y-3089460D01*
X4052570Y-3084170D01*
X4060450Y-3089460D01*
Y-3100040D01*
X4052570Y-3105330D01*
G01X4359650Y-3094750D02*
X4367530Y-3025960D01*
X4379340Y-2967760D01*
X4395090Y-2914830D01*
X4414770Y-2856630D01*
X4446270Y-2777250D01*
X4288790D01*
G01X4682490Y-3094750D02*
X4710050Y-3089460D01*
X4741540Y-3073590D01*
X4761230Y-3047140D01*
X4769100Y-3010080D01*
X4761230Y-2973050D01*
X4737610Y-2941300D01*
X4702170Y-2925410D01*
X4662810D01*
X4639180Y-2914830D01*
X4619490Y-2888380D01*
X4611620Y-2851340D01*
X4623440Y-2814290D01*
X4650990Y-2787830D01*
X4682490Y-2777250D01*
X4713980Y-2787830D01*
X4741540Y-2814290D01*
X4753360Y-2851340D01*
X4745480Y-2888380D01*
X4725800Y-2914830D01*
X4702170Y-2925410D01*
X4662810D01*
X4627370Y-2941300D01*
X4603750Y-2973050D01*
X4595880Y-3010080D01*
X4603750Y-3047140D01*
X4623440Y-3073590D01*
X4654930Y-3089460D01*
X4682490Y-3094750D01*
G01X4989570D02*
X4997450Y-3025960D01*
X5009260Y-2967760D01*
X5025010Y-2914830D01*
X5044690Y-2856630D01*
X5076190Y-2777250D01*
X4918710D01*
G01X5359650Y-3094750D02*
Y-2777250D01*
X5213980Y-3004790D01*
X5410840D01*
G01X5370460Y5836500D02*
Y5963500D01*
X5351160Y5938100D01*
G01Y5836500D02*
X5389760D01*
G01X5469430Y5942330D02*
X5479090Y5955030D01*
X5490350Y5961380D01*
X5503220Y5963500D01*
X5519300Y5959270D01*
X5530570Y5948680D01*
X5533780Y5935990D01*
X5532170Y5923280D01*
X5525740Y5912700D01*
X5493570Y5891530D01*
X5479090Y5876720D01*
X5469430Y5855550D01*
X5466220Y5836500D01*
X5533780D01*
G01X5629540Y5963500D02*
X5616670Y5959270D01*
X5607020Y5948680D01*
X5600580Y5935990D01*
X5595760Y5919050D01*
X5594150Y5900000D01*
X5595760Y5880950D01*
X5600580Y5864010D01*
X5607020Y5851310D01*
X5616670Y5840730D01*
X5629540Y5836500D01*
X5642410Y5840730D01*
X5652060Y5851310D01*
X5658500Y5864010D01*
X5663320Y5880950D01*
X5664930Y5900000D01*
X5663320Y5919050D01*
X5658500Y5935990D01*
X5652060Y5948680D01*
X5642410Y5959270D01*
X5629540Y5963500D01*
G01X5773050Y5900000D02*
X12000000D01*
G01X7190360Y-4999750D02*
Y-4682250D01*
X7371460Y-4999750D01*
Y-4682250D01*
G01X7595870Y-4999750D02*
X7564370Y-4994460D01*
X7536820Y-4973300D01*
X7513190Y-4941540D01*
X7497440Y-4904500D01*
X7489570Y-4862170D01*
Y-4819830D01*
X7497440Y-4777500D01*
X7513190Y-4740460D01*
X7536820Y-4708710D01*
X7564370Y-4687540D01*
X7595870Y-4682250D01*
X7627360Y-4687540D01*
X7654920Y-4708710D01*
X7678550Y-4740460D01*
X7694300Y-4777500D01*
X7702170Y-4819830D01*
Y-4862170D01*
X7694300Y-4904500D01*
X7678550Y-4941540D01*
X7654920Y-4973300D01*
X7627360Y-4994460D01*
X7595870Y-4999750D01*
G01X7820280D02*
Y-4682250D01*
X8001380Y-4999750D01*
Y-4682250D01*
G01X8174610Y-4893920D02*
X8276970D01*
G01X8462010Y-4999750D02*
Y-4682250D01*
X8556500D01*
X8587990Y-4698130D01*
X8611620Y-4735170D01*
X8619490Y-4777500D01*
X8611620Y-4819830D01*
X8591930Y-4851590D01*
X8556500Y-4867470D01*
X8462010D01*
G01X8776970Y-4682250D02*
Y-4999750D01*
X8934450D01*
G01X9072240D02*
X9170670Y-4682250D01*
X9269100Y-4999750D01*
G01X9233660Y-4888630D02*
X9107670D01*
G01X9485630Y-4682250D02*
Y-4999750D01*
G01X9395080Y-4682250D02*
X9576180D01*
G01X9879330Y-4999750D02*
X9721850D01*
Y-4682250D01*
X9879330D01*
G01X9816340Y-4835700D02*
X9721850D01*
G01X10028940Y-4999750D02*
Y-4682250D01*
X10107670D01*
X10139170Y-4698130D01*
X10162790Y-4719290D01*
X10182480Y-4751040D01*
X10198230Y-4788090D01*
X10202160Y-4841000D01*
X10198230Y-4893920D01*
X10182480Y-4930960D01*
X10162790Y-4962720D01*
X10139170Y-4983880D01*
X10107670Y-4999750D01*
X10028940D01*
G01X7084060Y-1983500D02*
Y-5158500D01*
G01X7832090Y-4364750D02*
Y-4047250D01*
X7926580D01*
X7958070Y-4063130D01*
X7981700Y-4100170D01*
X7989570Y-4142500D01*
X7981700Y-4184830D01*
X7962010Y-4216590D01*
X7926580Y-4232470D01*
X7832090D01*
G01X8147050Y-4047250D02*
Y-4364750D01*
X8304530D01*
G01X8442320D02*
X8540750Y-4047250D01*
X8639180Y-4364750D01*
G01X8603740Y-4253630D02*
X8477750D01*
G01X8855710Y-4047250D02*
Y-4364750D01*
G01X8765160Y-4047250D02*
X8946260D01*
G01X9249410Y-4364750D02*
X9091930D01*
Y-4047250D01*
X9249410D01*
G01X9186420Y-4200700D02*
X9091930D01*
G01X9399020Y-4364750D02*
Y-4047250D01*
X9477750D01*
X9509250Y-4063130D01*
X9532870Y-4084290D01*
X9552560Y-4116040D01*
X9568310Y-4153090D01*
X9572240Y-4206000D01*
X9568310Y-4258920D01*
X9552560Y-4295960D01*
X9532870Y-4327720D01*
X9509250Y-4348880D01*
X9477750Y-4364750D01*
X9399020D01*
G01X7832090Y-3729750D02*
Y-3412250D01*
X7926580D01*
X7958070Y-3428130D01*
X7981700Y-3465170D01*
X7989570Y-3507500D01*
X7981700Y-3549830D01*
X7962010Y-3581590D01*
X7926580Y-3597470D01*
X7832090D01*
G01X8147050Y-3412250D02*
Y-3729750D01*
X8304530D01*
G01X8442320D02*
X8540750Y-3412250D01*
X8639180Y-3729750D01*
G01X8603740Y-3618630D02*
X8477750D01*
G01X8855710Y-3412250D02*
Y-3729750D01*
G01X8765160Y-3412250D02*
X8946260D01*
G01X9249410Y-3729750D02*
X9091930D01*
Y-3412250D01*
X9249410D01*
G01X9186420Y-3565700D02*
X9091930D01*
G01X9399020Y-3729750D02*
Y-3412250D01*
X9477750D01*
X9509250Y-3428130D01*
X9532870Y-3449290D01*
X9552560Y-3481040D01*
X9568310Y-3518090D01*
X9572240Y-3571000D01*
X9568310Y-3623920D01*
X9552560Y-3660960D01*
X9532870Y-3692720D01*
X9509250Y-3713880D01*
X9477750Y-3729750D01*
X9399020D01*
G01X7832090Y-3094750D02*
Y-2777250D01*
X7926580D01*
X7958070Y-2793130D01*
X7981700Y-2830170D01*
X7989570Y-2872500D01*
X7981700Y-2914830D01*
X7962010Y-2946590D01*
X7926580Y-2962470D01*
X7832090D01*
G01X8147050Y-2777250D02*
Y-3094750D01*
X8304530D01*
G01X8442320D02*
X8540750Y-2777250D01*
X8639180Y-3094750D01*
G01X8603740Y-2983630D02*
X8477750D01*
G01X8855710Y-2777250D02*
Y-3094750D01*
G01X8765160Y-2777250D02*
X8946260D01*
G01X9249410Y-3094750D02*
X9091930D01*
Y-2777250D01*
X9249410D01*
G01X9186420Y-2930700D02*
X9091930D01*
G01X9399020Y-3094750D02*
Y-2777250D01*
X9477750D01*
X9509250Y-2793130D01*
X9532870Y-2814290D01*
X9552560Y-2846040D01*
X9568310Y-2883090D01*
X9572240Y-2936000D01*
X9568310Y-2988920D01*
X9552560Y-3025960D01*
X9532870Y-3057720D01*
X9509250Y-3078880D01*
X9477750Y-3094750D01*
X9399020D01*
G01X7832090Y-2459750D02*
Y-2142250D01*
X7926580D01*
X7958070Y-2158130D01*
X7981700Y-2195170D01*
X7989570Y-2237500D01*
X7981700Y-2279830D01*
X7962010Y-2311590D01*
X7926580Y-2327470D01*
X7832090D01*
G01X8147050Y-2142250D02*
Y-2459750D01*
X8304530D01*
G01X8442320D02*
X8540750Y-2142250D01*
X8639180Y-2459750D01*
G01X8603740Y-2348630D02*
X8477750D01*
G01X8855710Y-2142250D02*
Y-2459750D01*
G01X8765160Y-2142250D02*
X8946260D01*
G01X9249410Y-2459750D02*
X9091930D01*
Y-2142250D01*
X9249410D01*
G01X9186420Y-2295700D02*
X9091930D01*
G01X9399020Y-2459750D02*
Y-2142250D01*
X9477750D01*
X9509250Y-2158130D01*
X9532870Y-2179290D01*
X9552560Y-2211040D01*
X9568310Y-2248090D01*
X9572240Y-2301000D01*
X9568310Y-2353920D01*
X9552560Y-2390960D01*
X9532870Y-2422720D01*
X9509250Y-2443880D01*
X9477750Y-2459750D01*
X9399020D01*
G01X10312400Y-1983500D02*
Y-5158500D01*
G01X11064360Y-4100170D02*
X11087990Y-4068420D01*
X11115550Y-4052540D01*
X11147050Y-4047250D01*
X11186410Y-4057830D01*
X11213980Y-4084290D01*
X11221850Y-4116040D01*
X11217910Y-4147800D01*
X11202160Y-4174250D01*
X11123420Y-4227170D01*
X11087990Y-4264210D01*
X11064360Y-4317140D01*
X11056490Y-4364750D01*
X11221850D01*
G01X11454130D02*
X11481690Y-4359460D01*
X11513180Y-4343590D01*
X11532870Y-4317140D01*
X11540740Y-4280080D01*
X11532870Y-4243050D01*
X11509250Y-4211300D01*
X11473810Y-4195410D01*
X11434450D01*
X11410820Y-4184830D01*
X11391130Y-4158380D01*
X11383260Y-4121340D01*
X11395080Y-4084290D01*
X11422630Y-4057830D01*
X11454130Y-4047250D01*
X11485620Y-4057830D01*
X11513180Y-4084290D01*
X11525000Y-4121340D01*
X11517120Y-4158380D01*
X11497440Y-4184830D01*
X11473810Y-4195410D01*
X11434450D01*
X11399010Y-4211300D01*
X11375390Y-4243050D01*
X11367520Y-4280080D01*
X11375390Y-4317140D01*
X11395080Y-4343590D01*
X11426570Y-4359460D01*
X11454130Y-4364750D01*
G01X11052560Y-3666250D02*
X11076170Y-3703300D01*
X11107670Y-3724460D01*
X11143110Y-3729750D01*
X11174610Y-3724460D01*
X11206100Y-3698010D01*
X11225780Y-3666250D01*
X11229720Y-3634500D01*
X11221850Y-3597470D01*
X11194290Y-3571000D01*
X11166730Y-3560410D01*
X11131290D01*
G01X11166730D02*
X11190350Y-3544540D01*
X11210040Y-3518090D01*
X11217910Y-3486340D01*
X11210040Y-3454580D01*
X11190350Y-3428130D01*
X11154920Y-3412250D01*
X11119490Y-3417540D01*
X11084050Y-3438710D01*
G01X11454130Y-3729750D02*
Y-3412250D01*
X11406890Y-3475750D01*
G01Y-3729750D02*
X11501370D01*
G01X10981690Y-2459750D02*
X10950190Y-2454460D01*
X10922640Y-2433300D01*
X10899010Y-2401540D01*
X10883260Y-2364500D01*
X10875390Y-2322170D01*
Y-2279830D01*
X10883260Y-2237500D01*
X10899010Y-2200460D01*
X10922640Y-2168710D01*
X10950190Y-2147540D01*
X10981690Y-2142250D01*
X11013180Y-2147540D01*
X11040740Y-2168710D01*
X11064370Y-2200460D01*
X11080120Y-2237500D01*
X11087990Y-2279830D01*
Y-2322170D01*
X11080120Y-2364500D01*
X11064370Y-2401540D01*
X11040740Y-2433300D01*
X11013180Y-2454460D01*
X10981690Y-2459750D01*
G01X11013180Y-2375080D02*
X11060430Y-2459750D01*
G01X11296650Y-2142250D02*
Y-2459750D01*
G01X11206100Y-2142250D02*
X11387200D01*
G01X11611610Y-2459750D02*
Y-2316880D01*
X11532870Y-2142250D01*
G01X11690350D02*
X11611610Y-2316880D01*
G01X11343890Y-4999750D02*
Y-4682250D01*
X11198220Y-4909790D01*
X11395080D01*
G01X11221840Y-2962470D02*
X11249410Y-2925410D01*
X11273030Y-2904250D01*
X11304530Y-2893670D01*
X11332090Y-2904250D01*
X11351770Y-2925410D01*
X11367520Y-2957170D01*
X11371460Y-2994210D01*
X11367520Y-3025960D01*
X11351770Y-3057720D01*
X11328140Y-3084170D01*
X11300590Y-3094750D01*
X11269090Y-3084170D01*
X11241530Y-3052430D01*
X11225780Y-3004790D01*
X11221840Y-2951880D01*
X11229720Y-2883090D01*
X11241530Y-2846040D01*
X11261210Y-2809000D01*
X11288770Y-2782540D01*
X11316330Y-2777250D01*
X11343890Y-2787830D01*
X11363580Y-2814290D01*
G01X11600000Y5837500D02*
X12000000Y5900000D01*
X11600000Y5962500D01*
Y5837500D01*
G01X12000000Y3313810D02*
Y6150000D01*
M02*
