G04 ================== begin FILE IDENTIFICATION RECORD ==================*
G04 Layout Name:  D:/ORCAD/B07_0925/allegro/B07_0925.brd*
G04 Film Name:    SolderMask_TOP*
G04 File Format:  Gerber RS274X*
G04 File Origin:  Cadence Allegro 17.2-S073*
G04 Origin Date:  Fri Oct 06 10:54:09 2023*
G04 *
G04 Layer:  PIN/SOLDERMASK_TOP*
G04 Layer:  BOARD GEOMETRY/DESIGN_OUTLINE*
G04 *
G04 Offset:    (0.0000 0.0000)*
G04 Mirror:    No*
G04 Mode:      Positive*
G04 Rotation:  0*
G04 FullContactRelief:  No*
G04 UndefLineWidth:     0.2000*
G04 ================== end FILE IDENTIFICATION RECORD ====================*
%FSLAX35Y35*MOMM*%
%IR0*IPPOS*OFA0.00000B0.00000*MIA0B0*SFA1.00000B1.00000*%
%ADD15O,1.016X1.524*%
%ADD14R,1.016X1.524*%
%ADD12C,2.032*%
%ADD11C,1.905*%
%ADD10C,3.683*%
%ADD13R,1.905X1.905*%
%ADD16C,.2*%
G75*
%LPD*%
G75*
G54D10*
X250000Y250000D03*
Y4750000D03*
X11750000Y250000D03*
Y4750000D03*
G54D11*
X825500Y2603500D03*
X2603500Y2222500D03*
Y2984500D03*
X2349500D03*
X3238500Y1625600D03*
X3111500Y2222500D03*
X2857500D03*
X3111500Y2984500D03*
X2857500D03*
X4000500Y596900D03*
X8636000Y533400D03*
X8808000Y2250000D03*
X8554000D03*
X8808000Y3012000D03*
X8554000D03*
X8300000D03*
X9062000Y2250000D03*
Y3012000D03*
X10731500Y952500D03*
Y1206500D03*
Y4127500D03*
Y3873500D03*
X11303000Y1651000D03*
Y2730500D03*
Y2476500D03*
Y2984500D03*
G54D12*
X825500Y4254500D03*
Y4000500D03*
X1270000Y571500D03*
Y1587500D03*
X2413000Y635000D03*
Y1651000D03*
X2222500Y4254500D03*
Y4000500D03*
X3492500Y3429000D03*
Y4445000D03*
X4445000Y3365500D03*
Y4381500D03*
X5524500Y3429000D03*
Y4445000D03*
X6286500Y3429000D03*
Y4445000D03*
X6800000Y500000D03*
Y1516000D03*
X7700000Y500000D03*
Y1516000D03*
X7556500Y3429000D03*
Y4445000D03*
X8636000Y4127500D03*
Y3873500D03*
X9525000Y1206500D03*
Y952500D03*
X9588500Y4127500D03*
Y3873500D03*
G54D13*
X2349500Y2222500D03*
X3238500Y635000D03*
X4000500Y1587500D03*
X8636000Y1524000D03*
X8300000Y2250000D03*
G54D14*
X5270500Y762000D03*
Y1778000D03*
G54D15*
X5397500Y762000D03*
X5524500D03*
X5397500Y1778000D03*
X5524500D03*
G54D16*
G01X12000000Y0D02*
Y5000000D01*
X0D01*
Y0D01*
X12000000D01*
M02*
