G04 ================== begin FILE IDENTIFICATION RECORD ==================*
G04 Layout Name:  D:/ORCAD/B07_0925/allegro/B07_0925.brd*
G04 Film Name:    TOP*
G04 File Format:  Gerber RS274X*
G04 File Origin:  Cadence Allegro 17.2-S073*
G04 Origin Date:  Fri Oct 06 10:54:09 2023*
G04 *
G04 Layer:  BOARD GEOMETRY/DESIGN_OUTLINE*
G04 Layer:  ETCH/TOP*
G04 Layer:  PIN/TOP*
G04 Layer:  VIA CLASS/TOP*
G04 *
G04 Offset:    (0.0000 0.0000)*
G04 Mirror:    No*
G04 Mode:      Positive*
G04 Rotation:  0*
G04 FullContactRelief:  No*
G04 UndefLineWidth:     0.2000*
G04 ================== end FILE IDENTIFICATION RECORD ====================*
%FSLAX35Y35*MOMM*%
%IR0*IPPOS*OFA0.00000B0.00000*MIA0B0*SFA1.00000B1.00000*%
%ADD10C,.635*%
%ADD15O,1.016X1.524*%
%ADD14R,1.016X1.524*%
%ADD11C,1.524*%
%ADD12C,1.651*%
%ADD13R,1.524X1.524*%
%ADD16C,.5*%
%ADD17C,1.*%
%ADD18C,.2*%
G75*
%LPD*%
G75*
G54D10*
X250000Y250000D03*
Y4750000D03*
X11750000Y250000D03*
Y4750000D03*
G54D11*
X825500Y2603500D03*
X2603500Y2222500D03*
Y2984500D03*
X2349500D03*
X3238500Y1625600D03*
X3111500Y2222500D03*
X2857500D03*
X3111500Y2984500D03*
X2857500D03*
X4000500Y596900D03*
X8636000Y533400D03*
X8808000Y2250000D03*
X8554000D03*
X8808000Y3012000D03*
X8554000D03*
X8300000D03*
X9062000Y2250000D03*
Y3012000D03*
X10731500Y952500D03*
Y1206500D03*
Y4127500D03*
Y3873500D03*
X11303000Y1651000D03*
Y2730500D03*
Y2476500D03*
Y2984500D03*
G54D12*
X825500Y4254500D03*
Y4000500D03*
X1270000Y571500D03*
Y1587500D03*
X2413000Y635000D03*
Y1651000D03*
X2222500Y4254500D03*
Y4000500D03*
X3492500Y3429000D03*
Y4445000D03*
X4445000Y3365500D03*
Y4381500D03*
X5524500Y3429000D03*
Y4445000D03*
X6286500Y3429000D03*
Y4445000D03*
X6800000Y500000D03*
Y1516000D03*
X7700000Y500000D03*
Y1516000D03*
X7556500Y3429000D03*
Y4445000D03*
X8636000Y4127500D03*
Y3873500D03*
X9525000Y1206500D03*
Y952500D03*
X9588500Y4127500D03*
Y3873500D03*
G54D13*
X2349500Y2222500D03*
X3238500Y635000D03*
X4000500Y1587500D03*
X8636000Y1524000D03*
X8300000Y2250000D03*
G54D14*
X5270500Y762000D03*
Y1778000D03*
G54D15*
X5397500Y762000D03*
X5524500D03*
X5397500Y1778000D03*
X5524500D03*
G54D16*
G01X1270000Y1587500D02*
X825500Y2032000D01*
Y2603500D01*
G01X1270000Y571500D02*
Y889000D01*
X2603500Y2222500D01*
G01X2857500D02*
Y1884640D01*
X2413000Y1440140D01*
Y635000D01*
G01X2222500Y4000500D02*
Y2603500D01*
X2603500Y2222500D01*
G01X3238500Y635000D02*
X3048000Y825500D01*
Y1255010D01*
X3084900Y1291910D01*
Y1687900D01*
X3465900Y2068900D01*
Y3011100D01*
X2222500Y4254500D01*
G01X4000500Y596900D02*
Y863600D01*
X3238500Y1625600D01*
G01X5270500Y762000D02*
Y787400D01*
X5184060Y873840D01*
X5158660D01*
X4762500Y1270000D01*
Y3492500D01*
X4445000Y3810000D01*
Y4381500D01*
G01X6286500Y4445000D02*
X5080000Y3238500D01*
Y1651000D01*
X5397500Y1333500D01*
Y762000D01*
G01X5524500Y1778000D02*
Y3429000D01*
G01Y1778000D02*
Y1752600D01*
X5596060Y1681040D01*
X5618960D01*
X6800000Y500000D01*
G01X7700000Y1516000D02*
Y1904000D01*
X8808000Y3012000D01*
G01X8554000Y2250000D02*
Y1923500D01*
X9525000Y952500D01*
G01X8636000Y3873500D02*
Y3184000D01*
X8808000Y3012000D01*
G54D17*
G01X6286500Y3429000D02*
X6921500Y4064000D01*
Y4508500D01*
X6604000Y4826000D01*
X4445000D01*
X4064000Y4445000D01*
Y3238500D01*
X4572000Y2730500D01*
Y635000D01*
X4254500Y317500D01*
X2984500D01*
X2857500Y444500D01*
Y1651000D01*
X3326540Y2120040D01*
Y2261460D01*
X2603500Y2984500D01*
G01X5524500Y762000D02*
Y1372400D01*
X5270500Y1626400D01*
Y1778000D01*
G01X10731500Y1206500D02*
X10160000Y635000D01*
X9525000D01*
X8636000Y1524000D01*
G01X11303000Y2476500D02*
X10985500Y2794000D01*
Y2984500D01*
X9334500Y4635500D01*
X8572500D01*
X8318500Y4381500D01*
Y3247500D01*
X8554000Y3012000D01*
G01X9588500Y3873500D02*
Y2776500D01*
X9062000Y2250000D01*
G01X11303000Y2984500D02*
X11580000Y2707500D01*
Y1547000D01*
X10985500Y952500D01*
X10731500D01*
G01Y1206500D02*
Y1587500D01*
X11454600Y2310600D01*
Y2578900D01*
X11303000Y2730500D01*
G01Y2984500D02*
Y3302000D01*
X10731500Y3873500D01*
G54D18*
G01X12000000Y0D02*
Y5000000D01*
X0D01*
Y0D01*
X12000000D01*
M02*
