G04 ================== begin FILE IDENTIFICATION RECORD ==================*
G04 Layout Name:  D:/ORCAD/B07_0918/allegro/B07_0918.brd*
G04 Film Name:    BOTTOM*
G04 File Format:  Gerber RS274X*
G04 File Origin:  Cadence Allegro 17.2-S073*
G04 Origin Date:  Mon Sep 25 14:57:54 2023*
G04 *
G04 Layer:  BOARD GEOMETRY/DESIGN_OUTLINE*
G04 Layer:  ETCH/BOTTOM*
G04 Layer:  PIN/BOTTOM*
G04 Layer:  VIA CLASS/BOTTOM*
G04 *
G04 Offset:    (0.0000 0.0000)*
G04 Mirror:    No*
G04 Mode:      Positive*
G04 Rotation:  0*
G04 FullContactRelief:  No*
G04 UndefLineWidth:     0.2000*
G04 ================== end FILE IDENTIFICATION RECORD ====================*
%FSLAX35Y35*MOMM*%
%IR0*IPPOS*OFA0.00000B0.00000*MIA0B0*SFA1.00000B1.00000*%
%ADD10C,.635*%
%ADD12C,.6096*%
%ADD15O,1.016X1.524*%
%ADD16R,1.016X1.524*%
%ADD11C,1.524*%
%ADD13C,1.651*%
%ADD14R,1.524X1.524*%
%ADD17C,.5*%
%ADD18C,1.*%
%ADD19C,.2*%
G75*
%LPD*%
G75*
G54D10*
X500000Y500000D03*
Y4500000D03*
X11500000Y500000D03*
Y4500000D03*
G54D11*
X889000Y2476500D03*
X2600000Y2962000D03*
X3362000Y2200000D03*
X3108000D03*
X2854000D03*
X3362000Y2962000D03*
X3108000D03*
X2854000D03*
X3600000Y1590600D03*
X4699000Y596900D03*
X8054000Y2200000D03*
Y2962000D03*
X7800000D03*
X8200000Y1590600D03*
X8562000Y2200000D03*
X8308000D03*
X8562000Y2962000D03*
X8308000D03*
X10500000Y1100000D03*
Y1354000D03*
Y3954000D03*
Y3700000D03*
X11300000Y1800000D03*
Y3308000D03*
Y3054000D03*
Y2800000D03*
G54D12*
X889000Y2476500D03*
X1079500Y3746500D03*
X2500000Y1616000D03*
X2854000Y2200000D03*
Y2924500D03*
X3108000D03*
X3600000Y591000D03*
X3616400Y1590600D03*
X3600000D03*
X3690500Y3500000D03*
X3700000Y4516000D03*
X3690500D03*
X4800000Y3500000D03*
Y3518500D03*
X4770000Y4516000D03*
X4800000D03*
X5746800Y700000D03*
X5746000D03*
X5461000Y3492500D03*
X5873000Y729500D03*
X6000000Y1600000D03*
X6700000Y3500000D03*
X7500000Y600000D03*
X7521500Y1616000D03*
X8054000Y2974000D03*
X7900000Y3700000D03*
X8200000Y580000D03*
Y600000D03*
X8194600Y1590600D03*
X8200000D03*
X8308000Y2200000D03*
X8562000D03*
X9100000Y3700000D03*
Y3954000D03*
X10498000Y1100000D03*
X10500000Y1354000D03*
X10494500Y3700000D03*
X10500000D03*
X11300000Y3054000D03*
X11245500Y3308000D03*
G54D13*
X1079500Y4000500D03*
Y3746500D03*
X1651000Y508000D03*
Y1524000D03*
X2500000Y600000D03*
Y1616000D03*
X2600000Y3954000D03*
Y3700000D03*
X3700000Y3500000D03*
Y4516000D03*
X4800000Y3500000D03*
Y4516000D03*
X5461000Y3492500D03*
Y4508500D03*
X6731000Y571500D03*
Y1587500D03*
X6700000Y3500000D03*
X7300000D03*
X6700000Y4516000D03*
X7300000D03*
X7500000Y600000D03*
Y1616000D03*
X7900000Y3954000D03*
Y3700000D03*
X9207500Y1587500D03*
Y1333500D03*
X9100000Y3954000D03*
Y3700000D03*
G54D14*
X2600000Y2200000D03*
X3600000Y600000D03*
X4699000Y1587500D03*
X7800000Y2200000D03*
X8200000Y600000D03*
G54D15*
X5746000Y700000D03*
Y1600000D03*
X5873000Y700000D03*
Y1600000D03*
G54D16*
X6000000Y700000D03*
Y1600000D03*
G54D17*
G01X889000Y2476500D02*
Y2286000D01*
X1651000Y1524000D01*
G01X2854000Y2200000D02*
Y1781500D01*
X2857500Y1778000D01*
Y1714500D01*
X1651000Y508000D01*
G01X2500000Y600000D02*
X3108000Y1208000D01*
Y2200000D01*
G01X2854000D02*
X2600000Y2454000D01*
Y2670510D01*
X2413000Y2857510D01*
Y3513000D01*
X2600000Y3700000D01*
G01Y3954000D02*
X3108000Y3446000D01*
Y2962000D01*
G01D02*
X4000500Y2069500D01*
Y1000500D01*
X3600000Y600000D01*
G01X3700000Y3500000D02*
X3690500D01*
G01X3700000Y4516000D02*
X3690500D01*
G01X4699000Y596900D02*
X5080000Y977900D01*
Y2032000D01*
X5461000Y2413000D01*
Y3492500D01*
G01X4770000Y4516000D02*
X4800000D01*
G01X6000000Y700000D02*
Y573400D01*
X5807600Y381000D01*
X5461000D01*
X5270500Y571500D01*
Y1905000D01*
X5651500Y2286000D01*
Y3683000D01*
X4818500Y4516000D01*
X4800000D01*
G01X7300000Y3500000D02*
X5411000Y1611000D01*
Y750000D01*
X5587600Y573400D01*
X5787930D01*
X5873000Y658470D01*
Y700000D01*
G01X6731000Y1587500D02*
Y1369000D01*
X7500000Y600000D01*
G01X6700000Y4516000D02*
Y4100000D01*
X7300000Y3500000D01*
G01X7500000Y1616000D02*
Y2154000D01*
X8308000Y2962000D01*
G01X7900000Y3700000D02*
Y3370000D01*
X8308000Y2962000D01*
G01X7300000Y4516000D02*
X7673500Y4889500D01*
X10414000D01*
X11620500Y3683000D01*
Y2603500D01*
X11300000Y2283000D01*
Y1800000D01*
G01X8200000Y1590600D02*
Y2054000D01*
X8054000Y2200000D01*
G01X8200000Y1590600D02*
X8194600D01*
G54D18*
G01X2500000Y1616000D02*
X2388300Y1727700D01*
Y2691700D01*
X1079500Y4000500D01*
G01X2854000Y2962000D02*
Y2924500D01*
G01X6000000Y1600000D02*
Y1411200D01*
X5746000Y1157200D01*
Y700000D01*
G01X6000000Y1600000D02*
X6731000Y869000D01*
Y571500D01*
G01X8200000Y600000D02*
Y580000D01*
G01Y600000D02*
X8274870Y674870D01*
X8294870D01*
X9207500Y1587500D01*
G01X8562000Y2200000D02*
X8713600Y2351600D01*
Y3313610D01*
X9100000Y3700000D01*
G01X10500000Y1100000D02*
X11049000Y1649000D01*
Y2803000D01*
X11300000Y3054000D01*
G01X10500000Y1100000D02*
X10498000D01*
G01X10500000Y1354000D02*
Y3588620D01*
X10494500Y3594120D01*
Y3700000D01*
G01X10500000Y3954000D02*
X10651600Y3802400D01*
Y3702400D01*
X11300000Y3054000D01*
G01X10500000Y3700000D02*
X10494500D01*
G54D19*
G01X12000000Y0D02*
Y5000000D01*
X0D01*
Y0D01*
X12000000D01*
M02*
