G04 ================== begin FILE IDENTIFICATION RECORD ==================*
G04 Layout Name:  D:/ORCAD/B07_0918/allegro/B07_0918.brd*
G04 Film Name:    Drill_DRAW*
G04 File Format:  Gerber RS274X*
G04 File Origin:  Cadence Allegro 17.2-S073*
G04 Origin Date:  Mon Sep 25 14:57:54 2023*
G04 *
G04 Layer:  MANUFACTURING/NCLEGEND-1-2*
G04 Layer:  BOARD GEOMETRY/DESIGN_OUTLINE*
G04 *
G04 Offset:    (0.0000 0.0000)*
G04 Mirror:    No*
G04 Mode:      Positive*
G04 Rotation:  0*
G04 FullContactRelief:  No*
G04 UndefLineWidth:     0.2000*
G04 ================== end FILE IDENTIFICATION RECORD ====================*
%FSLAX35Y35*MOMM*%
%IR0*IPPOS*OFA0.00000B0.00000*MIA0B0*SFA1.00000B1.00000*%
%AMMACRO14*
1,1,.2,.1651,0.0*
20,1,.2,.1651,0.0,-.1651,0.0,0.0*
1,1,.2,-.1651,0.0*
1,1,.2,0.0,.1651*
20,1,.2,0.0,.1651,0.0,-.1651,0.0*
1,1,.2,0.0,-.1651*
%
%ADD14MACRO14*%
%AMMACRO10*
1,1,.2,.657564,-1.5875*
20,1,.2,.657564,-1.5875,-.657564,-1.5875,0.0*
1,1,.2,-.657564,-1.5875*
20,1,.2,-.657564,-1.5875,-1.5875,-.657564,0.0*
1,1,.2,-1.5875,-.657564*
20,1,.2,-1.5875,-.657564,-1.5875,.657564,0.0*
1,1,.2,-1.5875,.657564*
20,1,.2,-1.5875,.657564,-.657564,1.5875,0.0*
1,1,.2,-.657564,1.5875*
20,1,.2,-.657564,1.5875,.657564,1.5875,0.0*
1,1,.2,.657564,1.5875*
20,1,.2,.657564,1.5875,1.5875,.657564,0.0*
1,1,.2,1.5875,.657564*
20,1,.2,1.5875,.657564,1.5875,-.657564,0.0*
1,1,.2,1.5875,-.657564*
20,1,.2,1.5875,-.657564,.657564,-1.5875,0.0*
1,1,.2,.657564,-1.5875*
%
%ADD10MACRO10*%
%AMMACRO13*
1,1,.2,.3937,.3937*
20,1,.2,.3937,.3937,.3937,-.3937,0.0*
1,1,.2,.3937,-.3937*
20,1,.2,.3937,-.3937,-.3937,-.3937,0.0*
1,1,.2,-.3937,-.3937*
20,1,.2,-.3937,-.3937,-.3937,.3937,0.0*
1,1,.2,-.3937,.3937*
20,1,.2,-.3937,.3937,.3937,.3937,0.0*
1,1,.2,.3937,.3937*
%
%ADD13MACRO13*%
%AMMACRO11*
1,1,.2,.4572,0.0*
20,1,.2,.4572,0.0,.2286,.395947,0.0*
1,1,.2,.2286,.395947*
20,1,.2,.2286,.395947,-.2286,.395947,0.0*
1,1,.2,-.2286,.395947*
20,1,.2,-.2286,.395947,-.4572,0.0,0.0*
1,1,.2,-.4572,0.0*
20,1,.2,-.4572,0.0,-.2286,-.395947,0.0*
1,1,.2,-.2286,-.395947*
20,1,.2,-.2286,-.395947,.2286,-.395947,0.0*
1,1,.2,.2286,-.395947*
20,1,.2,.2286,-.395947,.4572,0.0,0.0*
1,1,.2,.4572,0.0*
%
%ADD11MACRO11*%
%AMMACRO12*
1,1,.2,0.0,.5334*
20,1,.2,0.0,.5334,-.461938,.2667,0.0*
1,1,.2,-.461938,.2667*
20,1,.2,-.461938,.2667,-.461938,-.2667,0.0*
1,1,.2,-.461938,-.2667*
20,1,.2,-.461938,-.2667,0.0,-.5334,0.0*
1,1,.2,0.0,-.5334*
20,1,.2,0.0,-.5334,.461938,-.2667,0.0*
1,1,.2,.461938,-.2667*
20,1,.2,.461938,-.2667,.461938,.2667,0.0*
1,1,.2,.461938,.2667*
20,1,.2,.461938,.2667,0.0,.5334,0.0*
1,1,.2,0.0,.5334*
%
%ADD12MACRO12*%
%ADD15C,.2*%
G75*
%LPD*%
G75*
G54D10*
X500000Y500000D03*
Y4500000D03*
X741730Y-5477500D03*
X11500000Y500000D03*
Y4500000D03*
G54D11*
X741730Y-4207500D03*
X889000Y2476500D03*
X2600000Y2200000D03*
Y2962000D03*
X3362000Y2200000D03*
X3108000D03*
X2854000D03*
X3362000Y2962000D03*
X3108000D03*
X2854000D03*
X3600000Y600000D03*
Y1590600D03*
X4699000Y596900D03*
Y1587500D03*
X8054000Y2200000D03*
X7800000D03*
X8054000Y2962000D03*
X7800000D03*
X8200000Y600000D03*
Y1590600D03*
X8562000Y2200000D03*
X8308000D03*
X8562000Y2962000D03*
X8308000D03*
X10500000Y1100000D03*
Y1354000D03*
Y3954000D03*
Y3700000D03*
X11300000Y1800000D03*
Y3308000D03*
Y3054000D03*
Y2800000D03*
G54D12*
X741730Y-4842500D03*
X1079500Y4000500D03*
Y3746500D03*
X1651000Y508000D03*
Y1524000D03*
X2500000Y600000D03*
Y1616000D03*
X2600000Y3954000D03*
Y3700000D03*
X3700000Y3500000D03*
Y4516000D03*
X4800000Y3500000D03*
Y4516000D03*
X5461000Y3492500D03*
Y4508500D03*
X6731000Y571500D03*
Y1587500D03*
X6700000Y3500000D03*
X7300000D03*
X6700000Y4516000D03*
X7300000D03*
X7500000Y600000D03*
Y1616000D03*
X7900000Y3954000D03*
Y3700000D03*
X9207500Y1587500D03*
Y1333500D03*
X9100000Y3954000D03*
Y3700000D03*
G54D13*
X741730Y-3572500D03*
X5746000Y700000D03*
Y1600000D03*
X6000000Y700000D03*
X5873000D03*
X6000000Y1600000D03*
X5873000D03*
G54D14*
X741730Y-2937500D03*
X889000Y2476500D03*
X1079500Y3746500D03*
X2500000Y1616000D03*
X2854000Y2200000D03*
Y2924500D03*
X3108000D03*
X3600000Y591000D03*
X3616400Y1590600D03*
X3600000D03*
X3690500Y3500000D03*
X3700000Y4516000D03*
X3690500D03*
X4800000Y3500000D03*
Y3518500D03*
X4770000Y4516000D03*
X4800000D03*
X5746800Y700000D03*
X5746000D03*
X5461000Y3492500D03*
X5873000Y729500D03*
X6000000Y1600000D03*
X6700000Y3500000D03*
X7500000Y600000D03*
X7521500Y1616000D03*
X8054000Y2974000D03*
X7900000Y3700000D03*
X8200000Y580000D03*
Y600000D03*
X8194600Y1590600D03*
X8200000D03*
X8308000Y2200000D03*
X8562000D03*
X9100000Y3700000D03*
Y3954000D03*
X10498000Y1100000D03*
X10500000Y1354000D03*
X10494500Y3700000D03*
X10500000D03*
X11300000Y3054000D03*
X11245500Y3308000D03*
G54D15*
G01X-400000Y-5795000D02*
Y-700000D01*
X12198400D01*
Y-5795000D01*
X-400000D01*
G01Y-5160000D02*
X12198400D01*
G01X-400000Y-4525000D02*
X12198400D01*
G01X-400000Y-3890000D02*
X12198400D01*
G01X-400000Y-3255000D02*
X12198400D01*
G01X-400000Y-1985000D02*
X12198400D01*
G01X-400000Y-2620000D02*
X12198400D01*
G01X-400000Y-1350000D02*
X12198400D01*
G01X-120480Y-2461250D02*
Y-2143750D01*
X29140D01*
G01X-25990Y-2297200D02*
X-120480D01*
G01X222050Y-2143750D02*
X316530D01*
G01X269290D02*
Y-2461250D01*
G01X222050D02*
X316530D01*
G01X607870Y-2302500D02*
X686620D01*
Y-2397750D01*
X662990Y-2429510D01*
X635430Y-2450670D01*
X596060Y-2461250D01*
X556690Y-2450670D01*
X529130Y-2429510D01*
X505510Y-2397750D01*
X489760Y-2360710D01*
X481880Y-2318380D01*
Y-2281330D01*
X489760Y-2249590D01*
X505510Y-2212540D01*
X529130Y-2180790D01*
X552750Y-2159630D01*
X584250Y-2143750D01*
X611810D01*
X643300Y-2154330D01*
X666930Y-2175500D01*
G01X812600Y-2143750D02*
Y-2371290D01*
X828340Y-2418930D01*
X859840Y-2450670D01*
X899210Y-2461250D01*
X938580Y-2450670D01*
X970080Y-2418930D01*
X985820Y-2371290D01*
Y-2143750D01*
G01X1135430Y-2461250D02*
Y-2143750D01*
X1233850D01*
X1265350Y-2159630D01*
X1285040Y-2180790D01*
X1292910Y-2223130D01*
X1285040Y-2265460D01*
X1261410Y-2291910D01*
X1233850Y-2307800D01*
X1135430D01*
G01X1233850D02*
X1292910Y-2461250D01*
G01X1607870D02*
X1450390D01*
Y-2143750D01*
X1607870D01*
G01X1544880Y-2297200D02*
X1450390D01*
G01X12000000Y0D02*
Y5000000D01*
X0D01*
Y0D01*
X12000000D01*
G01X1883460Y-1985000D02*
Y-5795000D01*
G01X1548810Y-1826250D02*
X1647240Y-1508750D01*
X1745670Y-1826250D01*
G01X1710230Y-1715130D02*
X1584240D01*
G01X1883460Y-1508750D02*
Y-1826250D01*
X2040940D01*
G01X2198420Y-1508750D02*
Y-1826250D01*
X2355900D01*
G01X2820470Y-1508750D02*
Y-1736290D01*
X2836210Y-1783930D01*
X2867710Y-1815670D01*
X2907080Y-1826250D01*
X2946450Y-1815670D01*
X2977950Y-1783930D01*
X2993690Y-1736290D01*
Y-1508750D01*
G01X3131490Y-1826250D02*
Y-1508750D01*
X3312590Y-1826250D01*
Y-1508750D01*
G01X3489760D02*
X3584240D01*
G01X3537000D02*
Y-1826250D01*
G01X3489760D02*
X3584240D01*
G01X3851960Y-1508750D02*
Y-1826250D01*
G01X3761410Y-1508750D02*
X3942510D01*
G01X4084240Y-1783930D02*
X4115740Y-1810380D01*
X4151170Y-1826250D01*
X4182670D01*
X4214160Y-1810380D01*
X4237790Y-1783930D01*
X4249600Y-1746870D01*
X4241730Y-1709840D01*
X4222040Y-1678090D01*
X4186600Y-1656910D01*
X4139360Y-1646330D01*
X4111800Y-1625170D01*
X4099990Y-1588130D01*
X4107870Y-1551080D01*
X4127550Y-1524630D01*
X4155110Y-1508750D01*
X4182670D01*
X4210230Y-1519330D01*
X4233850Y-1545790D01*
G01X4698410Y-1826250D02*
X4796840Y-1508750D01*
X4895270Y-1826250D01*
G01X4859830Y-1715130D02*
X4733840D01*
G01X5033060Y-1826250D02*
Y-1508750D01*
X5131480D01*
X5162980Y-1524630D01*
X5182670Y-1545790D01*
X5190540Y-1588130D01*
X5182670Y-1630460D01*
X5159040Y-1656910D01*
X5131480Y-1672800D01*
X5033060D01*
G01X5131480D02*
X5190540Y-1826250D01*
G01X5505500D02*
X5348020D01*
Y-1508750D01*
X5505500D01*
G01X5442510Y-1662200D02*
X5348020D01*
G01X6009440Y-1508750D02*
X6103920D01*
G01X6056680D02*
Y-1826250D01*
G01X6009440D02*
X6103920D01*
G01X6281090D02*
Y-1508750D01*
X6462190Y-1826250D01*
Y-1508750D01*
G01X6899190Y-1826250D02*
Y-1508750D01*
X7001560Y-1773330D01*
X7103930Y-1508750D01*
Y-1826250D01*
G01X7269280Y-1508750D02*
X7363760D01*
G01X7316520D02*
Y-1826250D01*
G01X7269280D02*
X7363760D01*
G01X7552740Y-1508750D02*
Y-1826250D01*
X7710220D01*
G01X7867700Y-1508750D02*
Y-1826250D01*
X8025180D01*
G01X8214160Y-1508750D02*
X8308640D01*
G01X8261400D02*
Y-1826250D01*
G01X8214160D02*
X8308640D01*
G01X8473990D02*
Y-1508750D01*
X8576360Y-1773330D01*
X8678730Y-1508750D01*
Y-1826250D01*
G01X8970060D02*
X8812580D01*
Y-1508750D01*
X8970060D01*
G01X8907070Y-1662200D02*
X8812580D01*
G01X9206280Y-1508750D02*
Y-1826250D01*
G01X9115730Y-1508750D02*
X9296830D01*
G01X9599980Y-1826250D02*
X9442500D01*
Y-1508750D01*
X9599980D01*
G01X9536990Y-1662200D02*
X9442500D01*
G01X9757460Y-1826250D02*
Y-1508750D01*
X9855880D01*
X9887380Y-1524630D01*
X9907070Y-1545790D01*
X9914940Y-1588130D01*
X9907070Y-1630460D01*
X9883440Y-1656910D01*
X9855880Y-1672800D01*
X9757460D01*
G01X9855880D02*
X9914940Y-1826250D01*
G01X10068480Y-1783930D02*
X10099980Y-1810380D01*
X10135410Y-1826250D01*
X10166910D01*
X10198400Y-1810380D01*
X10222030Y-1783930D01*
X10233840Y-1746870D01*
X10225970Y-1709840D01*
X10206280Y-1678090D01*
X10170840Y-1656910D01*
X10123600Y-1646330D01*
X10096040Y-1625170D01*
X10084230Y-1588130D01*
X10092110Y-1551080D01*
X10111790Y-1524630D01*
X10139350Y-1508750D01*
X10166910D01*
X10194470Y-1519330D01*
X10218090Y-1545790D01*
G01X1875590Y-1176250D02*
Y-858750D01*
X1954320D01*
X1985820Y-874630D01*
X2009440Y-895790D01*
X2029130Y-927540D01*
X2044880Y-964590D01*
X2048810Y-1017500D01*
X2044880Y-1070420D01*
X2029130Y-1107460D01*
X2009440Y-1139220D01*
X1985820Y-1160380D01*
X1954320Y-1176250D01*
X1875590D01*
G01X2198420D02*
Y-858750D01*
X2296840D01*
X2328340Y-874630D01*
X2348030Y-895790D01*
X2355900Y-938130D01*
X2348030Y-980460D01*
X2324400Y-1006910D01*
X2296840Y-1022800D01*
X2198420D01*
G01X2296840D02*
X2355900Y-1176250D01*
G01X2544880Y-858750D02*
X2639360D01*
G01X2592120D02*
Y-1176250D01*
G01X2544880D02*
X2639360D01*
G01X2828340Y-858750D02*
Y-1176250D01*
X2985820D01*
G01X3143300Y-858750D02*
Y-1176250D01*
X3300780D01*
G01X3938570Y-885210D02*
X3914950Y-869330D01*
X3887400Y-858750D01*
X3855900D01*
X3820460Y-874630D01*
X3792910Y-901080D01*
X3773220Y-932840D01*
X3757470Y-985750D01*
X3753530Y-1033380D01*
X3761410Y-1081000D01*
X3773220Y-1112750D01*
X3796840Y-1144510D01*
X3824400Y-1165670D01*
X3851960Y-1176250D01*
X3879520D01*
X3907080Y-1165670D01*
X3930700Y-1149800D01*
X3950390Y-1128640D01*
G01X4084240Y-1176250D02*
Y-858750D01*
G01X4249600D02*
Y-1176250D01*
G01Y-1017500D02*
X4084240D01*
G01X4383450Y-1176250D02*
X4481880Y-858750D01*
X4580310Y-1176250D01*
G01X4544870Y-1065130D02*
X4418880D01*
G01X4718100Y-1176250D02*
Y-858750D01*
X4816520D01*
X4848020Y-874630D01*
X4867710Y-895790D01*
X4875580Y-938130D01*
X4867710Y-980460D01*
X4844080Y-1006910D01*
X4816520Y-1022800D01*
X4718100D01*
G01X4816520D02*
X4875580Y-1176250D01*
G01X5111800Y-858750D02*
Y-1176250D01*
G01X5021250Y-858750D02*
X5202350D01*
G01X5426760Y-1186830D02*
X5418880Y-1181540D01*
Y-1170960D01*
X5426760Y-1165670D01*
X5434640Y-1170960D01*
Y-1181540D01*
X5426760Y-1186830D01*
G01Y-1043970D02*
X5418880Y-1038670D01*
Y-1028090D01*
X5426760Y-1022800D01*
X5434640Y-1028090D01*
Y-1038670D01*
X5426760Y-1043970D01*
G01X6056680Y-858750D02*
Y-1176250D01*
G01X5966130Y-858750D02*
X6147230D01*
G01X6371640Y-1176250D02*
X6340140Y-1170960D01*
X6312590Y-1149800D01*
X6288960Y-1118040D01*
X6273210Y-1081000D01*
X6265340Y-1038670D01*
Y-996330D01*
X6273210Y-954000D01*
X6288960Y-916960D01*
X6312590Y-885210D01*
X6340140Y-864040D01*
X6371640Y-858750D01*
X6403130Y-864040D01*
X6430690Y-885210D01*
X6454320Y-916960D01*
X6470070Y-954000D01*
X6477940Y-996330D01*
Y-1038670D01*
X6470070Y-1081000D01*
X6454320Y-1118040D01*
X6430690Y-1149800D01*
X6403130Y-1170960D01*
X6371640Y-1176250D01*
G01X6607860D02*
Y-858750D01*
X6702350D01*
X6733840Y-874630D01*
X6757470Y-911670D01*
X6765340Y-954000D01*
X6757470Y-996330D01*
X6737780Y-1028090D01*
X6702350Y-1043970D01*
X6607860D01*
G01X7316520Y-858750D02*
Y-1176250D01*
G01X7261400Y-964590D02*
X7371640D01*
G01X7631480Y-1176250D02*
X7607860Y-1170960D01*
X7584240Y-1149800D01*
X7568480Y-1112750D01*
X7560610Y-1070420D01*
X7568480Y-1028090D01*
X7584240Y-991040D01*
X7607860Y-969880D01*
X7631480Y-964590D01*
X7655100Y-969880D01*
X7678720Y-991040D01*
X7694470Y-1028090D01*
X7698410Y-1070420D01*
X7694470Y-1112750D01*
X7678720Y-1149800D01*
X7655100Y-1170960D01*
X7631480Y-1176250D01*
G01X8292890Y-1006910D02*
X8308640Y-991040D01*
X8320450Y-964590D01*
X8328330Y-927540D01*
X8320450Y-895790D01*
X8304710Y-874630D01*
X8277150Y-858750D01*
X8170850D01*
Y-1176250D01*
X8300770D01*
X8328330Y-1155090D01*
X8344080Y-1123330D01*
X8351950Y-1086290D01*
X8344080Y-1049260D01*
X8320450Y-1017500D01*
X8292890Y-1006910D01*
X8170850D01*
G01X8576360Y-1176250D02*
X8544860Y-1170960D01*
X8517310Y-1149800D01*
X8493680Y-1118040D01*
X8477930Y-1081000D01*
X8470060Y-1038670D01*
Y-996330D01*
X8477930Y-954000D01*
X8493680Y-916960D01*
X8517310Y-885210D01*
X8544860Y-864040D01*
X8576360Y-858750D01*
X8607850Y-864040D01*
X8635410Y-885210D01*
X8659040Y-916960D01*
X8674790Y-954000D01*
X8682660Y-996330D01*
Y-1038670D01*
X8674790Y-1081000D01*
X8659040Y-1118040D01*
X8635410Y-1149800D01*
X8607850Y-1170960D01*
X8576360Y-1176250D01*
G01X8891320Y-858750D02*
Y-1176250D01*
G01X8800770Y-858750D02*
X8981870D01*
G01X9206280D02*
Y-1176250D01*
G01X9115730Y-858750D02*
X9296830D01*
G01X9521240Y-1176250D02*
X9489740Y-1170960D01*
X9462190Y-1149800D01*
X9438560Y-1118040D01*
X9422810Y-1081000D01*
X9414940Y-1038670D01*
Y-996330D01*
X9422810Y-954000D01*
X9438560Y-916960D01*
X9462190Y-885210D01*
X9489740Y-864040D01*
X9521240Y-858750D01*
X9552730Y-864040D01*
X9580290Y-885210D01*
X9603920Y-916960D01*
X9619670Y-954000D01*
X9627540Y-996330D01*
Y-1038670D01*
X9619670Y-1081000D01*
X9603920Y-1118040D01*
X9580290Y-1149800D01*
X9552730Y-1170960D01*
X9521240Y-1176250D01*
G01X9733830D02*
Y-858750D01*
X9836200Y-1123330D01*
X9938570Y-858750D01*
Y-1176250D01*
G01X2477940Y-2461250D02*
Y-2143750D01*
X2627560D01*
G01X2572430Y-2297200D02*
X2477940D01*
G01X2820470Y-2143750D02*
X2914950D01*
G01X2867710D02*
Y-2461250D01*
G01X2820470D02*
X2914950D01*
G01X3092120D02*
Y-2143750D01*
X3273220Y-2461250D01*
Y-2143750D01*
G01X3450390D02*
X3544870D01*
G01X3497630D02*
Y-2461250D01*
G01X3450390D02*
X3544870D01*
G01X3729910Y-2418930D02*
X3761410Y-2445380D01*
X3796840Y-2461250D01*
X3828340D01*
X3859830Y-2445380D01*
X3883460Y-2418930D01*
X3895270Y-2381870D01*
X3887400Y-2344840D01*
X3867710Y-2313090D01*
X3832270Y-2291910D01*
X3785030Y-2281330D01*
X3757470Y-2260170D01*
X3745660Y-2223130D01*
X3753540Y-2186080D01*
X3773220Y-2159630D01*
X3800780Y-2143750D01*
X3828340D01*
X3855900Y-2154330D01*
X3879520Y-2180790D01*
G01X4044870Y-2461250D02*
Y-2143750D01*
G01X4210230D02*
Y-2461250D01*
G01Y-2302500D02*
X4044870D01*
G01X4521250Y-2461250D02*
X4363770D01*
Y-2143750D01*
X4521250D01*
G01X4458260Y-2297200D02*
X4363770D01*
G01X4670860Y-2461250D02*
Y-2143750D01*
X4749590D01*
X4781090Y-2159630D01*
X4804710Y-2180790D01*
X4824400Y-2212540D01*
X4840150Y-2249590D01*
X4844080Y-2302500D01*
X4840150Y-2355420D01*
X4824400Y-2392460D01*
X4804710Y-2424220D01*
X4781090Y-2445380D01*
X4749590Y-2461250D01*
X4670860D01*
G01X4954320Y-2567080D02*
X5190540D01*
G01X5304710Y-2418930D02*
X5336210Y-2445380D01*
X5371640Y-2461250D01*
X5403140D01*
X5434630Y-2445380D01*
X5458260Y-2418930D01*
X5470070Y-2381870D01*
X5462200Y-2344840D01*
X5442510Y-2313090D01*
X5407070Y-2291910D01*
X5359830Y-2281330D01*
X5332270Y-2260170D01*
X5320460Y-2223130D01*
X5328340Y-2186080D01*
X5348020Y-2159630D01*
X5375580Y-2143750D01*
X5403140D01*
X5430700Y-2154330D01*
X5454320Y-2180790D01*
G01X5655110Y-2143750D02*
X5749590D01*
G01X5702350D02*
Y-2461250D01*
G01X5655110D02*
X5749590D01*
G01X5942500Y-2143750D02*
X6092120D01*
X5942500Y-2461250D01*
X6092120D01*
G01X6411010D02*
X6253530D01*
Y-2143750D01*
X6411010D01*
G01X6348020Y-2297200D02*
X6253530D01*
G01X3725980Y-5572750D02*
X3749590Y-5609800D01*
X3781090Y-5630960D01*
X3816530Y-5636250D01*
X3848030Y-5630960D01*
X3879520Y-5604510D01*
X3899200Y-5572750D01*
X3903140Y-5541000D01*
X3895270Y-5503970D01*
X3867710Y-5477500D01*
X3840150Y-5466910D01*
X3804710D01*
G01X3840150D02*
X3863770Y-5451040D01*
X3883460Y-5424590D01*
X3891330Y-5392840D01*
X3883460Y-5361080D01*
X3863770Y-5334630D01*
X3828340Y-5318750D01*
X3792910Y-5324040D01*
X3757470Y-5345210D01*
G01X4127550Y-5646830D02*
X4119670Y-5641540D01*
Y-5630960D01*
X4127550Y-5625670D01*
X4135430Y-5630960D01*
Y-5641540D01*
X4127550Y-5646830D01*
G01X4442510Y-5636250D02*
Y-5318750D01*
X4395270Y-5382250D01*
G01Y-5636250D02*
X4489750D01*
G01X4749590D02*
X4757470Y-5567460D01*
X4769280Y-5509260D01*
X4785030Y-5456330D01*
X4804710Y-5398130D01*
X4836210Y-5318750D01*
X4678730D01*
G01X4985820Y-5588640D02*
X5009430Y-5615090D01*
X5036990Y-5630960D01*
X5072430Y-5636250D01*
X5107870Y-5625670D01*
X5135420Y-5604510D01*
X5155110Y-5567460D01*
X5159040Y-5525130D01*
X5151170Y-5482800D01*
X5131480Y-5456330D01*
X5103920Y-5435170D01*
X5076370Y-5429880D01*
X5048810Y-5435170D01*
X5013380Y-5456330D01*
X5025190Y-5318750D01*
X5131480D01*
G01X3655110Y-5001250D02*
Y-4683750D01*
X3607870Y-4747250D01*
G01Y-5001250D02*
X3702350D01*
G01X3970070Y-5011830D02*
X3962190Y-5006540D01*
Y-4995960D01*
X3970070Y-4990670D01*
X3977950Y-4995960D01*
Y-5006540D01*
X3970070Y-5011830D01*
G01X4285030Y-4683750D02*
X4253530Y-4694330D01*
X4229910Y-4720790D01*
X4214160Y-4752540D01*
X4202350Y-4794880D01*
X4198420Y-4842500D01*
X4202350Y-4890130D01*
X4214160Y-4932460D01*
X4229910Y-4964220D01*
X4253530Y-4990670D01*
X4285030Y-5001250D01*
X4316520Y-4990670D01*
X4340150Y-4964220D01*
X4355900Y-4932460D01*
X4367710Y-4890130D01*
X4371640Y-4842500D01*
X4367710Y-4794880D01*
X4355900Y-4752540D01*
X4340150Y-4720790D01*
X4316520Y-4694330D01*
X4285030Y-4683750D01*
G01X4525180Y-4868970D02*
X4552750Y-4831910D01*
X4576370Y-4810750D01*
X4607870Y-4800170D01*
X4635430Y-4810750D01*
X4655110Y-4831910D01*
X4670860Y-4863670D01*
X4674800Y-4900710D01*
X4670860Y-4932460D01*
X4655110Y-4964220D01*
X4631480Y-4990670D01*
X4603930Y-5001250D01*
X4572430Y-4990670D01*
X4544870Y-4958930D01*
X4529120Y-4911290D01*
X4525180Y-4858380D01*
X4533060Y-4789590D01*
X4544870Y-4752540D01*
X4564550Y-4715500D01*
X4592110Y-4689040D01*
X4619670Y-4683750D01*
X4647230Y-4694330D01*
X4666920Y-4720790D01*
G01X4840140Y-4868970D02*
X4867710Y-4831910D01*
X4891330Y-4810750D01*
X4922830Y-4800170D01*
X4950390Y-4810750D01*
X4970070Y-4831910D01*
X4985820Y-4863670D01*
X4989760Y-4900710D01*
X4985820Y-4932460D01*
X4970070Y-4964220D01*
X4946440Y-4990670D01*
X4918890Y-5001250D01*
X4887390Y-4990670D01*
X4859830Y-4958930D01*
X4844080Y-4911290D01*
X4840140Y-4858380D01*
X4848020Y-4789590D01*
X4859830Y-4752540D01*
X4879510Y-4715500D01*
X4907070Y-4689040D01*
X4934630Y-4683750D01*
X4962190Y-4694330D01*
X4981880Y-4720790D01*
G01X5229910Y-5001250D02*
X5257470Y-4995960D01*
X5288960Y-4980090D01*
X5308650Y-4953640D01*
X5316520Y-4916580D01*
X5308650Y-4879550D01*
X5285030Y-4847800D01*
X5249590Y-4831910D01*
X5210230D01*
X5186600Y-4821330D01*
X5166910Y-4794880D01*
X5159040Y-4757840D01*
X5170860Y-4720790D01*
X5198410Y-4694330D01*
X5229910Y-4683750D01*
X5261400Y-4694330D01*
X5288960Y-4720790D01*
X5300780Y-4757840D01*
X5292900Y-4794880D01*
X5273220Y-4821330D01*
X5249590Y-4831910D01*
X5210230D01*
X5174790Y-4847800D01*
X5151170Y-4879550D01*
X5143300Y-4916580D01*
X5151170Y-4953640D01*
X5170860Y-4980090D01*
X5202350Y-4995960D01*
X5229910Y-5001250D01*
G01X3655110Y-4048750D02*
X3623610Y-4059330D01*
X3599990Y-4085790D01*
X3584240Y-4117540D01*
X3572430Y-4159880D01*
X3568500Y-4207500D01*
X3572430Y-4255130D01*
X3584240Y-4297460D01*
X3599990Y-4329220D01*
X3623610Y-4355670D01*
X3655110Y-4366250D01*
X3686600Y-4355670D01*
X3710230Y-4329220D01*
X3725980Y-4297460D01*
X3737790Y-4255130D01*
X3741720Y-4207500D01*
X3737790Y-4159880D01*
X3725980Y-4117540D01*
X3710230Y-4085790D01*
X3686600Y-4059330D01*
X3655110Y-4048750D01*
G01X3970070Y-4376830D02*
X3962190Y-4371540D01*
Y-4360960D01*
X3970070Y-4355670D01*
X3977950Y-4360960D01*
Y-4371540D01*
X3970070Y-4376830D01*
G01X4218100Y-4329220D02*
X4245660Y-4355670D01*
X4277150Y-4366250D01*
X4308650Y-4355670D01*
X4336210Y-4323930D01*
X4355900Y-4276290D01*
X4363770Y-4228670D01*
Y-4170460D01*
X4355900Y-4122840D01*
X4336210Y-4080500D01*
X4312590Y-4059330D01*
X4285030Y-4048750D01*
X4253530Y-4059330D01*
X4229910Y-4080500D01*
X4214160Y-4112250D01*
X4206290Y-4154590D01*
X4214160Y-4191620D01*
X4233850Y-4228670D01*
X4257470Y-4249840D01*
X4285030Y-4255130D01*
X4316520Y-4244550D01*
X4340150Y-4218090D01*
X4363770Y-4170460D01*
G01X4599990Y-4366250D02*
Y-4048750D01*
X4552750Y-4112250D01*
G01Y-4366250D02*
X4647230D01*
G01X4962190D02*
Y-4048750D01*
X4816520Y-4276290D01*
X5013380D01*
G01X5277150Y-4366250D02*
Y-4048750D01*
X5131480Y-4276290D01*
X5328340D01*
G01X3655110Y-3413750D02*
X3623610Y-3424330D01*
X3599990Y-3450790D01*
X3584240Y-3482540D01*
X3572430Y-3524880D01*
X3568500Y-3572500D01*
X3572430Y-3620130D01*
X3584240Y-3662460D01*
X3599990Y-3694220D01*
X3623610Y-3720670D01*
X3655110Y-3731250D01*
X3686600Y-3720670D01*
X3710230Y-3694220D01*
X3725980Y-3662460D01*
X3737790Y-3620130D01*
X3741720Y-3572500D01*
X3737790Y-3524880D01*
X3725980Y-3482540D01*
X3710230Y-3450790D01*
X3686600Y-3424330D01*
X3655110Y-3413750D01*
G01X3970070Y-3741830D02*
X3962190Y-3736540D01*
Y-3725960D01*
X3970070Y-3720670D01*
X3977950Y-3725960D01*
Y-3736540D01*
X3970070Y-3741830D01*
G01X4277150Y-3731250D02*
X4285030Y-3662460D01*
X4296840Y-3604260D01*
X4312590Y-3551330D01*
X4332270Y-3493130D01*
X4363770Y-3413750D01*
X4206290D01*
G01X4599990Y-3731250D02*
X4627550Y-3725960D01*
X4659040Y-3710090D01*
X4678730Y-3683640D01*
X4686600Y-3646580D01*
X4678730Y-3609550D01*
X4655110Y-3577800D01*
X4619670Y-3561910D01*
X4580310D01*
X4556680Y-3551330D01*
X4536990Y-3524880D01*
X4529120Y-3487840D01*
X4540940Y-3450790D01*
X4568490Y-3424330D01*
X4599990Y-3413750D01*
X4631480Y-3424330D01*
X4659040Y-3450790D01*
X4670860Y-3487840D01*
X4662980Y-3524880D01*
X4643300Y-3551330D01*
X4619670Y-3561910D01*
X4580310D01*
X4544870Y-3577800D01*
X4521250Y-3609550D01*
X4513380Y-3646580D01*
X4521250Y-3683640D01*
X4540940Y-3710090D01*
X4572430Y-3725960D01*
X4599990Y-3731250D01*
G01X4907070D02*
X4914950Y-3662460D01*
X4926760Y-3604260D01*
X4942510Y-3551330D01*
X4962190Y-3493130D01*
X4993690Y-3413750D01*
X4836210D01*
G01X5277150Y-3731250D02*
Y-3413750D01*
X5131480Y-3641290D01*
X5328340D01*
G01X3655110Y-2778750D02*
X3623610Y-2789330D01*
X3599990Y-2815790D01*
X3584240Y-2847540D01*
X3572430Y-2889880D01*
X3568500Y-2937500D01*
X3572430Y-2985130D01*
X3584240Y-3027460D01*
X3599990Y-3059220D01*
X3623610Y-3085670D01*
X3655110Y-3096250D01*
X3686600Y-3085670D01*
X3710230Y-3059220D01*
X3725980Y-3027460D01*
X3737790Y-2985130D01*
X3741720Y-2937500D01*
X3737790Y-2889880D01*
X3725980Y-2847540D01*
X3710230Y-2815790D01*
X3686600Y-2789330D01*
X3655110Y-2778750D01*
G01X3970070Y-3106830D02*
X3962190Y-3101540D01*
Y-3090960D01*
X3970070Y-3085670D01*
X3977950Y-3090960D01*
Y-3101540D01*
X3970070Y-3106830D01*
G01X4198420Y-3032750D02*
X4222030Y-3069800D01*
X4253530Y-3090960D01*
X4288970Y-3096250D01*
X4320470Y-3090960D01*
X4351960Y-3064510D01*
X4371640Y-3032750D01*
X4375580Y-3001000D01*
X4367710Y-2963970D01*
X4340150Y-2937500D01*
X4312590Y-2926910D01*
X4277150D01*
G01X4312590D02*
X4336210Y-2911040D01*
X4355900Y-2884590D01*
X4363770Y-2852840D01*
X4355900Y-2821080D01*
X4336210Y-2794630D01*
X4300780Y-2778750D01*
X4265350Y-2784040D01*
X4229910Y-2805210D01*
G01X4513380Y-3032750D02*
X4536990Y-3069800D01*
X4568490Y-3090960D01*
X4603930Y-3096250D01*
X4635430Y-3090960D01*
X4666920Y-3064510D01*
X4686600Y-3032750D01*
X4690540Y-3001000D01*
X4682670Y-2963970D01*
X4655110Y-2937500D01*
X4627550Y-2926910D01*
X4592110D01*
G01X4627550D02*
X4651170Y-2911040D01*
X4670860Y-2884590D01*
X4678730Y-2852840D01*
X4670860Y-2821080D01*
X4651170Y-2794630D01*
X4615740Y-2778750D01*
X4580310Y-2784040D01*
X4544870Y-2805210D01*
G01X4914950Y-2778750D02*
X4883450Y-2789330D01*
X4859830Y-2815790D01*
X4844080Y-2847540D01*
X4832270Y-2889880D01*
X4828340Y-2937500D01*
X4832270Y-2985130D01*
X4844080Y-3027460D01*
X4859830Y-3059220D01*
X4883450Y-3085670D01*
X4914950Y-3096250D01*
X4946440Y-3085670D01*
X4970070Y-3059220D01*
X4985820Y-3027460D01*
X4997630Y-2985130D01*
X5001560Y-2937500D01*
X4997630Y-2889880D01*
X4985820Y-2847540D01*
X4970070Y-2815790D01*
X4946440Y-2789330D01*
X4914950Y-2778750D01*
G01X5155100Y-2831670D02*
X5178730Y-2799920D01*
X5206290Y-2784040D01*
X5237790Y-2778750D01*
X5277150Y-2789330D01*
X5304720Y-2815790D01*
X5312590Y-2847540D01*
X5308650Y-2879300D01*
X5292900Y-2905750D01*
X5214160Y-2958670D01*
X5178730Y-2995710D01*
X5155100Y-3048640D01*
X5147230Y-3096250D01*
X5312590D01*
G01X7107860Y-5636250D02*
Y-5318750D01*
X7288960Y-5636250D01*
Y-5318750D01*
G01X7513370Y-5636250D02*
X7481870Y-5630960D01*
X7454320Y-5609800D01*
X7430690Y-5578040D01*
X7414940Y-5541000D01*
X7407070Y-5498670D01*
Y-5456330D01*
X7414940Y-5414000D01*
X7430690Y-5376960D01*
X7454320Y-5345210D01*
X7481870Y-5324040D01*
X7513370Y-5318750D01*
X7544860Y-5324040D01*
X7572420Y-5345210D01*
X7596050Y-5376960D01*
X7611800Y-5414000D01*
X7619670Y-5456330D01*
Y-5498670D01*
X7611800Y-5541000D01*
X7596050Y-5578040D01*
X7572420Y-5609800D01*
X7544860Y-5630960D01*
X7513370Y-5636250D01*
G01X7737780D02*
Y-5318750D01*
X7918880Y-5636250D01*
Y-5318750D01*
G01X8092110Y-5530420D02*
X8194470D01*
G01X8379510Y-5636250D02*
Y-5318750D01*
X8474000D01*
X8505490Y-5334630D01*
X8529120Y-5371670D01*
X8536990Y-5414000D01*
X8529120Y-5456330D01*
X8509430Y-5488090D01*
X8474000Y-5503970D01*
X8379510D01*
G01X8694470Y-5318750D02*
Y-5636250D01*
X8851950D01*
G01X8989740D02*
X9088170Y-5318750D01*
X9186600Y-5636250D01*
G01X9151160Y-5525130D02*
X9025170D01*
G01X9403130Y-5318750D02*
Y-5636250D01*
G01X9312580Y-5318750D02*
X9493680D01*
G01X9796830Y-5636250D02*
X9639350D01*
Y-5318750D01*
X9796830D01*
G01X9733840Y-5472200D02*
X9639350D01*
G01X9946440Y-5636250D02*
Y-5318750D01*
X10025170D01*
X10056670Y-5334630D01*
X10080290Y-5355790D01*
X10099980Y-5387540D01*
X10115730Y-5424590D01*
X10119660Y-5477500D01*
X10115730Y-5530420D01*
X10099980Y-5567460D01*
X10080290Y-5599220D01*
X10056670Y-5620380D01*
X10025170Y-5636250D01*
X9946440D01*
G01X7001560Y-1985000D02*
Y-5795000D01*
G01X7749590Y-5001250D02*
Y-4683750D01*
X7844080D01*
X7875570Y-4699630D01*
X7899200Y-4736670D01*
X7907070Y-4779000D01*
X7899200Y-4821330D01*
X7879510Y-4853090D01*
X7844080Y-4868970D01*
X7749590D01*
G01X8064550Y-4683750D02*
Y-5001250D01*
X8222030D01*
G01X8359820D02*
X8458250Y-4683750D01*
X8556680Y-5001250D01*
G01X8521240Y-4890130D02*
X8395250D01*
G01X8773210Y-4683750D02*
Y-5001250D01*
G01X8682660Y-4683750D02*
X8863760D01*
G01X9166910Y-5001250D02*
X9009430D01*
Y-4683750D01*
X9166910D01*
G01X9103920Y-4837200D02*
X9009430D01*
G01X9316520Y-5001250D02*
Y-4683750D01*
X9395250D01*
X9426750Y-4699630D01*
X9450370Y-4720790D01*
X9470060Y-4752540D01*
X9485810Y-4789590D01*
X9489740Y-4842500D01*
X9485810Y-4895420D01*
X9470060Y-4932460D01*
X9450370Y-4964220D01*
X9426750Y-4985380D01*
X9395250Y-5001250D01*
X9316520D01*
G01X7749590Y-4366250D02*
Y-4048750D01*
X7844080D01*
X7875570Y-4064630D01*
X7899200Y-4101670D01*
X7907070Y-4144000D01*
X7899200Y-4186330D01*
X7879510Y-4218090D01*
X7844080Y-4233970D01*
X7749590D01*
G01X8064550Y-4048750D02*
Y-4366250D01*
X8222030D01*
G01X8359820D02*
X8458250Y-4048750D01*
X8556680Y-4366250D01*
G01X8521240Y-4255130D02*
X8395250D01*
G01X8773210Y-4048750D02*
Y-4366250D01*
G01X8682660Y-4048750D02*
X8863760D01*
G01X9166910Y-4366250D02*
X9009430D01*
Y-4048750D01*
X9166910D01*
G01X9103920Y-4202200D02*
X9009430D01*
G01X9316520Y-4366250D02*
Y-4048750D01*
X9395250D01*
X9426750Y-4064630D01*
X9450370Y-4085790D01*
X9470060Y-4117540D01*
X9485810Y-4154590D01*
X9489740Y-4207500D01*
X9485810Y-4260420D01*
X9470060Y-4297460D01*
X9450370Y-4329220D01*
X9426750Y-4350380D01*
X9395250Y-4366250D01*
X9316520D01*
G01X7749590Y-3731250D02*
Y-3413750D01*
X7844080D01*
X7875570Y-3429630D01*
X7899200Y-3466670D01*
X7907070Y-3509000D01*
X7899200Y-3551330D01*
X7879510Y-3583090D01*
X7844080Y-3598970D01*
X7749590D01*
G01X8064550Y-3413750D02*
Y-3731250D01*
X8222030D01*
G01X8359820D02*
X8458250Y-3413750D01*
X8556680Y-3731250D01*
G01X8521240Y-3620130D02*
X8395250D01*
G01X8773210Y-3413750D02*
Y-3731250D01*
G01X8682660Y-3413750D02*
X8863760D01*
G01X9166910Y-3731250D02*
X9009430D01*
Y-3413750D01*
X9166910D01*
G01X9103920Y-3567200D02*
X9009430D01*
G01X9316520Y-3731250D02*
Y-3413750D01*
X9395250D01*
X9426750Y-3429630D01*
X9450370Y-3450790D01*
X9470060Y-3482540D01*
X9485810Y-3519590D01*
X9489740Y-3572500D01*
X9485810Y-3625420D01*
X9470060Y-3662460D01*
X9450370Y-3694220D01*
X9426750Y-3715380D01*
X9395250Y-3731250D01*
X9316520D01*
G01X7749590Y-3096250D02*
Y-2778750D01*
X7844080D01*
X7875570Y-2794630D01*
X7899200Y-2831670D01*
X7907070Y-2874000D01*
X7899200Y-2916330D01*
X7879510Y-2948090D01*
X7844080Y-2963970D01*
X7749590D01*
G01X8064550Y-2778750D02*
Y-3096250D01*
X8222030D01*
G01X8359820D02*
X8458250Y-2778750D01*
X8556680Y-3096250D01*
G01X8521240Y-2985130D02*
X8395250D01*
G01X8773210Y-2778750D02*
Y-3096250D01*
G01X8682660Y-2778750D02*
X8863760D01*
G01X9166910Y-3096250D02*
X9009430D01*
Y-2778750D01*
X9166910D01*
G01X9103920Y-2932200D02*
X9009430D01*
G01X9316520Y-3096250D02*
Y-2778750D01*
X9395250D01*
X9426750Y-2794630D01*
X9450370Y-2815790D01*
X9470060Y-2847540D01*
X9485810Y-2884590D01*
X9489740Y-2937500D01*
X9485810Y-2990420D01*
X9470060Y-3027460D01*
X9450370Y-3059220D01*
X9426750Y-3080380D01*
X9395250Y-3096250D01*
X9316520D01*
G01X7749590Y-2461250D02*
Y-2143750D01*
X7844080D01*
X7875570Y-2159630D01*
X7899200Y-2196670D01*
X7907070Y-2239000D01*
X7899200Y-2281330D01*
X7879510Y-2313090D01*
X7844080Y-2328970D01*
X7749590D01*
G01X8064550Y-2143750D02*
Y-2461250D01*
X8222030D01*
G01X8359820D02*
X8458250Y-2143750D01*
X8556680Y-2461250D01*
G01X8521240Y-2350130D02*
X8395250D01*
G01X8773210Y-2143750D02*
Y-2461250D01*
G01X8682660Y-2143750D02*
X8863760D01*
G01X9166910Y-2461250D02*
X9009430D01*
Y-2143750D01*
X9166910D01*
G01X9103920Y-2297200D02*
X9009430D01*
G01X9316520Y-2461250D02*
Y-2143750D01*
X9395250D01*
X9426750Y-2159630D01*
X9450370Y-2180790D01*
X9470060Y-2212540D01*
X9485810Y-2249590D01*
X9489740Y-2302500D01*
X9485810Y-2355420D01*
X9470060Y-2392460D01*
X9450370Y-2424220D01*
X9426750Y-2445380D01*
X9395250Y-2461250D01*
X9316520D01*
G01X10229900Y-1985000D02*
Y-5795000D01*
G01X10981860Y-4736670D02*
X11005490Y-4704920D01*
X11033050Y-4689040D01*
X11064550Y-4683750D01*
X11103910Y-4694330D01*
X11131480Y-4720790D01*
X11139350Y-4752540D01*
X11135410Y-4784300D01*
X11119660Y-4810750D01*
X11040920Y-4863670D01*
X11005490Y-4900710D01*
X10981860Y-4953640D01*
X10973990Y-5001250D01*
X11139350D01*
G01X11371630D02*
X11399190Y-4995960D01*
X11430680Y-4980090D01*
X11450370Y-4953640D01*
X11458240Y-4916580D01*
X11450370Y-4879550D01*
X11426750Y-4847800D01*
X11391310Y-4831910D01*
X11351950D01*
X11328320Y-4821330D01*
X11308630Y-4794880D01*
X11300760Y-4757840D01*
X11312580Y-4720790D01*
X11340130Y-4694330D01*
X11371630Y-4683750D01*
X11403120Y-4694330D01*
X11430680Y-4720790D01*
X11442500Y-4757840D01*
X11434620Y-4794880D01*
X11414940Y-4821330D01*
X11391310Y-4831910D01*
X11351950D01*
X11316510Y-4847800D01*
X11292890Y-4879550D01*
X11285020Y-4916580D01*
X11292890Y-4953640D01*
X11312580Y-4980090D01*
X11344070Y-4995960D01*
X11371630Y-5001250D01*
G01X10970060Y-4302750D02*
X10993670Y-4339800D01*
X11025170Y-4360960D01*
X11060610Y-4366250D01*
X11092110Y-4360960D01*
X11123600Y-4334510D01*
X11143280Y-4302750D01*
X11147220Y-4271000D01*
X11139350Y-4233970D01*
X11111790Y-4207500D01*
X11084230Y-4196910D01*
X11048790D01*
G01X11084230D02*
X11107850Y-4181040D01*
X11127540Y-4154590D01*
X11135410Y-4122840D01*
X11127540Y-4091080D01*
X11107850Y-4064630D01*
X11072420Y-4048750D01*
X11036990Y-4054040D01*
X11001550Y-4075210D01*
G01X11371630Y-4366250D02*
Y-4048750D01*
X11324390Y-4112250D01*
G01Y-4366250D02*
X11418870D01*
G01X10970060Y-3048640D02*
X10993670Y-3075090D01*
X11021230Y-3090960D01*
X11056670Y-3096250D01*
X11092110Y-3085670D01*
X11119660Y-3064510D01*
X11139350Y-3027460D01*
X11143280Y-2985130D01*
X11135410Y-2942800D01*
X11115720Y-2916330D01*
X11088160Y-2895170D01*
X11060610Y-2889880D01*
X11033050Y-2895170D01*
X10997620Y-2916330D01*
X11009430Y-2778750D01*
X11115720D01*
G01X11371630Y-3096250D02*
Y-2778750D01*
X11324390Y-2842250D01*
G01Y-3096250D02*
X11418870D01*
G01X10899190Y-2461250D02*
X10867690Y-2455960D01*
X10840140Y-2434800D01*
X10816510Y-2403040D01*
X10800760Y-2366000D01*
X10792890Y-2323670D01*
Y-2281330D01*
X10800760Y-2239000D01*
X10816510Y-2201960D01*
X10840140Y-2170210D01*
X10867690Y-2149040D01*
X10899190Y-2143750D01*
X10930680Y-2149040D01*
X10958240Y-2170210D01*
X10981870Y-2201960D01*
X10997620Y-2239000D01*
X11005490Y-2281330D01*
Y-2323670D01*
X10997620Y-2366000D01*
X10981870Y-2403040D01*
X10958240Y-2434800D01*
X10930680Y-2455960D01*
X10899190Y-2461250D01*
G01X10930680Y-2376580D02*
X10977930Y-2461250D01*
G01X11214150Y-2143750D02*
Y-2461250D01*
G01X11123600Y-2143750D02*
X11304700D01*
G01X11529110Y-2461250D02*
Y-2318380D01*
X11450370Y-2143750D01*
G01X11607850D02*
X11529110Y-2318380D01*
G01X11261390Y-5636250D02*
Y-5318750D01*
X11115720Y-5546290D01*
X11312580D01*
G01X11139340Y-3598970D02*
X11166910Y-3561910D01*
X11190530Y-3540750D01*
X11222030Y-3530170D01*
X11249590Y-3540750D01*
X11269270Y-3561910D01*
X11285020Y-3593670D01*
X11288960Y-3630710D01*
X11285020Y-3662460D01*
X11269270Y-3694220D01*
X11245640Y-3720670D01*
X11218090Y-3731250D01*
X11186590Y-3720670D01*
X11159030Y-3688930D01*
X11143280Y-3641290D01*
X11139340Y-3588380D01*
X11147220Y-3519590D01*
X11159030Y-3482540D01*
X11178710Y-3445500D01*
X11206270Y-3419040D01*
X11233830Y-3413750D01*
X11261390Y-3424330D01*
X11281080Y-3450790D01*
M02*
