G04 ================== begin FILE IDENTIFICATION RECORD ==================*
G04 Layout Name:  D:/ORCAD/B07_0918/allegro/B07_0918.brd*
G04 Film Name:    Silkscreen_TOP*
G04 File Format:  Gerber RS274X*
G04 File Origin:  Cadence Allegro 17.2-S073*
G04 Origin Date:  Mon Sep 25 15:13:12 2023*
G04 *
G04 Layer:  REF DES/SILKSCREEN_TOP*
G04 Layer:  PACKAGE GEOMETRY/SILKSCREEN_TOP*
G04 Layer:  BOARD GEOMETRY/SILKSCREEN_BOTTOM*
G04 Layer:  BOARD GEOMETRY/DESIGN_OUTLINE*
G04 *
G04 Offset:    (0.0000 0.0000)*
G04 Mirror:    No*
G04 Mode:      Positive*
G04 Rotation:  0*
G04 FullContactRelief:  No*
G04 UndefLineWidth:     0.2000*
G04 ================== end FILE IDENTIFICATION RECORD ====================*
%FSLAX35Y35*MOMM*%
%IR0*IPPOS*OFA0.00000B0.00000*MIA0B0*SFA1.00000B1.00000*%
%ADD10C,.2032*%
%ADD11C,.2*%
G75*
%LPD*%
G75*
G54D10*
G01X6061470Y888470D02*
X5684530D01*
G01D02*
X5626870Y801850D01*
G01D02*
X5606550Y700000D01*
G01D02*
X5626870Y598150D01*
G01D02*
X5684530Y511530D01*
G01D02*
X5771150Y453870D01*
G01X6061470Y888470D02*
X5684530D01*
G01D02*
X5626870Y801850D01*
G01D02*
X5606550Y700000D01*
G01D02*
X5626870Y598150D01*
G01D02*
X5684530Y511530D01*
G01D02*
X5771150Y453870D01*
G01X6061470Y1788470D02*
X5684530D01*
G01D02*
X5626870Y1701850D01*
G01D02*
X5606550Y1600000D01*
G01D02*
X5626870Y1498150D01*
G01D02*
X5684530Y1411530D01*
G01D02*
X5771150Y1353870D01*
G01X6061470Y1788470D02*
X5684530D01*
G01D02*
X5626870Y1701850D01*
G01D02*
X5606550Y1600000D01*
G01D02*
X5626870Y1498150D01*
G01D02*
X5684530Y1411530D01*
G01D02*
X5771150Y1353870D01*
G01Y453870D02*
X5873000Y433550D01*
G01D02*
X5974850Y453870D01*
G01D02*
X6061470Y511530D01*
G01D02*
X6119130Y598150D01*
G01D02*
X6139450Y700000D01*
G01D02*
X6119130Y801850D01*
G01D02*
X6061470Y888470D01*
G01D02*
X6059440Y890500D01*
G01X5771150Y453870D02*
X5873000Y433550D01*
G01D02*
X5974850Y453870D01*
G01D02*
X6061470Y511530D01*
G01D02*
X6119130Y598150D01*
G01D02*
X6139450Y700000D01*
G01D02*
X6119130Y801850D01*
G01D02*
X6061470Y888470D01*
G01D02*
X6059440Y890500D01*
G01X5771150Y1353870D02*
X5873000Y1333550D01*
G01D02*
X5974850Y1353870D01*
G01D02*
X6061470Y1411530D01*
G01D02*
X6119130Y1498150D01*
G01D02*
X6139450Y1600000D01*
G01D02*
X6119130Y1701850D01*
G01D02*
X6061470Y1788470D01*
G01D02*
X6059440Y1790500D01*
G01X5771150Y1353870D02*
X5873000Y1333550D01*
G01D02*
X5974850Y1353870D01*
G01D02*
X6061470Y1411530D01*
G01D02*
X6119130Y1498150D01*
G01D02*
X6139450Y1600000D01*
G01D02*
X6119130Y1701850D01*
G01D02*
X6061470Y1788470D01*
G01D02*
X6059440Y1790500D01*
G54D11*
G01X12000000Y0D02*
Y5000000D01*
X0D01*
Y0D01*
X12000000D01*
G01X762000Y2349500D02*
Y2603500D01*
X1016000D01*
Y2349500D01*
X762000D01*
G01Y2603500D02*
Y2349500D01*
X1016000D01*
Y2603500D01*
X762000D01*
G01X746340Y2832100D02*
X758190Y2813050D01*
X772410Y2800350D01*
X789010Y2794000D01*
X807970Y2800350D01*
X822200Y2813050D01*
X836420Y2832100D01*
X841160Y2857500D01*
Y2984500D01*
G01X984250Y2794000D02*
Y2984500D01*
X955800Y2946400D01*
G01Y2794000D02*
X1012690D01*
G01X1036400Y4429120D02*
X1022180Y4438650D01*
X1005590Y4445000D01*
X986620D01*
X965280Y4435470D01*
X948690Y4419600D01*
X936840Y4400550D01*
X927350Y4368800D01*
X924980Y4340220D01*
X929730Y4311650D01*
X936840Y4292600D01*
X951060Y4273550D01*
X967660Y4260850D01*
X984250Y4254500D01*
X1000840D01*
X1017440Y4260850D01*
X1031660Y4270370D01*
X1043520Y4283070D01*
G01X1174750Y4254500D02*
Y4445000D01*
X1146300Y4406900D01*
G01Y4254500D02*
X1203190D01*
G01X952500Y3619500D02*
Y4127500D01*
X1206500D01*
Y3619500D01*
X952500D01*
G01Y4127500D02*
Y3619500D01*
X1206500D01*
Y4127500D01*
X952500D01*
G01X1524000Y660400D02*
Y1371600D01*
X1778000D01*
Y660400D01*
X1524000D01*
G01Y1371600D02*
X1778000D01*
Y660400D01*
X1524000D01*
G01Y1371600D02*
Y660400D01*
G01X1508340Y1778000D02*
Y1968500D01*
X1567600D01*
X1586570Y1958970D01*
X1598420Y1946270D01*
X1603160Y1920870D01*
X1598420Y1895470D01*
X1584200Y1879600D01*
X1567600Y1870070D01*
X1508340D01*
G01X1567600D02*
X1603160Y1778000D01*
G01X1746250D02*
Y1968500D01*
X1717800Y1930400D01*
G01Y1778000D02*
X1774690D01*
G01X2373000Y752400D02*
Y1463600D01*
X2627000D01*
Y752400D01*
X2373000D01*
G01Y1463600D02*
X2627000D01*
Y752400D01*
X2373000D01*
G01Y1463600D02*
Y752400D01*
G01X2397340Y1841500D02*
Y2032000D01*
X2456600D01*
X2475570Y2022470D01*
X2487420Y2009770D01*
X2492160Y1984370D01*
X2487420Y1958970D01*
X2473200Y1943100D01*
X2456600Y1933570D01*
X2397340D01*
G01X2456600D02*
X2492160Y1841500D01*
G01X2590210Y2000250D02*
X2604430Y2019300D01*
X2621030Y2028830D01*
X2639990Y2032000D01*
X2663700Y2025650D01*
X2680290Y2009770D01*
X2685030Y1990730D01*
X2682660Y1971670D01*
X2673180Y1955800D01*
X2625770Y1924050D01*
X2604430Y1901820D01*
X2590210Y1870070D01*
X2585470Y1841500D01*
X2685030D01*
G01X2473000Y2301600D02*
Y2454000D01*
X2536500Y2517500D01*
Y2644500D01*
X2473000Y2708000D01*
Y2860400D01*
X3489000D01*
Y2301600D01*
X2473000D01*
G01Y2263500D02*
X3489000D01*
Y2898500D01*
X2473000D01*
G01Y2263500D02*
Y2454000D01*
X2536500Y2517500D01*
Y2644500D01*
X2473000Y2708000D01*
Y2898500D01*
G01X2583100Y3429000D02*
Y3292480D01*
X2592580Y3263890D01*
X2611540Y3244850D01*
X2635250Y3238500D01*
X2658960Y3244850D01*
X2677920Y3263890D01*
X2687400Y3292480D01*
Y3429000D01*
G01X2825750Y3238500D02*
Y3429000D01*
X2797300Y3390900D01*
G01Y3238500D02*
X2854190D01*
G01X2560400Y4429120D02*
X2546180Y4438650D01*
X2529590Y4445000D01*
X2510620D01*
X2489280Y4435470D01*
X2472690Y4419600D01*
X2460840Y4400550D01*
X2451350Y4368800D01*
X2448980Y4340220D01*
X2453730Y4311650D01*
X2460840Y4292600D01*
X2475060Y4273550D01*
X2491660Y4260850D01*
X2508250Y4254500D01*
X2524840D01*
X2541440Y4260850D01*
X2555660Y4270370D01*
X2567520Y4283070D01*
G01X2653710Y4413250D02*
X2667930Y4432300D01*
X2684530Y4441830D01*
X2703490Y4445000D01*
X2727200Y4438650D01*
X2743790Y4422770D01*
X2748530Y4403730D01*
X2746160Y4384670D01*
X2736680Y4368800D01*
X2689270Y4337050D01*
X2667930Y4314820D01*
X2653710Y4283070D01*
X2648970Y4254500D01*
X2748530D01*
G01X2473000Y3573000D02*
Y4081000D01*
X2727000D01*
Y3573000D01*
X2473000D01*
G01Y4081000D02*
Y3573000D01*
X2727000D01*
Y4081000D01*
X2473000D01*
G01X3447970Y1905000D02*
Y2095500D01*
X3495380D01*
X3514340Y2085970D01*
X3528570Y2073270D01*
X3540420Y2054230D01*
X3549900Y2032000D01*
X3552270Y2000250D01*
X3549900Y1968500D01*
X3540420Y1946270D01*
X3528570Y1927220D01*
X3514340Y1914520D01*
X3495380Y1905000D01*
X3447970D01*
G01X3645580Y2063750D02*
X3659800Y2082800D01*
X3676400Y2092330D01*
X3695360Y2095500D01*
X3719070Y2089150D01*
X3735660Y2073270D01*
X3740400Y2054230D01*
X3738030Y2035170D01*
X3728550Y2019300D01*
X3681140Y1987550D01*
X3659800Y1965320D01*
X3645580Y1933570D01*
X3640840Y1905000D01*
X3740400D01*
G01X3473000Y854000D02*
Y1336600D01*
X3727000D01*
Y854000D01*
X3473000D01*
G01Y942900D02*
X3727000D01*
G01X3473000Y930200D02*
X3727000D01*
G01X3473000Y942900D02*
X3727000D01*
G01X3473000Y930200D02*
X3727000D01*
G01X3573000Y3652400D02*
Y4363600D01*
X3827000D01*
Y3652400D01*
X3573000D01*
G01Y4363600D02*
X3827000D01*
Y3652400D01*
X3573000D01*
G01Y4363600D02*
Y3652400D01*
G01X3540340Y4699000D02*
Y4889500D01*
X3599600D01*
X3618570Y4879970D01*
X3630420Y4867270D01*
X3635160Y4841870D01*
X3630420Y4816470D01*
X3616200Y4800600D01*
X3599600Y4791070D01*
X3540340D01*
G01X3599600D02*
X3635160Y4699000D01*
G01X3737950Y4721220D02*
X3754540Y4705350D01*
X3773510Y4699000D01*
X3792470Y4705350D01*
X3809070Y4724390D01*
X3820920Y4752980D01*
X3825660Y4781550D01*
Y4816470D01*
X3820920Y4845050D01*
X3809070Y4870450D01*
X3794840Y4883150D01*
X3778250Y4889500D01*
X3759280Y4883150D01*
X3745060Y4870450D01*
X3735580Y4851400D01*
X3730840Y4826000D01*
X3735580Y4803780D01*
X3747430Y4781550D01*
X3761660Y4768850D01*
X3778250Y4765670D01*
X3797210Y4772020D01*
X3811440Y4787900D01*
X3825660Y4816470D01*
G01X4826000Y1333500D02*
Y850900D01*
X4572000D01*
Y1333500D01*
X4826000D01*
G01X4527470Y1841500D02*
Y2032000D01*
X4574880D01*
X4593840Y2022470D01*
X4608070Y2009770D01*
X4619920Y1990730D01*
X4629400Y1968500D01*
X4631770Y1936750D01*
X4629400Y1905000D01*
X4619920Y1882770D01*
X4608070Y1863720D01*
X4593840Y1851020D01*
X4574880Y1841500D01*
X4527470D01*
G01X4717970Y1879600D02*
X4732190Y1857370D01*
X4751150Y1844670D01*
X4772490Y1841500D01*
X4791460Y1844670D01*
X4810420Y1860550D01*
X4822270Y1879600D01*
X4824640Y1898650D01*
X4819900Y1920870D01*
X4803310Y1936750D01*
X4786710Y1943100D01*
X4765380D01*
G01X4786710D02*
X4800940Y1952620D01*
X4812790Y1968500D01*
X4817530Y1987550D01*
X4812790Y2006600D01*
X4800940Y2022470D01*
X4779600Y2032000D01*
X4758270Y2028830D01*
X4736930Y2016120D01*
G01X4826000Y1244600D02*
X4572000D01*
G01X4826000Y1257300D02*
X4572000D01*
G01X4826000Y1244600D02*
X4572000D01*
G01X4826000Y1257300D02*
X4572000D01*
G01X4673000Y3652400D02*
Y4363600D01*
X4927000D01*
Y3652400D01*
X4673000D01*
G01Y4363600D02*
X4927000D01*
Y3652400D01*
X4673000D01*
G01Y4363600D02*
Y3652400D01*
G01X4619840Y4699000D02*
Y4889500D01*
X4679100D01*
X4698070Y4879970D01*
X4709920Y4867270D01*
X4714660Y4841870D01*
X4709920Y4816470D01*
X4695700Y4800600D01*
X4679100Y4791070D01*
X4619840D01*
G01X4679100D02*
X4714660Y4699000D01*
G01X4857750D02*
X4874340Y4702170D01*
X4893310Y4711700D01*
X4905160Y4727570D01*
X4909900Y4749800D01*
X4905160Y4772020D01*
X4890940Y4791070D01*
X4869600Y4800600D01*
X4845900D01*
X4831670Y4806950D01*
X4819820Y4822820D01*
X4815080Y4845050D01*
X4822190Y4867270D01*
X4838780Y4883150D01*
X4857750Y4889500D01*
X4876710Y4883150D01*
X4893310Y4867270D01*
X4900420Y4845050D01*
X4895680Y4822820D01*
X4883830Y4806950D01*
X4869600Y4800600D01*
X4845900D01*
X4824560Y4791070D01*
X4810340Y4772020D01*
X4805600Y4749800D01*
X4810340Y4727570D01*
X4822190Y4711700D01*
X4841160Y4702170D01*
X4857750Y4699000D01*
G01X5786120Y1016000D02*
X5767150Y1019170D01*
X5750560Y1031870D01*
X5736340Y1050920D01*
X5726850Y1073150D01*
X5722110Y1098550D01*
Y1123950D01*
X5726850Y1149350D01*
X5736340Y1171580D01*
X5750560Y1190620D01*
X5767150Y1203330D01*
X5786120Y1206500D01*
X5805080Y1203330D01*
X5821680Y1190620D01*
X5835900Y1171580D01*
X5845390Y1149350D01*
X5850130Y1123950D01*
Y1098550D01*
X5845390Y1073150D01*
X5835900Y1050920D01*
X5821680Y1031870D01*
X5805080Y1019170D01*
X5786120Y1016000D01*
G01X5805080Y1066800D02*
X5833530Y1016000D01*
G01X5931580Y1174750D02*
X5945800Y1193800D01*
X5962400Y1203330D01*
X5981360Y1206500D01*
X6005070Y1200150D01*
X6021660Y1184270D01*
X6026400Y1165230D01*
X6024030Y1146170D01*
X6014550Y1130300D01*
X5967140Y1098550D01*
X5945800Y1076320D01*
X5931580Y1044570D01*
X5926840Y1016000D01*
X6026400D01*
G01X5786120Y1968500D02*
X5767150Y1971670D01*
X5750560Y1984370D01*
X5736340Y2003420D01*
X5726850Y2025650D01*
X5722110Y2051050D01*
Y2076450D01*
X5726850Y2101850D01*
X5736340Y2124080D01*
X5750560Y2143120D01*
X5767150Y2155830D01*
X5786120Y2159000D01*
X5805080Y2155830D01*
X5821680Y2143120D01*
X5835900Y2124080D01*
X5845390Y2101850D01*
X5850130Y2076450D01*
Y2051050D01*
X5845390Y2025650D01*
X5835900Y2003420D01*
X5821680Y1984370D01*
X5805080Y1971670D01*
X5786120Y1968500D01*
G01X5805080Y2019300D02*
X5833530Y1968500D01*
G01X5976620D02*
Y2159000D01*
X5948170Y2120900D01*
G01Y1968500D02*
X6005060D01*
G01X5334000Y3644900D02*
Y4356100D01*
X5588000D01*
Y3644900D01*
X5334000D01*
G01Y4356100D02*
X5588000D01*
Y3644900D01*
X5334000D01*
G01Y4356100D02*
Y3644900D01*
G01X5318340Y4699000D02*
Y4889500D01*
X5377600D01*
X5396570Y4879970D01*
X5408420Y4867270D01*
X5413160Y4841870D01*
X5408420Y4816470D01*
X5394200Y4800600D01*
X5377600Y4791070D01*
X5318340D01*
G01X5377600D02*
X5413160Y4699000D01*
G01X5504100Y4727570D02*
X5518320Y4711700D01*
X5534910Y4702170D01*
X5556250Y4699000D01*
X5577590Y4705350D01*
X5594180Y4718050D01*
X5606030Y4740270D01*
X5608400Y4765670D01*
X5603660Y4791070D01*
X5591810Y4806950D01*
X5575210Y4819650D01*
X5558620Y4822820D01*
X5542030Y4819650D01*
X5520690Y4806950D01*
X5527800Y4889500D01*
X5591810D01*
G01X6858000Y1435100D02*
Y723900D01*
X6604000D01*
Y1435100D01*
X6858000D01*
G01Y723900D02*
X6604000D01*
Y1435100D01*
X6858000D01*
G01Y723900D02*
Y1435100D01*
G01X6588340Y1968500D02*
Y2159000D01*
X6647600D01*
X6666570Y2149470D01*
X6678420Y2136770D01*
X6683160Y2111370D01*
X6678420Y2085970D01*
X6664200Y2070100D01*
X6647600Y2060570D01*
X6588340D01*
G01X6647600D02*
X6683160Y1968500D01*
G01X6774100Y2006600D02*
X6788320Y1984370D01*
X6807280Y1971670D01*
X6828620Y1968500D01*
X6847590Y1971670D01*
X6866550Y1987550D01*
X6878400Y2006600D01*
X6880770Y2025650D01*
X6876030Y2047870D01*
X6859440Y2063750D01*
X6842840Y2070100D01*
X6821510D01*
G01X6842840D02*
X6857070Y2079620D01*
X6868920Y2095500D01*
X6873660Y2114550D01*
X6868920Y2133600D01*
X6857070Y2149470D01*
X6835730Y2159000D01*
X6814400Y2155830D01*
X6793060Y2143120D01*
G01X6573000Y3652400D02*
Y4363600D01*
X6827000D01*
Y3652400D01*
X6573000D01*
G01Y4363600D02*
X6827000D01*
Y3652400D01*
X6573000D01*
G01Y4363600D02*
Y3652400D01*
G01X7173000D02*
Y4363600D01*
X7427000D01*
Y3652400D01*
X7173000D01*
G01Y4363600D02*
X7427000D01*
Y3652400D01*
X7173000D01*
G01Y4363600D02*
Y3652400D01*
G01X6588340Y4699000D02*
Y4889500D01*
X6647600D01*
X6666570Y4879970D01*
X6678420Y4867270D01*
X6683160Y4841870D01*
X6678420Y4816470D01*
X6664200Y4800600D01*
X6647600Y4791070D01*
X6588340D01*
G01X6647600D02*
X6683160Y4699000D01*
G01X6781210Y4778370D02*
X6797800Y4800600D01*
X6812030Y4813300D01*
X6830990Y4819650D01*
X6847590Y4813300D01*
X6859440Y4800600D01*
X6868920Y4781550D01*
X6871290Y4759320D01*
X6868920Y4740270D01*
X6859440Y4721220D01*
X6845210Y4705350D01*
X6828620Y4699000D01*
X6809660Y4705350D01*
X6793060Y4724390D01*
X6783580Y4752980D01*
X6781210Y4784720D01*
X6785950Y4826000D01*
X6793060Y4848230D01*
X6804910Y4870450D01*
X6821510Y4886330D01*
X6838100Y4889500D01*
X6854700Y4883150D01*
X6866550Y4867270D01*
G01X7159840Y4699000D02*
Y4889500D01*
X7219100D01*
X7238070Y4879970D01*
X7249920Y4867270D01*
X7254660Y4841870D01*
X7249920Y4816470D01*
X7235700Y4800600D01*
X7219100Y4791070D01*
X7159840D01*
G01X7219100D02*
X7254660Y4699000D01*
G01X7393010D02*
X7397750Y4740270D01*
X7404860Y4775200D01*
X7414340Y4806950D01*
X7426200Y4841870D01*
X7445160Y4889500D01*
X7350340D01*
G01X7373000Y752400D02*
Y1463600D01*
X7627000D01*
Y752400D01*
X7373000D01*
G01Y1463600D02*
X7627000D01*
Y752400D01*
X7373000D01*
G01Y1463600D02*
Y752400D01*
G01X7350340Y1841500D02*
Y2032000D01*
X7409600D01*
X7428570Y2022470D01*
X7440420Y2009770D01*
X7445160Y1984370D01*
X7440420Y1958970D01*
X7426200Y1943100D01*
X7409600Y1933570D01*
X7350340D01*
G01X7409600D02*
X7445160Y1841500D01*
G01X7616700D02*
Y2032000D01*
X7528980Y1895480D01*
X7647520D01*
G01X7673000Y2301600D02*
Y2454000D01*
X7736500Y2517500D01*
Y2644500D01*
X7673000Y2708000D01*
Y2860400D01*
X8689000D01*
Y2301600D01*
X7673000D01*
G01Y2263500D02*
X8689000D01*
Y2898500D01*
X7673000D01*
G01Y2263500D02*
Y2454000D01*
X7736500Y2517500D01*
Y2644500D01*
X7673000Y2708000D01*
Y2898500D01*
G01X7830900Y4365620D02*
X7816680Y4375150D01*
X7800090Y4381500D01*
X7781120D01*
X7759780Y4371970D01*
X7743190Y4356100D01*
X7731340Y4337050D01*
X7721850Y4305300D01*
X7719480Y4276720D01*
X7724230Y4248150D01*
X7731340Y4229100D01*
X7745560Y4210050D01*
X7762160Y4197350D01*
X7778750Y4191000D01*
X7795340D01*
X7811940Y4197350D01*
X7826160Y4206870D01*
X7838020Y4219570D01*
G01X7917100D02*
X7931320Y4203700D01*
X7947910Y4194170D01*
X7969250Y4191000D01*
X7990590Y4197350D01*
X8007180Y4210050D01*
X8019030Y4232270D01*
X8021400Y4257670D01*
X8016660Y4283070D01*
X8004810Y4298950D01*
X7988210Y4311650D01*
X7971620Y4314820D01*
X7955030Y4311650D01*
X7933690Y4298950D01*
X7940800Y4381500D01*
X8004810D01*
G01X7773000Y3573000D02*
Y4081000D01*
X8027000D01*
Y3573000D01*
X7773000D01*
G01Y4081000D02*
Y3573000D01*
X8027000D01*
Y4081000D01*
X7773000D01*
G01X8073000Y854000D02*
Y1336600D01*
X8327000D01*
Y854000D01*
X8073000D01*
G01Y942900D02*
X8327000D01*
G01X8073000Y930200D02*
X8327000D01*
G01X8073000Y942900D02*
X8327000D01*
G01X8073000Y930200D02*
X8327000D01*
G01X8083470Y1778000D02*
Y1968500D01*
X8130880D01*
X8149840Y1958970D01*
X8164070Y1946270D01*
X8175920Y1927230D01*
X8185400Y1905000D01*
X8187770Y1873250D01*
X8185400Y1841500D01*
X8175920Y1819270D01*
X8164070Y1800220D01*
X8149840Y1787520D01*
X8130880Y1778000D01*
X8083470D01*
G01X8326120D02*
Y1968500D01*
X8297670Y1930400D01*
G01Y1778000D02*
X8354560D01*
G01X8171100Y3365500D02*
Y3228980D01*
X8180580Y3200390D01*
X8199540Y3181350D01*
X8223250Y3175000D01*
X8246960Y3181350D01*
X8265920Y3200390D01*
X8275400Y3228980D01*
Y3365500D01*
G01X8368710Y3333750D02*
X8382930Y3352800D01*
X8399530Y3362330D01*
X8418490Y3365500D01*
X8442200Y3359150D01*
X8458790Y3343270D01*
X8463530Y3324230D01*
X8461160Y3305170D01*
X8451680Y3289300D01*
X8404270Y3257550D01*
X8382930Y3235320D01*
X8368710Y3203570D01*
X8363970Y3175000D01*
X8463530D01*
G01X9164400Y2079620D02*
X9150180Y2089150D01*
X9133590Y2095500D01*
X9114620D01*
X9093280Y2085970D01*
X9076690Y2070100D01*
X9064840Y2051050D01*
X9055350Y2019300D01*
X9052980Y1990720D01*
X9057730Y1962150D01*
X9064840Y1943100D01*
X9079060Y1924050D01*
X9095660Y1911350D01*
X9112250Y1905000D01*
X9128840D01*
X9145440Y1911350D01*
X9159660Y1920870D01*
X9171520Y1933570D01*
G01X9331200Y1905000D02*
Y2095500D01*
X9243480Y1958980D01*
X9362020D01*
G01X9080500Y1206500D02*
Y1714500D01*
X9334500D01*
Y1206500D01*
X9080500D01*
G01Y1714500D02*
Y1206500D01*
X9334500D01*
Y1714500D01*
X9080500D01*
G01X9037400Y4365620D02*
X9023180Y4375150D01*
X9006590Y4381500D01*
X8987620D01*
X8966280Y4371970D01*
X8949690Y4356100D01*
X8937840Y4337050D01*
X8928350Y4305300D01*
X8925980Y4276720D01*
X8930730Y4248150D01*
X8937840Y4229100D01*
X8952060Y4210050D01*
X8968660Y4197350D01*
X8985250Y4191000D01*
X9001840D01*
X9018440Y4197350D01*
X9032660Y4206870D01*
X9044520Y4219570D01*
G01X9123600Y4229100D02*
X9137820Y4206870D01*
X9156780Y4194170D01*
X9178120Y4191000D01*
X9197090Y4194170D01*
X9216050Y4210050D01*
X9227900Y4229100D01*
X9230270Y4248150D01*
X9225530Y4270370D01*
X9208940Y4286250D01*
X9192340Y4292600D01*
X9171010D01*
G01X9192340D02*
X9206570Y4302120D01*
X9218420Y4318000D01*
X9223160Y4337050D01*
X9218420Y4356100D01*
X9206570Y4371970D01*
X9185230Y4381500D01*
X9163900Y4378330D01*
X9142560Y4365620D01*
G01X8973000Y3573000D02*
Y4081000D01*
X9227000D01*
Y3573000D01*
X8973000D01*
G01Y4081000D02*
Y3573000D01*
X9227000D01*
Y4081000D01*
X8973000D01*
G01X10754000Y1227000D02*
G03I-254000J0D01*
G01D02*
G03I-254000J0D01*
G01X10220600Y1074600D02*
X10322200D01*
G01X10271400Y1125400D02*
Y1023800D01*
G01X10754000Y3827000D02*
G03I-254000J0D01*
G01D02*
G03I-254000J0D01*
G01X10220600Y3674600D02*
X10322200D01*
G01X10271400Y3725400D02*
Y3623800D01*
G01X10497900Y1762120D02*
X10483680Y1771650D01*
X10467090Y1778000D01*
X10448120D01*
X10426780Y1768470D01*
X10410190Y1752600D01*
X10398340Y1733550D01*
X10388850Y1701800D01*
X10386480Y1673220D01*
X10391230Y1644650D01*
X10398340Y1625600D01*
X10412560Y1606550D01*
X10429160Y1593850D01*
X10445750Y1587500D01*
X10462340D01*
X10478940Y1593850D01*
X10493160Y1603370D01*
X10505020Y1616070D01*
G01X10591210Y1666870D02*
X10607800Y1689100D01*
X10622030Y1701800D01*
X10640990Y1708150D01*
X10657590Y1701800D01*
X10669440Y1689100D01*
X10678920Y1670050D01*
X10681290Y1647820D01*
X10678920Y1628770D01*
X10669440Y1609720D01*
X10655210Y1593850D01*
X10638620Y1587500D01*
X10619660Y1593850D01*
X10603060Y1612890D01*
X10593580Y1641480D01*
X10591210Y1673220D01*
X10595950Y1714500D01*
X10603060Y1736730D01*
X10614910Y1758950D01*
X10631510Y1774830D01*
X10648100Y1778000D01*
X10664700Y1771650D01*
X10676550Y1755770D01*
G01X10434400Y4429120D02*
X10420180Y4438650D01*
X10403590Y4445000D01*
X10384620D01*
X10363280Y4435470D01*
X10346690Y4419600D01*
X10334840Y4400550D01*
X10325350Y4368800D01*
X10322980Y4340220D01*
X10327730Y4311650D01*
X10334840Y4292600D01*
X10349060Y4273550D01*
X10365660Y4260850D01*
X10382250Y4254500D01*
X10398840D01*
X10415440Y4260850D01*
X10429660Y4270370D01*
X10441520Y4283070D01*
G01X10568010Y4254500D02*
X10572750Y4295770D01*
X10579860Y4330700D01*
X10589340Y4362450D01*
X10601200Y4397370D01*
X10620160Y4445000D01*
X10525340D01*
G01X11173000Y1673000D02*
Y1927000D01*
X11427000D01*
Y1673000D01*
X11173000D01*
G01Y1927000D02*
Y1673000D01*
X11427000D01*
Y1927000D01*
X11173000D01*
G01X11160340Y2197100D02*
X11172190Y2178050D01*
X11186410Y2165350D01*
X11203010Y2159000D01*
X11221970Y2165350D01*
X11236200Y2178050D01*
X11250420Y2197100D01*
X11255160Y2222500D01*
Y2349500D01*
G01X11346100Y2197100D02*
X11360320Y2174870D01*
X11379280Y2162170D01*
X11400620Y2159000D01*
X11419590Y2162170D01*
X11438550Y2178050D01*
X11450400Y2197100D01*
X11452770Y2216150D01*
X11448030Y2238370D01*
X11431440Y2254250D01*
X11414840Y2260600D01*
X11393510D01*
G01X11414840D02*
X11429070Y2270120D01*
X11440920Y2286000D01*
X11445660Y2305050D01*
X11440920Y2324100D01*
X11429070Y2339970D01*
X11407730Y2349500D01*
X11386400Y2346330D01*
X11365060Y2333620D01*
G01X11427000Y2673000D02*
X11173000D01*
Y3435000D01*
X11427000D01*
Y2673000D01*
G01X11173000D02*
X11427000D01*
Y3435000D01*
X11173000D01*
Y2673000D01*
G01X11160340Y3657600D02*
X11172190Y3638550D01*
X11186410Y3625850D01*
X11203010Y3619500D01*
X11221970Y3625850D01*
X11236200Y3638550D01*
X11250420Y3657600D01*
X11255160Y3683000D01*
Y3810000D01*
G01X11353210Y3778250D02*
X11367430Y3797300D01*
X11384030Y3806830D01*
X11402990Y3810000D01*
X11426700Y3803650D01*
X11443290Y3787770D01*
X11448030Y3768730D01*
X11445660Y3749670D01*
X11436180Y3733800D01*
X11388770Y3702050D01*
X11367430Y3679820D01*
X11353210Y3648070D01*
X11348470Y3619500D01*
X11448030D01*
M02*
