G04 ================== begin FILE IDENTIFICATION RECORD ==================*
G04 Layout Name:  D:/ORCAD/B07_0918/allegro/B07_0918.brd*
G04 Film Name:    Soldermask_BOTTOM*
G04 File Format:  Gerber RS274X*
G04 File Origin:  Cadence Allegro 17.2-S073*
G04 Origin Date:  Mon Sep 25 15:13:12 2023*
G04 *
G04 Layer:  PIN/SOLDERMASK_BOTTOM*
G04 Layer:  BOARD GEOMETRY/DESIGN_OUTLINE*
G04 *
G04 Offset:    (0.0000 0.0000)*
G04 Mirror:    No*
G04 Mode:      Positive*
G04 Rotation:  0*
G04 FullContactRelief:  No*
G04 UndefLineWidth:     0.2000*
G04 ================== end FILE IDENTIFICATION RECORD ====================*
%FSLAX35Y35*MOMM*%
%IR0*IPPOS*OFA0.00000B0.00000*MIA0B0*SFA1.00000B1.00000*%
%ADD14O,1.016X1.524*%
%ADD15R,1.016X1.524*%
%ADD12C,2.032*%
%ADD11C,1.905*%
%ADD10C,3.683*%
%ADD13R,1.905X1.905*%
%ADD16C,.2*%
G75*
%LPD*%
G75*
G54D10*
X500000Y500000D03*
Y4500000D03*
X11500000Y500000D03*
Y4500000D03*
G54D11*
X889000Y2476500D03*
X2600000Y2962000D03*
X3362000Y2200000D03*
X3108000D03*
X2854000D03*
X3362000Y2962000D03*
X3108000D03*
X2854000D03*
X3600000Y1590600D03*
X4699000Y596900D03*
X8054000Y2200000D03*
Y2962000D03*
X7800000D03*
X8200000Y1590600D03*
X8562000Y2200000D03*
X8308000D03*
X8562000Y2962000D03*
X8308000D03*
X10500000Y1100000D03*
Y1354000D03*
Y3954000D03*
Y3700000D03*
X11300000Y1800000D03*
Y3308000D03*
Y3054000D03*
Y2800000D03*
G54D12*
X1079500Y4000500D03*
Y3746500D03*
X1651000Y508000D03*
Y1524000D03*
X2500000Y600000D03*
Y1616000D03*
X2600000Y3954000D03*
Y3700000D03*
X3700000Y3500000D03*
Y4516000D03*
X4800000Y3500000D03*
Y4516000D03*
X5461000Y3492500D03*
Y4508500D03*
X6731000Y571500D03*
Y1587500D03*
X6700000Y3500000D03*
X7300000D03*
X6700000Y4516000D03*
X7300000D03*
X7500000Y600000D03*
Y1616000D03*
X7900000Y3954000D03*
Y3700000D03*
X9207500Y1587500D03*
Y1333500D03*
X9100000Y3954000D03*
Y3700000D03*
G54D13*
X2600000Y2200000D03*
X3600000Y600000D03*
X4699000Y1587500D03*
X7800000Y2200000D03*
X8200000Y600000D03*
G54D14*
X5746000Y700000D03*
Y1600000D03*
X5873000Y700000D03*
Y1600000D03*
G54D15*
X6000000Y700000D03*
Y1600000D03*
G54D16*
G01X12000000Y0D02*
Y5000000D01*
X0D01*
Y0D01*
X12000000D01*
M02*
